  0
SECTION
  2
HEADER
  9
$ACADVER
  1
AC1014
  9
$HANDSEED
  5
FFFF
  9
$INSUNITS
 70
     0
  9
$MEASUREMENT
 70
     1
  0
ENDSEC
  0
SECTION
  2
TABLES
  0
TABLE
  2
VPORT
  5
8
330
0
100
AcDbSymbolTable
 70
     4
  0
VPORT
  5
2E
330
8
100
AcDbSymbolTableRecord
100
AcDbViewportTableRecord
  2
*ACTIVE
 70
     0
 10
0.0
 20
0.0
 11
1.0
 21
1.0
 12
210.0
 22
148.5
 13
0.0
 23
0.0
 14
10.0
 24
10.0
 15
10.0
 25
10.0
 16
0.0
 26
0.0
 36
1.0
 17
0.0
 27
0.0
 37
0.0
 40
341.0
 41
1.24
 42
50.0
 43
0.0
 44
0.0
 50
0.0
 51
0.0
 71
     0
 72
   100
 73
     1
 74
     3
 75
     0
 76
     0
 77
     0
 78
     0
  0
ENDTAB
  0
TABLE
  2
LTYPE
  5
5
330
0
100
AcDbSymbolTable
 70
     1
  0
LTYPE
  5
14
330
5
100
AcDbSymbolTableRecord
100
AcDbLinetypeTableRecord
  2
BYBLOCK
 70
     0
  3

 72
    65
 73
     0
 40
0.0
  0
LTYPE
  5
15
330
5
100
AcDbSymbolTableRecord
100
AcDbLinetypeTableRecord
  2
BYLAYER
 70
     0
  3

 72
    65
 73
     0
 40
0.0
  0
LTYPE
  5
16
330
5
100
AcDbSymbolTableRecord
100
AcDbLinetypeTableRecord
  2
CONTINUOUS
 70
     0
  3
Solid line
 72
    65
 73
     0
 40
0.0
  0
ENDTAB
  0
TABLE
  2
LAYER
  5
2
100
AcDbSymbolTable
 70
2
  0
LAYER
  5
50
100
AcDbSymbolTableRecord
100
AcDbLayerTableRecord
  2
0
 70
0
  6
CONTINUOUS
  0
LAYER
  5
51
100
AcDbSymbolTableRecord
100
AcDbLayerTableRecord
  2
Image
 70
0
  6
CONTINUOUS
  0
ENDTAB
  0
TABLE
  2
STYLE
  5
3
330
0
100
AcDbSymbolTable
 70
     1
  0
STYLE
  5
11
330
3
100
AcDbSymbolTableRecord
100
AcDbTextStyleTableRecord
  2
STANDARD
 70
     0
 40
0.0
 41
1.0
 50
0.0
 71
     0
 42
2.5
  3
txt
  4

  0
ENDTAB
  0
TABLE
  2
VIEW
  5
6
330
0
100
AcDbSymbolTable
 70
     0
  0
ENDTAB
  0
TABLE
  2
UCS
  5
7
330
0
100
AcDbSymbolTable
 70
     0
  0
ENDTAB
  0
TABLE
  2
APPID
  5
9
330
0
100
AcDbSymbolTable
 70
     2
  0
APPID
  5
12
330
9
100
AcDbSymbolTableRecord
100
AcDbRegAppTableRecord
  2
ACAD
 70
     0
  0
ENDTAB
  0
TABLE
  2
DIMSTYLE
  5
A
330
0
100
AcDbSymbolTable
 70
     1
  0
DIMSTYLE
105
27
330
A
100
AcDbSymbolTableRecord
100
AcDbDimStyleTableRecord
  2
ISO-25
 70
     0
  3

  4

  5

  6

  7

 40
1.0
 41
2.5
 42
0.625
 43
3.75
 44
1.25
 45
0.0
 46
0.0
 47
0.0
 48
0.0
140
2.5
141
2.5
142
0.0
143
0.03937007874016
144
1.0
145
0.0
146
1.0
147
0.625
 71
     0
 72
     0
 73
     0
 74
     0
 75
     0
 76
     0
 77
     1
 78
     8
170
     0
171
     3
172
     1
173
     0
174
     0
175
     0
176
     0
177
     0
178
     0
270
     2
271
     2
272
     2
273
     2
274
     3
340
11
275
     0
280
     0
281
     0
282
     0
283
     0
284
     8
285
     0
286
     0
287
     3
288
     0
  0
ENDTAB
  0
TABLE
  2
BLOCK_RECORD
  5
1
330
0
100
AcDbSymbolTable
 70
     1
  0
BLOCK_RECORD
  5
1F
330
1
100
AcDbSymbolTableRecord
100
AcDbBlockTableRecord
  2
*MODEL_SPACE
  0
BLOCK_RECORD
  5
1B
330
1
100
AcDbSymbolTableRecord
100
AcDbBlockTableRecord
  2
*PAPER_SPACE
  0
ENDTAB
  0
ENDSEC
  0
SECTION
  2
BLOCKS
  0
BLOCK
  5
20
330
1F
100
AcDbEntity
  8
0
100
AcDbBlockBegin
  2
*MODEL_SPACE
 70
     0
 10
0.0
 20
0.0
 30
0.0
  3
*MODEL_SPACE
  1

  0
ENDBLK
  5
21
330
1F
100
AcDbEntity
  8
0
100
AcDbBlockEnd
  0
BLOCK
  5
1C
330
1B
100
AcDbEntity
 67
     1
  8
0
100
AcDbBlockBegin
  2
*PAPER_SPACE
  1

  0
ENDBLK
  5
1D
330
1B
100
AcDbEntity
 67
     1
  8
0
100
AcDbBlockEnd
  0
ENDSEC
  0
SECTION
  2
ENTITIES
  0
SPLINE
  5
100
100
AcDbEntity
  8
Image
 62
7
100
AcDbSpline
 70
8
 71
3
 72
8
 73
4
 74
0
 40
0
 40
0
 40
0
 40
0
 40
1
 40
1
 40
1
 40
1
 10
46.186227
 20
42.276820
 30
0.0
 10
45.908187
 20
43.004970
 30
0.0
 10
45.797047
 20
77.800730
 30
0.0
 10
45.939247
 20
119.600730
 30
0.0
  0
SPLINE
  5
101
100
AcDbEntity
  8
Image
 62
7
100
AcDbSpline
 70
8
 71
3
 72
8
 73
4
 74
0
 40
0
 40
0
 40
0
 40
0
 40
1
 40
1
 40
1
 40
1
 10
48.586797
 20
195.600738
 30
0.0
 10
50.687217
 20
195.600738
 30
0.0
 10
53.888457
 20
190.498346
 30
0.0
 10
75.086797
 20
153.362931
 30
0.0
  0
SPLINE
  5
102
100
AcDbEntity
  8
Image
 62
7
100
AcDbSpline
 70
8
 71
3
 72
8
 73
4
 74
0
 40
0
 40
0
 40
0
 40
0
 40
1
 40
1
 40
1
 40
1
 10
75.086797
 20
153.362931
 30
0.0
 10
88.347847
 20
130.132130
 30
0.0
 10
99.453117
 20
111.119630
 30
0.0
 10
99.765187
 20
111.112920
 30
0.0
  0
SPLINE
  5
103
100
AcDbEntity
  8
Image
 62
7
100
AcDbSpline
 70
8
 71
3
 72
8
 73
4
 74
0
 40
0
 40
0
 40
0
 40
0
 40
1
 40
1
 40
1
 40
1
 10
99.765187
 20
111.112920
 30
0.0
 10
100.077260
 20
111.105920
 30
0.0
 10
110.489740
 20
130.338230
 30
0.0
 10
122.904050
 20
153.850738
 30
0.0
  0
SPLINE
  5
104
100
AcDbEntity
  8
Image
 62
7
100
AcDbSpline
 70
8
 71
3
 72
8
 73
4
 74
0
 40
0
 40
0
 40
0
 40
0
 40
1
 40
1
 40
1
 40
1
 10
122.904050
 20
153.850738
 30
0.0
 10
140.293280
 20
186.785667
 30
0.0
 10
145.902820
 20
196.600738
 30
0.0
 10
147.336650
 20
196.600738
 30
0.0
  0
SPLINE
  5
105
100
AcDbEntity
  8
Image
 62
7
100
AcDbSpline
 70
8
 71
3
 72
8
 73
4
 74
0
 40
0
 40
0
 40
0
 40
0
 40
1
 40
1
 40
1
 40
1
 10
147.336650
 20
196.600738
 30
0.0
 10
149.135070
 20
196.600738
 30
0.0
 10
149.197790
 20
194.056343
 30
0.0
 10
149.197790
 20
121.100730
 30
0.0
  0
SPLINE
  5
106
100
AcDbEntity
  8
Image
 62
7
100
AcDbSpline
 70
8
 71
3
 72
8
 73
4
 74
0
 40
0
 40
0
 40
0
 40
0
 40
1
 40
1
 40
1
 40
1
 10
149.197790
 20
121.100730
 30
0.0
 10
149.197790
 20
46.267400
 30
0.0
 10
149.180090
 20
45.600730
 30
0.0
 10
147.197790
 20
45.600730
 30
0.0
  0
SPLINE
  5
107
100
AcDbEntity
  8
Image
 62
7
100
AcDbSpline
 70
8
 71
3
 72
8
 73
4
 74
0
 40
0
 40
0
 40
0
 40
0
 40
1
 40
1
 40
1
 40
1
 10
147.197790
 20
45.600730
 30
0.0
 10
145.221960
 20
45.600730
 30
0.0
 10
145.191750
 20
46.434060
 30
0.0
 10
144.697790
 20
114.550180
 30
0.0
  0
LWPOLYLINE
  5
108
100
AcDbEntity
  8
Image
 62
7
100
AcDbPolyline
 90
3
 70
0
 10
45.939247
 20
119.600730
 30
0.0
 10
46.197787
 20
195.600738
 30
0.0
 10
48.586797
 20
195.600738
 30
0.0
  0
SPLINE
  5
109
100
AcDbEntity
  8
Image
 62
7
100
AcDbSpline
 70
8
 71
3
 72
8
 73
4
 74
0
 40
0
 40
0
 40
0
 40
0
 40
1
 40
1
 40
1
 40
1
 10
126.023480
 20
149.050189
 30
0.0
 10
116.027610
 20
130.102980
 30
0.0
 10
106.429970
 20
111.900730
 30
0.0
 10
104.695390
 20
108.600730
 30
0.0
  0
SPLINE
  5
10a
100
AcDbEntity
  8
Image
 62
7
100
AcDbSpline
 70
8
 71
3
 72
8
 73
4
 74
0
 40
0
 40
0
 40
0
 40
0
 40
1
 40
1
 40
1
 40
1
 10
104.695390
 20
108.600730
 30
0.0
 10
102.952280
 20
105.284500
 30
0.0
 10
100.862110
 20
102.600730
 30
0.0
 10
100.022470
 20
102.600730
 30
0.0
  0
SPLINE
  5
10b
100
AcDbEntity
  8
Image
 62
7
100
AcDbSpline
 70
8
 71
3
 72
8
 73
4
 74
0
 40
0
 40
0
 40
0
 40
0
 40
1
 40
1
 40
1
 40
1
 10
100.022470
 20
102.600730
 30
0.0
 10
99.070117
 20
102.600730
 30
0.0
 10
89.678587
 20
118.003220
 30
0.0
 10
74.850567
 20
143.883678
 30
0.0
  0
LWPOLYLINE
  5
10c
100
AcDbEntity
  8
Image
 62
7
100
AcDbPolyline
 90
3
 70
0
 10
144.697790
 20
114.550180
 30
0.0
 10
144.197790
 20
183.499640
 30
0.0
 10
126.023480
 20
149.050189
 30
0.0
  0
SPLINE
  5
10d
100
AcDbEntity
  8
Image
 62
7
100
AcDbSpline
 70
8
 71
3
 72
8
 73
4
 74
0
 40
0
 40
0
 40
0
 40
0
 40
1
 40
1
 40
1
 40
1
 10
50.697787
 20
113.397230
 30
0.0
 10
50.228397
 20
46.021410
 30
0.0
 10
50.090477
 20
41.607200
 30
0.0
 10
48.444767
 20
41.290390
 30
0.0
  0
SPLINE
  5
10e
100
AcDbEntity
  8
Image
 62
7
100
AcDbSpline
 70
8
 71
3
 72
8
 73
4
 74
0
 40
0
 40
0
 40
0
 40
0
 40
1
 40
1
 40
1
 40
1
 10
48.444767
 20
41.290390
 30
0.0
 10
47.480597
 20
41.104780
 30
0.0
 10
46.464257
 20
41.548670
 30
0.0
 10
46.186227
 20
42.276820
 30
0.0
  0
LWPOLYLINE
  5
10f
100
AcDbEntity
  8
Image
 62
7
100
AcDbPolyline
 90
3
 70
0
 10
74.850567
 20
143.883678
 30
0.0
 10
51.197787
 20
185.166618
 30
0.0
 10
50.697787
 20
113.397230
 30
0.0
  0
LWPOLYLINE
  5
110
100
AcDbEntity
  8
Image
 62
7
100
AcDbPolyline
 90
1
 70
1
 10
46.186227
 20
42.276820
 30
0.0
  0
ENDSEC
  0
SECTION
  2
OBJECTS
  0
DICTIONARY
  5
C
330
0
100
AcDbDictionary
  3
ACAD_GROUP
350
D
  3
ACAD_MLINESTYLE
350
17
  0
DICTIONARY
  5
D
330
C
100
AcDbDictionary
  0
DICTIONARY
  5
1A
330
C
100
AcDbDictionary
  0
DICTIONARY
  5
17
330
C
100
AcDbDictionary
  3
STANDARD
350
18
  0
DICTIONARY
  5
19
330
C
100
AcDbDictionary
  0
ENDSEC
  0
EOF
