solid CATIA STL
  facet normal  1.000000e+000  0.000000e+000  0.000000e+000
    outer loop
      vertex -1.010000e+001 -5.500000e+001  1.200000e+001
      vertex -1.010000e+001 -5.500000e+001  5.000000e+000
      vertex -1.010000e+001 -5.000000e+001  1.200000e+001
    endloop
  endfacet
  facet normal  1.000000e+000  0.000000e+000  0.000000e+000
    outer loop
      vertex -1.010000e+001 -5.000000e+001  1.200000e+001
      vertex -1.010000e+001 -5.500000e+001  5.000000e+000
      vertex -1.010000e+001 -4.700000e+001  5.000000e+000
    endloop
  endfacet
  facet normal  1.000000e+000  0.000000e+000  -0.000000e+000
    outer loop
      vertex -1.010000e+001 -5.000000e+001  1.200000e+001
      vertex -1.010000e+001 -4.700000e+001  5.000000e+000
      vertex -1.010000e+001 -4.700000e+001  1.200000e+001
    endloop
  endfacet
  facet normal -1.000000e+000  0.000000e+000  0.000000e+000
    outer loop
      vertex  1.010000e+001 -4.700000e+001  1.200000e+001
      vertex  1.010000e+001 -4.700000e+001  5.000000e+000
      vertex  1.010000e+001 -5.000000e+001  1.200000e+001
    endloop
  endfacet
  facet normal -1.000000e+000  0.000000e+000  -0.000000e+000
    outer loop
      vertex  1.010000e+001 -5.000000e+001  1.200000e+001
      vertex  1.010000e+001 -4.700000e+001  5.000000e+000
      vertex  1.010000e+001 -5.500000e+001  5.000000e+000
    endloop
  endfacet
  facet normal -1.000000e+000  0.000000e+000  0.000000e+000
    outer loop
      vertex  1.010000e+001 -5.000000e+001  1.200000e+001
      vertex  1.010000e+001 -5.500000e+001  5.000000e+000
      vertex  1.010000e+001 -5.500000e+001  1.200000e+001
    endloop
  endfacet
  facet normal  0.000000e+000  0.000000e+000  9.999999e-001
    outer loop
      vertex -1.010000e+001 -5.500000e+001  5.000000e+000
      vertex  1.010000e+001 -5.500000e+001  5.000000e+000
      vertex -1.010000e+001 -4.700000e+001  5.000000e+000
    endloop
  endfacet
  facet normal  -0.000000e+000  0.000000e+000  9.999999e-001
    outer loop
      vertex -1.010000e+001 -4.700000e+001  5.000000e+000
      vertex  1.010000e+001 -5.500000e+001  5.000000e+000
      vertex  1.010000e+001 -4.700000e+001  5.000000e+000
    endloop
  endfacet
  facet normal  1.000000e+000  -0.000000e+000  0.000000e+000
    outer loop
      vertex  1.500000e+001 -5.000000e+001  2.700000e+001
      vertex  1.500000e+001 -5.500000e+001  2.700000e+001
      vertex  1.500000e+001 -5.000000e+001  1.200000e+001
    endloop
  endfacet
  facet normal  1.000000e+000  0.000000e+000  0.000000e+000
    outer loop
      vertex  1.500000e+001 -5.000000e+001  1.200000e+001
      vertex  1.500000e+001 -5.500000e+001  2.700000e+001
      vertex  1.500000e+001 -5.500000e+001  0.000000e+000
    endloop
  endfacet
  facet normal  1.000000e+000  0.000000e+000  0.000000e+000
    outer loop
      vertex  1.500000e+001 -5.000000e+001  1.200000e+001
      vertex  1.500000e+001 -5.500000e+001  0.000000e+000
      vertex  1.500000e+001 -4.700000e+001  1.200000e+001
    endloop
  endfacet
  facet normal  1.000000e+000  0.000000e+000  0.000000e+000
    outer loop
      vertex  1.500000e+001 -4.700000e+001  1.200000e+001
      vertex  1.500000e+001 -5.500000e+001  0.000000e+000
      vertex  1.500000e+001 -4.700000e+001  0.000000e+000
    endloop
  endfacet
  facet normal  0.000000e+000  0.000000e+000  9.999999e-001
    outer loop
      vertex -1.500000e+001 -5.000000e+001  1.200000e+001
      vertex -1.010000e+001 -5.000000e+001  1.200000e+001
      vertex -1.500000e+001 -4.700000e+001  1.200000e+001
    endloop
  endfacet
  facet normal  -0.000000e+000  0.000000e+000  9.999999e-001
    outer loop
      vertex -1.500000e+001 -4.700000e+001  1.200000e+001
      vertex -1.010000e+001 -5.000000e+001  1.200000e+001
      vertex -1.010000e+001 -4.700000e+001  1.200000e+001
    endloop
  endfacet
  facet normal  0.000000e+000  0.000000e+000  9.999999e-001
    outer loop
      vertex  1.010000e+001 -5.000000e+001  1.200000e+001
      vertex  1.500000e+001 -5.000000e+001  1.200000e+001
      vertex  1.010000e+001 -4.700000e+001  1.200000e+001
    endloop
  endfacet
  facet normal  -0.000000e+000  0.000000e+000  9.999999e-001
    outer loop
      vertex  1.010000e+001 -4.700000e+001  1.200000e+001
      vertex  1.500000e+001 -5.000000e+001  1.200000e+001
      vertex  1.500000e+001 -4.700000e+001  1.200000e+001
    endloop
  endfacet
  facet normal  0.000000e+000  0.000000e+000 -1.000000e+000
    outer loop
      vertex -1.500000e+001 -5.500000e+001  0.000000e+000
      vertex -1.500000e+001 -4.700000e+001  0.000000e+000
      vertex  1.500000e+001 -5.500000e+001  0.000000e+000
    endloop
  endfacet
  facet normal  0.000000e+000  0.000000e+000 -1.000000e+000
    outer loop
      vertex  1.500000e+001 -5.500000e+001  0.000000e+000
      vertex -1.500000e+001 -4.700000e+001  0.000000e+000
      vertex  1.500000e+001 -4.700000e+001  0.000000e+000
    endloop
  endfacet
  facet normal -1.000000e+000  -0.000000e+000  0.000000e+000
    outer loop
      vertex -1.500000e+001 -5.500000e+001  2.700000e+001
      vertex -1.500000e+001 -5.000000e+001  2.700000e+001
      vertex -1.500000e+001 -5.500000e+001  0.000000e+000
    endloop
  endfacet
  facet normal -1.000000e+000  0.000000e+000  0.000000e+000
    outer loop
      vertex -1.500000e+001 -5.500000e+001  0.000000e+000
      vertex -1.500000e+001 -5.000000e+001  2.700000e+001
      vertex -1.500000e+001 -5.000000e+001  1.200000e+001
    endloop
  endfacet
  facet normal -1.000000e+000  0.000000e+000  -0.000000e+000
    outer loop
      vertex -1.500000e+001 -5.500000e+001  0.000000e+000
      vertex -1.500000e+001 -5.000000e+001  1.200000e+001
      vertex -1.500000e+001 -4.700000e+001  0.000000e+000
    endloop
  endfacet
  facet normal -1.000000e+000  0.000000e+000  0.000000e+000
    outer loop
      vertex -1.500000e+001 -4.700000e+001  0.000000e+000
      vertex -1.500000e+001 -5.000000e+001  1.200000e+001
      vertex -1.500000e+001 -4.700000e+001  1.200000e+001
    endloop
  endfacet
  facet normal  0.000000e+000  9.999999e-001  0.000000e+000
    outer loop
      vertex -1.500000e+001 -4.700000e+001  1.200000e+001
      vertex -1.010000e+001 -4.700000e+001  1.200000e+001
      vertex -1.500000e+001 -4.700000e+001  0.000000e+000
    endloop
  endfacet
  facet normal  0.000000e+000  1.000000e+000  0.000000e+000
    outer loop
      vertex -1.500000e+001 -4.700000e+001  0.000000e+000
      vertex -1.010000e+001 -4.700000e+001  1.200000e+001
      vertex -1.010000e+001 -4.700000e+001  5.000000e+000
    endloop
  endfacet
  facet normal  0.000000e+000  1.000000e+000  0.000000e+000
    outer loop
      vertex -1.500000e+001 -4.700000e+001  0.000000e+000
      vertex -1.010000e+001 -4.700000e+001  5.000000e+000
      vertex  1.500000e+001 -4.700000e+001  0.000000e+000
    endloop
  endfacet
  facet normal  0.000000e+000  1.000000e+000  0.000000e+000
    outer loop
      vertex  1.500000e+001 -4.700000e+001  0.000000e+000
      vertex -1.010000e+001 -4.700000e+001  5.000000e+000
      vertex  1.010000e+001 -4.700000e+001  5.000000e+000
    endloop
  endfacet
  facet normal  -0.000000e+000  9.999999e-001  0.000000e+000
    outer loop
      vertex  1.500000e+001 -4.700000e+001  0.000000e+000
      vertex  1.010000e+001 -4.700000e+001  5.000000e+000
      vertex  1.500000e+001 -4.700000e+001  1.200000e+001
    endloop
  endfacet
  facet normal  0.000000e+000  1.000000e+000  0.000000e+000
    outer loop
      vertex  1.500000e+001 -4.700000e+001  1.200000e+001
      vertex  1.010000e+001 -4.700000e+001  5.000000e+000
      vertex  1.010000e+001 -4.700000e+001  1.200000e+001
    endloop
  endfacet
  facet normal  0.000000e+000  0.000000e+000  1.000000e+000
    outer loop
      vertex -1.500000e+001 -5.500000e+001  2.700000e+001
      vertex  1.500000e+001 -5.500000e+001  2.700000e+001
      vertex -1.500000e+001 -5.000000e+001  2.700000e+001
    endloop
  endfacet
  facet normal  -0.000000e+000  0.000000e+000  1.000000e+000
    outer loop
      vertex -1.500000e+001 -5.000000e+001  2.700000e+001
      vertex  1.500000e+001 -5.500000e+001  2.700000e+001
      vertex  1.500000e+001 -5.000000e+001  2.700000e+001
    endloop
  endfacet
  facet normal  0.000000e+000  1.000000e+000  -0.000000e+000
    outer loop
      vertex  2.664535e-015 -5.000000e+001  2.047491e+001
      vertex -1.010000e+001 -5.000000e+001  1.200000e+001
      vertex -1.500000e+001 -5.000000e+001  1.200000e+001
    endloop
  endfacet
  facet normal  0.000000e+000  1.000000e+000  0.000000e+000
    outer loop
      vertex  2.664535e-015 -5.000000e+001  2.047491e+001
      vertex -1.500000e+001 -5.000000e+001  1.200000e+001
      vertex -1.500000e+001 -5.000000e+001  2.700000e+001
    endloop
  endfacet
  facet normal  -0.000000e+000  1.000000e+000  0.000000e+000
    outer loop
      vertex  2.664535e-015 -5.000000e+001  2.047491e+001
      vertex -1.500000e+001 -5.000000e+001  2.700000e+001
      vertex  1.500000e+001 -5.000000e+001  2.700000e+001
    endloop
  endfacet
  facet normal  0.000000e+000  1.000000e+000  0.000000e+000
    outer loop
      vertex  2.664535e-015 -5.000000e+001  2.047491e+001
      vertex  1.500000e+001 -5.000000e+001  2.700000e+001
      vertex  1.500000e+001 -5.000000e+001  1.200000e+001
    endloop
  endfacet
  facet normal  0.000000e+000  1.000000e+000  0.000000e+000
    outer loop
      vertex  2.664535e-015 -5.000000e+001  2.047491e+001
      vertex  1.500000e+001 -5.000000e+001  1.200000e+001
      vertex  1.010000e+001 -5.000000e+001  1.200000e+001
    endloop
  endfacet
  facet normal  0.000000e+000 -1.000000e+000  0.000000e+000
    outer loop
      vertex  0.000000e+000 -5.500000e+001  2.047491e+001
      vertex -1.500000e+001 -5.500000e+001  2.700000e+001
      vertex -1.010000e+001 -5.500000e+001  1.200000e+001
    endloop
  endfacet
  facet normal  0.000000e+000 -1.000000e+000  0.000000e+000
    outer loop
      vertex -1.500000e+001 -5.500000e+001  0.000000e+000
      vertex  1.500000e+001 -5.500000e+001  0.000000e+000
      vertex  1.010000e+001 -5.500000e+001  5.000000e+000
    endloop
  endfacet
  facet normal  -0.000000e+000 -1.000000e+000  0.000000e+000
    outer loop
      vertex -1.500000e+001 -5.500000e+001  0.000000e+000
      vertex  1.010000e+001 -5.500000e+001  5.000000e+000
      vertex -1.010000e+001 -5.500000e+001  5.000000e+000
    endloop
  endfacet
  facet normal  -0.000000e+000 -1.000000e+000  0.000000e+000
    outer loop
      vertex -1.500000e+001 -5.500000e+001  0.000000e+000
      vertex -1.010000e+001 -5.500000e+001  5.000000e+000
      vertex -1.010000e+001 -5.500000e+001  1.200000e+001
    endloop
  endfacet
  facet normal  -0.000000e+000 -1.000000e+000  0.000000e+000
    outer loop
      vertex -1.500000e+001 -5.500000e+001  0.000000e+000
      vertex -1.010000e+001 -5.500000e+001  1.200000e+001
      vertex -1.500000e+001 -5.500000e+001  2.700000e+001
    endloop
  endfacet
  facet normal  0.000000e+000 -1.000000e+000  0.000000e+000
    outer loop
      vertex  1.500000e+001 -5.500000e+001  2.700000e+001
      vertex -1.500000e+001 -5.500000e+001  2.700000e+001
      vertex  0.000000e+000 -5.500000e+001  2.047491e+001
    endloop
  endfacet
  facet normal  0.000000e+000 -1.000000e+000  0.000000e+000
    outer loop
      vertex  1.500000e+001 -5.500000e+001  2.700000e+001
      vertex  0.000000e+000 -5.500000e+001  2.047491e+001
      vertex  1.010000e+001 -5.500000e+001  1.200000e+001
    endloop
  endfacet
  facet normal  0.000000e+000 -1.000000e+000  0.000000e+000
    outer loop
      vertex  1.500000e+001 -5.500000e+001  2.700000e+001
      vertex  1.010000e+001 -5.500000e+001  1.200000e+001
      vertex  1.010000e+001 -5.500000e+001  5.000000e+000
    endloop
  endfacet
  facet normal  0.000000e+000 -1.000000e+000  0.000000e+000
    outer loop
      vertex  1.500000e+001 -5.500000e+001  2.700000e+001
      vertex  1.010000e+001 -5.500000e+001  5.000000e+000
      vertex  1.500000e+001 -5.500000e+001  0.000000e+000
    endloop
  endfacet
  facet normal -6.427876e-001  3.425461e-016 -7.660444e-001
    outer loop
      vertex  0.000000e+000 -5.500000e+001  2.047491e+001
      vertex  2.664535e-015 -5.000000e+001  2.047491e+001
      vertex  1.010000e+001 -5.500000e+001  1.200000e+001
    endloop
  endfacet
  facet normal -6.427876e-001  0.000000e+000 -7.660444e-001
    outer loop
      vertex  1.010000e+001 -5.500000e+001  1.200000e+001
      vertex  2.664535e-015 -5.000000e+001  2.047491e+001
      vertex  1.010000e+001 -5.000000e+001  1.200000e+001
    endloop
  endfacet
  facet normal  6.427876e-001  0.000000e+000 -7.660444e-001
    outer loop
      vertex -1.010000e+001 -5.500000e+001  1.200000e+001
      vertex -1.010000e+001 -5.000000e+001  1.200000e+001
      vertex  0.000000e+000 -5.500000e+001  2.047491e+001
    endloop
  endfacet
  facet normal  6.427876e-001 -3.425461e-016 -7.660444e-001
    outer loop
      vertex  0.000000e+000 -5.500000e+001  2.047491e+001
      vertex -1.010000e+001 -5.000000e+001  1.200000e+001
      vertex  2.664535e-015 -5.000000e+001  2.047491e+001
    endloop
  endfacet
endsolid CATIA STL
