999
DXF file: C:\Users\sesa63760\Dev\_Creo\CAD\MCADDE0000013_3D-CAD\drw0001_4.dxf
999
Pro/ENGINEER 2019471 by Parametric Technology Corporation
  0
SECTION
  2
HEADER
  9
$ACADVER
  1
AC1024
  9
$DWGCODEPAGE
  3
ANSI_1252
  9
$EXTMAX
 10
66.4826280042
 20
94.0254310345
 30
0.0
  9
$EXTMIN
 10
0.0
 20
0.0
 30
0.0
  9
$LIMMIN
 10
0.0
 20
0.0
  9
$LIMMAX
 10
66.4826280042
 20
94.0254310345
  9
$VIEWCTR
 10
33.2413140021
 20
47.0127155172
  9
$VIEWSIZE
 40
94.0254310345
  9
$CLAYER
  8
0
  9
$LTSCALE
 40
6.1290651341
  9
$CELTYPE
  6
BYLAYER
  9
$DIMSCALE
 40
1.0
  9
$DIMASZ
 40
0.7914598572
  9
$DIMEXO
 40
1.0
  9
$DIMDLI
 40
4.2346268199
  9
$DIMEXE
 40
1.0
  9
$DIMCEN
 40
1.002937931
  9
$DIMLFAC
 40
1.0
  9
$DIMBLK
  1
_FILLED
  9
$DIMALT
 70
0
  9
$DIMALTF
 40
0.0393700787
  9
$DIMTXT
 40
1.1080438001
  9
$DIMTOL
 70
1
  9
$DIMLIM
 70
0
  9
$DIMTFAC
 40
1.0
  9
$DIMTP
 40
0.01
  9
$DIMTM
 40
0.01
  9
$DIMGAP
 40
0.625
  9
$DIMDSEP
 70
46
  9
$AUNITS
 70
0
  9
$PDMODE
 70
3
  9
$PDSIZE
 40
0.3125
  9
$HANDSEED
  5
2AE
  9
$TILEMODE
 70
1
  9
$MEASUREMENT
 70
1
  9
$INSUNITS
 70
4
  0
ENDSEC
  0
SECTION
  2
CLASSES
  0
CLASS
  1
ACDBDICTIONARYWDFLT
  2
AcDbDictionaryWithDefault
  3
AutoCAD 2000
 90
0
 91
1
280
0
281
0
  0
CLASS
  1
ACDBPLACEHOLDER
  2
AcDbPlaceHolder
  3
AutoCAD 2000
 90
0
 91
1
280
0
281
0
  0
CLASS
  1
LAYOUT
  2
AcDbLayout
  3
AutoCAD 2000
 90
0
 91
0
280
0
281
0
  0
ENDSEC
  0
SECTION
  2
TABLES
  0
TABLE
  2
VPORT
  5
8
100
AcDbSymbolTable
 70
2
  0
VPORT
  5
1F4
100
AcDbSymbolTableRecord
100
AcDbViewportTableRecord
  2
*ACTIVE
 70
0
 10
0.0
 20
0.0
 11
1.0
 21
1.0
 12
33.2413140021
 22
47.0127155172
 13
0.0
 23
0.0
 14
1.0
 24
1.0
 15
0.0
 25
0.0
 16
0.0
 26
0.0
 36
1.0
 17
0.0
 27
0.0
 37
0.0
 40
94.0254310345
 41
0.7070707071
 42
50.0
 43
0.0
 44
0.0
 50
0.0
 51
0.0
 71
0
 72
100
 73
1
 74
1
 75
0
 76
0
 77
0
 78
0
  0
ENDTAB
  0
TABLE
  2
LTYPE
  5
5
100
AcDbSymbolTable
 70
6
  0
LTYPE
  5
14
100
AcDbSymbolTableRecord
100
AcDbLinetypeTableRecord
  2
BYBLOCK
 70
0
  3

 72
65
 73
0
 40
0.0
  0
LTYPE
  5
15
100
AcDbSymbolTableRecord
100
AcDbLinetypeTableRecord
  2
BYLAYER
 70
0
  3

 72
65
 73
0
 40
0.0
  0
LTYPE
  5
16
100
AcDbSymbolTableRecord
100
AcDbLinetypeTableRecord
  2
CONTINUOUS
 70
64
  3
Solid line
 72
65
 73
0
 40
0.0
  0
LTYPE
  5
1F5
100
AcDbSymbolTableRecord
100
AcDbLinetypeTableRecord
  2
CENTER
 70
64
  3
____ _ ____ _ ____ _ ____ _ ____ _ ____ _ ____
 72
65
 73
4
 40
0.6
 49
0.375
 74
0
 49
-0.075
 74
0
 49
0.075
 74
0
 49
-0.075
 74
0
  0
LTYPE
  5
1F6
100
AcDbSymbolTableRecord
100
AcDbLinetypeTableRecord
  2
HIDDEN
 70
64
  3
- - - - - - - - - - - - - - - - - - - -
 72
65
 73
2
 40
0.2
 49
0.1
 74
0
 49
-0.1
 74
0
  0
LTYPE
  5
1F7
100
AcDbSymbolTableRecord
100
AcDbLinetypeTableRecord
  2
PHANTOM
 70
64
  3
_____ _ _ _____ _ _ _____ _ _ _____
 72
65
 73
6
 40
0.8
 49
0.45
 74
0
 49
-0.05
 74
0
 49
0.1
 74
0
 49
-0.05
 74
0
 49
0.1
 74
0
 49
-0.05
 74
0
  0
LTYPE
  5
1F8
100
AcDbSymbolTableRecord
100
AcDbLinetypeTableRecord
  2
DOT
 70
64
  3
. . . . . . . . . . . . . . . . . . . .
 72
65
 73
2
 40
0.2
 49
0.1
 74
0
 49
-0.1
 74
0
  0
LTYPE
  5
1F9
100
AcDbSymbolTableRecord
100
AcDbLinetypeTableRecord
  2
DASHED
 70
64
  3
- - - - - - - - - - - - - - - - - - - -
 72
65
 73
2
 40
0.2
 49
0.1
 74
0
 49
-0.1
 74
0
  0
ENDTAB
  0
TABLE
  2
LAYER
  5
2
100
AcDbSymbolTable
 70
36
  0
LAYER
  5
10
100
AcDbSymbolTableRecord
100
AcDbLayerTableRecord
  2
0
 70
0
 62
7
  6
CONTINUOUS
370
-3
390
F
  0
LAYER
  5
1FA
100
AcDbSymbolTableRecord
100
AcDbLayerTableRecord
  2
DEFAULT_1
 70
0
 62
7
  6
CENTER
370
-3
390
F
  0
LAYER
  5
1FB
100
AcDbSymbolTableRecord
100
AcDbLayerTableRecord
  2
DEFAULT_2
 70
0
 62
7
  6
HIDDEN
370
-3
390
F
  0
LAYER
  5
1FC
100
AcDbSymbolTableRecord
100
AcDbLayerTableRecord
  2
DEFAULT_3
 70
0
 62
7
  6
PHANTOM
370
-3
390
F
  0
LAYER
  5
1FD
100
AcDbSymbolTableRecord
100
AcDbLayerTableRecord
  2
00_COMPONENTS
 70
0
 62
7
  6
CONTINUOUS
370
-3
390
F
  0
LAYER
  5
1FE
100
AcDbSymbolTableRecord
100
AcDbLayerTableRecord
  2
01_1_DEFAULT_DATUMS
 70
0
 62
7
  6
CONTINUOUS
370
-3
390
F
  0
LAYER
  5
1FF
100
AcDbSymbolTableRecord
100
AcDbLayerTableRecord
  2
01_PLANES
 70
0
 62
7
  6
CONTINUOUS
370
-3
390
F
  0
LAYER
  5
200
100
AcDbSymbolTableRecord
100
AcDbLayerTableRecord
  2
02_COORD_SYS
 70
0
 62
7
  6
CONTINUOUS
370
-3
390
F
  0
LAYER
  5
201
100
AcDbSymbolTableRecord
100
AcDbLayerTableRecord
  2
03_AXES
 70
0
 62
7
  6
CONTINUOUS
370
-3
390
F
  0
LAYER
  5
202
100
AcDbSymbolTableRecord
100
AcDbLayerTableRecord
  2
04_POINTS
 70
0
 62
7
  6
CONTINUOUS
370
-3
390
F
  0
LAYER
  5
203
100
AcDbSymbolTableRecord
100
AcDbLayerTableRecord
  2
05_CURVES
 70
0
 62
7
  6
CONTINUOUS
370
-3
390
F
  0
LAYER
  5
204
100
AcDbSymbolTableRecord
100
AcDbLayerTableRecord
  2
06_SURFS
 70
0
 62
7
  6
CONTINUOUS
370
-3
390
F
  0
LAYER
  5
205
100
AcDbSymbolTableRecord
100
AcDbLayerTableRecord
  2
07_COSMETICS
 70
0
 62
7
  6
CONTINUOUS
370
-3
390
F
  0
LAYER
  5
206
100
AcDbSymbolTableRecord
100
AcDbLayerTableRecord
  2
10_NOTES
 70
0
 62
7
  6
CONTINUOUS
370
-3
390
F
  0
LAYER
  5
207
100
AcDbSymbolTableRecord
100
AcDbLayerTableRecord
  2
11_NOTES_PUB
 70
0
 62
7
  6
CONTINUOUS
370
-3
390
F
  0
LAYER
  5
208
100
AcDbSymbolTableRecord
100
AcDbLayerTableRecord
  2
13_REF_GTOL
 70
0
 62
7
  6
CONTINUOUS
370
-3
390
F
  0
LAYER
  5
209
100
AcDbSymbolTableRecord
100
AcDbLayerTableRecord
  2
16_MISC
 70
0
 62
7
  6
CONTINUOUS
370
-3
390
F
  0
LAYER
  5
20A
100
AcDbSymbolTableRecord
100
AcDbLayerTableRecord
  2
17_NO_PRINT
 70
0
 62
7
  6
CONTINUOUS
370
-3
390
F
  0
LAYER
  5
20B
100
AcDbSymbolTableRecord
100
AcDbLayerTableRecord
  2
18_DATUM_CAMS_JOINTS
 70
0
 62
7
  6
CONTINUOUS
370
-3
390
F
  0
LAYER
  5
20C
100
AcDbSymbolTableRecord
100
AcDbLayerTableRecord
  2
19_DATUM_FUNCTIONAL
 70
0
 62
7
  6
CONTINUOUS
370
-3
390
F
  0
LAYER
  5
20D
100
AcDbSymbolTableRecord
100
AcDbLayerTableRecord
  2
20_DATUM_KINEMATIC_SCHEME
 70
0
 62
7
  6
CONTINUOUS
370
-3
390
F
  0
ENDTAB
  0
TABLE
  2
STYLE
  5
3
100
AcDbSymbolTable
 70
1
  0
STYLE
  5
11
100
AcDbSymbolTableRecord
100
AcDbTextStyleTableRecord
  2
STANDARD
 70
0
 40
0.0
 41
1.0
 50
0.0
 71
0
 42
0.2
  3
ARIAL.TTF
  4

  0
STYLE
  5
20E
100
AcDbSymbolTableRecord
100
AcDbTextStyleTableRecord
  2
TEXTSTYLE_1
 70
0
 40
0.0
 41
0.8
 50
0.0
 71
0
 42
0.2
  3
gdt
  4

  0
ENDTAB
  0
TABLE
  2
VIEW
  5
6
100
AcDbSymbolTable
 70
0
  0
ENDTAB
  0
TABLE
  2
UCS
  5
7
100
AcDbSymbolTable
 70
0
  0
ENDTAB
  0
TABLE
  2
APPID
  5
9
100
AcDbSymbolTable
 70
1
  0
APPID
  5
20F
100
AcDbSymbolTableRecord
100
AcDbRegAppTableRecord
  2
ACAD
 70
0
  0
ENDTAB
  0
TABLE
  2
BLOCK_RECORD
  5
1
100
AcDbSymbolTable
 70
0
  0
BLOCK_RECORD
  5
210
100
AcDbSymbolTableRecord
100
AcDbBlockTableRecord
  2
*Model_Space
  0
BLOCK_RECORD
  5
211
100
AcDbSymbolTableRecord
100
AcDbBlockTableRecord
  2
*Paper_Space
  0
BLOCK_RECORD
  5
212
100
AcDbSymbolTableRecord
100
AcDbBlockTableRecord
  2
_FILLED
  0
ENDTAB
  0
TABLE
  2
DIMSTYLE
  5
A
100
AcDbSymbolTable
 70
1
100
AcDbDimStyleTable
 71
0
  0
DIMSTYLE
105
213
100
AcDbSymbolTableRecord
100
AcDbDimStyleTableRecord
  2
STANDARD
 70
0
  3

  4

 40
1.0
 41
0.7914598572
 42
1.0
 43
0.38
 44
1.0
 45
0.0
 46
0.0
 47
0.01
 48
0.01
140
1.1080438001
141
0.09
142
0.0
143
25.4
144
1.0
145
0.0
146
1.0
147
0.625
 71
1
 72
0
 73
0
 74
0
 75
0
 76
0
 77
1
 78
8
 79
2
170
0
171
1
172
0
173
0
174
0
175
0
176
0
177
0
178
0
270
2
179
2
271
2
272
2
273
2
274
2
275
0
280
0
281
0
282
0
283
1
284
8
285
0
286
0
287
3
288
0
340
11
278
46
341
212
342
212
343
212
344
212
  0
ENDTAB
  0
ENDSEC
  0
SECTION
  2
BLOCKS
  0
BLOCK
  5
20
100
AcDbEntity
  8
0
100
AcDbBlockBegin
  2
*Model_Space
 70
0
 10
0.0
 20
0.0
 30
0.0
  3
*Model_Space
  1

  0
ENDBLK
  5
21
100
AcDbEntity
  8
0
100
AcDbBlockEnd
  0
BLOCK
  5
1C
100
AcDbEntity
  8
0
100
AcDbBlockBegin
  2
*Paper_Space
 70
0
 10
0.0
 20
0.0
 30
0.0
  3
*Paper_Space
  1

  0
ENDBLK
  5
1D
100
AcDbEntity
  8
0
100
AcDbBlockEnd
  0
BLOCK
  5
214
100
AcDbEntity
  8
0
100
AcDbBlockBegin
  2
_FILLED
 70
64
 10
0.0
 20
0.0
  3
_FILLED
  1

  0
SOLID
  5
215
100
AcDbEntity
  8
0
  6
BYBLOCK
 62
0
100
AcDbTrace
 10
0.0
 20
0.0
 11
-1.0
 21
0.25
 12
-1.0
 22
-0.25
 13
-1.0
 23
-0.25
  0
ENDBLK
  5
216
100
AcDbEntity
  8
0
  6
BYBLOCK
 62
0
100
AcDbBlockEnd
  0
ENDSEC
  0
SECTION
  2
ENTITIES
  0
LWPOLYLINE
  5
217
100
AcDbEntity
  8
0
100
AcDbPolyline
 62
7
  6
BYLAYER
 90
4
 70
0
 10
37.4874086563
 20
15.1565934907
 10
37.8907805693
 20
15.2313731722
 10
38.4012906942
 20
15.6257892477
 10
38.6124087035
 20
16.2816039887
  0
LWPOLYLINE
  5
218
100
AcDbEntity
  8
0
100
AcDbPolyline
 62
7
  6
BYLAYER
 90
3
 70
0
 10
35.1874086563
 20
15.4493287668
 10
35.5894960592
 20
15.5236144187
 10
36.100801064
 20
15.917836163
  0
LWPOLYLINE
  5
219
100
AcDbEntity
  8
0
100
AcDbPolyline
 62
7
  6
BYLAYER
 90
4
 70
0
 10
32.8874086563
 20
15.4646540616
 10
33.2844868918
 20
15.5370556443
 10
33.797835052
 20
15.9297778319
 10
34.0124086718
 20
16.5896430658
  0
LWPOLYLINE
  5
21A
100
AcDbEntity
  8
0
100
AcDbPolyline
 62
7
  6
BYLAYER
 90
4
 70
0
 10
30.6874086563
 20
15.7371581895
 10
31.0903077026
 20
15.8117550522
 10
31.6011872172
 20
16.2062028753
 10
31.7281812906
 20
16.6006623741
  0
LINE
  5
21B
100
AcDbEntity
  8
0
100
AcDbLine
 62
7
  6
BYLAYER
 10
7.4044605538
 20
58.6841750757
 11
7.4044605538
 21
77.7841750757
  0
LINE
  5
21C
100
AcDbEntity
  8
0
100
AcDbLine
 62
7
  6
BYLAYER
 10
10.1541537386
 20
27.7515453836
 11
10.1541537386
 21
27.0515453836
  0
LINE
  5
21D
100
AcDbEntity
  8
0
100
AcDbLine
 62
7
  6
BYLAYER
 10
11.1544605538
 20
78.2841750757
 11
11.1544605538
 21
72.0340691979
  0
LINE
  5
21E
100
AcDbEntity
  8
0
100
AcDbLine
 62
7
  6
BYLAYER
 10
11.2541537386
 20
27.1915453836
 11
11.2541537386
 21
26.5415453836
  0
LINE
  5
21F
100
AcDbEntity
  8
0
100
AcDbLine
 62
7
  6
BYLAYER
 10
14.2541537386
 20
26.5415453836
 11
14.2541537386
 21
27.1915453836
  0
LINE
  5
220
100
AcDbEntity
  8
0
100
AcDbLine
 62
7
  6
BYLAYER
 10
14.6544605538
 20
72.0340691979
 11
14.6544605538
 21
78.2841750757
  0
LINE
  5
221
100
AcDbEntity
  8
0
100
AcDbLine
 62
7
  6
BYLAYER
 10
43.3094445842
 20
28.1655308107
 11
44.3694906454
 21
28.2582728239
  0
LINE
  5
222
100
AcDbEntity
  8
0
100
AcDbLine
 62
7
  6
BYLAYER
 10
30.6874086563
 20
26.2391750757
 11
30.840316707
 21
26.2515372727
  0
LINE
  5
223
100
AcDbEntity
  8
0
100
AcDbLine
 62
7
  6
BYLAYER
 10
36.3123471126
 20
27.3774787545
 11
36.1048203087
 21
27.3773075484
  0
LINE
  5
224
100
AcDbEntity
  8
0
100
AcDbLine
 62
7
  6
BYLAYER
 10
11.1541521808
 20
26.0515453836
 11
14.3541697082
 21
26.0515453836
  0
LINE
  5
225
100
AcDbEntity
  8
0
100
AcDbLine
 62
7
  6
BYLAYER
 10
19.7041521808
 20
26.0515453836
 11
22.9041697082
 21
26.0515453836
  0
LINE
  5
226
100
AcDbEntity
  8
0
100
AcDbLine
 62
7
  6
BYLAYER
 10
31.9048027812
 20
26.0515453836
 11
35.1048203087
 21
26.0515453836
  0
LINE
  5
227
100
AcDbEntity
  8
0
100
AcDbLine
 62
7
  6
BYLAYER
 10
41.7044430264
 20
26.0515453836
 11
44.9044605538
 21
26.0515453836
  0
LINE
  5
228
100
AcDbEntity
  8
0
100
AcDbLine
 62
7
  6
BYLAYER
 10
23.4897675197
 20
26.2515416703
 11
31.3192225878
 21
26.2515339206
  0
LINE
  5
229
100
AcDbEntity
  8
0
100
AcDbLine
 62
7
  6
BYLAYER
 10
37.4739906829
 20
26.251541764
 11
41.1188459499
 21
26.2515420673
  0
LINE
  5
22A
100
AcDbEntity
  8
0
100
AcDbLine
 62
7
  6
BYLAYER
 10
14.9397643655
 20
26.2515401483
 11
19.118555215
 21
26.2515420138
  0
LINE
  5
22B
100
AcDbEntity
  8
0
100
AcDbLine
 62
7
  6
BYLAYER
 10
10.8658222612
 20
26.5415453836
 11
14.642485216
 21
26.5415453836
  0
LINE
  5
22C
100
AcDbEntity
  8
0
100
AcDbLine
 62
7
  6
BYLAYER
 10
19.4158222612
 20
26.5415453836
 11
23.192485216
 21
26.5415453836
  0
LINE
  5
22D
100
AcDbEntity
  8
0
100
AcDbLine
 62
7
  6
BYLAYER
 10
31.6164728617
 20
26.5415453836
 11
35.3931358164
 21
26.5415453836
  0
LINE
  5
22E
100
AcDbEntity
  8
0
100
AcDbLine
 62
7
  6
BYLAYER
 10
41.4161131069
 20
26.5415453836
 11
45.1927760616
 21
26.5415453836
  0
LINE
  5
22F
100
AcDbEntity
  8
0
100
AcDbLine
 62
7
  6
BYLAYER
 10
44.8044445842
 20
27.1915453836
 11
41.8044445842
 21
27.1915453836
  0
LINE
  5
230
100
AcDbEntity
  8
0
100
AcDbLine
 62
7
  6
BYLAYER
 10
35.0048043391
 20
27.1915453836
 11
32.0048043391
 21
27.1915453836
  0
LINE
  5
231
100
AcDbEntity
  8
0
100
AcDbLine
 62
7
  6
BYLAYER
 10
22.8041537386
 20
27.1915453836
 11
19.8041537386
 21
27.1915453836
  0
LINE
  5
232
100
AcDbEntity
  8
0
100
AcDbLine
 62
7
  6
BYLAYER
 10
14.2541537386
 20
27.1915453836
 11
11.2541537386
 21
27.1915453836
  0
LINE
  5
233
100
AcDbEntity
  8
0
100
AcDbLine
 62
7
  6
BYLAYER
 10
30.9048043391
 20
27.3765501069
 11
23.9041697082
 21
27.3765501069
  0
LINE
  5
234
100
AcDbEntity
  8
0
100
AcDbLine
 62
7
  6
BYLAYER
 10
19.3041537386
 20
27.3765515481
 11
19.0241537386
 21
27.3765515481
  0
LINE
  5
235
100
AcDbEntity
  8
0
100
AcDbLine
 62
7
  6
BYLAYER
 10
18.7041537386
 20
27.3765515481
 11
15.3541697082
 21
27.3765515481
  0
LINE
  5
236
100
AcDbEntity
  8
0
100
AcDbLine
 62
7
  6
BYLAYER
 10
40.7044445842
 20
27.3767991963
 11
36.3489310765
 21
27.3782708898
  0
LINE
  5
237
100
AcDbEntity
  8
0
100
AcDbLine
 62
7
  6
BYLAYER
 10
30.6462739929
 20
26.252381498
 11
30.6865760583
 21
26.2515316509
  0
LINE
  5
238
100
AcDbEntity
  8
0
100
AcDbLine
 62
7
  6
BYLAYER
 10
11.6891076773
 20
28.2582728239
 11
12.7591537386
 21
28.1655308107
  0
LINE
  5
239
100
AcDbEntity
  8
0
100
AcDbLine
 62
7
  6
BYLAYER
 10
20.2391076773
 20
28.2582728239
 11
21.3091537386
 21
28.1655308107
  0
LINE
  5
23A
100
AcDbEntity
  8
0
100
AcDbLine
 62
7
  6
BYLAYER
 10
30.4604750276
 20
26.2623821735
 11
30.6871657009
 21
26.2391751027
  0
LINE
  5
23B
100
AcDbEntity
  8
0
100
AcDbLine
 62
7
  6
BYLAYER
 10
15.3541697082
 20
27.7515453836
 11
15.3541697082
 21
27.0515453836
  0
LWPOLYLINE
  5
23C
100
AcDbEntity
  8
0
100
AcDbPolyline
 62
7
  6
BYLAYER
 90
3
 70
0
 10
37.3681287273
 20
28.5027565874
 10
37.0714835093
 20
28.4294758363
 10
36.8683851599
 20
28.3158441027
  0
LINE
  5
23D
100
AcDbEntity
  8
0
100
AcDbLine
 62
7
  6
BYLAYER
 10
30.6874086563
 20
28.5214776341
 11
30.5795993689
 21
28.5015341002
  0
LINE
  5
23E
100
AcDbEntity
  8
0
100
AcDbLine
 62
7
  6
BYLAYER
 10
33.509804339
 20
28.1655308107
 11
34.5698504003
 21
28.2582728239
  0
LINE
  5
23F
100
AcDbEntity
  8
0
100
AcDbLine
 62
7
  6
BYLAYER
 10
21.3091537386
 20
28.1655308107
 11
22.3691997998
 21
28.2582728239
  0
LINE
  5
240
100
AcDbEntity
  8
0
100
AcDbLine
 62
7
  6
BYLAYER
 10
12.7591537386
 20
28.1655308107
 11
13.8191997998
 21
28.2582728239
  0
LINE
  5
241
100
AcDbEntity
  8
0
100
AcDbLine
 62
7
  6
BYLAYER
 10
37.4704714345
 20
28.509044247
 11
37.3681287273
 21
28.5027565874
  0
LINE
  5
242
100
AcDbEntity
  8
0
100
AcDbLine
 62
7
  6
BYLAYER
 10
30.6859557675
 20
28.5015515338
 11
30.684456397
 21
28.5015294824
  0
LINE
  5
243
100
AcDbEntity
  8
0
100
AcDbLine
 62
7
  6
BYLAYER
 10
37.4874086563
 20
28.5091750757
 11
37.4701624809
 21
28.5090428766
  0
LINE
  5
244
100
AcDbEntity
  8
0
100
AcDbLine
 62
7
  6
BYLAYER
 10
37.4817489608
 20
28.5091608391
 11
37.4874086563
 21
28.5091750757
  0
LINE
  5
245
100
AcDbEntity
  8
0
100
AcDbLine
 62
7
  6
BYLAYER
 10
45.1927760616
 20
28.2615453836
 11
41.4161131069
 21
28.2615453836
  0
LINE
  5
246
100
AcDbEntity
  8
0
100
AcDbLine
 62
7
  6
BYLAYER
 10
35.3931358164
 20
28.2615453836
 11
31.6164728617
 21
28.2615453836
  0
LINE
  5
247
100
AcDbEntity
  8
0
100
AcDbLine
 62
7
  6
BYLAYER
 10
23.192485216
 20
28.2615453836
 11
19.4158222612
 21
28.2615453836
  0
LINE
  5
248
100
AcDbEntity
  8
0
100
AcDbLine
 62
7
  6
BYLAYER
 10
14.642485216
 20
28.2615453836
 11
10.8658222612
 21
28.2615453836
  0
LINE
  5
249
100
AcDbEntity
  8
0
100
AcDbLine
 62
7
  6
BYLAYER
 10
19.0487627624
 20
28.5015418138
 11
15.009558802
 21
28.5015436052
  0
LINE
  5
24A
100
AcDbEntity
  8
0
100
AcDbLine
 62
7
  6
BYLAYER
 10
41.0490539771
 20
28.5015421829
 11
37.4739898592
 21
28.5015424697
  0
LINE
  5
24B
100
AcDbEntity
  8
0
100
AcDbLine
 62
7
  6
BYLAYER
 10
31.249423303
 20
28.501551754
 11
23.5595594716
 21
28.5015429356
  0
LINE
  5
24C
100
AcDbEntity
  8
0
100
AcDbLine
 62
7
  6
BYLAYER
 10
11.1541521808
 20
28.7515453836
 11
14.3541697081
 21
28.7515453836
  0
LINE
  5
24D
100
AcDbEntity
  8
0
100
AcDbLine
 62
7
  6
BYLAYER
 10
19.7041521808
 20
28.7515453836
 11
22.9041697081
 21
28.7515453836
  0
LINE
  5
24E
100
AcDbEntity
  8
0
100
AcDbLine
 62
7
  6
BYLAYER
 10
31.9048027813
 20
28.7515453836
 11
35.1048203086
 21
28.7515453836
  0
LINE
  5
24F
100
AcDbEntity
  8
0
100
AcDbLine
 62
7
  6
BYLAYER
 10
41.7044430264
 20
28.7515453836
 11
44.9044605538
 21
28.7515453836
  0
LINE
  5
250
100
AcDbEntity
  8
0
100
AcDbLine
 62
7
  6
BYLAYER
 10
37.5492023311
 20
28.5074440821
 11
37.4966089008
 21
28.5091364249
  0
LINE
  5
251
100
AcDbEntity
  8
0
100
AcDbLine
 62
7
  6
BYLAYER
 10
30.7733772297
 20
28.5181354993
 11
30.6874086563
 21
28.5214776341
  0
LINE
  5
252
100
AcDbEntity
  8
0
100
AcDbLine
 62
7
  6
BYLAYER
 10
32.4397582778
 20
28.2582728239
 11
33.509804339
 21
28.1655308107
  0
LINE
  5
253
100
AcDbEntity
  8
0
100
AcDbLine
 62
7
  6
BYLAYER
 10
42.2393985229
 20
28.2582728239
 11
43.3094445842
 21
28.1655308107
  0
LINE
  5
254
100
AcDbEntity
  8
0
100
AcDbLine
 62
7
  6
BYLAYER
 10
37.5830869277
 20
28.5015425167
 11
37.5492023311
 21
28.5074440821
  0
LINE
  5
255
100
AcDbEntity
  8
0
100
AcDbLine
 62
7
  6
BYLAYER
 10
30.8471291289
 20
28.5015491747
 11
30.7733772297
 21
28.5181354993
  0
LINE
  5
256
100
AcDbEntity
  8
0
100
AcDbLine
 62
7
  6
BYLAYER
 10
18.7041537386
 20
27.7515453836
 11
18.7041537386
 21
27.0515453836
  0
LINE
  5
257
100
AcDbEntity
  8
0
100
AcDbLine
 62
7
  6
BYLAYER
 10
19.8041537386
 20
27.1915453836
 11
19.8041537386
 21
26.5415453836
  0
LWPOLYLINE
  5
258
100
AcDbEntity
  8
0
100
AcDbPolyline
 62
7
  6
BYLAYER
 90
4
 70
0
 10
29.5624085843
 20
16.8622831429
 10
29.7723506748
 20
16.2079934233
 10
30.3044960944
 20
15.8042971892
 10
30.6874086563
 20
15.7371581895
  0
LINE
  5
259
100
AcDbEntity
  8
0
100
AcDbLine
 62
7
  6
BYLAYER
 10
22.8041537386
 20
26.5415453836
 11
22.8041537386
 21
27.1915453836
  0
LWPOLYLINE
  5
25A
100
AcDbEntity
  8
0
100
AcDbPolyline
 62
7
  6
BYLAYER
 90
4
 70
0
 10
31.7624086407
 20
16.5896430664
 10
31.9835431946
 20
15.920755867
 10
32.5059465112
 20
15.5313026908
 10
32.8874086563
 20
15.4646540616
  0
LINE
  5
25B
100
AcDbEntity
  8
0
100
AcDbLine
 62
7
  6
BYLAYER
 10
23.9041697082
 20
27.7515453836
 11
23.9041697082
 21
27.0515453836
  0
LWPOLYLINE
  5
25C
100
AcDbEntity
  8
0
100
AcDbPolyline
 62
7
  6
BYLAYER
 90
4
 70
0
 10
34.062408316
 20
16.5743651252
 10
34.2730145339
 20
15.9192357181
 10
34.8054422299
 20
15.5161260274
 10
35.1874086563
 20
15.4493287668
  0
LWPOLYLINE
  5
25D
100
AcDbEntity
  8
0
100
AcDbPolyline
 62
7
  6
BYLAYER
 90
4
 70
0
 10
36.3624086089
 20
16.2816039875
 10
36.5800812947
 20
15.6167261306
 10
37.099580808
 20
15.2255263633
 10
37.4874086563
 20
15.1565934907
  0
LINE
  5
25E
100
AcDbEntity
  8
0
100
AcDbLine
 62
7
  6
BYLAYER
 10
29.5624080979
 20
26.2515347046
 11
29.5624085843
 21
16.8622831429
  0
LINE
  5
25F
100
AcDbEntity
  8
0
100
AcDbLine
 62
7
  6
BYLAYER
 10
29.5624087088
 20
58.6841750757
 11
29.5624080129
 21
28.5015472868
  0
LINE
  5
260
100
AcDbEntity
  8
0
100
AcDbLine
 62
7
  6
BYLAYER
 10
30.6874086563
 20
58.6841750757
 11
30.6874086563
 21
28.4891750757
  0
LINE
  5
261
100
AcDbEntity
  8
0
100
AcDbLine
 62
7
  6
BYLAYER
 10
30.6874086563
 20
15.7371581895
 11
30.6874086563
 21
26.2391750757
  0
LINE
  5
262
100
AcDbEntity
  8
0
100
AcDbLine
 62
7
  6
BYLAYER
 10
30.9048043391
 20
27.7515453836
 11
30.9048043391
 21
27.0515453836
  0
LINE
  5
263
100
AcDbEntity
  8
0
100
AcDbLine
 62
7
  6
BYLAYER
 10
32.0048043391
 20
27.1915453836
 11
32.0048043391
 21
26.5415453836
  0
LINE
  5
264
100
AcDbEntity
  8
0
100
AcDbLine
 62
7
  6
BYLAYER
 10
32.8874086563
 20
58.6841750757
 11
32.8874086563
 21
28.7515453836
  0
LINE
  5
265
100
AcDbEntity
  8
0
100
AcDbLine
 62
7
  6
BYLAYER
 10
32.8874086563
 20
15.4646540616
 11
32.8874086563
 21
26.0515453836
  0
LINE
  5
266
100
AcDbEntity
  8
0
100
AcDbLine
 62
7
  6
BYLAYER
 10
34.0124086718
 20
16.5896430658
 11
34.0124081554
 21
26.0515453836
  0
LINE
  5
267
100
AcDbEntity
  8
0
100
AcDbLine
 62
7
  6
BYLAYER
 10
34.0124089086
 20
28.7515453836
 11
34.012408731
 21
58.6841750757
  0
LINE
  5
268
100
AcDbEntity
  8
0
100
AcDbLine
 62
7
  6
BYLAYER
 10
34.0624086013
 20
58.6841750757
 11
34.0624158816
 21
28.7515453836
  0
LINE
  5
269
100
AcDbEntity
  8
0
100
AcDbLine
 62
7
  6
BYLAYER
 10
34.0624084291
 20
26.0515453836
 11
34.062408316
 21
16.5743651252
  0
LWPOLYLINE
  5
26A
100
AcDbEntity
  8
0
100
AcDbPolyline
 62
7
  6
BYLAYER
 90
4
 70
0
 10
36.3489310468
 20
27.3780265415
 10
36.4317582341
 20
26.9538542261
 10
36.8392121754
 20
26.448120963
 10
37.4739906829
 20
26.251541764
  0
LINE
  5
26B
100
AcDbEntity
  8
0
100
AcDbLine
 62
7
  6
BYLAYER
 10
35.0048043391
 20
26.5415453836
 11
35.0048043391
 21
27.1915453836
  0
LINE
  5
26C
100
AcDbEntity
  8
0
100
AcDbLine
 62
7
  6
BYLAYER
 10
35.1874086563
 20
58.6841750757
 11
35.1874086563
 21
28.7515453836
  0
LINE
  5
26D
100
AcDbEntity
  8
0
100
AcDbLine
 62
7
  6
BYLAYER
 10
35.1874086563
 20
15.4493287668
 11
35.1874086563
 21
26.1348336903
  0
LINE
  5
26E
100
AcDbEntity
  8
0
100
AcDbLine
 62
7
  6
BYLAYER
 10
36.1048203087
 20
27.7515453836
 11
36.1048203087
 21
27.0515453836
  0
LINE
  5
26F
100
AcDbEntity
  8
0
100
AcDbLine
 62
7
  6
BYLAYER
 10
36.312408994
 20
16.5743651582
 11
36.312401416
 21
27.3420630632
  0
LINE
  5
270
100
AcDbEntity
  8
0
100
AcDbLine
 62
7
  6
BYLAYER
 10
36.312400675
 20
27.3503312137
 11
36.3124087115
 21
58.6841750757
  0
LINE
  5
271
100
AcDbEntity
  8
0
100
AcDbLine
 62
7
  6
BYLAYER
 10
36.3624088
 20
58.6841750757
 11
36.3624016212
 21
27.4453969542
  0
LINE
  5
272
100
AcDbEntity
  8
0
100
AcDbLine
 62
7
  6
BYLAYER
 10
36.3624076793
 20
27.0554695287
 11
36.3624086089
 21
16.2816039875
  0
LINE
  5
273
100
AcDbEntity
  8
0
100
AcDbLine
 62
7
  6
BYLAYER
 10
36.312443207
 20
27.3488207843
 11
36.3124629912
 21
27.3607652013
  0
LINE
  5
274
100
AcDbEntity
  8
0
100
AcDbLine
 62
7
  6
BYLAYER
 10
37.4874086563
 20
58.6841750757
 11
37.4874086563
 21
28.5091364249
  0
LINE
  5
275
100
AcDbEntity
  8
0
100
AcDbLine
 62
7
  6
BYLAYER
 10
37.4874086563
 20
15.1565934907
 11
37.4874086563
 21
26.251541764
  0
LINE
  5
276
100
AcDbEntity
  8
0
100
AcDbLine
 62
7
  6
BYLAYER
 10
38.6124174637
 20
28.5015422724
 11
38.6124085122
 21
58.6841750757
  0
LINE
  5
277
100
AcDbEntity
  8
0
100
AcDbLine
 62
7
  6
BYLAYER
 10
38.6124087035
 20
16.2816039887
 11
38.6124106467
 21
26.2515419649
  0
LWPOLYLINE
  5
278
100
AcDbEntity
  8
0
100
AcDbPolyline
 62
7
  6
BYLAYER
 90
6
 70
0
 10
36.2853655795
 20
27.1037285549
 10
36.3083261776
 20
27.2525084934
 10
36.3118969416
 20
27.314528944
 10
36.3122350914
 20
27.3287447515
 10
36.3123536002
 20
27.3368925434
 10
36.312443207
 20
27.3488207843
  0
LINE
  5
279
100
AcDbEntity
  8
0
100
AcDbLine
 62
7
  6
BYLAYER
 10
40.7044445842
 20
27.7515453836
 11
40.7044445842
 21
27.0515453836
  0
LINE
  5
27A
100
AcDbEntity
  8
0
100
AcDbLine
 62
7
  6
BYLAYER
 10
41.8044445842
 20
27.1915453836
 11
41.8044445842
 21
26.5415453836
  0
LINE
  5
27B
100
AcDbEntity
  8
0
100
AcDbLine
 62
7
  6
BYLAYER
 10
44.8044445842
 20
26.5415453836
 11
44.8044445842
 21
27.1915453836
  0
LINE
  5
27C
100
AcDbEntity
  8
0
100
AcDbLine
 62
7
  6
BYLAYER
 10
36.100801064
 20
15.917836163
 11
36.312408994
 21
16.5743651582
  0
LINE
  5
27D
100
AcDbEntity
  8
0
100
AcDbLine
 62
7
  6
BYLAYER
 10
45.9044605538
 20
27.7515453836
 11
45.9044605538
 21
27.0515453836
  0
LINE
  5
27E
100
AcDbEntity
  8
0
100
AcDbLine
 62
7
  6
BYLAYER
 10
60.8044605538
 20
58.6841750757
 11
7.4044605538
 21
58.6841750757
  0
LWPOLYLINE
  5
27F
100
AcDbEntity
  8
0
100
AcDbPolyline
 62
7
  6
BYLAYER
 90
5
 70
0
 10
35.9231959664
 20
26.5040215986
 10
36.0279742716
 20
26.6010694807
 10
36.1485446101
 20
26.7645170503
 10
36.2337242171
 20
26.9354669293
 10
36.2853655795
 20
27.1037285549
  0
LWPOLYLINE
  5
280
100
AcDbEntity
  8
0
100
AcDbPolyline
 62
7
  6
BYLAYER
 90
4
 70
0
 10
37.4739898592
 20
28.5015424697
 10
36.8443939437
 20
28.3084876049
 10
36.434965295
 20
27.8069943456
 10
36.3489310765
 20
27.3782708898
  0
LINE
  5
281
100
AcDbEntity
  8
0
100
AcDbLine
 62
7
  6
BYLAYER
 10
60.8044605538
 20
58.6841750757
 11
60.8044605538
 21
77.7841750757
  0
LINE
  5
282
100
AcDbEntity
  8
0
100
AcDbLine
 62
7
  6
BYLAYER
 10
11.1544605538
 20
72.0340691979
 11
14.6544605538
 21
72.0340691979
  0
LINE
  5
283
100
AcDbEntity
  8
0
100
AcDbLine
 62
7
  6
BYLAYER
 10
14.6544605538
 20
72.6444233299
 11
11.1544605538
 21
72.6444233299
  0
LINE
  5
284
100
AcDbEntity
  8
0
100
AcDbLine
 62
7
  6
BYLAYER
 10
60.8044605538
 20
77.7841750757
 11
14.6544605538
 21
77.7841750757
  0
LINE
  5
285
100
AcDbEntity
  8
0
100
AcDbLine
 62
7
  6
BYLAYER
 10
11.1544605538
 20
77.7841750757
 11
7.4044605538
 21
77.7841750757
  0
LINE
  5
286
100
AcDbEntity
  8
0
100
AcDbLine
 62
7
  6
BYLAYER
 10
14.6544605538
 20
78.2841750757
 11
11.1544605538
 21
78.2841750757
  0
ARC
  5
287
100
AcDbEntity
  8
0
100
AcDbCircle
 62
7
  6
BYLAYER
 10
14.3541697082
 20
27.0515453836
 40
1.0
100
AcDbArc
 50
270.0
 51
360.0
  0
ARC
  5
288
100
AcDbEntity
  8
0
100
AcDbCircle
 62
7
  6
BYLAYER
 10
11.1541537386
 20
27.0515453836
 40
1.0
100
AcDbArc
 50
179.9999999976
 51
269.9999999997
  0
ARC
  5
289
100
AcDbEntity
  8
0
100
AcDbCircle
 62
7
  6
BYLAYER
 10
22.9041697082
 20
27.0515453836
 40
1.0
100
AcDbArc
 50
270.0
 51
360.0
  0
ARC
  5
28A
100
AcDbEntity
  8
0
100
AcDbCircle
 62
7
  6
BYLAYER
 10
19.7041537386
 20
27.0515453836
 40
1.0
100
AcDbArc
 50
179.9999999976
 51
269.9999999997
  0
ARC
  5
28B
100
AcDbEntity
  8
0
100
AcDbCircle
 62
7
  6
BYLAYER
 10
13.8722254906
 20
27.3999091037
 40
0.86
100
AcDbArc
 50
296.3659385521
 51
93.5349727906
  0
ARC
  5
28C
100
AcDbEntity
  8
0
100
AcDbCircle
 62
7
  6
BYLAYER
 10
22.4222254906
 20
27.3999091037
 40
0.86
100
AcDbArc
 50
296.3659385521
 51
93.5349727906
  0
ARC
  5
28D
100
AcDbEntity
  8
0
100
AcDbCircle
 62
7
  6
BYLAYER
 10
11.6141537386
 20
27.4015453836
 40
1.14
100
AcDbArc
 50
131.0282543697
 51
228.9717456302
  0
ARC
  5
28E
100
AcDbEntity
  8
0
100
AcDbCircle
 62
7
  6
BYLAYER
 10
13.8941537386
 20
27.4015453836
 40
1.14
100
AcDbArc
 50
311.02825437
 51
48.9717456302
  0
ARC
  5
28F
100
AcDbEntity
  8
0
100
AcDbCircle
 62
7
  6
BYLAYER
 10
20.1641537386
 20
27.4015453836
 40
1.14
100
AcDbArc
 50
131.0282543697
 51
228.9717456302
  0
ARC
  5
290
100
AcDbEntity
  8
0
100
AcDbCircle
 62
7
  6
BYLAYER
 10
22.4441537386
 20
27.4015453836
 40
1.14
100
AcDbArc
 50
311.02825437
 51
48.9717456302
  0
ARC
  5
291
100
AcDbEntity
  8
0
100
AcDbCircle
 62
7
  6
BYLAYER
 10
14.3541697082
 20
27.7515453836
 40
1.0
100
AcDbArc
 50
0.0
 51
90.000000003
  0
ARC
  5
292
100
AcDbEntity
  8
0
100
AcDbCircle
 62
7
  6
BYLAYER
 10
11.1541537386
 20
27.7515453836
 40
1.0
100
AcDbArc
 50
90.0000892551
 51
180.0000000023
  0
ARC
  5
293
100
AcDbEntity
  8
0
100
AcDbCircle
 62
7
  6
BYLAYER
 10
22.9041697082
 20
27.7515453836
 40
1.0
100
AcDbArc
 50
0.0
 51
90.000000003
  0
ARC
  5
294
100
AcDbEntity
  8
0
100
AcDbCircle
 62
7
  6
BYLAYER
 10
19.7041537386
 20
27.7515453836
 40
1.0
100
AcDbArc
 50
90.0000892551
 51
180.0000000023
  0
ARC
  5
295
100
AcDbEntity
  8
0
100
AcDbCircle
 62
7
  6
BYLAYER
 10
11.6141537386
 20
27.4015453836
 40
0.86
100
AcDbArc
 50
85.0000000036
 51
245.2534754131
  0
ARC
  5
296
100
AcDbEntity
  8
0
100
AcDbCircle
 62
7
  6
BYLAYER
 10
20.1641537386
 20
27.4015453836
 40
0.86
100
AcDbArc
 50
85.0000000036
 51
245.2534754131
  0
ARC
  5
297
100
AcDbEntity
  8
0
100
AcDbCircle
 62
7
  6
BYLAYER
 10
35.1874086563
 20
27.3792425804
 40
1.125
100
AcDbArc
 50
359.9140417084
 51
41.3390448629
  0
ARC
  5
298
100
AcDbEntity
  8
0
100
AcDbCircle
 62
7
  6
BYLAYER
 10
35.1874086563
 20
27.3765421189
 40
1.125
100
AcDbArc
 50
319.7208854302
 51
0.0515749993
  0
ARC
  5
299
100
AcDbEntity
  8
0
100
AcDbCircle
 62
7
  6
BYLAYER
 10
37.4874086563
 20
27.3841750757
 40
1.125
100
AcDbArc
 50
90.2882471412
 51
119.6369646355
  0
ARC
  5
29A
100
AcDbEntity
  8
0
100
AcDbCircle
 62
7
  6
BYLAYER
 10
37.4874086563
 20
27.3841750757
 40
1.125
100
AcDbArc
 50
88.9336784053
 51
90.0
  0
ARC
  5
29B
100
AcDbEntity
  8
0
100
AcDbCircle
 62
7
  6
BYLAYER
 10
30.6874086563
 20
27.3641750757
 40
1.125
100
AcDbArc
 50
268.1956312113
 51
271.7560806329
  0
ARC
  5
29C
100
AcDbEntity
  8
0
100
AcDbCircle
 62
7
  6
BYLAYER
 10
35.1048203087
 20
27.0515453836
 40
1.0
100
AcDbArc
 50
270.0
 51
360.0
  0
ARC
  5
29D
100
AcDbEntity
  8
0
100
AcDbCircle
 62
7
  6
BYLAYER
 10
31.9048043391
 20
27.0515453836
 40
1.0
100
AcDbArc
 50
179.9999999976
 51
269.9999999997
  0
ARC
  5
29E
100
AcDbEntity
  8
0
100
AcDbCircle
 62
7
  6
BYLAYER
 10
44.9044605538
 20
27.0515453836
 40
1.0
100
AcDbArc
 50
270.0
 51
360.0
  0
ARC
  5
29F
100
AcDbEntity
  8
0
100
AcDbCircle
 62
7
  6
BYLAYER
 10
41.7044445842
 20
27.0515453836
 40
1.0
100
AcDbArc
 50
179.9999999976
 51
269.9999999997
  0
ARC
  5
2A0
100
AcDbEntity
  8
0
100
AcDbCircle
 62
7
  6
BYLAYER
 10
34.622876091
 20
27.3999091037
 40
0.86
100
AcDbArc
 50
296.3659385521
 51
93.5349727906
  0
ARC
  5
2A1
100
AcDbEntity
  8
0
100
AcDbCircle
 62
7
  6
BYLAYER
 10
44.4225163362
 20
27.3999091037
 40
0.86
100
AcDbArc
 50
296.3659385521
 51
93.5349727906
  0
ARC
  5
2A2
100
AcDbEntity
  8
0
100
AcDbCircle
 62
7
  6
BYLAYER
 10
32.3648043391
 20
27.4015453836
 40
1.14
100
AcDbArc
 50
131.0282543697
 51
228.9717456302
  0
ARC
  5
2A3
100
AcDbEntity
  8
0
100
AcDbCircle
 62
7
  6
BYLAYER
 10
34.6448043391
 20
27.4015453836
 40
1.14
100
AcDbArc
 50
311.02825437
 51
48.9717456302
  0
ARC
  5
2A4
100
AcDbEntity
  8
0
100
AcDbCircle
 62
7
  6
BYLAYER
 10
42.1644445842
 20
27.4015453836
 40
1.14
100
AcDbArc
 50
131.0282543697
 51
228.9717456302
  0
ARC
  5
2A5
100
AcDbEntity
  8
0
100
AcDbCircle
 62
7
  6
BYLAYER
 10
44.4444445842
 20
27.4015453836
 40
1.14
100
AcDbArc
 50
311.02825437
 51
48.9717456302
  0
ARC
  5
2A6
100
AcDbEntity
  8
0
100
AcDbCircle
 62
7
  6
BYLAYER
 10
35.1048203087
 20
27.7515453836
 40
1.0
100
AcDbArc
 50
0.0
 51
90.000000003
  0
ARC
  5
2A7
100
AcDbEntity
  8
0
100
AcDbCircle
 62
7
  6
BYLAYER
 10
31.9048043391
 20
27.7515453836
 40
1.0
100
AcDbArc
 50
90.0000892551
 51
180.0000000023
  0
ARC
  5
2A8
100
AcDbEntity
  8
0
100
AcDbCircle
 62
7
  6
BYLAYER
 10
44.9044605538
 20
27.7515453836
 40
1.0
100
AcDbArc
 50
0.0
 51
90.000000003
  0
ARC
  5
2A9
100
AcDbEntity
  8
0
100
AcDbCircle
 62
7
  6
BYLAYER
 10
41.7044445842
 20
27.7515453836
 40
1.0
100
AcDbArc
 50
90.0000892551
 51
180.0000000023
  0
ARC
  5
2AA
100
AcDbEntity
  8
0
100
AcDbCircle
 62
7
  6
BYLAYER
 10
32.3648043391
 20
27.4015453836
 40
0.86
100
AcDbArc
 50
85.0000000036
 51
245.2534754131
  0
ARC
  5
2AB
100
AcDbEntity
  8
0
100
AcDbCircle
 62
7
  6
BYLAYER
 10
42.1644445842
 20
27.4015453836
 40
0.86
100
AcDbArc
 50
85.0000000036
 51
245.2534754131
  0
ENDSEC
  0
SECTION
  2
OBJECTS
  0
DICTIONARY
  5
C
100
AcDbDictionary
280
0
281
1
  3
ACAD_GROUP
350
D
  3
ACAD_MLINESTYLE
350
17
  3
ACAD_LAYOUT
350
1A
  3
ACAD_PLOTSETTINGS
350
19
  3
ACAD_PLOTSTYLENAME
350
E
  0
DICTIONARY
  5
D
102
{ACAD_REACTORS
330
C
102
}
100
AcDbDictionary
280
0
281
1
  0
ACDBDICTIONARYWDFLT
  5
E
102
{ACAD_REACTORS
330
C
102
}
100
AcDbDictionary
281
1
  3
Normal
350
F
100
AcDbDictionaryWithDefault
340
F
  0
DICTIONARY
  5
17
102
{ACAD_REACTORS
330
C
102
}
100
AcDbDictionary
280
0
281
1
  3
Standard
350
18
  0
DICTIONARY
  5
19
102
{ACAD_REACTORS
330
C
102
}
100
AcDbDictionary
281
1
  0
DICTIONARY
  5
1A
102
{ACAD_REACTORS
330
C
102
}
100
AcDbDictionary
281
1
  3
Model
350
2AC
  3
Layout1
350
2AD
  0
ACDBPLACEHOLDER
  5
F
102
{ACAD_REACTORS
330
E
102
}
  0
MLINESTYLE
  5
18
102
{ACAD_REACTORS
330
17
102
}
100
AcDbMlineStyle
  2
STANDARD
 70
0
  3

 62
256
 51
90.0
 52
90.0
 71
2
 49
0.5
 62
256
  6
BYLAYER
 49
-0.5
 62
256
  6
BYLAYER
  0
LAYOUT
  5
2AC
102
{ACAD_REACTORS
330
1A
102
}
100
AcDbPlotSettings
  1

  2
none_device
  4

  6

 40
0.0
 41
0.0
 42
0.0
 43
0.0
 44
210.0
 45
297.0
 46
0.0
 47
0.0
 48
0.0
 49
0.0
140
0.0
141
0.0
142
1.0
143
1.0
 70
1024
 72
1
 73
0
 74
0
  7

 75
0
147
1.0
148
0.0
149
0.0
100
AcDbLayout
  1
Model
 70
0
 71
0
 10
0.0
 20
0.0
 11
210.0
 21
297.0
 12
0.0
 22
0.0
 32
0.0
 14
0.0
 24
0.0
 34
0.0
 15
0.0
 25
0.0
 35
0.0
146
0.0
 13
0.0
 23
0.0
 33
0.0
 16
1.0
 26
0.0
 36
0.0
 17
0.0
 27
1.0
 37
0.0
 76
0
330
210
345
0
346
0
  0
LAYOUT
  5
2AD
102
{ACAD_REACTORS
330
1A
102
}
100
AcDbPlotSettings
  1

  2
none_device
  4

  6

 40
0.0
 41
0.0
 42
0.0
 43
0.0
 44
210.0
 45
297.0
 46
0.0
 47
0.0
 48
0.0
 49
0.0
140
0.0
141
0.0
142
1.0
143
1.0
 70
0
 72
1
 73
0
 74
0
  7

 75
0
147
1.0
148
0.0
149
0.0
100
AcDbLayout
  1
Layout1
 70
0
 71
1
 10
0.0
 20
0.0
 11
210.0
 21
297.0
 12
0.0
 22
0.0
 32
0.0
 14
0.0
 24
0.0
 34
0.0
 15
0.0
 25
0.0
 35
0.0
146
0.0
 13
0.0
 23
0.0
 33
0.0
 16
1.0
 26
0.0
 36
0.0
 17
0.0
 27
1.0
 37
0.0
 76
0
330
211
345
0
346
0
  0
ENDSEC
  0
EOF
