999
DXF file: C:\Users\sesa63760\Dev\_Creo\CAD\MCADDE0000013_3D-CAD\drw0001_3.dxf
999
Pro/ENGINEER 2019471 by Parametric Technology Corporation
  0
SECTION
  2
HEADER
  9
$ACADVER
  1
AC1024
  9
$DWGCODEPAGE
  3
ANSI_1252
  9
$EXTMAX
 10
126.0712639771
 20
178.3007876248
 30
0.0
  9
$EXTMIN
 10
0.0
 20
0.0
 30
0.0
  9
$LIMMIN
 10
0.0
 20
0.0
  9
$LIMMAX
 10
126.0712639771
 20
178.3007876248
  9
$VIEWCTR
 10
63.0356319885
 20
89.1503938124
  9
$VIEWSIZE
 40
178.3007876248
  9
$CLAYER
  8
0
  9
$LTSCALE
 40
11.62256986
  9
$CELTYPE
  6
BYLAYER
  9
$DIMSCALE
 40
1.0
  9
$DIMASZ
 40
1.5008483807
  9
$DIMEXO
 40
1.0
  9
$DIMDLI
 40
8.030139176
  9
$DIMEXE
 40
1.0
  9
$DIMCEN
 40
1.901875068
  9
$DIMLFAC
 40
1.0
  9
$DIMBLK
  1
_FILLED
  9
$DIMALT
 70
0
  9
$DIMALTF
 40
0.0393700787
  9
$DIMTXT
 40
2.101187733
  9
$DIMTOL
 70
1
  9
$DIMLIM
 70
0
  9
$DIMTFAC
 40
1.0
  9
$DIMTP
 40
0.01
  9
$DIMTM
 40
0.01
  9
$DIMGAP
 40
0.625
  9
$DIMDSEP
 70
46
  9
$AUNITS
 70
0
  9
$PDMODE
 70
3
  9
$PDSIZE
 40
0.3125
  9
$HANDSEED
  5
2DA
  9
$TILEMODE
 70
1
  9
$MEASUREMENT
 70
1
  9
$INSUNITS
 70
4
  0
ENDSEC
  0
SECTION
  2
CLASSES
  0
CLASS
  1
ACDBDICTIONARYWDFLT
  2
AcDbDictionaryWithDefault
  3
AutoCAD 2000
 90
0
 91
1
280
0
281
0
  0
CLASS
  1
ACDBPLACEHOLDER
  2
AcDbPlaceHolder
  3
AutoCAD 2000
 90
0
 91
1
280
0
281
0
  0
CLASS
  1
LAYOUT
  2
AcDbLayout
  3
AutoCAD 2000
 90
0
 91
0
280
0
281
0
  0
ENDSEC
  0
SECTION
  2
TABLES
  0
TABLE
  2
VPORT
  5
8
100
AcDbSymbolTable
 70
2
  0
VPORT
  5
1F4
100
AcDbSymbolTableRecord
100
AcDbViewportTableRecord
  2
*ACTIVE
 70
0
 10
0.0
 20
0.0
 11
1.0
 21
1.0
 12
63.0356319885
 22
89.1503938124
 13
0.0
 23
0.0
 14
1.0
 24
1.0
 15
0.0
 25
0.0
 16
0.0
 26
0.0
 36
1.0
 17
0.0
 27
0.0
 37
0.0
 40
178.3007876248
 41
0.7070707071
 42
50.0
 43
0.0
 44
0.0
 50
0.0
 51
0.0
 71
0
 72
100
 73
1
 74
1
 75
0
 76
0
 77
0
 78
0
  0
ENDTAB
  0
TABLE
  2
LTYPE
  5
5
100
AcDbSymbolTable
 70
6
  0
LTYPE
  5
14
100
AcDbSymbolTableRecord
100
AcDbLinetypeTableRecord
  2
BYBLOCK
 70
0
  3

 72
65
 73
0
 40
0.0
  0
LTYPE
  5
15
100
AcDbSymbolTableRecord
100
AcDbLinetypeTableRecord
  2
BYLAYER
 70
0
  3

 72
65
 73
0
 40
0.0
  0
LTYPE
  5
16
100
AcDbSymbolTableRecord
100
AcDbLinetypeTableRecord
  2
CONTINUOUS
 70
64
  3
Solid line
 72
65
 73
0
 40
0.0
  0
LTYPE
  5
1F5
100
AcDbSymbolTableRecord
100
AcDbLinetypeTableRecord
  2
CENTER
 70
64
  3
____ _ ____ _ ____ _ ____ _ ____ _ ____ _ ____
 72
65
 73
4
 40
0.6
 49
0.375
 74
0
 49
-0.075
 74
0
 49
0.075
 74
0
 49
-0.075
 74
0
  0
LTYPE
  5
1F6
100
AcDbSymbolTableRecord
100
AcDbLinetypeTableRecord
  2
HIDDEN
 70
64
  3
- - - - - - - - - - - - - - - - - - - -
 72
65
 73
2
 40
0.2
 49
0.1
 74
0
 49
-0.1
 74
0
  0
LTYPE
  5
1F7
100
AcDbSymbolTableRecord
100
AcDbLinetypeTableRecord
  2
PHANTOM
 70
64
  3
_____ _ _ _____ _ _ _____ _ _ _____
 72
65
 73
6
 40
0.8
 49
0.45
 74
0
 49
-0.05
 74
0
 49
0.1
 74
0
 49
-0.05
 74
0
 49
0.1
 74
0
 49
-0.05
 74
0
  0
LTYPE
  5
1F8
100
AcDbSymbolTableRecord
100
AcDbLinetypeTableRecord
  2
DOT
 70
64
  3
. . . . . . . . . . . . . . . . . . . .
 72
65
 73
2
 40
0.2
 49
0.1
 74
0
 49
-0.1
 74
0
  0
LTYPE
  5
1F9
100
AcDbSymbolTableRecord
100
AcDbLinetypeTableRecord
  2
DASHED
 70
64
  3
- - - - - - - - - - - - - - - - - - - -
 72
65
 73
2
 40
0.2
 49
0.1
 74
0
 49
-0.1
 74
0
  0
ENDTAB
  0
TABLE
  2
LAYER
  5
2
100
AcDbSymbolTable
 70
36
  0
LAYER
  5
10
100
AcDbSymbolTableRecord
100
AcDbLayerTableRecord
  2
0
 70
0
 62
7
  6
CONTINUOUS
370
-3
390
F
  0
LAYER
  5
1FA
100
AcDbSymbolTableRecord
100
AcDbLayerTableRecord
  2
DEFAULT_1
 70
0
 62
7
  6
CENTER
370
-3
390
F
  0
LAYER
  5
1FB
100
AcDbSymbolTableRecord
100
AcDbLayerTableRecord
  2
DEFAULT_2
 70
0
 62
7
  6
HIDDEN
370
-3
390
F
  0
LAYER
  5
1FC
100
AcDbSymbolTableRecord
100
AcDbLayerTableRecord
  2
DEFAULT_3
 70
0
 62
7
  6
PHANTOM
370
-3
390
F
  0
LAYER
  5
1FD
100
AcDbSymbolTableRecord
100
AcDbLayerTableRecord
  2
00_COMPONENTS
 70
0
 62
7
  6
CONTINUOUS
370
-3
390
F
  0
LAYER
  5
1FE
100
AcDbSymbolTableRecord
100
AcDbLayerTableRecord
  2
01_1_DEFAULT_DATUMS
 70
0
 62
7
  6
CONTINUOUS
370
-3
390
F
  0
LAYER
  5
1FF
100
AcDbSymbolTableRecord
100
AcDbLayerTableRecord
  2
01_PLANES
 70
0
 62
7
  6
CONTINUOUS
370
-3
390
F
  0
LAYER
  5
200
100
AcDbSymbolTableRecord
100
AcDbLayerTableRecord
  2
02_COORD_SYS
 70
0
 62
7
  6
CONTINUOUS
370
-3
390
F
  0
LAYER
  5
201
100
AcDbSymbolTableRecord
100
AcDbLayerTableRecord
  2
03_AXES
 70
0
 62
7
  6
CONTINUOUS
370
-3
390
F
  0
LAYER
  5
202
100
AcDbSymbolTableRecord
100
AcDbLayerTableRecord
  2
04_POINTS
 70
0
 62
7
  6
CONTINUOUS
370
-3
390
F
  0
LAYER
  5
203
100
AcDbSymbolTableRecord
100
AcDbLayerTableRecord
  2
05_CURVES
 70
0
 62
7
  6
CONTINUOUS
370
-3
390
F
  0
LAYER
  5
204
100
AcDbSymbolTableRecord
100
AcDbLayerTableRecord
  2
06_SURFS
 70
0
 62
7
  6
CONTINUOUS
370
-3
390
F
  0
LAYER
  5
205
100
AcDbSymbolTableRecord
100
AcDbLayerTableRecord
  2
07_COSMETICS
 70
0
 62
7
  6
CONTINUOUS
370
-3
390
F
  0
LAYER
  5
206
100
AcDbSymbolTableRecord
100
AcDbLayerTableRecord
  2
10_NOTES
 70
0
 62
7
  6
CONTINUOUS
370
-3
390
F
  0
LAYER
  5
207
100
AcDbSymbolTableRecord
100
AcDbLayerTableRecord
  2
11_NOTES_PUB
 70
0
 62
7
  6
CONTINUOUS
370
-3
390
F
  0
LAYER
  5
208
100
AcDbSymbolTableRecord
100
AcDbLayerTableRecord
  2
13_REF_GTOL
 70
0
 62
7
  6
CONTINUOUS
370
-3
390
F
  0
LAYER
  5
209
100
AcDbSymbolTableRecord
100
AcDbLayerTableRecord
  2
16_MISC
 70
0
 62
7
  6
CONTINUOUS
370
-3
390
F
  0
LAYER
  5
20A
100
AcDbSymbolTableRecord
100
AcDbLayerTableRecord
  2
17_NO_PRINT
 70
0
 62
7
  6
CONTINUOUS
370
-3
390
F
  0
LAYER
  5
20B
100
AcDbSymbolTableRecord
100
AcDbLayerTableRecord
  2
18_DATUM_CAMS_JOINTS
 70
0
 62
7
  6
CONTINUOUS
370
-3
390
F
  0
LAYER
  5
20C
100
AcDbSymbolTableRecord
100
AcDbLayerTableRecord
  2
19_DATUM_FUNCTIONAL
 70
0
 62
7
  6
CONTINUOUS
370
-3
390
F
  0
LAYER
  5
20D
100
AcDbSymbolTableRecord
100
AcDbLayerTableRecord
  2
20_DATUM_KINEMATIC_SCHEME
 70
0
 62
7
  6
CONTINUOUS
370
-3
390
F
  0
ENDTAB
  0
TABLE
  2
STYLE
  5
3
100
AcDbSymbolTable
 70
1
  0
STYLE
  5
11
100
AcDbSymbolTableRecord
100
AcDbTextStyleTableRecord
  2
STANDARD
 70
0
 40
0.0
 41
1.0
 50
0.0
 71
0
 42
0.2
  3
ARIAL.TTF
  4

  0
STYLE
  5
20E
100
AcDbSymbolTableRecord
100
AcDbTextStyleTableRecord
  2
TEXTSTYLE_1
 70
0
 40
0.0
 41
0.8
 50
0.0
 71
0
 42
0.2
  3
gdt
  4

  0
ENDTAB
  0
TABLE
  2
VIEW
  5
6
100
AcDbSymbolTable
 70
0
  0
ENDTAB
  0
TABLE
  2
UCS
  5
7
100
AcDbSymbolTable
 70
0
  0
ENDTAB
  0
TABLE
  2
APPID
  5
9
100
AcDbSymbolTable
 70
1
  0
APPID
  5
20F
100
AcDbSymbolTableRecord
100
AcDbRegAppTableRecord
  2
ACAD
 70
0
  0
ENDTAB
  0
TABLE
  2
BLOCK_RECORD
  5
1
100
AcDbSymbolTable
 70
0
  0
BLOCK_RECORD
  5
210
100
AcDbSymbolTableRecord
100
AcDbBlockTableRecord
  2
*Model_Space
  0
BLOCK_RECORD
  5
211
100
AcDbSymbolTableRecord
100
AcDbBlockTableRecord
  2
*Paper_Space
  0
BLOCK_RECORD
  5
212
100
AcDbSymbolTableRecord
100
AcDbBlockTableRecord
  2
_FILLED
  0
ENDTAB
  0
TABLE
  2
DIMSTYLE
  5
A
100
AcDbSymbolTable
 70
1
100
AcDbDimStyleTable
 71
0
  0
DIMSTYLE
105
213
100
AcDbSymbolTableRecord
100
AcDbDimStyleTableRecord
  2
STANDARD
 70
0
  3

  4

 40
1.0
 41
1.5008483807
 42
1.0
 43
0.38
 44
1.0
 45
0.0
 46
0.0
 47
0.01
 48
0.01
140
2.101187733
141
0.09
142
0.0
143
25.4
144
1.0
145
0.0
146
1.0
147
0.625
 71
1
 72
0
 73
0
 74
0
 75
0
 76
0
 77
1
 78
8
 79
2
170
0
171
1
172
0
173
0
174
0
175
0
176
0
177
0
178
0
270
2
179
2
271
2
272
2
273
2
274
2
275
0
280
0
281
0
282
0
283
1
284
8
285
0
286
0
287
3
288
0
340
11
278
46
341
212
342
212
343
212
344
212
  0
ENDTAB
  0
ENDSEC
  0
SECTION
  2
BLOCKS
  0
BLOCK
  5
20
100
AcDbEntity
  8
0
100
AcDbBlockBegin
  2
*Model_Space
 70
0
 10
0.0
 20
0.0
 30
0.0
  3
*Model_Space
  1

  0
ENDBLK
  5
21
100
AcDbEntity
  8
0
100
AcDbBlockEnd
  0
BLOCK
  5
1C
100
AcDbEntity
  8
0
100
AcDbBlockBegin
  2
*Paper_Space
 70
0
 10
0.0
 20
0.0
 30
0.0
  3
*Paper_Space
  1

  0
ENDBLK
  5
1D
100
AcDbEntity
  8
0
100
AcDbBlockEnd
  0
BLOCK
  5
214
100
AcDbEntity
  8
0
100
AcDbBlockBegin
  2
_FILLED
 70
64
 10
0.0
 20
0.0
  3
_FILLED
  1

  0
SOLID
  5
215
100
AcDbEntity
  8
0
  6
BYBLOCK
 62
0
100
AcDbTrace
 10
0.0
 20
0.0
 11
-1.0
 21
0.25
 12
-1.0
 22
-0.25
 13
-1.0
 23
-0.25
  0
ENDBLK
  5
216
100
AcDbEntity
  8
0
  6
BYBLOCK
 62
0
100
AcDbBlockEnd
  0
ENDSEC
  0
SECTION
  2
ENTITIES
  0
LWPOLYLINE
  5
217
100
AcDbEntity
  8
0
100
AcDbPolyline
 62
7
  6
BYLAYER
 90
4
 70
0
 10
68.1644874362
 20
14.4110098696
 10
68.5678688968
 20
14.485792765
 10
69.0783825746
 20
14.8802210353
 10
69.2894874502
 20
15.5360494055
  0
LWPOLYLINE
  5
218
100
AcDbEntity
  8
0
100
AcDbPolyline
 62
7
  6
BYLAYER
 90
3
 70
0
 10
65.8644874362
 20
14.6292786947
 10
66.2663880914
 20
14.7034940161
 10
66.7777719234
 20
15.0976428951
  0
LWPOLYLINE
  5
219
100
AcDbEntity
  8
0
100
AcDbPolyline
 62
7
  6
BYLAYER
 90
4
 70
0
 10
61.3644874362
 20
14.2914317662
 10
61.7670853177
 20
14.3659047444
 10
62.2780435009
 20
14.7601141645
 10
62.4894877554
 20
15.4163065858
  0
LWPOLYLINE
  5
21A
100
AcDbEntity
  8
0
100
AcDbPolyline
 62
7
  6
BYLAYER
 90
4
 70
0
 10
63.5644874362
 20
14.4705767963
 10
63.9615760891
 20
14.5429830996
 10
64.4749286878
 20
14.9357260949
 10
64.6894882079
 20
15.5956154661
  0
LINE
  5
21B
100
AcDbEntity
  8
0
100
AcDbLine
 62
7
  6
BYLAYER
 10
45.0312484881
 20
147.2072492276
 11
43.6800456446
 21
143.7503364262
  0
LINE
  5
21C
100
AcDbEntity
  8
0
100
AcDbLine
 62
7
  6
BYLAYER
 10
46.0312484881
 20
147.0187579246
 11
44.6812086483
 21
143.5648205481
  0
LINE
  5
21D
100
AcDbEntity
  8
0
100
AcDbLine
 62
7
  6
BYLAYER
 10
53.5812484881
 20
147.2072492276
 11
52.2300456446
 21
143.7503364262
  0
LINE
  5
21E
100
AcDbEntity
  8
0
100
AcDbLine
 62
7
  6
BYLAYER
 10
38.0815393337
 20
155.1291249088
 11
38.0815393337
 21
112.9291249088
  0
LINE
  5
21F
100
AcDbEntity
  8
0
100
AcDbLine
 62
7
  6
BYLAYER
 10
54.5812484881
 20
147.0187579246
 11
53.2312086483
 21
143.5648205481
  0
LINE
  5
220
100
AcDbEntity
  8
0
100
AcDbLine
 62
7
  6
BYLAYER
 10
42.2115598331
 20
138.6351964605
 11
42.1812561755
 21
143.5494051834
  0
LINE
  5
221
100
AcDbEntity
  8
0
100
AcDbLine
 62
7
  6
BYLAYER
 10
43.2115408206
 20
138.6413628819
 11
43.1800993303
 21
143.7400888445
  0
LINE
  5
222
100
AcDbEntity
  8
0
100
AcDbLine
 62
7
  6
BYLAYER
 10
43.6800456446
 20
143.7503364262
 11
43.7115313143
 21
138.6444460925
  0
LINE
  5
223
100
AcDbEntity
  8
0
100
AcDbLine
 62
7
  6
BYLAYER
 10
40.8312227646
 20
147.0187438215
 11
40.8312325185
 21
151.518721745
  0
LINE
  5
224
100
AcDbEntity
  8
0
100
AcDbLine
 62
7
  6
BYLAYER
 10
41.4312325185
 20
151.5187214948
 11
41.4312325185
 21
151.8187214948
  0
LINE
  5
225
100
AcDbEntity
  8
0
100
AcDbLine
 62
7
  6
BYLAYER
 10
41.8312247293
 20
147.2064495533
 11
41.8312309607
 21
151.5187210225
  0
LINE
  5
226
100
AcDbEntity
  8
0
100
AcDbLine
 62
7
  6
BYLAYER
 10
41.8315393337
 20
155.632262028
 11
41.8315393337
 21
155.1291249088
  0
LINE
  5
227
100
AcDbEntity
  8
0
100
AcDbLine
 62
7
  6
BYLAYER
 10
41.9312325185
 20
151.8187214948
 11
41.9312325185
 21
164.8187214948
  0
LINE
  5
228
100
AcDbEntity
  8
0
100
AcDbLine
 62
7
  6
BYLAYER
 10
42.2912325185
 20
151.8187214948
 11
42.2912325185
 21
151.5187214948
  0
LINE
  5
229
100
AcDbEntity
  8
0
100
AcDbLine
 62
7
  6
BYLAYER
 10
42.3222112741
 20
137.7290269234
 11
42.3222112741
 21
138.6351964605
  0
LINE
  5
22A
100
AcDbEntity
  8
0
100
AcDbLine
 62
7
  6
BYLAYER
 10
42.7353533997
 20
128.1791249088
 11
42.7380622402
 21
129.8325488662
  0
LWPOLYLINE
  5
22B
100
AcDbEntity
  8
0
100
AcDbPolyline
 62
7
  6
BYLAYER
 90
4
 70
0
 10
62.497846376
 20
15.419069701
 10
62.6606090464
 20
14.926701003
 10
63.1830168209
 20
14.5372292041
 10
63.5644874362
 20
14.4705767963
  0
LWPOLYLINE
  5
22C
100
AcDbEntity
  8
0
100
AcDbPolyline
 62
7
  6
BYLAYER
 90
4
 70
0
 10
64.7394850345
 20
15.7543935035
 10
64.957840997
 20
15.0884829804
 10
65.4782987758
 20
14.6976113147
 10
65.8644874362
 20
14.6292786947
  0
LWPOLYLINE
  5
22D
100
AcDbEntity
  8
0
100
AcDbPolyline
 62
7
  6
BYLAYER
 90
4
 70
0
 10
67.0394874219
 20
15.5360397484
 10
67.2571494781
 20
14.8711541718
 10
67.7766514979
 20
14.4799452907
 10
68.1644874362
 20
14.4110098696
  0
LINE
  5
22E
100
AcDbEntity
  8
0
100
AcDbLine
 62
7
  6
BYLAYER
 10
44.6812086483
 20
143.5648205481
 11
44.7115123017
 21
138.6506125138
  0
LINE
  5
22F
100
AcDbEntity
  8
0
100
AcDbLine
 62
7
  6
BYLAYER
 10
44.4962785797
 20
151.5187214948
 11
44.4962785797
 21
151.8187214948
  0
LINE
  5
230
100
AcDbEntity
  8
0
100
AcDbLine
 62
7
  6
BYLAYER
 10
44.5722112741
 20
137.6721383614
 11
44.5722112741
 21
138.6497535087
  0
LINE
  5
231
100
AcDbEntity
  8
0
100
AcDbLine
 62
7
  6
BYLAYER
 10
44.9312325185
 20
151.8187214948
 11
44.9312325185
 21
164.8187214948
  0
LINE
  5
232
100
AcDbEntity
  8
0
100
AcDbLine
 62
7
  6
BYLAYER
 10
45.0312484881
 20
147.2072492276
 11
45.0312484881
 21
151.5187214948
  0
LINE
  5
233
100
AcDbEntity
  8
0
100
AcDbLine
 62
7
  6
BYLAYER
 10
45.3315393337
 20
155.1291249088
 11
45.3315393337
 21
155.632262028
  0
LINE
  5
234
100
AcDbEntity
  8
0
100
AcDbLine
 62
7
  6
BYLAYER
 10
45.4093042705
 20
151.5187214948
 11
45.4093042705
 21
151.8187214948
  0
LINE
  5
235
100
AcDbEntity
  8
0
100
AcDbLine
 62
7
  6
BYLAYER
 10
46.0312484881
 20
151.5187214948
 11
46.0312484881
 21
147.0187579246
  0
LINE
  5
236
100
AcDbEntity
  8
0
100
AcDbLine
 62
7
  6
BYLAYER
 10
48.7815393337
 20
115.4291249088
 11
48.7815393337
 21
114.6291249088
  0
LINE
  5
237
100
AcDbEntity
  8
0
100
AcDbLine
 62
7
  6
BYLAYER
 10
49.3812227646
 20
147.0187438215
 11
49.3812325185
 21
151.518721745
  0
LINE
  5
238
100
AcDbEntity
  8
0
100
AcDbLine
 62
7
  6
BYLAYER
 10
65.7818990886
 20
147.207222782
 11
64.4306962451
 21
143.7503099807
  0
LINE
  5
239
100
AcDbEntity
  8
0
100
AcDbLine
 62
7
  6
BYLAYER
 10
66.7818990886
 20
147.018731479
 11
65.4318592488
 21
143.5647941025
  0
LINE
  5
23A
100
AcDbEntity
  8
0
100
AcDbLine
 62
7
  6
BYLAYER
 10
50.7615598331
 20
138.6351964605
 11
50.7312561755
 21
143.5494051834
  0
LINE
  5
23B
100
AcDbEntity
  8
0
100
AcDbLine
 62
7
  6
BYLAYER
 10
51.7615408206
 20
138.6413628819
 11
51.7300993303
 21
143.7400888445
  0
LINE
  5
23C
100
AcDbEntity
  8
0
100
AcDbLine
 62
7
  6
BYLAYER
 10
52.2300456446
 20
143.7503364262
 11
52.2615313143
 21
138.6444460925
  0
LINE
  5
23D
100
AcDbEntity
  8
0
100
AcDbLine
 62
7
  6
BYLAYER
 10
53.2312086483
 20
143.5648205481
 11
53.2615123017
 21
138.6506125138
  0
LINE
  5
23E
100
AcDbEntity
  8
0
100
AcDbLine
 62
7
  6
BYLAYER
 10
49.9812325185
 20
151.5187214948
 11
49.9812325185
 21
151.8187214948
  0
LINE
  5
23F
100
AcDbEntity
  8
0
100
AcDbLine
 62
7
  6
BYLAYER
 10
50.3812247293
 20
147.2064495533
 11
50.3812309607
 21
151.5187210225
  0
LINE
  5
240
100
AcDbEntity
  8
0
100
AcDbLine
 62
7
  6
BYLAYER
 10
50.4812325185
 20
151.8187214948
 11
50.4812325185
 21
164.8187214948
  0
LINE
  5
241
100
AcDbEntity
  8
0
100
AcDbLine
 62
7
  6
BYLAYER
 10
50.8412325185
 20
151.8187214948
 11
50.8412325185
 21
151.5187214948
  0
LINE
  5
242
100
AcDbEntity
  8
0
100
AcDbLine
 62
7
  6
BYLAYER
 10
53.0462785797
 20
151.5187214948
 11
53.0462785797
 21
151.8187214948
  0
LINE
  5
243
100
AcDbEntity
  8
0
100
AcDbLine
 62
7
  6
BYLAYER
 10
53.4812325185
 20
151.8187214948
 11
53.4812325185
 21
164.8187214948
  0
LINE
  5
244
100
AcDbEntity
  8
0
100
AcDbLine
 62
7
  6
BYLAYER
 10
53.5812484881
 20
147.2072492276
 11
53.5812484881
 21
151.5187214948
  0
LINE
  5
245
100
AcDbEntity
  8
0
100
AcDbLine
 62
7
  6
BYLAYER
 10
53.9593042705
 20
151.5187214948
 11
53.9593042705
 21
151.8187214948
  0
LINE
  5
246
100
AcDbEntity
  8
0
100
AcDbLine
 62
7
  6
BYLAYER
 10
54.5812484881
 20
151.5187214948
 11
54.5812484881
 21
147.0187579246
  0
LINE
  5
247
100
AcDbEntity
  8
0
100
AcDbLine
 62
7
  6
BYLAYER
 10
54.7815393337
 20
114.6291249088
 11
54.7815393337
 21
115.4291249088
  0
LINE
  5
248
100
AcDbEntity
  8
0
100
AcDbLine
 62
7
  6
BYLAYER
 10
51.4277252677
 20
129.6791249087
 11
51.4250164273
 21
128.0257009514
  0
LINE
  5
249
100
AcDbEntity
  8
0
100
AcDbLine
 62
7
  6
BYLAYER
 10
75.5815393337
 20
147.2676526416
 11
74.2303364902
 21
143.8107398402
  0
LINE
  5
24A
100
AcDbEntity
  8
0
100
AcDbLine
 62
7
  6
BYLAYER
 10
76.5815393337
 20
147.0791613386
 11
75.2314994939
 21
143.6252239621
  0
LWPOLYLINE
  5
24B
100
AcDbEntity
  8
0
100
AcDbPolyline
 62
7
  6
BYLAYER
 90
34
 70
0
 10
60.2394871168
 20
15.4163065607
 10
60.2397963807
 20
15.3895474974
 10
60.2408595546
 20
15.3601728859
 10
60.2428512671
 20
15.3287743148
 10
60.2458944561
 20
15.2959468414
 10
60.2500633904
 20
15.2621619665
 10
60.2554915912
 20
15.2271935992
 10
60.2623666441
 20
15.1906857419
 10
60.2709089634
 20
15.1524218729
 10
60.2812864404
 20
15.1126005408
 10
60.2935940498
 20
15.0716575972
 10
60.3079133308
 20
15.0299673022
 10
60.3243616827
 20
14.9877406424
 10
60.343024333
 20
14.945151855
 10
60.3639495911
 20
14.9023668176
 10
60.38718327
 20
14.8595541307
 10
60.4127715772
 20
14.8168859977
 10
60.4407631275
 20
14.7745387811
 10
60.4556923208
 20
14.7535202382
 10
60.4876378109
 20
14.7116898991
 10
60.5227559182
 20
14.6700002804
 10
60.5615892578
 20
14.6283765327
 10
60.6047483501
 20
14.5868332889
 10
60.6529763988
 20
14.5453178325
 10
60.7070260703
 20
14.5039854502
 10
60.7666666799
 20
14.463863902
 10
60.8311610495
 20
14.4261840417
 10
60.899680409
 20
14.392027807
 10
60.9719715574
 20
14.3620909961
 10
61.0481142322
 20
14.3368317891
 10
61.1281664347
 20
14.3166053032
 10
61.21209715
 20
14.3018923253
 10
61.2997241505
 20
14.2933323442
 10
61.3644874362
 20
14.2914317662
  0
LINE
  5
24C
100
AcDbEntity
  8
0
100
AcDbLine
 62
7
  6
BYLAYER
 10
56.7815393337
 20
115.4291249088
 11
56.7815393337
 21
112.9291249088
  0
LINE
  5
24D
100
AcDbEntity
  8
0
100
AcDbLine
 62
7
  6
BYLAYER
 10
62.9622104336
 20
138.6351700149
 11
62.9319067759
 21
143.5493787378
  0
LINE
  5
24E
100
AcDbEntity
  8
0
100
AcDbLine
 62
7
  6
BYLAYER
 10
63.962191421
 20
138.6413364363
 11
63.9307499307
 21
143.7400623989
  0
LINE
  5
24F
100
AcDbEntity
  8
0
100
AcDbLine
 62
7
  6
BYLAYER
 10
64.4306962451
 20
143.7503099807
 11
64.4621819147
 21
138.6444196469
  0
LINE
  5
250
100
AcDbEntity
  8
0
100
AcDbLine
 62
7
  6
BYLAYER
 10
60.2395044296
 20
114.326272226
 11
60.2394871168
 21
15.4163065607
  0
LINE
  5
251
100
AcDbEntity
  8
0
100
AcDbLine
 62
7
  6
BYLAYER
 10
61.3644874362
 20
14.2914317662
 11
61.3644874362
 21
106.0760624853
  0
LINE
  5
252
100
AcDbEntity
  8
0
100
AcDbLine
 62
7
  6
BYLAYER
 10
61.581873365
 20
147.018717376
 11
61.581883119
 21
151.5186952994
  0
LINE
  5
253
100
AcDbEntity
  8
0
100
AcDbLine
 62
7
  6
BYLAYER
 10
62.181883119
 20
151.5186950493
 11
62.181883119
 21
151.8186950493
  0
LINE
  5
254
100
AcDbEntity
  8
0
100
AcDbLine
 62
7
  6
BYLAYER
 10
62.5818753297
 20
147.2064231077
 11
62.5818815611
 21
151.5186945769
  0
LINE
  5
255
100
AcDbEntity
  8
0
100
AcDbLine
 62
7
  6
BYLAYER
 10
62.681883119
 20
151.8186950493
 11
62.681883119
 21
164.8186950493
  0
LINE
  5
256
100
AcDbEntity
  8
0
100
AcDbLine
 62
7
  6
BYLAYER
 10
63.041883119
 20
151.8186950493
 11
63.041883119
 21
151.5186950493
  0
LINE
  5
257
100
AcDbEntity
  8
0
100
AcDbLine
 62
7
  6
BYLAYER
 10
63.5644874362
 20
14.4705767963
 11
63.5644874362
 21
106.6324014133
  0
LINE
  5
258
100
AcDbEntity
  8
0
100
AcDbLine
 62
7
  6
BYLAYER
 10
64.6894882079
 20
15.5956154661
 11
64.6894809627
 21
115.9734602396
  0
LINE
  5
259
100
AcDbEntity
  8
0
100
AcDbLine
 62
7
  6
BYLAYER
 10
64.7394887022
 20
119.6345625255
 11
64.7394850345
 21
15.7543935035
  0
LINE
  5
25A
100
AcDbEntity
  8
0
100
AcDbLine
 62
7
  6
BYLAYER
 10
65.2469291802
 20
151.5186950493
 11
65.2469291802
 21
151.8186950493
  0
LINE
  5
25B
100
AcDbEntity
  8
0
100
AcDbLine
 62
7
  6
BYLAYER
 10
60.4353533997
 20
128.1791249088
 11
60.4380622402
 21
129.8325488662
  0
LINE
  5
25C
100
AcDbEntity
  8
0
100
AcDbLine
 62
7
  6
BYLAYER
 10
42.1812561755
 20
143.5494051834
 11
40.8312227646
 21
147.0187438215
  0
LINE
  5
25D
100
AcDbEntity
  8
0
100
AcDbLine
 62
7
  6
BYLAYER
 10
43.1800993303
 20
143.7400888445
 11
41.8312247293
 21
147.2064495533
  0
LINE
  5
25E
100
AcDbEntity
  8
0
100
AcDbLine
 62
7
  6
BYLAYER
 10
65.4318592488
 20
143.5647941025
 11
65.4621629022
 21
138.6505860683
  0
LINE
  5
25F
100
AcDbEntity
  8
0
100
AcDbLine
 62
7
  6
BYLAYER
 10
65.681883119
 20
151.8186950493
 11
65.681883119
 21
164.8186950493
  0
LINE
  5
260
100
AcDbEntity
  8
0
100
AcDbLine
 62
7
  6
BYLAYER
 10
65.7818990886
 20
147.207222782
 11
65.7818990886
 21
151.5186950493
  0
LINE
  5
261
100
AcDbEntity
  8
0
100
AcDbLine
 62
7
  6
BYLAYER
 10
65.8644874362
 20
14.6292786947
 11
65.8644874362
 21
105.2163979768
  0
LINE
  5
262
100
AcDbEntity
  8
0
100
AcDbLine
 62
7
  6
BYLAYER
 10
66.1599548709
 20
151.5186950493
 11
66.1599548709
 21
151.8186950493
  0
LINE
  5
263
100
AcDbEntity
  8
0
100
AcDbLine
 62
7
  6
BYLAYER
 10
66.7818990886
 20
151.5186950493
 11
66.7818990886
 21
147.018731479
  0
LINE
  5
264
100
AcDbEntity
  8
0
100
AcDbLine
 62
7
  6
BYLAYER
 10
66.9894898383
 20
15.754387338
 11
66.9894861701
 21
119.6345625255
  0
LINE
  5
265
100
AcDbEntity
  8
0
100
AcDbLine
 62
7
  6
BYLAYER
 10
67.0394939097
 20
114.1093687041
 11
67.0394874219
 21
15.5360397484
  0
LINE
  5
266
100
AcDbEntity
  8
0
100
AcDbLine
 62
7
  6
BYLAYER
 10
68.1644874362
 20
14.4110098696
 11
68.1644874362
 21
106.5786105843
  0
LINE
  5
267
100
AcDbEntity
  8
0
100
AcDbLine
 62
7
  6
BYLAYER
 10
69.2894809627
 20
114.1093687041
 11
69.2894874502
 21
15.5360494055
  0
LINE
  5
268
100
AcDbEntity
  8
0
100
AcDbLine
 62
7
  6
BYLAYER
 10
69.1277252677
 20
129.6791249087
 11
69.1250164273
 21
128.0257009514
  0
LINE
  5
269
100
AcDbEntity
  8
0
100
AcDbLine
 62
7
  6
BYLAYER
 10
66.9894866259
 20
105.1908167167
 11
66.9894841554
 21
105.1907839962
  0
LINE
  5
26A
100
AcDbEntity
  8
0
100
AcDbLine
 62
7
  6
BYLAYER
 10
72.7618506787
 20
138.6955998745
 11
72.7315470211
 21
143.6098085974
  0
LINE
  5
26B
100
AcDbEntity
  8
0
100
AcDbLine
 62
7
  6
BYLAYER
 10
73.7618316662
 20
138.7017662958
 11
73.7303901759
 21
143.8004922584
  0
LINE
  5
26C
100
AcDbEntity
  8
0
100
AcDbLine
 62
7
  6
BYLAYER
 10
74.2303364902
 20
143.8107398402
 11
74.2618221599
 21
138.7048495065
  0
LINE
  5
26D
100
AcDbEntity
  8
0
100
AcDbLine
 62
7
  6
BYLAYER
 10
75.231499494
 20
143.6252239621
 11
75.2618031473
 21
138.7110159278
  0
LINE
  5
26E
100
AcDbEntity
  8
0
100
AcDbLine
 62
7
  6
BYLAYER
 10
71.3815136102
 20
147.0791472355
 11
71.3815233641
 21
151.579125159
  0
LINE
  5
26F
100
AcDbEntity
  8
0
100
AcDbLine
 62
7
  6
BYLAYER
 10
71.9815233641
 20
151.5791249088
 11
71.9815233641
 21
151.8791249088
  0
LINE
  5
270
100
AcDbEntity
  8
0
100
AcDbLine
 62
7
  6
BYLAYER
 10
72.3815155749
 20
147.2668529672
 11
72.3815218063
 21
151.5791244364
  0
LINE
  5
271
100
AcDbEntity
  8
0
100
AcDbLine
 62
7
  6
BYLAYER
 10
72.4815233641
 20
151.8791249088
 11
72.4815233641
 21
164.8791249088
  0
LINE
  5
272
100
AcDbEntity
  8
0
100
AcDbLine
 62
7
  6
BYLAYER
 10
72.7815393337
 20
115.4291249088
 11
72.7815393337
 21
112.9291249088
  0
LINE
  5
273
100
AcDbEntity
  8
0
100
AcDbLine
 62
7
  6
BYLAYER
 10
72.8415233641
 20
151.8791249088
 11
72.8415233641
 21
151.5791249088
  0
LINE
  5
274
100
AcDbEntity
  8
0
100
AcDbLine
 62
7
  6
BYLAYER
 10
74.7815393337
 20
115.4291249088
 11
74.7815393337
 21
114.6291249088
  0
LINE
  5
275
100
AcDbEntity
  8
0
100
AcDbLine
 62
7
  6
BYLAYER
 10
75.0465694254
 20
151.5791249088
 11
75.0465694254
 21
151.8791249088
  0
LINE
  5
276
100
AcDbEntity
  8
0
100
AcDbLine
 62
7
  6
BYLAYER
 10
75.4815233641
 20
151.8791249088
 11
75.4815233641
 21
164.8791249088
  0
LINE
  5
277
100
AcDbEntity
  8
0
100
AcDbLine
 62
7
  6
BYLAYER
 10
75.5815393337
 20
147.2676526416
 11
75.5815393337
 21
151.5791249088
  0
LINE
  5
278
100
AcDbEntity
  8
0
100
AcDbLine
 62
7
  6
BYLAYER
 10
75.9595951161
 20
151.5791249088
 11
75.9595951161
 21
151.8791249088
  0
LINE
  5
279
100
AcDbEntity
  8
0
100
AcDbLine
 62
7
  6
BYLAYER
 10
50.7312561755
 20
143.5494051834
 11
49.3812227646
 21
147.0187438215
  0
LINE
  5
27A
100
AcDbEntity
  8
0
100
AcDbLine
 62
7
  6
BYLAYER
 10
51.7300993303
 20
143.7400888445
 11
50.3812247293
 21
147.2064495533
  0
LINE
  5
27B
100
AcDbEntity
  8
0
100
AcDbLine
 62
7
  6
BYLAYER
 10
76.5815393337
 20
151.5791249088
 11
76.5815393337
 21
147.0791613386
  0
LINE
  5
27C
100
AcDbEntity
  8
0
100
AcDbLine
 62
7
  6
BYLAYER
 10
80.7815393337
 20
114.6291249088
 11
80.7815393337
 21
115.4291249088
  0
LINE
  5
27D
100
AcDbEntity
  8
0
100
AcDbLine
 62
7
  6
BYLAYER
 10
78.1353533997
 20
128.1791249088
 11
78.1380622402
 21
129.8325488662
  0
LINE
  5
27E
100
AcDbEntity
  8
0
100
AcDbLine
 62
7
  6
BYLAYER
 10
60.2394875917
 20
106.0760624853
 11
62.4894874362
 21
106.0760624853
  0
LINE
  5
27F
100
AcDbEntity
  8
0
100
AcDbLine
 62
7
  6
BYLAYER
 10
86.8277252677
 20
129.6791249087
 11
86.8250164273
 21
128.0257009514
  0
LINE
  5
280
100
AcDbEntity
  8
0
100
AcDbLine
 62
7
  6
BYLAYER
 10
67.0394875868
 20
106.5786105843
 11
69.2894874362
 21
106.5786105843
  0
LINE
  5
281
100
AcDbEntity
  8
0
100
AcDbLine
 62
7
  6
BYLAYER
 10
62.4894874362
 20
106.6324014133
 11
64.6894874362
 21
106.6324014133
  0
LINE
  5
282
100
AcDbEntity
  8
0
100
AcDbLine
 62
7
  6
BYLAYER
 10
62.9319067759
 20
143.5493787378
 11
61.581873365
 21
147.018717376
  0
LINE
  5
283
100
AcDbEntity
  8
0
100
AcDbLine
 62
7
  6
BYLAYER
 10
63.9307499307
 20
143.7400623989
 11
62.5818753297
 21
147.2064231077
  0
LINE
  5
284
100
AcDbEntity
  8
0
100
AcDbLine
 62
7
  6
BYLAYER
 10
91.4815393337
 20
112.9291249088
 11
91.4815393337
 21
155.1291249088
  0
LINE
  5
285
100
AcDbEntity
  8
0
100
AcDbLine
 62
7
  6
BYLAYER
 10
66.7777719234
 20
15.0976428951
 11
66.9894898383
 21
15.754387338
  0
LINE
  5
286
100
AcDbEntity
  8
0
100
AcDbLine
 62
7
  6
BYLAYER
 10
38.0815393337
 20
112.9291249088
 11
60.2394971277
 21
112.9291249088
  0
LINE
  5
287
100
AcDbEntity
  8
0
100
AcDbLine
 62
7
  6
BYLAYER
 10
64.6894847625
 20
112.9291249088
 11
64.7394887022
 21
112.9291249088
  0
LINE
  5
288
100
AcDbEntity
  8
0
100
AcDbLine
 62
7
  6
BYLAYER
 10
66.9894861701
 20
112.9291249088
 11
67.0394874362
 21
112.9291249088
  0
LINE
  5
289
100
AcDbEntity
  8
0
100
AcDbLine
 62
7
  6
BYLAYER
 10
69.2894874362
 20
112.9291249088
 11
91.4815393337
 21
112.9291249088
  0
LINE
  5
28A
100
AcDbEntity
  8
0
100
AcDbLine
 62
7
  6
BYLAYER
 10
69.2894809627
 20
114.1093687041
 11
67.0394939097
 21
114.1093687041
  0
LINE
  5
28B
100
AcDbEntity
  8
0
100
AcDbLine
 62
7
  6
BYLAYER
 10
62.4894704428
 20
114.326272226
 11
60.2395044296
 21
114.326272226
  0
LINE
  5
28C
100
AcDbEntity
  8
0
100
AcDbLine
 62
7
  6
BYLAYER
 10
48.7815393337
 20
114.6291249088
 11
54.7815393337
 21
114.6291249088
  0
LINE
  5
28D
100
AcDbEntity
  8
0
100
AcDbLine
 62
7
  6
BYLAYER
 10
74.7815393337
 20
114.6291249088
 11
80.7815393337
 21
114.6291249088
  0
LINE
  5
28E
100
AcDbEntity
  8
0
100
AcDbLine
 62
7
  6
BYLAYER
 10
48.7815393337
 20
115.4291249088
 11
38.0815393337
 21
115.4291249088
  0
LINE
  5
28F
100
AcDbEntity
  8
0
100
AcDbLine
 62
7
  6
BYLAYER
 10
54.7815393337
 20
115.4291249088
 11
56.7815393337
 21
115.4291249088
  0
LINE
  5
290
100
AcDbEntity
  8
0
100
AcDbLine
 62
7
  6
BYLAYER
 10
72.7815393337
 20
115.4291249088
 11
74.7815393337
 21
115.4291249088
  0
LINE
  5
291
100
AcDbEntity
  8
0
100
AcDbLine
 62
7
  6
BYLAYER
 10
80.7815393337
 20
115.4291249088
 11
91.4815393337
 21
115.4291249088
  0
LINE
  5
292
100
AcDbEntity
  8
0
100
AcDbLine
 62
7
  6
BYLAYER
 10
64.6894809627
 20
115.9734602396
 11
62.4394939097
 21
115.9734602396
  0
LINE
  5
293
100
AcDbEntity
  8
0
100
AcDbLine
 62
7
  6
BYLAYER
 10
72.7315470211
 20
143.6098085974
 11
71.3815136102
 21
147.0791472355
  0
LINE
  5
294
100
AcDbEntity
  8
0
100
AcDbLine
 62
7
  6
BYLAYER
 10
66.9894869804
 20
119.6345625255
 11
64.739487892
 21
119.6345625255
  0
LINE
  5
295
100
AcDbEntity
  8
0
100
AcDbLine
 62
7
  6
BYLAYER
 10
73.7303901759
 20
143.8004922584
 11
72.3815155749
 21
147.2668529672
  0
LINE
  5
296
100
AcDbEntity
  8
0
100
AcDbLine
 62
7
  6
BYLAYER
 10
73.7303901759
 20
143.8004922584
 11
72.7315470211
 21
143.6098085974
  0
LINE
  5
297
100
AcDbEntity
  8
0
100
AcDbLine
 62
7
  6
BYLAYER
 10
63.9307499307
 20
143.7400623989
 11
62.9319067759
 21
143.5493787378
  0
LINE
  5
298
100
AcDbEntity
  8
0
100
AcDbLine
 62
7
  6
BYLAYER
 10
62.9622104336
 20
138.6351700149
 11
65.4621629022
 21
138.6505860683
  0
LINE
  5
299
100
AcDbEntity
  8
0
100
AcDbLine
 62
7
  6
BYLAYER
 10
72.7618506787
 20
138.6955998745
 11
75.2618031473
 21
138.7110159278
  0
LINE
  5
29A
100
AcDbEntity
  8
0
100
AcDbLine
 62
7
  6
BYLAYER
 10
50.7615598331
 20
138.6351964605
 11
53.2615123017
 21
138.6506125138
  0
LINE
  5
29B
100
AcDbEntity
  8
0
100
AcDbLine
 62
7
  6
BYLAYER
 10
42.2115598331
 20
138.6351964605
 11
44.7115123017
 21
138.6506125138
  0
LINE
  5
29C
100
AcDbEntity
  8
0
100
AcDbLine
 62
7
  6
BYLAYER
 10
43.6800456446
 20
143.7503364262
 11
44.6812086483
 21
143.5648205481
  0
LINE
  5
29D
100
AcDbEntity
  8
0
100
AcDbLine
 62
7
  6
BYLAYER
 10
52.2300456446
 20
143.7503364262
 11
53.2312086483
 21
143.5648205481
  0
LINE
  5
29E
100
AcDbEntity
  8
0
100
AcDbLine
 62
7
  6
BYLAYER
 10
64.4306962451
 20
143.7503099807
 11
65.4318592488
 21
143.5647941025
  0
LINE
  5
29F
100
AcDbEntity
  8
0
100
AcDbLine
 62
7
  6
BYLAYER
 10
45.0312484881
 20
147.2072492276
 11
46.0312484881
 21
147.0187579246
  0
LINE
  5
2A0
100
AcDbEntity
  8
0
100
AcDbLine
 62
7
  6
BYLAYER
 10
51.7300993302
 20
143.7400888445
 11
50.7312561755
 21
143.5494051834
  0
LINE
  5
2A1
100
AcDbEntity
  8
0
100
AcDbLine
 62
7
  6
BYLAYER
 10
43.1800993302
 20
143.7400888445
 11
42.1812561755
 21
143.5494051834
  0
LINE
  5
2A2
100
AcDbEntity
  8
0
100
AcDbLine
 62
7
  6
BYLAYER
 10
72.381514017
 20
147.2668529672
 11
71.3815136102
 21
147.0791472355
  0
LINE
  5
2A3
100
AcDbEntity
  8
0
100
AcDbLine
 62
7
  6
BYLAYER
 10
62.5818737719
 20
147.2064231077
 11
61.581873365
 21
147.018717376
  0
LINE
  5
2A4
100
AcDbEntity
  8
0
100
AcDbLine
 62
7
  6
BYLAYER
 10
50.3812231714
 20
147.2064495533
 11
49.3812227646
 21
147.0187438215
  0
LINE
  5
2A5
100
AcDbEntity
  8
0
100
AcDbLine
 62
7
  6
BYLAYER
 10
74.2303364902
 20
143.8107398402
 11
75.231499494
 21
143.6252239621
  0
LINE
  5
2A6
100
AcDbEntity
  8
0
100
AcDbLine
 62
7
  6
BYLAYER
 10
53.5812484881
 20
147.2072492276
 11
54.5812484881
 21
147.0187579246
  0
LINE
  5
2A7
100
AcDbEntity
  8
0
100
AcDbLine
 62
7
  6
BYLAYER
 10
65.7818990886
 20
147.207222782
 11
66.7818990886
 21
147.018731479
  0
LINE
  5
2A8
100
AcDbEntity
  8
0
100
AcDbLine
 62
7
  6
BYLAYER
 10
75.5815393337
 20
147.2676526416
 11
76.5815393337
 21
147.0791613386
  0
LINE
  5
2A9
100
AcDbEntity
  8
0
100
AcDbLine
 62
7
  6
BYLAYER
 10
41.8312231714
 20
147.2064495533
 11
40.8312227646
 21
147.0187438215
  0
LINE
  5
2AA
100
AcDbEntity
  8
0
100
AcDbLine
 62
7
  6
BYLAYER
 10
61.581883119
 20
151.5186950493
 11
66.7818990886
 21
151.5186950493
  0
LINE
  5
2AB
100
AcDbEntity
  8
0
100
AcDbLine
 62
7
  6
BYLAYER
 10
40.8312325185
 20
151.5187214948
 11
46.0312484881
 21
151.5187214948
  0
LINE
  5
2AC
100
AcDbEntity
  8
0
100
AcDbLine
 62
7
  6
BYLAYER
 10
49.3812325185
 20
151.5187214948
 11
54.5812484881
 21
151.5187214948
  0
LINE
  5
2AD
100
AcDbEntity
  8
0
100
AcDbLine
 62
7
  6
BYLAYER
 10
71.3815233641
 20
151.5791249088
 11
76.5815393337
 21
151.5791249088
  0
LINE
  5
2AE
100
AcDbEntity
  8
0
100
AcDbLine
 62
7
  6
BYLAYER
 10
62.181883119
 20
151.8186950493
 11
63.041883119
 21
151.8186950493
  0
LINE
  5
2AF
100
AcDbEntity
  8
0
100
AcDbLine
 62
7
  6
BYLAYER
 10
65.2469291802
 20
151.8186950493
 11
66.1599548709
 21
151.8186950493
  0
LINE
  5
2B0
100
AcDbEntity
  8
0
100
AcDbLine
 62
7
  6
BYLAYER
 10
41.4312325185
 20
151.8187214948
 11
42.2912325185
 21
151.8187214948
  0
LINE
  5
2B1
100
AcDbEntity
  8
0
100
AcDbLine
 62
7
  6
BYLAYER
 10
44.4962785797
 20
151.8187214948
 11
45.4093042705
 21
151.8187214948
  0
LINE
  5
2B2
100
AcDbEntity
  8
0
100
AcDbLine
 62
7
  6
BYLAYER
 10
49.9812325185
 20
151.8187214948
 11
50.8412325185
 21
151.8187214948
  0
LINE
  5
2B3
100
AcDbEntity
  8
0
100
AcDbLine
 62
7
  6
BYLAYER
 10
53.0462785797
 20
151.8187214948
 11
53.9593042705
 21
151.8187214948
  0
LINE
  5
2B4
100
AcDbEntity
  8
0
100
AcDbLine
 62
7
  6
BYLAYER
 10
71.9815233641
 20
151.8791249088
 11
72.8415233641
 21
151.8791249088
  0
LINE
  5
2B5
100
AcDbEntity
  8
0
100
AcDbLine
 62
7
  6
BYLAYER
 10
75.0465694254
 20
151.8791249088
 11
75.9595951161
 21
151.8791249088
  0
LINE
  5
2B6
100
AcDbEntity
  8
0
100
AcDbLine
 62
7
  6
BYLAYER
 10
91.4815393337
 20
155.1291249088
 11
75.4815233641
 21
155.1291249088
  0
LINE
  5
2B7
100
AcDbEntity
  8
0
100
AcDbLine
 62
7
  6
BYLAYER
 10
72.4815233641
 20
155.1291249088
 11
65.681883119
 21
155.1291249088
  0
LINE
  5
2B8
100
AcDbEntity
  8
0
100
AcDbLine
 62
7
  6
BYLAYER
 10
62.681883119
 20
155.1291249088
 11
53.4812325185
 21
155.1291249088
  0
LINE
  5
2B9
100
AcDbEntity
  8
0
100
AcDbLine
 62
7
  6
BYLAYER
 10
50.4812325185
 20
155.1291249088
 11
44.9312325185
 21
155.1291249088
  0
LINE
  5
2BA
100
AcDbEntity
  8
0
100
AcDbLine
 62
7
  6
BYLAYER
 10
41.9312325185
 20
155.1291249088
 11
38.0815393337
 21
155.1291249088
  0
LINE
  5
2BB
100
AcDbEntity
  8
0
100
AcDbLine
 62
7
  6
BYLAYER
 10
45.3315393337
 20
155.632262028
 11
44.9312325185
 21
155.632262028
  0
LINE
  5
2BC
100
AcDbEntity
  8
0
100
AcDbLine
 62
7
  6
BYLAYER
 10
41.9312325185
 20
155.632262028
 11
41.8315393337
 21
155.632262028
  0
LINE
  5
2BD
100
AcDbEntity
  8
0
100
AcDbLine
 62
7
  6
BYLAYER
 10
62.681883119
 20
164.8186950493
 11
65.681883119
 21
164.8186950493
  0
LINE
  5
2BE
100
AcDbEntity
  8
0
100
AcDbLine
 62
7
  6
BYLAYER
 10
41.9312325185
 20
164.8187214948
 11
44.9312325185
 21
164.8187214948
  0
LINE
  5
2BF
100
AcDbEntity
  8
0
100
AcDbLine
 62
7
  6
BYLAYER
 10
50.4812325185
 20
164.8187214948
 11
53.4812325185
 21
164.8187214948
  0
LINE
  5
2C0
100
AcDbEntity
  8
0
100
AcDbLine
 62
7
  6
BYLAYER
 10
72.4815233641
 20
164.8791249088
 11
75.4815233641
 21
164.8791249088
  0
ARC
  5
2C1
100
AcDbEntity
  8
0
100
AcDbCircle
 62
7
  6
BYLAYER
 10
82.4815393337
 20
129.6791249088
 40
4.346185934
100
AcDbArc
 50
0.0
 51
177.9769912939
  0
ARC
  5
2C2
100
AcDbEntity
  8
0
100
AcDbCircle
 62
7
  6
BYLAYER
 10
82.4815393337
 20
128.1791249088
 40
4.346185934
100
AcDbArc
 50
180.0000000003
 51
357.9769912948
  0
ARC
  5
2C3
100
AcDbEntity
  8
0
100
AcDbCircle
 62
7
  6
BYLAYER
 10
47.0815393337
 20
129.6791249088
 40
4.346185934
100
AcDbArc
 50
0.0
 51
117.483424647
  0
ARC
  5
2C4
100
AcDbEntity
  8
0
100
AcDbCircle
 62
7
  6
BYLAYER
 10
47.0815393337
 20
129.6791249088
 40
4.346185934
100
AcDbArc
 50
149.3540697519
 51
177.9769912936
  0
ARC
  5
2C5
100
AcDbEntity
  8
0
100
AcDbCircle
 62
7
  6
BYLAYER
 10
47.0815393337
 20
128.1791249088
 40
4.346185934
100
AcDbArc
 50
180.0000000006
 51
279.338404339
  0
ARC
  5
2C6
100
AcDbEntity
  8
0
100
AcDbCircle
 62
7
  6
BYLAYER
 10
47.0815393337
 20
128.1791249088
 40
4.346185934
100
AcDbArc
 50
307.8370152931
 51
357.9769912948
  0
ARC
  5
2C7
100
AcDbEntity
  8
0
100
AcDbCircle
 62
7
  6
BYLAYER
 10
64.7815393337
 20
129.6791249088
 40
4.346185934
100
AcDbArc
 50
0.0
 51
76.8009664313
  0
ARC
  5
2C8
100
AcDbEntity
  8
0
100
AcDbCircle
 62
7
  6
BYLAYER
 10
64.7815393337
 20
129.6791249088
 40
4.346185934
100
AcDbArc
 50
112.1817739418
 51
177.9769912939
  0
ARC
  5
2C9
100
AcDbEntity
  8
0
100
AcDbCircle
 62
7
  6
BYLAYER
 10
64.7815393337
 20
128.1791249088
 40
4.346185934
100
AcDbArc
 50
180.0000000003
 51
258.5888220546
  0
ARC
  5
2CA
100
AcDbEntity
  8
0
100
AcDbCircle
 62
7
  6
BYLAYER
 10
64.7815393337
 20
128.1791249088
 40
4.346185934
100
AcDbArc
 50
293.6426873998
 51
357.9769912948
  0
SPLINE
  5
2CB
100
AcDbEntity
  8
0
100
AcDbSpline
 62
7
  6
BYLAYER
 70
0
 71
3
 72
17
 73
13
 74
0
 42
0.0000001
 43
0.0000001
 44
0.0000000001
 40
0.0
 40
0.0
 40
0.0
 40
0.0
 40
0.1182285407
 40
0.2399727937
 40
0.364919599
 40
0.4927495591
 40
0.5572413932
 40
0.6214063491
 40
0.6851870802
 40
0.7487106051
 40
0.8749992871
 40
1.0
 40
1.0
 40
1.0
 40
1.0
 10
64.7395487049
 20
119.6345625255
 30
0.0
 10
64.7395487049
 20
120.3876618679
 30
0.0
 10
64.6331972106
 20
121.9164722679
 30
0.0
 10
64.2774853404
 20
124.2143733096
 30
0.0
 10
63.8378797774
 20
126.5589410964
 30
0.0
 10
63.5060551685
 20
128.553549306
 30
0.0
 10
63.3322907209
 20
130.1785266608
 30
0.0
 10
63.2420077815
 20
131.4011385173
 30
0.0
 10
63.1806287215
 20
132.6193061996
 30
0.0
 10
63.1272312332
 20
134.2338387131
 30
0.0
 10
63.1024171217
 20
136.2391634478
 30
0.0
 10
63.1028031867
 20
137.8398333972
 30
0.0
 10
63.1028663147
 20
138.636070531
 30
0.0
  0
SPLINE
  5
2CC
100
AcDbEntity
  8
0
100
AcDbSpline
 62
7
  6
BYLAYER
 70
0
 71
3
 72
17
 73
13
 74
0
 42
0.0000001
 43
0.0000001
 44
0.0000000001
 40
0.0
 40
0.0
 40
0.0
 40
0.0
 40
0.1312791544
 40
0.2598745689
 40
0.385577736
 40
0.5075534176
 40
0.5678826608
 40
0.6286806901
 40
0.6900215674
 40
0.7517214189
 40
0.8757466595
 40
1.0
 40
1.0
 40
1.0
 40
1.0
 10
66.9894261683
 20
119.6345625002
 30
0.0
 10
66.9894261694
 20
120.471281464
 30
0.0
 10
66.8765422386
 20
122.1280329594
 30
0.0
 10
66.502123989
 20
124.5577517123
 30
0.0
 10
66.0601990475
 20
126.9146530715
 30
0.0
 10
65.7367407614
 20
128.8519985143
 30
0.0
 10
65.5722764406
 20
130.3931242916
 30
0.0
 10
65.4870696729
 20
131.5531073854
 30
0.0
 10
65.4282359775
 20
132.723418355
 30
0.0
 10
65.3764856971
 20
134.2973261559
 30
0.0
 10
65.3521715083
 20
136.2730102796
 30
0.0
 10
65.3526850665
 20
137.8554269654
 30
0.0
 10
65.3527447811
 20
138.6473662986
 30
0.0
  0
SPLINE
  5
2CD
100
AcDbEntity
  8
0
100
AcDbSpline
 62
7
  6
BYLAYER
 70
0
 71
3
 72
21
 73
17
 74
0
 42
0.0000001
 43
0.0000001
 44
0.0000000001
 40
0.0
 40
0.0
 40
0.0
 40
0.0
 40
0.0016679234
 40
0.0054587645
 40
0.0115685947
 40
0.0200179899
 40
0.0439065576
 40
0.0769977475
 40
0.1189573256
 40
0.1693641274
 40
0.227785012
 40
0.2936487991
 40
0.4449866706
 40
0.6176614208
 40
0.8052720143
 40
1.0
 40
1.0
 40
1.0
 40
1.0
 10
64.7394874362
 20
105.1908229809
 30
0.0
 10
64.7394876451
 20
105.1914491697
 30
0.0
 10
64.7417952014
 20
105.1926561172
 30
0.0
 10
64.7456189183
 20
105.1935937673
 30
0.0
 10
64.752613925
 20
105.194869255
 30
0.0
 10
64.7668173656
 20
105.1966134762
 30
0.0
 10
64.7913929065
 20
105.1986922923
 30
0.0
 10
64.8284253014
 20
105.2009502303
 30
0.0
 10
64.8754918408
 20
105.203170699
 30
0.0
 10
64.9320566072
 20
105.2052938238
 30
0.0
 10
64.9976132942
 20
105.2072848806
 30
0.0
 10
65.1010580707
 20
105.2098506159
 30
0.0
 10
65.247407788
 20
105.2124852748
 30
0.0
 10
65.4394739372
 20
105.2147492971
 30
0.0
 10
65.6478390442
 20
105.216122652
 30
0.0
 10
65.7913806713
 20
105.2164255528
 30
0.0
 10
65.8644874362
 20
105.2164255586
 30
0.0
  0
SPLINE
  5
2CE
100
AcDbEntity
  8
0
100
AcDbSpline
 62
7
  6
BYLAYER
 70
0
 71
3
 72
21
 73
17
 74
0
 42
0.0000001
 43
0.0000001
 44
0.0000000001
 40
0.0
 40
0.0
 40
0.0
 40
0.0
 40
0.1948738712
 40
0.3826158411
 40
0.5553863574
 40
0.7067716731
 40
0.7726378586
 40
0.8310457523
 40
0.8814221932
 40
0.9233342597
 40
0.9563615273
 40
0.980170265
 40
0.9885740154
 40
0.9946347183
 40
0.9983741003
 40
1.0
 40
1.0
 40
1.0
 40
1.0
 10
65.8644874362
 20
105.2164282976
 30
0.0
 10
65.9376500209
 20
105.216378528
 30
0.0
 10
66.081297587
 20
105.2160079845
 30
0.0
 10
66.2898055047
 20
105.2146072217
 30
0.0
 10
66.4819777746
 20
105.2123679195
 30
0.0
 10
66.6283848357
 20
105.2097627002
 30
0.0
 10
66.7318454787
 20
105.2072189587
 30
0.0
 10
66.7973882361
 20
105.2052421645
 30
0.0
 10
66.853919985
 20
105.2031318877
 30
0.0
 10
66.9009348738
 20
105.2009200927
 30
0.0
 10
66.9378952478
 20
105.1986750696
 30
0.0
 10
66.9624025996
 20
105.1965932223
 30
0.0
 10
66.9765379308
 20
105.1948648655
 30
0.0
 10
66.983481539
 20
105.1935719556
 30
0.0
 10
66.9872471275
 20
105.1926757546
 30
0.0
 10
66.9895175872
 20
105.1914263517
 30
0.0
 10
66.9894866259
 20
105.1908167167
 30
0.0
  0
SPLINE
  5
2CF
100
AcDbEntity
  8
0
100
AcDbSpline
 62
7
  6
BYLAYER
 70
0
 71
3
 72
36
 73
32
 74
0
 42
0.0000001
 43
0.0000001
 44
0.0000000001
 40
0.0
 40
0.0
 40
0.0
 40
0.0
 40
0.0309402223
 40
0.0616313049
 40
0.0922370666
 40
0.1234913664
 40
0.1559787755
 40
0.1896489125
 40
0.2237587967
 40
0.2577383859
 40
0.3254108947
 40
0.3926724987
 40
0.4260629204
 40
0.4590792658
 40
0.5236710419
 40
0.5552080665
 40
0.5862820294
 40
0.6168980851
 40
0.6470712669
 40
0.6768523473
 40
0.7056320533
 40
0.7326803357
 40
0.7456935022
 40
0.7588838985
 40
0.7866049179
 40
0.8158088541
 40
0.8457524996
 40
0.8759490437
 40
0.9064198261
 40
0.9372437501
 40
1.0
 40
1.0
 40
1.0
 40
1.0
 10
75.0955603903
 20
138.7103284317
 30
0.0
 10
75.0918808793
 20
138.4437334197
 30
0.0
 10
75.0857184723
 20
137.9126718712
 30
0.0
 10
75.0832268984
 20
137.1178275917
 30
0.0
 10
75.0921491097
 20
136.3203002594
 30
0.0
 10
75.113506812
 20
135.507562121
 30
0.0
 10
75.1226376636
 20
134.6680993373
 30
0.0
 10
75.0940896763
 20
133.804023165
 30
0.0
 10
75.0046705792
 20
132.9309802965
 30
0.0
 10
74.8118009058
 20
131.7764531721
 30
0.0
 10
74.4445232344
 20
130.3645680567
 30
0.0
 10
73.9359636592
 20
129.0037211105
 30
0.0
 10
73.4607676706
 20
127.954127453
 30
0.0
 10
72.9512482157
 20
126.946443036
 30
0.0
 10
72.397814944
 20
125.9803090431
 30
0.0
 10
71.8334755828
 20
125.0406613352
 30
0.0
 10
71.4178902246
 20
124.3531320006
 30
0.0
 10
71.0135488561
 20
123.6725580121
 30
0.0
 10
70.6272619274
 20
122.9943036222
 30
0.0
 10
70.2680524583
 20
122.3191305709
 30
0.0
 10
69.947295455
 20
121.6544866954
 30
0.0
 10
69.7298450769
 20
121.1014026729
 30
0.0
 10
69.6003800271
 20
120.660858542
 30
0.0
 10
69.4967557109
 20
120.20763351
 30
0.0
 10
69.406491523
 20
119.6094283653
 30
0.0
 10
69.3420697218
 20
118.8634343663
 30
0.0
 10
69.3008189355
 20
118.0945346045
 30
0.0
 10
69.2800480524
 20
117.3139176577
 30
0.0
 10
69.2744013641
 20
116.5255023237
 30
0.0
 10
69.2794590011
 20
115.4565257868
 30
0.0
 10
69.2887525584
 20
114.6501568503
 30
0.0
 10
69.2894267644
 20
114.1093694105
 30
0.0
  0
SPLINE
  5
2D0
100
AcDbEntity
  8
0
100
AcDbSpline
 62
7
  6
BYLAYER
 70
0
 71
3
 72
32
 73
28
 74
0
 42
0.0000001
 43
0.0000001
 44
0.0000000001
 40
0.0
 40
0.0
 40
0.0
 40
0.0
 40
0.0624854206
 40
0.093721268
 40
0.1249582584
 40
0.1562068114
 40
0.1874656257
 40
0.218706351
 40
0.249946576
 40
0.2812085959
 40
0.3124714228
 40
0.3749612638
 40
0.437453246
 40
0.4999446125
 40
0.5624299055
 40
0.6249188801
 40
0.6874030492
 40
0.7186377487
 40
0.7498730989
 40
0.7811229607
 40
0.8123997384
 40
0.8436654722
 40
0.8749064822
 40
0.9061761757
 40
0.9374727453
 40
0.9687519519
 40
1.0
 40
1.0
 40
1.0
 40
1.0
 10
72.8452638827
 20
138.6947448443
 30
0.0
 10
72.8392330165
 20
138.2716055231
 30
0.0
 10
72.8314809365
 20
137.6368872156
 30
0.0
 10
72.8371256596
 20
136.7905998307
 30
0.0
 10
72.8487300173
 20
136.1559729328
 30
0.0
 10
72.8615252495
 20
135.5212205162
 30
0.0
 10
72.8704388296
 20
134.8863621261
 30
0.0
 10
72.8611792115
 20
134.2513795676
 30
0.0
 10
72.817045118
 20
133.6176622909
 30
0.0
 10
72.7357850371
 20
132.9875153763
 30
0.0
 10
72.5829998395
 20
132.1544181284
 30
0.0
 10
72.3140716398
 20
131.1292366601
 30
0.0
 10
71.8864928042
 20
129.932278843
 30
0.0
 10
71.365784648
 20
128.7730363737
 30
0.0
 10
70.7689346362
 20
127.6516979875
 30
0.0
 10
70.123241973
 20
126.5584276989
 30
0.0
 10
69.5736365307
 20
125.6544940491
 30
0.0
 10
69.1419941813
 20
124.9265810409
 30
0.0
 10
68.8253891738
 20
124.3764353538
 30
0.0
 10
68.5180668191
 20
123.8207198564
 30
0.0
 10
68.2215965064
 20
123.2588640265
 30
0.0
 10
67.9449721309
 20
122.6868998474
 30
0.0
 10
67.7001042617
 20
122.1003901361
 30
0.0
 10
67.4990188404
 20
121.4971337859
 30
0.0
 10
67.340442079
 20
120.8811628968
 30
0.0
 10
67.2236715199
 20
120.2560956771
 30
0.0
 10
67.1720082297
 20
119.8355564735
 30
0.0
 10
67.1507595413
 20
119.6249986271
 30
0.0
  0
SPLINE
  5
2D1
100
AcDbEntity
  8
0
100
AcDbSpline
 62
7
  6
BYLAYER
 70
0
 71
3
 72
13
 73
9
 74
0
 42
0.0000001
 43
0.0000001
 44
0.0000000001
 40
0.0
 40
0.0
 40
0.0
 40
0.0
 40
0.125052812
 40
0.250088423
 40
0.3750721549
 40
0.5000469415
 40
0.750028186
 40
1.0
 40
1.0
 40
1.0
 40
1.0
 10
67.1507595413
 20
119.6249986271
 30
0.0
 10
67.1276595278
 20
119.3960956013
 30
0.0
 10
67.0925471436
 20
118.9372104508
 30
0.0
 10
67.0574572443
 20
118.2480373077
 30
0.0
 10
67.035363312
 20
117.5584530427
 30
0.0
 10
67.0224495583
 20
116.6387369769
 30
0.0
 10
67.0298748245
 20
115.4889958911
 30
0.0
 10
67.0389630681
 20
114.5692543432
 30
0.0
 10
67.0395549904
 20
114.1093695897
 30
0.0
  0
SPLINE
  5
2D2
100
AcDbEntity
  8
0
100
AcDbSpline
 62
7
  6
BYLAYER
 70
0
 71
3
 72
39
 73
35
 74
0
 42
0.0000001
 43
0.0000001
 44
0.0000000001
 40
0.0
 40
0.0
 40
0.0
 40
0.0
 40
0.1249763132
 40
0.2499366201
 40
0.3124337057
 40
0.3749298718
 40
0.4374230228
 40
0.4999110259
 40
0.5623921134
 40
0.6248662907
 40
0.656116331
 40
0.6873644854
 40
0.718611787
 40
0.7498585669
 40
0.781104739
 40
0.8123508812
 40
0.8279745575
 40
0.8435983714
 40
0.8592194272
 40
0.8748408865
 40
0.890477347
 40
0.9060813506
 40
0.9138860643
 40
0.9217427908
 40
0.9296139263
 40
0.9374220897
 40
0.9452524859
 40
0.9491526044
 40
0.9530375464
 40
0.9608809614
 40
0.9687800668
 40
0.9766228035
 40
0.9844233565
 40
1.0
 40
1.0
 40
1.0
 40
1.0
 10
50.8701349988
 20
138.6368293572
 30
0.0
 10
50.8966707543
 20
137.5031857633
 30
0.0
 10
51.0035776979
 20
135.2366729814
 30
0.0
 10
51.3468220111
 20
132.4182267472
 30
0.0
 10
51.803542287
 20
130.1954679263
 30
0.0
 10
52.2545197745
 20
128.5536961519
 30
0.0
 10
52.8327308337
 20
126.9517455273
 30
0.0
 10
53.5574101213
 20
125.409784874
 30
0.0
 10
54.4449336329
 20
123.9544831938
 30
0.0
 10
55.3295384498
 20
122.8419681173
 30
0.0
 10
56.1141815479
 20
122.0226070722
 30
0.0
 10
56.7383213575
 20
121.4439803228
 30
0.0
 10
57.3939401952
 20
120.9014769965
 30
0.0
 10
58.0771344397
 20
120.3942339277
 30
0.0
 10
58.7843161016
 20
119.9211605494
 30
0.0
 10
59.3903323417
 20
119.5531516509
 30
0.0
 10
59.8840327451
 20
119.2741927546
 30
0.0
 10
60.2581916732
 20
119.0720586038
 30
0.0
 10
60.6334079519
 20
118.8719718544
 30
0.0
 10
61.0070956999
 20
118.6687715615
 30
0.0
 10
61.3767201018
 20
118.4585275629
 30
0.0
 10
61.6754633177
 20
118.2674253291
 30
0.0
 10
61.9034708316
 20
118.0984745545
 30
0.0
 10
62.0696082874
 20
117.9642710128
 30
0.0
 10
62.2270853693
 20
117.8195363866
 30
0.0
 10
62.3623952713
 20
117.6531113209
 30
0.0
 10
62.4420811608
 20
117.4925628628
 30
0.0
 10
62.4796349758
 20
117.355554002
 30
0.0
 10
62.498554596
 20
117.2146436926
 30
0.0
 10
62.4957333654
 20
117.0359826607
 30
0.0
 10
62.478955563
 20
116.8227479428
 30
0.0
 10
62.4642948248
 20
116.6096097219
 30
0.0
 10
62.4467705815
 20
116.3269034611
 30
0.0
 10
62.4394913707
 20
116.1147837724
 30
0.0
 10
62.4394940572
 20
115.973451398
 30
0.0
  0
SPLINE
  5
2D3
100
AcDbEntity
  8
0
100
AcDbSpline
 62
7
  6
BYLAYER
 70
0
 71
3
 72
33
 73
29
 74
0
 42
0.0000001
 43
0.0000001
 44
0.0000000001
 40
0.0
 40
0.0
 40
0.0
 40
0.0
 40
0.013032215
 40
0.0208324494
 40
0.0293504324
 40
0.0484531742
 40
0.0706150375
 40
0.0934642219
 40
0.1152139663
 40
0.1358972954
 40
0.1557776157
 40
0.1751459512
 40
0.1940837593
 40
0.2306690656
 40
0.2646310403
 40
0.2963369732
 40
0.3267760922
 40
0.3560933168
 40
0.4121137941
 40
0.4660542179
 40
0.5198600493
 40
0.5749313828
 40
0.6317336117
 40
0.6903212197
 40
0.7505468259
 40
0.8120945006
 40
0.8745366795
 40
1.0
 40
1.0
 40
1.0
 40
1.0
 10
64.6894870504
 20
115.9734522185
 30
0.0
 10
64.6894866671
 20
116.0917271517
 30
0.0
 10
64.7007434512
 20
116.280646815
 30
0.0
 10
64.7181461109
 20
116.5464050376
 30
0.0
 10
64.7382766576
 20
116.8672366959
 30
0.0
 10
64.7496593136
 20
117.3193556065
 30
0.0
 10
64.6839440956
 20
117.9010387357
 30
0.0
 10
64.4853397027
 20
118.4790041228
 30
0.0
 10
64.1804354787
 20
118.9908488496
 30
0.0
 10
63.8143755179
 20
119.4246441356
 30
0.0
 10
63.4092197922
 20
119.7895086722
 30
0.0
 10
62.9825782675
 20
120.1016272426
 30
0.0
 10
62.4093912659
 20
120.467529314
 30
0.0
 10
61.6962981647
 20
120.8571387892
 30
0.0
 10
60.8756766742
 20
121.2904466384
 30
0.0
 10
60.1247681934
 20
121.7350165451
 30
0.0
 10
59.431513418
 20
122.1922013898
 30
0.0
 10
58.5860713148
 20
122.8168044201
 30
0.0
 10
57.6334980651
 20
123.6525357487
 30
0.0
 10
56.6442741323
 20
124.767235736
 30
0.0
 10
55.8129460907
 20
125.9936356872
 30
0.0
 10
55.1211355941
 20
127.3320524476
 30
0.0
 10
54.5519078817
 20
128.7729364948
 30
0.0
 10
54.0950363149
 20
130.301584175
 30
0.0
 10
53.7404469249
 20
131.9007958356
 30
0.0
 10
53.4767392282
 20
133.5525767285
 30
0.0
 10
53.2308364039
 20
135.8037958766
 30
0.0
 10
53.1479039166
 20
137.5087590597
 30
0.0
 10
53.1205392288
 20
138.6470828217
 30
0.0
  0
SPLINE
  5
2D4
100
AcDbEntity
  8
0
100
AcDbSpline
 62
7
  6
BYLAYER
 70
0
 71
3
 72
31
 73
27
 74
0
 42
0.0000001
 43
0.0000001
 44
0.0000000001
 40
0.0
 40
0.0
 40
0.0
 40
0.0
 40
0.0089088475
 40
0.0152110788
 40
0.0193507597
 40
0.0233093543
 40
0.0314267698
 40
0.0404867732
 40
0.0508803251
 40
0.0627051449
 40
0.0901156766
 40
0.1211507166
 40
0.1536687639
 40
0.1857989941
 40
0.217334693
 40
0.2792618704
 40
0.3404549301
 40
0.4018674926
 40
0.464759218
 40
0.5295462407
 40
0.5956134085
 40
0.6628179296
 40
0.7307618948
 40
0.7989667363
 40
0.8669118817
 40
1.0
 40
1.0
 40
1.0
 40
1.0
 10
60.2394876304
 20
114.3262737864
 30
0.0
 10
60.2394876601
 20
114.4202386388
 30
0.0
 10
60.2444365457
 20
114.5806267698
 30
0.0
 10
60.2529230436
 20
114.784607266
 30
0.0
 10
60.2469189102
 20
114.9366036009
 30
0.0
 10
60.2222167168
 20
115.1061170637
 30
0.0
 10
60.1581958911
 20
115.321049262
 30
0.0
 10
60.0279719373
 20
115.5823664785
 30
0.0
 10
59.8398798921
 20
115.854535225
 30
0.0
 10
59.4928650044
 20
116.2476849778
 30
0.0
 10
58.9266287868
 20
116.7308464056
 30
0.0
 10
58.1315012999
 20
117.2691314579
 30
0.0
 10
57.2627762255
 20
117.7834549475
 30
0.0
 10
56.3735245172
 20
118.2719701651
 30
0.0
 10
55.1949916494
 20
118.8771289953
 30
0.0
 10
53.7250063424
 20
119.5843098883
 30
0.0
 10
51.978180835
 20
120.4431653741
 30
0.0
 10
50.2733814934
 20
121.4073455477
 30
0.0
 10
48.6498283946
 20
122.5762417633
 30
0.0
 10
47.1815796193
 20
124.0078496951
 30
0.0
 10
45.8831677499
 20
125.6506139297
 30
0.0
 10
44.7654998633
 20
127.4599407189
 30
0.0
 10
43.837506939
 20
129.3977500259
 30
0.0
 10
43.1100618761
 20
131.4283308998
 30
0.0
 10
42.4308057089
 20
134.1881281759
 30
0.0
 10
42.2539047872
 20
136.3269604808
 30
0.0
 10
42.3222105765
 20
137.7290263557
 30
0.0
  0
SPLINE
  5
2D5
100
AcDbEntity
  8
0
100
AcDbSpline
 62
7
  6
BYLAYER
 70
0
 71
3
 72
32
 73
28
 74
0
 42
0.0000001
 43
0.0000001
 44
0.0000000001
 40
0.0
 40
0.0
 40
0.0
 40
0.0
 40
0.0206810253
 40
0.0408119629
 40
0.0605476282
 40
0.0800278943
 40
0.118508773
 40
0.1560648915
 40
0.1742962737
 40
0.1921086176
 40
0.2267008969
 40
0.2924830741
 40
0.3540873039
 40
0.4120684206
 40
0.4399690262
 40
0.4673365614
 40
0.4944891221
 40
0.5218889893
 40
0.5498369447
 40
0.5784367404
 40
0.637243717
 40
0.6977297145
 40
0.7592150813
 40
0.8209318424
 40
0.8821092756
 40
0.942011646
 40
1.0
 40
1.0
 40
1.0
 40
1.0
 10
62.3088214463
 20
115.9669806153
 30
0.0
 10
62.2425395909
 20
116.1624074174
 30
0.0
 10
62.0794671265
 20
116.5377922582
 30
0.0
 10
61.7593171704
 20
117.0521286981
 30
0.0
 10
61.3869913314
 20
117.514169137
 30
0.0
 10
60.8428238688
 20
118.0677550275
 30
0.0
 10
60.0965606904
 20
118.665321603
 30
0.0
 10
59.3095443111
 20
119.1815913391
 30
0.0
 10
58.6793242418
 20
119.5587239021
 30
0.0
 10
58.0681287142
 20
119.9098102518
 30
0.0
 10
57.0316747554
 20
120.4728076873
 30
0.0
 10
55.5832456592
 20
121.1908058963
 30
0.0
 10
53.9155940844
 20
121.990433704
 30
0.0
 10
52.6074160574
 20
122.6664434992
 30
0.0
 10
51.6349773487
 20
123.242797354
 30
0.0
 10
50.9487009396
 20
123.6967327705
 30
0.0
 10
50.2949705316
 20
124.1884688727
 30
0.0
 10
49.6730887511
 20
124.7289106089
 30
0.0
 10
49.0795658941
 20
125.3208837061
 30
0.0
 10
48.3171261434
 20
126.1840410165
 30
0.0
 10
47.4419077337
 20
127.3765871216
 30
0.0
 10
46.5358140498
 20
128.9399529516
 30
0.0
 10
45.7797828704
 20
130.6129855114
 30
0.0
 10
45.1889398879
 20
132.3584050807
 30
0.0
 10
44.7768001388
 20
134.1384651969
 30
0.0
 10
44.5554467972
 20
135.9147119335
 30
0.0
 10
44.5418003868
 20
137.0943144803
 30
0.0
 10
44.5722100508
 20
137.6721390835
 30
0.0
  0
SPLINE
  5
2D6
100
AcDbEntity
  8
0
100
AcDbSpline
 62
7
  6
BYLAYER
 70
0
 71
3
 72
23
 73
19
 74
0
 42
0.0000001
 43
0.0000001
 44
0.0000000001
 40
0.0
 40
0.0
 40
0.0
 40
0.0
 40
0.001212173
 40
0.0048356544
 40
0.0108521016
 40
0.0192424218
 40
0.0299874395
 40
0.0430679571
 40
0.076135948
 40
0.1181004109
 40
0.1685388926
 40
0.2270187604
 40
0.2929536847
 40
0.4443730866
 40
0.6171216894
 40
0.7097251598
 40
0.8053665174
 40
1.0
 40
1.0
 40
1.0
 40
1.0
 10
42.3222112741
 20
137.7290269234
 30
0.0
 10
42.3222112741
 20
137.7294817106
 30
0.0
 10
42.3251300167
 20
137.7284460095
 30
0.0
 10
42.3281374646
 20
137.7293624549
 30
0.0
 10
42.335504137
 20
137.7286493138
 30
0.0
 10
42.3446722658
 20
137.7286625189
 30
0.0
 10
42.356857346
 20
137.7282532669
 30
0.0
 10
42.3781468248
 20
137.7277281804
 30
0.0
 10
42.4112243636
 20
137.7267929449
 30
0.0
 10
42.4582695284
 20
137.7255797402
 30
0.0
 10
42.514867365
 20
137.7242378587
 30
0.0
 10
42.5804547674
 20
137.7229320204
 30
0.0
 10
42.6839247053
 20
137.7209084422
 30
0.0
 10
42.8302156636
 20
137.716340572
 30
0.0
 10
42.9864528841
 20
137.7096662594
 30
0.0
 10
43.1219462877
 20
137.709637522
 30
0.0
 10
43.2654250631
 20
137.7135484218
 30
0.0
 10
43.3749572906
 20
137.7117291078
 30
0.0
 10
43.4472115258
 20
137.7011592632
 30
0.0
  0
SPLINE
  5
2D7
100
AcDbEntity
  8
0
100
AcDbSpline
 62
7
  6
BYLAYER
 70
0
 71
3
 72
23
 73
19
 74
0
 42
0.0000001
 43
0.0000001
 44
0.0000000001
 40
0.0
 40
0.0
 40
0.0
 40
0.0
 40
0.1946331066
 40
0.2902699628
 40
0.3828705583
 40
0.5556186635
 40
0.707038752
 40
0.7729737804
 40
0.8314539545
 40
0.8818931875
 40
0.9238588585
 40
0.9569284988
 40
0.9700099588
 40
0.980755907
 40
0.9891470607
 40
0.9951641532
 40
0.9987879854
 40
1.0
 40
1.0
 40
1.0
 40
1.0
 10
43.4472115258
 20
137.7011592632
 30
0.0
 10
43.5194672806
 20
137.6905891964
 30
0.0
 10
43.6289930979
 20
137.6887068342
 30
0.0
 10
43.7724765779
 20
137.6924970994
 30
0.0
 10
43.9079696992
 20
137.692360983
 30
0.0
 10
44.0642048962
 20
137.6855787855
 30
0.0
 10
44.2104949982
 20
137.6808806873
 30
0.0
 10
44.3139654793
 20
137.6787458798
 30
0.0
 10
44.3795532817
 20
137.6773646228
 30
0.0
 10
44.4361515693
 20
137.6759521223
 30
0.0
 10
44.4831972816
 20
137.6746683718
 30
0.0
 10
44.5162751361
 20
137.6736661055
 30
0.0
 10
44.537564683
 20
137.6730808441
 30
0.0
 10
44.5497499955
 20
137.6726294866
 30
0.0
 10
44.5589180642
 20
137.6726089453
 30
0.0
 10
44.5662852375
 20
137.6718571992
 30
0.0
 10
44.5692919198
 20
137.6727653848
 30
0.0
 10
44.5722112741
 20
137.671703563
 30
0.0
 10
44.5722112741
 20
137.6721583013
 30
0.0
  0
ENDSEC
  0
SECTION
  2
OBJECTS
  0
DICTIONARY
  5
C
100
AcDbDictionary
280
0
281
1
  3
ACAD_GROUP
350
D
  3
ACAD_MLINESTYLE
350
17
  3
ACAD_LAYOUT
350
1A
  3
ACAD_PLOTSETTINGS
350
19
  3
ACAD_PLOTSTYLENAME
350
E
  0
DICTIONARY
  5
D
102
{ACAD_REACTORS
330
C
102
}
100
AcDbDictionary
280
0
281
1
  0
ACDBDICTIONARYWDFLT
  5
E
102
{ACAD_REACTORS
330
C
102
}
100
AcDbDictionary
281
1
  3
Normal
350
F
100
AcDbDictionaryWithDefault
340
F
  0
DICTIONARY
  5
17
102
{ACAD_REACTORS
330
C
102
}
100
AcDbDictionary
280
0
281
1
  3
Standard
350
18
  0
DICTIONARY
  5
19
102
{ACAD_REACTORS
330
C
102
}
100
AcDbDictionary
281
1
  0
DICTIONARY
  5
1A
102
{ACAD_REACTORS
330
C
102
}
100
AcDbDictionary
281
1
  3
Model
350
2D8
  3
Layout1
350
2D9
  0
ACDBPLACEHOLDER
  5
F
102
{ACAD_REACTORS
330
E
102
}
  0
MLINESTYLE
  5
18
102
{ACAD_REACTORS
330
17
102
}
100
AcDbMlineStyle
  2
STANDARD
 70
0
  3

 62
256
 51
90.0
 52
90.0
 71
2
 49
0.5
 62
256
  6
BYLAYER
 49
-0.5
 62
256
  6
BYLAYER
  0
LAYOUT
  5
2D8
102
{ACAD_REACTORS
330
1A
102
}
100
AcDbPlotSettings
  1

  2
none_device
  4

  6

 40
0.0
 41
0.0
 42
0.0
 43
0.0
 44
210.0
 45
297.0
 46
0.0
 47
0.0
 48
0.0
 49
0.0
140
0.0
141
0.0
142
1.0
143
1.0
 70
1024
 72
1
 73
0
 74
0
  7

 75
0
147
1.0
148
0.0
149
0.0
100
AcDbLayout
  1
Model
 70
0
 71
0
 10
0.0
 20
0.0
 11
210.0
 21
297.0
 12
0.0
 22
0.0
 32
0.0
 14
0.0
 24
0.0
 34
0.0
 15
0.0
 25
0.0
 35
0.0
146
0.0
 13
0.0
 23
0.0
 33
0.0
 16
1.0
 26
0.0
 36
0.0
 17
0.0
 27
1.0
 37
0.0
 76
0
330
210
345
0
346
0
  0
LAYOUT
  5
2D9
102
{ACAD_REACTORS
330
1A
102
}
100
AcDbPlotSettings
  1

  2
none_device
  4

  6

 40
0.0
 41
0.0
 42
0.0
 43
0.0
 44
210.0
 45
297.0
 46
0.0
 47
0.0
 48
0.0
 49
0.0
140
0.0
141
0.0
142
1.0
143
1.0
 70
0
 72
1
 73
0
 74
0
  7

 75
0
147
1.0
148
0.0
149
0.0
100
AcDbLayout
  1
Layout1
 70
0
 71
1
 10
0.0
 20
0.0
 11
210.0
 21
297.0
 12
0.0
 22
0.0
 32
0.0
 14
0.0
 24
0.0
 34
0.0
 15
0.0
 25
0.0
 35
0.0
146
0.0
 13
0.0
 23
0.0
 33
0.0
 16
1.0
 26
0.0
 36
0.0
 17
0.0
 27
1.0
 37
0.0
 76
0
330
211
345
0
346
0
  0
ENDSEC
  0
EOF
