999
DXF file: C:\Users\sesa63760\Dev\_Creo\CAD\MCADDE0000013_3D-CAD\drw0001_1.dxf
999
Pro/ENGINEER 2019471 by Parametric Technology Corporation
  0
SECTION
  2
HEADER
  9
$ACADVER
  1
AC1024
  9
$DWGCODEPAGE
  3
ANSI_1252
  9
$EXTMAX
 10
159.8362438336
 20
226.054116279
 30
0.0
  9
$EXTMIN
 10
0.0
 20
0.0
 30
0.0
  9
$LIMMIN
 10
0.0
 20
0.0
  9
$LIMMAX
 10
159.8362438336
 20
226.054116279
  9
$VIEWCTR
 10
79.9181219168
 20
113.0270581395
  9
$VIEWSIZE
 40
226.054116279
  9
$CLAYER
  8
0
  9
$LTSCALE
 40
14.7353794315
  9
$CELTYPE
  6
BYLAYER
  9
$DIMSCALE
 40
1.0
  9
$DIMASZ
 40
1.9028124266
  9
$DIMEXO
 40
1.0
  9
$DIMDLI
 40
10.1808076072
  9
$DIMEXE
 40
1.0
  9
$DIMCEN
 40
2.411243907
  9
$DIMLFAC
 40
1.0
  9
$DIMBLK
  1
_FILLED
  9
$DIMALT
 70
0
  9
$DIMALTF
 40
0.0393700787
  9
$DIMTXT
 40
2.6639373972
  9
$DIMTOL
 70
1
  9
$DIMLIM
 70
0
  9
$DIMTFAC
 40
1.0
  9
$DIMTP
 40
0.01
  9
$DIMTM
 40
0.01
  9
$DIMGAP
 40
0.625
  9
$DIMDSEP
 70
46
  9
$AUNITS
 70
0
  9
$PDMODE
 70
3
  9
$PDSIZE
 40
0.3125
  9
$HANDSEED
  5
3DB
  9
$TILEMODE
 70
1
  9
$MEASUREMENT
 70
1
  9
$INSUNITS
 70
4
  0
ENDSEC
  0
SECTION
  2
CLASSES
  0
CLASS
  1
ACDBDICTIONARYWDFLT
  2
AcDbDictionaryWithDefault
  3
AutoCAD 2000
 90
0
 91
1
280
0
281
0
  0
CLASS
  1
ACDBPLACEHOLDER
  2
AcDbPlaceHolder
  3
AutoCAD 2000
 90
0
 91
1
280
0
281
0
  0
CLASS
  1
LAYOUT
  2
AcDbLayout
  3
AutoCAD 2000
 90
0
 91
0
280
0
281
0
  0
ENDSEC
  0
SECTION
  2
TABLES
  0
TABLE
  2
VPORT
  5
8
100
AcDbSymbolTable
 70
2
  0
VPORT
  5
1F4
100
AcDbSymbolTableRecord
100
AcDbViewportTableRecord
  2
*ACTIVE
 70
0
 10
0.0
 20
0.0
 11
1.0
 21
1.0
 12
79.9181219168
 22
113.0270581395
 13
0.0
 23
0.0
 14
1.0
 24
1.0
 15
0.0
 25
0.0
 16
0.0
 26
0.0
 36
1.0
 17
0.0
 27
0.0
 37
0.0
 40
226.054116279
 41
0.7070707071
 42
50.0
 43
0.0
 44
0.0
 50
0.0
 51
0.0
 71
0
 72
100
 73
1
 74
1
 75
0
 76
0
 77
0
 78
0
  0
ENDTAB
  0
TABLE
  2
LTYPE
  5
5
100
AcDbSymbolTable
 70
6
  0
LTYPE
  5
14
100
AcDbSymbolTableRecord
100
AcDbLinetypeTableRecord
  2
BYBLOCK
 70
0
  3

 72
65
 73
0
 40
0.0
  0
LTYPE
  5
15
100
AcDbSymbolTableRecord
100
AcDbLinetypeTableRecord
  2
BYLAYER
 70
0
  3

 72
65
 73
0
 40
0.0
  0
LTYPE
  5
16
100
AcDbSymbolTableRecord
100
AcDbLinetypeTableRecord
  2
CONTINUOUS
 70
64
  3
Solid line
 72
65
 73
0
 40
0.0
  0
LTYPE
  5
1F5
100
AcDbSymbolTableRecord
100
AcDbLinetypeTableRecord
  2
CENTER
 70
64
  3
____ _ ____ _ ____ _ ____ _ ____ _ ____ _ ____
 72
65
 73
4
 40
0.6
 49
0.375
 74
0
 49
-0.075
 74
0
 49
0.075
 74
0
 49
-0.075
 74
0
  0
LTYPE
  5
1F6
100
AcDbSymbolTableRecord
100
AcDbLinetypeTableRecord
  2
HIDDEN
 70
64
  3
- - - - - - - - - - - - - - - - - - - -
 72
65
 73
2
 40
0.2
 49
0.1
 74
0
 49
-0.1
 74
0
  0
LTYPE
  5
1F7
100
AcDbSymbolTableRecord
100
AcDbLinetypeTableRecord
  2
PHANTOM
 70
64
  3
_____ _ _ _____ _ _ _____ _ _ _____
 72
65
 73
6
 40
0.8
 49
0.45
 74
0
 49
-0.05
 74
0
 49
0.1
 74
0
 49
-0.05
 74
0
 49
0.1
 74
0
 49
-0.05
 74
0
  0
LTYPE
  5
1F8
100
AcDbSymbolTableRecord
100
AcDbLinetypeTableRecord
  2
DOT
 70
64
  3
. . . . . . . . . . . . . . . . . . . .
 72
65
 73
2
 40
0.2
 49
0.1
 74
0
 49
-0.1
 74
0
  0
LTYPE
  5
1F9
100
AcDbSymbolTableRecord
100
AcDbLinetypeTableRecord
  2
DASHED
 70
64
  3
- - - - - - - - - - - - - - - - - - - -
 72
65
 73
2
 40
0.2
 49
0.1
 74
0
 49
-0.1
 74
0
  0
ENDTAB
  0
TABLE
  2
LAYER
  5
2
100
AcDbSymbolTable
 70
36
  0
LAYER
  5
10
100
AcDbSymbolTableRecord
100
AcDbLayerTableRecord
  2
0
 70
0
 62
7
  6
CONTINUOUS
370
-3
390
F
  0
LAYER
  5
1FA
100
AcDbSymbolTableRecord
100
AcDbLayerTableRecord
  2
DEFAULT_1
 70
0
 62
7
  6
CENTER
370
-3
390
F
  0
LAYER
  5
1FB
100
AcDbSymbolTableRecord
100
AcDbLayerTableRecord
  2
DEFAULT_2
 70
0
 62
7
  6
HIDDEN
370
-3
390
F
  0
LAYER
  5
1FC
100
AcDbSymbolTableRecord
100
AcDbLayerTableRecord
  2
DEFAULT_3
 70
0
 62
7
  6
PHANTOM
370
-3
390
F
  0
LAYER
  5
1FD
100
AcDbSymbolTableRecord
100
AcDbLayerTableRecord
  2
00_COMPONENTS
 70
0
 62
7
  6
CONTINUOUS
370
-3
390
F
  0
LAYER
  5
1FE
100
AcDbSymbolTableRecord
100
AcDbLayerTableRecord
  2
01_1_DEFAULT_DATUMS
 70
0
 62
7
  6
CONTINUOUS
370
-3
390
F
  0
LAYER
  5
1FF
100
AcDbSymbolTableRecord
100
AcDbLayerTableRecord
  2
01_PLANES
 70
0
 62
7
  6
CONTINUOUS
370
-3
390
F
  0
LAYER
  5
200
100
AcDbSymbolTableRecord
100
AcDbLayerTableRecord
  2
02_COORD_SYS
 70
0
 62
7
  6
CONTINUOUS
370
-3
390
F
  0
LAYER
  5
201
100
AcDbSymbolTableRecord
100
AcDbLayerTableRecord
  2
03_AXES
 70
0
 62
7
  6
CONTINUOUS
370
-3
390
F
  0
LAYER
  5
202
100
AcDbSymbolTableRecord
100
AcDbLayerTableRecord
  2
04_POINTS
 70
0
 62
7
  6
CONTINUOUS
370
-3
390
F
  0
LAYER
  5
203
100
AcDbSymbolTableRecord
100
AcDbLayerTableRecord
  2
05_CURVES
 70
0
 62
7
  6
CONTINUOUS
370
-3
390
F
  0
LAYER
  5
204
100
AcDbSymbolTableRecord
100
AcDbLayerTableRecord
  2
06_SURFS
 70
0
 62
7
  6
CONTINUOUS
370
-3
390
F
  0
LAYER
  5
205
100
AcDbSymbolTableRecord
100
AcDbLayerTableRecord
  2
07_COSMETICS
 70
0
 62
7
  6
CONTINUOUS
370
-3
390
F
  0
LAYER
  5
206
100
AcDbSymbolTableRecord
100
AcDbLayerTableRecord
  2
10_NOTES
 70
0
 62
7
  6
CONTINUOUS
370
-3
390
F
  0
LAYER
  5
207
100
AcDbSymbolTableRecord
100
AcDbLayerTableRecord
  2
11_NOTES_PUB
 70
0
 62
7
  6
CONTINUOUS
370
-3
390
F
  0
LAYER
  5
208
100
AcDbSymbolTableRecord
100
AcDbLayerTableRecord
  2
13_REF_GTOL
 70
0
 62
7
  6
CONTINUOUS
370
-3
390
F
  0
LAYER
  5
209
100
AcDbSymbolTableRecord
100
AcDbLayerTableRecord
  2
16_MISC
 70
0
 62
7
  6
CONTINUOUS
370
-3
390
F
  0
LAYER
  5
20A
100
AcDbSymbolTableRecord
100
AcDbLayerTableRecord
  2
17_NO_PRINT
 70
0
 62
7
  6
CONTINUOUS
370
-3
390
F
  0
LAYER
  5
20B
100
AcDbSymbolTableRecord
100
AcDbLayerTableRecord
  2
18_DATUM_CAMS_JOINTS
 70
0
 62
7
  6
CONTINUOUS
370
-3
390
F
  0
LAYER
  5
20C
100
AcDbSymbolTableRecord
100
AcDbLayerTableRecord
  2
19_DATUM_FUNCTIONAL
 70
0
 62
7
  6
CONTINUOUS
370
-3
390
F
  0
LAYER
  5
20D
100
AcDbSymbolTableRecord
100
AcDbLayerTableRecord
  2
20_DATUM_KINEMATIC_SCHEME
 70
0
 62
7
  6
CONTINUOUS
370
-3
390
F
  0
ENDTAB
  0
TABLE
  2
STYLE
  5
3
100
AcDbSymbolTable
 70
1
  0
STYLE
  5
11
100
AcDbSymbolTableRecord
100
AcDbTextStyleTableRecord
  2
STANDARD
 70
0
 40
0.0
 41
1.0
 50
0.0
 71
0
 42
0.2
  3
ARIAL.TTF
  4

  0
STYLE
  5
20E
100
AcDbSymbolTableRecord
100
AcDbTextStyleTableRecord
  2
TEXTSTYLE_1
 70
0
 40
0.0
 41
0.8
 50
0.0
 71
0
 42
0.2
  3
gdt
  4

  0
ENDTAB
  0
TABLE
  2
VIEW
  5
6
100
AcDbSymbolTable
 70
0
  0
ENDTAB
  0
TABLE
  2
UCS
  5
7
100
AcDbSymbolTable
 70
0
  0
ENDTAB
  0
TABLE
  2
APPID
  5
9
100
AcDbSymbolTable
 70
1
  0
APPID
  5
20F
100
AcDbSymbolTableRecord
100
AcDbRegAppTableRecord
  2
ACAD
 70
0
  0
ENDTAB
  0
TABLE
  2
BLOCK_RECORD
  5
1
100
AcDbSymbolTable
 70
0
  0
BLOCK_RECORD
  5
210
100
AcDbSymbolTableRecord
100
AcDbBlockTableRecord
  2
*Model_Space
  0
BLOCK_RECORD
  5
211
100
AcDbSymbolTableRecord
100
AcDbBlockTableRecord
  2
*Paper_Space
  0
BLOCK_RECORD
  5
212
100
AcDbSymbolTableRecord
100
AcDbBlockTableRecord
  2
_FILLED
  0
ENDTAB
  0
TABLE
  2
DIMSTYLE
  5
A
100
AcDbSymbolTable
 70
1
100
AcDbDimStyleTable
 71
0
  0
DIMSTYLE
105
213
100
AcDbSymbolTableRecord
100
AcDbDimStyleTableRecord
  2
STANDARD
 70
0
  3

  4

 40
1.0
 41
1.9028124266
 42
1.0
 43
0.38
 44
1.0
 45
0.0
 46
0.0
 47
0.01
 48
0.01
140
2.6639373972
141
0.09
142
0.0
143
25.4
144
1.0
145
0.0
146
1.0
147
0.625
 71
1
 72
0
 73
0
 74
0
 75
0
 76
0
 77
1
 78
8
 79
2
170
0
171
1
172
0
173
0
174
0
175
0
176
0
177
0
178
0
270
2
179
2
271
2
272
2
273
2
274
2
275
0
280
0
281
0
282
0
283
1
284
8
285
0
286
0
287
3
288
0
340
11
278
46
341
212
342
212
343
212
344
212
  0
ENDTAB
  0
ENDSEC
  0
SECTION
  2
BLOCKS
  0
BLOCK
  5
20
100
AcDbEntity
  8
0
100
AcDbBlockBegin
  2
*Model_Space
 70
0
 10
0.0
 20
0.0
 30
0.0
  3
*Model_Space
  1

  0
ENDBLK
  5
21
100
AcDbEntity
  8
0
100
AcDbBlockEnd
  0
BLOCK
  5
1C
100
AcDbEntity
  8
0
100
AcDbBlockBegin
  2
*Paper_Space
 70
0
 10
0.0
 20
0.0
 30
0.0
  3
*Paper_Space
  1

  0
ENDBLK
  5
1D
100
AcDbEntity
  8
0
100
AcDbBlockEnd
  0
BLOCK
  5
214
100
AcDbEntity
  8
0
100
AcDbBlockBegin
  2
_FILLED
 70
64
 10
0.0
 20
0.0
  3
_FILLED
  1

  0
SOLID
  5
215
100
AcDbEntity
  8
0
  6
BYBLOCK
 62
0
100
AcDbTrace
 10
0.0
 20
0.0
 11
-1.0
 21
0.25
 12
-1.0
 22
-0.25
 13
-1.0
 23
-0.25
  0
ENDBLK
  5
216
100
AcDbEntity
  8
0
  6
BYBLOCK
 62
0
100
AcDbBlockEnd
  0
ENDSEC
  0
SECTION
  2
ENTITIES
  0
LINE
  5
217
100
AcDbEntity
  8
0
100
AcDbLine
 62
7
  6
BYLAYER
 10
18.5428432444
 20
85.41690054
 11
18.5428432444
 21
84.8861739689
  0
LINE
  5
218
100
AcDbEntity
  8
0
100
AcDbLine
 62
7
  6
BYLAYER
 10
20.6641724198
 20
83.6614517053
 11
20.6641724198
 21
84.1921782765
  0
LINE
  5
219
100
AcDbEntity
  8
0
100
AcDbLine
 62
7
  6
BYLAYER
 10
22.6722386816
 20
116.6580316155
 11
22.6722386816
 21
132.2532277827
  0
LINE
  5
21A
100
AcDbEntity
  8
0
100
AcDbLine
 62
7
  6
BYLAYER
 10
24.5886313944
 20
81.9264420889
 11
24.5886313944
 21
81.3957155178
  0
LINE
  5
21B
100
AcDbEntity
  8
0
100
AcDbLine
 62
7
  6
BYLAYER
 10
25.0029317529
 20
130.945266077
 11
24.9681299633
 21
126.3203024418
  0
LINE
  5
21C
100
AcDbEntity
  8
0
100
AcDbLine
 62
7
  6
BYLAYER
 10
40.1025395216
 20
72.3896408426
 11
42.223868697
 21
71.1649185791
  0
LINE
  5
21D
100
AcDbEntity
  8
0
100
AcDbLine
 62
7
  6
BYLAYER
 10
18.5428432444
 20
84.8861739689
 11
20.6641724198
 21
83.6614517053
  0
LINE
  5
21E
100
AcDbEntity
  8
0
100
AcDbLine
 62
7
  6
BYLAYER
 10
24.5886313944
 20
81.3957155178
 11
26.7099605698
 21
80.1709932542
  0
LINE
  5
21F
100
AcDbEntity
  8
0
100
AcDbLine
 62
7
  6
BYLAYER
 10
33.2158487868
 20
76.4149235072
 11
35.3371779623
 21
75.1902012437
  0
LINE
  5
220
100
AcDbEntity
  8
0
100
AcDbLine
 62
7
  6
BYLAYER
 10
42.223868697
 20
71.6956451502
 11
40.1025395216
 21
72.9203674138
  0
LINE
  5
221
100
AcDbEntity
  8
0
100
AcDbLine
 62
7
  6
BYLAYER
 10
26.7099605698
 20
80.7017198253
 11
24.5886313944
 21
81.9264420889
  0
LINE
  5
222
100
AcDbEntity
  8
0
100
AcDbLine
 62
7
  6
BYLAYER
 10
20.6641724198
 20
84.1921782765
 11
18.5428432444
 21
85.41690054
  0
LINE
  5
223
100
AcDbEntity
  8
0
100
AcDbLine
 62
7
  6
BYLAYER
 10
35.3371779623
 20
75.7209278148
 11
33.2158487868
 21
76.9456500784
  0
LINE
  5
224
100
AcDbEntity
  8
0
100
AcDbLine
 62
7
  6
BYLAYER
 10
26.7099605698
 20
80.1709932542
 11
26.7099605698
 21
80.7017198253
  0
LINE
  5
225
100
AcDbEntity
  8
0
100
AcDbLine
 62
7
  6
BYLAYER
 10
27.1695034048
 20
91.752853868
 11
27.1695034048
 21
91.181302176
  0
LINE
  5
226
100
AcDbEntity
  8
0
100
AcDbLine
 62
7
  6
BYLAYER
 10
27.7987841889
 20
124.5985069644
 11
27.7987841889
 21
129.2934823124
  0
LINE
  5
227
100
AcDbEntity
  8
0
100
AcDbLine
 62
7
  6
BYLAYER
 10
29.8565223036
 20
88.9686257057
 11
29.8565223036
 21
89.4993522768
  0
LINE
  5
228
100
AcDbEntity
  8
0
100
AcDbLine
 62
7
  6
BYLAYER
 10
30.8464854447
 20
89.6299955271
 11
30.8464854447
 21
89.0584438352
  0
LINE
  5
229
100
AcDbEntity
  8
0
100
AcDbLine
 62
7
  6
BYLAYER
 10
27.4430140013
 20
124.891459801
 11
27.477815791
 21
129.5164234362
  0
LINE
  5
22A
100
AcDbEntity
  8
0
100
AcDbLine
 62
7
  6
BYLAYER
 10
33.2152915548
 20
88.2623954168
 11
33.2152915548
 21
87.6908437248
  0
LINE
  5
22B
100
AcDbEntity
  8
0
100
AcDbLine
 62
7
  6
BYLAYER
 10
33.2158487868
 20
76.9456500784
 11
33.2158487868
 21
76.4149235072
  0
LINE
  5
22C
100
AcDbEntity
  8
0
100
AcDbLine
 62
7
  6
BYLAYER
 10
34.0284269525
 20
91.4670793473
 11
34.0284269525
 21
90.8955276553
  0
LINE
  5
22D
100
AcDbEntity
  8
0
100
AcDbLine
 62
7
  6
BYLAYER
 10
35.3371779623
 20
75.1902012437
 11
35.3371779623
 21
75.7209278148
  0
LINE
  5
22E
100
AcDbEntity
  8
0
100
AcDbLine
 62
7
  6
BYLAYER
 10
35.5160930249
 20
93.4282703719
 11
35.5160930249
 21
92.85671868
  0
LINE
  5
22F
100
AcDbEntity
  8
0
100
AcDbLine
 62
7
  6
BYLAYER
 10
35.9023104536
 20
85.4781672545
 11
35.9023104536
 21
86.0088938257
  0
LINE
  5
230
100
AcDbEntity
  8
0
100
AcDbLine
 62
7
  6
BYLAYER
 10
22.6722386816
 20
132.2532277827
 11
52.512020612
 21
149.4811310761
  0
LINE
  5
231
100
AcDbEntity
  8
0
100
AcDbLine
 62
7
  6
BYLAYER
 10
50.3590895417
 20
78.4084005341
 11
51.1086584207
 21
78.0513706082
  0
LINE
  5
232
100
AcDbEntity
  8
0
100
AcDbLine
 62
7
  6
BYLAYER
 10
51.2818600408
 20
76.3945211032
 11
51.6990719967
 21
76.1536490463
  0
LINE
  5
233
100
AcDbEntity
  8
0
100
AcDbLine
 62
7
  6
BYLAYER
 10
29.7221637636
 20
88.8910542295
 11
30.1393757195
 21
88.6501821725
  0
LINE
  5
234
100
AcDbEntity
  8
0
100
AcDbLine
 62
7
  6
BYLAYER
 10
35.7679519136
 20
85.4005957783
 11
36.1851638695
 21
85.1597237214
  0
LINE
  5
235
100
AcDbEntity
  8
0
100
AcDbLine
 62
7
  6
BYLAYER
 10
44.3951693061
 20
80.4198037678
 11
44.812381262
 21
80.1789317109
  0
LINE
  5
236
100
AcDbEntity
  8
0
100
AcDbLine
 62
7
  6
BYLAYER
 10
51.6113277419
 20
76.6043932538
 11
51.9029426962
 21
76.4360330903
  0
LINE
  5
237
100
AcDbEntity
  8
0
100
AcDbLine
 62
7
  6
BYLAYER
 10
30.0516314647
 20
89.1009263801
 11
30.343246419
 21
88.9325662165
  0
LINE
  5
238
100
AcDbEntity
  8
0
100
AcDbLine
 62
7
  6
BYLAYER
 10
36.0974196147
 20
85.6104679289
 11
36.389034569
 21
85.4421077654
  0
LINE
  5
239
100
AcDbEntity
  8
0
100
AcDbLine
 62
7
  6
BYLAYER
 10
44.7246370072
 20
80.6296759184
 11
45.0162519614
 21
80.4613157549
  0
LINE
  5
23A
100
AcDbEntity
  8
0
100
AcDbLine
 62
7
  6
BYLAYER
 10
51.4162185808
 20
77.0028191505
 11
49.2948894053
 21
78.2275414141
  0
LINE
  5
23B
100
AcDbEntity
  8
0
100
AcDbLine
 62
7
  6
BYLAYER
 10
35.9023104536
 20
86.0088938257
 11
33.7809812781
 21
87.2336160892
  0
LINE
  5
23C
100
AcDbEntity
  8
0
100
AcDbLine
 62
7
  6
BYLAYER
 10
29.8565223036
 20
89.4993522768
 11
27.7351931281
 21
90.7240745404
  0
LINE
  5
23D
100
AcDbEntity
  8
0
100
AcDbLine
 62
7
  6
BYLAYER
 10
44.5295278461
 20
81.0281018151
 11
42.4081986706
 21
82.2528240787
  0
LINE
  5
23E
100
AcDbEntity
  8
0
100
AcDbLine
 62
7
  6
BYLAYER
 10
51.9029426962
 20
77.8404172477
 11
49.2324275923
 21
79.3822049819
  0
LINE
  5
23F
100
AcDbEntity
  8
0
100
AcDbLine
 62
7
  6
BYLAYER
 10
36.389034569
 20
86.8464919228
 11
33.7185194651
 21
88.388279657
  0
LINE
  5
240
100
AcDbEntity
  8
0
100
AcDbLine
 62
7
  6
BYLAYER
 10
30.343246419
 20
90.336950374
 11
27.6727313151
 21
91.8787381082
  0
LINE
  5
241
100
AcDbEntity
  8
0
100
AcDbLine
 62
7
  6
BYLAYER
 10
45.0162519614
 20
81.8656999123
 11
42.3457368576
 21
83.4074876465
  0
LINE
  5
242
100
AcDbEntity
  8
0
100
AcDbLine
 62
7
  6
BYLAYER
 10
49.4363084825
 20
79.6645831424
 11
51.6990719967
 21
78.3582055726
  0
LINE
  5
243
100
AcDbEntity
  8
0
100
AcDbLine
 62
7
  6
BYLAYER
 10
27.8766122053
 20
92.1611162687
 11
30.1393757195
 21
90.8547386988
  0
LINE
  5
244
100
AcDbEntity
  8
0
100
AcDbLine
 62
7
  6
BYLAYER
 10
33.9224003553
 20
88.6706578175
 11
36.1851638695
 21
87.3642802477
  0
LINE
  5
245
100
AcDbEntity
  8
0
100
AcDbLine
 62
7
  6
BYLAYER
 10
42.5496177477
 20
83.689865807
 11
44.812381262
 21
82.3834882372
  0
LINE
  5
246
100
AcDbEntity
  8
0
100
AcDbLine
 62
7
  6
BYLAYER
 10
28.0427532882
 20
91.4174941497
 11
28.7993932645
 21
90.9049336604
  0
LINE
  5
247
100
AcDbEntity
  8
0
100
AcDbLine
 62
7
  6
BYLAYER
 10
34.0885414382
 20
87.9270356986
 11
34.8451814145
 21
87.4144752092
  0
LINE
  5
248
100
AcDbEntity
  8
0
100
AcDbLine
 62
7
  6
BYLAYER
 10
42.7157588307
 20
82.9462436881
 11
43.472398807
 21
82.4336831987
  0
LINE
  5
249
100
AcDbEntity
  8
0
100
AcDbLine
 62
7
  6
BYLAYER
 10
49.6024495654
 20
78.9209610235
 11
50.3590895417
 21
78.4084005341
  0
LINE
  5
24A
100
AcDbEntity
  8
0
100
AcDbLine
 62
7
  6
BYLAYER
 10
36.8922735947
 20
86.139537076
 11
36.8922735947
 21
85.567985384
  0
LINE
  5
24B
100
AcDbEntity
  8
0
100
AcDbLine
 62
7
  6
BYLAYER
 10
39.0123763908
 20
95.4220958865
 11
39.0123763908
 21
94.8505441945
  0
LINE
  5
24C
100
AcDbEntity
  8
0
100
AcDbLine
 62
7
  6
BYLAYER
 10
40.0742151025
 20
87.9766208962
 11
40.0742151025
 21
87.4050692042
  0
LINE
  5
24D
100
AcDbEntity
  8
0
100
AcDbLine
 62
7
  6
BYLAYER
 10
40.1025395216
 20
72.9203674138
 11
40.1025395216
 21
72.3896408426
  0
LINE
  5
24E
100
AcDbEntity
  8
0
100
AcDbLine
 62
7
  6
BYLAYER
 10
41.5618811749
 20
89.9378119208
 11
41.5618811749
 21
89.3662602288
  0
LINE
  5
24F
100
AcDbEntity
  8
0
100
AcDbLine
 62
7
  6
BYLAYER
 10
45.0194442796
 20
141.3555311638
 11
43.8522173022
 21
140.6794246402
  0
LINE
  5
250
100
AcDbEntity
  8
0
100
AcDbLine
 62
7
  6
BYLAYER
 10
26.9460834713
 20
132.067138548
 11
25.0029317529
 21
130.945266077
  0
LINE
  5
251
100
AcDbEntity
  8
0
100
AcDbLine
 62
7
  6
BYLAYER
 10
29.4209675093
 20
130.6382959071
 11
27.477815791
 21
129.5164234362
  0
LINE
  5
252
100
AcDbEntity
  8
0
100
AcDbLine
 62
7
  6
BYLAYER
 10
29.8423142785
 20
130.4733079171
 11
27.7987841889
 21
129.2934823124
  0
LINE
  5
253
100
AcDbEntity
  8
0
100
AcDbLine
 62
7
  6
BYLAYER
 10
43.472398807
 20
82.4336831987
 11
44.221967686
 21
82.0766532728
  0
LINE
  5
254
100
AcDbEntity
  8
0
100
AcDbLine
 62
7
  6
BYLAYER
 10
34.8451814145
 20
87.4144752092
 11
35.5947502935
 21
87.0574452833
  0
LINE
  5
255
100
AcDbEntity
  8
0
100
AcDbLine
 62
7
  6
BYLAYER
 10
28.7993932645
 20
90.9049336604
 11
29.5489621435
 21
90.5479037344
  0
LINE
  5
256
100
AcDbEntity
  8
0
100
AcDbLine
 62
7
  6
BYLAYER
 10
41.8425089473
 20
83.2816034063
 11
41.8425089473
 21
82.7100517143
  0
LINE
  5
257
100
AcDbEntity
  8
0
100
AcDbLine
 62
7
  6
BYLAYER
 10
42.223868697
 20
71.1649185791
 11
42.223868697
 21
71.6956451502
  0
LINE
  5
258
100
AcDbEntity
  8
0
100
AcDbLine
 62
7
  6
BYLAYER
 10
43.8522173022
 20
140.6794246403
 11
43.8522173022
 21
137.2722248996
  0
LINE
  5
259
100
AcDbEntity
  8
0
100
AcDbLine
 62
7
  6
BYLAYER
 10
44.5295278461
 20
80.497375244
 11
44.5295278461
 21
81.0281018151
  0
LINE
  5
25A
100
AcDbEntity
  8
0
100
AcDbLine
 62
7
  6
BYLAYER
 10
45.0194442796
 20
136.8036869834
 11
45.0194442796
 21
141.3555311638
  0
LINE
  5
25B
100
AcDbEntity
  8
0
100
AcDbLine
 62
7
  6
BYLAYER
 10
45.0581645408
 20
91.9316374354
 11
45.0581645408
 21
91.3600857434
  0
LINE
  5
25C
100
AcDbEntity
  8
0
100
AcDbLine
 62
7
  6
BYLAYER
 10
45.5194909871
 20
81.1587450655
 11
45.5194909871
 21
80.5871933735
  0
LINE
  5
25D
100
AcDbEntity
  8
0
100
AcDbLine
 62
7
  6
BYLAYER
 10
50.1052492064
 20
137.1945844831
 11
51.2724761836
 21
137.8706910066
  0
LINE
  5
25E
100
AcDbEntity
  8
0
100
AcDbLine
 62
7
  6
BYLAYER
 10
38.3096404098
 20
96.6493487019
 11
37.9582724193
 21
96.854723901
  0
LINE
  5
25F
100
AcDbEntity
  8
0
100
AcDbLine
 62
7
  6
BYLAYER
 10
44.3554285598
 20
93.1588902508
 11
44.0040605693
 21
93.3642654499
  0
LINE
  5
260
100
AcDbEntity
  8
0
100
AcDbLine
 62
7
  6
BYLAYER
 10
59.869336687
 20
84.1528155757
 11
59.5179686965
 21
84.3581907748
  0
LINE
  5
261
100
AcDbEntity
  8
0
100
AcDbLine
 62
7
  6
BYLAYER
 10
52.9826459523
 20
88.1780982403
 11
52.6312779618
 21
88.3834734394
  0
LINE
  5
262
100
AcDbEntity
  8
0
100
AcDbLine
 62
7
  6
BYLAYER
 10
48.701432495
 20
82.9958288857
 11
48.701432495
 21
82.4242771937
  0
LINE
  5
263
100
AcDbEntity
  8
0
100
AcDbLine
 62
7
  6
BYLAYER
 10
48.729199682
 20
79.2563207417
 11
48.729199682
 21
78.6847690497
  0
LINE
  5
264
100
AcDbEntity
  8
0
100
AcDbLine
 62
7
  6
BYLAYER
 10
50.1890985674
 20
84.9570199103
 11
50.1890985674
 21
84.3854682183
  0
LINE
  5
265
100
AcDbEntity
  8
0
100
AcDbLine
 62
7
  6
BYLAYER
 10
51.4162185808
 20
76.4720925794
 11
51.4162185808
 21
77.0028191505
  0
LINE
  5
266
100
AcDbEntity
  8
0
100
AcDbLine
 62
7
  6
BYLAYER
 10
57.5352864147
 20
134.1296698088
 11
56.3680594373
 21
133.4535632852
  0
LINE
  5
267
100
AcDbEntity
  8
0
100
AcDbLine
 62
7
  6
BYLAYER
 10
52.4061817219
 20
77.1334624009
 11
52.4061817219
 21
76.5619107089
  0
LINE
  5
268
100
AcDbEntity
  8
0
100
AcDbLine
 62
7
  6
BYLAYER
 10
53.6853819333
 20
86.9508454249
 11
53.6853819333
 21
86.3792937328
  0
LINE
  5
269
100
AcDbEntity
  8
0
100
AcDbLine
 62
7
  6
BYLAYER
 10
55.5881232297
 20
78.9705462211
 11
55.5881232297
 21
78.3989945291
  0
LINE
  5
26A
100
AcDbEntity
  8
0
100
AcDbLine
 62
7
  6
BYLAYER
 10
56.3680594373
 20
133.4535632852
 11
56.3680594373
 21
130.0463635446
  0
LINE
  5
26B
100
AcDbEntity
  8
0
100
AcDbLine
 62
7
  6
BYLAYER
 10
34.6769819392
 20
94.5777525564
 11
33.1880343037
 21
92.6148720465
  0
LINE
  5
26C
100
AcDbEntity
  8
0
100
AcDbLine
 62
7
  6
BYLAYER
 10
51.5761302869
 20
76.5841210409
 11
51.4162185808
 21
76.5438014305
  0
LINE
  5
26D
100
AcDbEntity
  8
0
100
AcDbLine
 62
7
  6
BYLAYER
 10
60.4318980044
 20
94.8579753241
 11
22.6722386816
 21
116.6580316155
  0
LINE
  5
26E
100
AcDbEntity
  8
0
100
AcDbLine
 62
7
  6
BYLAYER
 10
24.9681299633
 20
126.3203024418
 11
25.3239001509
 21
126.0273496053
  0
LINE
  5
26F
100
AcDbEntity
  8
0
100
AcDbLine
 62
7
  6
BYLAYER
 10
27.7987841889
 20
124.5985069644
 11
27.4430140013
 21
124.891459801
  0
LINE
  5
270
100
AcDbEntity
  8
0
100
AcDbLine
 62
7
  6
BYLAYER
 10
57.0757893021
 20
80.9317372457
 11
57.0757893021
 21
80.3601855537
  0
LINE
  5
271
100
AcDbEntity
  8
0
100
AcDbLine
 62
7
  6
BYLAYER
 10
57.5352864147
 20
129.5778256284
 11
57.5352864147
 21
134.1296698088
  0
LINE
  5
272
100
AcDbEntity
  8
0
100
AcDbLine
 62
7
  6
BYLAYER
 10
60.4318980044
 20
94.8579753241
 11
60.4318980044
 21
110.4531714913
  0
LINE
  5
273
100
AcDbEntity
  8
0
100
AcDbLine
 62
7
  6
BYLAYER
 10
60.572072668
 20
82.9255627603
 11
60.572072668
 21
82.3540110683
  0
LINE
  5
274
100
AcDbEntity
  8
0
100
AcDbLine
 62
7
  6
BYLAYER
 10
35.5160930249
 20
93.4282703719
 11
34.0284269525
 21
91.4670793473
  0
LINE
  5
275
100
AcDbEntity
  8
0
100
AcDbLine
 62
7
  6
BYLAYER
 10
34.0284269525
 20
90.8955276553
 11
35.5160930249
 21
92.85671868
  0
LINE
  5
276
100
AcDbEntity
  8
0
100
AcDbLine
 62
7
  6
BYLAYER
 10
35.4068167941
 20
92.4971751133
 11
33.9189838256
 21
90.5357640694
  0
LINE
  5
277
100
AcDbEntity
  8
0
100
AcDbLine
 62
7
  6
BYLAYER
 10
62.6210913415
 20
129.9687231281
 11
63.7883183187
 21
130.6448296516
  0
LINE
  5
278
100
AcDbEntity
  8
0
100
AcDbLine
 62
7
  6
BYLAYER
 10
52.4855281131
 20
81.4250454964
 11
55.8904074198
 21
82.2895014061
  0
LINE
  5
279
100
AcDbEntity
  8
0
100
AcDbLine
 62
7
  6
BYLAYER
 10
55.541071528
 20
82.4160331412
 11
52.1344025557
 21
81.551122858
  0
LINE
  5
27A
100
AcDbEntity
  8
0
100
AcDbLine
 62
7
  6
BYLAYER
 10
44.6894395522
 20
80.6094037055
 11
44.5295278461
 21
80.5690840951
  0
LWPOLYLINE
  5
27B
100
AcDbEntity
  8
0
100
AcDbPolyline
 62
7
  6
BYLAYER
 90
7
 70
0
 10
61.2491377782
 20
95.3298061111
 10
61.500491116
 20
95.302966754
 10
62.4432748287
 20
95.1774684895
 10
63.3168394636
 20
95.0347731958
 10
64.155205952
 20
94.8903542211
 10
64.9677211166
 20
94.7721721014
 10
65.7396578736
 20
94.7067353621
  0
LINE
  5
27C
100
AcDbEntity
  8
0
100
AcDbLine
 62
7
  6
BYLAYER
 10
40.7227700892
 20
91.0872941053
 11
39.2338224537
 21
89.1244135953
  0
LINE
  5
27D
100
AcDbEntity
  8
0
100
AcDbLine
 62
7
  6
BYLAYER
 10
41.5618811749
 20
89.9378119208
 11
40.0742151025
 21
87.9766208962
  0
LINE
  5
27E
100
AcDbEntity
  8
0
100
AcDbLine
 62
7
  6
BYLAYER
 10
40.0742151025
 20
87.4050692042
 11
41.5618811749
 21
89.3662602288
  0
LINE
  5
27F
100
AcDbEntity
  8
0
100
AcDbLine
 62
7
  6
BYLAYER
 10
41.4526049441
 20
89.0067166622
 11
39.9647719756
 21
87.0453056183
  0
LINE
  5
280
100
AcDbEntity
  8
0
100
AcDbLine
 62
7
  6
BYLAYER
 10
70.0511285498
 20
126.9038084538
 11
68.8839015724
 21
126.2277019302
  0
LINE
  5
281
100
AcDbEntity
  8
0
100
AcDbLine
 62
7
  6
BYLAYER
 10
45.5988373784
 20
85.450328161
 11
49.0037166851
 21
86.3147840707
  0
LINE
  5
282
100
AcDbEntity
  8
0
100
AcDbLine
 62
7
  6
BYLAYER
 10
48.6543807933
 20
86.4413158058
 11
45.247711821
 21
85.5764055226
  0
LINE
  5
283
100
AcDbEntity
  8
0
100
AcDbLine
 62
7
  6
BYLAYER
 10
36.0622221597
 20
85.590195716
 11
35.9023104536
 21
85.5498761056
  0
LINE
  5
284
100
AcDbEntity
  8
0
100
AcDbLine
 62
7
  6
BYLAYER
 10
25.3239001509
 20
126.0273496053
 11
27.7987841889
 21
124.5985069644
  0
LINE
  5
285
100
AcDbEntity
  8
0
100
AcDbLine
 62
7
  6
BYLAYER
 10
27.4430140013
 20
124.891459801
 11
24.9681299633
 21
126.3203024418
  0
LINE
  5
286
100
AcDbEntity
  8
0
100
AcDbLine
 62
7
  6
BYLAYER
 10
68.8839015724
 20
126.2277019302
 11
68.8839015724
 21
122.8205021896
  0
LINE
  5
287
100
AcDbEntity
  8
0
100
AcDbLine
 62
7
  6
BYLAYER
 10
70.0511285498
 20
122.3519642734
 11
70.0511285498
 21
126.9038084538
  0
LWPOLYLINE
  5
288
100
AcDbEntity
  8
0
100
AcDbPolyline
 62
7
  6
BYLAYER
 90
6
 70
0
 10
84.8098250698
 20
130.8344068234
 10
97.522613703
 20
138.4532902274
 10
114.9991768615
 20
146.8186776748
 10
126.6536086323
 20
149.9293350477
 10
134.5101689439
 20
149.4809616421
 10
137.1167787843
 20
148.3600833569
  0
LINE
  5
289
100
AcDbEntity
  8
0
100
AcDbLine
 62
7
  6
BYLAYER
 10
75.1369334766
 20
122.7428617731
 11
76.3041604538
 21
123.4189682966
  0
LINE
  5
28A
100
AcDbEntity
  8
0
100
AcDbLine
 62
7
  6
BYLAYER
 10
36.971619986
 20
90.4311201715
 11
40.3764992926
 21
91.2955760812
  0
LINE
  5
28B
100
AcDbEntity
  8
0
100
AcDbLine
 62
7
  6
BYLAYER
 10
40.0271634008
 20
91.4221078163
 11
36.6204944285
 21
90.5571975331
  0
LINE
  5
28C
100
AcDbEntity
  8
0
100
AcDbLine
 62
7
  6
BYLAYER
 10
30.0164340097
 20
89.0806541672
 11
29.8565223036
 21
89.0403345568
  0
LWPOLYLINE
  5
28D
100
AcDbEntity
  8
0
100
AcDbPolyline
 62
7
  6
BYLAYER
 90
8
 70
0
 10
55.804460842
 20
97.5295669761
 10
54.5638911053
 20
97.3422573927
 10
53.0155350357
 20
97.0096041265
 10
51.3561524762
 20
96.5453534975
 10
49.569319629
 20
95.9285696382
 10
47.628438431
 20
95.131739941
 10
45.4737551287
 20
94.1083458476
 10
44.0242697277
 20
93.3267854543
  0
LWPOLYLINE
  5
28E
100
AcDbEntity
  8
0
100
AcDbPolyline
 62
7
  6
BYLAYER
 90
5
 70
0
 10
50.6752080623
 20
100.4908754554
 10
50.0425614065
 20
100.480338082
 10
46.6304667518
 20
100.0434108315
 10
42.5504533987
 20
98.9903168939
 10
38.1980705198
 20
96.9766172447
  0
LINE
  5
28F
100
AcDbEntity
  8
0
100
AcDbLine
 62
7
  6
BYLAYER
 10
60.4318980044
 20
110.4531714913
 11
27.7987841889
 21
129.2934823124
  0
LINE
  5
290
100
AcDbEntity
  8
0
100
AcDbLine
 62
7
  6
BYLAYER
 10
25.0026497897
 20
130.9077947398
 11
22.6722386816
 21
132.2532277827
  0
LINE
  5
291
100
AcDbEntity
  8
0
100
AcDbLine
 62
7
  6
BYLAYER
 10
27.477815791
 20
129.5164234362
 11
25.0029317529
 21
130.945266077
  0
LINE
  5
292
100
AcDbEntity
  8
0
100
AcDbLine
 62
7
  6
BYLAYER
 10
29.4209675093
 20
130.6382959071
 11
26.9460834713
 21
132.067138548
  0
LINE
  5
293
100
AcDbEntity
  8
0
100
AcDbLine
 62
7
  6
BYLAYER
 10
27.3674302404
 20
131.9021505579
 11
29.8423142785
 21
130.4733079171
  0
LINE
  5
294
100
AcDbEntity
  8
0
100
AcDbLine
 62
7
  6
BYLAYER
 10
49.3499874817
 20
86.1065020947
 11
47.8610398462
 21
84.1436215848
  0
LINE
  5
295
100
AcDbEntity
  8
0
100
AcDbLine
 62
7
  6
BYLAYER
 10
50.1890985674
 20
84.9570199103
 11
48.701432495
 21
82.9958288857
  0
LINE
  5
296
100
AcDbEntity
  8
0
100
AcDbLine
 62
7
  6
BYLAYER
 10
48.701432495
 20
82.4242771937
 11
50.1890985674
 21
84.3854682183
  0
LINE
  5
297
100
AcDbEntity
  8
0
100
AcDbLine
 62
7
  6
BYLAYER
 10
50.0798223365
 20
84.0259246516
 11
48.591989368
 21
82.0645136078
  0
LINE
  5
298
100
AcDbEntity
  8
0
100
AcDbLine
 62
7
  6
BYLAYER
 10
39.3666355328
 20
95.0536860441
 11
39.3826229237
 21
95.063428837
  0
LINE
  5
299
100
AcDbEntity
  8
0
100
AcDbLine
 62
7
  6
BYLAYER
 10
30.5196831643
 20
94.0252878824
 11
27.3766150033
 21
92.2106395989
  0
LINE
  5
29A
100
AcDbEntity
  8
0
100
AcDbLine
 62
7
  6
BYLAYER
 10
27.8766125393
 20
92.1611164615
 11
30.9258318359
 21
93.9215786226
  0
LINE
  5
29B
100
AcDbEntity
  8
0
100
AcDbLine
 62
7
  6
BYLAYER
 10
27.9499976413
 20
91.7186619415
 11
27.5597545543
 21
91.493356335
  0
LINE
  5
29C
100
AcDbEntity
  8
0
100
AcDbLine
 62
7
  6
BYLAYER
 10
90.2716799349
 20
127.6810747847
 11
60.4318980044
 21
110.4531714913
  0
LINE
  5
29D
100
AcDbEntity
  8
0
100
AcDbLine
 62
7
  6
BYLAYER
 10
28.2571985381
 20
91.5413034334
 11
28.0427532882
 21
91.4174941497
  0
LINE
  5
29E
100
AcDbEntity
  8
0
100
AcDbLine
 62
7
  6
BYLAYER
 10
37.9652350227
 20
96.8426642462
 11
38.213607212
 21
96.9860611406
  0
LINE
  5
29F
100
AcDbEntity
  8
0
100
AcDbLine
 62
7
  6
BYLAYER
 10
27.7351931281
 20
90.7240745404
 11
18.5428432444
 21
85.41690054
  0
LINE
  5
2A0
100
AcDbEntity
  8
0
100
AcDbLine
 62
7
  6
BYLAYER
 10
28.7993932645
 20
90.9049336604
 11
29.0794184271
 21
91.0666052983
  0
LINE
  5
2A1
100
AcDbEntity
  8
0
100
AcDbLine
 62
7
  6
BYLAYER
 10
29.5489621435
 20
90.5479037344
 11
29.7634073934
 21
90.6717130181
  0
LINE
  5
2A2
100
AcDbEntity
  8
0
100
AcDbLine
 62
7
  6
BYLAYER
 10
30.1393757195
 20
90.8547386988
 11
33.1880343037
 21
92.6148720465
  0
LINE
  5
2A3
100
AcDbEntity
  8
0
100
AcDbLine
 62
7
  6
BYLAYER
 10
39.0129776447
 20
94.849502786
 11
39.3662902559
 21
95.0534866995
  0
LINE
  5
2A4
100
AcDbEntity
  8
0
100
AcDbLine
 62
7
  6
BYLAYER
 10
29.8565223036
 20
89.4993522768
 11
20.6641724198
 21
84.1921782765
  0
LINE
  5
2A5
100
AcDbEntity
  8
0
100
AcDbLine
 62
7
  6
BYLAYER
 10
34.0284269525
 20
91.4670793473
 11
30.8464854447
 21
89.6299955271
  0
LINE
  5
2A6
100
AcDbEntity
  8
0
100
AcDbLine
 62
7
  6
BYLAYER
 10
30.6092366117
 20
89.4228579401
 11
30.0164552
 21
89.0806174754
  0
LINE
  5
2A7
100
AcDbEntity
  8
0
100
AcDbLine
 62
7
  6
BYLAYER
 10
29.8565223036
 20
88.9686257057
 11
20.6641724198
 21
83.6614517053
  0
LINE
  5
2A8
100
AcDbEntity
  8
0
100
AcDbLine
 62
7
  6
BYLAYER
 10
37.462892359
 20
96.9068978309
 11
33.9531600383
 21
94.9054027809
  0
LINE
  5
2A9
100
AcDbEntity
  8
0
100
AcDbLine
 62
7
  6
BYLAYER
 10
34.3307111426
 20
94.7860345323
 11
37.9582724193
 21
96.8547239011
  0
LINE
  5
2AA
100
AcDbEntity
  8
0
100
AcDbLine
 62
7
  6
BYLAYER
 10
38.3096404098
 20
96.6493487019
 11
34.6769819392
 21
94.5777525564
  0
LINE
  5
2AB
100
AcDbEntity
  8
0
100
AcDbLine
 62
7
  6
BYLAYER
 10
39.0123763908
 20
95.4220958865
 11
35.5160930249
 21
93.4282703719
  0
LINE
  5
2AC
100
AcDbEntity
  8
0
100
AcDbLine
 62
7
  6
BYLAYER
 10
35.5160930249
 20
92.85671868
 11
39.0123763908
 21
94.8505441945
  0
LINE
  5
2AD
100
AcDbEntity
  8
0
100
AcDbLine
 62
7
  6
BYLAYER
 10
38.8050204701
 20
94.3926182458
 11
35.350067138
 21
92.4223620096
  0
LINE
  5
2AE
100
AcDbEntity
  8
0
100
AcDbLine
 62
7
  6
BYLAYER
 10
27.6727313151
 20
91.8787381082
 11
27.63192257
 21
91.8582542791
  0
LINE
  5
2AF
100
AcDbEntity
  8
0
100
AcDbLine
 62
7
  6
BYLAYER
 10
30.9258318359
 20
93.9215786226
 11
34.3307111426
 21
94.7860345323
  0
LINE
  5
2B0
100
AcDbEntity
  8
0
100
AcDbLine
 62
7
  6
BYLAYER
 10
33.9813752508
 20
94.9125662675
 11
30.5747062785
 21
94.0476559842
  0
LINE
  5
2B1
100
AcDbEntity
  8
0
100
AcDbLine
 62
7
  6
BYLAYER
 10
56.2366782164
 20
82.0812194302
 11
54.7477305809
 21
80.1183389202
  0
LINE
  5
2B2
100
AcDbEntity
  8
0
100
AcDbLine
 62
7
  6
BYLAYER
 10
57.0757893021
 20
80.9317372457
 11
55.5881232297
 21
78.9705462211
  0
LINE
  5
2B3
100
AcDbEntity
  8
0
100
AcDbLine
 62
7
  6
BYLAYER
 10
90.2716799349
 20
119.9995326743
 11
88.5039203418
 21
118.6920424615
  0
LINE
  5
2B4
100
AcDbEntity
  8
0
100
AcDbLine
 62
7
  6
BYLAYER
 10
30.3827228008
 20
88.9553577802
 11
30.3900927956
 21
88.9596128232
  0
LINE
  5
2B5
100
AcDbEntity
  8
0
100
AcDbLine
 62
7
  6
BYLAYER
 10
30.8464854447
 20
89.0584438352
 11
34.0284269525
 21
90.8955276553
  0
LINE
  5
2B6
100
AcDbEntity
  8
0
100
AcDbLine
 62
7
  6
BYLAYER
 10
33.7822765101
 20
90.415202972
 11
30.6393734811
 21
88.6006578935
  0
LINE
  5
2B7
100
AcDbEntity
  8
0
100
AcDbLine
 62
7
  6
BYLAYER
 10
36.5654713143
 20
90.5348294312
 11
33.4224031533
 21
88.7201811477
  0
LINE
  5
2B8
100
AcDbEntity
  8
0
100
AcDbLine
 62
7
  6
BYLAYER
 10
33.9224006893
 20
88.6706580104
 11
36.971619986
 21
90.4311201715
  0
LINE
  5
2B9
100
AcDbEntity
  8
0
100
AcDbLine
 62
7
  6
BYLAYER
 10
33.9957857913
 20
88.2282034904
 11
33.6055427043
 21
88.0028978839
  0
LINE
  5
2BA
100
AcDbEntity
  8
0
100
AcDbLine
 62
7
  6
BYLAYER
 10
34.3029866881
 20
88.0508449823
 11
34.0885414382
 21
87.9270356985
  0
LINE
  5
2BB
100
AcDbEntity
  8
0
100
AcDbLine
 62
7
  6
BYLAYER
 10
33.7809812781
 20
87.2336160892
 11
24.5886313944
 21
81.9264420889
  0
LINE
  5
2BC
100
AcDbEntity
  8
0
100
AcDbLine
 62
7
  6
BYLAYER
 10
34.8451814145
 20
87.4144752092
 11
35.1252065771
 21
87.5761468472
  0
LINE
  5
2BD
100
AcDbEntity
  8
0
100
AcDbLine
 62
7
  6
BYLAYER
 10
35.5947502935
 20
87.0574452833
 11
35.8091955434
 21
87.181254567
  0
LINE
  5
2BE
100
AcDbEntity
  8
0
100
AcDbLine
 62
7
  6
BYLAYER
 10
36.1851638695
 20
87.3642802477
 11
39.2338224537
 21
89.1244135953
  0
LINE
  5
2BF
100
AcDbEntity
  8
0
100
AcDbLine
 62
7
  6
BYLAYER
 10
43.508680509
 20
93.4164393798
 11
39.9989481883
 21
91.4149443297
  0
LINE
  5
2C0
100
AcDbEntity
  8
0
100
AcDbLine
 62
7
  6
BYLAYER
 10
40.3764992926
 20
91.2955760812
 11
44.0040605693
 21
93.3642654499
  0
LINE
  5
2C1
100
AcDbEntity
  8
0
100
AcDbLine
 62
7
  6
BYLAYER
 10
44.3554285598
 20
93.1588902508
 11
40.7227700892
 21
91.0872941053
  0
LWPOLYLINE
  5
2C2
100
AcDbEntity
  8
0
100
AcDbPolyline
 62
7
  6
BYLAYER
 90
14
 70
0
 10
39.3824541328
 20
95.0633315262
 10
41.036747742
 20
95.967301995
 10
42.6060719019
 20
96.6232845893
 10
44.1188105789
 20
97.1284558888
 10
45.5386546929
 20
97.5111816241
 10
46.8689064526
 20
97.7987288918
 10
48.1186368306
 20
98.0099074159
 10
49.2898147106
 20
98.1566438613
 10
50.3869989225
 20
98.2482503531
 10
51.4147750711
 20
98.2918017058
 10
52.375751432
 20
98.2928129684
 10
53.2724653071
 20
98.2557817962
 10
54.1067377418
 20
98.1871799954
 10
54.8070892582
 20
98.1053867016
  0
LINE
  5
2C3
100
AcDbEntity
  8
0
100
AcDbLine
 62
7
  6
BYLAYER
 10
30.343246419
 20
88.9325662165
 11
30.3840551641
 21
88.9530500456
  0
LINE
  5
2C4
100
AcDbEntity
  8
0
100
AcDbLine
 62
7
  6
BYLAYER
 10
30.5196777517
 20
94.0252847574
 11
30.5747172527
 21
94.0476620179
  0
LINE
  5
2C5
100
AcDbEntity
  8
0
100
AcDbLine
 62
7
  6
BYLAYER
 10
29.4209675093
 20
130.6382959071
 11
29.8423142785
 21
130.4733079171
  0
LINE
  5
2C6
100
AcDbEntity
  8
0
100
AcDbLine
 62
7
  6
BYLAYER
 10
27.3674302404
 20
131.9021505579
 11
26.9460834713
 21
132.067138548
  0
LINE
  5
2C7
100
AcDbEntity
  8
0
100
AcDbLine
 62
7
  6
BYLAYER
 10
55.5881232297
 20
78.3989945291
 11
57.0757893021
 21
80.3601855537
  0
LINE
  5
2C8
100
AcDbEntity
  8
0
100
AcDbLine
 62
7
  6
BYLAYER
 10
56.9665130713
 20
80.000641987
 11
55.4786801028
 21
78.0392309432
  0
LINE
  5
2C9
100
AcDbEntity
  8
0
100
AcDbLine
 62
7
  6
BYLAYER
 10
35.9023104536
 20
86.0088938257
 11
26.7099605698
 21
80.7017198253
  0
LINE
  5
2CA
100
AcDbEntity
  8
0
100
AcDbLine
 62
7
  6
BYLAYER
 10
40.0742151025
 20
87.9766208962
 11
36.8922735947
 21
86.139537076
  0
LINE
  5
2CB
100
AcDbEntity
  8
0
100
AcDbLine
 62
7
  6
BYLAYER
 10
36.6550247617
 20
85.932399489
 11
36.0622433501
 21
85.5901590243
  0
LINE
  5
2CC
100
AcDbEntity
  8
0
100
AcDbLine
 62
7
  6
BYLAYER
 10
35.9023104536
 20
85.4781672545
 11
26.7099605698
 21
80.1709932542
  0
LINE
  5
2CD
100
AcDbEntity
  8
0
100
AcDbLine
 62
7
  6
BYLAYER
 10
36.4285109508
 20
85.464899329
 11
36.4358809456
 21
85.4691543721
  0
LINE
  5
2CE
100
AcDbEntity
  8
0
100
AcDbLine
 62
7
  6
BYLAYER
 10
36.8922735947
 20
85.567985384
 11
40.0742151025
 21
87.4050692042
  0
LINE
  5
2CF
100
AcDbEntity
  8
0
100
AcDbLine
 62
7
  6
BYLAYER
 10
39.8280646601
 20
86.9247445209
 11
36.6851616311
 21
85.1101994424
  0
LINE
  5
2D0
100
AcDbEntity
  8
0
100
AcDbLine
 62
7
  6
BYLAYER
 10
88.5039203418
 20
111.0652682328
 11
60.4318980044
 21
94.8579753241
  0
LINE
  5
2D1
100
AcDbEntity
  8
0
100
AcDbLine
 62
7
  6
BYLAYER
 10
45.0581645408
 20
91.9316374354
 11
41.5618811749
 21
89.9378119208
  0
LINE
  5
2D2
100
AcDbEntity
  8
0
100
AcDbLine
 62
7
  6
BYLAYER
 10
41.5618811749
 20
89.3662602288
 11
45.0581645408
 21
91.3600857434
  0
LINE
  5
2D3
100
AcDbEntity
  8
0
100
AcDbLine
 62
7
  6
BYLAYER
 10
44.8508086201
 20
90.9021597946
 11
41.395855288
 21
88.9319035584
  0
LWPOLYLINE
  5
2D4
100
AcDbEntity
  8
0
100
AcDbPolyline
 62
7
  6
BYLAYER
 90
11
 70
0
 10
45.0654465494
 20
91.3472364628
 10
45.318101522
 20
91.4904223535
 10
47.6885266959
 20
92.6868360209
 10
49.6797298859
 20
93.5575040544
 10
51.501215647
 20
94.2290512678
 10
53.1815070867
 20
94.7309793566
 10
54.7445449541
 20
95.0880158436
 10
56.1991582009
 20
95.3181468996
 10
57.5494239509
 20
95.4384631428
 10
58.7959722527
 20
95.4704255221
 10
59.4018715545
 20
95.452647919
  0
LINE
  5
2D5
100
AcDbEntity
  8
0
100
AcDbLine
 62
7
  6
BYLAYER
 10
45.1140675174
 20
91.768419389
 11
45.0076986397
 21
91.710128704
  0
LINE
  5
2D6
100
AcDbEntity
  8
0
100
AcDbLine
 62
7
  6
BYLAYER
 10
45.1644214061
 20
91.7377242977
 11
45.0581645408
 21
91.679499664
  0
LINE
  5
2D7
100
AcDbEntity
  8
0
100
AcDbLine
 62
7
  6
BYLAYER
 10
33.7185194651
 20
88.388279657
 11
33.67771072
 21
88.367795828
  0
LINE
  5
2D8
100
AcDbEntity
  8
0
100
AcDbLine
 62
7
  6
BYLAYER
 10
36.389034569
 20
85.4421077654
 11
36.4298433141
 21
85.4625915944
  0
LINE
  5
2D9
100
AcDbEntity
  8
0
100
AcDbLine
 62
7
  6
BYLAYER
 10
36.5654659017
 20
90.5348263063
 11
36.6205054027
 21
90.5572035667
  0
LINE
  5
2DA
100
AcDbEntity
  8
0
100
AcDbLine
 62
7
  6
BYLAYER
 10
88.5039203418
 20
118.6920424615
 11
88.5039203418
 21
111.0652682328
  0
LINE
  5
2DB
100
AcDbEntity
  8
0
100
AcDbLine
 62
7
  6
BYLAYER
 10
90.2716799349
 20
119.9995326743
 11
90.2716799349
 21
127.6810747847
  0
LWPOLYLINE
  5
2DC
100
AcDbEntity
  8
0
100
AcDbPolyline
 62
7
  6
BYLAYER
 90
6
 70
0
 10
70.2316463526
 20
95.2978856035
 10
67.272977458
 20
93.1031765137
 10
65.9812232009
 20
90.876475703
 10
65.4041013014
 20
89.5546207399
 10
63.4137541718
 20
86.8028068411
 10
60.1746548412
 20
84.751782194
  0
LWPOLYLINE
  5
2DD
100
AcDbEntity
  8
0
100
AcDbPolyline
 62
7
  6
BYLAYER
 90
8
 70
0
 10
67.8130284621
 20
97.6494366049
 10
67.69720053
 20
97.5805046117
 10
67.2492227928
 20
97.290723785
 10
66.896437533
 20
97.0858470935
 10
66.40146202
 20
96.9641382373
 10
65.676353042
 20
96.9625207203
 10
64.9037758002
 20
97.0495710464
 10
64.3770866511
 20
97.135717455
  0
LINE
  5
2DE
100
AcDbEntity
  8
0
100
AcDbLine
 62
7
  6
BYLAYER
 10
67.8103357754
 20
97.6542809301
 11
67.8161023648
 21
97.6576792239
  0
LINE
  5
2DF
100
AcDbEntity
  8
0
100
AcDbLine
 62
7
  6
BYLAYER
 10
72.3833518081
 20
96.5386937586
 11
72.3869133781
 21
96.5407762248
  0
LINE
  5
2E0
100
AcDbEntity
  8
0
100
AcDbLine
 62
7
  6
BYLAYER
 10
45.1926887067
 20
85.5540374207
 11
42.0496205458
 21
83.7393891372
  0
LINE
  5
2E1
100
AcDbEntity
  8
0
100
AcDbLine
 62
7
  6
BYLAYER
 10
42.5496180817
 20
83.6898659999
 11
45.5988373784
 21
85.450328161
  0
LINE
  5
2E2
100
AcDbEntity
  8
0
100
AcDbLine
 62
7
  6
BYLAYER
 10
42.6230031838
 20
83.2474114798
 11
42.2327600967
 21
83.0221058734
  0
LINE
  5
2E3
100
AcDbEntity
  8
0
100
AcDbLine
 62
7
  6
BYLAYER
 10
42.9302040806
 20
83.0700529718
 11
42.7157588307
 21
82.946243688
  0
LINE
  5
2E4
100
AcDbEntity
  8
0
100
AcDbLine
 62
7
  6
BYLAYER
 10
42.4081986706
 20
82.2528240787
 11
33.2158487868
 21
76.9456500784
  0
LINE
  5
2E5
100
AcDbEntity
  8
0
100
AcDbLine
 62
7
  6
BYLAYER
 10
43.472398807
 20
82.4336831987
 11
43.7524239695
 21
82.5953548367
  0
LINE
  5
2E6
100
AcDbEntity
  8
0
100
AcDbLine
 62
7
  6
BYLAYER
 10
66.8515807937
 20
95.2188562183
 11
77.0796359368
 21
101.1240003982
  0
LINE
  5
2E7
100
AcDbEntity
  8
0
100
AcDbLine
 62
7
  6
BYLAYER
 10
44.221967686
 20
82.0766532728
 11
44.4364129359
 21
82.2004625565
  0
LINE
  5
2E8
100
AcDbEntity
  8
0
100
AcDbLine
 62
7
  6
BYLAYER
 10
44.812381262
 20
82.3834882371
 11
47.8610398462
 21
84.1436215848
  0
LINE
  5
2E9
100
AcDbEntity
  8
0
100
AcDbLine
 62
7
  6
BYLAYER
 10
53.7703726601
 20
86.7832879639
 11
53.6795379564
 21
86.7308361984
  0
LINE
  5
2EA
100
AcDbEntity
  8
0
100
AcDbLine
 62
7
  6
BYLAYER
 10
44.5295278461
 20
81.0281018151
 11
35.3371779623
 21
75.7209278148
  0
LINE
  5
2EB
100
AcDbEntity
  8
0
100
AcDbLine
 62
7
  6
BYLAYER
 10
48.701432495
 20
82.9958288857
 11
45.5194909871
 21
81.1587450655
  0
LINE
  5
2EC
100
AcDbEntity
  8
0
100
AcDbLine
 62
7
  6
BYLAYER
 10
45.2822421542
 20
80.9516074784
 11
44.6894607425
 21
80.6093670138
  0
LINE
  5
2ED
100
AcDbEntity
  8
0
100
AcDbLine
 62
7
  6
BYLAYER
 10
44.5295278461
 20
80.497375244
 11
35.3371779623
 21
75.1902012437
  0
LINE
  5
2EE
100
AcDbEntity
  8
0
100
AcDbLine
 62
7
  6
BYLAYER
 10
72.3869133781
 20
96.5407762248
 11
77.7119413417
 21
99.6151642014
  0
LINE
  5
2EF
100
AcDbEntity
  8
0
100
AcDbLine
 62
7
  6
BYLAYER
 10
45.0557283433
 20
80.4841073185
 11
45.063098338
 21
80.4883623615
  0
LINE
  5
2F0
100
AcDbEntity
  8
0
100
AcDbLine
 62
7
  6
BYLAYER
 10
45.5194909871
 20
80.5871933735
 11
48.701432495
 21
82.4242771937
  0
LINE
  5
2F1
100
AcDbEntity
  8
0
100
AcDbLine
 62
7
  6
BYLAYER
 10
72.3859640424
 20
96.5339120061
 11
70.2316463526
 21
95.2978856035
  0
LINE
  5
2F2
100
AcDbEntity
  8
0
100
AcDbLine
 62
7
  6
BYLAYER
 10
74.4230574096
 20
101.4721766763
 11
67.8161023648
 21
97.6576792239
  0
LINE
  5
2F3
100
AcDbEntity
  8
0
100
AcDbLine
 62
7
  6
BYLAYER
 10
52.1358979015
 20
88.4356473693
 11
48.6261655807
 21
86.4341523192
  0
LINE
  5
2F4
100
AcDbEntity
  8
0
100
AcDbLine
 62
7
  6
BYLAYER
 10
49.0037166851
 20
86.3147840707
 11
52.6312779618
 21
88.3834734394
  0
LINE
  5
2F5
100
AcDbEntity
  8
0
100
AcDbLine
 62
7
  6
BYLAYER
 10
52.9826459523
 20
88.1780982403
 11
49.3499874817
 21
86.1065020947
  0
LINE
  5
2F6
100
AcDbEntity
  8
0
100
AcDbLine
 62
7
  6
BYLAYER
 10
53.6853819333
 20
86.9508454249
 11
50.1890985674
 21
84.9570199103
  0
LINE
  5
2F7
100
AcDbEntity
  8
0
100
AcDbLine
 62
7
  6
BYLAYER
 10
50.1890985674
 20
84.3854682183
 11
53.6853819333
 21
86.3792937328
  0
LINE
  5
2F8
100
AcDbEntity
  8
0
100
AcDbLine
 62
7
  6
BYLAYER
 10
53.4780260126
 20
85.9213677841
 11
50.0230726805
 21
83.9511115479
  0
LINE
  5
2F9
100
AcDbEntity
  8
0
100
AcDbLine
 62
7
  6
BYLAYER
 10
57.4041553921
 20
90.9858350552
 11
52.6530605109
 21
88.3442951714
  0
LINE
  5
2FA
100
AcDbEntity
  8
0
100
AcDbLine
 62
7
  6
BYLAYER
 10
77.0935865498
 20
101.1317004817
 11
77.0799868277
 21
101.1242029839
  0
LWPOLYLINE
  5
2FB
100
AcDbEntity
  8
0
100
AcDbPolyline
 62
7
  6
BYLAYER
 90
4
 70
0
 10
53.7019625089
 20
86.3488839728
 10
59.5533145418
 20
89.5392670871
 10
62.6573185486
 20
90.8659330625
 10
67.1531846258
 20
92.8966799644
  0
LINE
  5
2FC
100
AcDbEntity
  8
0
100
AcDbLine
 62
7
  6
BYLAYER
 10
53.7790318763
 20
86.7782914573
 11
53.6853819333
 21
86.7274649712
  0
LINE
  5
2FD
100
AcDbEntity
  8
0
100
AcDbLine
 62
7
  6
BYLAYER
 10
42.3457368576
 20
83.4074876465
 11
42.3049281125
 21
83.3870038175
  0
LWPOLYLINE
  5
2FE
100
AcDbEntity
  8
0
100
AcDbPolyline
 62
7
  6
BYLAYER
 90
3
 70
0
 10
66.8523770241
 20
95.2170335049
 10
62.5901018849
 20
93.2623344361
 10
57.4041553921
 20
90.9858350552
  0
LINE
  5
2FF
100
AcDbEntity
  8
0
100
AcDbLine
 62
7
  6
BYLAYER
 10
60.1746548412
 20
84.751782194
 11
57.9848413938
 21
83.4595124295
  0
LINE
  5
300
100
AcDbEntity
  8
0
100
AcDbLine
 62
7
  6
BYLAYER
 10
48.4552820526
 20
81.9439525103
 11
45.3123790236
 21
80.1294074319
  0
LINE
  5
301
100
AcDbEntity
  8
0
100
AcDbLine
 62
7
  6
BYLAYER
 10
52.0793794415
 20
81.5287547561
 11
48.9363112805
 21
79.7141064726
  0
LINE
  5
302
100
AcDbEntity
  8
0
100
AcDbLine
 62
7
  6
BYLAYER
 10
49.4363088165
 20
79.6645833353
 11
52.4855281131
 21
81.4250454964
  0
LINE
  5
303
100
AcDbEntity
  8
0
100
AcDbLine
 62
7
  6
BYLAYER
 10
49.5096939185
 20
79.2221288152
 11
49.1194508314
 21
78.9968232088
  0
LINE
  5
304
100
AcDbEntity
  8
0
100
AcDbLine
 62
7
  6
BYLAYER
 10
49.8168948153
 20
79.0447703072
 11
49.6024495654
 21
78.9209610234
  0
LINE
  5
305
100
AcDbEntity
  8
0
100
AcDbLine
 62
7
  6
BYLAYER
 10
49.2948894053
 20
78.2275414141
 11
40.1025395216
 21
72.9203674138
  0
LINE
  5
306
100
AcDbEntity
  8
0
100
AcDbLine
 62
7
  6
BYLAYER
 10
50.3590895417
 20
78.4084005341
 11
50.6391147043
 21
78.5700721721
  0
LINE
  5
307
100
AcDbEntity
  8
0
100
AcDbLine
 62
7
  6
BYLAYER
 10
51.1086584207
 20
78.0513706082
 11
51.3231036706
 21
78.1751798919
  0
LINE
  5
308
100
AcDbEntity
  8
0
100
AcDbLine
 62
7
  6
BYLAYER
 10
51.6990719967
 20
78.3582055725
 11
54.7477305809
 21
80.1183389202
  0
LINE
  5
309
100
AcDbEntity
  8
0
100
AcDbLine
 62
7
  6
BYLAYER
 10
78.838360946
 20
97.6674308237
 11
73.5099310629
 21
94.5910825803
  0
LINE
  5
30A
100
AcDbEntity
  8
0
100
AcDbLine
 62
7
  6
BYLAYER
 10
59.0225886362
 20
84.4103647047
 11
55.5128563154
 21
82.4088696546
  0
LINE
  5
30B
100
AcDbEntity
  8
0
100
AcDbLine
 62
7
  6
BYLAYER
 10
55.8904074198
 20
82.2895014061
 11
59.5179686965
 21
84.3581907748
  0
LINE
  5
30C
100
AcDbEntity
  8
0
100
AcDbLine
 62
7
  6
BYLAYER
 10
59.869336687
 20
84.1528155757
 11
56.2366782164
 21
82.0812194302
  0
LINE
  5
30D
100
AcDbEntity
  8
0
100
AcDbLine
 62
7
  6
BYLAYER
 10
45.0162519614
 20
80.4613157549
 11
45.0570607066
 21
80.4817995839
  0
LWPOLYLINE
  5
30E
100
AcDbEntity
  8
0
100
AcDbPolyline
 62
7
  6
BYLAYER
 90
14
 70
0
 10
78.8385752784
 20
97.6675677768
 10
87.1842569096
 20
101.5017375889
 10
98.2241387797
 20
103.5873547945
 10
109.2494215533
 20
106.8495439054
 10
117.1714949392
 20
110.7436055453
 10
123.8249157462
 20
114.8488808501
 10
129.4982474389
 20
119.1462766333
 10
134.3233042934
 20
123.6588079347
 10
136.4107055322
 20
126.0088269575
 10
139.8904213934
 20
130.8783564382
 10
142.4100546816
 20
135.8478619949
 10
143.6800195675
 20
140.3572446464
 10
143.4443737433
 20
144.1893714729
 10
141.6593828556
 20
147.5059680155
  0
LINE
  5
30F
100
AcDbEntity
  8
0
100
AcDbLine
 62
7
  6
BYLAYER
 10
45.1926832942
 20
85.5540342958
 11
45.2477227952
 21
85.5764115562
  0
LINE
  5
310
100
AcDbEntity
  8
0
100
AcDbLine
 62
7
  6
BYLAYER
 10
60.5589801754
 20
82.7491215585
 11
60.6382997385
 21
82.7960810328
  0
LWPOLYLINE
  5
311
100
AcDbEntity
  8
0
100
AcDbPolyline
 62
7
  6
BYLAYER
 90
8
 70
0
 10
60.5631923979
 20
82.3690519145
 10
64.0066027792
 20
84.4020767544
 10
66.7160678591
 20
87.2458747581
 10
67.9020520701
 20
89.6536028301
 10
68.3123957422
 20
90.5550044625
 10
69.1878202232
 20
91.8583657271
 10
70.9220210817
 20
93.0876219931
 10
73.5127236681
 20
94.5865384545
  0
LINE
  5
312
100
AcDbEntity
  8
0
100
AcDbLine
 62
7
  6
BYLAYER
 10
60.572072668
 20
82.7416006805
 11
60.6520625672
 21
82.788171064
  0
LINE
  5
313
100
AcDbEntity
  8
0
100
AcDbLine
 62
7
  6
BYLAYER
 10
51.4162185808
 20
77.0028191505
 11
42.223868697
 21
71.6956451502
  0
LINE
  5
314
100
AcDbEntity
  8
0
100
AcDbLine
 62
7
  6
BYLAYER
 10
55.5881232297
 20
78.9705462211
 11
52.4061817219
 21
77.1334624009
  0
LINE
  5
315
100
AcDbEntity
  8
0
100
AcDbLine
 62
7
  6
BYLAYER
 10
52.1689328889
 20
76.9263248138
 11
51.5761514772
 21
76.5840843492
  0
LINE
  5
316
100
AcDbEntity
  8
0
100
AcDbLine
 62
7
  6
BYLAYER
 10
51.4162185808
 20
76.4720925794
 11
42.223868697
 21
71.1649185791
  0
LINE
  5
317
100
AcDbEntity
  8
0
100
AcDbLine
 62
7
  6
BYLAYER
 10
51.942419078
 20
76.4588246539
 11
51.9497890728
 21
76.4630796969
  0
LINE
  5
318
100
AcDbEntity
  8
0
100
AcDbLine
 62
7
  6
BYLAYER
 10
52.4061817219
 20
76.5619107089
 11
55.5881232297
 21
78.3989945291
  0
LINE
  5
319
100
AcDbEntity
  8
0
100
AcDbLine
 62
7
  6
BYLAYER
 10
55.3419727873
 20
77.9186698457
 11
52.1990697583
 21
76.1041247673
  0
LINE
  5
31A
100
AcDbEntity
  8
0
100
AcDbLine
 62
7
  6
BYLAYER
 10
60.572072668
 20
82.9255627603
 11
57.0757893021
 21
80.9317372457
  0
LINE
  5
31B
100
AcDbEntity
  8
0
100
AcDbLine
 62
7
  6
BYLAYER
 10
57.0757893021
 20
80.3601855537
 11
60.572072668
 21
82.3540110683
  0
LINE
  5
31C
100
AcDbEntity
  8
0
100
AcDbLine
 62
7
  6
BYLAYER
 10
60.3647167473
 20
81.8960851195
 11
56.9097634152
 21
79.9258288833
  0
LINE
  5
31D
100
AcDbEntity
  8
0
100
AcDbLine
 62
7
  6
BYLAYER
 10
49.2324275923
 20
79.3822049819
 11
49.1916188472
 21
79.3617211529
  0
LINE
  5
31E
100
AcDbEntity
  8
0
100
AcDbLine
 62
7
  6
BYLAYER
 10
51.9029426962
 20
76.4360330903
 11
51.9437514413
 21
76.4565169193
  0
LINE
  5
31F
100
AcDbEntity
  8
0
100
AcDbLine
 62
7
  6
BYLAYER
 10
52.0793740289
 20
81.5287516312
 11
52.1344135299
 21
81.5511288916
  0
LINE
  5
320
100
AcDbEntity
  8
0
100
AcDbLine
 62
7
  6
BYLAYER
 10
52.512020612
 20
149.4811310761
 11
90.2716799349
 21
127.6810747847
  0
LWPOLYLINE
  5
321
100
AcDbEntity
  8
0
100
AcDbPolyline
 62
7
  6
BYLAYER
 90
6
 70
0
 10
135.1925809833
 20
152.2863009252
 10
128.9422595734
 20
154.268434273
 10
120.080086544
 20
153.6982902113
 10
114.4064959752
 20
152.2011516611
 10
99.5393872358
 20
146.1270557983
 10
79.2924545542
 20
134.0197901128
  0
LWPOLYLINE
  5
322
100
AcDbEntity
  8
0
100
AcDbPolyline
 62
7
  6
BYLAYER
 90
7
 70
0
 10
136.6748562563
 20
151.4380001189
 10
130.8120639173
 20
153.4223850759
 10
122.2912634356
 20
152.8805154826
 10
116.6868502411
 20
151.4260605472
 10
102.1650888505
 20
145.608685471
 10
82.3799029025
 20
133.903163523
 10
80.9654541764
 20
133.0539051818
  0
LWPOLYLINE
  5
323
100
AcDbEntity
  8
0
100
AcDbPolyline
 62
7
  6
BYLAYER
 90
7
 70
0
 10
133.2468879283
 20
153.2914687314
 10
127.3280579108
 20
155.2956481491
 10
118.9655118323
 20
154.7958822023
 10
113.6844031366
 20
153.4124661961
 10
99.3038097351
 20
147.6818398724
 10
80.0761746748
 20
136.5787435963
 10
77.5634257286
 20
135.0180227876
  0
LWPOLYLINE
  5
324
100
AcDbEntity
  8
0
100
AcDbPolyline
 62
7
  6
BYLAYER
 90
7
 70
0
 10
138.8993346699
 20
149.9046637957
 10
132.8570921864
 20
152.1490530436
 10
124.4323289252
 20
151.8712597698
 10
119.219116275
 20
150.6193705338
 10
104.4592648269
 20
144.700208445
 10
84.2802053382
 20
133.0704044918
 10
82.6327127289
 20
132.0913347839
  0
LINE
  5
325
100
AcDbEntity
  8
0
100
AcDbLine
 62
7
  6
BYLAYER
 10
132.8036206349
 20
153.5592360659
 11
132.8196982136
 21
153.5499694236
  0
LINE
  5
326
100
AcDbEntity
  8
0
100
AcDbLine
 62
7
  6
BYLAYER
 10
135.0046798185
 20
152.3969025317
 11
135.0137349749
 21
152.3916782951
  0
LINE
  5
327
100
AcDbEntity
  8
0
100
AcDbLine
 62
7
  6
BYLAYER
 10
136.2744920584
 20
151.6792215995
 11
136.2814045563
 21
151.6752337936
  0
LINE
  5
328
100
AcDbEntity
  8
0
100
AcDbLine
 62
7
  6
BYLAYER
 10
137.1144003476
 20
148.3614566852
 11
137.1167787843
 21
148.3600833569
  0
LINE
  5
329
100
AcDbEntity
  8
0
100
AcDbLine
 62
7
  6
BYLAYER
 10
138.2468010515
 20
150.3057199195
 11
138.2592824102
 21
150.2984945421
  0
LINE
  5
32A
100
AcDbEntity
  8
0
100
AcDbLine
 62
7
  6
BYLAYER
 10
135.0046798185
 20
152.3969025317
 11
135.1925809833
 21
152.2863009252
  0
LINE
  5
32B
100
AcDbEntity
  8
0
100
AcDbLine
 62
7
  6
BYLAYER
 10
136.2744920584
 20
151.6792215995
 11
136.6748562563
 21
151.4380001189
  0
LINE
  5
32C
100
AcDbEntity
  8
0
100
AcDbLine
 62
7
  6
BYLAYER
 10
132.8036206349
 20
153.5592360659
 11
133.2468879283
 21
153.2914687314
  0
LINE
  5
32D
100
AcDbEntity
  8
0
100
AcDbLine
 62
7
  6
BYLAYER
 10
138.7925175468
 20
149.9736621662
 11
138.2468010515
 21
150.3057199195
  0
LINE
  5
32E
100
AcDbEntity
  8
0
100
AcDbLine
 62
7
  6
BYLAYER
 10
136.7954264304
 20
151.3611328316
 11
136.2814045563
 21
151.6752337936
  0
LINE
  5
32F
100
AcDbEntity
  8
0
100
AcDbLine
 62
7
  6
BYLAYER
 10
138.2579412444
 20
150.2992717918
 11
138.8993346699
 21
149.9046637957
  0
LWPOLYLINE
  5
330
100
AcDbEntity
  8
0
100
AcDbPolyline
 62
7
  6
BYLAYER
 90
3
 70
0
 10
135.5875089207
 20
151.8060356165
 10
134.1108060226
 20
152.864149602
 10
135.0137349749
 20
152.3916782951
  0
LINE
  5
331
100
AcDbEntity
  8
0
100
AcDbLine
 62
7
  6
BYLAYER
 10
134.033681025
 20
152.6538171061
 11
132.8196982136
 21
153.5499694236
  0
LWPOLYLINE
  5
332
100
AcDbEntity
  8
0
100
AcDbPolyline
 62
7
  6
BYLAYER
 90
17
 70
0
 10
137.1144003476
 20
148.3614566852
 10
139.4066347473
 20
146.6332837906
 10
140.9266874954
 20
144.5231334553
 10
141.5245053233
 20
141.9058603448
 10
141.0146882169
 20
138.6624781882
 10
139.4566261277
 20
134.7563493181
 10
137.1159647949
 20
130.709480247
 10
134.122992382
 20
126.7877994954
 10
132.391403624
 20
124.8943253632
 10
128.487573615
 20
121.2392208972
 10
124.0207979646
 20
117.7341842348
 10
118.9323816151
 20
114.3749319074
 10
113.0976249572
 20
111.1173619085
 10
106.1980776346
 20
108.0608682282
 10
97.0875453505
 20
105.6834445873
 10
86.053284782
 20
103.4950845695
 10
77.7102661325
 20
99.6141794872
  0
LINE
  5
333
100
AcDbEntity
  8
0
100
AcDbLine
 62
7
  6
BYLAYER
 10
141.6593828556
 20
147.5059680155
 11
138.7925175468
 21
149.9736621662
  0
LINE
  5
334
100
AcDbEntity
  8
0
100
AcDbLine
 62
7
  6
BYLAYER
 10
138.1276899728
 20
150.1912909985
 11
136.7954264304
 21
151.3611328316
  0
LWPOLYLINE
  5
335
100
AcDbEntity
  8
0
100
AcDbPolyline
 62
7
  6
BYLAYER
 90
15
 70
0
 10
135.5027462341
 20
149.0541396783
 10
136.876227163
 20
147.6113924265
 10
138.0630556728
 20
144.5351525572
 10
138.0539497709
 20
141.0970433437
 10
136.4924283959
 20
137.0821369535
 10
133.9165357564
 20
132.8876475464
 10
130.6278470795
 20
128.6174355546
 10
128.6996992244
 20
126.5280659656
 10
124.2504144208
 20
122.5045329195
 10
118.9753442797
 20
118.6353449594
 10
112.7120940266
 20
114.7711493365
 10
105.1697312388
 20
111.0786540966
 10
94.4198321086
 20
107.6574475684
 10
83.769255814
 20
105.7982236689
 10
74.4228395777
 20
101.4720784465
  0
LWPOLYLINE
  5
336
100
AcDbEntity
  8
0
100
AcDbPolyline
 62
7
  6
BYLAYER
 90
16
 70
0
 10
136.5613940472
 20
148.5989064757
 10
138.2755211084
 20
146.795638078
 10
139.5581278953
 20
143.8108782787
 10
139.5585107063
 20
140.5977312802
 10
138.317696334
 20
136.7986213041
 10
135.9992733407
 20
132.5339996576
 10
132.8388870414
 20
128.2120948844
 10
128.815527604
 20
123.9308296146
 10
123.8580846011
 20
119.8224497372
 10
117.8138357292
 20
115.8303254429
 10
110.2942459003
 20
111.7282639794
 10
101.048717618
 20
107.6944886841
 10
93.3283572574
 20
106.2677226695
 10
86.8717956198
 20
104.9628854303
 10
81.3824634345
 20
103.4354968951
 10
77.0923536519
 20
101.1309878971
  0
LWPOLYLINE
  5
337
100
AcDbEntity
  8
0
100
AcDbPolyline
 62
7
  6
BYLAYER
 90
20
 70
0
 10
134.2239886765
 20
149.497293932
 10
135.2060425682
 20
148.3133598261
 10
136.2404739805
 20
146.6118482612
 10
136.7827086615
 20
144.8593886136
 10
136.4987941045
 20
142.4825257335
 10
135.4061331647
 20
139.4862353364
 10
133.709660969
 20
136.2084755786
 10
131.5480527516
 20
132.8233411253
 10
128.9059356268
 20
129.4551695943
 10
127.4010038227
 20
127.8083706255
 10
124.023672868
 20
124.6191138246
 10
120.147903894
 20
121.5862356907
 10
115.7367308849
 20
118.6319075284
 10
110.6625901815
 20
115.616911373
 10
104.8593578876
 20
112.7114086346
 10
97.222756515
 20
109.879229024
 10
90.1590030726
 20
108.1857749775
 10
84.2992744973
 20
107.0348704635
 10
79.1045973585
 20
105.5190922085
 10
78.043517725
 20
105.0259880158
  0
ARC
  5
338
100
AcDbEntity
  8
0
100
AcDbCircle
 62
7
  6
BYLAYER
 10
23.7637506471
 20
181.9366334922
 40
100.192542657
100
AcDbArc
 50
299.6617480267
 51
299.9239888509
  0
ARC
  5
339
100
AcDbEntity
  8
0
100
AcDbCircle
 62
7
  6
BYLAYER
 10
131.5135078789
 20
138.6600351879
 40
13.4521080195
100
AcDbArc
 50
59.616697939
 51
59.9029640555
  0
ARC
  5
33A
100
AcDbEntity
  8
0
100
AcDbCircle
 62
7
  6
BYLAYER
 10
130.6945263034
 20
137.2444152562
 40
12.8375778188
100
AcDbArc
 50
52.1407512253
 51
59.9821486055
  0
ARC
  5
33B
100
AcDbEntity
  8
0
100
AcDbCircle
 62
7
  6
BYLAYER
 10
130.360533339
 20
141.3999517737
 40
11.8591018162
100
AcDbArc
 50
60.0869475287
 51
67.0580763807
  0
ARC
  5
33C
100
AcDbEntity
  8
0
100
AcDbCircle
 62
7
  6
BYLAYER
 10
129.1978749925
 20
142.3108231787
 40
11.6382120191
100
AcDbArc
 50
60.0699036436
 51
64.3028621065
  0
ARC
  5
33D
100
AcDbEntity
  8
0
100
AcDbCircle
 62
7
  6
BYLAYER
 10
130.3059511225
 20
141.161029751
 40
9.8378211668
100
AcDbArc
 50
46.6329303587
 51
49.1655280218
  0
ARC
  5
33E
100
AcDbEntity
  8
0
100
AcDbCircle
 62
7
  6
BYLAYER
 10
66.1368403902
 20
100.7932286705
 40
5.6164453635
100
AcDbArc
 50
276.1493120195
 51
277.3184180172
  0
ARC
  5
33F
100
AcDbEntity
  8
0
100
AcDbCircle
 62
7
  6
BYLAYER
 10
28.5118759756
 20
91.3367218508
 40
1.1160973172
100
AcDbArc
 50
180.0144134671
 51
183.2128166643
  0
ARC
  5
340
100
AcDbEntity
  8
0
100
AcDbCircle
 62
7
  6
BYLAYER
 10
34.5576641256
 20
87.8462633997
 40
1.1160973172
100
AcDbArc
 50
180.0144134671
 51
183.2128166643
  0
ARC
  5
341
100
AcDbEntity
  8
0
100
AcDbCircle
 62
7
  6
BYLAYER
 10
43.1848815181
 20
82.8654713892
 40
1.1160973172
100
AcDbArc
 50
180.0144134671
 51
183.2128166643
  0
ARC
  5
342
100
AcDbEntity
  8
0
100
AcDbCircle
 62
7
  6
BYLAYER
 10
50.0715722528
 20
78.8401887246
 40
1.1160973172
100
AcDbArc
 50
180.0144134671
 51
183.2128166643
  0
ARC
  5
343
100
AcDbEntity
  8
0
100
AcDbCircle
 62
7
  6
BYLAYER
 10
73.3377644518
 20
101.6889115593
 40
0.96532557
100
AcDbArc
 50
59.9301273591
 51
66.0080106314
  0
ARC
  5
344
100
AcDbEntity
  8
0
100
AcDbCircle
 62
7
  6
BYLAYER
 10
33.553733959
 20
90.8121306592
 40
0.4580161325
100
AcDbArc
 50
299.9324485823
 51
322.886964959
  0
ARC
  5
345
100
AcDbEntity
  8
0
100
AcDbCircle
 62
7
  6
BYLAYER
 10
39.599522109
 20
87.3216722081
 40
0.4580161325
100
AcDbArc
 50
299.9324485823
 51
322.8869649591
  0
ARC
  5
346
100
AcDbEntity
  8
0
100
AcDbCircle
 62
7
  6
BYLAYER
 10
48.2267395015
 20
82.3408801975
 40
0.4580161325
100
AcDbArc
 50
299.9324485823
 51
322.886964959
  0
ARC
  5
347
100
AcDbEntity
  8
0
100
AcDbCircle
 62
7
  6
BYLAYER
 10
55.1134302362
 20
78.3155975329
 40
0.4580161325
100
AcDbArc
 50
299.9324485823
 51
322.886964959
  0
ARC
  5
348
100
AcDbEntity
  8
0
100
AcDbCircle
 62
7
  6
BYLAYER
 10
38.422034036
 20
96.616934834
 40
0.4240047149
100
AcDbArc
 50
105.2873367252
 51
113.0402764748
  0
ARC
  5
349
100
AcDbEntity
  8
0
100
AcDbCircle
 62
7
  6
BYLAYER
 10
77.2805194401
 20
100.7753764958
 40
0.4023309967
100
AcDbArc
 50
104.9456779242
 51
117.6817578658
  0
ARC
  5
34A
100
AcDbEntity
  8
0
100
AcDbCircle
 62
7
  6
BYLAYER
 10
38.4134127165
 20
96.6378922112
 40
0.4013450027
100
AcDbArc
 50
113.0786305256
 51
119.9694240354
  0
ARC
  5
34B
100
AcDbEntity
  8
0
100
AcDbCircle
 62
7
  6
BYLAYER
 10
39.1657224336
 20
95.4011027791
 40
0.4012758829
100
AcDbArc
 50
302.7626714111
 51
315.0592732772
  0
ARC
  5
34C
100
AcDbEntity
  8
0
100
AcDbCircle
 62
7
  6
BYLAYER
 10
77.8972760701
 20
99.2919281478
 40
0.3725854455
100
AcDbArc
 50
111.7977587361
 51
119.8287771811
  0
SPLINE
  5
34D
100
AcDbEntity
  8
0
100
AcDbSpline
 62
7
  6
BYLAYER
 70
0
 71
3
 72
15
 73
11
 74
0
 42
0.0000001
 43
0.0000001
 44
0.0000000001
 40
0.0
 40
0.0
 40
0.0
 40
0.0
 40
0.1142265121
 40
0.2375280864
 40
0.3672810417
 40
0.5003876008
 40
0.6334402874
 40
0.763035879
 40
0.886089355
 40
1.0
 40
1.0
 40
1.0
 40
1.0
 10
39.0123763908
 20
95.4220958866
 30
0.0
 10
39.0123763908
 20
95.4780016644
 30
0.0
 10
39.002191162
 20
95.5943605953
 30
0.0
 10
38.9616443461
 20
95.769960639
 30
0.0
 10
38.8966604317
 20
95.9479162227
 30
0.0
 10
38.8097161774
 20
96.1215388151
 30
0.0
 10
38.7040301744
 20
96.284341868
 30
0.0
 10
38.5835652277
 20
96.4302692694
 30
0.0
 10
38.4528307688
 20
96.5538074726
 30
0.0
 10
38.3577726109
 20
96.621215347
 30
0.0
 10
38.3096404098
 20
96.6493487019
 30
0.0
  0
SPLINE
  5
34E
100
AcDbEntity
  8
0
100
AcDbSpline
 62
7
  6
BYLAYER
 70
0
 71
3
 72
11
 73
7
 74
0
 42
0.0000001
 43
0.0000001
 44
0.0000000001
 40
0.0
 40
0.0
 40
0.0
 40
0.0
 40
0.2901348874
 40
0.5495116719
 40
0.7825163839
 40
1.0
 40
1.0
 40
1.0
 40
1.0
 10
37.9582724193
 20
96.854723901
 30
0.0
 10
37.9148420418
 20
96.880109032
 30
0.0
 10
37.8284853171
 20
96.9218183107
 30
0.0
 10
37.6956250961
 20
96.9547484562
 30
0.0
 10
37.5708796452
 20
96.9523909583
 30
0.0
 10
37.4956522497
 20
96.9255717739
 30
0.0
 10
37.4628959975
 20
96.9068914535
 30
0.0
  0
SPLINE
  5
34F
100
AcDbEntity
  8
0
100
AcDbSpline
 62
7
  6
BYLAYER
 70
0
 71
3
 72
11
 73
7
 74
0
 42
0.0000001
 43
0.0000001
 44
0.0000000001
 40
0.0
 40
0.0
 40
0.0
 40
0.0
 40
0.2178481203
 40
0.4509836675
 40
0.7102399747
 40
1.0
 40
1.0
 40
1.0
 40
1.0
 10
30.3840864533
 20
88.9529958609
 30
0.0
 10
30.4216974939
 20
88.9747227585
 30
0.0
 10
30.4920959372
 20
89.0338481621
 30
0.0
 10
30.566943465
 20
89.1563468574
 30
0.0
 10
30.6114716617
 20
89.3072456268
 30
0.0
 10
30.6201990404
 20
89.4170895468
 30
0.0
 10
30.6201990404
 20
89.474863242
 30
0.0
  0
SPLINE
  5
350
100
AcDbEntity
  8
0
100
AcDbSpline
 62
7
  6
BYLAYER
 70
0
 71
3
 72
11
 73
7
 74
0
 42
0.0000001
 43
0.0000001
 44
0.0000000001
 40
0.0
 40
0.0
 40
0.0
 40
0.0
 40
0.217774924
 40
0.4509311967
 40
0.710224778
 40
1.0
 40
1.0
 40
1.0
 40
1.0
 10
30.6393698057
 20
88.6006642595
 30
0.0
 10
30.6063851351
 20
88.5816206636
 30
0.0
 10
30.5305942731
 20
88.5541042484
 30
0.0
 10
30.4047195671
 20
88.5509295218
 30
0.0
 10
30.2705462991
 20
88.5833008517
 30
0.0
 10
30.1832658975
 20
88.6248427397
 30
0.0
 10
30.1393757195
 20
88.6501821725
 30
0.0
  0
SPLINE
  5
351
100
AcDbEntity
  8
0
100
AcDbSpline
 62
7
  6
BYLAYER
 70
0
 71
3
 72
11
 73
7
 74
0
 42
0.0000001
 43
0.0000001
 44
0.0000000001
 40
0.0
 40
0.0
 40
0.0
 40
0.0
 40
0.2171398247
 40
0.450002131
 40
0.7095082554
 40
1.0
 40
1.0
 40
1.0
 40
1.0
 10
38.8050168316
 20
94.3926246233
 30
0.0
 10
38.8380344799
 20
94.4114540134
 30
0.0
 10
38.8998891191
 20
94.4630822871
 30
0.0
 10
38.9656436164
 20
94.5704683818
 30
0.0
 10
39.0047198136
 20
94.7030898572
 30
0.0
 10
39.0123763908
 20
94.7996949146
 30
0.0
 10
39.0123763908
 20
94.8505441945
 30
0.0
  0
SPLINE
  5
352
100
AcDbEntity
  8
0
100
AcDbSpline
 62
7
  6
BYLAYER
 70
0
 71
3
 72
10
 73
6
 74
0
 42
0.0000001
 43
0.0000001
 44
0.0000000001
 40
0.0
 40
0.0
 40
0.0
 40
0.0
 40
0.5248964804
 40
0.7712796471
 40
1.0
 40
1.0
 40
1.0
 40
1.0
 10
27.3625870197
 20
90.5091428625
 30
0.0
 10
27.3026325776
 20
90.6170372715
 30
0.0
 10
27.2306649479
 20
90.7858149736
 30
0.0
 10
27.1789902452
 20
91.0156714071
 30
0.0
 10
27.1695035816
 20
91.1275170632
 30
0.0
 10
27.1695035816
 20
91.1813022781
 30
0.0
  0
SPLINE
  5
353
100
AcDbEntity
  8
0
100
AcDbSpline
 62
7
  6
BYLAYER
 70
0
 71
3
 72
11
 73
7
 74
0
 42
0.0000001
 43
0.0000001
 44
0.0000000001
 40
0.0
 40
0.0
 40
0.0
 40
0.0
 40
0.2897761818
 40
0.5490701321
 40
0.782226037
 40
1.0
 40
1.0
 40
1.0
 40
1.0
 10
27.1695035816
 20
91.7528539701
 30
0.0
 10
27.1695035816
 20
91.8035351586
 30
0.0
 10
27.1771667393
 20
91.8998959216
 30
0.0
 10
27.2162188858
 20
92.0322829422
 30
0.0
 10
27.2819065787
 20
92.1397093202
 30
0.0
 10
27.3436333467
 20
92.1915891721
 30
0.0
 10
27.3766186791
 20
92.2106332323
 30
0.0
  0
SPLINE
  5
354
100
AcDbEntity
  8
0
100
AcDbSpline
 62
7
  6
BYLAYER
 70
0
 71
3
 72
11
 73
7
 74
0
 42
0.0000001
 43
0.0000001
 44
0.0000000001
 40
0.0
 40
0.0
 40
0.0
 40
0.0
 40
0.2278912801
 40
0.4748646994
 40
0.7347331769
 40
1.0
 40
1.0
 40
1.0
 40
1.0
 10
30.6201990404
 20
89.474863242
 30
0.0
 10
30.6201990404
 20
89.5444554336
 30
0.0
 10
30.6062698321
 20
89.6896117946
 30
0.0
 10
30.5513668303
 20
89.9078525419
 30
0.0
 10
30.4639590785
 20
90.1275066124
 30
0.0
 10
30.3865268872
 20
90.2684760765
 30
0.0
 10
30.343246419
 20
90.336950374
 30
0.0
  0
SPLINE
  5
355
100
AcDbEntity
  8
0
100
AcDbSpline
 62
7
  6
BYLAYER
 70
0
 71
3
 72
9
 73
5
 74
0
 42
0.0000001
 43
0.0000001
 44
0.0000000001
 40
0.0
 40
0.0
 40
0.0
 40
0.0
 40
0.5248505518
 40
1.0
 40
1.0
 40
1.0
 40
1.0
 10
27.5098971507
 20
90.5942748079
 30
0.0
 10
27.4698355047
 20
90.6768471151
 30
0.0
 10
27.4078018805
 20
90.8415711488
 30
0.0
 10
27.3816382656
 20
91.0165738035
 30
0.0
 10
27.3816382656
 20
91.0996604252
 30
0.0
  0
SPLINE
  5
356
100
AcDbEntity
  8
0
100
AcDbSpline
 62
7
  6
BYLAYER
 70
0
 71
3
 72
11
 73
7
 74
0
 42
0.0000001
 43
0.0000001
 44
0.0000000001
 40
0.0
 40
0.0
 40
0.0
 40
0.0
 40
0.2897576455
 40
0.5490795625
 40
0.7822232697
 40
1.0
 40
1.0
 40
1.0
 40
1.0
 10
27.3816382656
 20
91.0996604252
 30
0.0
 10
27.3816382656
 20
91.1432433386
 30
0.0
 10
27.3882336155
 20
91.2261134998
 30
0.0
 10
27.4218102218
 20
91.3399695359
 30
0.0
 10
27.4783114966
 20
91.4323509815
 30
0.0
 10
27.531387966
 20
91.4769763812
 30
0.0
 10
27.5597577285
 20
91.493350807
 30
0.0
  0
SPLINE
  5
357
100
AcDbEntity
  8
0
100
AcDbSpline
 62
7
  6
BYLAYER
 70
0
 71
3
 72
11
 73
7
 74
0
 42
0.0000001
 43
0.0000001
 44
0.0000000001
 40
0.0
 40
0.0
 40
0.0
 40
0.0
 40
0.2897762172
 40
0.5490701576
 40
0.7822260326
 40
1.0
 40
1.0
 40
1.0
 40
1.0
 10
30.8464854447
 20
89.0584438352
 30
0.0
 10
30.8464854447
 20
89.0077625807
 30
0.0
 10
30.8388222678
 20
88.9114016985
 30
0.0
 10
30.7997700158
 20
88.7790145355
 30
0.0
 10
30.7340821401
 20
88.671588094
 30
0.0
 10
30.6723552132
 20
88.6197082809
 30
0.0
 10
30.6393698057
 20
88.6006642595
 30
0.0
  0
SPLINE
  5
358
100
AcDbEntity
  8
0
100
AcDbSpline
 62
7
  6
BYLAYER
 70
0
 71
3
 72
13
 73
9
 74
0
 42
0.0000001
 43
0.0000001
 44
0.0000000001
 40
0.0
 40
0.0
 40
0.0
 40
0.0
 40
0.2318769753
 40
0.3587079521
 40
0.4896051047
 40
0.6218724781
 40
0.7527566128
 40
1.0
 40
1.0
 40
1.0
 40
1.0
 10
35.5160930249
 20
93.4282703719
 30
0.0
 10
35.5160930249
 20
93.5438719296
 30
0.0
 10
35.4775407066
 20
93.7234013709
 30
0.0
 10
35.3756681023
 20
93.9454761595
 30
0.0
 10
35.2707061545
 20
94.1099675723
 30
0.0
 10
35.143763044
 20
94.2606906905
 30
0.0
 10
34.9557665311
 20
94.4326723611
 30
0.0
 10
34.7915532664
 20
94.5322878563
 30
0.0
 10
34.6769819392
 20
94.5777525564
 30
0.0
  0
SPLINE
  5
359
100
AcDbEntity
  8
0
100
AcDbSpline
 62
7
  6
BYLAYER
 70
0
 71
3
 72
11
 73
7
 74
0
 42
0.0000001
 43
0.0000001
 44
0.0000000001
 40
0.0
 40
0.0
 40
0.0
 40
0.0
 40
0.217775015
 40
0.4509312933
 40
0.7102248231
 40
1.0
 40
1.0
 40
1.0
 40
1.0
 10
27.3766186791
 20
92.2106332323
 30
0.0
 10
27.4096032873
 20
92.2296768744
 30
0.0
 10
27.4853940141
 20
92.2571934227
 30
0.0
 10
27.6112685735
 20
92.260368366
 30
0.0
 10
27.7454417083
 20
92.2279973117
 30
0.0
 10
27.832722088
 20
92.1864556664
 30
0.0
 10
27.8766122053
 20
92.1611162687
 30
0.0
  0
SPLINE
  5
35A
100
AcDbEntity
  8
0
100
AcDbSpline
 62
7
  6
BYLAYER
 70
0
 71
3
 72
11
 73
7
 74
0
 42
0.0000001
 43
0.0000001
 44
0.0000000001
 40
0.0
 40
0.0
 40
0.0
 40
0.0
 40
0.2062783155
 40
0.4360581716
 40
0.6995109031
 40
1.0
 40
1.0
 40
1.0
 40
1.0
 10
30.5747058613
 20
94.0476543854
 30
0.0
 10
30.600430557
 20
94.0541802059
 30
0.0
 10
30.6576480899
 20
94.0578469196
 30
0.0
 10
30.7460070222
 20
94.0362012737
 30
0.0
 10
30.8377630179
 20
93.9899284208
 30
0.0
 10
30.8962888594
 20
93.9465175295
 30
0.0
 10
30.9258307344
 20
93.9215792586
 30
0.0
  0
SPLINE
  5
35B
100
AcDbEntity
  8
0
100
AcDbSpline
 62
7
  6
BYLAYER
 70
0
 71
3
 72
13
 73
9
 74
0
 42
0.0000001
 43
0.0000001
 44
0.0000000001
 40
0.0
 40
0.0
 40
0.0
 40
0.0
 40
0.2317844321
 40
0.3585547365
 40
0.4894081657
 40
0.6216631294
 40
0.7525747912
 40
1.0
 40
1.0
 40
1.0
 40
1.0
 10
34.0284269525
 20
91.4670793473
 30
0.0
 10
34.0284269525
 20
91.5826112948
 30
0.0
 10
33.9898450808
 20
91.7620341343
 30
0.0
 10
33.8878460025
 20
91.9838909753
 30
0.0
 10
33.7827442674
 20
92.1481806557
 30
0.0
 10
33.6556058836
 20
92.298671147
 30
0.0
 10
33.4672704822
 20
92.4703552854
 30
0.0
 10
33.3027691843
 20
92.5696425326
 30
0.0
 10
33.1880343037
 20
92.6148720465
 30
0.0
  0
SPLINE
  5
35C
100
AcDbEntity
  8
0
100
AcDbSpline
 62
7
  6
BYLAYER
 70
0
 71
3
 72
11
 73
7
 74
0
 42
0.0000001
 43
0.0000001
 44
0.0000000001
 40
0.0
 40
0.0
 40
0.0
 40
0.0
 40
0.2059948805
 40
0.4356219245
 40
0.6991508056
 40
1.0
 40
1.0
 40
1.0
 40
1.0
 10
33.9813765575
 20
94.9125653604
 30
0.0
 10
34.0069663782
 20
94.9190569174
 30
0.0
 10
34.0639211391
 20
94.9226497389
 30
0.0
 10
34.1518467785
 20
94.9008811334
 30
0.0
 10
34.2431357619
 20
94.8544794936
 30
0.0
 10
34.301329917
 20
94.8110021061
 30
0.0
 10
34.3307111427
 20
94.7860345324
 30
0.0
  0
SPLINE
  5
35D
100
AcDbEntity
  8
0
100
AcDbSpline
 62
7
  6
BYLAYER
 70
0
 71
3
 72
11
 73
7
 74
0
 42
0.0000001
 43
0.0000001
 44
0.0000000001
 40
0.0
 40
0.0
 40
0.0
 40
0.0
 40
0.2178481203
 40
0.4509836675
 40
0.7102399747
 40
1.0
 40
1.0
 40
1.0
 40
1.0
 10
27.6318912807
 20
91.8583084638
 30
0.0
 10
27.5942802402
 20
91.8365815662
 30
0.0
 10
27.5238817968
 20
91.7774561626
 30
0.0
 10
27.449034269
 20
91.6549574673
 30
0.0
 10
27.4045060723
 20
91.5040586979
 30
0.0
 10
27.3957786937
 20
91.3942147779
 30
0.0
 10
27.3957786937
 20
91.3364410827
 30
0.0
  0
SPLINE
  5
35E
100
AcDbEntity
  8
0
100
AcDbSpline
 62
7
  6
BYLAYER
 70
0
 71
3
 72
10
 73
6
 74
0
 42
0.0000001
 43
0.0000001
 44
0.0000000001
 40
0.0
 40
0.0
 40
0.0
 40
0.0
 40
0.2341341338
 40
0.4773247069
 40
1.0
 40
1.0
 40
1.0
 40
1.0
 10
33.9189774013
 20
90.5357685679
 30
0.0
 10
33.9369884881
 20
90.5595054082
 30
0.0
 10
33.9691443333
 20
90.6115370548
 30
0.0
 10
34.0160070833
 20
90.7303819581
 30
0.0
 10
34.0284269525
 20
90.829010477
 30
0.0
 10
34.0284269525
 20
90.8955276553
 30
0.0
  0
SPLINE
  5
35F
100
AcDbEntity
  8
0
100
AcDbSpline
 62
7
  6
BYLAYER
 70
0
 71
3
 72
10
 73
6
 74
0
 42
0.0000001
 43
0.0000001
 44
0.0000000001
 40
0.0
 40
0.0
 40
0.0
 40
0.0
 40
0.2339706869
 40
0.4771035776
 40
1.0
 40
1.0
 40
1.0
 40
1.0
 10
35.4068122871
 20
92.4971812228
 30
0.0
 10
35.4247983512
 20
92.520884911
 30
0.0
 10
35.4569093437
 20
92.572861999
 30
0.0
 10
35.5037044158
 20
92.6916385571
 30
0.0
 10
35.5160930249
 20
92.7902196994
 30
0.0
 10
35.5160930249
 20
92.8567186799
 30
0.0
  0
SPLINE
  5
360
100
AcDbEntity
  8
0
100
AcDbSpline
 62
7
  6
BYLAYER
 70
0
 71
3
 72
12
 73
8
 74
0
 42
0.0000001
 43
0.0000001
 44
0.0000000001
 40
0.0
 40
0.0
 40
0.0
 40
0.0
 40
0.1056529374
 40
0.2137553664
 40
0.4448244554
 40
0.7057671553
 40
1.0
 40
1.0
 40
1.0
 40
1.0
 10
27.5597577285
 20
91.493350807
 30
0.0
 10
27.5754323552
 20
91.5023978695
 30
0.0
 10
27.6089761886
 20
91.5177146095
 30
0.0
 10
27.6833171197
 20
91.5360720845
 30
0.0
 10
27.7880007664
 20
91.5334990144
 30
0.0
 10
27.9176927966
 20
91.4929579909
 30
0.0
 10
28.0010431418
 20
91.4457886745
 30
0.0
 10
28.0427532882
 20
91.4174941497
 30
0.0
  0
SPLINE
  5
361
100
AcDbEntity
  8
0
100
AcDbSpline
 62
7
  6
BYLAYER
 70
0
 71
3
 72
15
 73
11
 74
0
 42
0.0000001
 43
0.0000001
 44
0.0000000001
 40
0.0
 40
0.0
 40
0.0
 40
0.0
 40
0.1141465952
 40
0.2373352439
 40
0.366975646
 40
0.4999989181
 40
0.6330223406
 40
0.7626631822
 40
0.8858525235
 40
1.0
 40
1.0
 40
1.0
 40
1.0
 10
30.1393757195
 20
90.8547386988
 30
0.0
 10
30.1877795264
 20
90.8267933801
 30
0.0
 10
30.2833922489
 20
90.7597628622
 30
0.0
 10
30.4149581231
 20
90.6366885363
 30
0.0
 10
30.5361880374
 20
90.4911844591
 30
0.0
 10
30.6425444859
 20
90.3287490826
 30
0.0
 10
30.7300403426
 20
90.155424232
 30
0.0
 10
30.7954367615
 20
89.9776837665
 30
0.0
 10
30.8362406528
 20
89.8022065199
 30
0.0
 10
30.8464854447
 20
89.6858875445
 30
0.0
 10
30.8464854447
 20
89.6299955271
 30
0.0
  0
SPLINE
  5
362
100
AcDbEntity
  8
0
100
AcDbSpline
 62
7
  6
BYLAYER
 70
0
 71
3
 72
15
 73
11
 74
0
 42
0.0000001
 43
0.0000001
 44
0.0000000001
 40
0.0
 40
0.0
 40
0.0
 40
0.0
 40
0.1117191492
 40
0.2334611652
 40
0.362631924
 40
0.4960039609
 40
0.6299371513
 40
0.7607431493
 40
0.8850495043
 40
1.0
 40
1.0
 40
1.0
 40
1.0
 10
29.5489621435
 20
90.5479037344
 30
0.0
 10
29.5923515373
 20
90.525948484
 30
0.0
 10
29.6786162269
 20
90.4711355802
 30
0.0
 10
29.797796007
 20
90.366927198
 30
0.0
 10
29.90841735
 20
90.2408594654
 30
0.0
 10
30.0060264436
 20
90.0980608129
 30
0.0
 10
30.086686921
 20
89.9442487217
 30
0.0
 10
30.1471801354
 20
89.7856162499
 30
0.0
 10
30.1850215259
 20
89.628588804
 30
0.0
 10
30.1945714887
 20
89.5243477892
 30
0.0
 10
30.1945714887
 20
89.4743133852
 30
0.0
  0
SPLINE
  5
363
100
AcDbEntity
  8
0
100
AcDbSpline
 62
7
  6
BYLAYER
 70
0
 71
3
 72
11
 73
7
 74
0
 42
0.0000001
 43
0.0000001
 44
0.0000000001
 40
0.0
 40
0.0
 40
0.0
 40
0.0
 40
0.2897826502
 40
0.5490742218
 40
0.7822424291
 40
1.0
 40
1.0
 40
1.0
 40
1.0
 10
30.1945714887
 20
89.4743133852
 30
0.0
 10
30.1945714887
 20
89.4307264649
 30
0.0
 10
30.1879809292
 20
89.347855624
 30
0.0
 10
30.1543961277
 20
89.2339989547
 30
0.0
 10
30.0978988328
 20
89.141617613
 30
0.0
 10
30.0448196507
 20
89.096995698
 30
0.0
 10
30.0164549099
 20
89.0806179679
 30
0.0
  0
SPLINE
  5
364
100
AcDbEntity
  8
0
100
AcDbSpline
 62
7
  6
BYLAYER
 70
0
 71
3
 72
15
 73
11
 74
0
 42
0.0000001
 43
0.0000001
 44
0.0000000001
 40
0.0
 40
0.0
 40
0.0
 40
0.0
 40
0.1142265121
 40
0.2375280864
 40
0.3672810417
 40
0.5003876008
 40
0.6334402874
 40
0.763035879
 40
0.886089355
 40
1.0
 40
1.0
 40
1.0
 40
1.0
 10
45.0581645408
 20
91.9316374354
 30
0.0
 10
45.0581645408
 20
91.9875432133
 30
0.0
 10
45.047979312
 20
92.1039021441
 30
0.0
 10
45.0074324961
 20
92.2795021879
 30
0.0
 10
44.9424485817
 20
92.4574577716
 30
0.0
 10
44.8555043274
 20
92.631080364
 30
0.0
 10
44.7498183244
 20
92.7938834168
 30
0.0
 10
44.6293533777
 20
92.9398108183
 30
0.0
 10
44.4986189189
 20
93.0633490215
 30
0.0
 10
44.4035607609
 20
93.1307568959
 30
0.0
 10
44.3554285598
 20
93.1588902508
 30
0.0
  0
SPLINE
  5
365
100
AcDbEntity
  8
0
100
AcDbSpline
 62
7
  6
BYLAYER
 70
0
 71
3
 72
11
 73
7
 74
0
 42
0.0000001
 43
0.0000001
 44
0.0000000001
 40
0.0
 40
0.0
 40
0.0
 40
0.0
 40
0.2901348874
 40
0.5495116719
 40
0.7825163839
 40
1.0
 40
1.0
 40
1.0
 40
1.0
 10
44.0040605693
 20
93.3642654499
 30
0.0
 10
43.9606301918
 20
93.3896505808
 30
0.0
 10
43.8742734671
 20
93.4313598596
 30
0.0
 10
43.7414132462
 20
93.4642900051
 30
0.0
 10
43.6166677952
 20
93.4619325072
 30
0.0
 10
43.5414403997
 20
93.4351133228
 30
0.0
 10
43.5086841475
 20
93.4164330023
 30
0.0
  0
SPLINE
  5
366
100
AcDbEntity
  8
0
100
AcDbSpline
 62
7
  6
BYLAYER
 70
0
 71
3
 72
11
 73
7
 74
0
 42
0.0000001
 43
0.0000001
 44
0.0000000001
 40
0.0
 40
0.0
 40
0.0
 40
0.0
 40
0.2178481203
 40
0.4509836675
 40
0.7102399747
 40
1.0
 40
1.0
 40
1.0
 40
1.0
 10
36.4298746033
 20
85.4625374098
 30
0.0
 10
36.4674856439
 20
85.4842643074
 30
0.0
 10
36.5378840872
 20
85.5433897109
 30
0.0
 10
36.612731615
 20
85.6658884063
 30
0.0
 10
36.6572598118
 20
85.8167871757
 30
0.0
 10
36.6659871904
 20
85.9266310957
 30
0.0
 10
36.6659871904
 20
85.9844047909
 30
0.0
  0
SPLINE
  5
367
100
AcDbEntity
  8
0
100
AcDbSpline
 62
7
  6
BYLAYER
 70
0
 71
3
 72
11
 73
7
 74
0
 42
0.0000001
 43
0.0000001
 44
0.0000000001
 40
0.0
 40
0.0
 40
0.0
 40
0.0
 40
0.217774924
 40
0.4509311967
 40
0.710224778
 40
1.0
 40
1.0
 40
1.0
 40
1.0
 10
36.6851579557
 20
85.1102058084
 30
0.0
 10
36.6521732851
 20
85.0911622124
 30
0.0
 10
36.5763824231
 20
85.0636457973
 30
0.0
 10
36.4505077171
 20
85.0604710707
 30
0.0
 10
36.3163344491
 20
85.0928424006
 30
0.0
 10
36.2290540475
 20
85.1343842886
 30
0.0
 10
36.1851638695
 20
85.1597237214
 30
0.0
  0
SPLINE
  5
368
100
AcDbEntity
  8
0
100
AcDbSpline
 62
7
  6
BYLAYER
 70
0
 71
3
 72
11
 73
7
 74
0
 42
0.0000001
 43
0.0000001
 44
0.0000000001
 40
0.0
 40
0.0
 40
0.0
 40
0.0
 40
0.2171398247
 40
0.450002131
 40
0.7095082554
 40
1.0
 40
1.0
 40
1.0
 40
1.0
 10
44.8508049816
 20
90.9021661721
 30
0.0
 10
44.8838226299
 20
90.9209955622
 30
0.0
 10
44.9456772691
 20
90.972623836
 30
0.0
 10
45.0114317664
 20
91.0800099306
 30
0.0
 10
45.0505079636
 20
91.212631406
 30
0.0
 10
45.0581645408
 20
91.3092364635
 30
0.0
 10
45.0581645408
 20
91.3600857433
 30
0.0
  0
SPLINE
  5
369
100
AcDbEntity
  8
0
100
AcDbSpline
 62
7
  6
BYLAYER
 70
0
 71
3
 72
10
 73
6
 74
0
 42
0.0000001
 43
0.0000001
 44
0.0000000001
 40
0.0
 40
0.0
 40
0.0
 40
0.0
 40
0.5248964804
 40
0.7712796471
 40
1.0
 40
1.0
 40
1.0
 40
1.0
 10
33.4083751697
 20
87.0186844114
 30
0.0
 10
33.3484207276
 20
87.1265788203
 30
0.0
 10
33.2764530979
 20
87.2953565225
 30
0.0
 10
33.2247783952
 20
87.5252129559
 30
0.0
 10
33.2152917316
 20
87.6370586121
 30
0.0
 10
33.2152917316
 20
87.690843827
 30
0.0
  0
SPLINE
  5
36A
100
AcDbEntity
  8
0
100
AcDbSpline
 62
7
  6
BYLAYER
 70
0
 71
3
 72
11
 73
7
 74
0
 42
0.0000001
 43
0.0000001
 44
0.0000000001
 40
0.0
 40
0.0
 40
0.0
 40
0.0
 40
0.2897761818
 40
0.5490701321
 40
0.782226037
 40
1.0
 40
1.0
 40
1.0
 40
1.0
 10
33.2152917316
 20
88.2623955189
 30
0.0
 10
33.2152917316
 20
88.3130767075
 30
0.0
 10
33.2229548893
 20
88.4094374705
 30
0.0
 10
33.2620070358
 20
88.541824491
 30
0.0
 10
33.3276947287
 20
88.6492508691
 30
0.0
 10
33.3894214967
 20
88.7011307209
 30
0.0
 10
33.4224068291
 20
88.7201747811
 30
0.0
  0
SPLINE
  5
36B
100
AcDbEntity
  8
0
100
AcDbSpline
 62
7
  6
BYLAYER
 70
0
 71
3
 72
11
 73
7
 74
0
 42
0.0000001
 43
0.0000001
 44
0.0000000001
 40
0.0
 40
0.0
 40
0.0
 40
0.0
 40
0.2278912801
 40
0.4748646994
 40
0.7347331769
 40
1.0
 40
1.0
 40
1.0
 40
1.0
 10
36.6659871904
 20
85.9844047909
 30
0.0
 10
36.6659871904
 20
86.0539969825
 30
0.0
 10
36.6520579821
 20
86.1991533435
 30
0.0
 10
36.5971549803
 20
86.4173940907
 30
0.0
 10
36.5097472285
 20
86.6370481612
 30
0.0
 10
36.4323150372
 20
86.7780176254
 30
0.0
 10
36.389034569
 20
86.8464919228
 30
0.0
  0
SPLINE
  5
36C
100
AcDbEntity
  8
0
100
AcDbSpline
 62
7
  6
BYLAYER
 70
0
 71
3
 72
9
 73
5
 74
0
 42
0.0000001
 43
0.0000001
 44
0.0000000001
 40
0.0
 40
0.0
 40
0.0
 40
0.0
 40
0.5248505518
 40
1.0
 40
1.0
 40
1.0
 40
1.0
 10
33.5556853007
 20
87.1038163567
 30
0.0
 10
33.5156236547
 20
87.186388664
 30
0.0
 10
33.4535900305
 20
87.3511126977
 30
0.0
 10
33.4274264156
 20
87.5261153523
 30
0.0
 10
33.4274264156
 20
87.6092019741
 30
0.0
  0
SPLINE
  5
36D
100
AcDbEntity
  8
0
100
AcDbSpline
 62
7
  6
BYLAYER
 70
0
 71
3
 72
11
 73
7
 74
0
 42
0.0000001
 43
0.0000001
 44
0.0000000001
 40
0.0
 40
0.0
 40
0.0
 40
0.0
 40
0.2897576455
 40
0.5490795625
 40
0.7822232697
 40
1.0
 40
1.0
 40
1.0
 40
1.0
 10
33.4274264156
 20
87.6092019741
 30
0.0
 10
33.4274264156
 20
87.6527848875
 30
0.0
 10
33.4340217655
 20
87.7356550486
 30
0.0
 10
33.4675983718
 20
87.8495110847
 30
0.0
 10
33.5240996467
 20
87.9418925303
 30
0.0
 10
33.577176116
 20
87.98651793
 30
0.0
 10
33.6055458785
 20
88.0028923559
 30
0.0
  0
SPLINE
  5
36E
100
AcDbEntity
  8
0
100
AcDbSpline
 62
7
  6
BYLAYER
 70
0
 71
3
 72
11
 73
7
 74
0
 42
0.0000001
 43
0.0000001
 44
0.0000000001
 40
0.0
 40
0.0
 40
0.0
 40
0.0
 40
0.2897762172
 40
0.5490701576
 40
0.7822260326
 40
1.0
 40
1.0
 40
1.0
 40
1.0
 10
36.8922735947
 20
85.567985384
 30
0.0
 10
36.8922735947
 20
85.5173041295
 30
0.0
 10
36.8846104178
 20
85.4209432474
 30
0.0
 10
36.8455581658
 20
85.2885560843
 30
0.0
 10
36.7798702901
 20
85.1811296428
 30
0.0
 10
36.7181433632
 20
85.1292498298
 30
0.0
 10
36.6851579557
 20
85.1102058084
 30
0.0
  0
SPLINE
  5
36F
100
AcDbEntity
  8
0
100
AcDbSpline
 62
7
  6
BYLAYER
 70
0
 71
3
 72
13
 73
9
 74
0
 42
0.0000001
 43
0.0000001
 44
0.0000000001
 40
0.0
 40
0.0
 40
0.0
 40
0.0
 40
0.2318769753
 40
0.3587079521
 40
0.4896051047
 40
0.6218724781
 40
0.7527566128
 40
1.0
 40
1.0
 40
1.0
 40
1.0
 10
41.5618811749
 20
89.9378119208
 30
0.0
 10
41.5618811749
 20
90.0534134784
 30
0.0
 10
41.5233288566
 20
90.2329429198
 30
0.0
 10
41.4214562523
 20
90.4550177084
 30
0.0
 10
41.3164943045
 20
90.6195091211
 30
0.0
 10
41.189551194
 20
90.7702322394
 30
0.0
 10
41.0015546811
 20
90.94221391
 30
0.0
 10
40.8373414164
 20
91.0418294051
 30
0.0
 10
40.7227700892
 20
91.0872941053
 30
0.0
  0
SPLINE
  5
370
100
AcDbEntity
  8
0
100
AcDbSpline
 62
7
  6
BYLAYER
 70
0
 71
3
 72
11
 73
7
 74
0
 42
0.0000001
 43
0.0000001
 44
0.0000000001
 40
0.0
 40
0.0
 40
0.0
 40
0.0
 40
0.217775015
 40
0.4509312933
 40
0.7102248231
 40
1.0
 40
1.0
 40
1.0
 40
1.0
 10
33.4224068291
 20
88.7201747811
 30
0.0
 10
33.4553914374
 20
88.7392184232
 30
0.0
 10
33.5311821641
 20
88.7667349716
 30
0.0
 10
33.6570567235
 20
88.7699099149
 30
0.0
 10
33.7912298583
 20
88.7375388605
 30
0.0
 10
33.878510238
 20
88.6959972153
 30
0.0
 10
33.9224003553
 20
88.6706578175
 30
0.0
  0
SPLINE
  5
371
100
AcDbEntity
  8
0
100
AcDbSpline
 62
7
  6
BYLAYER
 70
0
 71
3
 72
11
 73
7
 74
0
 42
0.0000001
 43
0.0000001
 44
0.0000000001
 40
0.0
 40
0.0
 40
0.0
 40
0.0
 40
0.2062783155
 40
0.4360581716
 40
0.6995109031
 40
1.0
 40
1.0
 40
1.0
 40
1.0
 10
36.6204940113
 20
90.5571959343
 30
0.0
 10
36.646218707
 20
90.5637217548
 30
0.0
 10
36.7034362399
 20
90.5673884685
 30
0.0
 10
36.7917951722
 20
90.5457428226
 30
0.0
 10
36.8835511679
 20
90.4994699696
 30
0.0
 10
36.9420770095
 20
90.4560590783
 30
0.0
 10
36.9716188844
 20
90.4311208075
 30
0.0
  0
SPLINE
  5
372
100
AcDbEntity
  8
0
100
AcDbSpline
 62
7
  6
BYLAYER
 70
0
 71
3
 72
13
 73
9
 74
0
 42
0.0000001
 43
0.0000001
 44
0.0000000001
 40
0.0
 40
0.0
 40
0.0
 40
0.0
 40
0.2317844321
 40
0.3585547365
 40
0.4894081657
 40
0.6216631294
 40
0.7525747912
 40
1.0
 40
1.0
 40
1.0
 40
1.0
 10
40.0742151025
 20
87.9766208962
 30
0.0
 10
40.0742151025
 20
88.0921528436
 30
0.0
 10
40.0356332308
 20
88.2715756832
 30
0.0
 10
39.9336341525
 20
88.4934325242
 30
0.0
 10
39.8285324175
 20
88.6577222045
 30
0.0
 10
39.7013940336
 20
88.8082126958
 30
0.0
 10
39.5130586322
 20
88.9798968343
 30
0.0
 10
39.3485573343
 20
89.0791840815
 30
0.0
 10
39.2338224537
 20
89.1244135953
 30
0.0
  0
SPLINE
  5
373
100
AcDbEntity
  8
0
100
AcDbSpline
 62
7
  6
BYLAYER
 70
0
 71
3
 72
11
 73
7
 74
0
 42
0.0000001
 43
0.0000001
 44
0.0000000001
 40
0.0
 40
0.0
 40
0.0
 40
0.0
 40
0.2059948805
 40
0.4356219245
 40
0.6991508056
 40
1.0
 40
1.0
 40
1.0
 40
1.0
 10
40.0271647075
 20
91.4221069092
 30
0.0
 10
40.0527545282
 20
91.4285984663
 30
0.0
 10
40.1097092891
 20
91.4321912878
 30
0.0
 10
40.1976349285
 20
91.4104226823
 30
0.0
 10
40.2889239119
 20
91.3640210424
 30
0.0
 10
40.347118067
 20
91.3205436549
 30
0.0
 10
40.3764992927
 20
91.2955760812
 30
0.0
  0
SPLINE
  5
374
100
AcDbEntity
  8
0
100
AcDbSpline
 62
7
  6
BYLAYER
 70
0
 71
3
 72
11
 73
7
 74
0
 42
0.0000001
 43
0.0000001
 44
0.0000000001
 40
0.0
 40
0.0
 40
0.0
 40
0.0
 40
0.2178481203
 40
0.4509836675
 40
0.7102399747
 40
1.0
 40
1.0
 40
1.0
 40
1.0
 10
33.6776794307
 20
88.3678500126
 30
0.0
 10
33.6400683902
 20
88.346123115
 30
0.0
 10
33.5696699468
 20
88.2869977115
 30
0.0
 10
33.494822419
 20
88.1644990161
 30
0.0
 10
33.4502942223
 20
88.0136002467
 30
0.0
 10
33.4415668437
 20
87.9037563267
 30
0.0
 10
33.4415668437
 20
87.8459826315
 30
0.0
  0
SPLINE
  5
375
100
AcDbEntity
  8
0
100
AcDbSpline
 62
7
  6
BYLAYER
 70
0
 71
3
 72
10
 73
6
 74
0
 42
0.0000001
 43
0.0000001
 44
0.0000000001
 40
0.0
 40
0.0
 40
0.0
 40
0.0
 40
0.2341341338
 40
0.4773247069
 40
1.0
 40
1.0
 40
1.0
 40
1.0
 10
39.9647655513
 20
87.0453101168
 30
0.0
 10
39.9827766381
 20
87.0690469571
 30
0.0
 10
40.0149324833
 20
87.1210786037
 30
0.0
 10
40.0617952333
 20
87.2399235069
 30
0.0
 10
40.0742151025
 20
87.3385520259
 30
0.0
 10
40.0742151025
 20
87.4050692042
 30
0.0
  0
SPLINE
  5
376
100
AcDbEntity
  8
0
100
AcDbSpline
 62
7
  6
BYLAYER
 70
0
 71
3
 72
10
 73
6
 74
0
 42
0.0000001
 43
0.0000001
 44
0.0000000001
 40
0.0
 40
0.0
 40
0.0
 40
0.0
 40
0.2339706869
 40
0.4771035776
 40
1.0
 40
1.0
 40
1.0
 40
1.0
 10
41.4526004371
 20
89.0067227716
 30
0.0
 10
41.4705865013
 20
89.0304264598
 30
0.0
 10
41.5026974937
 20
89.0824035479
 30
0.0
 10
41.5494925658
 20
89.201180106
 30
0.0
 10
41.5618811749
 20
89.2997612482
 30
0.0
 10
41.5618811749
 20
89.3662602288
 30
0.0
  0
SPLINE
  5
377
100
AcDbEntity
  8
0
100
AcDbSpline
 62
7
  6
BYLAYER
 70
0
 71
3
 72
12
 73
8
 74
0
 42
0.0000001
 43
0.0000001
 44
0.0000000001
 40
0.0
 40
0.0
 40
0.0
 40
0.0
 40
0.1056529374
 40
0.2137553664
 40
0.4448244554
 40
0.7057671553
 40
1.0
 40
1.0
 40
1.0
 40
1.0
 10
33.6055458785
 20
88.0028923559
 30
0.0
 10
33.6212205052
 20
88.0119394183
 30
0.0
 10
33.6547643386
 20
88.0272561584
 30
0.0
 10
33.7291052697
 20
88.0456136334
 30
0.0
 10
33.8337889164
 20
88.0430405632
 30
0.0
 10
33.9634809466
 20
88.0024995398
 30
0.0
 10
34.0468312918
 20
87.9553302234
 30
0.0
 10
34.0885414382
 20
87.9270356986
 30
0.0
  0
SPLINE
  5
378
100
AcDbEntity
  8
0
100
AcDbSpline
 62
7
  6
BYLAYER
 70
0
 71
3
 72
15
 73
11
 74
0
 42
0.0000001
 43
0.0000001
 44
0.0000000001
 40
0.0
 40
0.0
 40
0.0
 40
0.0
 40
0.1141465952
 40
0.2373352439
 40
0.366975646
 40
0.4999989181
 40
0.6330223406
 40
0.7626631822
 40
0.8858525235
 40
1.0
 40
1.0
 40
1.0
 40
1.0
 10
36.1851638695
 20
87.3642802477
 30
0.0
 10
36.2335676764
 20
87.3363349289
 30
0.0
 10
36.3291803989
 20
87.2693044111
 30
0.0
 10
36.4607462731
 20
87.1462300852
 30
0.0
 10
36.5819761874
 20
87.0007260079
 30
0.0
 10
36.6883326359
 20
86.8382906314
 30
0.0
 10
36.7758284926
 20
86.6649657809
 30
0.0
 10
36.8412249115
 20
86.4872253154
 30
0.0
 10
36.8820288028
 20
86.3117480687
 30
0.0
 10
36.8922735947
 20
86.1954290933
 30
0.0
 10
36.8922735947
 20
86.139537076
 30
0.0
  0
SPLINE
  5
379
100
AcDbEntity
  8
0
100
AcDbSpline
 62
7
  6
BYLAYER
 70
0
 71
3
 72
15
 73
11
 74
0
 42
0.0000001
 43
0.0000001
 44
0.0000000001
 40
0.0
 40
0.0
 40
0.0
 40
0.0
 40
0.1117191492
 40
0.2334611652
 40
0.362631924
 40
0.4960039609
 40
0.6299371513
 40
0.7607431493
 40
0.8850495043
 40
1.0
 40
1.0
 40
1.0
 40
1.0
 10
35.5947502935
 20
87.0574452833
 30
0.0
 10
35.6381396873
 20
87.0354900329
 30
0.0
 10
35.7244043769
 20
86.9806771291
 30
0.0
 10
35.843584157
 20
86.8764687468
 30
0.0
 10
35.9542055
 20
86.7504010142
 30
0.0
 10
36.0518145936
 20
86.6076023617
 30
0.0
 10
36.132475071
 20
86.4537902705
 30
0.0
 10
36.1929682854
 20
86.2951577987
 30
0.0
 10
36.230809676
 20
86.1381303529
 30
0.0
 10
36.2403596387
 20
86.033889338
 30
0.0
 10
36.2403596387
 20
85.9838549341
 30
0.0
  0
SPLINE
  5
37A
100
AcDbEntity
  8
0
100
AcDbSpline
 62
7
  6
BYLAYER
 70
0
 71
3
 72
11
 73
7
 74
0
 42
0.0000001
 43
0.0000001
 44
0.0000000001
 40
0.0
 40
0.0
 40
0.0
 40
0.0
 40
0.2897826502
 40
0.5490742218
 40
0.7822424291
 40
1.0
 40
1.0
 40
1.0
 40
1.0
 10
36.2403596387
 20
85.9838549341
 30
0.0
 10
36.2403596387
 20
85.9402680138
 30
0.0
 10
36.2337690792
 20
85.8573971729
 30
0.0
 10
36.2001842777
 20
85.7435405035
 30
0.0
 10
36.1436869828
 20
85.6511591619
 30
0.0
 10
36.0906078007
 20
85.6065372468
 30
0.0
 10
36.0622430599
 20
85.5901595167
 30
0.0
  0
SPLINE
  5
37B
100
AcDbEntity
  8
0
100
AcDbSpline
 62
7
  6
BYLAYER
 70
0
 71
3
 72
15
 73
11
 74
0
 42
0.0000001
 43
0.0000001
 44
0.0000000001
 40
0.0
 40
0.0
 40
0.0
 40
0.0
 40
0.1142265121
 40
0.2375280864
 40
0.3672810417
 40
0.5003876008
 40
0.6334402874
 40
0.763035879
 40
0.886089355
 40
1.0
 40
1.0
 40
1.0
 40
1.0
 10
53.6853819333
 20
86.9508454249
 30
0.0
 10
53.6853819333
 20
87.0067512028
 30
0.0
 10
53.6751967045
 20
87.1231101336
 30
0.0
 10
53.6346498886
 20
87.2987101774
 30
0.0
 10
53.5696659741
 20
87.476665761
 30
0.0
 10
53.4827217199
 20
87.6502883534
 30
0.0
 10
53.3770357169
 20
87.8130914063
 30
0.0
 10
53.2565707701
 20
87.9590188077
 30
0.0
 10
53.1258363113
 20
88.082557011
 30
0.0
 10
53.0307781534
 20
88.1499648853
 30
0.0
 10
52.9826459523
 20
88.1780982403
 30
0.0
  0
SPLINE
  5
37C
100
AcDbEntity
  8
0
100
AcDbSpline
 62
7
  6
BYLAYER
 70
0
 71
3
 72
11
 73
7
 74
0
 42
0.0000001
 43
0.0000001
 44
0.0000000001
 40
0.0
 40
0.0
 40
0.0
 40
0.0
 40
0.2901348874
 40
0.5495116719
 40
0.7825163839
 40
1.0
 40
1.0
 40
1.0
 40
1.0
 10
52.6312779618
 20
88.3834734394
 30
0.0
 10
52.5878475843
 20
88.4088585703
 30
0.0
 10
52.5014908596
 20
88.4505678491
 30
0.0
 10
52.3686306386
 20
88.4834979945
 30
0.0
 10
52.2438851876
 20
88.4811404966
 30
0.0
 10
52.1686577922
 20
88.4543213123
 30
0.0
 10
52.13590154
 20
88.4356409918
 30
0.0
  0
SPLINE
  5
37D
100
AcDbEntity
  8
0
100
AcDbSpline
 62
7
  6
BYLAYER
 70
0
 71
3
 72
11
 73
7
 74
0
 42
0.0000001
 43
0.0000001
 44
0.0000000001
 40
0.0
 40
0.0
 40
0.0
 40
0.0
 40
0.2178481203
 40
0.4509836675
 40
0.7102399747
 40
1.0
 40
1.0
 40
1.0
 40
1.0
 10
45.0570919958
 20
80.4817453992
 30
0.0
 10
45.0947030364
 20
80.5034722969
 30
0.0
 10
45.1651014797
 20
80.5625977004
 30
0.0
 10
45.2399490075
 20
80.6850963957
 30
0.0
 10
45.2844772042
 20
80.8359951652
 30
0.0
 10
45.2932045828
 20
80.9458390852
 30
0.0
 10
45.2932045828
 20
81.0036127804
 30
0.0
  0
SPLINE
  5
37E
100
AcDbEntity
  8
0
100
AcDbSpline
 62
7
  6
BYLAYER
 70
0
 71
3
 72
11
 73
7
 74
0
 42
0.0000001
 43
0.0000001
 44
0.0000000001
 40
0.0
 40
0.0
 40
0.0
 40
0.0
 40
0.217774924
 40
0.4509311967
 40
0.710224778
 40
1.0
 40
1.0
 40
1.0
 40
1.0
 10
45.3123753482
 20
80.1294137978
 30
0.0
 10
45.2793906776
 20
80.1103702019
 30
0.0
 10
45.2035998155
 20
80.0828537868
 30
0.0
 10
45.0777251095
 20
80.0796790601
 30
0.0
 10
44.9435518416
 20
80.1120503901
 30
0.0
 10
44.85627144
 20
80.153592278
 30
0.0
 10
44.812381262
 20
80.1789317109
 30
0.0
  0
SPLINE
  5
37F
100
AcDbEntity
  8
0
100
AcDbSpline
 62
7
  6
BYLAYER
 70
0
 71
3
 72
11
 73
7
 74
0
 42
0.0000001
 43
0.0000001
 44
0.0000000001
 40
0.0
 40
0.0
 40
0.0
 40
0.0
 40
0.2171398247
 40
0.450002131
 40
0.7095082554
 40
1.0
 40
1.0
 40
1.0
 40
1.0
 10
53.4780223741
 20
85.9213741616
 30
0.0
 10
53.5110400224
 20
85.9402035517
 30
0.0
 10
53.5728946616
 20
85.9918318255
 30
0.0
 10
53.6386491588
 20
86.0992179201
 30
0.0
 10
53.6777253561
 20
86.2318393955
 30
0.0
 10
53.6853819333
 20
86.328444453
 30
0.0
 10
53.6853819333
 20
86.3792937328
 30
0.0
  0
SPLINE
  5
380
100
AcDbEntity
  8
0
100
AcDbSpline
 62
7
  6
BYLAYER
 70
0
 71
3
 72
10
 73
6
 74
0
 42
0.0000001
 43
0.0000001
 44
0.0000000001
 40
0.0
 40
0.0
 40
0.0
 40
0.0
 40
0.5248964804
 40
0.7712796471
 40
1.0
 40
1.0
 40
1.0
 40
1.0
 10
42.0355925622
 20
82.0378924009
 30
0.0
 10
41.9756381201
 20
82.1457868098
 30
0.0
 10
41.9036704904
 20
82.314564512
 30
0.0
 10
41.8519957877
 20
82.5444209454
 30
0.0
 10
41.8425091241
 20
82.6562666015
 30
0.0
 10
41.8425091241
 20
82.7100518165
 30
0.0
  0
SPLINE
  5
381
100
AcDbEntity
  8
0
100
AcDbSpline
 62
7
  6
BYLAYER
 70
0
 71
3
 72
11
 73
7
 74
0
 42
0.0000001
 43
0.0000001
 44
0.0000000001
 40
0.0
 40
0.0
 40
0.0
 40
0.0
 40
0.2897761818
 40
0.5490701321
 40
0.782226037
 40
1.0
 40
1.0
 40
1.0
 40
1.0
 10
41.8425091241
 20
83.2816035084
 30
0.0
 10
41.8425091241
 20
83.332284697
 30
0.0
 10
41.8501722818
 20
83.42864546
 30
0.0
 10
41.8892244283
 20
83.5610324805
 30
0.0
 10
41.9549121212
 20
83.6684588585
 30
0.0
 10
42.0166388892
 20
83.7203387104
 30
0.0
 10
42.0496242216
 20
83.7393827706
 30
0.0
  0
SPLINE
  5
382
100
AcDbEntity
  8
0
100
AcDbSpline
 62
7
  6
BYLAYER
 70
0
 71
3
 72
11
 73
7
 74
0
 42
0.0000001
 43
0.0000001
 44
0.0000000001
 40
0.0
 40
0.0
 40
0.0
 40
0.0
 40
0.2278912801
 40
0.4748646994
 40
0.7347331769
 40
1.0
 40
1.0
 40
1.0
 40
1.0
 10
45.2932045828
 20
81.0036127804
 30
0.0
 10
45.2932045828
 20
81.073204972
 30
0.0
 10
45.2792753746
 20
81.218361333
 30
0.0
 10
45.2243723728
 20
81.4366020802
 30
0.0
 10
45.136964621
 20
81.6562561507
 30
0.0
 10
45.0595324297
 20
81.7972256149
 30
0.0
 10
45.0162519614
 20
81.8656999123
 30
0.0
  0
SPLINE
  5
383
100
AcDbEntity
  8
0
100
AcDbSpline
 62
7
  6
BYLAYER
 70
0
 71
3
 72
9
 73
5
 74
0
 42
0.0000001
 43
0.0000001
 44
0.0000000001
 40
0.0
 40
0.0
 40
0.0
 40
0.0
 40
0.5248505518
 40
1.0
 40
1.0
 40
1.0
 40
1.0
 10
42.1829026931
 20
82.1230243462
 30
0.0
 10
42.1428410472
 20
82.2055966535
 30
0.0
 10
42.080807423
 20
82.3703206871
 30
0.0
 10
42.054643808
 20
82.5453233418
 30
0.0
 10
42.054643808
 20
82.6284099636
 30
0.0
  0
SPLINE
  5
384
100
AcDbEntity
  8
0
100
AcDbSpline
 62
7
  6
BYLAYER
 70
0
 71
3
 72
11
 73
7
 74
0
 42
0.0000001
 43
0.0000001
 44
0.0000000001
 40
0.0
 40
0.0
 40
0.0
 40
0.0
 40
0.2897576455
 40
0.5490795625
 40
0.7822232697
 40
1.0
 40
1.0
 40
1.0
 40
1.0
 10
42.054643808
 20
82.6284099636
 30
0.0
 10
42.054643808
 20
82.671992877
 30
0.0
 10
42.061239158
 20
82.7548630381
 30
0.0
 10
42.0948157643
 20
82.8687190742
 30
0.0
 10
42.1513170391
 20
82.9611005198
 30
0.0
 10
42.2043935085
 20
83.0057259195
 30
0.0
 10
42.232763271
 20
83.0221003453
 30
0.0
  0
SPLINE
  5
385
100
AcDbEntity
  8
0
100
AcDbSpline
 62
7
  6
BYLAYER
 70
0
 71
3
 72
11
 73
7
 74
0
 42
0.0000001
 43
0.0000001
 44
0.0000000001
 40
0.0
 40
0.0
 40
0.0
 40
0.0
 40
0.2897762172
 40
0.5490701576
 40
0.7822260326
 40
1.0
 40
1.0
 40
1.0
 40
1.0
 10
45.5194909871
 20
80.5871933735
 30
0.0
 10
45.5194909871
 20
80.536512119
 30
0.0
 10
45.5118278103
 20
80.4401512368
 30
0.0
 10
45.4727755583
 20
80.3077640738
 30
0.0
 10
45.4070876825
 20
80.2003376323
 30
0.0
 10
45.3453607557
 20
80.1484578192
 30
0.0
 10
45.3123753482
 20
80.1294137978
 30
0.0
  0
SPLINE
  5
386
100
AcDbEntity
  8
0
100
AcDbSpline
 62
7
  6
BYLAYER
 70
0
 71
3
 72
13
 73
9
 74
0
 42
0.0000001
 43
0.0000001
 44
0.0000000001
 40
0.0
 40
0.0
 40
0.0
 40
0.0
 40
0.2318769753
 40
0.3587079521
 40
0.4896051047
 40
0.6218724781
 40
0.7527566128
 40
1.0
 40
1.0
 40
1.0
 40
1.0
 10
50.1890985674
 20
84.9570199103
 30
0.0
 10
50.1890985674
 20
85.0726214679
 30
0.0
 10
50.1505462491
 20
85.2521509092
 30
0.0
 10
50.0486736448
 20
85.4742256979
 30
0.0
 10
49.943711697
 20
85.6387171106
 30
0.0
 10
49.8167685865
 20
85.7894402288
 30
0.0
 10
49.6287720735
 20
85.9614218995
 30
0.0
 10
49.4645588089
 20
86.0610373946
 30
0.0
 10
49.3499874817
 20
86.1065020947
 30
0.0
  0
SPLINE
  5
387
100
AcDbEntity
  8
0
100
AcDbSpline
 62
7
  6
BYLAYER
 70
0
 71
3
 72
11
 73
7
 74
0
 42
0.0000001
 43
0.0000001
 44
0.0000000001
 40
0.0
 40
0.0
 40
0.0
 40
0.0
 40
0.217775015
 40
0.4509312933
 40
0.7102248231
 40
1.0
 40
1.0
 40
1.0
 40
1.0
 10
42.0496242216
 20
83.7393827706
 30
0.0
 10
42.0826088298
 20
83.7584264127
 30
0.0
 10
42.1583995566
 20
83.7859429611
 30
0.0
 10
42.284274116
 20
83.7891179043
 30
0.0
 10
42.4184472508
 20
83.75674685
 30
0.0
 10
42.5057276305
 20
83.7152052048
 30
0.0
 10
42.5496177477
 20
83.689865807
 30
0.0
  0
SPLINE
  5
388
100
AcDbEntity
  8
0
100
AcDbSpline
 62
7
  6
BYLAYER
 70
0
 71
3
 72
11
 73
7
 74
0
 42
0.0000001
 43
0.0000001
 44
0.0000000001
 40
0.0
 40
0.0
 40
0.0
 40
0.0
 40
0.2062783155
 40
0.4360581716
 40
0.6995109031
 40
1.0
 40
1.0
 40
1.0
 40
1.0
 10
45.2477114038
 20
85.5764039238
 30
0.0
 10
45.2734360994
 20
85.5829297442
 30
0.0
 10
45.3306536324
 20
85.586596458
 30
0.0
 10
45.4190125646
 20
85.5649508121
 30
0.0
 10
45.5107685604
 20
85.5186779591
 30
0.0
 10
45.5692944019
 20
85.4752670678
 30
0.0
 10
45.5988362769
 20
85.4503287969
 30
0.0
  0
SPLINE
  5
389
100
AcDbEntity
  8
0
100
AcDbSpline
 62
7
  6
BYLAYER
 70
0
 71
3
 72
13
 73
9
 74
0
 42
0.0000001
 43
0.0000001
 44
0.0000000001
 40
0.0
 40
0.0
 40
0.0
 40
0.0
 40
0.2317844321
 40
0.3585547365
 40
0.4894081657
 40
0.6216631294
 40
0.7525747912
 40
1.0
 40
1.0
 40
1.0
 40
1.0
 10
48.701432495
 20
82.9958288857
 30
0.0
 10
48.701432495
 20
83.1113608331
 30
0.0
 10
48.6628506233
 20
83.2907836727
 30
0.0
 10
48.5608515449
 20
83.5126405137
 30
0.0
 10
48.4557498099
 20
83.676930194
 30
0.0
 10
48.3286114261
 20
83.8274206853
 30
0.0
 10
48.1402760246
 20
83.9991048237
 30
0.0
 10
47.9757747268
 20
84.098392071
 30
0.0
 10
47.8610398462
 20
84.1436215848
 30
0.0
  0
SPLINE
  5
38A
100
AcDbEntity
  8
0
100
AcDbSpline
 62
7
  6
BYLAYER
 70
0
 71
3
 72
11
 73
7
 74
0
 42
0.0000001
 43
0.0000001
 44
0.0000000001
 40
0.0
 40
0.0
 40
0.0
 40
0.0
 40
0.2059948805
 40
0.4356219245
 40
0.6991508056
 40
1.0
 40
1.0
 40
1.0
 40
1.0
 10
48.6543821
 20
86.4413148987
 30
0.0
 10
48.6799719207
 20
86.4478064557
 30
0.0
 10
48.7369266816
 20
86.4513992773
 30
0.0
 10
48.824852321
 20
86.4296306718
 30
0.0
 10
48.9161413044
 20
86.3832290319
 30
0.0
 10
48.9743354595
 20
86.3397516444
 30
0.0
 10
49.0037166851
 20
86.3147840707
 30
0.0
  0
SPLINE
  5
38B
100
AcDbEntity
  8
0
100
AcDbSpline
 62
7
  6
BYLAYER
 70
0
 71
3
 72
11
 73
7
 74
0
 42
0.0000001
 43
0.0000001
 44
0.0000000001
 40
0.0
 40
0.0
 40
0.0
 40
0.0
 40
0.2178481203
 40
0.4509836675
 40
0.7102399747
 40
1.0
 40
1.0
 40
1.0
 40
1.0
 10
42.3048968232
 20
83.3870580021
 30
0.0
 10
42.2672857826
 20
83.3653311045
 30
0.0
 10
42.1968873393
 20
83.306205701
 30
0.0
 10
42.1220398115
 20
83.1837070056
 30
0.0
 10
42.0775116148
 20
83.0328082362
 30
0.0
 10
42.0687842362
 20
82.9229643162
 30
0.0
 10
42.0687842362
 20
82.865190621
 30
0.0
  0
SPLINE
  5
38C
100
AcDbEntity
  8
0
100
AcDbSpline
 62
7
  6
BYLAYER
 70
0
 71
3
 72
10
 73
6
 74
0
 42
0.0000001
 43
0.0000001
 44
0.0000000001
 40
0.0
 40
0.0
 40
0.0
 40
0.0
 40
0.2341341338
 40
0.4773247069
 40
1.0
 40
1.0
 40
1.0
 40
1.0
 10
48.5919829438
 20
82.0645181063
 30
0.0
 10
48.6099940306
 20
82.0882549465
 30
0.0
 10
48.6421498758
 20
82.1402865932
 30
0.0
 10
48.6890126258
 20
82.2591314964
 30
0.0
 10
48.701432495
 20
82.3577600153
 30
0.0
 10
48.701432495
 20
82.4242771937
 30
0.0
  0
SPLINE
  5
38D
100
AcDbEntity
  8
0
100
AcDbSpline
 62
7
  6
BYLAYER
 70
0
 71
3
 72
10
 73
6
 74
0
 42
0.0000001
 43
0.0000001
 44
0.0000000001
 40
0.0
 40
0.0
 40
0.0
 40
0.0
 40
0.2339706869
 40
0.4771035776
 40
1.0
 40
1.0
 40
1.0
 40
1.0
 10
50.0798178296
 20
84.0259307611
 30
0.0
 10
50.0978038937
 20
84.0496344493
 30
0.0
 10
50.1299148862
 20
84.1016115374
 30
0.0
 10
50.1767099583
 20
84.2203880955
 30
0.0
 10
50.1890985674
 20
84.3189692377
 30
0.0
 10
50.1890985674
 20
84.3854682183
 30
0.0
  0
SPLINE
  5
38E
100
AcDbEntity
  8
0
100
AcDbSpline
 62
7
  6
BYLAYER
 70
0
 71
3
 72
12
 73
8
 74
0
 42
0.0000001
 43
0.0000001
 44
0.0000000001
 40
0.0
 40
0.0
 40
0.0
 40
0.0
 40
0.1056529374
 40
0.2137553664
 40
0.4448244554
 40
0.7057671553
 40
1.0
 40
1.0
 40
1.0
 40
1.0
 10
42.232763271
 20
83.0221003453
 30
0.0
 10
42.2484378977
 20
83.0311474078
 30
0.0
 10
42.2819817311
 20
83.0464641478
 30
0.0
 10
42.3563226622
 20
83.0648216229
 30
0.0
 10
42.4610063089
 20
83.0622485527
 30
0.0
 10
42.5906983391
 20
83.0217075292
 30
0.0
 10
42.6740486843
 20
82.9745382128
 30
0.0
 10
42.7157588307
 20
82.9462436881
 30
0.0
  0
SPLINE
  5
38F
100
AcDbEntity
  8
0
100
AcDbSpline
 62
7
  6
BYLAYER
 70
0
 71
3
 72
15
 73
11
 74
0
 42
0.0000001
 43
0.0000001
 44
0.0000000001
 40
0.0
 40
0.0
 40
0.0
 40
0.0
 40
0.1141465952
 40
0.2373352439
 40
0.366975646
 40
0.4999989181
 40
0.6330223406
 40
0.7626631822
 40
0.8858525235
 40
1.0
 40
1.0
 40
1.0
 40
1.0
 10
44.812381262
 20
82.3834882372
 30
0.0
 10
44.8607850689
 20
82.3555429184
 30
0.0
 10
44.9563977914
 20
82.2885124006
 30
0.0
 10
45.0879636656
 20
82.1654380746
 30
0.0
 10
45.2091935799
 20
82.0199339974
 30
0.0
 10
45.3155500283
 20
81.8574986209
 30
0.0
 10
45.403045885
 20
81.6841737704
 30
0.0
 10
45.468442304
 20
81.5064333049
 30
0.0
 10
45.5092461953
 20
81.3309560582
 30
0.0
 10
45.5194909871
 20
81.2146370828
 30
0.0
 10
45.5194909871
 20
81.1587450655
 30
0.0
  0
SPLINE
  5
390
100
AcDbEntity
  8
0
100
AcDbSpline
 62
7
  6
BYLAYER
 70
0
 71
3
 72
15
 73
11
 74
0
 42
0.0000001
 43
0.0000001
 44
0.0000000001
 40
0.0
 40
0.0
 40
0.0
 40
0.0
 40
0.1117191492
 40
0.2334611652
 40
0.362631924
 40
0.4960039609
 40
0.6299371513
 40
0.7607431493
 40
0.8850495043
 40
1.0
 40
1.0
 40
1.0
 40
1.0
 10
44.221967686
 20
82.0766532728
 30
0.0
 10
44.2653570798
 20
82.0546980224
 30
0.0
 10
44.3516217694
 20
81.9998851185
 30
0.0
 10
44.4708015494
 20
81.8956767363
 30
0.0
 10
44.5814228925
 20
81.7696090037
 30
0.0
 10
44.6790319861
 20
81.6268103512
 30
0.0
 10
44.7596924635
 20
81.47299826
 30
0.0
 10
44.8201856779
 20
81.3143657882
 30
0.0
 10
44.8580270684
 20
81.1573383424
 30
0.0
 10
44.8675770312
 20
81.0530973275
 30
0.0
 10
44.8675770312
 20
81.0030629236
 30
0.0
  0
SPLINE
  5
391
100
AcDbEntity
  8
0
100
AcDbSpline
 62
7
  6
BYLAYER
 70
0
 71
3
 72
11
 73
7
 74
0
 42
0.0000001
 43
0.0000001
 44
0.0000000001
 40
0.0
 40
0.0
 40
0.0
 40
0.0
 40
0.2897826502
 40
0.5490742218
 40
0.7822424291
 40
1.0
 40
1.0
 40
1.0
 40
1.0
 10
44.8675770312
 20
81.0030629236
 30
0.0
 10
44.8675770312
 20
80.9594760033
 30
0.0
 10
44.8609864716
 20
80.8766051624
 30
0.0
 10
44.8274016701
 20
80.762748493
 30
0.0
 10
44.7709043752
 20
80.6703671513
 30
0.0
 10
44.7178251931
 20
80.6257452363
 30
0.0
 10
44.6894604523
 20
80.6093675062
 30
0.0
  0
SPLINE
  5
392
100
AcDbEntity
  8
0
100
AcDbSpline
 62
7
  6
BYLAYER
 70
0
 71
3
 72
15
 73
11
 74
0
 42
0.0000001
 43
0.0000001
 44
0.0000000001
 40
0.0
 40
0.0
 40
0.0
 40
0.0
 40
0.1142265121
 40
0.2375280864
 40
0.3672810417
 40
0.5003876008
 40
0.6334402874
 40
0.763035879
 40
0.886089355
 40
1.0
 40
1.0
 40
1.0
 40
1.0
 10
60.572072668
 20
82.9255627603
 30
0.0
 10
60.572072668
 20
82.9814685382
 30
0.0
 10
60.5618874392
 20
83.097827469
 30
0.0
 10
60.5213406233
 20
83.2734275128
 30
0.0
 10
60.4563567089
 20
83.4513830964
 30
0.0
 10
60.3694124546
 20
83.6250056888
 30
0.0
 10
60.2637264516
 20
83.7878087417
 30
0.0
 10
60.1432615049
 20
83.9337361431
 30
0.0
 10
60.012527046
 20
84.0572743464
 30
0.0
 10
59.9174688881
 20
84.1246822207
 30
0.0
 10
59.869336687
 20
84.1528155757
 30
0.0
  0
SPLINE
  5
393
100
AcDbEntity
  8
0
100
AcDbSpline
 62
7
  6
BYLAYER
 70
0
 71
3
 72
11
 73
7
 74
0
 42
0.0000001
 43
0.0000001
 44
0.0000000001
 40
0.0
 40
0.0
 40
0.0
 40
0.0
 40
0.2901348874
 40
0.5495116719
 40
0.7825163839
 40
1.0
 40
1.0
 40
1.0
 40
1.0
 10
59.5179686965
 20
84.3581907748
 30
0.0
 10
59.474538319
 20
84.3835759057
 30
0.0
 10
59.3881815943
 20
84.4252851845
 30
0.0
 10
59.2553213733
 20
84.45821533
 30
0.0
 10
59.1305759223
 20
84.4558578321
 30
0.0
 10
59.0553485269
 20
84.4290386477
 30
0.0
 10
59.0225922747
 20
84.4103583272
 30
0.0
  0
SPLINE
  5
394
100
AcDbEntity
  8
0
100
AcDbSpline
 62
7
  6
BYLAYER
 70
0
 71
3
 72
11
 73
7
 74
0
 42
0.0000001
 43
0.0000001
 44
0.0000000001
 40
0.0
 40
0.0
 40
0.0
 40
0.0
 40
0.2178481203
 40
0.4509836675
 40
0.7102399747
 40
1.0
 40
1.0
 40
1.0
 40
1.0
 10
51.9437827305
 20
76.4564627346
 30
0.0
 10
51.9813937711
 20
76.4781896323
 30
0.0
 10
52.0517922144
 20
76.5373150358
 30
0.0
 10
52.1266397422
 20
76.6598137312
 30
0.0
 10
52.1711679389
 20
76.8107125006
 30
0.0
 10
52.1798953176
 20
76.9205564206
 30
0.0
 10
52.1798953176
 20
76.9783301158
 30
0.0
  0
SPLINE
  5
395
100
AcDbEntity
  8
0
100
AcDbSpline
 62
7
  6
BYLAYER
 70
0
 71
3
 72
11
 73
7
 74
0
 42
0.0000001
 43
0.0000001
 44
0.0000000001
 40
0.0
 40
0.0
 40
0.0
 40
0.0
 40
0.217774924
 40
0.4509311967
 40
0.710224778
 40
1.0
 40
1.0
 40
1.0
 40
1.0
 10
52.1990660829
 20
76.1041311332
 30
0.0
 10
52.1660814123
 20
76.0850875373
 30
0.0
 10
52.0902905503
 20
76.0575711222
 30
0.0
 10
51.9644158442
 20
76.0543963955
 30
0.0
 10
51.8302425763
 20
76.0867677255
 30
0.0
 10
51.7429621747
 20
76.1283096134
 30
0.0
 10
51.6990719967
 20
76.1536490463
 30
0.0
  0
SPLINE
  5
396
100
AcDbEntity
  8
0
100
AcDbSpline
 62
7
  6
BYLAYER
 70
0
 71
3
 72
11
 73
7
 74
0
 42
0.0000001
 43
0.0000001
 44
0.0000000001
 40
0.0
 40
0.0
 40
0.0
 40
0.0
 40
0.2171398247
 40
0.450002131
 40
0.7095082554
 40
1.0
 40
1.0
 40
1.0
 40
1.0
 10
60.3647131088
 20
81.896091497
 30
0.0
 10
60.3977307571
 20
81.9149208871
 30
0.0
 10
60.4595853963
 20
81.9665491609
 30
0.0
 10
60.5253398936
 20
82.0739352555
 30
0.0
 10
60.5644160908
 20
82.2065567309
 30
0.0
 10
60.572072668
 20
82.3031617884
 30
0.0
 10
60.572072668
 20
82.3540110682
 30
0.0
  0
SPLINE
  5
397
100
AcDbEntity
  8
0
100
AcDbSpline
 62
7
  6
BYLAYER
 70
0
 71
3
 72
10
 73
6
 74
0
 42
0.0000001
 43
0.0000001
 44
0.0000000001
 40
0.0
 40
0.0
 40
0.0
 40
0.0
 40
0.5248964804
 40
0.7712796471
 40
1.0
 40
1.0
 40
1.0
 40
1.0
 10
48.9222832969
 20
78.0126097363
 30
0.0
 10
48.8623288548
 20
78.1205041452
 30
0.0
 10
48.7903612251
 20
78.2892818474
 30
0.0
 10
48.7386865224
 20
78.5191382808
 30
0.0
 10
48.7291998588
 20
78.630983937
 30
0.0
 10
48.7291998588
 20
78.6847691519
 30
0.0
  0
SPLINE
  5
398
100
AcDbEntity
  8
0
100
AcDbSpline
 62
7
  6
BYLAYER
 70
0
 71
3
 72
11
 73
7
 74
0
 42
0.0000001
 43
0.0000001
 44
0.0000000001
 40
0.0
 40
0.0
 40
0.0
 40
0.0
 40
0.2897761818
 40
0.5490701321
 40
0.782226037
 40
1.0
 40
1.0
 40
1.0
 40
1.0
 10
48.7291998588
 20
79.2563208438
 30
0.0
 10
48.7291998588
 20
79.3070020324
 30
0.0
 10
48.7368630165
 20
79.4033627954
 30
0.0
 10
48.775915163
 20
79.5357498159
 30
0.0
 10
48.8416028559
 20
79.643176194
 30
0.0
 10
48.9033296239
 20
79.6950560458
 30
0.0
 10
48.9363149563
 20
79.714100106
 30
0.0
  0
SPLINE
  5
399
100
AcDbEntity
  8
0
100
AcDbSpline
 62
7
  6
BYLAYER
 70
0
 71
3
 72
11
 73
7
 74
0
 42
0.0000001
 43
0.0000001
 44
0.0000000001
 40
0.0
 40
0.0
 40
0.0
 40
0.0
 40
0.2278912801
 40
0.4748646994
 40
0.7347331769
 40
1.0
 40
1.0
 40
1.0
 40
1.0
 10
52.1798953176
 20
76.9783301158
 30
0.0
 10
52.1798953176
 20
77.0479223074
 30
0.0
 10
52.1659661093
 20
77.1930786684
 30
0.0
 10
52.1110631075
 20
77.4113194156
 30
0.0
 10
52.0236553557
 20
77.6309734861
 30
0.0
 10
51.9462231644
 20
77.7719429503
 30
0.0
 10
51.9029426962
 20
77.8404172477
 30
0.0
  0
SPLINE
  5
39A
100
AcDbEntity
  8
0
100
AcDbSpline
 62
7
  6
BYLAYER
 70
0
 71
3
 72
9
 73
5
 74
0
 42
0.0000001
 43
0.0000001
 44
0.0000000001
 40
0.0
 40
0.0
 40
0.0
 40
0.0
 40
0.5248505518
 40
1.0
 40
1.0
 40
1.0
 40
1.0
 10
49.0695934278
 20
78.0977416816
 30
0.0
 10
49.0295317819
 20
78.1803139889
 30
0.0
 10
48.9674981577
 20
78.3450380225
 30
0.0
 10
48.9413345428
 20
78.5200406772
 30
0.0
 10
48.9413345428
 20
78.603127299
 30
0.0
  0
SPLINE
  5
39B
100
AcDbEntity
  8
0
100
AcDbSpline
 62
7
  6
BYLAYER
 70
0
 71
3
 72
11
 73
7
 74
0
 42
0.0000001
 43
0.0000001
 44
0.0000000001
 40
0.0
 40
0.0
 40
0.0
 40
0.0
 40
0.2897576455
 40
0.5490795625
 40
0.7822232697
 40
1.0
 40
1.0
 40
1.0
 40
1.0
 10
48.9413345428
 20
78.603127299
 30
0.0
 10
48.9413345428
 20
78.6467102124
 30
0.0
 10
48.9479298927
 20
78.7295803735
 30
0.0
 10
48.981506499
 20
78.8434364096
 30
0.0
 10
49.0380077738
 20
78.9358178552
 30
0.0
 10
49.0910842432
 20
78.9804432549
 30
0.0
 10
49.1194540057
 20
78.9968176807
 30
0.0
  0
SPLINE
  5
39C
100
AcDbEntity
  8
0
100
AcDbSpline
 62
7
  6
BYLAYER
 70
0
 71
3
 72
11
 73
7
 74
0
 42
0.0000001
 43
0.0000001
 44
0.0000000001
 40
0.0
 40
0.0
 40
0.0
 40
0.0
 40
0.2897762172
 40
0.5490701576
 40
0.7822260326
 40
1.0
 40
1.0
 40
1.0
 40
1.0
 10
52.4061817219
 20
76.5619107089
 30
0.0
 10
52.4061817219
 20
76.5112294544
 30
0.0
 10
52.398518545
 20
76.4148685722
 30
0.0
 10
52.359466293
 20
76.2824814092
 30
0.0
 10
52.2937784173
 20
76.1750549677
 30
0.0
 10
52.2320514904
 20
76.1231751546
 30
0.0
 10
52.1990660829
 20
76.1041311332
 30
0.0
  0
SPLINE
  5
39D
100
AcDbEntity
  8
0
100
AcDbSpline
 62
7
  6
BYLAYER
 70
0
 71
3
 72
13
 73
9
 74
0
 42
0.0000001
 43
0.0000001
 44
0.0000000001
 40
0.0
 40
0.0
 40
0.0
 40
0.0
 40
0.2318769753
 40
0.3587079521
 40
0.4896051047
 40
0.6218724781
 40
0.7527566128
 40
1.0
 40
1.0
 40
1.0
 40
1.0
 10
57.0757893021
 20
80.9317372457
 30
0.0
 10
57.0757893021
 20
81.0473388033
 30
0.0
 10
57.0372369838
 20
81.2268682446
 30
0.0
 10
56.9353643795
 20
81.4489430333
 30
0.0
 10
56.8304024317
 20
81.613434446
 30
0.0
 10
56.7034593212
 20
81.7641575642
 30
0.0
 10
56.5154628082
 20
81.9361392349
 30
0.0
 10
56.3512495436
 20
82.03575473
 30
0.0
 10
56.2366782164
 20
82.0812194302
 30
0.0
  0
SPLINE
  5
39E
100
AcDbEntity
  8
0
100
AcDbSpline
 62
7
  6
BYLAYER
 70
0
 71
3
 72
11
 73
7
 74
0
 42
0.0000001
 43
0.0000001
 44
0.0000000001
 40
0.0
 40
0.0
 40
0.0
 40
0.0
 40
0.217775015
 40
0.4509312933
 40
0.7102248231
 40
1.0
 40
1.0
 40
1.0
 40
1.0
 10
48.9363149563
 20
79.714100106
 30
0.0
 10
48.9692995645
 20
79.7331437481
 30
0.0
 10
49.0450902913
 20
79.7606602965
 30
0.0
 10
49.1709648507
 20
79.7638352397
 30
0.0
 10
49.3051379855
 20
79.7314641854
 30
0.0
 10
49.3924183652
 20
79.6899225402
 30
0.0
 10
49.4363084825
 20
79.6645831424
 30
0.0
  0
SPLINE
  5
39F
100
AcDbEntity
  8
0
100
AcDbSpline
 62
7
  6
BYLAYER
 70
0
 71
3
 72
11
 73
7
 74
0
 42
0.0000001
 43
0.0000001
 44
0.0000000001
 40
0.0
 40
0.0
 40
0.0
 40
0.0
 40
0.2062783155
 40
0.4360581716
 40
0.6995109031
 40
1.0
 40
1.0
 40
1.0
 40
1.0
 10
52.1344021385
 20
81.5511212592
 30
0.0
 10
52.1601268342
 20
81.5576470796
 30
0.0
 10
52.2173443671
 20
81.5613137934
 30
0.0
 10
52.3057032994
 20
81.5396681475
 30
0.0
 10
52.3974592951
 20
81.4933952945
 30
0.0
 10
52.4559851366
 20
81.4499844032
 30
0.0
 10
52.4855270116
 20
81.4250461324
 30
0.0
  0
SPLINE
  5
3A0
100
AcDbEntity
  8
0
100
AcDbSpline
 62
7
  6
BYLAYER
 70
0
 71
3
 72
13
 73
9
 74
0
 42
0.0000001
 43
0.0000001
 44
0.0000000001
 40
0.0
 40
0.0
 40
0.0
 40
0.0
 40
0.2317844321
 40
0.3585547365
 40
0.4894081657
 40
0.6216631294
 40
0.7525747912
 40
1.0
 40
1.0
 40
1.0
 40
1.0
 10
55.5881232297
 20
78.9705462211
 30
0.0
 10
55.5881232297
 20
79.0860781685
 30
0.0
 10
55.549541358
 20
79.2655010081
 30
0.0
 10
55.4475422797
 20
79.4873578491
 30
0.0
 10
55.3424405446
 20
79.6516475294
 30
0.0
 10
55.2153021608
 20
79.8021380207
 30
0.0
 10
55.0269667594
 20
79.9738221591
 30
0.0
 10
54.8624654615
 20
80.0731094064
 30
0.0
 10
54.7477305809
 20
80.1183389202
 30
0.0
  0
SPLINE
  5
3A1
100
AcDbEntity
  8
0
100
AcDbSpline
 62
7
  6
BYLAYER
 70
0
 71
3
 72
11
 73
7
 74
0
 42
0.0000001
 43
0.0000001
 44
0.0000000001
 40
0.0
 40
0.0
 40
0.0
 40
0.0
 40
0.2059948805
 40
0.4356219245
 40
0.6991508056
 40
1.0
 40
1.0
 40
1.0
 40
1.0
 10
55.5410728347
 20
82.4160322341
 30
0.0
 10
55.5666626554
 20
82.4225237911
 30
0.0
 10
55.6236174163
 20
82.4261166127
 30
0.0
 10
55.7115430557
 20
82.4043480072
 30
0.0
 10
55.8028320391
 20
82.3579463673
 30
0.0
 10
55.8610261942
 20
82.3144689798
 30
0.0
 10
55.8904074199
 20
82.2895014061
 30
0.0
  0
SPLINE
  5
3A2
100
AcDbEntity
  8
0
100
AcDbSpline
 62
7
  6
BYLAYER
 70
0
 71
3
 72
11
 73
7
 74
0
 42
0.0000001
 43
0.0000001
 44
0.0000000001
 40
0.0
 40
0.0
 40
0.0
 40
0.0
 40
0.2178481203
 40
0.4509836675
 40
0.7102399747
 40
1.0
 40
1.0
 40
1.0
 40
1.0
 10
49.1915875579
 20
79.3617753375
 30
0.0
 10
49.1539765174
 20
79.3400484399
 30
0.0
 10
49.083578074
 20
79.2809230364
 30
0.0
 10
49.0087305462
 20
79.158424341
 30
0.0
 10
48.9642023495
 20
79.0075255716
 30
0.0
 10
48.9554749709
 20
78.8976816516
 30
0.0
 10
48.9554749709
 20
78.8399079564
 30
0.0
  0
SPLINE
  5
3A3
100
AcDbEntity
  8
0
100
AcDbSpline
 62
7
  6
BYLAYER
 70
0
 71
3
 72
10
 73
6
 74
0
 42
0.0000001
 43
0.0000001
 44
0.0000000001
 40
0.0
 40
0.0
 40
0.0
 40
0.0
 40
0.2341341338
 40
0.4773247069
 40
1.0
 40
1.0
 40
1.0
 40
1.0
 10
55.4786736785
 20
78.0392354417
 30
0.0
 10
55.4966847653
 20
78.0629722819
 30
0.0
 10
55.5288406105
 20
78.1150039286
 30
0.0
 10
55.5757033605
 20
78.2338488318
 30
0.0
 10
55.5881232297
 20
78.3324773507
 30
0.0
 10
55.5881232297
 20
78.3989945291
 30
0.0
  0
SPLINE
  5
3A4
100
AcDbEntity
  8
0
100
AcDbSpline
 62
7
  6
BYLAYER
 70
0
 71
3
 72
10
 73
6
 74
0
 42
0.0000001
 43
0.0000001
 44
0.0000000001
 40
0.0
 40
0.0
 40
0.0
 40
0.0
 40
0.2339706869
 40
0.4771035776
 40
1.0
 40
1.0
 40
1.0
 40
1.0
 10
56.9665085643
 20
80.0006480965
 30
0.0
 10
56.9844946284
 20
80.0243517847
 30
0.0
 10
57.0166056209
 20
80.0763288728
 30
0.0
 10
57.063400693
 20
80.1951054309
 30
0.0
 10
57.0757893021
 20
80.2936865731
 30
0.0
 10
57.0757893021
 20
80.3601855537
 30
0.0
  0
SPLINE
  5
3A5
100
AcDbEntity
  8
0
100
AcDbSpline
 62
7
  6
BYLAYER
 70
0
 71
3
 72
12
 73
8
 74
0
 42
0.0000001
 43
0.0000001
 44
0.0000000001
 40
0.0
 40
0.0
 40
0.0
 40
0.0
 40
0.1056529374
 40
0.2137553664
 40
0.4448244554
 40
0.7057671553
 40
1.0
 40
1.0
 40
1.0
 40
1.0
 10
49.1194540057
 20
78.9968176807
 30
0.0
 10
49.1351286324
 20
79.0058647432
 30
0.0
 10
49.1686724658
 20
79.0211814832
 30
0.0
 10
49.2430133969
 20
79.0395389583
 30
0.0
 10
49.3476970436
 20
79.0369658881
 30
0.0
 10
49.4773890738
 20
78.9964248646
 30
0.0
 10
49.560739419
 20
78.9492555482
 30
0.0
 10
49.6024495654
 20
78.9209610235
 30
0.0
  0
SPLINE
  5
3A6
100
AcDbEntity
  8
0
100
AcDbSpline
 62
7
  6
BYLAYER
 70
0
 71
3
 72
15
 73
11
 74
0
 42
0.0000001
 43
0.0000001
 44
0.0000000001
 40
0.0
 40
0.0
 40
0.0
 40
0.0
 40
0.1141465952
 40
0.2373352439
 40
0.366975646
 40
0.4999989181
 40
0.6330223406
 40
0.7626631822
 40
0.8858525235
 40
1.0
 40
1.0
 40
1.0
 40
1.0
 10
51.6990719967
 20
78.3582055726
 30
0.0
 10
51.7474758036
 20
78.3302602538
 30
0.0
 10
51.8430885261
 20
78.263229736
 30
0.0
 10
51.9746544003
 20
78.1401554101
 30
0.0
 10
52.0958843146
 20
77.9946513328
 30
0.0
 10
52.2022407631
 20
77.8322159563
 30
0.0
 10
52.2897366198
 20
77.6588911058
 30
0.0
 10
52.3551330387
 20
77.4811506403
 30
0.0
 10
52.39593693
 20
77.3056733936
 30
0.0
 10
52.4061817219
 20
77.1893544182
 30
0.0
 10
52.4061817219
 20
77.1334624009
 30
0.0
  0
SPLINE
  5
3A7
100
AcDbEntity
  8
0
100
AcDbSpline
 62
7
  6
BYLAYER
 70
0
 71
3
 72
15
 73
11
 74
0
 42
0.0000001
 43
0.0000001
 44
0.0000000001
 40
0.0
 40
0.0
 40
0.0
 40
0.0
 40
0.1117191492
 40
0.2334611652
 40
0.362631924
 40
0.4960039609
 40
0.6299371513
 40
0.7607431493
 40
0.8850495043
 40
1.0
 40
1.0
 40
1.0
 40
1.0
 10
51.1086584207
 20
78.0513706082
 30
0.0
 10
51.1520478145
 20
78.0294153578
 30
0.0
 10
51.2383125041
 20
77.974602454
 30
0.0
 10
51.3574922842
 20
77.8703940717
 30
0.0
 10
51.4681136272
 20
77.7443263391
 30
0.0
 10
51.5657227208
 20
77.6015276866
 30
0.0
 10
51.6463831982
 20
77.4477155954
 30
0.0
 10
51.7068764126
 20
77.2890831236
 30
0.0
 10
51.7447178031
 20
77.1320556778
 30
0.0
 10
51.7542677659
 20
77.0278146629
 30
0.0
 10
51.7542677659
 20
76.977780259
 30
0.0
  0
SPLINE
  5
3A8
100
AcDbEntity
  8
0
100
AcDbSpline
 62
7
  6
BYLAYER
 70
0
 71
3
 72
11
 73
7
 74
0
 42
0.0000001
 43
0.0000001
 44
0.0000000001
 40
0.0
 40
0.0
 40
0.0
 40
0.0
 40
0.2897826502
 40
0.5490742218
 40
0.7822424291
 40
1.0
 40
1.0
 40
1.0
 40
1.0
 10
51.7542677659
 20
76.977780259
 30
0.0
 10
51.7542677659
 20
76.9341933387
 30
0.0
 10
51.7476772064
 20
76.8513224978
 30
0.0
 10
51.7140924049
 20
76.7374658284
 30
0.0
 10
51.65759511
 20
76.6450844868
 30
0.0
 10
51.6045159278
 20
76.6004625717
 30
0.0
 10
51.5761511871
 20
76.5840848416
 30
0.0
  0
SPLINE
  5
3A9
100
AcDbEntity
  8
0
100
AcDbSpline
 62
7
  6
BYLAYER
 70
0
 71
3
 72
12
 73
8
 74
0
 42
0.0000001
 43
0.0000001
 44
0.0000000001
 40
0.0
 40
0.0
 40
0.0
 40
0.0
 40
0.2875185789
 40
0.54587322
 40
0.7797175458
 40
0.8908019628
 40
1.0
 40
1.0
 40
1.0
 40
1.0
 10
63.7883183187
 20
130.6448296516
 30
0.0
 10
63.9641577854
 20
130.7537845972
 30
0.0
 10
64.2827404655
 20
130.9878600341
 30
0.0
 10
64.661179997
 20
131.408077291
 30
0.0
 10
64.8629797227
 20
131.7996946163
 30
0.0
 10
64.9416813116
 20
132.1180252373
 30
0.0
 10
64.9546783001
 20
132.2768155801
 30
0.0
 10
64.9546828516
 20
132.3553795833
 30
0.0
  0
SPLINE
  5
3AA
100
AcDbEntity
  8
0
100
AcDbSpline
 62
7
  6
BYLAYER
 70
0
 71
3
 72
12
 73
8
 74
0
 42
0.0000001
 43
0.0000001
 44
0.0000000001
 40
0.0
 40
0.0
 40
0.0
 40
0.0
 40
0.2875185789
 40
0.54587322
 40
0.7797175458
 40
0.8908019628
 40
1.0
 40
1.0
 40
1.0
 40
1.0
 10
51.2724761836
 20
137.8706910066
 30
0.0
 10
51.4483156503
 20
137.9796459522
 30
0.0
 10
51.7668983304
 20
138.2137213891
 30
0.0
 10
52.1453378619
 20
138.633938646
 30
0.0
 10
52.3471375876
 20
139.0255559713
 30
0.0
 10
52.4258391765
 20
139.3438865924
 30
0.0
 10
52.438836165
 20
139.5026769351
 30
0.0
 10
52.4388407165
 20
139.5812409384
 30
0.0
  0
SPLINE
  5
3AB
100
AcDbEntity
  8
0
100
AcDbSpline
 62
7
  6
BYLAYER
 70
0
 71
3
 72
12
 73
8
 74
0
 42
0.0000001
 43
0.0000001
 44
0.0000000001
 40
0.0
 40
0.0
 40
0.0
 40
0.0
 40
0.2875185789
 40
0.54587322
 40
0.7797175458
 40
0.8908019628
 40
1.0
 40
1.0
 40
1.0
 40
1.0
 10
76.3041604538
 20
123.4189682966
 30
0.0
 10
76.4799999205
 20
123.5279232422
 30
0.0
 10
76.7985826006
 20
123.7619986791
 30
0.0
 10
77.1770221321
 20
124.182215936
 30
0.0
 10
77.3788218578
 20
124.5738332613
 30
0.0
 10
77.4575234467
 20
124.8921638823
 30
0.0
 10
77.4705204352
 20
125.0509542251
 30
0.0
 10
77.4705249867
 20
125.1295182283
 30
0.0
  0
SPLINE
  5
3AC
100
AcDbEntity
  8
0
100
AcDbSpline
 62
7
  6
BYLAYER
 70
0
 71
3
 72
19
 73
15
 74
0
 42
0.0000001
 43
0.0000001
 44
0.0000000001
 40
0.0
 40
0.0
 40
0.0
 40
0.0
 40
0.042839485
 40
0.0874485814
 40
0.1352617936
 40
0.1872035521
 40
0.2436842798
 40
0.3046793997
 40
0.3698182136
 40
0.4384683986
 40
0.5827509775
 40
0.7298406838
 40
0.8713670573
 40
1.0
 40
1.0
 40
1.0
 40
1.0
 10
67.7175370396
 20
124.5171519985
 30
0.0
 10
67.717529872
 20
124.3934304331
 30
0.0
 10
67.7506319853
 20
124.1398044845
 30
0.0
 10
67.8960550545
 20
123.7735700765
 30
0.0
 10
68.1321123433
 20
123.4264033805
 30
0.0
 10
68.452031495
 20
123.1051550478
 30
0.0
 10
68.8484348546
 20
122.8154760426
 30
0.0
 10
69.3129021513
 20
122.5628547702
 30
0.0
 10
69.8357353118
 20
122.3522278131
 30
0.0
 10
70.6085150529
 20
122.1295952422
 30
0.0
 10
71.6440523374
 20
121.9843246133
 30
0.0
 10
72.899541443
 20
122.0190185247
 30
0.0
 10
74.0867827067
 20
122.2565764607
 30
0.0
 10
74.8152085942
 20
122.5571149344
 30
0.0
 10
75.1369334766
 20
122.7428617731
 30
0.0
  0
SPLINE
  5
3AD
100
AcDbEntity
  8
0
100
AcDbSpline
 62
7
  6
BYLAYER
 70
0
 71
3
 72
19
 73
15
 74
0
 42
0.0000001
 43
0.0000001
 44
0.0000000001
 40
0.0
 40
0.0
 40
0.0
 40
0.0
 40
0.042839485
 40
0.0874485814
 40
0.1352617936
 40
0.1872035521
 40
0.2436842798
 40
0.3046793997
 40
0.3698182136
 40
0.4384683986
 40
0.5827509775
 40
0.7298406838
 40
0.8713670573
 40
1.0
 40
1.0
 40
1.0
 40
1.0
 10
42.6858527694
 20
138.9688747085
 30
0.0
 10
42.6858456018
 20
138.8451531431
 30
0.0
 10
42.7189477151
 20
138.5915271945
 30
0.0
 10
42.8643707843
 20
138.2252927865
 30
0.0
 10
43.1004280731
 20
137.8781260906
 30
0.0
 10
43.4203472248
 20
137.5568777579
 30
0.0
 10
43.8167505844
 20
137.2671987527
 30
0.0
 10
44.2812178811
 20
137.0145774802
 30
0.0
 10
44.8040510416
 20
136.8039505231
 30
0.0
 10
45.5768307827
 20
136.5813179522
 30
0.0
 10
46.6123680672
 20
136.4360473233
 30
0.0
 10
47.8678571728
 20
136.4707412347
 30
0.0
 10
49.0550984365
 20
136.7082991708
 30
0.0
 10
49.783524324
 20
137.0088376444
 30
0.0
 10
50.1052492064
 20
137.1945844831
 30
0.0
  0
SPLINE
  5
3AE
100
AcDbEntity
  8
0
100
AcDbSpline
 62
7
  6
BYLAYER
 70
0
 71
3
 72
19
 73
15
 74
0
 42
0.0000001
 43
0.0000001
 44
0.0000000001
 40
0.0
 40
0.0
 40
0.0
 40
0.0
 40
0.042839485
 40
0.0874485814
 40
0.1352617936
 40
0.1872035521
 40
0.2436842798
 40
0.3046793997
 40
0.3698182136
 40
0.4384683986
 40
0.5827509775
 40
0.7298406838
 40
0.8713670573
 40
1.0
 40
1.0
 40
1.0
 40
1.0
 10
55.2016949045
 20
131.7430133535
 30
0.0
 10
55.2016877369
 20
131.6192917881
 30
0.0
 10
55.2347898502
 20
131.3656658395
 30
0.0
 10
55.3802129194
 20
130.9994314315
 30
0.0
 10
55.6162702082
 20
130.6522647356
 30
0.0
 10
55.9361893599
 20
130.3310164028
 30
0.0
 10
56.3325927195
 20
130.0413373976
 30
0.0
 10
56.7970600162
 20
129.7887161252
 30
0.0
 10
57.3198931767
 20
129.5780891681
 30
0.0
 10
58.0926729178
 20
129.3554565972
 30
0.0
 10
59.1282102023
 20
129.2101859683
 30
0.0
 10
60.3836993079
 20
129.2448798797
 30
0.0
 10
61.5709405716
 20
129.4824378157
 30
0.0
 10
62.2993664591
 20
129.7829762894
 30
0.0
 10
62.6210913415
 20
129.9687231281
 30
0.0
  0
SPLINE
  5
3AF
100
AcDbEntity
  8
0
100
AcDbSpline
 62
7
  6
BYLAYER
 70
0
 71
3
 72
12
 73
8
 74
0
 42
0.0000001
 43
0.0000001
 44
0.0000000001
 40
0.0
 40
0.0
 40
0.0
 40
0.0
 40
0.2875185789
 40
0.54587322
 40
0.7797175458
 40
0.8908019628
 40
1.0
 40
1.0
 40
1.0
 40
1.0
 10
43.8522173022
 20
140.6794246402
 30
0.0
 10
43.6763778355
 20
140.5704696946
 30
0.0
 10
43.3577951554
 20
140.3363942577
 30
0.0
 10
42.979355624
 20
139.9161770008
 30
0.0
 10
42.7775558982
 20
139.5245596755
 30
0.0
 10
42.6988543094
 20
139.2062290545
 30
0.0
 10
42.6858573208
 20
139.0474387117
 30
0.0
 10
42.6858527694
 20
138.9688747085
 30
0.0
  0
SPLINE
  5
3B0
100
AcDbEntity
  8
0
100
AcDbSpline
 62
7
  6
BYLAYER
 70
0
 71
3
 72
12
 73
8
 74
0
 42
0.0000001
 43
0.0000001
 44
0.0000000001
 40
0.0
 40
0.0
 40
0.0
 40
0.0
 40
0.2875185789
 40
0.54587322
 40
0.7797175458
 40
0.8908019628
 40
1.0
 40
1.0
 40
1.0
 40
1.0
 10
68.8839015724
 20
126.2277019302
 30
0.0
 10
68.7080621057
 20
126.1187469846
 30
0.0
 10
68.3894794256
 20
125.8846715477
 30
0.0
 10
68.0110398942
 20
125.4644542908
 30
0.0
 10
67.8092401684
 20
125.0728369655
 30
0.0
 10
67.7305385796
 20
124.7545063445
 30
0.0
 10
67.717541591
 20
124.5957160017
 30
0.0
 10
67.7175370396
 20
124.5171519985
 30
0.0
  0
SPLINE
  5
3B1
100
AcDbEntity
  8
0
100
AcDbSpline
 62
7
  6
BYLAYER
 70
0
 71
3
 72
19
 73
15
 74
0
 42
0.0000001
 43
0.0000001
 44
0.0000000001
 40
0.0
 40
0.0
 40
0.0
 40
0.0
 40
0.042839485
 40
0.0874485814
 40
0.1352617936
 40
0.1872035521
 40
0.2436842798
 40
0.3046793997
 40
0.3698182136
 40
0.4384683985
 40
0.5827509775
 40
0.7298406838
 40
0.8713670573
 40
1.0
 40
1.0
 40
1.0
 40
1.0
 10
77.4705249867
 20
125.1295182283
 30
0.0
 10
77.4705321542
 20
125.2532397938
 30
0.0
 10
77.4374300409
 20
125.5068657423
 30
0.0
 10
77.2920069718
 20
125.8731001503
 30
0.0
 10
77.0559496829
 20
126.2202668463
 30
0.0
 10
76.7360305313
 20
126.541515179
 30
0.0
 10
76.3396271717
 20
126.8311941842
 30
0.0
 10
75.875159875
 20
127.0838154566
 30
0.0
 10
75.3523267145
 20
127.2944424137
 30
0.0
 10
74.5795469735
 20
127.5170749846
 30
0.0
 10
73.5440096889
 20
127.6623456135
 30
0.0
 10
72.2885205834
 20
127.6276517021
 30
0.0
 10
71.1012793197
 20
127.3900937661
 30
0.0
 10
70.3728534322
 20
127.0895552925
 30
0.0
 10
70.0511285498
 20
126.9038084538
 30
0.0
  0
SPLINE
  5
3B2
100
AcDbEntity
  8
0
100
AcDbSpline
 62
7
  6
BYLAYER
 70
0
 71
3
 72
12
 73
8
 74
0
 42
0.0000001
 43
0.0000001
 44
0.0000000001
 40
0.0
 40
0.0
 40
0.0
 40
0.0
 40
0.2875185789
 40
0.54587322
 40
0.7797175458
 40
0.8908019628
 40
1.0
 40
1.0
 40
1.0
 40
1.0
 10
56.3680594373
 20
133.4535632852
 30
0.0
 10
56.1922199706
 20
133.3446083396
 30
0.0
 10
55.8736372905
 20
133.1105329027
 30
0.0
 10
55.4951977591
 20
132.6903156458
 30
0.0
 10
55.2933980333
 20
132.2986983205
 30
0.0
 10
55.2146964445
 20
131.9803676995
 30
0.0
 10
55.2016994559
 20
131.8215773567
 30
0.0
 10
55.2016949045
 20
131.7430133535
 30
0.0
  0
SPLINE
  5
3B3
100
AcDbEntity
  8
0
100
AcDbSpline
 62
7
  6
BYLAYER
 70
0
 71
3
 72
19
 73
15
 74
0
 42
0.0000001
 43
0.0000001
 44
0.0000000001
 40
0.0
 40
0.0
 40
0.0
 40
0.0
 40
0.042839485
 40
0.0874485814
 40
0.1352617936
 40
0.1872035521
 40
0.2436842798
 40
0.3046793997
 40
0.3698182136
 40
0.4384683985
 40
0.5827509775
 40
0.7298406838
 40
0.8713670573
 40
1.0
 40
1.0
 40
1.0
 40
1.0
 10
52.4388407165
 20
139.5812409384
 30
0.0
 10
52.438847884
 20
139.7049625038
 30
0.0
 10
52.4057457707
 20
139.9585884523
 30
0.0
 10
52.2603227016
 20
140.3248228604
 30
0.0
 10
52.0242654127
 20
140.6719895563
 30
0.0
 10
51.7043462611
 20
140.993237889
 30
0.0
 10
51.3079429015
 20
141.2829168942
 30
0.0
 10
50.8434756048
 20
141.5355381666
 30
0.0
 10
50.3206424443
 20
141.7461651237
 30
0.0
 10
49.5478627033
 20
141.9687976946
 30
0.0
 10
48.5123254188
 20
142.1140683235
 30
0.0
 10
47.2568363132
 20
142.0793744122
 30
0.0
 10
46.0695950495
 20
141.8418164762
 30
0.0
 10
45.341169162
 20
141.5412780025
 30
0.0
 10
45.0194442796
 20
141.3555311638
 30
0.0
  0
SPLINE
  5
3B4
100
AcDbEntity
  8
0
100
AcDbSpline
 62
7
  6
BYLAYER
 70
0
 71
3
 72
19
 73
15
 74
0
 42
0.0000001
 43
0.0000001
 44
0.0000000001
 40
0.0
 40
0.0
 40
0.0
 40
0.0
 40
0.042839485
 40
0.0874485814
 40
0.1352617936
 40
0.1872035521
 40
0.2436842798
 40
0.3046793997
 40
0.3698182136
 40
0.4384683985
 40
0.5827509775
 40
0.7298406838
 40
0.8713670573
 40
1.0
 40
1.0
 40
1.0
 40
1.0
 10
64.9546828516
 20
132.3553795833
 30
0.0
 10
64.9546900191
 20
132.4791011488
 30
0.0
 10
64.9215879058
 20
132.7327270973
 30
0.0
 10
64.7761648367
 20
133.0989615054
 30
0.0
 10
64.5401075478
 20
133.4461282013
 30
0.0
 10
64.2201883962
 20
133.767376534
 30
0.0
 10
63.8237850366
 20
134.0570555392
 30
0.0
 10
63.3593177399
 20
134.3096768116
 30
0.0
 10
62.8364845794
 20
134.5203037687
 30
0.0
 10
62.0637048384
 20
134.7429363396
 30
0.0
 10
61.0281675538
 20
134.8882069685
 30
0.0
 10
59.7726784483
 20
134.8535130571
 30
0.0
 10
58.5854371846
 20
134.6159551211
 30
0.0
 10
57.8570112971
 20
134.3154166475
 30
0.0
 10
57.5352864147
 20
134.1296698088
 30
0.0
  0
SPLINE
  5
3B5
100
AcDbEntity
  8
0
100
AcDbSpline
 62
7
  6
BYLAYER
 70
0
 71
3
 72
11
 73
7
 74
0
 42
0.0000001
 43
0.0000001
 44
0.0000000001
 40
0.0
 40
0.0
 40
0.0
 40
0.0
 40
0.2177469508
 40
0.4508889328
 40
0.7104658432
 40
1.0
 40
1.0
 40
1.0
 40
1.0
 10
72.3869399064
 20
96.5407302768
 30
0.0
 10
72.4240418831
 20
96.5621519673
 30
0.0
 10
72.5092636739
 20
96.5931880421
 30
0.0
 10
72.6509392494
 20
96.5967421877
 30
0.0
 10
72.8018518878
 20
96.5602106275
 30
0.0
 10
72.900076266
 20
96.5135441076
 30
0.0
 10
72.9494108599
 20
96.4850614109
 30
0.0
  0
SPLINE
  5
3B6
100
AcDbEntity
  8
0
100
AcDbSpline
 62
7
  6
BYLAYER
 70
0
 71
3
 72
11
 73
7
 74
0
 42
0.0000001
 43
0.0000001
 44
0.0000000001
 40
0.0
 40
0.0
 40
0.0
 40
0.0
 40
0.289336944
 40
0.5488308251
 40
0.782060678
 40
1.0
 40
1.0
 40
1.0
 40
1.0
 10
73.7449047232
 20
95.1041118408
 30
0.0
 10
73.7447380653
 20
95.0474814969
 30
0.0
 10
73.7357850515
 20
94.9397298303
 30
0.0
 10
73.6918118488
 20
94.7917041276
 30
0.0
 10
73.6180262846
 20
94.6715425256
 30
0.0
 10
73.5488245816
 20
94.613587878
 30
0.0
 10
73.5118827549
 20
94.5922604767
 30
0.0
  0
SPLINE
  5
3B7
100
AcDbEntity
  8
0
100
AcDbSpline
 62
7
  6
BYLAYER
 70
0
 71
3
 72
30
 73
26
 74
0
 42
0.0000001
 43
0.0000001
 44
0.0000000001
 40
0.0
 40
0.0
 40
0.0
 40
0.0
 40
0.0695100637
 40
0.1045091289
 40
0.1405618011
 40
0.1776136578
 40
0.2150109136
 40
0.2865610328
 40
0.3532100454
 40
0.4157707641
 40
0.47470236
 40
0.5302515849
 40
0.5834378828
 40
0.635333116
 40
0.6611665531
 40
0.6868333632
 40
0.7120242125
 40
0.724447222
 40
0.7371059048
 40
0.7645029659
 40
0.7949189429
 40
0.8272813595
 40
0.8606473586
 40
0.9292426329
 40
1.0
 40
1.0
 40
1.0
 40
1.0
 10
60.6382997385
 20
82.7960810328
 30
0.0
 10
60.9982232894
 20
83.0089983634
 30
0.0
 10
61.5407501503
 20
83.3268869593
 30
0.0
 10
62.2789536103
 20
83.7394535361
 30
0.0
 10
62.8490981527
 20
84.0523533533
 30
0.0
 10
63.4263841308
 20
84.3822497239
 30
0.0
 10
64.1704791938
 20
84.8496024655
 30
0.0
 10
65.0121400496
 20
85.4930285149
 30
0.0
 10
65.8764261392
 20
86.340877321
 30
0.0
 10
66.5841130113
 20
87.227839401
 30
0.0
 10
67.144748042
 20
88.1364157717
 30
0.0
 10
67.5804391495
 20
89.0473740636
 30
0.0
 10
67.9563002792
 20
89.937498364
 30
0.0
 10
68.2736457285
 20
90.6587529009
 30
0.0
 10
68.5567429107
 20
91.2128713146
 30
0.0
 10
68.7862938182
 20
91.6133928658
 30
0.0
 10
69.0031748843
 20
91.9272566683
 30
0.0
 10
69.1978048904
 20
92.1590588226
 30
0.0
 10
69.4178852935
 20
92.3857923561
 30
0.0
 10
69.7420808907
 20
92.6603570457
 30
0.0
 10
70.1819793622
 20
92.9782011207
 30
0.0
 10
70.6643460254
 20
93.2975930911
 30
0.0
 10
71.3493504008
 20
93.7264600221
 30
0.0
 10
72.2468846743
 20
94.2504187438
 30
0.0
 10
72.9770438377
 20
94.6623561166
 30
0.0
 10
73.3468998737
 20
94.8731111832
 30
0.0
  0
SPLINE
  5
3B8
100
AcDbEntity
  8
0
100
AcDbSpline
 62
7
  6
BYLAYER
 70
0
 71
3
 72
15
 73
11
 74
0
 42
0.0000001
 43
0.0000001
 44
0.0000000001
 40
0.0
 40
0.0
 40
0.0
 40
0.0
 40
0.0910223255
 40
0.190043486
 40
0.2966894832
 40
0.4233235905
 40
0.571387259
 40
0.727163992
 40
0.8744385959
 40
1.0
 40
1.0
 40
1.0
 40
1.0
 10
78.8383555648
 20
97.6674401273
 30
0.0
 10
78.8970666911
 20
97.7015225767
 30
0.0
 10
78.9991802347
 20
97.8101254847
 30
0.0
 10
79.0682385835
 20
98.0249372941
 30
0.0
 10
79.0754893491
 20
98.2748532581
 30
0.0
 10
79.0227556264
 20
98.5562138534
 30
0.0
 10
78.9061483477
 20
98.8572077719
 30
0.0
 10
78.7307137835
 20
99.1463669065
 30
0.0
 10
78.5188067508
 20
99.3879437781
 30
0.0
 10
78.3555398385
 20
99.5126267539
 30
0.0
 10
78.2744388235
 20
99.5594493875
 30
0.0
  0
SPLINE
  5
3B9
100
AcDbEntity
  8
0
100
AcDbSpline
 62
7
  6
BYLAYER
 70
0
 71
3
 72
11
 73
7
 74
0
 42
0.0000001
 43
0.0000001
 44
0.0000000001
 40
0.0
 40
0.0
 40
0.0
 40
0.0
 40
0.2373526001
 40
0.5002142963
 40
0.762952533
 40
1.0
 40
1.0
 40
1.0
 40
1.0
 10
72.9494108599
 20
96.4850614109
 30
0.0
 10
73.0626137481
 20
96.4197051714
 30
0.0
 10
73.2767906748
 20
96.2393450921
 30
0.0
 10
73.5264424572
 20
95.8975116275
 30
0.0
 10
73.6968514667
 20
95.5102211908
 30
0.0
 10
73.7452889083
 20
95.2346579295
 30
0.0
 10
73.7449047232
 20
95.1041118408
 30
0.0
  0
SPLINE
  5
3BA
100
AcDbEntity
  8
0
100
AcDbSpline
 62
7
  6
BYLAYER
 70
0
 71
3
 72
11
 73
7
 74
0
 42
0.0000001
 43
0.0000001
 44
0.0000000001
 40
0.0
 40
0.0
 40
0.0
 40
0.0
 40
0.2717816608
 40
0.5304287574
 40
0.7722834121
 40
1.0
 40
1.0
 40
1.0
 40
1.0
 10
78.2744388235
 20
99.5594493875
 30
0.0
 10
78.2321969543
 20
99.5838371903
 30
0.0
 10
78.1462540224
 20
99.6257262751
 30
0.0
 10
78.0123159631
 20
99.6647788668
 30
0.0
 10
77.8804901977
 20
99.6719260561
 30
0.0
 10
77.7968599098
 20
99.6530732089
 30
0.0
 10
77.758923352
 20
99.6378738655
 30
0.0
  0
SPLINE
  5
3BB
100
AcDbEntity
  8
0
100
AcDbSpline
 62
7
  6
BYLAYER
 70
0
 71
3
 72
49
 73
45
 74
0
 42
0.0000001
 43
0.0000001
 44
0.0000000001
 40
0.0
 40
0.0
 40
0.0
 40
0.0
 40
0.0241395638
 40
0.0363063514
 40
0.0485476413
 40
0.0609883566
 40
0.0738499045
 40
0.087472043
 40
0.1025202214
 40
0.1192587016
 40
0.1374157111
 40
0.1565823198
 40
0.1762899967
 40
0.2154448081
 40
0.2535029069
 40
0.2907566426
 40
0.3273209099
 40
0.3631436198
 40
0.3980944763
 40
0.4322406326
 40
0.4657157868
 40
0.4986315409
 40
0.5310581856
 40
0.5941733151
 40
0.6247188185
 40
0.6545119848
 40
0.6835209932
 40
0.7117047793
 40
0.7390744662
 40
0.7525292111
 40
0.7658934121
 40
0.7925593325
 40
0.8194137985
 40
0.8467695242
 40
0.8607686027
 40
0.8750739382
 40
0.8897145745
 40
0.9046993804
 40
0.9199987541
 40
0.9355648848
 40
0.95136774
 40
0.967354898
 40
0.9835090755
 40
1.0
 40
1.0
 40
1.0
 40
1.0
 10
138.5732535273
 20
147.379949854
 30
0.0
 10
139.1286881649
 20
146.9473804513
 30
0.0
 10
139.9126840471
 20
146.2207441926
 30
0.0
 10
140.7626411413
 20
145.0840065379
 30
0.0
 10
141.2809413439
 20
144.1379351837
 30
0.0
 10
141.653024379
 20
143.1031067285
 30
0.0
 10
141.8558522618
 20
141.9807432193
 30
0.0
 10
141.8696750864
 20
140.7641110785
 30
0.0
 10
141.678824081
 20
139.44958336
 30
0.0
 10
141.3114052197
 20
138.0379775913
 30
0.0
 10
140.7853098163
 20
136.5500500414
 30
0.0
 10
140.1251125259
 20
135.02225072
 30
0.0
 10
139.1035754057
 20
132.9877491846
 30
0.0
 10
137.6466682813
 20
130.559889541
 30
0.0
 10
135.6703119537
 20
127.8643988583
 30
0.0
 10
133.5293736642
 20
125.3980440803
 30
0.0
 10
131.2672294769
 20
123.1351114112
 30
0.0
 10
128.9299307182
 20
121.0506977182
 30
0.0
 10
126.553306319
 20
119.1217591954
 30
0.0
 10
124.1475467372
 20
117.3422822655
 30
0.0
 10
121.71983278
 20
115.6968312606
 30
0.0
 10
119.2755124253
 20
114.1690263576
 30
0.0
 10
116.0381212008
 20
112.283140169
 30
0.0
 10
112.7778131564
 20
110.5753295807
 30
0.0
 10
109.4996631176
 20
109.0845666221
 30
0.0
 10
107.0844989062
 20
108.1041780364
 30
0.0
 10
104.6921219878
 20
107.2573724992
 30
0.0
 10
102.327268542
 20
106.5535383458
 30
0.0
 10
100.3671394301
 20
106.0914628007
 30
0.0
 10
98.8140553826
 20
105.7982426455
 30
0.0
 10
97.2746316903
 20
105.5460241088
 30
0.0
 10
95.342772064
 20
105.2753929275
 30
0.0
 10
93.0070574723
 20
104.9474167836
 30
0.0
 10
91.0457339198
 20
104.6104064053
 30
0.0
 10
89.4595441493
 20
104.2639494697
 30
0.0
 10
88.2464705818
 20
103.9510962082
 30
0.0
 10
87.0194850571
 20
103.5809837043
 30
0.0
 10
85.7825869632
 20
103.1477466929
 30
0.0
 10
84.5382331315
 20
102.6574955723
 30
0.0
 10
83.2884473158
 20
102.1180452529
 30
0.0
 10
82.0362916711
 20
101.5349745772
 30
0.0
 10
80.7837216858
 20
100.9132687698
 30
0.0
 10
79.5263076976
 20
100.2570624299
 30
0.0
 10
78.6909464877
 20
99.7999187641
 30
0.0
 10
78.2744388235
 20
99.5594493875
 30
0.0
  0
SPLINE
  5
3BC
100
AcDbEntity
  8
0
100
AcDbSpline
 62
7
  6
BYLAYER
 70
0
 71
3
 72
24
 73
20
 74
0
 42
0.0000001
 43
0.0000001
 44
0.0000000001
 40
0.0
 40
0.0
 40
0.0
 40
0.0
 40
0.0694525198
 40
0.1391190594
 40
0.2087001212
 40
0.2777874253
 40
0.3459225821
 40
0.4128942757
 40
0.478737236
 40
0.5436308118
 40
0.6077044356
 40
0.6704868841
 40
0.7313691588
 40
0.7897820368
 40
0.8453992855
 40
0.8982874307
 40
0.9492230658
 40
0.9744923846
 40
1.0
 40
1.0
 40
1.0
 40
1.0
 10
82.911598358
 20
131.8348181964
 30
0.0
 10
84.1068854443
 20
132.5631017578
 30
0.0
 10
86.4976572947
 20
134.0276359188
 30
0.0
 10
90.0780035202
 20
136.2346938923
 30
0.0
 10
93.6638512763
 20
138.4187788366
 30
0.0
 10
97.254356316
 20
140.5355071491
 30
0.0
 10
100.8523082742
 20
142.5340033143
 30
0.0
 10
104.4529278639
 20
144.3891950748
 30
0.0
 10
108.053510525
 20
146.0972667842
 30
0.0
 10
111.6562751689
 20
147.6590744393
 30
0.0
 10
115.2523219043
 20
149.0763338942
 30
0.0
 10
118.8316227379
 20
150.307356751
 30
0.0
 10
122.3669494364
 20
151.3001110326
 30
0.0
 10
125.827620524
 20
151.9930863941
 30
0.0
 10
129.1817969411
 20
152.3274610103
 30
0.0
 10
132.4045037599
 20
152.2413261429
 30
0.0
 10
134.9737376546
 20
151.7312297152
 30
0.0
 10
136.8993716015
 20
151.0182689351
 30
0.0
 10
137.8153147414
 20
150.5558616852
 30
0.0
 10
138.2600481634
 20
150.2980506703
 30
0.0
  0
SPLINE
  5
3BD
100
AcDbEntity
  8
0
100
AcDbSpline
 62
7
  6
BYLAYER
 70
0
 71
3
 72
14
 73
10
 74
0
 42
0.0000001
 43
0.0000001
 44
0.0000000001
 40
0.0
 40
0.0
 40
0.0
 40
0.0
 40
0.2360864316
 40
0.4977032682
 40
0.6306955896
 40
0.7606762787
 40
0.8233601668
 40
0.8838870819
 40
1.0
 40
1.0
 40
1.0
 40
1.0
 10
39.6057581072
 20
95.5722295236
 30
0.0
 10
39.6058927876
 20
95.7024315818
 30
0.0
 10
39.5551388457
 20
95.9769712044
 30
0.0
 10
39.4105806477
 20
96.2964482884
 30
0.0
 10
39.2474142058
 20
96.5362447779
 30
0.0
 10
39.127783316
 20
96.670719515
 30
0.0
 10
39.028376706
 20
96.7688751733
 30
0.0
 10
38.9307082682
 20
96.8574362199
 30
0.0
 10
38.8485683954
 20
96.9129230379
 30
0.0
 10
38.7897395942
 20
96.9382182077
 30
0.0
  0
SPLINE
  5
3BE
100
AcDbEntity
  8
0
100
AcDbSpline
 62
7
  6
BYLAYER
 70
0
 71
3
 72
55
 73
51
 74
0
 42
0.0000001
 43
0.0000001
 44
0.0000000001
 40
0.0
 40
0.0
 40
0.0
 40
0.0
 40
0.0116382815
 40
0.02360046
 40
0.0359443012
 40
0.0485118697
 40
0.0547292477
 40
0.0609198255
 40
0.0671454359
 40
0.0734888882
 40
0.0802291768
 40
0.0877315472
 40
0.0958666719
 40
0.1043776386
 40
0.1220519091
 40
0.1405033951
 40
0.1595353351
 40
0.178730564
 40
0.1978741578
 40
0.2169317212
 40
0.2546200811
 40
0.2916591433
 40
0.3279349556
 40
0.3632264229
 40
0.3976178597
 40
0.4313812717
 40
0.4647089114
 40
0.5298399719
 40
0.5615127521
 40
0.5925573707
 40
0.6229762142
 40
0.6527408556
 40
0.6818339878
 40
0.7103216136
 40
0.7382961852
 40
0.7658584273
 40
0.779515144
 40
0.7931087394
 40
0.8202673202
 40
0.8476769991
 40
0.8756642174
 40
0.9045917816
 40
0.9195446807
 40
0.9348934013
 40
0.9506819162
 40
0.9669351605
 40
0.9752504025
 40
0.9837096664
 40
0.9920537331
 40
1.0
 40
1.0
 40
1.0
 40
1.0
 10
134.255145682
 20
149.557242761
 30
0.0
 10
134.4835637568
 20
149.3142997785
 30
0.0
 10
134.9269747636
 20
148.8027394313
 30
0.0
 10
135.5418174827
 20
147.975325213
 30
0.0
 10
136.1103960288
 20
147.0843480737
 30
0.0
 10
136.5448553165
 20
146.3036106866
 30
0.0
 10
136.8273348462
 20
145.6452482277
 30
0.0
 10
136.9913617719
 20
145.1361861373
 30
0.0
 10
137.0991290317
 20
144.6083826402
 30
0.0
 10
137.1435698966
 20
144.0553850425
 30
0.0
 10
137.1142176954
 20
143.464900316
 30
0.0
 10
137.0182314703
 20
142.8302051609
 30
0.0
 10
136.865654121
 20
142.1548740943
 30
0.0
 10
136.5959762121
 20
141.2088225576
 30
0.0
 10
136.1574758363
 20
140.0055881448
 30
0.0
 10
135.5097857902
 20
138.5630539874
 30
0.0
 10
134.7700865625
 20
137.1167763189
 30
0.0
 10
133.9660386133
 20
135.682636453
 30
0.0
 10
133.1076263412
 20
134.2794275244
 30
0.0
 10
131.9025067297
 20
132.4690340933
 30
0.0
 10
130.2843373913
 20
130.3199734779
 30
0.0
 10
128.1782762227
 20
127.9329521531
 30
0.0
 10
125.9610798157
 20
125.7462509897
 30
0.0
 10
123.6658752045
 20
123.7561724067
 30
0.0
 10
121.3184753708
 20
121.944377432
 30
0.0
 10
118.93579653
 20
120.2763945564
 30
0.0
 10
115.7611681
 20
118.2085780853
 30
0.0
 10
112.56726489
 20
116.2806891702
 30
0.0
 10
109.3462041659
 20
114.5349324489
 30
0.0
 10
106.9569930203
 20
113.3450139912
 30
0.0
 10
104.5755520121
 20
112.2659994687
 30
0.0
 10
102.2057269004
 20
111.3012985306
 30
0.0
 10
99.8500387472
 20
110.4542506002
 30
0.0
 10
97.5103430924
 20
109.7205802274
 30
0.0
 10
95.1857326164
 20
109.092271073
 30
0.0
 10
93.2551530704
 20
108.6399332297
 30
0.0
 10
91.7188457975
 20
108.3138661167
 30
0.0
 10
90.1896595996
 20
108.0105818844
 30
0.0
 10
88.2690196216
 20
107.656606985
 30
0.0
 10
85.9454454856
 20
107.2133418953
 30
0.0
 10
83.5860257512
 20
106.6903926027
 30
0.0
 10
81.6009754307
 20
106.1368667326
 30
0.0
 10
79.9935842969
 20
105.5913401827
 30
0.0
 10
78.7611753179
 20
105.1157473266
 30
0.0
 10
77.5170539389
 20
104.5706231147
 30
0.0
 10
76.4805816111
 20
104.0569470793
 30
0.0
 10
75.6481383747
 20
103.6066883371
 30
0.0
 10
75.0252397828
 20
103.2460025421
 30
0.0
 10
74.4182128888
 20
102.8794514225
 30
0.0
 10
74.018620709
 20
102.6381567648
 30
0.0
 10
73.8214463817
 20
102.5243187934
 30
0.0
  0
SPLINE
  5
3BF
100
AcDbEntity
  8
0
100
AcDbSpline
 62
7
  6
BYLAYER
 70
0
 71
3
 72
28
 73
24
 74
0
 42
0.0000001
 43
0.0000001
 44
0.0000000001
 40
0.0
 40
0.0
 40
0.0
 40
0.0
 40
0.0695620393
 40
0.1389712705
 40
0.2081487503
 40
0.2770041707
 40
0.3453202749
 40
0.4125945832
 40
0.4457011209
 40
0.4784069536
 40
0.5427151828
 40
0.574372628
 40
0.6057181646
 40
0.63677728
 40
0.6675785208
 40
0.7282072074
 40
0.7870325476
 40
0.8436638551
 40
0.8980120194
 40
0.9242788234
 40
0.9499496127
 40
0.9751260844
 40
1.0
 40
1.0
 40
1.0
 40
1.0
 10
77.9056211858
 20
134.8279093658
 30
0.0
 10
79.0866989992
 20
135.56249586
 30
0.0
 10
81.4481400919
 20
137.0270438295
 30
0.0
 10
84.9965543987
 20
139.2020081335
 30
0.0
 10
88.548203675
 20
141.3445056597
 30
0.0
 10
92.1022310855
 20
143.4404212371
 30
0.0
 10
95.6574326102
 20
145.4588700589
 30
0.0
 10
98.6428048104
 20
147.0307966627
 30
0.0
 10
101.0340409573
 20
148.1987828625
 30
0.0
 10
103.3959103962
 20
149.2903414664
 30
0.0
 10
105.7638032727
 20
150.298417078
 30
0.0
 10
108.1329438567
 20
151.2298767228
 30
0.0
 10
109.8955387431
 20
151.886320128
 30
0.0
 10
111.6530713075
 20
152.5064757019
 30
0.0
 10
113.9757458728
 20
153.283541841
 30
0.0
 10
116.8552774294
 20
154.1454902764
 30
0.0
 10
120.2917419366
 20
154.9289821869
 30
0.0
 10
123.6653877299
 20
155.3649542054
 30
0.0
 10
126.4211453518
 20
155.3614935388
 30
0.0
 10
128.5314553118
 20
155.0892268817
 30
0.0
 10
130.037444609
 20
154.7458361818
 30
0.0
 10
131.471321782
 20
154.2498124179
 30
0.0
 10
132.3725186529
 20
153.8072467914
 30
0.0
 10
132.8036206349
 20
153.5592360659
 30
0.0
  0
SPLINE
  5
3C0
100
AcDbEntity
  8
0
100
AcDbSpline
 62
7
  6
BYLAYER
 70
0
 71
3
 72
8
 73
4
 74
0
 42
0.0000001
 43
0.0000001
 44
0.0000000001
 40
0.0
 40
0.0
 40
0.0
 40
0.0
 40
1.0
 40
1.0
 40
1.0
 40
1.0
 10
67.9012326175
 20
99.210792458
 30
0.0
 10
67.9307749977
 20
99.1974651464
 30
0.0
 10
67.9596247259
 20
99.1825215338
 30
0.0
 10
67.9876922468
 20
99.1663170984
 30
0.0
  0
SPLINE
  5
3C1
100
AcDbEntity
  8
0
100
AcDbSpline
 62
7
  6
BYLAYER
 70
0
 71
3
 72
9
 73
5
 74
0
 42
0.0000001
 43
0.0000001
 44
0.0000000001
 40
0.0
 40
0.0
 40
0.0
 40
0.0
 40
0.2378896784
 40
1.0
 40
1.0
 40
1.0
 40
1.0
 10
74.6039247411
 20
101.3194991409
 30
0.0
 10
74.6017129825
 20
101.3346611686
 30
0.0
 10
74.591346726
 20
101.398237288
 30
0.0
 10
74.5767642395
 20
101.4611168292
 30
0.0
 10
74.5634914225
 20
101.508375957
 30
0.0
  0
SPLINE
  5
3C2
100
AcDbEntity
  8
0
100
AcDbSpline
 62
7
  6
BYLAYER
 70
0
 71
3
 72
10
 73
6
 74
0
 42
0.0000001
 43
0.0000001
 44
0.0000000001
 40
0.0
 40
0.0
 40
0.0
 40
0.0
 40
0.5261892189
 40
0.7819053222
 40
1.0
 40
1.0
 40
1.0
 40
1.0
 10
74.5634914225
 20
101.508375957
 30
0.0
 10
74.502689908
 20
101.7248655355
 30
0.0
 10
74.3478374117
 20
102.0317765391
 30
0.0
 10
74.0647694216
 20
102.3536567352
 30
0.0
 10
73.9021623263
 20
102.4777184753
 30
0.0
 10
73.8214463817
 20
102.5243187934
 30
0.0
  0
SPLINE
  5
3C3
100
AcDbEntity
  8
0
100
AcDbSpline
 62
7
  6
BYLAYER
 70
0
 71
3
 72
9
 73
5
 74
0
 42
0.0000001
 43
0.0000001
 44
0.0000000001
 40
0.0
 40
0.0
 40
0.0
 40
0.0
 40
0.4588564933
 40
1.0
 40
1.0
 40
1.0
 40
1.0
 10
39.4497607176
 20
95.117651571
 30
0.0
 10
39.5027101449
 20
95.1706571755
 30
0.0
 10
39.5858904495
 20
95.3188289649
 30
0.0
 10
39.6058355107
 20
95.4838641748
 30
0.0
 10
39.6057440077
 20
95.5722213833
 30
0.0
  0
SPLINE
  5
3C4
100
AcDbEntity
  8
0
100
AcDbSpline
 62
7
  6
BYLAYER
 70
0
 71
3
 72
10
 73
6
 74
0
 42
0.0000001
 43
0.0000001
 44
0.0000000001
 40
0.0
 40
0.0
 40
0.0
 40
0.0
 40
0.2880834524
 40
0.5420167981
 40
1.0
 40
1.0
 40
1.0
 40
1.0
 10
38.7897395942
 20
96.9382182077
 30
0.0
 10
38.745927363
 20
96.9570565624
 30
0.0
 10
38.6639631117
 20
96.9936131549
 30
0.0
 10
38.5071802148
 20
97.0478822009
 30
0.0
 10
38.38335897
 20
97.0459843458
 30
0.0
 10
38.3102410118
 20
97.0259364452
 30
0.0
  0
SPLINE
  5
3C5
100
AcDbEntity
  8
0
100
AcDbSpline
 62
7
  6
BYLAYER
 70
0
 71
3
 72
11
 73
7
 74
0
 42
0.0000001
 43
0.0000001
 44
0.0000000001
 40
0.0
 40
0.0
 40
0.0
 40
0.0
 40
0.2094075968
 40
0.4602508925
 40
0.7334871913
 40
1.0
 40
1.0
 40
1.0
 40
1.0
 10
67.9876928817
 20
99.1663174648
 30
0.0
 10
68.0649945304
 20
99.121688292
 30
0.0
 10
68.2229047336
 20
99.0024310585
 30
0.0
 10
68.4328895508
 20
98.768573233
 30
0.0
 10
68.6113723637
 20
98.4807526151
 30
0.0
 10
68.6969940007
 20
98.2655067821
 30
0.0
 10
68.7280683681
 20
98.1562386286
 30
0.0
  0
SPLINE
  5
3C6
100
AcDbEntity
  8
0
100
AcDbSpline
 62
7
  6
BYLAYER
 70
0
 71
3
 72
9
 73
5
 74
0
 42
0.0000001
 43
0.0000001
 44
0.0000000001
 40
0.0
 40
0.0
 40
0.0
 40
0.0
 40
0.2515318124
 40
1.0
 40
1.0
 40
1.0
 40
1.0
 10
66.872806177
 20
97.0521175838
 30
0.0
 10
66.7539618144
 20
97.0316895348
 30
0.0
 10
66.2792878561
 20
96.9631979118
 30
0.0
 10
65.7990206207
 20
96.9385924503
 30
0.0
 10
65.4402007424
 20
96.9368088874
 30
0.0
  0
SPLINE
  5
3C7
100
AcDbEntity
  8
0
100
AcDbSpline
 62
7
  6
BYLAYER
 70
0
 71
3
 72
16
 73
12
 74
0
 42
0.0000001
 43
0.0000001
 44
0.0000000001
 40
0.0
 40
0.0
 40
0.0
 40
0.0
 40
0.0609166703
 40
0.1229979151
 40
0.2516191679
 40
0.3840221109
 40
0.5172557234
 40
0.6483221194
 40
0.7742731323
 40
0.892323041
 40
1.0
 40
1.0
 40
1.0
 40
1.0
 10
53.8377336411
 20
98.6849140318
 30
0.0
 10
53.5387251777
 20
98.7125489117
 30
0.0
 10
52.9337283449
 20
98.7558939204
 30
0.0
 10
51.693437983
 20
98.787292627
 30
0.0
 10
50.1000507104
 20
98.7258663427
 30
0.0
 10
48.1673776789
 20
98.5069652869
 30
0.0
 10
46.2427776949
 20
98.1518783994
 30
0.0
 10
44.3780886183
 20
97.6727376494
 30
0.0
 10
42.6238533754
 20
97.0829025916
 30
0.0
 10
41.0294390591
 20
96.3973906074
 30
0.0
 10
40.0525172918
 20
95.8588306168
 30
0.0
 10
39.6057567317
 20
95.5722374271
 30
0.0
  0
SPLINE
  5
3C8
100
AcDbEntity
  8
0
100
AcDbSpline
 62
7
  6
BYLAYER
 70
0
 71
3
 72
11
 73
7
 74
0
 42
0.0000001
 43
0.0000001
 44
0.0000000001
 40
0.0
 40
0.0
 40
0.0
 40
0.0
 40
0.2317592695
 40
0.4743550039
 40
0.7319490987
 40
1.0
 40
1.0
 40
1.0
 40
1.0
 10
67.8189019058
 20
97.6527933411
 30
0.0
 10
67.8584726561
 20
97.6749362919
 30
0.0
 10
67.9484288272
 20
97.7054861383
 30
0.0
 10
68.0936168772
 20
97.705870509
 30
0.0
 10
68.2401025057
 20
97.6669049486
 30
0.0
 10
68.3331854085
 20
97.6219572841
 30
0.0
 10
68.3786047416
 20
97.5957349237
 30
0.0
  0
SPLINE
  5
3C9
100
AcDbEntity
  8
0
100
AcDbSpline
 62
7
  6
BYLAYER
 70
0
 71
3
 72
11
 73
7
 74
0
 42
0.0000001
 43
0.0000001
 44
0.0000000001
 40
0.0
 40
0.0
 40
0.0
 40
0.0
 40
0.2508722932
 40
0.5220889795
 40
0.7803342932
 40
1.0
 40
1.0
 40
1.0
 40
1.0
 10
75.7433263688
 20
100.3319672585
 30
0.0
 10
75.7172710031
 20
100.4421675497
 30
0.0
 10
75.63823648
 20
100.6659664374
 30
0.0
 10
75.4624955292
 20
100.9734232673
 30
0.0
 10
75.2417397132
 20
101.2321865417
 30
0.0
 10
75.069567551
 20
101.365821603
 30
0.0
 10
74.9836983862
 20
101.4153970668
 30
0.0
  0
SPLINE
  5
3CA
100
AcDbEntity
  8
0
100
AcDbSpline
 62
7
  6
BYLAYER
 70
0
 71
3
 72
50
 73
46
 74
0
 42
0.0000001
 43
0.0000001
 44
0.0000000001
 40
0.0
 40
0.0
 40
0.0
 40
0.0
 40
0.0114184653
 40
0.0231023194
 40
0.0351793866
 40
0.0478106942
 40
0.0612044948
 40
0.0753017747
 40
0.089899537
 40
0.1049749746
 40
0.1213319668
 40
0.1391582891
 40
0.1576388045
 40
0.1766496605
 40
0.1959969311
 40
0.2153183195
 40
0.2344173647
 40
0.2532839402
 40
0.2719081072
 40
0.2903177334
 40
0.3266191515
 40
0.3621782069
 40
0.3969048694
 40
0.4308919136
 40
0.4643749437
 40
0.4973316653
 40
0.5296830581
 40
0.5923869681
 40
0.6525238566
 40
0.6817475761
 40
0.7103883289
 40
0.738327143
 40
0.7654295482
 40
0.7786760651
 40
0.7918501112
 40
0.8183713179
 40
0.8318775901
 40
0.8456411015
 40
0.8740581035
 40
0.9037442605
 40
0.9347984583
 40
0.9508136516
 40
0.9671458867
 40
0.9836693986
 40
1.0
 40
1.0
 40
1.0
 40
1.0
 10
135.7987742797
 20
149.0088897598
 30
0.0
 10
136.0361201454
 20
148.7786530647
 30
0.0
 10
136.4914249396
 20
148.2862476049
 30
0.0
 10
137.0941607694
 20
147.4621437805
 30
0.0
 10
137.6121442547
 20
146.5413593828
 30
0.0
 10
138.0342929001
 20
145.5191310864
 30
0.0
 10
138.3526118358
 20
144.399134611
 30
0.0
 10
138.5489061421
 20
143.1930117545
 30
0.0
 10
138.5828551766
 20
141.9216002549
 30
0.0
 10
138.4119054662
 20
140.5930495672
 30
0.0
 10
137.9896910385
 20
139.2255285637
 30
0.0
 10
137.4020270539
 20
137.8168787283
 30
0.0
 10
136.6770279989
 20
136.3869168654
 30
0.0
 10
135.8482254356
 20
134.9640687225
 30
0.0
 10
134.9475581745
 20
133.5569552926
 30
0.0
 10
134.003734546
 20
132.1754298774
 30
0.0
 10
133.0245300948
 20
130.8358801757
 30
0.0
 10
132.0133784739
 20
129.5458238467
 30
0.0
 10
130.9701451495
 20
128.30748375
 30
0.0
 10
129.5416345673
 20
126.7354200998
 30
0.0
 10
127.6816167372
 20
124.8955195865
 30
0.0
 10
125.3574194642
 20
122.8619758361
 30
0.0
 10
122.9830925041
 20
120.9943381226
 30
0.0
 10
120.5778134065
 20
119.2687045118
 30
0.0
 10
118.1584672492
 20
117.6539950748
 30
0.0
 10
115.7337994734
 20
116.1346952126
 30
0.0
 10
112.5334551557
 20
114.2628096197
 30
0.0
 10
108.5394558701
 20
112.1927609484
 30
0.0
 10
104.4806955558
 20
110.4725447617
 30
0.0
 10
101.2646438208
 20
109.3156808634
 30
0.0
 10
98.8969346157
 20
108.5598072369
 30
0.0
 10
96.558621644
 20
107.9203661936
 30
0.0
 10
94.6241833311
 20
107.502595265
 30
0.0
 10
93.0936929495
 20
107.255948559
 30
0.0
 10
91.5739315536
 20
107.0530046776
 30
0.0
 10
90.0428641799
 20
106.8805770314
 30
0.0
 10
88.499536599
 20
106.6680154438
 30
0.0
 10
86.9090512566
 20
106.3998865347
 30
0.0
 10
84.8791663473
 20
105.9293552479
 30
0.0
 10
82.4173197457
 20
105.1415214859
 30
0.0
 10
80.362115463
 20
104.2881627726
 30
0.0
 10
78.7069490702
 20
103.4929242085
 30
0.0
 10
77.4525496599
 20
102.8368852301
 30
0.0
 10
76.2138587475
 20
102.1333271802
 30
0.0
 10
75.3932599744
 20
101.6518561485
 30
0.0
 10
74.9836983862
 20
101.4153970668
 30
0.0
  0
SPLINE
  5
3CB
100
AcDbEntity
  8
0
100
AcDbSpline
 62
7
  6
BYLAYER
 70
0
 71
3
 72
9
 73
5
 74
0
 42
0.0000001
 43
0.0000001
 44
0.0000000001
 40
0.0
 40
0.0
 40
0.0
 40
0.0
 40
0.2256525818
 40
1.0
 40
1.0
 40
1.0
 40
1.0
 10
68.3786076935
 20
97.5957366371
 30
0.0
 10
68.4005078782
 20
97.5830927764
 30
0.0
 10
68.4955456786
 20
97.5235899855
 30
0.0
 10
68.5820663792
 20
97.4509234687
 30
0.0
 10
68.643883983
 20
97.3900215266
 30
0.0
  0
SPLINE
  5
3CC
100
AcDbEntity
  8
0
100
AcDbSpline
 62
7
  6
BYLAYER
 70
0
 71
3
 72
10
 73
6
 74
0
 42
0.0000001
 43
0.0000001
 44
0.0000000001
 40
0.0
 40
0.0
 40
0.0
 40
0.0
 40
0.2413091516
 40
0.498949215
 40
1.0
 40
1.0
 40
1.0
 40
1.0
 10
68.643883983
 20
97.3900215266
 30
0.0
 10
68.702359592
 20
97.3324120768
 30
0.0
 10
68.8139028
 20
97.2034941825
 30
0.0
 10
69.0012057189
 20
96.9190204715
 30
0.0
 10
69.1001061605
 20
96.6755991745
 30
0.0
 10
69.1386355928
 20
96.5095672692
 30
0.0
  0
SPLINE
  5
3CD
100
AcDbEntity
  8
0
100
AcDbSpline
 62
7
  6
BYLAYER
 70
0
 71
3
 72
14
 73
10
 74
0
 42
0.0000001
 43
0.0000001
 44
0.0000000001
 40
0.0
 40
0.0
 40
0.0
 40
0.0
 40
0.1441776995
 40
0.2818570703
 40
0.414188613
 40
0.5416820646
 40
0.6645058985
 40
0.7811178212
 40
1.0
 40
1.0
 40
1.0
 40
1.0
 10
66.7384729835
 20
95.2090996656
 30
0.0
 10
66.5055347653
 20
95.1839832932
 30
0.0
 10
66.0469054999
 20
95.1621650275
 30
0.0
 10
65.3740388971
 20
95.1948797135
 30
0.0
 10
64.7318069981
 20
95.2663883201
 30
0.0
 10
64.1168247574
 20
95.3587817624
 30
0.0
 10
63.5292246104
 20
95.4601216762
 30
0.0
 10
62.7958752363
 20
95.5899542585
 30
0.0
 10
62.2569877277
 20
95.6734663358
 30
0.0
 10
61.9044846855
 20
95.7209213204
 30
0.0
  0
SPLINE
  5
3CE
100
AcDbEntity
  8
0
100
AcDbSpline
 62
7
  6
BYLAYER
 70
0
 71
3
 72
13
 73
9
 74
0
 42
0.0000001
 43
0.0000001
 44
0.0000000001
 40
0.0
 40
0.0
 40
0.0
 40
0.0
 40
0.1251556408
 40
0.2494326227
 40
0.3746769677
 40
0.5007990523
 40
0.7531802017
 40
1.0
 40
1.0
 40
1.0
 40
1.0
 10
58.5494069575
 20
95.9448547371
 30
0.0
 10
57.956498446
 20
95.9400805896
 30
0.0
 10
56.7744389139
 20
95.8791184685
 30
0.0
 10
55.0155160066
 20
95.6247780523
 30
0.0
 10
53.2790622776
 20
95.2273167607
 30
0.0
 10
50.9947518465
 20
94.5307544124
 30
0.0
 10
48.2465072213
 20
93.4083751456
 30
0.0
 10
46.1400216495
 20
92.3294135744
 30
0.0
 10
45.1140675174
 20
91.768419389
 30
0.0
  0
SPLINE
  5
3CF
100
AcDbEntity
  8
0
100
AcDbSpline
 62
7
  6
BYLAYER
 70
0
 71
3
 72
11
 73
7
 74
0
 42
0.0000001
 43
0.0000001
 44
0.0000000001
 40
0.0
 40
0.0
 40
0.0
 40
0.0
 40
0.2742465063
 40
0.5331423171
 40
0.7734145557
 40
1.0
 40
1.0
 40
1.0
 40
1.0
 10
74.9836983862
 20
101.4153970668
 30
0.0
 10
74.9371443496
 20
101.4422744444
 30
0.0
 10
74.8423780508
 20
101.4876388444
 30
0.0
 10
74.6943825244
 20
101.5260991869
 30
0.0
 10
74.5502124471
 20
101.5246787335
 30
0.0
 10
74.4616028598
 20
101.4942403003
 30
0.0
 10
74.4230459781
 20
101.4721965411
 30
0.0
  0
SPLINE
  5
3D0
100
AcDbEntity
  8
0
100
AcDbSpline
 62
7
  6
BYLAYER
 70
0
 71
3
 72
25
 73
21
 74
0
 42
0.0000001
 43
0.0000001
 44
0.0000000001
 40
0.0
 40
0.0
 40
0.0
 40
0.0
 40
0.13843486
 40
0.2762131215
 40
0.3443042414
 40
0.4114939795
 40
0.477458639
 40
0.5419217652
 40
0.6047319477
 40
0.6659949874
 40
0.6961359643
 40
0.7259939391
 40
0.7555823072
 40
0.7848802934
 40
0.8137545154
 40
0.8420756804
 40
0.869766564
 40
0.8968102231
 40
0.9492228521
 40
1.0
 40
1.0
 40
1.0
 40
1.0
 10
79.587827225
 20
133.8478793475
 30
0.0
 10
81.8616826041
 20
135.2705820257
 30
0.0
 10
86.3860117553
 20
138.1290477478
 30
0.0
 10
92.0761029456
 20
141.6131585014
 30
0.0
 10
96.6671474883
 20
144.2434698051
 30
0.0
 10
100.0998077966
 20
146.0941856632
 30
0.0
 10
103.5292708623
 20
147.7991240184
 30
0.0
 10
106.9515982008
 20
149.3209377464
 30
0.0
 10
110.357064261
 20
150.6465201822
 30
0.0
 10
113.189540079
 20
151.6010566437
 30
0.0
 10
115.4374911003
 20
152.2847103694
 30
0.0
 10
117.1066668253
 20
152.7613859115
 30
0.0
 10
118.7691505749
 20
153.2009107521
 30
0.0
 10
120.4236017614
 20
153.5946356562
 30
0.0
 10
122.0675769892
 20
153.9227614722
 30
0.0
 10
123.6954111178
 20
154.1633788949
 30
0.0
 10
125.2994020501
 20
154.3061622688
 30
0.0
 10
127.3762946832
 20
154.3538176906
 30
0.0
 10
129.8994494751
 20
154.1581828083
 30
0.0
 10
131.860098251
 20
153.7086961843
 30
0.0
 10
132.791168616
 20
153.3908230134
 30
0.0
  0
SPLINE
  5
3D1
100
AcDbEntity
  8
0
100
AcDbSpline
 62
7
  6
BYLAYER
 70
0
 71
3
 72
9
 73
5
 74
0
 42
0.0000001
 43
0.0000001
 44
0.0000000001
 40
0.0
 40
0.0
 40
0.0
 40
0.0
 40
0.2509108441
 40
1.0
 40
1.0
 40
1.0
 40
1.0
 10
132.791168616
 20
153.3908230134
 30
0.0
 10
132.915434581
 20
153.3483978458
 30
0.0
 10
133.4083111495
 20
153.1724620517
 30
0.0
 10
133.891191078
 20
152.9681335743
 30
0.0
 10
134.2443675014
 20
152.7980006999
 30
0.0
  0
SPLINE
  5
3D2
100
AcDbEntity
  8
0
100
AcDbSpline
 62
7
  6
BYLAYER
 70
0
 71
3
 72
11
 73
7
 74
0
 42
0.0000001
 43
0.0000001
 44
0.0000000001
 40
0.0
 40
0.0
 40
0.0
 40
0.0
 40
0.2512562771
 40
0.513760839
 40
0.768950491
 40
1.0
 40
1.0
 40
1.0
 40
1.0
 10
78.407095037
 20
99.9111476674
 30
0.0
 10
78.3875596358
 20
100.0286798275
 30
0.0
 10
78.3182306513
 20
100.2645568073
 30
0.0
 10
78.1481271069
 20
100.5894791188
 30
0.0
 10
77.9250102396
 20
100.8684526598
 30
0.0
 10
77.7428770433
 20
101.014699809
 30
0.0
 10
77.6479778663
 20
101.0694549244
 30
0.0
  0
SPLINE
  5
3D3
100
AcDbEntity
  8
0
100
AcDbSpline
 62
7
  6
BYLAYER
 70
0
 71
3
 72
11
 73
7
 74
0
 42
0.0000001
 43
0.0000001
 44
0.0000000001
 40
0.0
 40
0.0
 40
0.0
 40
0.0
 40
0.2213503007
 40
0.4917056417
 40
0.7669662585
 40
1.0
 40
1.0
 40
1.0
 40
1.0
 10
67.4161727564
 20
95.1621547517
 30
0.0
 10
67.5214896395
 20
95.1013513966
 30
0.0
 10
67.733077267
 20
94.9272239317
 30
0.0
 10
67.9874803651
 20
94.586845443
 30
0.0
 10
68.1620999091
 20
94.1924969593
 30
0.0
 10
68.2115421755
 20
93.9131982159
 30
0.0
 10
68.2116276405
 20
93.7851706453
 30
0.0
  0
SPLINE
  5
3D4
100
AcDbEntity
  8
0
100
AcDbSpline
 62
7
  6
BYLAYER
 70
0
 71
3
 72
14
 73
10
 74
0
 42
0.0000001
 43
0.0000001
 44
0.0000000001
 40
0.0
 40
0.0
 40
0.0
 40
0.0
 40
0.1304351582
 40
0.2625128554
 40
0.3929621109
 40
0.5183730493
 40
0.6397999038
 40
0.7604637189
 40
1.0
 40
1.0
 40
1.0
 40
1.0
 10
67.8618882332
 20
93.5877503356
 30
0.0
 10
67.2646994417
 20
93.2600397908
 30
0.0
 10
66.0286617669
 20
92.6628132339
 30
0.0
 10
64.1340872287
 20
91.8735059139
 30
0.0
 10
62.2499295512
 20
91.1290740019
 30
0.0
 10
60.4294556392
 20
90.3734822443
 30
0.0
 10
58.703279071
 20
89.5323276032
 30
0.0
 10
56.4837010453
 20
88.3485314579
 30
0.0
 10
54.8537134296
 20
87.4088390222
 30
0.0
 10
53.7703726601
 20
86.7832879639
 30
0.0
  0
SPLINE
  5
3D5
100
AcDbEntity
  8
0
100
AcDbSpline
 62
7
  6
BYLAYER
 70
0
 71
3
 72
24
 73
20
 74
0
 42
0.0000001
 43
0.0000001
 44
0.0000000001
 40
0.0
 40
0.0
 40
0.0
 40
0.0
 40
0.0690013229
 40
0.1382510344
 40
0.2076380024
 40
0.276615757
 40
0.3447610371
 40
0.4117995891
 40
0.4774762597
 40
0.5417110518
 40
0.6045244321
 40
0.6660274282
 40
0.6963335579
 40
0.726358153
 40
0.7853723552
 40
0.8424197383
 40
0.8971230211
 40
0.9495162905
 40
1.0
 40
1.0
 40
1.0
 40
1.0
 10
81.286843969
 20
132.8203966029
 30
0.0
 10
82.4353928648
 20
133.5303481417
 30
0.0
 10
84.7317497394
 20
134.960718303
 30
0.0
 10
88.1680260654
 20
137.1289742668
 30
0.0
 10
91.6078607327
 20
139.2908580248
 30
0.0
 10
95.0673524638
 20
141.3801273239
 30
0.0
 10
98.5360834972
 20
143.3632219553
 30
0.0
 10
102.0042318338
 20
145.2144297482
 30
0.0
 10
105.4705208045
 20
146.9014629007
 30
0.0
 10
108.9257776863
 20
148.4154423075
 30
0.0
 10
112.3640716266
 20
149.7568670277
 30
0.0
 10
115.2263243838
 20
150.740700417
 30
0.0
 10
117.503164427
 20
151.4483015659
 30
0.0
 10
119.7469966674
 20
152.0961883638
 30
0.0
 10
122.5224623299
 20
152.7886170639
 30
0.0
 10
125.8210652489
 20
153.350161963
 30
0.0
 10
129.0363592106
 20
153.54233232
 30
0.0
 10
132.1211660892
 20
153.2693907226
 30
0.0
 10
134.0737100078
 20
152.706734819
 30
0.0
 10
134.98318611
 20
152.3210037947
 30
0.0
  0
SPLINE
  5
3D6
100
AcDbEntity
  8
0
100
AcDbSpline
 62
7
  6
BYLAYER
 70
0
 71
3
 72
11
 73
7
 74
0
 42
0.0000001
 43
0.0000001
 44
0.0000000001
 40
0.0
 40
0.0
 40
0.0
 40
0.0
 40
0.2315753147
 40
0.4745106637
 40
0.7317540137
 40
1.0
 40
1.0
 40
1.0
 40
1.0
 10
66.8546675533
 20
95.2183473039
 30
0.0
 10
66.894186896
 20
95.2408272453
 30
0.0
 10
66.9844229335
 20
95.2718418095
 30
0.0
 10
67.1300790278
 20
95.2724408107
 30
0.0
 10
67.27717803
 20
95.2335864574
 30
0.0
 10
67.3705630227
 20
95.1884869502
 30
0.0
 10
67.4161727583
 20
95.1621547528
 30
0.0
  0
SPLINE
  5
3D7
100
AcDbEntity
  8
0
100
AcDbSpline
 62
7
  6
BYLAYER
 70
0
 71
3
 72
9
 73
5
 74
0
 42
0.0000001
 43
0.0000001
 44
0.0000000001
 40
0.0
 40
0.0
 40
0.0
 40
0.0
 40
0.5413660547
 40
1.0
 40
1.0
 40
1.0
 40
1.0
 10
77.6479884765
 20
101.0716659834
 30
0.0
 10
77.5714991849
 20
101.1158260915
 30
0.0
 10
77.4188548348
 20
101.1811923892
 30
0.0
 10
77.2490410505
 20
101.1834281468
 30
0.0
 10
77.1767570145
 20
101.164096948
 30
0.0
  0
SPLINE
  5
3D8
100
AcDbEntity
  8
0
100
AcDbSpline
 62
7
  6
BYLAYER
 70
0
 71
3
 72
63
 73
59
 74
0
 42
0.0000001
 43
0.0000001
 44
0.0000000001
 40
0.0
 40
0.0
 40
0.0
 40
0.0
 40
0.0232354824
 40
0.0352742391
 40
0.0477112111
 40
0.0541199813
 40
0.0606796451
 40
0.0673215777
 40
0.0739749082
 40
0.0806624557
 40
0.0876287872
 40
0.0950724733
 40
0.1029957708
 40
0.120046396
 40
0.1381947377
 40
0.1567111415
 40
0.1754075847
 40
0.1943160387
 40
0.2133560174
 40
0.2514262944
 40
0.2890715469
 40
0.3258310493
 40
0.3615829354
 40
0.3964732502
 40
0.4305749004
 40
0.4639075244
 40
0.4966023972
 40
0.5288543375
 40
0.5608356538
 40
0.5927171741
 40
0.624373288
 40
0.6553662303
 40
0.685325399
 40
0.6998209063
 40
0.7139553524
 40
0.727714989
 40
0.7410866607
 40
0.7476272559
 40
0.7541160911
 40
0.7606568812
 40
0.7673313549
 40
0.7741166411
 40
0.7809438252
 40
0.7946570165
 40
0.8083926376
 40
0.8221089637
 40
0.8358217101
 40
0.8495641449
 40
0.8633470533
 40
0.877173421
 40
0.8910756431
 40
0.9052456254
 40
0.9198437823
 40
0.9350459969
 40
0.951093894
 40
0.9678067124
 40
0.9843199548
 40
1.0
 40
1.0
 40
1.0
 40
1.0
 10
137.06128585
 20
148.312825192
 30
0.0
 10
137.5456987678
 20
147.8552223307
 30
0.0
 10
138.2118351431
 20
147.0811471019
 30
0.0
 10
138.9306522773
 20
145.9147944544
 30
0.0
 10
139.3135218327
 20
145.113897124
 30
0.0
 10
139.5752569589
 20
144.4336843538
 30
0.0
 10
139.7513221718
 20
143.8992722315
 30
0.0
 10
139.8997502928
 20
143.3492015308
 30
0.0
 10
140.0122092269
 20
142.7866806511
 30
0.0
 10
140.0752277922
 20
142.2067445703
 30
0.0
 10
140.0786163418
 20
141.6007270823
 30
0.0
 10
140.0261187483
 20
140.9617292429
 30
0.0
 10
139.8847487295
 20
140.0422077195
 30
0.0
 10
139.5851347696
 20
138.8396968772
 30
0.0
 10
139.0815666514
 20
137.382288309
 30
0.0
 10
138.4545045685
 20
135.9222524998
 30
0.0
 10
137.7254476465
 20
134.4863041912
 30
0.0
 10
136.9131768033
 20
133.0786511123
 30
0.0
 10
135.7390804457
 20
131.2410228791
 30
0.0
 10
134.1439314713
 20
129.037478364
 30
0.0
 10
132.0652444707
 20
126.5673913367
 30
0.0
 10
129.8658020068
 20
124.2961001528
 30
0.0
 10
127.5798204675
 20
122.2286436865
 30
0.0
 10
125.2362254686
 20
120.3470609553
 30
0.0
 10
122.8576886858
 20
118.6265124831
 30
0.0
 10
120.4629323002
 20
117.0405322425
 30
0.0
 10
118.0583273129
 20
115.5690638513
 30
0.0
 10
115.6432151548
 20
114.1918805908
 30
0.0
 10
113.2157546721
 20
112.8854270133
 30
0.0
 10
110.7816697651
 20
111.6284913185
 30
0.0
 10
108.3588457787
 20
110.4117003933
 30
0.0
 10
105.9539547234
 20
109.2835013405
 30
0.0
 10
103.9561659279
 20
108.4493156442
 30
0.0
 10
102.3761588627
 20
107.8765868687
 30
0.0
 10
101.218151793
 20
107.5054064765
 30
0.0
 10
100.0759584651
 20
107.1939491261
 30
0.0
 10
99.1319931944
 20
106.9877914379
 30
0.0
 10
98.3857589774
 20
106.8589114686
 30
0.0
 10
97.8297024945
 20
106.7820185012
 30
0.0
 10
97.2683188016
 20
106.7172666645
 30
0.0
 10
96.6984202046
 20
106.6521833172
 30
0.0
 10
96.1214307851
 20
106.5771107074
 30
0.0
 10
95.3464628462
 20
106.4603148736
 30
0.0
 10
94.3777937826
 20
106.2924278153
 30
0.0
 10
93.2181860864
 20
106.0707967797
 30
0.0
 10
92.0597749328
 20
105.8431227762
 30
0.0
 10
90.9018836208
 20
105.6118174308
 30
0.0
 10
89.7428630354
 20
105.3764460163
 30
0.0
 10
88.58147626
 20
105.1363915703
 30
0.0
 10
87.4162832082
 20
104.8921332037
 30
0.0
 10
86.2403654301
 20
104.6449746174
 30
0.0
 10
85.0456109943
 20
104.3797227643
 30
0.0
 10
83.8252140889
 20
104.0600766584
 30
0.0
 10
82.5750899084
 20
103.6491356168
 30
0.0
 10
81.3051520947
 20
103.1152819833
 30
0.0
 10
80.0586173895
 20
102.4468363859
 30
0.0
 10
78.8493476725
 20
101.7367721727
 30
0.0
 10
78.0465448097
 20
101.279975708
 30
0.0
 10
77.6480061649
 20
101.0716746483
 30
0.0
  0
ENDSEC
  0
SECTION
  2
OBJECTS
  0
DICTIONARY
  5
C
100
AcDbDictionary
280
0
281
1
  3
ACAD_GROUP
350
D
  3
ACAD_MLINESTYLE
350
17
  3
ACAD_LAYOUT
350
1A
  3
ACAD_PLOTSETTINGS
350
19
  3
ACAD_PLOTSTYLENAME
350
E
  0
DICTIONARY
  5
D
102
{ACAD_REACTORS
330
C
102
}
100
AcDbDictionary
280
0
281
1
  0
ACDBDICTIONARYWDFLT
  5
E
102
{ACAD_REACTORS
330
C
102
}
100
AcDbDictionary
281
1
  3
Normal
350
F
100
AcDbDictionaryWithDefault
340
F
  0
DICTIONARY
  5
17
102
{ACAD_REACTORS
330
C
102
}
100
AcDbDictionary
280
0
281
1
  3
Standard
350
18
  0
DICTIONARY
  5
19
102
{ACAD_REACTORS
330
C
102
}
100
AcDbDictionary
281
1
  0
DICTIONARY
  5
1A
102
{ACAD_REACTORS
330
C
102
}
100
AcDbDictionary
281
1
  3
Model
350
3D9
  3
Layout1
350
3DA
  0
ACDBPLACEHOLDER
  5
F
102
{ACAD_REACTORS
330
E
102
}
  0
MLINESTYLE
  5
18
102
{ACAD_REACTORS
330
17
102
}
100
AcDbMlineStyle
  2
STANDARD
 70
0
  3

 62
256
 51
90.0
 52
90.0
 71
2
 49
0.5
 62
256
  6
BYLAYER
 49
-0.5
 62
256
  6
BYLAYER
  0
LAYOUT
  5
3D9
102
{ACAD_REACTORS
330
1A
102
}
100
AcDbPlotSettings
  1

  2
none_device
  4

  6

 40
0.0
 41
0.0
 42
0.0
 43
0.0
 44
210.0
 45
297.0
 46
0.0
 47
0.0
 48
0.0
 49
0.0
140
0.0
141
0.0
142
1.0
143
1.0
 70
1024
 72
1
 73
0
 74
0
  7

 75
0
147
1.0
148
0.0
149
0.0
100
AcDbLayout
  1
Model
 70
0
 71
0
 10
0.0
 20
0.0
 11
210.0
 21
297.0
 12
0.0
 22
0.0
 32
0.0
 14
0.0
 24
0.0
 34
0.0
 15
0.0
 25
0.0
 35
0.0
146
0.0
 13
0.0
 23
0.0
 33
0.0
 16
1.0
 26
0.0
 36
0.0
 17
0.0
 27
1.0
 37
0.0
 76
0
330
210
345
0
346
0
  0
LAYOUT
  5
3DA
102
{ACAD_REACTORS
330
1A
102
}
100
AcDbPlotSettings
  1

  2
none_device
  4

  6

 40
0.0
 41
0.0
 42
0.0
 43
0.0
 44
210.0
 45
297.0
 46
0.0
 47
0.0
 48
0.0
 49
0.0
140
0.0
141
0.0
142
1.0
143
1.0
 70
0
 72
1
 73
0
 74
0
  7

 75
0
147
1.0
148
0.0
149
0.0
100
AcDbLayout
  1
Layout1
 70
0
 71
1
 10
0.0
 20
0.0
 11
210.0
 21
297.0
 12
0.0
 22
0.0
 32
0.0
 14
0.0
 24
0.0
 34
0.0
 15
0.0
 25
0.0
 35
0.0
146
0.0
 13
0.0
 23
0.0
 33
0.0
 16
1.0
 26
0.0
 36
0.0
 17
0.0
 27
1.0
 37
0.0
 76
0
330
211
345
0
346
0
  0
ENDSEC
  0
EOF
