999
DXF file: C:\Users\sesa63760\Dev\_Creo\CAD\MCADDE0000013_3D-CAD\drw0001_5.dxf
999
Pro/ENGINEER 2019471 by Parametric Technology Corporation
  0
SECTION
  2
HEADER
  9
$ACADVER
  1
AC1024
  9
$DWGCODEPAGE
  3
ANSI_1252
  9
$EXTMAX
 10
189.5188935603
 20
268.0338637496
 30
0.0
  9
$EXTMIN
 10
0.0
 20
0.0
 30
0.0
  9
$LIMMIN
 10
0.0
 20
0.0
  9
$LIMMAX
 10
189.5188935603
 20
268.0338637496
  9
$VIEWCTR
 10
94.7594467802
 20
134.0169318748
  9
$VIEWSIZE
 40
268.0338637496
  9
$CLAYER
  8
0
  9
$LTSCALE
 40
17.4718370444
  9
$CELTYPE
  6
BYLAYER
  9
$DIMSCALE
 40
1.0
  9
$DIMASZ
 40
2.2561773043
  9
$DIMEXO
 40
1.0
  9
$DIMDLI
 40
12.0714510489
  9
$DIMEXE
 40
1.0
  9
$DIMCEN
 40
2.85902788
  9
$DIMLFAC
 40
1.0
  9
$DIMBLK
  1
_FILLED
  9
$DIMALT
 70
0
  9
$DIMALTF
 40
0.0393700787
  9
$DIMTXT
 40
3.158648226
  9
$DIMTOL
 70
1
  9
$DIMLIM
 70
0
  9
$DIMTFAC
 40
1.0
  9
$DIMTP
 40
0.01
  9
$DIMTM
 40
0.01
  9
$DIMGAP
 40
0.625
  9
$DIMDSEP
 70
46
  9
$AUNITS
 70
0
  9
$PDMODE
 70
3
  9
$PDSIZE
 40
0.3125
  9
$HANDSEED
  5
280
  9
$TILEMODE
 70
1
  9
$MEASUREMENT
 70
1
  9
$INSUNITS
 70
4
  0
ENDSEC
  0
SECTION
  2
CLASSES
  0
CLASS
  1
ACDBDICTIONARYWDFLT
  2
AcDbDictionaryWithDefault
  3
AutoCAD 2000
 90
0
 91
1
280
0
281
0
  0
CLASS
  1
ACDBPLACEHOLDER
  2
AcDbPlaceHolder
  3
AutoCAD 2000
 90
0
 91
1
280
0
281
0
  0
CLASS
  1
LAYOUT
  2
AcDbLayout
  3
AutoCAD 2000
 90
0
 91
0
280
0
281
0
  0
ENDSEC
  0
SECTION
  2
TABLES
  0
TABLE
  2
VPORT
  5
8
100
AcDbSymbolTable
 70
2
  0
VPORT
  5
1F4
100
AcDbSymbolTableRecord
100
AcDbViewportTableRecord
  2
*ACTIVE
 70
0
 10
0.0
 20
0.0
 11
1.0
 21
1.0
 12
94.7594467802
 22
134.0169318748
 13
0.0
 23
0.0
 14
1.0
 24
1.0
 15
0.0
 25
0.0
 16
0.0
 26
0.0
 36
1.0
 17
0.0
 27
0.0
 37
0.0
 40
268.0338637496
 41
0.7070707071
 42
50.0
 43
0.0
 44
0.0
 50
0.0
 51
0.0
 71
0
 72
100
 73
1
 74
1
 75
0
 76
0
 77
0
 78
0
  0
ENDTAB
  0
TABLE
  2
LTYPE
  5
5
100
AcDbSymbolTable
 70
6
  0
LTYPE
  5
14
100
AcDbSymbolTableRecord
100
AcDbLinetypeTableRecord
  2
BYBLOCK
 70
0
  3

 72
65
 73
0
 40
0.0
  0
LTYPE
  5
15
100
AcDbSymbolTableRecord
100
AcDbLinetypeTableRecord
  2
BYLAYER
 70
0
  3

 72
65
 73
0
 40
0.0
  0
LTYPE
  5
16
100
AcDbSymbolTableRecord
100
AcDbLinetypeTableRecord
  2
CONTINUOUS
 70
64
  3
Solid line
 72
65
 73
0
 40
0.0
  0
LTYPE
  5
1F5
100
AcDbSymbolTableRecord
100
AcDbLinetypeTableRecord
  2
CENTER
 70
64
  3
____ _ ____ _ ____ _ ____ _ ____ _ ____ _ ____
 72
65
 73
4
 40
0.6
 49
0.375
 74
0
 49
-0.075
 74
0
 49
0.075
 74
0
 49
-0.075
 74
0
  0
LTYPE
  5
1F6
100
AcDbSymbolTableRecord
100
AcDbLinetypeTableRecord
  2
HIDDEN
 70
64
  3
- - - - - - - - - - - - - - - - - - - -
 72
65
 73
2
 40
0.2
 49
0.1
 74
0
 49
-0.1
 74
0
  0
LTYPE
  5
1F7
100
AcDbSymbolTableRecord
100
AcDbLinetypeTableRecord
  2
PHANTOM
 70
64
  3
_____ _ _ _____ _ _ _____ _ _ _____
 72
65
 73
6
 40
0.8
 49
0.45
 74
0
 49
-0.05
 74
0
 49
0.1
 74
0
 49
-0.05
 74
0
 49
0.1
 74
0
 49
-0.05
 74
0
  0
LTYPE
  5
1F8
100
AcDbSymbolTableRecord
100
AcDbLinetypeTableRecord
  2
DOT
 70
64
  3
. . . . . . . . . . . . . . . . . . . .
 72
65
 73
2
 40
0.2
 49
0.1
 74
0
 49
-0.1
 74
0
  0
LTYPE
  5
1F9
100
AcDbSymbolTableRecord
100
AcDbLinetypeTableRecord
  2
DASHED
 70
64
  3
- - - - - - - - - - - - - - - - - - - -
 72
65
 73
2
 40
0.2
 49
0.1
 74
0
 49
-0.1
 74
0
  0
ENDTAB
  0
TABLE
  2
LAYER
  5
2
100
AcDbSymbolTable
 70
36
  0
LAYER
  5
10
100
AcDbSymbolTableRecord
100
AcDbLayerTableRecord
  2
0
 70
0
 62
7
  6
CONTINUOUS
370
-3
390
F
  0
LAYER
  5
1FA
100
AcDbSymbolTableRecord
100
AcDbLayerTableRecord
  2
DEFAULT_1
 70
0
 62
7
  6
CENTER
370
-3
390
F
  0
LAYER
  5
1FB
100
AcDbSymbolTableRecord
100
AcDbLayerTableRecord
  2
DEFAULT_2
 70
0
 62
7
  6
HIDDEN
370
-3
390
F
  0
LAYER
  5
1FC
100
AcDbSymbolTableRecord
100
AcDbLayerTableRecord
  2
DEFAULT_3
 70
0
 62
7
  6
PHANTOM
370
-3
390
F
  0
LAYER
  5
1FD
100
AcDbSymbolTableRecord
100
AcDbLayerTableRecord
  2
00_COMPONENTS
 70
0
 62
7
  6
CONTINUOUS
370
-3
390
F
  0
LAYER
  5
1FE
100
AcDbSymbolTableRecord
100
AcDbLayerTableRecord
  2
01_1_DEFAULT_DATUMS
 70
0
 62
7
  6
CONTINUOUS
370
-3
390
F
  0
LAYER
  5
1FF
100
AcDbSymbolTableRecord
100
AcDbLayerTableRecord
  2
01_PLANES
 70
0
 62
7
  6
CONTINUOUS
370
-3
390
F
  0
LAYER
  5
200
100
AcDbSymbolTableRecord
100
AcDbLayerTableRecord
  2
02_COORD_SYS
 70
0
 62
7
  6
CONTINUOUS
370
-3
390
F
  0
LAYER
  5
201
100
AcDbSymbolTableRecord
100
AcDbLayerTableRecord
  2
03_AXES
 70
0
 62
7
  6
CONTINUOUS
370
-3
390
F
  0
LAYER
  5
202
100
AcDbSymbolTableRecord
100
AcDbLayerTableRecord
  2
04_POINTS
 70
0
 62
7
  6
CONTINUOUS
370
-3
390
F
  0
LAYER
  5
203
100
AcDbSymbolTableRecord
100
AcDbLayerTableRecord
  2
05_CURVES
 70
0
 62
7
  6
CONTINUOUS
370
-3
390
F
  0
LAYER
  5
204
100
AcDbSymbolTableRecord
100
AcDbLayerTableRecord
  2
06_SURFS
 70
0
 62
7
  6
CONTINUOUS
370
-3
390
F
  0
LAYER
  5
205
100
AcDbSymbolTableRecord
100
AcDbLayerTableRecord
  2
07_COSMETICS
 70
0
 62
7
  6
CONTINUOUS
370
-3
390
F
  0
LAYER
  5
206
100
AcDbSymbolTableRecord
100
AcDbLayerTableRecord
  2
10_NOTES
 70
0
 62
7
  6
CONTINUOUS
370
-3
390
F
  0
LAYER
  5
207
100
AcDbSymbolTableRecord
100
AcDbLayerTableRecord
  2
11_NOTES_PUB
 70
0
 62
7
  6
CONTINUOUS
370
-3
390
F
  0
LAYER
  5
208
100
AcDbSymbolTableRecord
100
AcDbLayerTableRecord
  2
13_REF_GTOL
 70
0
 62
7
  6
CONTINUOUS
370
-3
390
F
  0
LAYER
  5
209
100
AcDbSymbolTableRecord
100
AcDbLayerTableRecord
  2
16_MISC
 70
0
 62
7
  6
CONTINUOUS
370
-3
390
F
  0
LAYER
  5
20A
100
AcDbSymbolTableRecord
100
AcDbLayerTableRecord
  2
17_NO_PRINT
 70
0
 62
7
  6
CONTINUOUS
370
-3
390
F
  0
LAYER
  5
20B
100
AcDbSymbolTableRecord
100
AcDbLayerTableRecord
  2
18_DATUM_CAMS_JOINTS
 70
0
 62
7
  6
CONTINUOUS
370
-3
390
F
  0
LAYER
  5
20C
100
AcDbSymbolTableRecord
100
AcDbLayerTableRecord
  2
19_DATUM_FUNCTIONAL
 70
0
 62
7
  6
CONTINUOUS
370
-3
390
F
  0
LAYER
  5
20D
100
AcDbSymbolTableRecord
100
AcDbLayerTableRecord
  2
20_DATUM_KINEMATIC_SCHEME
 70
0
 62
7
  6
CONTINUOUS
370
-3
390
F
  0
ENDTAB
  0
TABLE
  2
STYLE
  5
3
100
AcDbSymbolTable
 70
1
  0
STYLE
  5
11
100
AcDbSymbolTableRecord
100
AcDbTextStyleTableRecord
  2
STANDARD
 70
0
 40
0.0
 41
1.0
 50
0.0
 71
0
 42
0.2
  3
ARIAL.TTF
  4

  0
STYLE
  5
20E
100
AcDbSymbolTableRecord
100
AcDbTextStyleTableRecord
  2
TEXTSTYLE_1
 70
0
 40
0.0
 41
0.8
 50
0.0
 71
0
 42
0.2
  3
gdt
  4

  0
ENDTAB
  0
TABLE
  2
VIEW
  5
6
100
AcDbSymbolTable
 70
0
  0
ENDTAB
  0
TABLE
  2
UCS
  5
7
100
AcDbSymbolTable
 70
0
  0
ENDTAB
  0
TABLE
  2
APPID
  5
9
100
AcDbSymbolTable
 70
1
  0
APPID
  5
20F
100
AcDbSymbolTableRecord
100
AcDbRegAppTableRecord
  2
ACAD
 70
0
  0
ENDTAB
  0
TABLE
  2
BLOCK_RECORD
  5
1
100
AcDbSymbolTable
 70
0
  0
BLOCK_RECORD
  5
210
100
AcDbSymbolTableRecord
100
AcDbBlockTableRecord
  2
*Model_Space
  0
BLOCK_RECORD
  5
211
100
AcDbSymbolTableRecord
100
AcDbBlockTableRecord
  2
*Paper_Space
  0
BLOCK_RECORD
  5
212
100
AcDbSymbolTableRecord
100
AcDbBlockTableRecord
  2
_FILLED
  0
ENDTAB
  0
TABLE
  2
DIMSTYLE
  5
A
100
AcDbSymbolTable
 70
1
100
AcDbDimStyleTable
 71
0
  0
DIMSTYLE
105
213
100
AcDbSymbolTableRecord
100
AcDbDimStyleTableRecord
  2
STANDARD
 70
0
  3

  4

 40
1.0
 41
2.2561773043
 42
1.0
 43
0.38
 44
1.0
 45
0.0
 46
0.0
 47
0.01
 48
0.01
140
3.158648226
141
0.09
142
0.0
143
25.4
144
1.0
145
0.0
146
1.0
147
0.625
 71
1
 72
0
 73
0
 74
0
 75
0
 76
0
 77
1
 78
8
 79
2
170
0
171
1
172
0
173
0
174
0
175
0
176
0
177
0
178
0
270
2
179
2
271
2
272
2
273
2
274
2
275
0
280
0
281
0
282
0
283
1
284
8
285
0
286
0
287
3
288
0
340
11
278
46
341
212
342
212
343
212
344
212
  0
ENDTAB
  0
ENDSEC
  0
SECTION
  2
BLOCKS
  0
BLOCK
  5
20
100
AcDbEntity
  8
0
100
AcDbBlockBegin
  2
*Model_Space
 70
0
 10
0.0
 20
0.0
 30
0.0
  3
*Model_Space
  1

  0
ENDBLK
  5
21
100
AcDbEntity
  8
0
100
AcDbBlockEnd
  0
BLOCK
  5
1C
100
AcDbEntity
  8
0
100
AcDbBlockBegin
  2
*Paper_Space
 70
0
 10
0.0
 20
0.0
 30
0.0
  3
*Paper_Space
  1

  0
ENDBLK
  5
1D
100
AcDbEntity
  8
0
100
AcDbBlockEnd
  0
BLOCK
  5
214
100
AcDbEntity
  8
0
100
AcDbBlockBegin
  2
_FILLED
 70
64
 10
0.0
 20
0.0
  3
_FILLED
  1

  0
SOLID
  5
215
100
AcDbEntity
  8
0
  6
BYBLOCK
 62
0
100
AcDbTrace
 10
0.0
 20
0.0
 11
-1.0
 21
0.25
 12
-1.0
 22
-0.25
 13
-1.0
 23
-0.25
  0
ENDBLK
  5
216
100
AcDbEntity
  8
0
  6
BYBLOCK
 62
0
100
AcDbBlockEnd
  0
ENDSEC
  0
SECTION
  2
ENTITIES
  0
LINE
  5
217
100
AcDbEntity
  8
0
100
AcDbLine
 62
7
  6
BYLAYER
 10
56.7801523645
 20
102.7931107838
 11
57.0154009384
 21
102.7891155694
  0
LINE
  5
218
100
AcDbEntity
  8
0
100
AcDbLine
 62
7
  6
BYLAYER
 10
56.7834674061
 20
102.9754564638
 11
57.0181225127
 21
102.9614565931
  0
LINE
  5
219
100
AcDbEntity
  8
0
100
AcDbLine
 62
7
  6
BYLAYER
 10
59.9618807338
 20
102.7858276237
 11
68.0831050572
 21
103.6066066662
  0
LINE
  5
21A
100
AcDbEntity
  8
0
100
AcDbLine
 62
7
  6
BYLAYER
 10
56.7890785164
 20
103.0695055958
 11
57.0278327715
 21
103.0779617478
  0
LINE
  5
21B
100
AcDbEntity
  8
0
100
AcDbLine
 62
7
  6
BYLAYER
 10
56.7890785164
 20
103.0695055958
 11
57.0278366881
 21
103.0693423441
  0
LINE
  5
21C
100
AcDbEntity
  8
0
100
AcDbLine
 62
7
  6
BYLAYER
 10
113.7374542195
 20
116.1019839252
 11
113.8732781802
 21
116.1073207699
  0
LINE
  5
21D
100
AcDbEntity
  8
0
100
AcDbLine
 62
7
  6
BYLAYER
 10
146.4385056107
 20
113.671548083
 11
159.3762671652
 21
113.671548083
  0
LINE
  5
21E
100
AcDbEntity
  8
0
100
AcDbLine
 62
7
  6
BYLAYER
 10
113.8732052141
 20
113.8591777752
 11
122.1234149548
 21
113.8591777752
  0
LINE
  5
21F
100
AcDbEntity
  8
0
100
AcDbLine
 62
7
  6
BYLAYER
 10
122.1234165814
 20
113.8715466908
 11
146.4348945621
 21
113.8715448184
  0
LINE
  5
220
100
AcDbEntity
  8
0
100
AcDbLine
 62
7
  6
BYLAYER
 10
159.3158642236
 20
114.161548083
 11
172.6762676376
 21
114.161548083
  0
LINE
  5
221
100
AcDbEntity
  8
0
100
AcDbLine
 62
7
  6
BYLAYER
 10
146.4323391893
 20
114.671548083
 11
159.3158644738
 21
114.6715480831
  0
LINE
  5
222
100
AcDbEntity
  8
0
100
AcDbLine
 62
7
  6
BYLAYER
 10
159.6158642236
 20
114.811548083
 11
172.6762676376
 21
114.811548083
  0
LINE
  5
223
100
AcDbEntity
  8
0
100
AcDbLine
 62
7
  6
BYLAYER
 10
122.1234165152
 20
114.9965353893
 11
145.5261690845
 21
114.9965353893
  0
LINE
  5
224
100
AcDbEntity
  8
0
100
AcDbLine
 62
7
  6
BYLAYER
 10
159.3158644738
 20
115.371548083
 11
146.4323391893
 21
115.3715480831
  0
LINE
  5
225
100
AcDbEntity
  8
0
100
AcDbLine
 62
7
  6
BYLAYER
 10
159.3158642236
 20
115.881548083
 11
159.6762676376
 21
115.881548083
  0
LINE
  5
226
100
AcDbEntity
  8
0
100
AcDbLine
 62
7
  6
BYLAYER
 10
113.8732052141
 20
116.1091777752
 11
122.1234149548
 21
116.1091777752
  0
LINE
  5
227
100
AcDbEntity
  8
0
100
AcDbLine
 62
7
  6
BYLAYER
 10
146.4344641962
 20
116.1215448184
 11
122.1234133283
 21
116.1215429449
  0
LINE
  5
228
100
AcDbEntity
  8
0
100
AcDbLine
 62
7
  6
BYLAYER
 10
127.4317052543
 20
116.1242452798
 11
123.7705939515
 21
116.1242452798
  0
LINE
  5
229
100
AcDbEntity
  8
0
100
AcDbLine
 62
7
  6
BYLAYER
 10
114.4295441421
 20
116.1291777752
 11
123.7706029684
 21
116.1291777752
  0
LINE
  5
22A
100
AcDbEntity
  8
0
100
AcDbLine
 62
7
  6
BYLAYER
 10
159.3762671652
 20
116.371548083
 11
146.4385056107
 21
116.371548083
  0
LINE
  5
22B
100
AcDbEntity
  8
0
100
AcDbLine
 62
7
  6
BYLAYER
 10
113.7375650022
 20
116.1308051668
 11
113.873358493
 21
116.1303047317
  0
LINE
  5
22C
100
AcDbEntity
  8
0
100
AcDbLine
 62
7
  6
BYLAYER
 10
113.8732052141
 20
116.1091777752
 11
113.8732052141
 21
113.8591777752
  0
LINE
  5
22D
100
AcDbEntity
  8
0
100
AcDbLine
 62
7
  6
BYLAYER
 10
114.4295441421
 20
116.1291777752
 11
114.4295441421
 21
116.1091777752
  0
LINE
  5
22E
100
AcDbEntity
  8
0
100
AcDbLine
 62
7
  6
BYLAYER
 10
160.0362676376
 20
165.4041777752
 11
160.6321444339
 21
165.9041777752
  0
LINE
  5
22F
100
AcDbEntity
  8
0
100
AcDbLine
 62
7
  6
BYLAYER
 10
162.9262676376
 20
146.3041777752
 11
120.7262676376
 21
146.3041777752
  0
LINE
  5
230
100
AcDbEntity
  8
0
100
AcDbLine
 62
7
  6
BYLAYER
 10
120.7262676376
 20
146.3041777752
 11
120.7262676376
 21
165.4041777752
  0
LINE
  5
231
100
AcDbEntity
  8
0
100
AcDbLine
 62
7
  6
BYLAYER
 10
122.1234149548
 20
113.8591777752
 11
122.1234149548
 21
116.1091777752
  0
LINE
  5
232
100
AcDbEntity
  8
0
100
AcDbLine
 62
7
  6
BYLAYER
 10
122.4262676376
 20
155.7573962982
 11
122.4262676376
 21
146.3041777752
  0
LINE
  5
233
100
AcDbEntity
  8
0
100
AcDbLine
 62
7
  6
BYLAYER
 10
123.2262676376
 20
155.6449636304
 11
123.2262676376
 21
146.3041777752
  0
LINE
  5
234
100
AcDbEntity
  8
0
100
AcDbLine
 62
7
  6
BYLAYER
 10
123.7706029684
 20
116.1215467726
 11
123.7706029684
 21
116.1291777752
  0
LINE
  5
235
100
AcDbEntity
  8
0
100
AcDbLine
 62
7
  6
BYLAYER
 10
123.2262676376
 20
155.6449636304
 11
120.7262676376
 21
155.9963157172
  0
LINE
  5
236
100
AcDbEntity
  8
0
100
AcDbLine
 62
7
  6
BYLAYER
 10
162.9262676376
 20
165.4041777752
 11
120.7262676376
 21
165.4041777752
  0
LINE
  5
237
100
AcDbEntity
  8
0
100
AcDbLine
 62
7
  6
BYLAYER
 10
160.6321444339
 20
165.9041777752
 11
163.380187389
 21
165.9041777752
  0
LINE
  5
238
100
AcDbEntity
  8
0
100
AcDbLine
 62
7
  6
BYLAYER
 10
163.4294047568
 20
160.2644260294
 11
162.9262676376
 21
159.6540718974
  0
LINE
  5
239
100
AcDbEntity
  8
0
100
AcDbLine
 62
7
  6
BYLAYER
 10
146.4323391893
 20
115.3715480831
 11
146.4323391893
 21
114.6715480829
  0
LINE
  5
23A
100
AcDbEntity
  8
0
100
AcDbLine
 62
7
  6
BYLAYER
 10
151.3465479122
 20
115.371548083
 11
151.3465479122
 21
114.671548083
  0
LINE
  5
23B
100
AcDbEntity
  8
0
100
AcDbLine
 62
7
  6
BYLAYER
 10
154.8158865504
 20
115.371548083
 11
154.8158865504
 21
114.671548083
  0
LINE
  5
23C
100
AcDbEntity
  8
0
100
AcDbLine
 62
7
  6
BYLAYER
 10
159.3158642236
 20
113.671548083
 11
159.3158642236
 21
116.371548083
  0
LINE
  5
23D
100
AcDbEntity
  8
0
100
AcDbLine
 62
7
  6
BYLAYER
 10
159.3762676376
 20
113.671548083
 11
159.3762676376
 21
114.1599118032
  0
LINE
  5
23E
100
AcDbEntity
  8
0
100
AcDbLine
 62
7
  6
BYLAYER
 10
159.3762676376
 20
115.881548083
 11
159.3762676376
 21
116.371548083
  0
LINE
  5
23F
100
AcDbEntity
  8
0
100
AcDbLine
 62
7
  6
BYLAYER
 10
159.6158642236
 20
114.161548083
 11
159.6158642236
 21
115.8814164122
  0
LINE
  5
240
100
AcDbEntity
  8
0
100
AcDbLine
 62
7
  6
BYLAYER
 10
159.6762676376
 20
114.811548083
 11
159.6762676376
 21
115.8814164122
  0
LINE
  5
241
100
AcDbEntity
  8
0
100
AcDbLine
 62
7
  6
BYLAYER
 10
162.9262676376
 20
146.3041777752
 11
162.9262676376
 21
165.4041777752
  0
LINE
  5
242
100
AcDbEntity
  8
0
100
AcDbLine
 62
7
  6
BYLAYER
 10
163.380187389
 20
165.9041777752
 11
163.4294047568
 21
160.2644260294
  0
LINE
  5
243
100
AcDbEntity
  8
0
100
AcDbLine
 62
7
  6
BYLAYER
 10
172.6158642236
 20
114.811548083
 11
172.6158642236
 21
114.161548083
  0
LINE
  5
244
100
AcDbEntity
  8
0
100
AcDbLine
 62
7
  6
BYLAYER
 10
172.6762676376
 20
114.811548083
 11
172.6762676376
 21
114.161548083
  0
ARC
  5
245
100
AcDbEntity
  8
0
100
AcDbCircle
 62
7
  6
BYLAYER
 10
120.4870299631
 20
343.0491760041
 40
190.7755648019
100
AcDbArc
 50
269.3261251529
 51
270.0718906077
  0
ARC
  5
246
100
AcDbEntity
  8
0
100
AcDbCircle
 62
7
  6
BYLAYER
 10
114.4739655316
 20
275.2998439866
 40
159.17067241
100
AcDbArc
 50
269.7838023199
 51
269.9840098799
  0
ARC
  5
247
100
AcDbEntity
  8
0
100
AcDbCircle
 62
7
  6
BYLAYER
 10
86.6913667377
 20
-1.9246180938
 40
152.8325904364
100
AcDbArc
 50
90.6519564828
 51
90.861136272
  0
ARC
  5
248
100
AcDbEntity
  8
0
100
AcDbCircle
 62
7
  6
BYLAYER
 10
87.5456578409
 20
21.4681349653
 40
129.5968162733
100
AcDbArc
 50
101.4539157632
 51
101.8395140996
  0
ARC
  5
249
100
AcDbEntity
  8
0
100
AcDbCircle
 62
7
  6
BYLAYER
 10
87.3000875633
 20
22.6787699292
 40
128.3615261445
100
AcDbArc
 50
101.141188336
 51
101.4537942811
  0
ARC
  5
24A
100
AcDbEntity
  8
0
100
AcDbCircle
 62
7
  6
BYLAYER
 10
87.0022912941
 20
24.1971632272
 40
126.8142060934
100
AcDbArc
 50
100.553261971
 51
101.1417355194
  0
ARC
  5
24B
100
AcDbEntity
  8
0
100
AcDbCircle
 62
7
  6
BYLAYER
 10
85.3601151774
 20
34.5686776064
 40
116.3108531687
100
AcDbArc
 50
93.3293826464
 51
96.8752335626
  0
ARC
  5
24C
100
AcDbEntity
  8
0
100
AcDbCircle
 62
7
  6
BYLAYER
 10
58.6005919847
 20
203.1120614974
 40
100.3354688549
100
AcDbArc
 50
269.0947514719
 51
270.7773770726
  0
ARC
  5
24D
100
AcDbEntity
  8
0
100
AcDbCircle
 62
7
  6
BYLAYER
 10
79.4263870285
 20
52.1785697377
 40
97.8347062615
100
AcDbArc
 50
105.1280070021
 51
105.8818100503
  0
ARC
  5
24E
100
AcDbEntity
  8
0
100
AcDbCircle
 62
7
  6
BYLAYER
 10
76.6412701474
 20
61.9557468828
 40
87.6685832424
100
AcDbArc
 50
105.879691484
 51
106.8350377505
  0
ARC
  5
24F
100
AcDbEntity
  8
0
100
AcDbCircle
 62
7
  6
BYLAYER
 10
53.9877561974
 20
154.1065123034
 40
51.0014873681
100
AcDbArc
 50
255.2287878757
 51
255.540885629
  0
ARC
  5
250
100
AcDbEntity
  8
0
100
AcDbCircle
 62
7
  6
BYLAYER
 10
59.0981935002
 20
106.4019559956
 40
41.9860486654
100
AcDbArc
 50
122.6421229551
 51
124.6922188572
  0
ARC
  5
251
100
AcDbEntity
  8
0
100
AcDbCircle
 62
7
  6
BYLAYER
 10
50.1798440499
 20
141.4995130957
 40
37.8280664969
100
AcDbArc
 50
249.1035069831
 51
251.731677684
  0
ARC
  5
252
100
AcDbEntity
  8
0
100
AcDbCircle
 62
7
  6
BYLAYER
 10
55.2461426968
 20
111.3913739978
 40
35.6770585121
100
AcDbArc
 50
131.5126327239
 51
133.1807075066
  0
ARC
  5
253
100
AcDbEntity
  8
0
100
AcDbCircle
 62
7
  6
BYLAYER
 10
43.662791107
 20
128.5952731374
 40
23.3083029277
100
AcDbArc
 50
228.7826544638
 51
230.7988714398
  0
SPLINE
  5
254
100
AcDbEntity
  8
0
100
AcDbSpline
 62
7
  6
BYLAYER
 70
0
 71
3
 72
26
 73
22
 74
0
 42
0.0000001
 43
0.0000001
 44
0.0000000001
 40
0.0
 40
0.0
 40
0.0
 40
0.0
 40
0.0003378518
 40
0.0012558539
 40
0.0027704915
 40
0.0048829043
 40
0.0108975503
 40
0.0192895892
 40
0.0300462708
 40
0.0431434983
 40
0.0585431336
 40
0.0762060389
 40
0.1181625366
 40
0.1686151933
 40
0.2270645098
 40
0.2929653004
 40
0.3656679462
 40
0.4444898901
 40
0.6173406062
 40
0.8049444464
 40
1.0
 40
1.0
 40
1.0
 40
1.0
 10
146.4385056107
 20
116.371548083
 30
0.0
 10
146.4383929822
 20
116.371548083
 30
0.0
 10
146.4383221132
 20
116.3709512432
 30
0.0
 10
146.4381562504
 20
116.370210506
 30
0.0
 10
146.4380348366
 20
116.3686049763
 30
0.0
 10
146.4378025812
 20
116.3654565647
 30
0.0
 10
146.4375580079
 20
116.3599117262
 30
0.0
 10
146.4372649402
 20
116.3515489005
 30
0.0
 10
146.4369789592
 20
116.3407948386
 30
0.0
 10
146.4366914679
 20
116.3277150616
 30
0.0
 10
146.4364079824
 20
116.312328545
 30
0.0
 10
146.4360120272
 20
116.2873232514
 30
0.0
 10
146.4355465294
 20
116.2506315452
 30
0.0
 10
146.4350379506
 20
116.2003430427
 30
0.0
 10
146.4345597826
 20
116.1420715718
 30
0.0
 10
146.4341176583
 20
116.0763822853
 30
0.0
 10
146.4337159027
 20
116.0039010633
 30
0.0
 10
146.4332254306
 20
115.8957663333
 30
0.0
 10
146.4327546107
 20
115.7493269951
 30
0.0
 10
146.4324152241
 20
115.5641388532
 30
0.0
 10
146.4323391893
 20
115.4365730517
 30
0.0
 10
146.4323391893
 20
115.3715480831
 30
0.0
  0
SPLINE
  5
255
100
AcDbEntity
  8
0
100
AcDbSpline
 62
7
  6
BYLAYER
 70
0
 71
3
 72
26
 73
22
 74
0
 42
0.0000001
 43
0.0000001
 44
0.0000000001
 40
0.0
 40
0.0
 40
0.0
 40
0.0
 40
0.1950555536
 40
0.3826593938
 40
0.5555101099
 40
0.6343320538
 40
0.7070346996
 40
0.7729354902
 40
0.8313848067
 40
0.8818374634
 40
0.9237939611
 40
0.9414568664
 40
0.9568565017
 40
0.9699537292
 40
0.9807104108
 40
0.9891024497
 40
0.9951170957
 40
0.9972295085
 40
0.9987441461
 40
0.9996621482
 40
1.0
 40
1.0
 40
1.0
 40
1.0
 10
146.4323391893
 20
114.6715480829
 30
0.0
 10
146.4323391893
 20
114.6065231143
 30
0.0
 10
146.4324152241
 20
114.4789573129
 30
0.0
 10
146.4327546107
 20
114.293769171
 30
0.0
 10
146.4332254306
 20
114.1473298327
 30
0.0
 10
146.4337159027
 20
114.0391951027
 30
0.0
 10
146.4341176583
 20
113.9667138808
 30
0.0
 10
146.4345597826
 20
113.9010245943
 30
0.0
 10
146.4350379506
 20
113.8427531234
 30
0.0
 10
146.4355465294
 20
113.7924646209
 30
0.0
 10
146.4360120272
 20
113.7557729147
 30
0.0
 10
146.4364079824
 20
113.7307676211
 30
0.0
 10
146.4366914679
 20
113.7153811045
 30
0.0
 10
146.4369789592
 20
113.7023013275
 30
0.0
 10
146.4372649402
 20
113.6915472656
 30
0.0
 10
146.4375580079
 20
113.6831844399
 30
0.0
 10
146.4378025812
 20
113.6776396014
 30
0.0
 10
146.4380348366
 20
113.6744911897
 30
0.0
 10
146.4381562504
 20
113.6728856601
 30
0.0
 10
146.4383221132
 20
113.6721449229
 30
0.0
 10
146.4383929822
 20
113.671548083
 30
0.0
 10
146.4385056107
 20
113.671548083
 30
0.0
  0
SPLINE
  5
256
100
AcDbEntity
  8
0
100
AcDbSpline
 62
7
  6
BYLAYER
 70
0
 71
3
 72
19
 73
15
 74
0
 42
0.0000001
 43
0.0000001
 44
0.0000000001
 40
0.0
 40
0.0
 40
0.0
 40
0.0
 40
0.1880049599
 40
0.3687602732
 40
0.5353103425
 40
0.681672945
 40
0.745712109
 40
0.8029725279
 40
0.8531048304
 40
0.8958672986
 40
0.9312425657
 40
0.9595457296
 40
0.9817249911
 40
1.0
 40
1.0
 40
1.0
 40
1.0
 10
151.3465479122
 20
115.371548083
 30
0.0
 10
151.3465479122
 20
115.4371159542
 30
0.0
 10
151.3489390082
 20
115.5657365962
 30
0.0
 10
151.3595930779
 20
115.7521761552
 30
0.0
 10
151.3768117114
 20
115.9235376005
 30
0.0
 10
151.3966984376
 20
116.0535849053
 30
0.0
 10
151.4158785223
 20
116.144965858
 30
0.0
 10
151.4307274191
 20
116.202904606
 30
0.0
 10
151.446504371
 20
116.2528753164
 30
0.0
 10
151.4630638804
 20
116.2944868487
 30
0.0
 10
151.4802513465
 20
116.3274975175
 30
0.0
 10
151.4980454902
 20
116.3517760902
 30
0.0
 10
151.5166872504
 20
116.3674600599
 30
0.0
 10
151.530858053
 20
116.371548083
 30
0.0
 10
151.5372315733
 20
116.371548083
 30
0.0
  0
SPLINE
  5
257
100
AcDbEntity
  8
0
100
AcDbSpline
 62
7
  6
BYLAYER
 70
0
 71
3
 72
19
 73
15
 74
0
 42
0.0000001
 43
0.0000001
 44
0.0000000001
 40
0.0
 40
0.0
 40
0.0
 40
0.0
 40
0.1882701926
 40
0.3692599043
 40
0.5359878476
 40
0.6824532002
 40
0.7465107523
 40
0.8037654581
 40
0.8538661668
 40
0.8965681542
 40
0.9318475613
 40
0.9600069861
 40
0.9819812945
 40
1.0
 40
1.0
 40
1.0
 40
1.0
 10
154.8158865504
 20
115.371548083
 30
0.0
 10
154.8158865504
 20
115.437134
 30
0.0
 10
154.8182448822
 20
115.5657823414
 30
0.0
 10
154.8287301659
 20
115.7522542512
 30
0.0
 10
154.8456873491
 20
115.923624357
 30
0.0
 10
154.865271493
 20
116.0536692854
 30
0.0
 10
154.8841560076
 20
116.1450440624
 30
0.0
 10
154.8987718962
 20
116.2029645856
 30
0.0
 10
154.9142999257
 20
116.252914532
 30
0.0
 10
154.9305986274
 20
116.2945025216
 30
0.0
 10
154.9475103339
 20
116.3274889281
 30
0.0
 10
154.9650074912
 20
116.3517437615
 30
0.0
 10
154.9833264265
 20
116.367436255
 30
0.0
 10
154.997315275
 20
116.371548083
 30
0.0
 10
155.0035922821
 20
116.371548083
 30
0.0
  0
SPLINE
  5
258
100
AcDbEntity
  8
0
100
AcDbSpline
 62
7
  6
BYLAYER
 70
0
 71
3
 72
19
 73
15
 74
0
 42
0.0000001
 43
0.0000001
 44
0.0000000001
 40
0.0
 40
0.0
 40
0.0
 40
0.0
 40
0.0182746424
 40
0.0404529058
 40
0.0687549637
 40
0.1041289847
 40
0.1468914497
 40
0.1970239969
 40
0.2542856137
 40
0.3183270683
 40
0.4646946764
 40
0.6312481572
 40
0.8119995354
 40
1.0
 40
1.0
 40
1.0
 40
1.0
 10
151.5372315733
 20
113.671548083
 30
0.0
 10
151.5308581801
 20
113.671548083
 30
0.0
 10
151.5166877439
 20
113.6756354289
 30
0.0
 10
151.4980464203
 20
113.6913187421
 30
0.0
 10
151.4802531594
 20
113.7155964544
 30
0.0
 10
151.4630652785
 20
113.7486059676
 30
0.0
 10
151.44650583
 20
113.7902171792
 30
0.0
 10
151.4307281615
 20
113.8401881817
 30
0.0
 10
151.4158789149
 20
113.8981282077
 30
0.0
 10
151.3966985396
 20
113.9895121328
 30
0.0
 10
151.3768114184
 20
114.1195631698
 30
0.0
 10
151.3595930603
 20
114.2909262351
 30
0.0
 10
151.3489392482
 20
114.4773640629
 30
0.0
 10
151.3465479122
 20
114.605981773
 30
0.0
 10
151.3465479122
 20
114.671548083
 30
0.0
  0
SPLINE
  5
259
100
AcDbEntity
  8
0
100
AcDbSpline
 62
7
  6
BYLAYER
 70
0
 71
3
 72
19
 73
15
 74
0
 42
0.0000001
 43
0.0000001
 44
0.0000000001
 40
0.0
 40
0.0
 40
0.0
 40
0.0
 40
0.0180184118
 40
0.0399918182
 40
0.0681501281
 40
0.1034281511
 40
0.1461300266
 40
0.1962309397
 40
0.2534868973
 40
0.3175468721
 40
0.4640174534
 40
0.6307489173
 40
0.8117345152
 40
1.0
 40
1.0
 40
1.0
 40
1.0
 10
155.0035922821
 20
113.671548083
 30
0.0
 10
154.9973153754
 20
113.671548083
 30
0.0
 10
154.983326833
 20
113.67565922
 30
0.0
 10
154.9650081761
 20
113.6913509713
 30
0.0
 10
154.9475118496
 20
113.7156049127
 30
0.0
 10
154.9305999333
 20
113.7485901918
 30
0.0
 10
154.9143015859
 20
113.7901778748
 30
0.0
 10
154.898772923
 20
113.840128113
 30
0.0
 10
154.884156542
 20
113.8980499383
 30
0.0
 10
154.8652711685
 20
113.9894277306
 30
0.0
 10
154.8456862359
 20
114.1194765329
 30
0.0
 10
154.8287292215
 20
114.2908483324
 30
0.0
 10
154.8182440337
 20
114.4773184637
 30
0.0
 10
154.8158865504
 20
114.6059637854
 30
0.0
 10
154.8158865504
 20
114.671548083
 30
0.0
  0
SPLINE
  5
25A
100
AcDbEntity
  8
0
100
AcDbSpline
 62
7
  6
BYLAYER
 70
0
 71
3
 72
9
 73
5
 74
0
 42
0.0000001
 43
0.0000001
 44
0.0000000001
 40
0.0
 40
0.0
 40
0.0
 40
0.0
 40
0.2501723647
 40
1.0
 40
1.0
 40
1.0
 40
1.0
 10
120.7260731826
 20
149.9131251446
 30
0.0
 10
119.7297390978
 20
149.9155507004
 30
0.0
 10
115.7471820039
 20
149.9413862595
 30
0.0
 10
111.7651677428
 20
150.0233888712
 30
0.0
 10
108.7799433828
 20
150.1022291569
 30
0.0
  0
SPLINE
  5
25B
100
AcDbEntity
  8
0
100
AcDbSpline
 62
7
  6
BYLAYER
 70
0
 71
3
 72
25
 73
21
 74
0
 42
0.0000001
 43
0.0000001
 44
0.0000000001
 40
0.0
 40
0.0
 40
0.0
 40
0.0
 40
0.0631834199
 40
0.1263264384
 40
0.189343104
 40
0.2521271224
 40
0.2834245514
 40
0.3146710118
 40
0.3771298334
 40
0.4397179774
 40
0.5025933134
 40
0.5658224965
 40
0.6290383136
 40
0.6918551321
 40
0.7540276404
 40
0.8154339316
 40
0.8762552621
 40
0.9372699148
 40
0.9683140513
 40
1.0
 40
1.0
 40
1.0
 40
1.0
 10
108.7799433828
 20
150.1022291569
 30
0.0
 10
107.040579161
 20
150.1481660634
 30
0.0
 10
103.5632518943
 20
150.2511157588
 30
0.0
 10
98.3520164693
 20
150.4270431427
 30
0.0
 10
93.1509659014
 20
150.5785112033
 30
0.0
 10
88.8246539016
 20
150.6333085937
 30
0.0
 10
85.3733037992
 20
150.6028662146
 30
0.0
 10
81.9319453147
 20
150.5135279908
 30
0.0
 10
77.632761208
 20
150.2885512872
 30
0.0
 10
72.4768638655
 20
149.8303603156
 30
0.0
 10
67.3197995744
 20
149.1848219586
 30
0.0
 10
62.1708183764
 20
148.3586856475
 30
0.0
 10
57.0638287716
 20
147.307549085
 30
0.0
 10
52.0489597245
 20
145.9859365054
 30
0.0
 10
47.1813149415
 20
144.3420990902
 30
0.0
 10
42.5106719789
 20
142.3325358156
 30
0.0
 10
38.079754152
 20
139.8990349263
 30
0.0
 10
34.639494737
 20
137.4512421685
 30
0.0
 10
32.0694463527
 20
135.2102583308
 30
0.0
 10
30.8469288139
 20
133.987376403
 30
0.0
 10
30.2513695937
 20
133.3496413326
 30
0.0
  0
SPLINE
  5
25C
100
AcDbEntity
  8
0
100
AcDbSpline
 62
7
  6
BYLAYER
 70
0
 71
3
 72
9
 73
5
 74
0
 42
0.0000001
 43
0.0000001
 44
0.0000000001
 40
0.0
 40
0.0
 40
0.0
 40
0.0
 40
0.2506544728
 40
1.0
 40
1.0
 40
1.0
 40
1.0
 10
25.1556967601
 20
130.5876486622
 30
0.0
 10
25.0655403045
 20
130.4525707617
 30
0.0
 10
24.7109194982
 20
129.9103232124
 30
0.0
 10
24.3776105749
 20
129.3540136979
 30
0.0
 10
24.1426358908
 20
128.9291548318
 30
0.0
  0
SPLINE
  5
25D
100
AcDbEntity
  8
0
100
AcDbSpline
 62
7
  6
BYLAYER
 70
0
 71
3
 72
9
 73
5
 74
0
 42
0.0000001
 43
0.0000001
 44
0.0000000001
 40
0.0
 40
0.0
 40
0.0
 40
0.0
 40
0.2510525329
 40
1.0
 40
1.0
 40
1.0
 40
1.0
 10
24.1426358908
 20
128.9291548318
 30
0.0
 10
24.0706659539
 20
128.7990256399
 30
0.0
 10
23.7895062529
 20
128.2776788662
 30
0.0
 10
23.5314579831
 20
127.7437272477
 30
0.0
 10
23.3542235465
 20
127.337047212
 30
0.0
  0
SPLINE
  5
25E
100
AcDbEntity
  8
0
100
AcDbSpline
 62
7
  6
BYLAYER
 70
0
 71
3
 72
9
 73
5
 74
0
 42
0.0000001
 43
0.0000001
 44
0.0000000001
 40
0.0
 40
0.0
 40
0.0
 40
0.0
 40
0.2518191115
 40
1.0
 40
1.0
 40
1.0
 40
1.0
 10
23.3542235465
 20
127.337047212
 30
0.0
 10
23.2534370695
 20
127.1057837575
 30
0.0
 10
22.873756993
 20
126.1787985056
 30
0.0
 10
22.5837318873
 20
125.213456615
 30
0.0
 10
22.4348403879
 20
124.4788702261
 30
0.0
  0
SPLINE
  5
25F
100
AcDbEntity
  8
0
100
AcDbSpline
 62
7
  6
BYLAYER
 70
0
 71
3
 72
9
 73
5
 74
0
 42
0.0000001
 43
0.0000001
 44
0.0000000001
 40
0.0
 40
0.0
 40
0.0
 40
0.0
 40
0.2516231296
 40
1.0
 40
1.0
 40
1.0
 40
1.0
 10
28.9309048826
 20
110.5329224143
 30
0.0
 10
29.102279002
 20
110.3931248242
 30
0.0
 10
29.7911463253
 20
109.8471419113
 30
0.0
 10
30.5100203048
 20
109.3391915111
 30
0.0
 10
31.0614572188
 20
108.9805976002
 30
0.0
  0
SPLINE
  5
260
100
AcDbEntity
  8
0
100
AcDbSpline
 62
7
  6
BYLAYER
 70
0
 71
3
 72
9
 73
5
 74
0
 42
0.0000001
 43
0.0000001
 44
0.0000000001
 40
0.0
 40
0.0
 40
0.0
 40
0.0
 40
0.5019389597
 40
1.0
 40
1.0
 40
1.0
 40
1.0
 10
31.0614572188
 20
108.9805976002
 30
0.0
 10
31.9454513404
 20
108.4057450626
 30
0.0
 10
33.7788141417
 20
107.3688280746
 30
0.0
 10
35.7098852947
 20
106.532968611
 30
0.0
 10
36.6872983678
 20
106.159538196
 30
0.0
  0
SPLINE
  5
261
100
AcDbEntity
  8
0
100
AcDbSpline
 62
7
  6
BYLAYER
 70
0
 71
3
 72
9
 73
5
 74
0
 42
0.0000001
 43
0.0000001
 44
0.0000000001
 40
0.0
 40
0.0
 40
0.0
 40
0.0
 40
0.2506159389
 40
1.0
 40
1.0
 40
1.0
 40
1.0
 10
38.3219750028
 20
105.5780215265
 30
0.0
 10
38.5421967262
 20
105.5051562477
 30
0.0
 10
39.423400974
 20
105.2219342516
 30
0.0
 10
40.3137346441
 20
104.9673918126
 30
0.0
 10
40.9844194332
 20
104.7905417994
 30
0.0
  0
SPLINE
  5
262
100
AcDbEntity
  8
0
100
AcDbSpline
 62
7
  6
BYLAYER
 70
0
 71
3
 72
9
 73
5
 74
0
 42
0.0000001
 43
0.0000001
 44
0.0000000001
 40
0.0
 40
0.0
 40
0.0
 40
0.0
 40
0.250731851
 40
1.0
 40
1.0
 40
1.0
 40
1.0
 10
41.2532416862
 20
104.7204428716
 30
0.0
 10
41.5560731285
 20
104.6423522873
 30
0.0
 10
42.7666497144
 20
104.3417753725
 30
0.0
 10
43.9876969141
 20
104.0836451522
 30
0.0
 10
44.9064830895
 20
103.9126510188
 30
0.0
  0
SPLINE
  5
263
100
AcDbEntity
  8
0
100
AcDbSpline
 62
7
  6
BYLAYER
 70
0
 71
3
 72
9
 73
5
 74
0
 42
0.0000001
 43
0.0000001
 44
0.0000000001
 40
0.0
 40
0.0
 40
0.0
 40
0.0
 40
0.2504133733
 40
1.0
 40
1.0
 40
1.0
 40
1.0
 10
44.9064830895
 20
103.9126510188
 30
0.0
 10
45.4400473449
 20
103.8133500499
 30
0.0
 10
47.5763369419
 20
103.4468447596
 30
0.0
 10
49.7316573285
 20
103.1947072721
 30
0.0
 10
51.3506437258
 20
103.0598379891
 30
0.0
  0
SPLINE
  5
264
100
AcDbEntity
  8
0
100
AcDbSpline
 62
7
  6
BYLAYER
 70
0
 71
3
 72
9
 73
5
 74
0
 42
0.0000001
 43
0.0000001
 44
0.0000000001
 40
0.0
 40
0.0
 40
0.0
 40
0.0
 40
0.250091637
 40
1.0
 40
1.0
 40
1.0
 40
1.0
 10
51.3506437258
 20
103.0598379891
 30
0.0
 10
51.8022969836
 20
103.0222131202
 30
0.0
 10
53.6096362872
 20
102.8885390026
 30
0.0
 10
55.421388009
 20
102.8178130987
 30
0.0
 10
56.7801523645
 20
102.7931107838
 30
0.0
  0
SPLINE
  5
265
100
AcDbEntity
  8
0
100
AcDbSpline
 62
7
  6
BYLAYER
 70
0
 71
3
 72
9
 73
5
 74
0
 42
0.0000001
 43
0.0000001
 44
0.0000000001
 40
0.0
 40
0.0
 40
0.0
 40
0.0
 40
0.2492552806
 40
1.0
 40
1.0
 40
1.0
 40
1.0
 10
102.3012473704
 20
112.6193339137
 30
0.0
 10
102.6019035638
 20
112.6861818073
 30
0.0
 10
103.8110359295
 20
112.9412286961
 30
0.0
 10
105.0308331312
 20
113.1445905113
 30
0.0
 10
105.9495100348
 20
113.2734845688
 30
0.0
  0
SPLINE
  5
266
100
AcDbEntity
  8
0
100
AcDbSpline
 62
7
  6
BYLAYER
 70
0
 71
3
 72
10
 73
6
 74
0
 42
0.0000001
 43
0.0000001
 44
0.0000000001
 40
0.0
 40
0.0
 40
0.0
 40
0.0
 40
0.4990774494
 40
0.7497430157
 40
1.0
 40
1.0
 40
1.0
 40
1.0
 10
105.9495100348
 20
113.2734845688
 30
0.0
 10
107.1186657466
 20
113.4375218085
 30
0.0
 10
108.8835714553
 20
113.6263375646
 30
0.0
 10
111.2440333252
 20
113.7829326133
 30
0.0
 10
112.4279645906
 20
113.8357905225
 30
0.0
 10
113.0196559299
 20
113.8549878947
 30
0.0
  0
SPLINE
  5
267
100
AcDbEntity
  8
0
100
AcDbSpline
 62
7
  6
BYLAYER
 70
0
 71
3
 72
9
 73
5
 74
0
 42
0.0000001
 43
0.0000001
 44
0.0000000001
 40
0.0
 40
0.0
 40
0.0
 40
0.0
 40
0.2492930072
 40
1.0
 40
1.0
 40
1.0
 40
1.0
 10
41.4656003352
 20
144.5389612182
 30
0.0
 10
41.0357477885
 20
144.3329082483
 30
0.0
 10
39.3230685592
 20
143.4825171117
 30
0.0
 10
37.6599855115
 20
142.5309972648
 30
0.0
 10
36.4513388328
 20
141.7565632796
 30
0.0
  0
SPLINE
  5
268
100
AcDbEntity
  8
0
100
AcDbSpline
 62
7
  6
BYLAYER
 70
0
 71
3
 72
9
 73
5
 74
0
 42
0.0000001
 43
0.0000001
 44
0.0000000001
 40
0.0
 40
0.0
 40
0.0
 40
0.0
 40
0.2496099828
 40
1.0
 40
1.0
 40
1.0
 40
1.0
 10
35.2010837952
 20
140.9237814149
 30
0.0
 10
34.8882244751
 20
140.707149261
 30
0.0
 10
33.6469674222
 20
139.8219355213
 30
0.0
 10
32.456506684
 20
138.8649759602
 30
0.0
 10
31.5999176258
 20
138.106698139
 30
0.0
  0
SPLINE
  5
269
100
AcDbEntity
  8
0
100
AcDbSpline
 62
7
  6
BYLAYER
 70
0
 71
3
 72
15
 73
11
 74
0
 42
0.0000001
 43
0.0000001
 44
0.0000000001
 40
0.0
 40
0.0
 40
0.0
 40
0.0
 40
0.063386257
 40
0.1266054567
 40
0.252904717
 40
0.379103933
 40
0.5046737412
 40
0.7535103044
 40
0.8771055646
 40
1.0
 40
1.0
 40
1.0
 40
1.0
 10
27.2600975119
 20
112.1356029132
 30
0.0
 10
27.6581903402
 20
111.7498223824
 30
0.0
 10
28.4832240896
 20
111.0096912843
 30
0.0
 10
30.2217719474
 20
109.6406715966
 30
0.0
 10
32.5405556736
 20
108.1292303007
 30
0.0
 10
35.498326239
 20
106.6378096422
 30
0.0
 10
39.592525762
 20
105.0691195189
 30
0.0
 10
43.8535050373
 20
104.0716808113
 30
0.0
 10
48.1466024998
 20
103.4886506818
 30
0.0
 10
50.2957739393
 20
103.3071424572
 30
0.0
 10
51.3683810942
 20
103.2387566306
 30
0.0
  0
SPLINE
  5
26A
100
AcDbEntity
  8
0
100
AcDbSpline
 62
7
  6
BYLAYER
 70
0
 71
3
 72
9
 73
5
 74
0
 42
0.0000001
 43
0.0000001
 44
0.0000000001
 40
0.0
 40
0.0
 40
0.0
 40
0.0
 40
0.250442055
 40
1.0
 40
1.0
 40
1.0
 40
1.0
 10
51.3683810942
 20
103.2387566306
 30
0.0
 10
51.8202504343
 20
103.2099469605
 30
0.0
 10
53.6255492512
 20
103.1108823487
 30
0.0
 10
55.4339171975
 20
103.071983325
 30
0.0
 10
56.7890785164
 20
103.0695055958
 30
0.0
  0
SPLINE
  5
26B
100
AcDbEntity
  8
0
100
AcDbSpline
 62
7
  6
BYLAYER
 70
0
 71
3
 72
14
 73
10
 74
0
 42
0.0000001
 43
0.0000001
 44
0.0000000001
 40
0.0
 40
0.0
 40
0.0
 40
0.0
 40
0.2507128343
 40
0.376011902
 40
0.501285259
 40
0.6264339975
 40
0.7511869352
 40
0.8756554022
 40
1.0
 40
1.0
 40
1.0
 40
1.0
 10
120.7259929966
 20
149.8838523133
 30
0.0
 10
117.735023526
 20
149.9128785266
 30
0.0
 10
113.2496264343
 20
150.0039678141
 30
0.0
 10
107.2721898366
 20
150.1973848544
 30
0.0
 10
102.7931830775
 20
150.3759479126
 30
0.0
 10
98.321936315
 20
150.5818436485
 30
0.0
 10
93.8600358675
 20
150.7835944437
 30
0.0
 10
89.4046059003
 20
150.9068922332
 30
0.0
 10
86.4357423012
 20
150.9149691529
 30
0.0
 10
84.9523547408
 20
150.8980783121
 30
0.0
  0
SPLINE
  5
26C
100
AcDbEntity
  8
0
100
AcDbSpline
 62
7
  6
BYLAYER
 70
0
 71
3
 72
9
 73
5
 74
0
 42
0.0000001
 43
0.0000001
 44
0.0000000001
 40
0.0
 40
0.0
 40
0.0
 40
0.0
 40
0.2502308805
 40
1.0
 40
1.0
 40
1.0
 40
1.0
 10
84.3944308476
 20
150.8907109312
 30
0.0
 10
83.9112775295
 20
150.8834451808
 30
0.0
 10
81.9806088965
 20
150.8451419419
 30
0.0
 10
80.0506334036
 20
150.7674779777
 30
0.0
 10
78.6052468906
 20
150.6832172612
 30
0.0
  0
SPLINE
  5
26D
100
AcDbEntity
  8
0
100
AcDbSpline
 62
7
  6
BYLAYER
 70
0
 71
3
 72
9
 73
5
 74
0
 42
0.0000001
 43
0.0000001
 44
0.0000000001
 40
0.0
 40
0.0
 40
0.0
 40
0.0
 40
0.2497795652
 40
1.0
 40
1.0
 40
1.0
 40
1.0
 10
71.4368101769
 20
150.0431602538
 30
0.0
 10
70.7960875788
 20
149.965966652
 30
0.0
 10
68.2335114807
 20
149.6358026126
 30
0.0
 10
65.6818995592
 20
149.2212981597
 30
0.0
 10
63.7763357468
 20
148.8663168138
 30
0.0
  0
SPLINE
  5
26E
100
AcDbEntity
  8
0
100
AcDbSpline
 62
7
  6
BYLAYER
 70
0
 71
3
 72
9
 73
5
 74
0
 42
0.0000001
 43
0.0000001
 44
0.0000000001
 40
0.0
 40
0.0
 40
0.0
 40
0.0
 40
0.4999152251
 40
1.0
 40
1.0
 40
1.0
 40
1.0
 10
60.95613906
 20
148.3079247758
 30
0.0
 10
59.7718734533
 20
148.0596736772
 30
0.0
 10
57.4097402834
 20
147.5303402952
 30
0.0
 10
55.0622682269
 20
146.9388592594
 30
0.0
 10
53.8938361819
 20
146.6228315886
 30
0.0
  0
SPLINE
  5
26F
100
AcDbEntity
  8
0
100
AcDbSpline
 62
7
  6
BYLAYER
 70
0
 71
3
 72
15
 73
11
 74
0
 42
0.0000001
 43
0.0000001
 44
0.0000000001
 40
0.0
 40
0.0
 40
0.0
 40
0.0
 40
0.130838266
 40
0.2615985589
 40
0.3911336694
 40
0.5155362945
 40
0.63386642
 40
0.75251378
 40
0.8745865586
 40
1.0
 40
1.0
 40
1.0
 40
1.0
 10
25.9961670255
 20
127.0093801035
 30
0.0
 10
25.8537851812
 20
126.6823113845
 30
0.0
 10
25.585889194
 20
126.0209151956
 30
0.0
 10
25.2370328419
 20
125.0127148553
 30
0.0
 10
24.9481875018
 20
124.0038388295
 30
0.0
 10
24.7393283888
 20
123.0091280675
 30
0.0
 10
24.6528724609
 20
122.0244136131
 30
0.0
 10
24.7131004507
 20
121.0440931989
 30
0.0
 10
24.8980849536
 20
120.0610140388
 30
0.0
 10
25.0958815469
 20
119.4143985746
 30
0.0
 10
25.211569851
 20
119.0926382685
 30
0.0
  0
SPLINE
  5
270
100
AcDbEntity
  8
0
100
AcDbSpline
 62
7
  6
BYLAYER
 70
0
 71
3
 72
25
 73
21
 74
0
 42
0.0000001
 43
0.0000001
 44
0.0000000001
 40
0.0
 40
0.0
 40
0.0
 40
0.0
 40
0.1260326762
 40
0.2525469987
 40
0.3158510539
 40
0.3791836106
 40
0.4425837594
 40
0.4743669827
 40
0.5062364599
 40
0.537932367
 40
0.5689599724
 40
0.599391949
 40
0.62984188
 40
0.6604181285
 40
0.6911126391
 40
0.7527122642
 40
0.8144077039
 40
0.8761163168
 40
0.9379396087
 40
1.0
 40
1.0
 40
1.0
 40
1.0
 10
66.7801857559
 20
103.4184827118
 30
0.0
 10
68.273487838
 20
103.5097952454
 30
0.0
 10
71.2643268832
 20
103.7211878825
 30
0.0
 10
74.990914034
 20
104.1560455565
 30
0.0
 10
77.953320612
 20
104.6651591839
 30
0.0
 10
80.1588268168
 20
105.142838246
 30
0.0
 10
81.976633008
 20
105.632880344
 30
0.0
 10
83.414853481
 20
106.087548553
 30
0.0
 10
84.4836481909
 20
106.4607190199
 30
0.0
 10
85.530942475
 20
106.8660985945
 30
0.0
 10
86.5560044406
 20
107.2808862933
 30
0.0
 10
87.5720039202
 20
107.6786495764
 30
0.0
 10
88.5908870838
 20
108.0537332135
 30
0.0
 10
89.617822881
 20
108.415541372
 30
0.0
 10
90.9984938309
 20
108.8858344983
 30
0.0
 10
92.7340518953
 20
109.4597093897
 30
0.0
 10
94.8209639877
 20
110.1436060361
 30
0.0
 10
96.912731185
 20
110.8212046149
 30
0.0
 10
99.0113100557
 20
111.4917510102
 30
0.0
 10
100.4124291317
 20
111.938392112
 30
0.0
 10
101.1151235082
 20
112.1596259902
 30
0.0
  0
SPLINE
  5
271
100
AcDbEntity
  8
0
100
AcDbSpline
 62
7
  6
BYLAYER
 70
0
 71
3
 72
12
 73
8
 74
0
 42
0.0000001
 43
0.0000001
 44
0.0000000001
 40
0.0
 40
0.0
 40
0.0
 40
0.0
 40
0.2531388408
 40
0.3810061618
 40
0.5100228026
 40
0.7618432068
 40
1.0
 40
1.0
 40
1.0
 40
1.0
 10
103.1987784729
 20
115.1327677503
 30
0.0
 10
104.0005836811
 20
115.3527526378
 30
0.0
 10
105.2182740236
 20
115.6489322343
 30
0.0
 10
106.8715829236
 20
115.9232103102
 30
0.0
 10
108.5353986105
 20
116.092808842
 30
0.0
 10
110.5705444316
 20
116.099537393
 30
0.0
 10
112.1802962329
 20
116.0872403183
 30
0.0
 10
112.9616474115
 20
116.1242433845
 30
0.0
  0
SPLINE
  5
272
100
AcDbEntity
  8
0
100
AcDbSpline
 62
7
  6
BYLAYER
 70
0
 71
3
 72
35
 73
31
 74
0
 42
0.0000001
 43
0.0000001
 44
0.0000000001
 40
0.0
 40
0.0
 40
0.0
 40
0.0
 40
0.1271180028
 40
0.1904433806
 40
0.2536377595
 40
0.3167365433
 40
0.3482505723
 40
0.3797197144
 40
0.4111315012
 40
0.4424846351
 40
0.4738158938
 40
0.5051777215
 40
0.5365913497
 40
0.5680547102
 40
0.5995656952
 40
0.6310147205
 40
0.6622559854
 40
0.6933037767
 40
0.7243040631
 40
0.7553617195
 40
0.7864836312
 40
0.8175786448
 40
0.8484758047
 40
0.8791339719
 40
0.9096387362
 40
0.9399139012
 40
0.9549782353
 40
0.9700683587
 40
0.9852045337
 40
1.0
 40
1.0
 40
1.0
 40
1.0
 10
118.1870412871
 20
150.0372999447
 30
0.0
 10
113.7204733755
 20
150.0896220379
 30
0.0
 10
107.032712266
 20
150.3768387677
 30
0.0
 10
98.1291353265
 20
150.7723279438
 30
0.0
 10
91.4691675815
 20
150.9890207256
 30
0.0
 10
85.9229221586
 20
151.0275955922
 30
0.0
 10
81.4932297764
 20
150.9293722875
 30
0.0
 10
78.1792194242
 20
150.7811953691
 30
0.0
 10
74.8757347357
 20
150.546640972
 30
0.0
 10
71.5857395605
 20
150.2111664404
 30
0.0
 10
68.3098772629
 20
149.7707817356
 30
0.0
 10
65.0480485399
 20
149.223479231
 30
0.0
 10
61.7997444404
 20
148.5772175573
 30
0.0
 10
58.5649928081
 20
147.8427909826
 30
0.0
 10
55.3460474627
 20
147.0370923147
 30
0.0
 10
52.1538408439
 20
146.1598274348
 30
0.0
 10
49.0080689364
 20
145.179583779
 30
0.0
 10
45.9330196684
 20
144.0380554396
 30
0.0
 10
42.9415303514
 20
142.7075561628
 30
0.0
 10
40.0413850825
 20
141.1827250081
 30
0.0
 10
37.2409648322
 20
139.4753971548
 30
0.0
 10
34.5656762365
 20
137.5865119398
 30
0.0
 10
32.063888114
 20
135.4964492904
 30
0.0
 10
29.7883299276
 20
133.1889467154
 30
0.0
 10
27.794847623
 20
130.6597869704
 30
0.0
 10
26.4287786977
 20
128.3589899491
 30
0.0
 10
25.5719526328
 20
126.413565082
 30
0.0
 10
25.0594598209
 20
124.9045227211
 30
0.0
 10
24.6886005342
 20
123.3643199573
 30
0.0
 10
24.5561409354
 20
122.3173040306
 30
0.0
 10
24.5300317795
 20
121.798053427
 30
0.0
  0
SPLINE
  5
273
100
AcDbEntity
  8
0
100
AcDbSpline
 62
7
  6
BYLAYER
 70
0
 71
3
 72
23
 73
19
 74
0
 42
0.0000001
 43
0.0000001
 44
0.0000000001
 40
0.0
 40
0.0
 40
0.0
 40
0.0
 40
0.0673959597
 40
0.1014903618
 40
0.1346669305
 40
0.1992713347
 40
0.2628853985
 40
0.2943566661
 40
0.3255372671
 40
0.3875123211
 40
0.4493168232
 40
0.5110798668
 40
0.5728214711
 40
0.6344786217
 40
0.6959999829
 40
0.7573062659
 40
0.8791030381
 40
1.0
 40
1.0
 40
1.0
 40
1.0
 10
22.2685081905
 20
121.1835643909
 30
0.0
 10
22.2783192234
 20
120.3576150869
 30
0.0
 10
22.4335720595
 20
119.1036926813
 30
0.0
 10
23.0027148118
 20
117.5490139247
 30
0.0
 10
23.7481310403
 20
116.1115241416
 30
0.0
 10
24.8976789933
 20
114.489746176
 30
0.0
 10
26.2513982736
 20
113.0696751422
 30
0.0
 10
27.4008961618
 20
112.0331430373
 30
0.0
 10
28.5744283554
 20
111.0549906799
 30
0.0
 10
30.0932039761
 20
109.9121300347
 30
0.0
 10
32.0021630786
 20
108.6729865615
 30
0.0
 10
33.993526623
 20
107.5764440792
 30
0.0
 10
36.0609326653
 20
106.6355504105
 30
0.0
 10
38.1857334009
 20
105.8424256703
 30
0.0
 10
40.3496823554
 20
105.1826558392
 30
0.0
 10
43.261020989
 20
104.4616904094
 30
0.0
 10
46.9358217915
 20
103.8197938706
 30
0.0
 10
49.8959550314
 20
103.5117021462
 30
0.0
 10
51.3729222398
 20
103.3931438542
 30
0.0
  0
SPLINE
  5
274
100
AcDbEntity
  8
0
100
AcDbSpline
 62
7
  6
BYLAYER
 70
0
 71
3
 72
9
 73
5
 74
0
 42
0.0000001
 43
0.0000001
 44
0.0000000001
 40
0.0
 40
0.0
 40
0.0
 40
0.0
 40
0.4998944575
 40
1.0
 40
1.0
 40
1.0
 40
1.0
 10
51.3729222398
 20
103.3931438542
 30
0.0
 10
52.3133156266
 20
103.3176571182
 30
0.0
 10
54.1969528239
 20
103.1963171412
 30
0.0
 10
56.0832105485
 20
103.1274660379
 30
0.0
 10
57.0268048767
 20
103.1069837263
 30
0.0
  0
SPLINE
  5
275
100
AcDbEntity
  8
0
100
AcDbSpline
 62
7
  6
BYLAYER
 70
0
 71
3
 72
16
 73
12
 74
0
 42
0.0000001
 43
0.0000001
 44
0.0000000001
 40
0.0
 40
0.0
 40
0.0
 40
0.0
 40
0.2471929324
 40
0.3724988977
 40
0.4981225179
 40
0.623977555
 40
0.7498488982
 40
0.812743941
 40
0.8756387716
 40
0.9382548123
 40
1.0
 40
1.0
 40
1.0
 40
1.0
 10
90.7963168794
 20
111.2431112743
 30
0.0
 10
92.6099603105
 20
111.9557731389
 30
0.0
 10
95.3313980785
 20
113.0640498363
 30
0.0
 10
99.0708858922
 20
114.2694596278
 30
0.0
 10
101.947028053
 20
115.0180903659
 30
0.0
 10
104.8695896378
 20
115.583691863
 30
0.0
 10
107.3323055343
 20
115.8932024888
 30
0.0
 10
109.3104415901
 20
116.0469042435
 30
0.0
 10
110.7942950871
 20
116.1167133514
 30
0.0
 10
112.2704859693
 20
116.1379254398
 30
0.0
 10
113.250827298
 20
116.1326760818
 30
0.0
 10
113.7375650022
 20
116.1308051668
 30
0.0
  0
SPLINE
  5
276
100
AcDbEntity
  8
0
100
AcDbSpline
 62
7
  6
BYLAYER
 70
0
 71
3
 72
17
 73
13
 74
0
 42
0.0000001
 43
0.0000001
 44
0.0000000001
 40
0.0
 40
0.0
 40
0.0
 40
0.0
 40
0.1249584506
 40
0.249957114
 40
0.3748999643
 40
0.4997922706
 40
0.6246336227
 40
0.7496244605
 40
0.8122128898
 40
0.8748626084
 40
0.9375468221
 40
1.0
 40
1.0
 40
1.0
 40
1.0
 10
57.0268048767
 20
103.1069837263
 30
0.0
 10
58.4634025635
 20
103.0757999425
 30
0.0
 10
61.3389640964
 20
103.0779442472
 30
0.0
 10
65.6465409964
 20
103.2903235783
 30
0.0
 10
69.9374127263
 20
103.7173570197
 30
0.0
 10
74.2013705217
 20
104.3457062598
 30
0.0
 10
78.4343302359
 20
105.1581126158
 30
0.0
 10
81.933067057
 20
105.9800242342
 30
0.0
 10
84.7077070105
 20
106.7434810625
 30
0.0
 10
86.7747405786
 20
107.3749511919
 30
0.0
 10
88.8178337702
 20
108.0754090736
 30
0.0
 10
90.1643821336
 20
108.5833100848
 30
0.0
 10
90.8341807149
 20
108.8424160172
 30
0.0
  0
SPLINE
  5
277
100
AcDbEntity
  8
0
100
AcDbSpline
 62
7
  6
BYLAYER
 70
0
 71
3
 72
11
 73
7
 74
0
 42
0.0000001
 43
0.0000001
 44
0.0000000001
 40
0.0
 40
0.0
 40
0.0
 40
0.0
 40
0.2485981312
 40
0.4971269164
 40
0.7468001057
 40
1.0
 40
1.0
 40
1.0
 40
1.0
 10
108.1399103488
 20
113.6931038412
 30
0.0
 10
108.6135080042
 20
113.736387554
 30
0.0
 10
109.5620113647
 20
113.8077535662
 30
0.0
 10
110.9894844192
 20
113.8713498862
 30
0.0
 10
112.4270136906
 20
113.8878428646
 30
0.0
 10
113.3889955154
 20
113.8819488259
 30
0.0
 10
113.8733673374
 20
113.8802794737
 30
0.0
  0
SPLINE
  5
278
100
AcDbEntity
  8
0
100
AcDbSpline
 62
7
  6
BYLAYER
 70
0
 71
3
 72
56
 73
52
 74
0
 42
0.0000001
 43
0.0000001
 44
0.0000000001
 40
0.0
 40
0.0
 40
0.0
 40
0.0
 40
0.0638677295
 40
0.1276559292
 40
0.1595237567
 40
0.1913845749
 40
0.2232079036
 40
0.2549338556
 40
0.2865501105
 40
0.3023477234
 40
0.3181573183
 40
0.3498186368
 40
0.3815422517
 40
0.3974260574
 40
0.4133064585
 40
0.4449627535
 40
0.4764530041
 40
0.5078511809
 40
0.5392989708
 40
0.5706357622
 40
0.5861849449
 40
0.6016264573
 40
0.6169744366
 40
0.6323127557
 40
0.6477209124
 40
0.6632688157
 40
0.6711165367
 40
0.679021401
 40
0.6869868394
 40
0.6948230426
 40
0.7022716572
 40
0.7092424529
 40
0.7157614879
 40
0.7223148939
 40
0.7293214017
 40
0.7365369089
 40
0.7438338458
 40
0.7512487202
 40
0.7587983761
 40
0.766455481
 40
0.7818083561
 40
0.7971265251
 40
0.8124268837
 40
0.8431363541
 40
0.8741495522
 40
0.9053003903
 40
0.9209819783
 40
0.9367435191
 40
0.9525693214
 40
0.9684061505
 40
1.0
 40
1.0
 40
1.0
 40
1.0
 10
120.7256498257
 20
150.0339251529
 30
0.0
 10
117.5247941628
 20
150.1534056099
 30
0.0
 10
111.128063451
 20
150.4173255196
 30
0.0
 10
103.1335626877
 20
150.727587227
 30
0.0
 10
96.740909605
 20
150.9105831614
 30
0.0
 10
91.9496927016
 20
151.0070519644
 30
0.0
 10
87.1646785046
 20
151.0441909521
 30
0.0
 10
82.3917331471
 20
150.983179948
 30
0.0
 10
78.4262752218
 20
150.7895211566
 30
0.0
 10
75.2654945124
 20
150.5352550995
 30
0.0
 10
72.1086823901
 20
150.2127061632
 30
0.0
 10
68.1703134616
 20
149.6911547537
 30
0.0
 10
64.2491570643
 20
149.0316918662
 30
0.0
 10
61.1225883193
 20
148.4289377009
 30
0.0
 10
58.0083619221
 20
147.7819670395
 30
0.0
 10
54.1498117929
 20
146.8707279091
 30
0.0
 10
49.5970654308
 20
145.5353543744
 30
0.0
 10
45.1578985698
 20
143.8844672379
 30
0.0
 10
40.8859441368
 20
141.8536006163
 30
0.0
 10
37.5189279593
 20
139.8124145268
 30
0.0
 10
34.999540308
 20
137.9591288443
 30
0.0
 10
33.2190304825
 20
136.4627662614
 30
0.0
 10
31.5557720987
 20
134.8519799695
 30
0.0
 10
30.0147699721
 20
133.1261131094
 30
0.0
 10
28.5933238626
 20
131.2880166338
 30
0.0
 10
27.5108103863
 20
129.6688890137
 30
0.0
 10
26.7034244371
 20
128.3223776521
 30
0.0
 10
26.1266230626
 20
127.2818506592
 30
0.0
 10
25.5795653788
 20
126.2260773153
 30
0.0
 10
25.0819599296
 20
125.1710590518
 30
0.0
 10
24.6758950489
 20
124.1297380969
 30
0.0
 10
24.4061187974
 20
123.1118973434
 30
0.0
 10
24.3034109413
 20
122.1056569372
 30
0.0
 10
24.4152631431
 20
121.0983739664
 30
0.0
 10
24.6958294547
 20
120.0918213631
 30
0.0
 10
25.1055132698
 20
119.0911588958
 30
0.0
 10
25.6242122326
 20
118.1195928695
 30
0.0
 10
26.2350133604
 20
117.1836302874
 30
0.0
 10
26.9221088319
 20
116.2798736409
 30
0.0
 10
27.9164200835
 20
115.112879253
 30
0.0
 10
29.2647390115
 20
113.7386441179
 30
0.0
 10
31.0270701529
 20
112.2470793675
 30
0.0
 10
33.5512162866
 20
110.4824189293
 30
0.0
 10
37.0138995496
 20
108.7236041784
 30
0.0
 10
41.4523335108
 20
107.2660644218
 30
0.0
 10
45.2915342862
 20
106.5146492539
 30
0.0
 10
48.4062884553
 20
106.1200832631
 30
0.0
 10
50.7678426086
 20
105.9076609255
 30
0.0
 10
53.1417072177
 20
105.7576165419
 30
0.0
 10
56.3113216842
 20
105.6213683747
 30
0.0
 10
58.6910022874
 20
105.5947347837
 30
0.0
 10
60.2753499862
 20
105.615972134
 30
0.0
  0
SPLINE
  5
279
100
AcDbEntity
  8
0
100
AcDbSpline
 62
7
  6
BYLAYER
 70
0
 71
3
 72
56
 73
52
 74
0
 42
0.0000001
 43
0.0000001
 44
0.0000000001
 40
0.0
 40
0.0
 40
0.0
 40
0.0
 40
0.0608646093
 40
0.1217983316
 40
0.1522952724
 40
0.1828152464
 40
0.21337088
 40
0.2439933871
 40
0.2746845649
 40
0.3054160579
 40
0.3361419066
 40
0.366868563
 40
0.3822325695
 40
0.3975954746
 40
0.4129641847
 40
0.428349325
 40
0.459190054
 40
0.490124161
 40
0.5212045669
 40
0.5525394529
 40
0.5839982485
 40
0.615394026
 40
0.6310608417
 40
0.6467066201
 40
0.6623667595
 40
0.6780988896
 40
0.6939543159
 40
0.7019413248
 40
0.7099847164
 40
0.7181470924
 40
0.726512057
 40
0.7350320094
 40
0.7437106179
 40
0.7481528977
 40
0.7526278311
 40
0.7614339073
 40
0.7700265595
 40
0.7784222372
 40
0.786702692
 40
0.7948953715
 40
0.8030036129
 40
0.8110285026
 40
0.8269922524
 40
0.842923218
 40
0.8588366739
 40
0.8747200638
 40
0.8905773313
 40
0.9064043835
 40
0.9378626484
 40
0.9690315874
 40
1.0
 40
1.0
 40
1.0
 40
1.0
 10
120.7256900715
 20
152.2854941637
 30
0.0
 10
117.7122234352
 20
152.3981874773
 30
0.0
 10
111.682734816
 20
152.6457272166
 30
0.0
 10
104.1429066185
 20
152.9415641704
 30
0.0
 10
98.1035438847
 20
153.1255844416
 30
0.0
 10
93.5676548024
 20
153.229263483
 30
0.0
 10
89.0246891876
 20
153.2869662427
 30
0.0
 10
84.4726604455
 20
153.2747358221
 30
0.0
 10
79.9135023537
 20
153.1358106757
 30
0.0
 10
75.3572686832
 20
152.825136902
 30
0.0
 10
70.8158257492
 20
152.3292610918
 30
0.0
 10
67.0487293514
 20
151.7818016496
 30
0.0
 10
64.0468439905
 20
151.2720873455
 30
0.0
 10
61.8013093063
 20
150.8551215459
 30
0.0
 10
59.5608010646
 20
150.40658344
 30
0.0
 10
56.5775008221
 20
149.7635543925
 30
0.0
 10
52.8632970767
 20
148.852697718
 30
0.0
 10
48.4564527493
 20
147.5221710004
 30
0.0
 10
44.1260087127
 20
145.8853829749
 30
0.0
 10
39.9211001536
 20
143.883074008
 30
0.0
 10
35.9108914268
 20
141.4814596081
 30
0.0
 10
32.8048981983
 20
139.1215529842
 30
0.0
 10
30.5240700315
 20
137.0088033443
 30
0.0
 10
28.9267923149
 20
135.3136361086
 30
0.0
 10
27.445472205
 20
133.5122178518
 30
0.0
 10
26.0795996513
 20
131.6091589404
 30
0.0
 10
25.038464338
 20
129.9459852239
 30
0.0
 10
24.2643980389
 20
128.5686002228
 30
0.0
 10
23.7062634951
 20
127.5076519251
 30
0.0
 10
23.1732732007
 20
126.4128491244
 30
0.0
 10
22.6912626541
 20
125.2681133819
 30
0.0
 10
22.308194941
 20
124.058418909
 30
0.0
 10
22.1191818697
 20
122.9982727647
 30
0.0
 10
22.0782620976
 20
122.1262898295
 30
0.0
 10
22.1190300491
 20
121.247890858
 30
0.0
 10
22.3155745162
 20
120.1769735619
 30
0.0
 10
22.7126749567
 20
118.9595096731
 30
0.0
 10
23.2240450001
 20
117.814522346
 30
0.0
 10
23.8293361584
 20
116.7395575016
 30
0.0
 10
24.5097811423
 20
115.728196058
 30
0.0
 10
25.2469658383
 20
114.7738351601
 30
0.0
 10
26.2825194909
 20
113.5663378349
 30
0.0
 10
27.6689769688
 20
112.1519422826
 30
0.0
 10
29.4699886179
 20
110.6089811917
 30
0.0
 10
31.3952475912
 20
109.2306755801
 30
0.0
 10
33.4304247663
 20
108.028083964
 30
0.0
 10
35.5531544279
 20
106.9985780922
 30
0.0
 10
38.4632429968
 20
105.8440130005
 30
0.0
 10
42.2127688097
 20
104.7783811186
 30
0.0
 10
46.7906530498
 20
104.0010869372
 30
0.0
 10
49.8587493259
 20
103.7217121413
 30
0.0
 10
51.3895589451
 20
103.6175647542
 30
0.0
  0
SPLINE
  5
27A
100
AcDbEntity
  8
0
100
AcDbSpline
 62
7
  6
BYLAYER
 70
0
 71
3
 72
29
 73
25
 74
0
 42
0.0000001
 43
0.0000001
 44
0.0000000001
 40
0.0
 40
0.0
 40
0.0
 40
0.0
 40
0.0617006238
 40
0.1233803053
 40
0.1850896109
 40
0.2467986192
 40
0.3084781267
 40
0.3702006846
 40
0.4320342333
 40
0.4939806598
 40
0.5249965207
 40
0.5560537746
 40
0.6183964721
 40
0.6811403611
 40
0.7443184341
 40
0.8079345445
 40
0.8399311924
 40
0.8720569101
 40
0.9042990171
 40
0.9366205051
 40
0.9528126993
 40
0.9690356466
 40
0.9848802613
 40
1.0
 40
1.0
 40
1.0
 40
1.0
 10
60.2753499862
 20
105.615972134
 30
0.0
 10
61.4046920687
 20
105.6311103725
 30
0.0
 10
63.662710357
 20
105.7009757193
 30
0.0
 10
67.0435764731
 20
105.9343561616
 30
0.0
 10
70.4131087539
 20
106.2981971176
 30
0.0
 10
73.7658063797
 20
106.7939569726
 30
0.0
 10
77.0962127046
 20
107.423439984
 30
0.0
 10
80.4023274008
 20
108.1799177634
 30
0.0
 10
83.6842697314
 20
109.053622121
 30
0.0
 10
86.4006854358
 20
109.8611196057
 30
0.0
 10
88.5652853707
 20
110.5455838155
 30
0.0
 10
90.7291874872
 20
111.2558952904
 30
0.0
 10
93.4349847122
 20
112.176914116
 30
0.0
 10
96.7029737837
 20
113.2711545538
 30
0.0
 10
100.0189437507
 20
114.2938264659
 30
0.0
 10
102.8341582264
 20
115.0244263736
 30
0.0
 10
105.124590084
 20
115.4974470337
 30
0.0
 10
106.8651736647
 20
115.7869013614
 30
0.0
 10
108.6228671597
 20
115.9998886881
 30
0.0
 10
110.0980474721
 20
116.1053461447
 30
0.0
 10
111.2826262642
 20
116.1430388819
 30
0.0
 10
112.166178231
 20
116.1419475279
 30
0.0
 10
113.0297037417
 20
116.1221198277
 30
0.0
 10
113.5964350602
 20
116.1091777752
 30
0.0
 10
113.8732052141
 20
116.1091777752
 30
0.0
  0
SPLINE
  5
27B
100
AcDbEntity
  8
0
100
AcDbSpline
 62
7
  6
BYLAYER
 70
0
 71
3
 72
30
 73
26
 74
0
 42
0.0000001
 43
0.0000001
 44
0.0000000001
 40
0.0
 40
0.0
 40
0.0
 40
0.0
 40
0.0631186616
 40
0.1262061012
 40
0.1893202185
 40
0.2525152252
 40
0.3157554406
 40
0.3790056191
 40
0.4422191261
 40
0.5053149594
 40
0.5682983984
 40
0.5997451396
 40
0.6311302806
 40
0.6935820527
 40
0.7555508472
 40
0.7863721476
 40
0.8170690886
 40
0.8476354243
 40
0.8780867461
 40
0.9084481342
 40
0.9386740144
 40
0.9537411038
 40
0.9687373615
 40
0.9839760719
 40
1.0
 40
1.0
 40
1.0
 40
1.0
 10
51.3895589451
 20
103.6175647542
 30
0.0
 10
52.72892485
 20
103.5264420845
 30
0.0
 10
55.4105097143
 20
103.393103881
 30
0.0
 10
59.4375136533
 20
103.3314867098
 30
0.0
 10
63.4657658559
 20
103.430815185
 30
0.0
 10
67.4891259985
 20
103.7069807673
 30
0.0
 10
71.499009452
 20
104.1634753955
 30
0.0
 10
75.4840585332
 20
104.8041657148
 30
0.0
 10
79.4325689345
 20
105.6257137774
 30
0.0
 10
83.3364274455
 20
106.6143567423
 30
0.0
 10
86.5532831635
 20
107.5528981948
 30
0.0
 10
89.1062965538
 20
108.3548265346
 30
0.0
 10
91.6380625286
 20
109.186010606
 30
0.0
 10
94.7737842937
 20
110.2575807274
 30
0.0
 10
97.9089748296
 20
111.2943539008
 30
0.0
 10
100.4243106736
 20
112.0508895549
 30
0.0
 10
102.3138365661
 20
112.5672289832
 30
0.0
 10
104.2117697904
 20
113.0195881955
 30
0.0
 10
106.1195551294
 20
113.3938471471
 30
0.0
 10
108.03592308
 20
113.676552149
 30
0.0
 10
109.6392005482
 20
113.8239928825
 30
0.0
 10
110.920228094
 20
113.8847536216
 30
0.0
 10
111.8839158652
 20
113.8966160996
 30
0.0
 10
112.8676043055
 20
113.8759513599
 30
0.0
 10
113.5323945115
 20
113.8591777752
 30
0.0
 10
113.8732052141
 20
113.8591777752
 30
0.0
  0
SPLINE
  5
27C
100
AcDbEntity
  8
0
100
AcDbSpline
 62
7
  6
BYLAYER
 70
0
 71
3
 72
21
 73
17
 74
0
 42
0.0000001
 43
0.0000001
 44
0.0000000001
 40
0.0
 40
0.0
 40
0.0
 40
0.0
 40
0.0056955835
 40
0.0104101761
 40
0.0164949853
 40
0.0248319177
 40
0.0485639407
 40
0.0814242245
 40
0.1231885295
 40
0.1734064501
 40
0.2315729882
 40
0.2971173703
 40
0.4477050085
 40
0.6195334434
 40
0.8062258799
 40
1.0
 40
1.0
 40
1.0
 40
1.0
 10
145.4983014418
 20
116.1215448184
 30
0.0
 10
145.5004503206
 20
116.1215447934
 30
0.0
 10
145.504689603
 20
116.1210875744
 30
0.0
 10
145.5088302899
 20
116.1157968607
 30
0.0
 10
145.5095595031
 20
116.1084581456
 30
0.0
 10
145.5089999935
 20
116.0941250041
 30
0.0
 10
145.5064439446
 20
116.0696927818
 30
0.0
 10
145.5071853581
 20
116.0325379389
 30
0.0
 10
145.5100711
 20
115.9855349871
 30
0.0
 10
145.5138380451
 20
115.9290061542
 30
0.0
 10
145.5168267291
 20
115.8634481576
 30
0.0
 10
145.5195516383
 20
115.7599908481
 30
0.0
 10
145.5216257919
 20
115.6136311563
 30
0.0
 10
145.5243357869
 20
115.4215695327
 30
0.0
 10
145.5260090763
 20
115.2131999986
 30
0.0
 10
145.5262820584
 20
115.0696535284
 30
0.0
 10
145.5261876914
 20
114.9965448184
 30
0.0
  0
SPLINE
  5
27D
100
AcDbEntity
  8
0
100
AcDbSpline
 62
7
  6
BYLAYER
 70
0
 71
3
 72
21
 73
17
 74
0
 42
0.0000001
 43
0.0000001
 44
0.0000000001
 40
0.0
 40
0.0
 40
0.0
 40
0.0
 40
0.1937746148
 40
0.3804674706
 40
0.552296344
 40
0.7028843837
 40
0.7684289482
 40
0.8265956677
 40
0.8768137694
 40
0.9185781205
 40
0.9514384526
 40
0.9751710683
 40
0.9835080702
 40
0.9895922155
 40
0.9943052425
 40
1.0
 40
1.0
 40
1.0
 40
1.0
 10
145.5261696522
 20
114.9965448184
 30
0.0
 10
145.5262640214
 20
114.9234360848
 30
0.0
 10
145.5259887937
 20
114.779889587
 30
0.0
 10
145.5243115014
 20
114.5715200444
 30
0.0
 10
145.5216002176
 20
114.3794583937
 30
0.0
 10
145.5195269
 20
114.2330986332
 30
0.0
 10
145.5168019796
 20
114.1296412574
 30
0.0
 10
145.5138120489
 20
114.0640832557
 30
0.0
 10
145.5100436421
 20
114.0075544782
 30
0.0
 10
145.5071582679
 20
113.960551543
 30
0.0
 10
145.5064213497
 20
113.9233961769
 30
0.0
 10
145.5089855827
 20
113.8989644811
 30
0.0
 10
145.509551753
 20
113.88463176
 30
0.0
 10
145.5088273069
 20
113.8772933963
 30
0.0
 10
145.5046893296
 20
113.8720015218
 30
0.0
 10
145.5004505545
 20
113.8715448212
 30
0.0
 10
145.498301992
 20
113.8715448184
 30
0.0
  0
ENDSEC
  0
SECTION
  2
OBJECTS
  0
DICTIONARY
  5
C
100
AcDbDictionary
280
0
281
1
  3
ACAD_GROUP
350
D
  3
ACAD_MLINESTYLE
350
17
  3
ACAD_LAYOUT
350
1A
  3
ACAD_PLOTSETTINGS
350
19
  3
ACAD_PLOTSTYLENAME
350
E
  0
DICTIONARY
  5
D
102
{ACAD_REACTORS
330
C
102
}
100
AcDbDictionary
280
0
281
1
  0
ACDBDICTIONARYWDFLT
  5
E
102
{ACAD_REACTORS
330
C
102
}
100
AcDbDictionary
281
1
  3
Normal
350
F
100
AcDbDictionaryWithDefault
340
F
  0
DICTIONARY
  5
17
102
{ACAD_REACTORS
330
C
102
}
100
AcDbDictionary
280
0
281
1
  3
Standard
350
18
  0
DICTIONARY
  5
19
102
{ACAD_REACTORS
330
C
102
}
100
AcDbDictionary
281
1
  0
DICTIONARY
  5
1A
102
{ACAD_REACTORS
330
C
102
}
100
AcDbDictionary
281
1
  3
Model
350
27E
  3
Layout1
350
27F
  0
ACDBPLACEHOLDER
  5
F
102
{ACAD_REACTORS
330
E
102
}
  0
MLINESTYLE
  5
18
102
{ACAD_REACTORS
330
17
102
}
100
AcDbMlineStyle
  2
STANDARD
 70
0
  3

 62
256
 51
90.0
 52
90.0
 71
2
 49
0.5
 62
256
  6
BYLAYER
 49
-0.5
 62
256
  6
BYLAYER
  0
LAYOUT
  5
27E
102
{ACAD_REACTORS
330
1A
102
}
100
AcDbPlotSettings
  1

  2
none_device
  4

  6

 40
0.0
 41
0.0
 42
0.0
 43
0.0
 44
210.0
 45
297.0
 46
0.0
 47
0.0
 48
0.0
 49
0.0
140
0.0
141
0.0
142
1.0
143
1.0
 70
1024
 72
1
 73
0
 74
0
  7

 75
0
147
1.0
148
0.0
149
0.0
100
AcDbLayout
  1
Model
 70
0
 71
0
 10
0.0
 20
0.0
 11
210.0
 21
297.0
 12
0.0
 22
0.0
 32
0.0
 14
0.0
 24
0.0
 34
0.0
 15
0.0
 25
0.0
 35
0.0
146
0.0
 13
0.0
 23
0.0
 33
0.0
 16
1.0
 26
0.0
 36
0.0
 17
0.0
 27
1.0
 37
0.0
 76
0
330
210
345
0
346
0
  0
LAYOUT
  5
27F
102
{ACAD_REACTORS
330
1A
102
}
100
AcDbPlotSettings
  1

  2
none_device
  4

  6

 40
0.0
 41
0.0
 42
0.0
 43
0.0
 44
210.0
 45
297.0
 46
0.0
 47
0.0
 48
0.0
 49
0.0
140
0.0
141
0.0
142
1.0
143
1.0
 70
0
 72
1
 73
0
 74
0
  7

 75
0
147
1.0
148
0.0
149
0.0
100
AcDbLayout
  1
Layout1
 70
0
 71
1
 10
0.0
 20
0.0
 11
210.0
 21
297.0
 12
0.0
 22
0.0
 32
0.0
 14
0.0
 24
0.0
 34
0.0
 15
0.0
 25
0.0
 35
0.0
146
0.0
 13
0.0
 23
0.0
 33
0.0
 16
1.0
 26
0.0
 36
0.0
 17
0.0
 27
1.0
 37
0.0
 76
0
330
211
345
0
346
0
  0
ENDSEC
  0
EOF
