solid CATIA STL
  facet normal  0.000000e+000  0.000000e+000  1.000000e+000
    outer loop
      vertex -1.070088e+000  1.496178e+001  1.000000e+001
      vertex  1.070088e+000  1.496178e+001  1.000000e+001
      vertex  4.249154e-015  1.500000e+001  1.000000e+001
    endloop
  endfacet
  facet normal  -0.000000e+000  0.000000e+000  1.000000e+000
    outer loop
      vertex  1.070088e+000  1.496178e+001  1.000000e+001
      vertex -1.070088e+000  1.496178e+001  1.000000e+001
      vertex  2.134722e+000  1.484732e+001  1.000000e+001
    endloop
  endfacet
  facet normal  0.000000e+000  0.000000e+000  9.999999e-001
    outer loop
      vertex  2.134722e+000  1.484732e+001  1.000000e+001
      vertex -1.070088e+000  1.496178e+001  1.000000e+001
      vertex -2.134722e+000  1.484732e+001  1.000000e+001
    endloop
  endfacet
  facet normal  -0.000000e+000  0.000000e+000  9.999999e-001
    outer loop
      vertex  2.134722e+000  1.484732e+001  1.000000e+001
      vertex -2.134722e+000  1.484732e+001  1.000000e+001
      vertex  3.188479e+000  1.465720e+001  1.000000e+001
    endloop
  endfacet
  facet normal  0.000000e+000  0.000000e+000  1.000000e+000
    outer loop
      vertex  3.188479e+000  1.465720e+001  1.000000e+001
      vertex -2.134722e+000  1.484732e+001  1.000000e+001
      vertex -3.188479e+000  1.465720e+001  1.000000e+001
    endloop
  endfacet
  facet normal  -0.000000e+000  0.000000e+000  1.000000e+000
    outer loop
      vertex  3.188479e+000  1.465720e+001  1.000000e+001
      vertex -3.188479e+000  1.465720e+001  1.000000e+001
      vertex  4.225988e+000  1.439240e+001  1.000000e+001
    endloop
  endfacet
  facet normal  0.000000e+000  0.000000e+000  1.000000e+000
    outer loop
      vertex  4.225988e+000  1.439240e+001  1.000000e+001
      vertex -3.188479e+000  1.465720e+001  1.000000e+001
      vertex -4.225988e+000  1.439240e+001  1.000000e+001
    endloop
  endfacet
  facet normal  -0.000000e+000  0.000000e+000  1.000000e+000
    outer loop
      vertex  4.225988e+000  1.439240e+001  1.000000e+001
      vertex -4.225988e+000  1.439240e+001  1.000000e+001
      vertex  5.241963e+000  1.405425e+001  1.000000e+001
    endloop
  endfacet
  facet normal  0.000000e+000  0.000000e+000  1.000000e+000
    outer loop
      vertex  5.241963e+000  1.405425e+001  1.000000e+001
      vertex -4.225988e+000  1.439240e+001  1.000000e+001
      vertex -5.241963e+000  1.405425e+001  1.000000e+001
    endloop
  endfacet
  facet normal  -0.000000e+000  0.000000e+000  1.000000e+000
    outer loop
      vertex  5.241963e+000  1.405425e+001  1.000000e+001
      vertex -5.241963e+000  1.405425e+001  1.000000e+001
      vertex  6.231225e+000  1.364448e+001  1.000000e+001
    endloop
  endfacet
  facet normal  0.000000e+000  0.000000e+000  1.000000e+000
    outer loop
      vertex  6.231225e+000  1.364448e+001  1.000000e+001
      vertex -5.241963e+000  1.405425e+001  1.000000e+001
      vertex -6.231225e+000  1.364448e+001  1.000000e+001
    endloop
  endfacet
  facet normal  -0.000000e+000  0.000000e+000  1.000000e+000
    outer loop
      vertex  6.231225e+000  1.364448e+001  1.000000e+001
      vertex -6.231225e+000  1.364448e+001  1.000000e+001
      vertex  7.188735e+000  1.316518e+001  1.000000e+001
    endloop
  endfacet
  facet normal  0.000000e+000  0.000000e+000  1.000000e+000
    outer loop
      vertex  7.188735e+000  1.316518e+001  1.000000e+001
      vertex -6.231225e+000  1.364448e+001  1.000000e+001
      vertex -7.188735e+000  1.316518e+001  1.000000e+001
    endloop
  endfacet
  facet normal  -0.000000e+000  0.000000e+000  1.000000e+000
    outer loop
      vertex  7.188735e+000  1.316518e+001  1.000000e+001
      vertex -7.188735e+000  1.316518e+001  1.000000e+001
      vertex  8.109612e+000  1.261880e+001  1.000000e+001
    endloop
  endfacet
  facet normal  0.000000e+000  0.000000e+000  1.000000e+000
    outer loop
      vertex  8.109612e+000  1.261880e+001  1.000000e+001
      vertex -7.188735e+000  1.316518e+001  1.000000e+001
      vertex -8.109612e+000  1.261880e+001  1.000000e+001
    endloop
  endfacet
  facet normal  -0.000000e+000  0.000000e+000  1.000000e+000
    outer loop
      vertex  8.109612e+000  1.261880e+001  1.000000e+001
      vertex -8.109612e+000  1.261880e+001  1.000000e+001
      vertex  8.989165e+000  1.200812e+001  1.000000e+001
    endloop
  endfacet
  facet normal  0.000000e+000  0.000000e+000  1.000000e+000
    outer loop
      vertex  8.989165e+000  1.200812e+001  1.000000e+001
      vertex -8.109612e+000  1.261880e+001  1.000000e+001
      vertex -8.989165e+000  1.200812e+001  1.000000e+001
    endloop
  endfacet
  facet normal  -0.000000e+000  0.000000e+000  1.000000e+000
    outer loop
      vertex  8.989165e+000  1.200812e+001  1.000000e+001
      vertex -8.989165e+000  1.200812e+001  1.000000e+001
      vertex  9.822911e+000  1.133624e+001  1.000000e+001
    endloop
  endfacet
  facet normal  0.000000e+000  0.000000e+000  1.000000e+000
    outer loop
      vertex  9.822911e+000  1.133624e+001  1.000000e+001
      vertex -8.989165e+000  1.200812e+001  1.000000e+001
      vertex -9.822911e+000  1.133624e+001  1.000000e+001
    endloop
  endfacet
  facet normal  -0.000000e+000  0.000000e+000  1.000000e+000
    outer loop
      vertex  9.822911e+000  1.133624e+001  1.000000e+001
      vertex -9.822911e+000  1.133624e+001  1.000000e+001
      vertex  1.060660e+001  1.060660e+001  1.000000e+001
    endloop
  endfacet
  facet normal  0.000000e+000  0.000000e+000  9.999999e-001
    outer loop
      vertex  1.060660e+001  1.060660e+001  1.000000e+001
      vertex -9.822911e+000  1.133624e+001  1.000000e+001
      vertex -1.060660e+001  1.060660e+001  1.000000e+001
    endloop
  endfacet
  facet normal  -0.000000e+000  0.000000e+000  1.000000e+000
    outer loop
      vertex  1.060660e+001  1.060660e+001  1.000000e+001
      vertex -1.060660e+001  1.060660e+001  1.000000e+001
      vertex  1.133624e+001  9.822911e+000  1.000000e+001
    endloop
  endfacet
  facet normal  0.000000e+000  0.000000e+000  1.000000e+000
    outer loop
      vertex  1.133624e+001  9.822911e+000  1.000000e+001
      vertex -1.060660e+001  1.060660e+001  1.000000e+001
      vertex -1.133624e+001  9.822911e+000  1.000000e+001
    endloop
  endfacet
  facet normal  -0.000000e+000  0.000000e+000  1.000000e+000
    outer loop
      vertex  1.133624e+001  9.822911e+000  1.000000e+001
      vertex -1.133624e+001  9.822911e+000  1.000000e+001
      vertex  1.200812e+001  8.989165e+000  1.000000e+001
    endloop
  endfacet
  facet normal  0.000000e+000  0.000000e+000  1.000000e+000
    outer loop
      vertex  1.200812e+001  8.989165e+000  1.000000e+001
      vertex -1.133624e+001  9.822911e+000  1.000000e+001
      vertex -1.200812e+001  8.989165e+000  1.000000e+001
    endloop
  endfacet
  facet normal  -0.000000e+000  0.000000e+000  1.000000e+000
    outer loop
      vertex  1.200812e+001  8.989165e+000  1.000000e+001
      vertex -1.200812e+001  8.989165e+000  1.000000e+001
      vertex  1.261880e+001  8.109612e+000  1.000000e+001
    endloop
  endfacet
  facet normal  0.000000e+000  0.000000e+000  1.000000e+000
    outer loop
      vertex  1.261880e+001  8.109612e+000  1.000000e+001
      vertex -1.200812e+001  8.989165e+000  1.000000e+001
      vertex -1.261880e+001  8.109612e+000  1.000000e+001
    endloop
  endfacet
  facet normal  -0.000000e+000  0.000000e+000  9.999999e-001
    outer loop
      vertex  1.261880e+001  8.109612e+000  1.000000e+001
      vertex -1.261880e+001  8.109612e+000  1.000000e+001
      vertex  1.316518e+001  7.188735e+000  1.000000e+001
    endloop
  endfacet
  facet normal  0.000000e+000  0.000000e+000  1.000000e+000
    outer loop
      vertex  1.316518e+001  7.188735e+000  1.000000e+001
      vertex -1.261880e+001  8.109612e+000  1.000000e+001
      vertex -1.316518e+001  7.188735e+000  1.000000e+001
    endloop
  endfacet
  facet normal  -0.000000e+000  0.000000e+000  1.000000e+000
    outer loop
      vertex  1.316518e+001  7.188735e+000  1.000000e+001
      vertex -1.316518e+001  7.188735e+000  1.000000e+001
      vertex  1.364448e+001  6.231225e+000  1.000000e+001
    endloop
  endfacet
  facet normal  0.000000e+000  0.000000e+000  1.000000e+000
    outer loop
      vertex  1.364448e+001  6.231225e+000  1.000000e+001
      vertex -1.316518e+001  7.188735e+000  1.000000e+001
      vertex -1.364448e+001  6.231225e+000  1.000000e+001
    endloop
  endfacet
  facet normal  -0.000000e+000  0.000000e+000  1.000000e+000
    outer loop
      vertex  1.364448e+001  6.231225e+000  1.000000e+001
      vertex -1.364448e+001  6.231225e+000  1.000000e+001
      vertex  1.405425e+001  5.241963e+000  1.000000e+001
    endloop
  endfacet
  facet normal  0.000000e+000  0.000000e+000  1.000000e+000
    outer loop
      vertex  1.405425e+001  5.241963e+000  1.000000e+001
      vertex -1.364448e+001  6.231225e+000  1.000000e+001
      vertex -1.405425e+001  5.241963e+000  1.000000e+001
    endloop
  endfacet
  facet normal  -0.000000e+000  0.000000e+000  9.999999e-001
    outer loop
      vertex  1.405425e+001  5.241963e+000  1.000000e+001
      vertex -1.405425e+001  5.241963e+000  1.000000e+001
      vertex  1.439240e+001  4.225988e+000  1.000000e+001
    endloop
  endfacet
  facet normal  0.000000e+000  0.000000e+000  1.000000e+000
    outer loop
      vertex  1.439240e+001  4.225988e+000  1.000000e+001
      vertex -1.405425e+001  5.241963e+000  1.000000e+001
      vertex -1.439240e+001  4.225988e+000  1.000000e+001
    endloop
  endfacet
  facet normal  -0.000000e+000  0.000000e+000  1.000000e+000
    outer loop
      vertex  1.439240e+001  4.225988e+000  1.000000e+001
      vertex -1.439240e+001  4.225988e+000  1.000000e+001
      vertex  1.465720e+001  3.188479e+000  1.000000e+001
    endloop
  endfacet
  facet normal  0.000000e+000  0.000000e+000  9.999999e-001
    outer loop
      vertex  1.465720e+001  3.188479e+000  1.000000e+001
      vertex -1.439240e+001  4.225988e+000  1.000000e+001
      vertex -1.465720e+001  3.188479e+000  1.000000e+001
    endloop
  endfacet
  facet normal  -0.000000e+000  0.000000e+000  1.000000e+000
    outer loop
      vertex  1.465720e+001  3.188479e+000  1.000000e+001
      vertex -1.465720e+001  3.188479e+000  1.000000e+001
      vertex  1.484732e+001  2.134722e+000  1.000000e+001
    endloop
  endfacet
  facet normal  0.000000e+000  0.000000e+000  1.000000e+000
    outer loop
      vertex  1.484732e+001  2.134722e+000  1.000000e+001
      vertex -1.465720e+001  3.188479e+000  1.000000e+001
      vertex -1.484732e+001  2.134722e+000  1.000000e+001
    endloop
  endfacet
  facet normal  -0.000000e+000  0.000000e+000  9.999999e-001
    outer loop
      vertex  1.484732e+001  2.134722e+000  1.000000e+001
      vertex -1.484732e+001  2.134722e+000  1.000000e+001
      vertex  1.496178e+001  1.070088e+000  1.000000e+001
    endloop
  endfacet
  facet normal  0.000000e+000  0.000000e+000  1.000000e+000
    outer loop
      vertex  1.496178e+001  1.070088e+000  1.000000e+001
      vertex -1.484732e+001  2.134722e+000  1.000000e+001
      vertex -1.496178e+001  1.070088e+000  1.000000e+001
    endloop
  endfacet
  facet normal  -0.000000e+000  0.000000e+000  1.000000e+000
    outer loop
      vertex  1.496178e+001  1.070088e+000  1.000000e+001
      vertex -1.496178e+001  1.070088e+000  1.000000e+001
      vertex  1.500000e+001  0.000000e+000  1.000000e+001
    endloop
  endfacet
  facet normal  0.000000e+000  0.000000e+000  1.000000e+000
    outer loop
      vertex  1.500000e+001  0.000000e+000  1.000000e+001
      vertex -1.496178e+001  1.070088e+000  1.000000e+001
      vertex -1.500000e+001  8.498309e-015  1.000000e+001
    endloop
  endfacet
  facet normal  0.000000e+000  0.000000e+000  1.000000e+000
    outer loop
      vertex  1.500000e+001  0.000000e+000  1.000000e+001
      vertex -1.500000e+001  8.498309e-015  1.000000e+001
      vertex  1.496178e+001 -1.070088e+000  1.000000e+001
    endloop
  endfacet
  facet normal  0.000000e+000  0.000000e+000  1.000000e+000
    outer loop
      vertex  1.496178e+001 -1.070088e+000  1.000000e+001
      vertex -1.500000e+001  8.498309e-015  1.000000e+001
      vertex -1.496178e+001 -1.070088e+000  1.000000e+001
    endloop
  endfacet
  facet normal  -0.000000e+000  0.000000e+000  1.000000e+000
    outer loop
      vertex  1.496178e+001 -1.070088e+000  1.000000e+001
      vertex -1.496178e+001 -1.070088e+000  1.000000e+001
      vertex  1.484732e+001 -2.134722e+000  1.000000e+001
    endloop
  endfacet
  facet normal  0.000000e+000  0.000000e+000  9.999999e-001
    outer loop
      vertex  1.484732e+001 -2.134722e+000  1.000000e+001
      vertex -1.496178e+001 -1.070088e+000  1.000000e+001
      vertex -1.484732e+001 -2.134722e+000  1.000000e+001
    endloop
  endfacet
  facet normal  -0.000000e+000  0.000000e+000  1.000000e+000
    outer loop
      vertex  1.484732e+001 -2.134722e+000  1.000000e+001
      vertex -1.484732e+001 -2.134722e+000  1.000000e+001
      vertex  1.465720e+001 -3.188479e+000  1.000000e+001
    endloop
  endfacet
  facet normal  0.000000e+000  0.000000e+000  1.000000e+000
    outer loop
      vertex  1.465720e+001 -3.188479e+000  1.000000e+001
      vertex -1.484732e+001 -2.134722e+000  1.000000e+001
      vertex -1.465720e+001 -3.188479e+000  1.000000e+001
    endloop
  endfacet
  facet normal  -0.000000e+000  0.000000e+000  9.999999e-001
    outer loop
      vertex  1.465720e+001 -3.188479e+000  1.000000e+001
      vertex -1.465720e+001 -3.188479e+000  1.000000e+001
      vertex  1.439240e+001 -4.225988e+000  1.000000e+001
    endloop
  endfacet
  facet normal  0.000000e+000  0.000000e+000  1.000000e+000
    outer loop
      vertex  1.439240e+001 -4.225988e+000  1.000000e+001
      vertex -1.465720e+001 -3.188479e+000  1.000000e+001
      vertex -1.439240e+001 -4.225988e+000  1.000000e+001
    endloop
  endfacet
  facet normal  -0.000000e+000  0.000000e+000  1.000000e+000
    outer loop
      vertex  1.439240e+001 -4.225988e+000  1.000000e+001
      vertex -1.439240e+001 -4.225988e+000  1.000000e+001
      vertex  1.405425e+001 -5.241963e+000  1.000000e+001
    endloop
  endfacet
  facet normal  0.000000e+000  0.000000e+000  9.999999e-001
    outer loop
      vertex  1.405425e+001 -5.241963e+000  1.000000e+001
      vertex -1.439240e+001 -4.225988e+000  1.000000e+001
      vertex -1.405425e+001 -5.241963e+000  1.000000e+001
    endloop
  endfacet
  facet normal  -0.000000e+000  0.000000e+000  1.000000e+000
    outer loop
      vertex  1.405425e+001 -5.241963e+000  1.000000e+001
      vertex -1.405425e+001 -5.241963e+000  1.000000e+001
      vertex  1.364448e+001 -6.231225e+000  1.000000e+001
    endloop
  endfacet
  facet normal  0.000000e+000  0.000000e+000  1.000000e+000
    outer loop
      vertex  1.364448e+001 -6.231225e+000  1.000000e+001
      vertex -1.405425e+001 -5.241963e+000  1.000000e+001
      vertex -1.364448e+001 -6.231225e+000  1.000000e+001
    endloop
  endfacet
  facet normal  -0.000000e+000  0.000000e+000  1.000000e+000
    outer loop
      vertex  1.364448e+001 -6.231225e+000  1.000000e+001
      vertex -1.364448e+001 -6.231225e+000  1.000000e+001
      vertex  1.316518e+001 -7.188735e+000  1.000000e+001
    endloop
  endfacet
  facet normal  0.000000e+000  0.000000e+000  1.000000e+000
    outer loop
      vertex  1.316518e+001 -7.188735e+000  1.000000e+001
      vertex -1.364448e+001 -6.231225e+000  1.000000e+001
      vertex -1.316518e+001 -7.188735e+000  1.000000e+001
    endloop
  endfacet
  facet normal  -0.000000e+000  0.000000e+000  1.000000e+000
    outer loop
      vertex  1.316518e+001 -7.188735e+000  1.000000e+001
      vertex -1.316518e+001 -7.188735e+000  1.000000e+001
      vertex  1.261880e+001 -8.109612e+000  1.000000e+001
    endloop
  endfacet
  facet normal  0.000000e+000  0.000000e+000  9.999999e-001
    outer loop
      vertex  1.261880e+001 -8.109612e+000  1.000000e+001
      vertex -1.316518e+001 -7.188735e+000  1.000000e+001
      vertex -1.261880e+001 -8.109612e+000  1.000000e+001
    endloop
  endfacet
  facet normal  -0.000000e+000  0.000000e+000  1.000000e+000
    outer loop
      vertex  1.261880e+001 -8.109612e+000  1.000000e+001
      vertex -1.261880e+001 -8.109612e+000  1.000000e+001
      vertex  1.200812e+001 -8.989165e+000  1.000000e+001
    endloop
  endfacet
  facet normal  0.000000e+000  0.000000e+000  1.000000e+000
    outer loop
      vertex  1.200812e+001 -8.989165e+000  1.000000e+001
      vertex -1.261880e+001 -8.109612e+000  1.000000e+001
      vertex -1.200812e+001 -8.989165e+000  1.000000e+001
    endloop
  endfacet
  facet normal  -0.000000e+000  0.000000e+000  1.000000e+000
    outer loop
      vertex  1.200812e+001 -8.989165e+000  1.000000e+001
      vertex -1.200812e+001 -8.989165e+000  1.000000e+001
      vertex  1.133624e+001 -9.822911e+000  1.000000e+001
    endloop
  endfacet
  facet normal  0.000000e+000  0.000000e+000  1.000000e+000
    outer loop
      vertex  1.133624e+001 -9.822911e+000  1.000000e+001
      vertex -1.200812e+001 -8.989165e+000  1.000000e+001
      vertex -1.133624e+001 -9.822911e+000  1.000000e+001
    endloop
  endfacet
  facet normal  -0.000000e+000  0.000000e+000  1.000000e+000
    outer loop
      vertex  1.133624e+001 -9.822911e+000  1.000000e+001
      vertex -1.133624e+001 -9.822911e+000  1.000000e+001
      vertex  1.060660e+001 -1.060660e+001  1.000000e+001
    endloop
  endfacet
  facet normal  0.000000e+000  0.000000e+000  1.000000e+000
    outer loop
      vertex  1.060660e+001 -1.060660e+001  1.000000e+001
      vertex -1.133624e+001 -9.822911e+000  1.000000e+001
      vertex -1.060660e+001 -1.060660e+001  1.000000e+001
    endloop
  endfacet
  facet normal  -0.000000e+000  0.000000e+000  9.999999e-001
    outer loop
      vertex  1.060660e+001 -1.060660e+001  1.000000e+001
      vertex -1.060660e+001 -1.060660e+001  1.000000e+001
      vertex  9.822911e+000 -1.133624e+001  1.000000e+001
    endloop
  endfacet
  facet normal  0.000000e+000  0.000000e+000  1.000000e+000
    outer loop
      vertex  9.822911e+000 -1.133624e+001  1.000000e+001
      vertex -1.060660e+001 -1.060660e+001  1.000000e+001
      vertex -9.822911e+000 -1.133624e+001  1.000000e+001
    endloop
  endfacet
  facet normal  -0.000000e+000  0.000000e+000  1.000000e+000
    outer loop
      vertex  9.822911e+000 -1.133624e+001  1.000000e+001
      vertex -9.822911e+000 -1.133624e+001  1.000000e+001
      vertex  8.989165e+000 -1.200812e+001  1.000000e+001
    endloop
  endfacet
  facet normal  0.000000e+000  0.000000e+000  1.000000e+000
    outer loop
      vertex  8.989165e+000 -1.200812e+001  1.000000e+001
      vertex -9.822911e+000 -1.133624e+001  1.000000e+001
      vertex -8.989165e+000 -1.200812e+001  1.000000e+001
    endloop
  endfacet
  facet normal  -0.000000e+000  0.000000e+000  1.000000e+000
    outer loop
      vertex  8.989165e+000 -1.200812e+001  1.000000e+001
      vertex -8.989165e+000 -1.200812e+001  1.000000e+001
      vertex  8.109612e+000 -1.261880e+001  1.000000e+001
    endloop
  endfacet
  facet normal  0.000000e+000  0.000000e+000  1.000000e+000
    outer loop
      vertex  8.109612e+000 -1.261880e+001  1.000000e+001
      vertex -8.989165e+000 -1.200812e+001  1.000000e+001
      vertex -8.109612e+000 -1.261880e+001  1.000000e+001
    endloop
  endfacet
  facet normal  -0.000000e+000  0.000000e+000  1.000000e+000
    outer loop
      vertex  8.109612e+000 -1.261880e+001  1.000000e+001
      vertex -8.109612e+000 -1.261880e+001  1.000000e+001
      vertex  7.188735e+000 -1.316518e+001  1.000000e+001
    endloop
  endfacet
  facet normal  0.000000e+000  0.000000e+000  1.000000e+000
    outer loop
      vertex  7.188735e+000 -1.316518e+001  1.000000e+001
      vertex -8.109612e+000 -1.261880e+001  1.000000e+001
      vertex -7.188735e+000 -1.316518e+001  1.000000e+001
    endloop
  endfacet
  facet normal  -0.000000e+000  0.000000e+000  1.000000e+000
    outer loop
      vertex  7.188735e+000 -1.316518e+001  1.000000e+001
      vertex -7.188735e+000 -1.316518e+001  1.000000e+001
      vertex  6.231225e+000 -1.364448e+001  1.000000e+001
    endloop
  endfacet
  facet normal  0.000000e+000  0.000000e+000  1.000000e+000
    outer loop
      vertex  6.231225e+000 -1.364448e+001  1.000000e+001
      vertex -7.188735e+000 -1.316518e+001  1.000000e+001
      vertex -6.231225e+000 -1.364448e+001  1.000000e+001
    endloop
  endfacet
  facet normal  -0.000000e+000  0.000000e+000  1.000000e+000
    outer loop
      vertex  6.231225e+000 -1.364448e+001  1.000000e+001
      vertex -6.231225e+000 -1.364448e+001  1.000000e+001
      vertex  5.241963e+000 -1.405425e+001  1.000000e+001
    endloop
  endfacet
  facet normal  0.000000e+000  0.000000e+000  1.000000e+000
    outer loop
      vertex  5.241963e+000 -1.405425e+001  1.000000e+001
      vertex -6.231225e+000 -1.364448e+001  1.000000e+001
      vertex -5.241963e+000 -1.405425e+001  1.000000e+001
    endloop
  endfacet
  facet normal  -0.000000e+000  0.000000e+000  1.000000e+000
    outer loop
      vertex  5.241963e+000 -1.405425e+001  1.000000e+001
      vertex -5.241963e+000 -1.405425e+001  1.000000e+001
      vertex  4.225988e+000 -1.439240e+001  1.000000e+001
    endloop
  endfacet
  facet normal  0.000000e+000  0.000000e+000  1.000000e+000
    outer loop
      vertex  4.225988e+000 -1.439240e+001  1.000000e+001
      vertex -5.241963e+000 -1.405425e+001  1.000000e+001
      vertex -4.225988e+000 -1.439240e+001  1.000000e+001
    endloop
  endfacet
  facet normal  -0.000000e+000  0.000000e+000  1.000000e+000
    outer loop
      vertex  4.225988e+000 -1.439240e+001  1.000000e+001
      vertex -4.225988e+000 -1.439240e+001  1.000000e+001
      vertex  3.188479e+000 -1.465720e+001  1.000000e+001
    endloop
  endfacet
  facet normal  0.000000e+000  0.000000e+000  1.000000e+000
    outer loop
      vertex  3.188479e+000 -1.465720e+001  1.000000e+001
      vertex -4.225988e+000 -1.439240e+001  1.000000e+001
      vertex -3.188479e+000 -1.465720e+001  1.000000e+001
    endloop
  endfacet
  facet normal  -0.000000e+000  0.000000e+000  1.000000e+000
    outer loop
      vertex  3.188479e+000 -1.465720e+001  1.000000e+001
      vertex -3.188479e+000 -1.465720e+001  1.000000e+001
      vertex  2.134722e+000 -1.484732e+001  1.000000e+001
    endloop
  endfacet
  facet normal  0.000000e+000  0.000000e+000  9.999999e-001
    outer loop
      vertex  2.134722e+000 -1.484732e+001  1.000000e+001
      vertex -3.188479e+000 -1.465720e+001  1.000000e+001
      vertex -2.134722e+000 -1.484732e+001  1.000000e+001
    endloop
  endfacet
  facet normal  -0.000000e+000  0.000000e+000  9.999999e-001
    outer loop
      vertex  2.134722e+000 -1.484732e+001  1.000000e+001
      vertex -2.134722e+000 -1.484732e+001  1.000000e+001
      vertex  1.070088e+000 -1.496178e+001  1.000000e+001
    endloop
  endfacet
  facet normal  0.000000e+000  0.000000e+000  1.000000e+000
    outer loop
      vertex  1.070088e+000 -1.496178e+001  1.000000e+001
      vertex -2.134722e+000 -1.484732e+001  1.000000e+001
      vertex -1.070088e+000 -1.496178e+001  1.000000e+001
    endloop
  endfacet
  facet normal  -0.000000e+000  0.000000e+000  1.000000e+000
    outer loop
      vertex  1.070088e+000 -1.496178e+001  1.000000e+001
      vertex -1.070088e+000 -1.496178e+001  1.000000e+001
      vertex -1.607813e-014 -1.500000e+001  1.000000e+001
    endloop
  endfacet
  facet normal  0.000000e+000  0.000000e+000 -1.000000e+000
    outer loop
      vertex  4.249154e-015  1.500000e+001  0.000000e+000
      vertex  1.070088e+000  1.496178e+001  0.000000e+000
      vertex -1.070088e+000  1.496178e+001  0.000000e+000
    endloop
  endfacet
  facet normal  0.000000e+000  0.000000e+000 -1.000000e+000
    outer loop
      vertex -1.607813e-014 -1.500000e+001  0.000000e+000
      vertex -1.070088e+000 -1.496178e+001  0.000000e+000
      vertex  1.070088e+000 -1.496178e+001  0.000000e+000
    endloop
  endfacet
  facet normal  0.000000e+000  0.000000e+000 -1.000000e+000
    outer loop
      vertex  1.070088e+000 -1.496178e+001  0.000000e+000
      vertex -1.070088e+000 -1.496178e+001  0.000000e+000
      vertex -2.134722e+000 -1.484732e+001  0.000000e+000
    endloop
  endfacet
  facet normal  0.000000e+000  0.000000e+000 -9.999999e-001
    outer loop
      vertex  1.070088e+000 -1.496178e+001  0.000000e+000
      vertex -2.134722e+000 -1.484732e+001  0.000000e+000
      vertex  2.134722e+000 -1.484732e+001  0.000000e+000
    endloop
  endfacet
  facet normal  0.000000e+000  0.000000e+000 -9.999999e-001
    outer loop
      vertex  2.134722e+000 -1.484732e+001  0.000000e+000
      vertex -2.134722e+000 -1.484732e+001  0.000000e+000
      vertex -3.188479e+000 -1.465720e+001  0.000000e+000
    endloop
  endfacet
  facet normal  0.000000e+000  0.000000e+000 -1.000000e+000
    outer loop
      vertex  2.134722e+000 -1.484732e+001  0.000000e+000
      vertex -3.188479e+000 -1.465720e+001  0.000000e+000
      vertex  3.188479e+000 -1.465720e+001  0.000000e+000
    endloop
  endfacet
  facet normal  0.000000e+000  0.000000e+000 -1.000000e+000
    outer loop
      vertex  3.188479e+000 -1.465720e+001  0.000000e+000
      vertex -3.188479e+000 -1.465720e+001  0.000000e+000
      vertex -4.225988e+000 -1.439240e+001  0.000000e+000
    endloop
  endfacet
  facet normal  0.000000e+000  0.000000e+000 -1.000000e+000
    outer loop
      vertex  3.188479e+000 -1.465720e+001  0.000000e+000
      vertex -4.225988e+000 -1.439240e+001  0.000000e+000
      vertex  4.225988e+000 -1.439240e+001  0.000000e+000
    endloop
  endfacet
  facet normal  0.000000e+000  0.000000e+000 -1.000000e+000
    outer loop
      vertex  4.225988e+000 -1.439240e+001  0.000000e+000
      vertex -4.225988e+000 -1.439240e+001  0.000000e+000
      vertex -5.241963e+000 -1.405425e+001  0.000000e+000
    endloop
  endfacet
  facet normal  0.000000e+000  0.000000e+000 -1.000000e+000
    outer loop
      vertex  4.225988e+000 -1.439240e+001  0.000000e+000
      vertex -5.241963e+000 -1.405425e+001  0.000000e+000
      vertex  5.241963e+000 -1.405425e+001  0.000000e+000
    endloop
  endfacet
  facet normal  0.000000e+000  0.000000e+000 -1.000000e+000
    outer loop
      vertex  5.241963e+000 -1.405425e+001  0.000000e+000
      vertex -5.241963e+000 -1.405425e+001  0.000000e+000
      vertex -6.231225e+000 -1.364448e+001  0.000000e+000
    endloop
  endfacet
  facet normal  0.000000e+000  0.000000e+000 -1.000000e+000
    outer loop
      vertex  5.241963e+000 -1.405425e+001  0.000000e+000
      vertex -6.231225e+000 -1.364448e+001  0.000000e+000
      vertex  6.231225e+000 -1.364448e+001  0.000000e+000
    endloop
  endfacet
  facet normal  0.000000e+000  0.000000e+000 -1.000000e+000
    outer loop
      vertex  6.231225e+000 -1.364448e+001  0.000000e+000
      vertex -6.231225e+000 -1.364448e+001  0.000000e+000
      vertex -7.188735e+000 -1.316518e+001  0.000000e+000
    endloop
  endfacet
  facet normal  0.000000e+000  0.000000e+000 -1.000000e+000
    outer loop
      vertex  6.231225e+000 -1.364448e+001  0.000000e+000
      vertex -7.188735e+000 -1.316518e+001  0.000000e+000
      vertex  7.188735e+000 -1.316518e+001  0.000000e+000
    endloop
  endfacet
  facet normal  0.000000e+000  0.000000e+000 -1.000000e+000
    outer loop
      vertex  7.188735e+000 -1.316518e+001  0.000000e+000
      vertex -7.188735e+000 -1.316518e+001  0.000000e+000
      vertex -8.109612e+000 -1.261880e+001  0.000000e+000
    endloop
  endfacet
  facet normal  0.000000e+000  0.000000e+000 -1.000000e+000
    outer loop
      vertex  7.188735e+000 -1.316518e+001  0.000000e+000
      vertex -8.109612e+000 -1.261880e+001  0.000000e+000
      vertex  8.109612e+000 -1.261880e+001  0.000000e+000
    endloop
  endfacet
  facet normal  0.000000e+000  0.000000e+000 -1.000000e+000
    outer loop
      vertex  8.109612e+000 -1.261880e+001  0.000000e+000
      vertex -8.109612e+000 -1.261880e+001  0.000000e+000
      vertex -8.989165e+000 -1.200812e+001  0.000000e+000
    endloop
  endfacet
  facet normal  0.000000e+000  0.000000e+000 -1.000000e+000
    outer loop
      vertex  8.109612e+000 -1.261880e+001  0.000000e+000
      vertex -8.989165e+000 -1.200812e+001  0.000000e+000
      vertex  8.989165e+000 -1.200812e+001  0.000000e+000
    endloop
  endfacet
  facet normal  0.000000e+000  0.000000e+000 -1.000000e+000
    outer loop
      vertex  8.989165e+000 -1.200812e+001  0.000000e+000
      vertex -8.989165e+000 -1.200812e+001  0.000000e+000
      vertex -9.822911e+000 -1.133624e+001  0.000000e+000
    endloop
  endfacet
  facet normal  0.000000e+000  0.000000e+000 -1.000000e+000
    outer loop
      vertex  8.989165e+000 -1.200812e+001  0.000000e+000
      vertex -9.822911e+000 -1.133624e+001  0.000000e+000
      vertex  9.822911e+000 -1.133624e+001  0.000000e+000
    endloop
  endfacet
  facet normal  0.000000e+000  0.000000e+000 -1.000000e+000
    outer loop
      vertex  9.822911e+000 -1.133624e+001  0.000000e+000
      vertex -9.822911e+000 -1.133624e+001  0.000000e+000
      vertex -1.060660e+001 -1.060660e+001  0.000000e+000
    endloop
  endfacet
  facet normal  0.000000e+000  0.000000e+000 -9.999999e-001
    outer loop
      vertex  9.822911e+000 -1.133624e+001  0.000000e+000
      vertex -1.060660e+001 -1.060660e+001  0.000000e+000
      vertex  1.060660e+001 -1.060660e+001  0.000000e+000
    endloop
  endfacet
  facet normal  0.000000e+000  0.000000e+000 -1.000000e+000
    outer loop
      vertex  1.060660e+001 -1.060660e+001  0.000000e+000
      vertex -1.060660e+001 -1.060660e+001  0.000000e+000
      vertex -1.133624e+001 -9.822911e+000  0.000000e+000
    endloop
  endfacet
  facet normal  0.000000e+000  0.000000e+000 -1.000000e+000
    outer loop
      vertex  1.060660e+001 -1.060660e+001  0.000000e+000
      vertex -1.133624e+001 -9.822911e+000  0.000000e+000
      vertex  1.133624e+001 -9.822911e+000  0.000000e+000
    endloop
  endfacet
  facet normal  0.000000e+000  0.000000e+000 -1.000000e+000
    outer loop
      vertex  1.133624e+001 -9.822911e+000  0.000000e+000
      vertex -1.133624e+001 -9.822911e+000  0.000000e+000
      vertex -1.200812e+001 -8.989165e+000  0.000000e+000
    endloop
  endfacet
  facet normal  0.000000e+000  0.000000e+000 -1.000000e+000
    outer loop
      vertex  1.133624e+001 -9.822911e+000  0.000000e+000
      vertex -1.200812e+001 -8.989165e+000  0.000000e+000
      vertex  1.200812e+001 -8.989165e+000  0.000000e+000
    endloop
  endfacet
  facet normal  0.000000e+000  0.000000e+000 -1.000000e+000
    outer loop
      vertex  1.200812e+001 -8.989165e+000  0.000000e+000
      vertex -1.200812e+001 -8.989165e+000  0.000000e+000
      vertex -1.261880e+001 -8.109612e+000  0.000000e+000
    endloop
  endfacet
  facet normal  0.000000e+000  0.000000e+000 -1.000000e+000
    outer loop
      vertex  1.200812e+001 -8.989165e+000  0.000000e+000
      vertex -1.261880e+001 -8.109612e+000  0.000000e+000
      vertex  1.261880e+001 -8.109612e+000  0.000000e+000
    endloop
  endfacet
  facet normal  0.000000e+000  0.000000e+000 -9.999999e-001
    outer loop
      vertex  1.261880e+001 -8.109612e+000  0.000000e+000
      vertex -1.261880e+001 -8.109612e+000  0.000000e+000
      vertex -1.316518e+001 -7.188735e+000  0.000000e+000
    endloop
  endfacet
  facet normal  0.000000e+000  0.000000e+000 -1.000000e+000
    outer loop
      vertex  1.261880e+001 -8.109612e+000  0.000000e+000
      vertex -1.316518e+001 -7.188735e+000  0.000000e+000
      vertex  1.316518e+001 -7.188735e+000  0.000000e+000
    endloop
  endfacet
  facet normal  0.000000e+000  0.000000e+000 -1.000000e+000
    outer loop
      vertex  1.316518e+001 -7.188735e+000  0.000000e+000
      vertex -1.316518e+001 -7.188735e+000  0.000000e+000
      vertex -1.364448e+001 -6.231225e+000  0.000000e+000
    endloop
  endfacet
  facet normal  0.000000e+000  0.000000e+000 -1.000000e+000
    outer loop
      vertex  1.316518e+001 -7.188735e+000  0.000000e+000
      vertex -1.364448e+001 -6.231225e+000  0.000000e+000
      vertex  1.364448e+001 -6.231225e+000  0.000000e+000
    endloop
  endfacet
  facet normal  0.000000e+000  0.000000e+000 -1.000000e+000
    outer loop
      vertex  1.364448e+001 -6.231225e+000  0.000000e+000
      vertex -1.364448e+001 -6.231225e+000  0.000000e+000
      vertex -1.405425e+001 -5.241963e+000  0.000000e+000
    endloop
  endfacet
  facet normal  0.000000e+000  0.000000e+000 -1.000000e+000
    outer loop
      vertex  1.364448e+001 -6.231225e+000  0.000000e+000
      vertex -1.405425e+001 -5.241963e+000  0.000000e+000
      vertex  1.405425e+001 -5.241963e+000  0.000000e+000
    endloop
  endfacet
  facet normal  0.000000e+000  0.000000e+000 -9.999999e-001
    outer loop
      vertex  1.405425e+001 -5.241963e+000  0.000000e+000
      vertex -1.405425e+001 -5.241963e+000  0.000000e+000
      vertex -1.439240e+001 -4.225988e+000  0.000000e+000
    endloop
  endfacet
  facet normal  0.000000e+000  0.000000e+000 -1.000000e+000
    outer loop
      vertex  1.405425e+001 -5.241963e+000  0.000000e+000
      vertex -1.439240e+001 -4.225988e+000  0.000000e+000
      vertex  1.439240e+001 -4.225988e+000  0.000000e+000
    endloop
  endfacet
  facet normal  0.000000e+000  0.000000e+000 -1.000000e+000
    outer loop
      vertex  1.439240e+001 -4.225988e+000  0.000000e+000
      vertex -1.439240e+001 -4.225988e+000  0.000000e+000
      vertex -1.465720e+001 -3.188479e+000  0.000000e+000
    endloop
  endfacet
  facet normal  0.000000e+000  0.000000e+000 -9.999999e-001
    outer loop
      vertex  1.439240e+001 -4.225988e+000  0.000000e+000
      vertex -1.465720e+001 -3.188479e+000  0.000000e+000
      vertex  1.465720e+001 -3.188479e+000  0.000000e+000
    endloop
  endfacet
  facet normal  0.000000e+000  0.000000e+000 -1.000000e+000
    outer loop
      vertex  1.465720e+001 -3.188479e+000  0.000000e+000
      vertex -1.465720e+001 -3.188479e+000  0.000000e+000
      vertex -1.484732e+001 -2.134722e+000  0.000000e+000
    endloop
  endfacet
  facet normal  0.000000e+000  0.000000e+000 -1.000000e+000
    outer loop
      vertex  1.465720e+001 -3.188479e+000  0.000000e+000
      vertex -1.484732e+001 -2.134722e+000  0.000000e+000
      vertex  1.484732e+001 -2.134722e+000  0.000000e+000
    endloop
  endfacet
  facet normal  0.000000e+000  0.000000e+000 -9.999999e-001
    outer loop
      vertex  1.484732e+001 -2.134722e+000  0.000000e+000
      vertex -1.484732e+001 -2.134722e+000  0.000000e+000
      vertex -1.496178e+001 -1.070088e+000  0.000000e+000
    endloop
  endfacet
  facet normal  0.000000e+000  0.000000e+000 -1.000000e+000
    outer loop
      vertex  1.484732e+001 -2.134722e+000  0.000000e+000
      vertex -1.496178e+001 -1.070088e+000  0.000000e+000
      vertex  1.496178e+001 -1.070088e+000  0.000000e+000
    endloop
  endfacet
  facet normal  0.000000e+000  0.000000e+000 -1.000000e+000
    outer loop
      vertex  1.496178e+001 -1.070088e+000  0.000000e+000
      vertex -1.496178e+001 -1.070088e+000  0.000000e+000
      vertex -1.500000e+001  8.498309e-015  0.000000e+000
    endloop
  endfacet
  facet normal  0.000000e+000  0.000000e+000 -1.000000e+000
    outer loop
      vertex  1.496178e+001 -1.070088e+000  0.000000e+000
      vertex -1.500000e+001  8.498309e-015  0.000000e+000
      vertex  1.500000e+001  0.000000e+000  0.000000e+000
    endloop
  endfacet
  facet normal  0.000000e+000  0.000000e+000 -1.000000e+000
    outer loop
      vertex  1.500000e+001  0.000000e+000  0.000000e+000
      vertex -1.500000e+001  8.498309e-015  0.000000e+000
      vertex -1.496178e+001  1.070088e+000  0.000000e+000
    endloop
  endfacet
  facet normal  0.000000e+000  0.000000e+000 -1.000000e+000
    outer loop
      vertex  1.500000e+001  0.000000e+000  0.000000e+000
      vertex -1.496178e+001  1.070088e+000  0.000000e+000
      vertex  1.496178e+001  1.070088e+000  0.000000e+000
    endloop
  endfacet
  facet normal  0.000000e+000  0.000000e+000 -1.000000e+000
    outer loop
      vertex  1.496178e+001  1.070088e+000  0.000000e+000
      vertex -1.496178e+001  1.070088e+000  0.000000e+000
      vertex -1.484732e+001  2.134722e+000  0.000000e+000
    endloop
  endfacet
  facet normal  0.000000e+000  0.000000e+000 -9.999999e-001
    outer loop
      vertex  1.496178e+001  1.070088e+000  0.000000e+000
      vertex -1.484732e+001  2.134722e+000  0.000000e+000
      vertex  1.484732e+001  2.134722e+000  0.000000e+000
    endloop
  endfacet
  facet normal  0.000000e+000  0.000000e+000 -1.000000e+000
    outer loop
      vertex  1.484732e+001  2.134722e+000  0.000000e+000
      vertex -1.484732e+001  2.134722e+000  0.000000e+000
      vertex -1.465720e+001  3.188479e+000  0.000000e+000
    endloop
  endfacet
  facet normal  0.000000e+000  0.000000e+000 -1.000000e+000
    outer loop
      vertex  1.484732e+001  2.134722e+000  0.000000e+000
      vertex -1.465720e+001  3.188479e+000  0.000000e+000
      vertex  1.465720e+001  3.188479e+000  0.000000e+000
    endloop
  endfacet
  facet normal  0.000000e+000  0.000000e+000 -9.999999e-001
    outer loop
      vertex  1.465720e+001  3.188479e+000  0.000000e+000
      vertex -1.465720e+001  3.188479e+000  0.000000e+000
      vertex -1.439240e+001  4.225988e+000  0.000000e+000
    endloop
  endfacet
  facet normal  0.000000e+000  0.000000e+000 -1.000000e+000
    outer loop
      vertex  1.465720e+001  3.188479e+000  0.000000e+000
      vertex -1.439240e+001  4.225988e+000  0.000000e+000
      vertex  1.439240e+001  4.225988e+000  0.000000e+000
    endloop
  endfacet
  facet normal  0.000000e+000  0.000000e+000 -1.000000e+000
    outer loop
      vertex  1.439240e+001  4.225988e+000  0.000000e+000
      vertex -1.439240e+001  4.225988e+000  0.000000e+000
      vertex -1.405425e+001  5.241963e+000  0.000000e+000
    endloop
  endfacet
  facet normal  0.000000e+000  0.000000e+000 -9.999999e-001
    outer loop
      vertex  1.439240e+001  4.225988e+000  0.000000e+000
      vertex -1.405425e+001  5.241963e+000  0.000000e+000
      vertex  1.405425e+001  5.241963e+000  0.000000e+000
    endloop
  endfacet
  facet normal  0.000000e+000  0.000000e+000 -1.000000e+000
    outer loop
      vertex  1.405425e+001  5.241963e+000  0.000000e+000
      vertex -1.405425e+001  5.241963e+000  0.000000e+000
      vertex -1.364448e+001  6.231225e+000  0.000000e+000
    endloop
  endfacet
  facet normal  0.000000e+000  0.000000e+000 -1.000000e+000
    outer loop
      vertex  1.405425e+001  5.241963e+000  0.000000e+000
      vertex -1.364448e+001  6.231225e+000  0.000000e+000
      vertex  1.364448e+001  6.231225e+000  0.000000e+000
    endloop
  endfacet
  facet normal  0.000000e+000  0.000000e+000 -1.000000e+000
    outer loop
      vertex  1.364448e+001  6.231225e+000  0.000000e+000
      vertex -1.364448e+001  6.231225e+000  0.000000e+000
      vertex -1.316518e+001  7.188735e+000  0.000000e+000
    endloop
  endfacet
  facet normal  0.000000e+000  0.000000e+000 -1.000000e+000
    outer loop
      vertex  1.364448e+001  6.231225e+000  0.000000e+000
      vertex -1.316518e+001  7.188735e+000  0.000000e+000
      vertex  1.316518e+001  7.188735e+000  0.000000e+000
    endloop
  endfacet
  facet normal  0.000000e+000  0.000000e+000 -1.000000e+000
    outer loop
      vertex  1.316518e+001  7.188735e+000  0.000000e+000
      vertex -1.316518e+001  7.188735e+000  0.000000e+000
      vertex -1.261880e+001  8.109612e+000  0.000000e+000
    endloop
  endfacet
  facet normal  0.000000e+000  0.000000e+000 -9.999999e-001
    outer loop
      vertex  1.316518e+001  7.188735e+000  0.000000e+000
      vertex -1.261880e+001  8.109612e+000  0.000000e+000
      vertex  1.261880e+001  8.109612e+000  0.000000e+000
    endloop
  endfacet
  facet normal  0.000000e+000  0.000000e+000 -1.000000e+000
    outer loop
      vertex  1.261880e+001  8.109612e+000  0.000000e+000
      vertex -1.261880e+001  8.109612e+000  0.000000e+000
      vertex -1.200812e+001  8.989165e+000  0.000000e+000
    endloop
  endfacet
  facet normal  0.000000e+000  0.000000e+000 -1.000000e+000
    outer loop
      vertex  1.261880e+001  8.109612e+000  0.000000e+000
      vertex -1.200812e+001  8.989165e+000  0.000000e+000
      vertex  1.200812e+001  8.989165e+000  0.000000e+000
    endloop
  endfacet
  facet normal  0.000000e+000  0.000000e+000 -1.000000e+000
    outer loop
      vertex  1.200812e+001  8.989165e+000  0.000000e+000
      vertex -1.200812e+001  8.989165e+000  0.000000e+000
      vertex -1.133624e+001  9.822911e+000  0.000000e+000
    endloop
  endfacet
  facet normal  0.000000e+000  0.000000e+000 -1.000000e+000
    outer loop
      vertex  1.200812e+001  8.989165e+000  0.000000e+000
      vertex -1.133624e+001  9.822911e+000  0.000000e+000
      vertex  1.133624e+001  9.822911e+000  0.000000e+000
    endloop
  endfacet
  facet normal  0.000000e+000  0.000000e+000 -1.000000e+000
    outer loop
      vertex  1.133624e+001  9.822911e+000  0.000000e+000
      vertex -1.133624e+001  9.822911e+000  0.000000e+000
      vertex -1.060660e+001  1.060660e+001  0.000000e+000
    endloop
  endfacet
  facet normal  0.000000e+000  0.000000e+000 -1.000000e+000
    outer loop
      vertex  1.133624e+001  9.822911e+000  0.000000e+000
      vertex -1.060660e+001  1.060660e+001  0.000000e+000
      vertex  1.060660e+001  1.060660e+001  0.000000e+000
    endloop
  endfacet
  facet normal  0.000000e+000  0.000000e+000 -9.999999e-001
    outer loop
      vertex  1.060660e+001  1.060660e+001  0.000000e+000
      vertex -1.060660e+001  1.060660e+001  0.000000e+000
      vertex -9.822911e+000  1.133624e+001  0.000000e+000
    endloop
  endfacet
  facet normal  0.000000e+000  0.000000e+000 -1.000000e+000
    outer loop
      vertex  1.060660e+001  1.060660e+001  0.000000e+000
      vertex -9.822911e+000  1.133624e+001  0.000000e+000
      vertex  9.822911e+000  1.133624e+001  0.000000e+000
    endloop
  endfacet
  facet normal  0.000000e+000  0.000000e+000 -1.000000e+000
    outer loop
      vertex  9.822911e+000  1.133624e+001  0.000000e+000
      vertex -9.822911e+000  1.133624e+001  0.000000e+000
      vertex -8.989165e+000  1.200812e+001  0.000000e+000
    endloop
  endfacet
  facet normal  0.000000e+000  0.000000e+000 -1.000000e+000
    outer loop
      vertex  9.822911e+000  1.133624e+001  0.000000e+000
      vertex -8.989165e+000  1.200812e+001  0.000000e+000
      vertex  8.989165e+000  1.200812e+001  0.000000e+000
    endloop
  endfacet
  facet normal  0.000000e+000  0.000000e+000 -1.000000e+000
    outer loop
      vertex  8.989165e+000  1.200812e+001  0.000000e+000
      vertex -8.989165e+000  1.200812e+001  0.000000e+000
      vertex -8.109612e+000  1.261880e+001  0.000000e+000
    endloop
  endfacet
  facet normal  0.000000e+000  0.000000e+000 -1.000000e+000
    outer loop
      vertex  8.989165e+000  1.200812e+001  0.000000e+000
      vertex -8.109612e+000  1.261880e+001  0.000000e+000
      vertex  8.109612e+000  1.261880e+001  0.000000e+000
    endloop
  endfacet
  facet normal  0.000000e+000  0.000000e+000 -1.000000e+000
    outer loop
      vertex  8.109612e+000  1.261880e+001  0.000000e+000
      vertex -8.109612e+000  1.261880e+001  0.000000e+000
      vertex -7.188735e+000  1.316518e+001  0.000000e+000
    endloop
  endfacet
  facet normal  0.000000e+000  0.000000e+000 -1.000000e+000
    outer loop
      vertex  8.109612e+000  1.261880e+001  0.000000e+000
      vertex -7.188735e+000  1.316518e+001  0.000000e+000
      vertex  7.188735e+000  1.316518e+001  0.000000e+000
    endloop
  endfacet
  facet normal  0.000000e+000  0.000000e+000 -1.000000e+000
    outer loop
      vertex  7.188735e+000  1.316518e+001  0.000000e+000
      vertex -7.188735e+000  1.316518e+001  0.000000e+000
      vertex -6.231225e+000  1.364448e+001  0.000000e+000
    endloop
  endfacet
  facet normal  0.000000e+000  0.000000e+000 -1.000000e+000
    outer loop
      vertex  7.188735e+000  1.316518e+001  0.000000e+000
      vertex -6.231225e+000  1.364448e+001  0.000000e+000
      vertex  6.231225e+000  1.364448e+001  0.000000e+000
    endloop
  endfacet
  facet normal  0.000000e+000  0.000000e+000 -1.000000e+000
    outer loop
      vertex  6.231225e+000  1.364448e+001  0.000000e+000
      vertex -6.231225e+000  1.364448e+001  0.000000e+000
      vertex -5.241963e+000  1.405425e+001  0.000000e+000
    endloop
  endfacet
  facet normal  0.000000e+000  0.000000e+000 -1.000000e+000
    outer loop
      vertex  6.231225e+000  1.364448e+001  0.000000e+000
      vertex -5.241963e+000  1.405425e+001  0.000000e+000
      vertex  5.241963e+000  1.405425e+001  0.000000e+000
    endloop
  endfacet
  facet normal  0.000000e+000  0.000000e+000 -1.000000e+000
    outer loop
      vertex  5.241963e+000  1.405425e+001  0.000000e+000
      vertex -5.241963e+000  1.405425e+001  0.000000e+000
      vertex -4.225988e+000  1.439240e+001  0.000000e+000
    endloop
  endfacet
  facet normal  0.000000e+000  0.000000e+000 -1.000000e+000
    outer loop
      vertex  5.241963e+000  1.405425e+001  0.000000e+000
      vertex -4.225988e+000  1.439240e+001  0.000000e+000
      vertex  4.225988e+000  1.439240e+001  0.000000e+000
    endloop
  endfacet
  facet normal  0.000000e+000  0.000000e+000 -1.000000e+000
    outer loop
      vertex  4.225988e+000  1.439240e+001  0.000000e+000
      vertex -4.225988e+000  1.439240e+001  0.000000e+000
      vertex -3.188479e+000  1.465720e+001  0.000000e+000
    endloop
  endfacet
  facet normal  0.000000e+000  0.000000e+000 -1.000000e+000
    outer loop
      vertex  4.225988e+000  1.439240e+001  0.000000e+000
      vertex -3.188479e+000  1.465720e+001  0.000000e+000
      vertex  3.188479e+000  1.465720e+001  0.000000e+000
    endloop
  endfacet
  facet normal  0.000000e+000  0.000000e+000 -1.000000e+000
    outer loop
      vertex  3.188479e+000  1.465720e+001  0.000000e+000
      vertex -3.188479e+000  1.465720e+001  0.000000e+000
      vertex -2.134722e+000  1.484732e+001  0.000000e+000
    endloop
  endfacet
  facet normal  0.000000e+000  0.000000e+000 -9.999999e-001
    outer loop
      vertex  3.188479e+000  1.465720e+001  0.000000e+000
      vertex -2.134722e+000  1.484732e+001  0.000000e+000
      vertex  2.134722e+000  1.484732e+001  0.000000e+000
    endloop
  endfacet
  facet normal  0.000000e+000  0.000000e+000 -9.999999e-001
    outer loop
      vertex  2.134722e+000  1.484732e+001  0.000000e+000
      vertex -2.134722e+000  1.484732e+001  0.000000e+000
      vertex -1.070088e+000  1.496178e+001  0.000000e+000
    endloop
  endfacet
  facet normal  0.000000e+000  0.000000e+000 -1.000000e+000
    outer loop
      vertex  2.134722e+000  1.484732e+001  0.000000e+000
      vertex -1.070088e+000  1.496178e+001  0.000000e+000
      vertex  1.070088e+000  1.496178e+001  0.000000e+000
    endloop
  endfacet
  facet normal  9.993628e-001 -3.569254e-002  0.000000e+000
    outer loop
      vertex  1.500000e+001  0.000000e+000  0.000000e+000
      vertex  1.500000e+001  0.000000e+000  1.000000e+001
      vertex  1.496178e+001 -1.070088e+000  0.000000e+000
    endloop
  endfacet
  facet normal  9.993628e-001 -3.569254e-002  0.000000e+000
    outer loop
      vertex  1.496178e+001 -1.070088e+000  0.000000e+000
      vertex  1.500000e+001  0.000000e+000  1.000000e+001
      vertex  1.496178e+001 -1.070088e+000  1.000000e+001
    endloop
  endfacet
  facet normal  9.942703e-001 -1.068950e-001  0.000000e+000
    outer loop
      vertex  1.496178e+001 -1.070088e+000  0.000000e+000
      vertex  1.496178e+001 -1.070088e+000  1.000000e+001
      vertex  1.484732e+001 -2.134722e+000  0.000000e+000
    endloop
  endfacet
  facet normal  9.942703e-001 -1.068950e-001  0.000000e+000
    outer loop
      vertex  1.484732e+001 -2.134722e+000  0.000000e+000
      vertex  1.496178e+001 -1.070088e+000  1.000000e+001
      vertex  1.484732e+001 -2.134722e+000  1.000000e+001
    endloop
  endfacet
  facet normal  9.841112e-001 -1.775533e-001  0.000000e+000
    outer loop
      vertex  1.484732e+001 -2.134722e+000  0.000000e+000
      vertex  1.484732e+001 -2.134722e+000  1.000000e+001
      vertex  1.465720e+001 -3.188479e+000  0.000000e+000
    endloop
  endfacet
  facet normal  9.841112e-001 -1.775533e-001  0.000000e+000
    outer loop
      vertex  1.465720e+001 -3.188479e+000  0.000000e+000
      vertex  1.484732e+001 -2.134722e+000  1.000000e+001
      vertex  1.465720e+001 -3.188479e+000  1.000000e+001
    endloop
  endfacet
  facet normal  9.689375e-001 -2.473059e-001  0.000000e+000
    outer loop
      vertex  1.465720e+001 -3.188479e+000  0.000000e+000
      vertex  1.465720e+001 -3.188479e+000  1.000000e+001
      vertex  1.439240e+001 -4.225988e+000  0.000000e+000
    endloop
  endfacet
  facet normal  9.689375e-001 -2.473059e-001  0.000000e+000
    outer loop
      vertex  1.439240e+001 -4.225988e+000  0.000000e+000
      vertex  1.465720e+001 -3.188479e+000  1.000000e+001
      vertex  1.439240e+001 -4.225988e+000  1.000000e+001
    endloop
  endfacet
  facet normal  9.488259e-001 -3.157998e-001  0.000000e+000
    outer loop
      vertex  1.439240e+001 -4.225988e+000  0.000000e+000
      vertex  1.439240e+001 -4.225988e+000  1.000000e+001
      vertex  1.405425e+001 -5.241963e+000  0.000000e+000
    endloop
  endfacet
  facet normal  9.488259e-001 -3.157998e-001  0.000000e+000
    outer loop
      vertex  1.405425e+001 -5.241963e+000  0.000000e+000
      vertex  1.439240e+001 -4.225988e+000  1.000000e+001
      vertex  1.405425e+001 -5.241963e+000  1.000000e+001
    endloop
  endfacet
  facet normal  9.238793e-001 -3.826838e-001  0.000000e+000
    outer loop
      vertex  1.405425e+001 -5.241963e+000  0.000000e+000
      vertex  1.405425e+001 -5.241963e+000  1.000000e+001
      vertex  1.364448e+001 -6.231225e+000  0.000000e+000
    endloop
  endfacet
  facet normal  9.238793e-001 -3.826838e-001  0.000000e+000
    outer loop
      vertex  1.364448e+001 -6.231225e+000  0.000000e+000
      vertex  1.405425e+001 -5.241963e+000  1.000000e+001
      vertex  1.364448e+001 -6.231225e+000  1.000000e+001
    endloop
  endfacet
  facet normal  8.942255e-001 -4.476168e-001  0.000000e+000
    outer loop
      vertex  1.364448e+001 -6.231225e+000  0.000000e+000
      vertex  1.364448e+001 -6.231225e+000  1.000000e+001
      vertex  1.316518e+001 -7.188735e+000  0.000000e+000
    endloop
  endfacet
  facet normal  8.942255e-001 -4.476168e-001  0.000000e+000
    outer loop
      vertex  1.316518e+001 -7.188735e+000  0.000000e+000
      vertex  1.364448e+001 -6.231225e+000  1.000000e+001
      vertex  1.316518e+001 -7.188735e+000  1.000000e+001
    endloop
  endfacet
  facet normal  8.600142e-001 -5.102701e-001  0.000000e+000
    outer loop
      vertex  1.316518e+001 -7.188735e+000  0.000000e+000
      vertex  1.316518e+001 -7.188735e+000  1.000000e+001
      vertex  1.261880e+001 -8.109612e+000  0.000000e+000
    endloop
  endfacet
  facet normal  8.600142e-001 -5.102701e-001  0.000000e+000
    outer loop
      vertex  1.261880e+001 -8.109612e+000  0.000000e+000
      vertex  1.316518e+001 -7.188735e+000  1.000000e+001
      vertex  1.261880e+001 -8.109612e+000  1.000000e+001
    endloop
  endfacet
  facet normal  8.214208e-001 -5.703226e-001  0.000000e+000
    outer loop
      vertex  1.261880e+001 -8.109612e+000  0.000000e+000
      vertex  1.261880e+001 -8.109612e+000  1.000000e+001
      vertex  1.200812e+001 -8.989165e+000  0.000000e+000
    endloop
  endfacet
  facet normal  8.214208e-001 -5.703226e-001  0.000000e+000
    outer loop
      vertex  1.200812e+001 -8.989165e+000  0.000000e+000
      vertex  1.261880e+001 -8.109612e+000  1.000000e+001
      vertex  1.200812e+001 -8.989165e+000  1.000000e+001
    endloop
  endfacet
  facet normal  7.786415e-001 -6.274691e-001  0.000000e+000
    outer loop
      vertex  1.200812e+001 -8.989165e+000  0.000000e+000
      vertex  1.200812e+001 -8.989165e+000  1.000000e+001
      vertex  1.133624e+001 -9.822911e+000  0.000000e+000
    endloop
  endfacet
  facet normal  7.786415e-001 -6.274691e-001  0.000000e+000
    outer loop
      vertex  1.133624e+001 -9.822911e+000  0.000000e+000
      vertex  1.200812e+001 -8.989165e+000  1.000000e+001
      vertex  1.133624e+001 -9.822911e+000  1.000000e+001
    endloop
  endfacet
  facet normal  7.318944e-001 -6.814181e-001  0.000000e+000
    outer loop
      vertex  1.133624e+001 -9.822911e+000  0.000000e+000
      vertex  1.133624e+001 -9.822911e+000  1.000000e+001
      vertex  1.060660e+001 -1.060660e+001  0.000000e+000
    endloop
  endfacet
  facet normal  7.318944e-001 -6.814181e-001  0.000000e+000
    outer loop
      vertex  1.060660e+001 -1.060660e+001  0.000000e+000
      vertex  1.133624e+001 -9.822911e+000  1.000000e+001
      vertex  1.060660e+001 -1.060660e+001  1.000000e+001
    endloop
  endfacet
  facet normal  6.814181e-001 -7.318944e-001  0.000000e+000
    outer loop
      vertex  1.060660e+001 -1.060660e+001  0.000000e+000
      vertex  1.060660e+001 -1.060660e+001  1.000000e+001
      vertex  9.822911e+000 -1.133624e+001  0.000000e+000
    endloop
  endfacet
  facet normal  6.814181e-001 -7.318944e-001  0.000000e+000
    outer loop
      vertex  9.822911e+000 -1.133624e+001  0.000000e+000
      vertex  1.060660e+001 -1.060660e+001  1.000000e+001
      vertex  9.822911e+000 -1.133624e+001  1.000000e+001
    endloop
  endfacet
  facet normal  6.274691e-001 -7.786415e-001  0.000000e+000
    outer loop
      vertex  9.822911e+000 -1.133624e+001  0.000000e+000
      vertex  9.822911e+000 -1.133624e+001  1.000000e+001
      vertex  8.989165e+000 -1.200812e+001  0.000000e+000
    endloop
  endfacet
  facet normal  6.274691e-001 -7.786415e-001  0.000000e+000
    outer loop
      vertex  8.989165e+000 -1.200812e+001  0.000000e+000
      vertex  9.822911e+000 -1.133624e+001  1.000000e+001
      vertex  8.989165e+000 -1.200812e+001  1.000000e+001
    endloop
  endfacet
  facet normal  5.703226e-001 -8.214208e-001  0.000000e+000
    outer loop
      vertex  8.989165e+000 -1.200812e+001  0.000000e+000
      vertex  8.989165e+000 -1.200812e+001  1.000000e+001
      vertex  8.109612e+000 -1.261880e+001  0.000000e+000
    endloop
  endfacet
  facet normal  5.703226e-001 -8.214208e-001  0.000000e+000
    outer loop
      vertex  8.109612e+000 -1.261880e+001  0.000000e+000
      vertex  8.989165e+000 -1.200812e+001  1.000000e+001
      vertex  8.109612e+000 -1.261880e+001  1.000000e+001
    endloop
  endfacet
  facet normal  5.102701e-001 -8.600142e-001  0.000000e+000
    outer loop
      vertex  8.109612e+000 -1.261880e+001  0.000000e+000
      vertex  8.109612e+000 -1.261880e+001  1.000000e+001
      vertex  7.188735e+000 -1.316518e+001  0.000000e+000
    endloop
  endfacet
  facet normal  5.102701e-001 -8.600142e-001  0.000000e+000
    outer loop
      vertex  7.188735e+000 -1.316518e+001  0.000000e+000
      vertex  8.109612e+000 -1.261880e+001  1.000000e+001
      vertex  7.188735e+000 -1.316518e+001  1.000000e+001
    endloop
  endfacet
  facet normal  4.476168e-001 -8.942255e-001  0.000000e+000
    outer loop
      vertex  7.188735e+000 -1.316518e+001  0.000000e+000
      vertex  7.188735e+000 -1.316518e+001  1.000000e+001
      vertex  6.231225e+000 -1.364448e+001  0.000000e+000
    endloop
  endfacet
  facet normal  4.476168e-001 -8.942255e-001  0.000000e+000
    outer loop
      vertex  6.231225e+000 -1.364448e+001  0.000000e+000
      vertex  7.188735e+000 -1.316518e+001  1.000000e+001
      vertex  6.231225e+000 -1.364448e+001  1.000000e+001
    endloop
  endfacet
  facet normal  3.826838e-001 -9.238793e-001  0.000000e+000
    outer loop
      vertex  6.231225e+000 -1.364448e+001  0.000000e+000
      vertex  6.231225e+000 -1.364448e+001  1.000000e+001
      vertex  5.241963e+000 -1.405425e+001  0.000000e+000
    endloop
  endfacet
  facet normal  3.826838e-001 -9.238793e-001  0.000000e+000
    outer loop
      vertex  5.241963e+000 -1.405425e+001  0.000000e+000
      vertex  6.231225e+000 -1.364448e+001  1.000000e+001
      vertex  5.241963e+000 -1.405425e+001  1.000000e+001
    endloop
  endfacet
  facet normal  3.157998e-001 -9.488259e-001  0.000000e+000
    outer loop
      vertex  5.241963e+000 -1.405425e+001  0.000000e+000
      vertex  5.241963e+000 -1.405425e+001  1.000000e+001
      vertex  4.225988e+000 -1.439240e+001  0.000000e+000
    endloop
  endfacet
  facet normal  3.157998e-001 -9.488259e-001  0.000000e+000
    outer loop
      vertex  4.225988e+000 -1.439240e+001  0.000000e+000
      vertex  5.241963e+000 -1.405425e+001  1.000000e+001
      vertex  4.225988e+000 -1.439240e+001  1.000000e+001
    endloop
  endfacet
  facet normal  2.473059e-001 -9.689375e-001  0.000000e+000
    outer loop
      vertex  4.225988e+000 -1.439240e+001  0.000000e+000
      vertex  4.225988e+000 -1.439240e+001  1.000000e+001
      vertex  3.188479e+000 -1.465720e+001  0.000000e+000
    endloop
  endfacet
  facet normal  2.473059e-001 -9.689375e-001  0.000000e+000
    outer loop
      vertex  3.188479e+000 -1.465720e+001  0.000000e+000
      vertex  4.225988e+000 -1.439240e+001  1.000000e+001
      vertex  3.188479e+000 -1.465720e+001  1.000000e+001
    endloop
  endfacet
  facet normal  1.775533e-001 -9.841112e-001  0.000000e+000
    outer loop
      vertex  3.188479e+000 -1.465720e+001  0.000000e+000
      vertex  3.188479e+000 -1.465720e+001  1.000000e+001
      vertex  2.134722e+000 -1.484732e+001  0.000000e+000
    endloop
  endfacet
  facet normal  1.775533e-001 -9.841112e-001  0.000000e+000
    outer loop
      vertex  2.134722e+000 -1.484732e+001  0.000000e+000
      vertex  3.188479e+000 -1.465720e+001  1.000000e+001
      vertex  2.134722e+000 -1.484732e+001  1.000000e+001
    endloop
  endfacet
  facet normal  1.068950e-001 -9.942703e-001  0.000000e+000
    outer loop
      vertex  2.134722e+000 -1.484732e+001  0.000000e+000
      vertex  2.134722e+000 -1.484732e+001  1.000000e+001
      vertex  1.070088e+000 -1.496178e+001  0.000000e+000
    endloop
  endfacet
  facet normal  1.068950e-001 -9.942703e-001  0.000000e+000
    outer loop
      vertex  1.070088e+000 -1.496178e+001  0.000000e+000
      vertex  2.134722e+000 -1.484732e+001  1.000000e+001
      vertex  1.070088e+000 -1.496178e+001  1.000000e+001
    endloop
  endfacet
  facet normal  3.569254e-002 -9.993628e-001  0.000000e+000
    outer loop
      vertex  1.070088e+000 -1.496178e+001  0.000000e+000
      vertex  1.070088e+000 -1.496178e+001  1.000000e+001
      vertex -1.607813e-014 -1.500000e+001  0.000000e+000
    endloop
  endfacet
  facet normal  3.569254e-002 -9.993628e-001  0.000000e+000
    outer loop
      vertex -1.607813e-014 -1.500000e+001  0.000000e+000
      vertex  1.070088e+000 -1.496178e+001  1.000000e+001
      vertex -1.607813e-014 -1.500000e+001  1.000000e+001
    endloop
  endfacet
  facet normal -3.569254e-002 -9.993628e-001  -0.000000e+000
    outer loop
      vertex -1.607813e-014 -1.500000e+001  0.000000e+000
      vertex -1.607813e-014 -1.500000e+001  1.000000e+001
      vertex -1.070088e+000 -1.496178e+001  0.000000e+000
    endloop
  endfacet
  facet normal -3.569254e-002 -9.993628e-001  0.000000e+000
    outer loop
      vertex -1.070088e+000 -1.496178e+001  0.000000e+000
      vertex -1.607813e-014 -1.500000e+001  1.000000e+001
      vertex -1.070088e+000 -1.496178e+001  1.000000e+001
    endloop
  endfacet
  facet normal -1.068950e-001 -9.942703e-001  -0.000000e+000
    outer loop
      vertex -1.070088e+000 -1.496178e+001  0.000000e+000
      vertex -1.070088e+000 -1.496178e+001  1.000000e+001
      vertex -2.134722e+000 -1.484732e+001  0.000000e+000
    endloop
  endfacet
  facet normal -1.068950e-001 -9.942703e-001  0.000000e+000
    outer loop
      vertex -2.134722e+000 -1.484732e+001  0.000000e+000
      vertex -1.070088e+000 -1.496178e+001  1.000000e+001
      vertex -2.134722e+000 -1.484732e+001  1.000000e+001
    endloop
  endfacet
  facet normal -1.775533e-001 -9.841112e-001  -0.000000e+000
    outer loop
      vertex -2.134722e+000 -1.484732e+001  0.000000e+000
      vertex -2.134722e+000 -1.484732e+001  1.000000e+001
      vertex -3.188479e+000 -1.465720e+001  0.000000e+000
    endloop
  endfacet
  facet normal -1.775533e-001 -9.841112e-001  0.000000e+000
    outer loop
      vertex -3.188479e+000 -1.465720e+001  0.000000e+000
      vertex -2.134722e+000 -1.484732e+001  1.000000e+001
      vertex -3.188479e+000 -1.465720e+001  1.000000e+001
    endloop
  endfacet
  facet normal -2.473059e-001 -9.689375e-001  -0.000000e+000
    outer loop
      vertex -3.188479e+000 -1.465720e+001  0.000000e+000
      vertex -3.188479e+000 -1.465720e+001  1.000000e+001
      vertex -4.225988e+000 -1.439240e+001  0.000000e+000
    endloop
  endfacet
  facet normal -2.473059e-001 -9.689375e-001  0.000000e+000
    outer loop
      vertex -4.225988e+000 -1.439240e+001  0.000000e+000
      vertex -3.188479e+000 -1.465720e+001  1.000000e+001
      vertex -4.225988e+000 -1.439240e+001  1.000000e+001
    endloop
  endfacet
  facet normal -3.157998e-001 -9.488259e-001  -0.000000e+000
    outer loop
      vertex -4.225988e+000 -1.439240e+001  0.000000e+000
      vertex -4.225988e+000 -1.439240e+001  1.000000e+001
      vertex -5.241963e+000 -1.405425e+001  0.000000e+000
    endloop
  endfacet
  facet normal -3.157998e-001 -9.488259e-001  0.000000e+000
    outer loop
      vertex -5.241963e+000 -1.405425e+001  0.000000e+000
      vertex -4.225988e+000 -1.439240e+001  1.000000e+001
      vertex -5.241963e+000 -1.405425e+001  1.000000e+001
    endloop
  endfacet
  facet normal -3.826838e-001 -9.238793e-001  -0.000000e+000
    outer loop
      vertex -5.241963e+000 -1.405425e+001  0.000000e+000
      vertex -5.241963e+000 -1.405425e+001  1.000000e+001
      vertex -6.231225e+000 -1.364448e+001  0.000000e+000
    endloop
  endfacet
  facet normal -3.826838e-001 -9.238793e-001  0.000000e+000
    outer loop
      vertex -6.231225e+000 -1.364448e+001  0.000000e+000
      vertex -5.241963e+000 -1.405425e+001  1.000000e+001
      vertex -6.231225e+000 -1.364448e+001  1.000000e+001
    endloop
  endfacet
  facet normal -4.476168e-001 -8.942255e-001  -0.000000e+000
    outer loop
      vertex -6.231225e+000 -1.364448e+001  0.000000e+000
      vertex -6.231225e+000 -1.364448e+001  1.000000e+001
      vertex -7.188735e+000 -1.316518e+001  0.000000e+000
    endloop
  endfacet
  facet normal -4.476168e-001 -8.942255e-001  0.000000e+000
    outer loop
      vertex -7.188735e+000 -1.316518e+001  0.000000e+000
      vertex -6.231225e+000 -1.364448e+001  1.000000e+001
      vertex -7.188735e+000 -1.316518e+001  1.000000e+001
    endloop
  endfacet
  facet normal -5.102701e-001 -8.600142e-001  -0.000000e+000
    outer loop
      vertex -7.188735e+000 -1.316518e+001  0.000000e+000
      vertex -7.188735e+000 -1.316518e+001  1.000000e+001
      vertex -8.109612e+000 -1.261880e+001  0.000000e+000
    endloop
  endfacet
  facet normal -5.102701e-001 -8.600142e-001  0.000000e+000
    outer loop
      vertex -8.109612e+000 -1.261880e+001  0.000000e+000
      vertex -7.188735e+000 -1.316518e+001  1.000000e+001
      vertex -8.109612e+000 -1.261880e+001  1.000000e+001
    endloop
  endfacet
  facet normal -5.703226e-001 -8.214208e-001  -0.000000e+000
    outer loop
      vertex -8.109612e+000 -1.261880e+001  0.000000e+000
      vertex -8.109612e+000 -1.261880e+001  1.000000e+001
      vertex -8.989165e+000 -1.200812e+001  0.000000e+000
    endloop
  endfacet
  facet normal -5.703226e-001 -8.214208e-001  0.000000e+000
    outer loop
      vertex -8.989165e+000 -1.200812e+001  0.000000e+000
      vertex -8.109612e+000 -1.261880e+001  1.000000e+001
      vertex -8.989165e+000 -1.200812e+001  1.000000e+001
    endloop
  endfacet
  facet normal -6.274691e-001 -7.786415e-001  -0.000000e+000
    outer loop
      vertex -8.989165e+000 -1.200812e+001  0.000000e+000
      vertex -8.989165e+000 -1.200812e+001  1.000000e+001
      vertex -9.822911e+000 -1.133624e+001  0.000000e+000
    endloop
  endfacet
  facet normal -6.274691e-001 -7.786415e-001  0.000000e+000
    outer loop
      vertex -9.822911e+000 -1.133624e+001  0.000000e+000
      vertex -8.989165e+000 -1.200812e+001  1.000000e+001
      vertex -9.822911e+000 -1.133624e+001  1.000000e+001
    endloop
  endfacet
  facet normal -6.814181e-001 -7.318944e-001  -0.000000e+000
    outer loop
      vertex -9.822911e+000 -1.133624e+001  0.000000e+000
      vertex -9.822911e+000 -1.133624e+001  1.000000e+001
      vertex -1.060660e+001 -1.060660e+001  0.000000e+000
    endloop
  endfacet
  facet normal -6.814181e-001 -7.318944e-001  0.000000e+000
    outer loop
      vertex -1.060660e+001 -1.060660e+001  0.000000e+000
      vertex -9.822911e+000 -1.133624e+001  1.000000e+001
      vertex -1.060660e+001 -1.060660e+001  1.000000e+001
    endloop
  endfacet
  facet normal -7.318944e-001 -6.814181e-001  -0.000000e+000
    outer loop
      vertex -1.060660e+001 -1.060660e+001  0.000000e+000
      vertex -1.060660e+001 -1.060660e+001  1.000000e+001
      vertex -1.133624e+001 -9.822911e+000  0.000000e+000
    endloop
  endfacet
  facet normal -7.318944e-001 -6.814181e-001  0.000000e+000
    outer loop
      vertex -1.133624e+001 -9.822911e+000  0.000000e+000
      vertex -1.060660e+001 -1.060660e+001  1.000000e+001
      vertex -1.133624e+001 -9.822911e+000  1.000000e+001
    endloop
  endfacet
  facet normal -7.786415e-001 -6.274691e-001  -0.000000e+000
    outer loop
      vertex -1.133624e+001 -9.822911e+000  0.000000e+000
      vertex -1.133624e+001 -9.822911e+000  1.000000e+001
      vertex -1.200812e+001 -8.989165e+000  0.000000e+000
    endloop
  endfacet
  facet normal -7.786415e-001 -6.274691e-001  0.000000e+000
    outer loop
      vertex -1.200812e+001 -8.989165e+000  0.000000e+000
      vertex -1.133624e+001 -9.822911e+000  1.000000e+001
      vertex -1.200812e+001 -8.989165e+000  1.000000e+001
    endloop
  endfacet
  facet normal -8.214208e-001 -5.703226e-001  -0.000000e+000
    outer loop
      vertex -1.200812e+001 -8.989165e+000  0.000000e+000
      vertex -1.200812e+001 -8.989165e+000  1.000000e+001
      vertex -1.261880e+001 -8.109612e+000  0.000000e+000
    endloop
  endfacet
  facet normal -8.214208e-001 -5.703226e-001  0.000000e+000
    outer loop
      vertex -1.261880e+001 -8.109612e+000  0.000000e+000
      vertex -1.200812e+001 -8.989165e+000  1.000000e+001
      vertex -1.261880e+001 -8.109612e+000  1.000000e+001
    endloop
  endfacet
  facet normal -8.600142e-001 -5.102701e-001  -0.000000e+000
    outer loop
      vertex -1.261880e+001 -8.109612e+000  0.000000e+000
      vertex -1.261880e+001 -8.109612e+000  1.000000e+001
      vertex -1.316518e+001 -7.188735e+000  0.000000e+000
    endloop
  endfacet
  facet normal -8.600142e-001 -5.102701e-001  0.000000e+000
    outer loop
      vertex -1.316518e+001 -7.188735e+000  0.000000e+000
      vertex -1.261880e+001 -8.109612e+000  1.000000e+001
      vertex -1.316518e+001 -7.188735e+000  1.000000e+001
    endloop
  endfacet
  facet normal -8.942255e-001 -4.476168e-001  -0.000000e+000
    outer loop
      vertex -1.316518e+001 -7.188735e+000  0.000000e+000
      vertex -1.316518e+001 -7.188735e+000  1.000000e+001
      vertex -1.364448e+001 -6.231225e+000  0.000000e+000
    endloop
  endfacet
  facet normal -8.942255e-001 -4.476168e-001  0.000000e+000
    outer loop
      vertex -1.364448e+001 -6.231225e+000  0.000000e+000
      vertex -1.316518e+001 -7.188735e+000  1.000000e+001
      vertex -1.364448e+001 -6.231225e+000  1.000000e+001
    endloop
  endfacet
  facet normal -9.238793e-001 -3.826838e-001  -0.000000e+000
    outer loop
      vertex -1.364448e+001 -6.231225e+000  0.000000e+000
      vertex -1.364448e+001 -6.231225e+000  1.000000e+001
      vertex -1.405425e+001 -5.241963e+000  0.000000e+000
    endloop
  endfacet
  facet normal -9.238793e-001 -3.826838e-001  0.000000e+000
    outer loop
      vertex -1.405425e+001 -5.241963e+000  0.000000e+000
      vertex -1.364448e+001 -6.231225e+000  1.000000e+001
      vertex -1.405425e+001 -5.241963e+000  1.000000e+001
    endloop
  endfacet
  facet normal -9.488259e-001 -3.157998e-001  -0.000000e+000
    outer loop
      vertex -1.405425e+001 -5.241963e+000  0.000000e+000
      vertex -1.405425e+001 -5.241963e+000  1.000000e+001
      vertex -1.439240e+001 -4.225988e+000  0.000000e+000
    endloop
  endfacet
  facet normal -9.488259e-001 -3.157998e-001  0.000000e+000
    outer loop
      vertex -1.439240e+001 -4.225988e+000  0.000000e+000
      vertex -1.405425e+001 -5.241963e+000  1.000000e+001
      vertex -1.439240e+001 -4.225988e+000  1.000000e+001
    endloop
  endfacet
  facet normal -9.689375e-001 -2.473059e-001  -0.000000e+000
    outer loop
      vertex -1.439240e+001 -4.225988e+000  0.000000e+000
      vertex -1.439240e+001 -4.225988e+000  1.000000e+001
      vertex -1.465720e+001 -3.188479e+000  0.000000e+000
    endloop
  endfacet
  facet normal -9.689375e-001 -2.473059e-001  0.000000e+000
    outer loop
      vertex -1.465720e+001 -3.188479e+000  0.000000e+000
      vertex -1.439240e+001 -4.225988e+000  1.000000e+001
      vertex -1.465720e+001 -3.188479e+000  1.000000e+001
    endloop
  endfacet
  facet normal -9.841112e-001 -1.775533e-001  -0.000000e+000
    outer loop
      vertex -1.465720e+001 -3.188479e+000  0.000000e+000
      vertex -1.465720e+001 -3.188479e+000  1.000000e+001
      vertex -1.484732e+001 -2.134722e+000  0.000000e+000
    endloop
  endfacet
  facet normal -9.841112e-001 -1.775533e-001  0.000000e+000
    outer loop
      vertex -1.484732e+001 -2.134722e+000  0.000000e+000
      vertex -1.465720e+001 -3.188479e+000  1.000000e+001
      vertex -1.484732e+001 -2.134722e+000  1.000000e+001
    endloop
  endfacet
  facet normal -9.942703e-001 -1.068950e-001  -0.000000e+000
    outer loop
      vertex -1.484732e+001 -2.134722e+000  0.000000e+000
      vertex -1.484732e+001 -2.134722e+000  1.000000e+001
      vertex -1.496178e+001 -1.070088e+000  0.000000e+000
    endloop
  endfacet
  facet normal -9.942703e-001 -1.068950e-001  0.000000e+000
    outer loop
      vertex -1.496178e+001 -1.070088e+000  0.000000e+000
      vertex -1.484732e+001 -2.134722e+000  1.000000e+001
      vertex -1.496178e+001 -1.070088e+000  1.000000e+001
    endloop
  endfacet
  facet normal -9.993628e-001 -3.569254e-002  -0.000000e+000
    outer loop
      vertex -1.496178e+001 -1.070088e+000  0.000000e+000
      vertex -1.496178e+001 -1.070088e+000  1.000000e+001
      vertex -1.500000e+001  8.498309e-015  0.000000e+000
    endloop
  endfacet
  facet normal -9.993628e-001 -3.569254e-002  0.000000e+000
    outer loop
      vertex -1.500000e+001  8.498309e-015  0.000000e+000
      vertex -1.496178e+001 -1.070088e+000  1.000000e+001
      vertex -1.500000e+001  8.498309e-015  1.000000e+001
    endloop
  endfacet
  facet normal -9.993628e-001  3.569254e-002  0.000000e+000
    outer loop
      vertex -1.500000e+001  8.498309e-015  0.000000e+000
      vertex -1.500000e+001  8.498309e-015  1.000000e+001
      vertex -1.496178e+001  1.070088e+000  0.000000e+000
    endloop
  endfacet
  facet normal -9.993628e-001  3.569254e-002  0.000000e+000
    outer loop
      vertex -1.496178e+001  1.070088e+000  0.000000e+000
      vertex -1.500000e+001  8.498309e-015  1.000000e+001
      vertex -1.496178e+001  1.070088e+000  1.000000e+001
    endloop
  endfacet
  facet normal -9.942703e-001  1.068950e-001  0.000000e+000
    outer loop
      vertex -1.496178e+001  1.070088e+000  0.000000e+000
      vertex -1.496178e+001  1.070088e+000  1.000000e+001
      vertex -1.484732e+001  2.134722e+000  0.000000e+000
    endloop
  endfacet
  facet normal -9.942703e-001  1.068950e-001  0.000000e+000
    outer loop
      vertex -1.484732e+001  2.134722e+000  0.000000e+000
      vertex -1.496178e+001  1.070088e+000  1.000000e+001
      vertex -1.484732e+001  2.134722e+000  1.000000e+001
    endloop
  endfacet
  facet normal -9.841112e-001  1.775533e-001  0.000000e+000
    outer loop
      vertex -1.484732e+001  2.134722e+000  0.000000e+000
      vertex -1.484732e+001  2.134722e+000  1.000000e+001
      vertex -1.465720e+001  3.188479e+000  0.000000e+000
    endloop
  endfacet
  facet normal -9.841112e-001  1.775533e-001  0.000000e+000
    outer loop
      vertex -1.465720e+001  3.188479e+000  0.000000e+000
      vertex -1.484732e+001  2.134722e+000  1.000000e+001
      vertex -1.465720e+001  3.188479e+000  1.000000e+001
    endloop
  endfacet
  facet normal -9.689375e-001  2.473059e-001  0.000000e+000
    outer loop
      vertex -1.465720e+001  3.188479e+000  0.000000e+000
      vertex -1.465720e+001  3.188479e+000  1.000000e+001
      vertex -1.439240e+001  4.225988e+000  0.000000e+000
    endloop
  endfacet
  facet normal -9.689375e-001  2.473059e-001  0.000000e+000
    outer loop
      vertex -1.439240e+001  4.225988e+000  0.000000e+000
      vertex -1.465720e+001  3.188479e+000  1.000000e+001
      vertex -1.439240e+001  4.225988e+000  1.000000e+001
    endloop
  endfacet
  facet normal -9.488259e-001  3.157998e-001  0.000000e+000
    outer loop
      vertex -1.439240e+001  4.225988e+000  0.000000e+000
      vertex -1.439240e+001  4.225988e+000  1.000000e+001
      vertex -1.405425e+001  5.241963e+000  0.000000e+000
    endloop
  endfacet
  facet normal -9.488259e-001  3.157998e-001  0.000000e+000
    outer loop
      vertex -1.405425e+001  5.241963e+000  0.000000e+000
      vertex -1.439240e+001  4.225988e+000  1.000000e+001
      vertex -1.405425e+001  5.241963e+000  1.000000e+001
    endloop
  endfacet
  facet normal -9.238793e-001  3.826838e-001  0.000000e+000
    outer loop
      vertex -1.405425e+001  5.241963e+000  0.000000e+000
      vertex -1.405425e+001  5.241963e+000  1.000000e+001
      vertex -1.364448e+001  6.231225e+000  0.000000e+000
    endloop
  endfacet
  facet normal -9.238793e-001  3.826838e-001  0.000000e+000
    outer loop
      vertex -1.364448e+001  6.231225e+000  0.000000e+000
      vertex -1.405425e+001  5.241963e+000  1.000000e+001
      vertex -1.364448e+001  6.231225e+000  1.000000e+001
    endloop
  endfacet
  facet normal -8.942255e-001  4.476168e-001  0.000000e+000
    outer loop
      vertex -1.364448e+001  6.231225e+000  0.000000e+000
      vertex -1.364448e+001  6.231225e+000  1.000000e+001
      vertex -1.316518e+001  7.188735e+000  0.000000e+000
    endloop
  endfacet
  facet normal -8.942255e-001  4.476168e-001  0.000000e+000
    outer loop
      vertex -1.316518e+001  7.188735e+000  0.000000e+000
      vertex -1.364448e+001  6.231225e+000  1.000000e+001
      vertex -1.316518e+001  7.188735e+000  1.000000e+001
    endloop
  endfacet
  facet normal -8.600142e-001  5.102701e-001  0.000000e+000
    outer loop
      vertex -1.316518e+001  7.188735e+000  0.000000e+000
      vertex -1.316518e+001  7.188735e+000  1.000000e+001
      vertex -1.261880e+001  8.109612e+000  0.000000e+000
    endloop
  endfacet
  facet normal -8.600142e-001  5.102701e-001  0.000000e+000
    outer loop
      vertex -1.261880e+001  8.109612e+000  0.000000e+000
      vertex -1.316518e+001  7.188735e+000  1.000000e+001
      vertex -1.261880e+001  8.109612e+000  1.000000e+001
    endloop
  endfacet
  facet normal -8.214208e-001  5.703226e-001  0.000000e+000
    outer loop
      vertex -1.261880e+001  8.109612e+000  0.000000e+000
      vertex -1.261880e+001  8.109612e+000  1.000000e+001
      vertex -1.200812e+001  8.989165e+000  0.000000e+000
    endloop
  endfacet
  facet normal -8.214208e-001  5.703226e-001  0.000000e+000
    outer loop
      vertex -1.200812e+001  8.989165e+000  0.000000e+000
      vertex -1.261880e+001  8.109612e+000  1.000000e+001
      vertex -1.200812e+001  8.989165e+000  1.000000e+001
    endloop
  endfacet
  facet normal -7.786415e-001  6.274691e-001  0.000000e+000
    outer loop
      vertex -1.200812e+001  8.989165e+000  0.000000e+000
      vertex -1.200812e+001  8.989165e+000  1.000000e+001
      vertex -1.133624e+001  9.822911e+000  0.000000e+000
    endloop
  endfacet
  facet normal -7.786415e-001  6.274691e-001  0.000000e+000
    outer loop
      vertex -1.133624e+001  9.822911e+000  0.000000e+000
      vertex -1.200812e+001  8.989165e+000  1.000000e+001
      vertex -1.133624e+001  9.822911e+000  1.000000e+001
    endloop
  endfacet
  facet normal -7.318944e-001  6.814181e-001  0.000000e+000
    outer loop
      vertex -1.133624e+001  9.822911e+000  0.000000e+000
      vertex -1.133624e+001  9.822911e+000  1.000000e+001
      vertex -1.060660e+001  1.060660e+001  0.000000e+000
    endloop
  endfacet
  facet normal -7.318944e-001  6.814181e-001  0.000000e+000
    outer loop
      vertex -1.060660e+001  1.060660e+001  0.000000e+000
      vertex -1.133624e+001  9.822911e+000  1.000000e+001
      vertex -1.060660e+001  1.060660e+001  1.000000e+001
    endloop
  endfacet
  facet normal -6.814181e-001  7.318944e-001  0.000000e+000
    outer loop
      vertex -1.060660e+001  1.060660e+001  0.000000e+000
      vertex -1.060660e+001  1.060660e+001  1.000000e+001
      vertex -9.822911e+000  1.133624e+001  0.000000e+000
    endloop
  endfacet
  facet normal -6.814181e-001  7.318944e-001  0.000000e+000
    outer loop
      vertex -9.822911e+000  1.133624e+001  0.000000e+000
      vertex -1.060660e+001  1.060660e+001  1.000000e+001
      vertex -9.822911e+000  1.133624e+001  1.000000e+001
    endloop
  endfacet
  facet normal -6.274691e-001  7.786415e-001  0.000000e+000
    outer loop
      vertex -9.822911e+000  1.133624e+001  0.000000e+000
      vertex -9.822911e+000  1.133624e+001  1.000000e+001
      vertex -8.989165e+000  1.200812e+001  0.000000e+000
    endloop
  endfacet
  facet normal -6.274691e-001  7.786415e-001  0.000000e+000
    outer loop
      vertex -8.989165e+000  1.200812e+001  0.000000e+000
      vertex -9.822911e+000  1.133624e+001  1.000000e+001
      vertex -8.989165e+000  1.200812e+001  1.000000e+001
    endloop
  endfacet
  facet normal -5.703226e-001  8.214208e-001  0.000000e+000
    outer loop
      vertex -8.989165e+000  1.200812e+001  0.000000e+000
      vertex -8.989165e+000  1.200812e+001  1.000000e+001
      vertex -8.109612e+000  1.261880e+001  0.000000e+000
    endloop
  endfacet
  facet normal -5.703226e-001  8.214208e-001  0.000000e+000
    outer loop
      vertex -8.109612e+000  1.261880e+001  0.000000e+000
      vertex -8.989165e+000  1.200812e+001  1.000000e+001
      vertex -8.109612e+000  1.261880e+001  1.000000e+001
    endloop
  endfacet
  facet normal -5.102701e-001  8.600142e-001  0.000000e+000
    outer loop
      vertex -8.109612e+000  1.261880e+001  0.000000e+000
      vertex -8.109612e+000  1.261880e+001  1.000000e+001
      vertex -7.188735e+000  1.316518e+001  0.000000e+000
    endloop
  endfacet
  facet normal -5.102701e-001  8.600142e-001  0.000000e+000
    outer loop
      vertex -7.188735e+000  1.316518e+001  0.000000e+000
      vertex -8.109612e+000  1.261880e+001  1.000000e+001
      vertex -7.188735e+000  1.316518e+001  1.000000e+001
    endloop
  endfacet
  facet normal -4.476168e-001  8.942255e-001  0.000000e+000
    outer loop
      vertex -7.188735e+000  1.316518e+001  0.000000e+000
      vertex -7.188735e+000  1.316518e+001  1.000000e+001
      vertex -6.231225e+000  1.364448e+001  0.000000e+000
    endloop
  endfacet
  facet normal -4.476168e-001  8.942255e-001  0.000000e+000
    outer loop
      vertex -6.231225e+000  1.364448e+001  0.000000e+000
      vertex -7.188735e+000  1.316518e+001  1.000000e+001
      vertex -6.231225e+000  1.364448e+001  1.000000e+001
    endloop
  endfacet
  facet normal -3.826838e-001  9.238793e-001  0.000000e+000
    outer loop
      vertex -6.231225e+000  1.364448e+001  0.000000e+000
      vertex -6.231225e+000  1.364448e+001  1.000000e+001
      vertex -5.241963e+000  1.405425e+001  0.000000e+000
    endloop
  endfacet
  facet normal -3.826838e-001  9.238793e-001  0.000000e+000
    outer loop
      vertex -5.241963e+000  1.405425e+001  0.000000e+000
      vertex -6.231225e+000  1.364448e+001  1.000000e+001
      vertex -5.241963e+000  1.405425e+001  1.000000e+001
    endloop
  endfacet
  facet normal -3.157998e-001  9.488259e-001  0.000000e+000
    outer loop
      vertex -5.241963e+000  1.405425e+001  0.000000e+000
      vertex -5.241963e+000  1.405425e+001  1.000000e+001
      vertex -4.225988e+000  1.439240e+001  0.000000e+000
    endloop
  endfacet
  facet normal -3.157998e-001  9.488259e-001  0.000000e+000
    outer loop
      vertex -4.225988e+000  1.439240e+001  0.000000e+000
      vertex -5.241963e+000  1.405425e+001  1.000000e+001
      vertex -4.225988e+000  1.439240e+001  1.000000e+001
    endloop
  endfacet
  facet normal -2.473059e-001  9.689375e-001  0.000000e+000
    outer loop
      vertex -4.225988e+000  1.439240e+001  0.000000e+000
      vertex -4.225988e+000  1.439240e+001  1.000000e+001
      vertex -3.188479e+000  1.465720e+001  0.000000e+000
    endloop
  endfacet
  facet normal -2.473059e-001  9.689375e-001  0.000000e+000
    outer loop
      vertex -3.188479e+000  1.465720e+001  0.000000e+000
      vertex -4.225988e+000  1.439240e+001  1.000000e+001
      vertex -3.188479e+000  1.465720e+001  1.000000e+001
    endloop
  endfacet
  facet normal -1.775533e-001  9.841112e-001  0.000000e+000
    outer loop
      vertex -3.188479e+000  1.465720e+001  0.000000e+000
      vertex -3.188479e+000  1.465720e+001  1.000000e+001
      vertex -2.134722e+000  1.484732e+001  0.000000e+000
    endloop
  endfacet
  facet normal -1.775533e-001  9.841112e-001  0.000000e+000
    outer loop
      vertex -2.134722e+000  1.484732e+001  0.000000e+000
      vertex -3.188479e+000  1.465720e+001  1.000000e+001
      vertex -2.134722e+000  1.484732e+001  1.000000e+001
    endloop
  endfacet
  facet normal -1.068950e-001  9.942703e-001  0.000000e+000
    outer loop
      vertex -2.134722e+000  1.484732e+001  0.000000e+000
      vertex -2.134722e+000  1.484732e+001  1.000000e+001
      vertex -1.070088e+000  1.496178e+001  0.000000e+000
    endloop
  endfacet
  facet normal -1.068950e-001  9.942703e-001  0.000000e+000
    outer loop
      vertex -1.070088e+000  1.496178e+001  0.000000e+000
      vertex -2.134722e+000  1.484732e+001  1.000000e+001
      vertex -1.070088e+000  1.496178e+001  1.000000e+001
    endloop
  endfacet
  facet normal -3.569254e-002  9.993628e-001  0.000000e+000
    outer loop
      vertex -1.070088e+000  1.496178e+001  0.000000e+000
      vertex -1.070088e+000  1.496178e+001  1.000000e+001
      vertex  4.249154e-015  1.500000e+001  0.000000e+000
    endloop
  endfacet
  facet normal -3.569254e-002  9.993628e-001  0.000000e+000
    outer loop
      vertex  4.249154e-015  1.500000e+001  0.000000e+000
      vertex -1.070088e+000  1.496178e+001  1.000000e+001
      vertex  4.249154e-015  1.500000e+001  1.000000e+001
    endloop
  endfacet
  facet normal  3.569254e-002  9.993628e-001  0.000000e+000
    outer loop
      vertex  4.249154e-015  1.500000e+001  0.000000e+000
      vertex  4.249154e-015  1.500000e+001  1.000000e+001
      vertex  1.070088e+000  1.496178e+001  0.000000e+000
    endloop
  endfacet
  facet normal  3.569254e-002  9.993628e-001  -0.000000e+000
    outer loop
      vertex  1.070088e+000  1.496178e+001  0.000000e+000
      vertex  4.249154e-015  1.500000e+001  1.000000e+001
      vertex  1.070088e+000  1.496178e+001  1.000000e+001
    endloop
  endfacet
  facet normal  1.068950e-001  9.942703e-001  0.000000e+000
    outer loop
      vertex  1.070088e+000  1.496178e+001  0.000000e+000
      vertex  1.070088e+000  1.496178e+001  1.000000e+001
      vertex  2.134722e+000  1.484732e+001  0.000000e+000
    endloop
  endfacet
  facet normal  1.068950e-001  9.942703e-001  -0.000000e+000
    outer loop
      vertex  2.134722e+000  1.484732e+001  0.000000e+000
      vertex  1.070088e+000  1.496178e+001  1.000000e+001
      vertex  2.134722e+000  1.484732e+001  1.000000e+001
    endloop
  endfacet
  facet normal  1.775533e-001  9.841112e-001  0.000000e+000
    outer loop
      vertex  2.134722e+000  1.484732e+001  0.000000e+000
      vertex  2.134722e+000  1.484732e+001  1.000000e+001
      vertex  3.188479e+000  1.465720e+001  0.000000e+000
    endloop
  endfacet
  facet normal  1.775533e-001  9.841112e-001  -0.000000e+000
    outer loop
      vertex  3.188479e+000  1.465720e+001  0.000000e+000
      vertex  2.134722e+000  1.484732e+001  1.000000e+001
      vertex  3.188479e+000  1.465720e+001  1.000000e+001
    endloop
  endfacet
  facet normal  2.473059e-001  9.689375e-001  0.000000e+000
    outer loop
      vertex  3.188479e+000  1.465720e+001  0.000000e+000
      vertex  3.188479e+000  1.465720e+001  1.000000e+001
      vertex  4.225988e+000  1.439240e+001  0.000000e+000
    endloop
  endfacet
  facet normal  2.473059e-001  9.689375e-001  -0.000000e+000
    outer loop
      vertex  4.225988e+000  1.439240e+001  0.000000e+000
      vertex  3.188479e+000  1.465720e+001  1.000000e+001
      vertex  4.225988e+000  1.439240e+001  1.000000e+001
    endloop
  endfacet
  facet normal  3.157998e-001  9.488259e-001  0.000000e+000
    outer loop
      vertex  4.225988e+000  1.439240e+001  0.000000e+000
      vertex  4.225988e+000  1.439240e+001  1.000000e+001
      vertex  5.241963e+000  1.405425e+001  0.000000e+000
    endloop
  endfacet
  facet normal  3.157998e-001  9.488259e-001  -0.000000e+000
    outer loop
      vertex  5.241963e+000  1.405425e+001  0.000000e+000
      vertex  4.225988e+000  1.439240e+001  1.000000e+001
      vertex  5.241963e+000  1.405425e+001  1.000000e+001
    endloop
  endfacet
  facet normal  3.826838e-001  9.238793e-001  0.000000e+000
    outer loop
      vertex  5.241963e+000  1.405425e+001  0.000000e+000
      vertex  5.241963e+000  1.405425e+001  1.000000e+001
      vertex  6.231225e+000  1.364448e+001  0.000000e+000
    endloop
  endfacet
  facet normal  3.826838e-001  9.238793e-001  -0.000000e+000
    outer loop
      vertex  6.231225e+000  1.364448e+001  0.000000e+000
      vertex  5.241963e+000  1.405425e+001  1.000000e+001
      vertex  6.231225e+000  1.364448e+001  1.000000e+001
    endloop
  endfacet
  facet normal  4.476168e-001  8.942255e-001  0.000000e+000
    outer loop
      vertex  6.231225e+000  1.364448e+001  0.000000e+000
      vertex  6.231225e+000  1.364448e+001  1.000000e+001
      vertex  7.188735e+000  1.316518e+001  0.000000e+000
    endloop
  endfacet
  facet normal  4.476168e-001  8.942255e-001  -0.000000e+000
    outer loop
      vertex  7.188735e+000  1.316518e+001  0.000000e+000
      vertex  6.231225e+000  1.364448e+001  1.000000e+001
      vertex  7.188735e+000  1.316518e+001  1.000000e+001
    endloop
  endfacet
  facet normal  5.102701e-001  8.600142e-001  0.000000e+000
    outer loop
      vertex  7.188735e+000  1.316518e+001  0.000000e+000
      vertex  7.188735e+000  1.316518e+001  1.000000e+001
      vertex  8.109612e+000  1.261880e+001  0.000000e+000
    endloop
  endfacet
  facet normal  5.102701e-001  8.600142e-001  -0.000000e+000
    outer loop
      vertex  8.109612e+000  1.261880e+001  0.000000e+000
      vertex  7.188735e+000  1.316518e+001  1.000000e+001
      vertex  8.109612e+000  1.261880e+001  1.000000e+001
    endloop
  endfacet
  facet normal  5.703226e-001  8.214208e-001  0.000000e+000
    outer loop
      vertex  8.109612e+000  1.261880e+001  0.000000e+000
      vertex  8.109612e+000  1.261880e+001  1.000000e+001
      vertex  8.989165e+000  1.200812e+001  0.000000e+000
    endloop
  endfacet
  facet normal  5.703226e-001  8.214208e-001  -0.000000e+000
    outer loop
      vertex  8.989165e+000  1.200812e+001  0.000000e+000
      vertex  8.109612e+000  1.261880e+001  1.000000e+001
      vertex  8.989165e+000  1.200812e+001  1.000000e+001
    endloop
  endfacet
  facet normal  6.274691e-001  7.786415e-001  0.000000e+000
    outer loop
      vertex  8.989165e+000  1.200812e+001  0.000000e+000
      vertex  8.989165e+000  1.200812e+001  1.000000e+001
      vertex  9.822911e+000  1.133624e+001  0.000000e+000
    endloop
  endfacet
  facet normal  6.274691e-001  7.786415e-001  -0.000000e+000
    outer loop
      vertex  9.822911e+000  1.133624e+001  0.000000e+000
      vertex  8.989165e+000  1.200812e+001  1.000000e+001
      vertex  9.822911e+000  1.133624e+001  1.000000e+001
    endloop
  endfacet
  facet normal  6.814181e-001  7.318944e-001  0.000000e+000
    outer loop
      vertex  9.822911e+000  1.133624e+001  0.000000e+000
      vertex  9.822911e+000  1.133624e+001  1.000000e+001
      vertex  1.060660e+001  1.060660e+001  0.000000e+000
    endloop
  endfacet
  facet normal  6.814181e-001  7.318944e-001  -0.000000e+000
    outer loop
      vertex  1.060660e+001  1.060660e+001  0.000000e+000
      vertex  9.822911e+000  1.133624e+001  1.000000e+001
      vertex  1.060660e+001  1.060660e+001  1.000000e+001
    endloop
  endfacet
  facet normal  7.318944e-001  6.814181e-001  0.000000e+000
    outer loop
      vertex  1.060660e+001  1.060660e+001  0.000000e+000
      vertex  1.060660e+001  1.060660e+001  1.000000e+001
      vertex  1.133624e+001  9.822911e+000  0.000000e+000
    endloop
  endfacet
  facet normal  7.318944e-001  6.814181e-001  -0.000000e+000
    outer loop
      vertex  1.133624e+001  9.822911e+000  0.000000e+000
      vertex  1.060660e+001  1.060660e+001  1.000000e+001
      vertex  1.133624e+001  9.822911e+000  1.000000e+001
    endloop
  endfacet
  facet normal  7.786415e-001  6.274691e-001  0.000000e+000
    outer loop
      vertex  1.133624e+001  9.822911e+000  0.000000e+000
      vertex  1.133624e+001  9.822911e+000  1.000000e+001
      vertex  1.200812e+001  8.989165e+000  0.000000e+000
    endloop
  endfacet
  facet normal  7.786415e-001  6.274691e-001  -0.000000e+000
    outer loop
      vertex  1.200812e+001  8.989165e+000  0.000000e+000
      vertex  1.133624e+001  9.822911e+000  1.000000e+001
      vertex  1.200812e+001  8.989165e+000  1.000000e+001
    endloop
  endfacet
  facet normal  8.214208e-001  5.703226e-001  0.000000e+000
    outer loop
      vertex  1.200812e+001  8.989165e+000  0.000000e+000
      vertex  1.200812e+001  8.989165e+000  1.000000e+001
      vertex  1.261880e+001  8.109612e+000  0.000000e+000
    endloop
  endfacet
  facet normal  8.214208e-001  5.703226e-001  -0.000000e+000
    outer loop
      vertex  1.261880e+001  8.109612e+000  0.000000e+000
      vertex  1.200812e+001  8.989165e+000  1.000000e+001
      vertex  1.261880e+001  8.109612e+000  1.000000e+001
    endloop
  endfacet
  facet normal  8.600142e-001  5.102701e-001  0.000000e+000
    outer loop
      vertex  1.261880e+001  8.109612e+000  0.000000e+000
      vertex  1.261880e+001  8.109612e+000  1.000000e+001
      vertex  1.316518e+001  7.188735e+000  0.000000e+000
    endloop
  endfacet
  facet normal  8.600142e-001  5.102701e-001  -0.000000e+000
    outer loop
      vertex  1.316518e+001  7.188735e+000  0.000000e+000
      vertex  1.261880e+001  8.109612e+000  1.000000e+001
      vertex  1.316518e+001  7.188735e+000  1.000000e+001
    endloop
  endfacet
  facet normal  8.942255e-001  4.476168e-001  0.000000e+000
    outer loop
      vertex  1.316518e+001  7.188735e+000  0.000000e+000
      vertex  1.316518e+001  7.188735e+000  1.000000e+001
      vertex  1.364448e+001  6.231225e+000  0.000000e+000
    endloop
  endfacet
  facet normal  8.942255e-001  4.476168e-001  -0.000000e+000
    outer loop
      vertex  1.364448e+001  6.231225e+000  0.000000e+000
      vertex  1.316518e+001  7.188735e+000  1.000000e+001
      vertex  1.364448e+001  6.231225e+000  1.000000e+001
    endloop
  endfacet
  facet normal  9.238793e-001  3.826838e-001  0.000000e+000
    outer loop
      vertex  1.364448e+001  6.231225e+000  0.000000e+000
      vertex  1.364448e+001  6.231225e+000  1.000000e+001
      vertex  1.405425e+001  5.241963e+000  0.000000e+000
    endloop
  endfacet
  facet normal  9.238793e-001  3.826838e-001  -0.000000e+000
    outer loop
      vertex  1.405425e+001  5.241963e+000  0.000000e+000
      vertex  1.364448e+001  6.231225e+000  1.000000e+001
      vertex  1.405425e+001  5.241963e+000  1.000000e+001
    endloop
  endfacet
  facet normal  9.488259e-001  3.157998e-001  0.000000e+000
    outer loop
      vertex  1.405425e+001  5.241963e+000  0.000000e+000
      vertex  1.405425e+001  5.241963e+000  1.000000e+001
      vertex  1.439240e+001  4.225988e+000  0.000000e+000
    endloop
  endfacet
  facet normal  9.488259e-001  3.157998e-001  -0.000000e+000
    outer loop
      vertex  1.439240e+001  4.225988e+000  0.000000e+000
      vertex  1.405425e+001  5.241963e+000  1.000000e+001
      vertex  1.439240e+001  4.225988e+000  1.000000e+001
    endloop
  endfacet
  facet normal  9.689375e-001  2.473059e-001  0.000000e+000
    outer loop
      vertex  1.439240e+001  4.225988e+000  0.000000e+000
      vertex  1.439240e+001  4.225988e+000  1.000000e+001
      vertex  1.465720e+001  3.188479e+000  0.000000e+000
    endloop
  endfacet
  facet normal  9.689375e-001  2.473059e-001  -0.000000e+000
    outer loop
      vertex  1.465720e+001  3.188479e+000  0.000000e+000
      vertex  1.439240e+001  4.225988e+000  1.000000e+001
      vertex  1.465720e+001  3.188479e+000  1.000000e+001
    endloop
  endfacet
  facet normal  9.841112e-001  1.775533e-001  0.000000e+000
    outer loop
      vertex  1.465720e+001  3.188479e+000  0.000000e+000
      vertex  1.465720e+001  3.188479e+000  1.000000e+001
      vertex  1.484732e+001  2.134722e+000  0.000000e+000
    endloop
  endfacet
  facet normal  9.841112e-001  1.775533e-001  -0.000000e+000
    outer loop
      vertex  1.484732e+001  2.134722e+000  0.000000e+000
      vertex  1.465720e+001  3.188479e+000  1.000000e+001
      vertex  1.484732e+001  2.134722e+000  1.000000e+001
    endloop
  endfacet
  facet normal  9.942703e-001  1.068950e-001  0.000000e+000
    outer loop
      vertex  1.484732e+001  2.134722e+000  0.000000e+000
      vertex  1.484732e+001  2.134722e+000  1.000000e+001
      vertex  1.496178e+001  1.070088e+000  0.000000e+000
    endloop
  endfacet
  facet normal  9.942703e-001  1.068950e-001  -0.000000e+000
    outer loop
      vertex  1.496178e+001  1.070088e+000  0.000000e+000
      vertex  1.484732e+001  2.134722e+000  1.000000e+001
      vertex  1.496178e+001  1.070088e+000  1.000000e+001
    endloop
  endfacet
  facet normal  9.993628e-001  3.569254e-002  0.000000e+000
    outer loop
      vertex  1.496178e+001  1.070088e+000  0.000000e+000
      vertex  1.496178e+001  1.070088e+000  1.000000e+001
      vertex  1.500000e+001  0.000000e+000  0.000000e+000
    endloop
  endfacet
  facet normal  9.993628e-001  3.569254e-002  -0.000000e+000
    outer loop
      vertex  1.500000e+001  0.000000e+000  0.000000e+000
      vertex  1.496178e+001  1.070088e+000  1.000000e+001
      vertex  1.500000e+001  0.000000e+000  1.000000e+001
    endloop
  endfacet
endsolid CATIA STL
