999
"DXF R12 Output" (www.mydxf.blogspot.com)
 0 
SECTION
 2 
HEADER
 9 
$ACADVER
 1 
AC1009
 9 
$EXTMIN
 10 
 0 
 20 
 0 
 9 
$EXTMAX
 10 
 8.5 
 20 
 11 
 0 
ENDSEC
 0 
SECTION
 2 
ENTITIES
0
LINE
8
Layer 1
10
18.800000
20
10.000000
11
118.800000
21
10.000000
0
LINE
8
Layer 1
10
118.800000
20
10.000000
11
118.800000
21
20.000000
0
LINE
8
Layer 1
10
118.800000
20
20.000000
11
18.800000
21
20.000000
0
LINE
8
Layer 1
10
18.800000
20
20.000000
11
18.800000
21
10.000000
0
LINE
8
Layer 1
10
18.800000
20
10.000000
11
18.800000
21
10.000000
0
LINE
8
Layer 1
10
23.800000
20
22.700000
11
36.300000
21
22.700000
0
LINE
8
Layer 1
10
36.300000
20
22.700000
11
36.400000
21
22.800000
0
LINE
8
Layer 1
10
36.400000
20
22.800000
11
36.400000
21
27.700000
0
LINE
8
Layer 1
10
36.400000
20
27.700000
11
36.362500
21
27.737500
0
LINE
8
Layer 1
10
36.362500
20
27.737500
11
36.400000
21
27.700000
0
LINE
8
Layer 1
10
36.400000
20
27.700000
11
46.200000
21
27.700000
0
LINE
8
Layer 1
10
46.200000
20
27.700000
11
46.237500
21
27.737500
0
LINE
8
Layer 1
10
46.237500
20
27.737500
11
46.200000
21
27.700000
0
LINE
8
Layer 1
10
46.200000
20
27.700000
11
46.200000
21
22.800000
0
LINE
8
Layer 1
10
46.200000
20
22.800000
11
46.300000
21
22.700000
0
LINE
8
Layer 1
10
46.300000
20
22.700000
11
56.300000
21
22.700000
0
LINE
8
Layer 1
10
56.300000
20
22.700000
11
56.400000
21
22.800000
0
LINE
8
Layer 1
10
56.400000
20
22.800000
11
56.400000
21
27.700000
0
LINE
8
Layer 1
10
56.400000
20
27.700000
11
56.362500
21
27.737500
0
LINE
8
Layer 1
10
56.362500
20
27.737500
11
56.400000
21
27.700000
0
LINE
8
Layer 1
10
56.400000
20
27.700000
11
66.200000
21
27.700000
0
LINE
8
Layer 1
10
66.200000
20
27.700000
11
66.237500
21
27.737500
0
LINE
8
Layer 1
10
66.237500
20
27.737500
11
66.200000
21
27.700000
0
LINE
8
Layer 1
10
66.200000
20
27.700000
11
66.200000
21
22.800000
0
LINE
8
Layer 1
10
66.200000
20
22.800000
11
66.300000
21
22.700000
0
LINE
8
Layer 1
10
66.300000
20
22.700000
11
76.300000
21
22.700000
0
LINE
8
Layer 1
10
76.300000
20
22.700000
11
76.400000
21
22.800000
0
LINE
8
Layer 1
10
76.400000
20
22.800000
11
76.400000
21
27.700000
0
LINE
8
Layer 1
10
76.400000
20
27.700000
11
76.362500
21
27.737500
0
LINE
8
Layer 1
10
76.362500
20
27.737500
11
76.400000
21
27.700000
0
LINE
8
Layer 1
10
76.400000
20
27.700000
11
86.200000
21
27.700000
0
LINE
8
Layer 1
10
86.200000
20
27.700000
11
86.237500
21
27.737500
0
LINE
8
Layer 1
10
86.237500
20
27.737500
11
86.200000
21
27.700000
0
LINE
8
Layer 1
10
86.200000
20
27.700000
11
86.200000
21
22.800000
0
LINE
8
Layer 1
10
86.200000
20
22.800000
11
86.300000
21
22.700000
0
LINE
8
Layer 1
10
86.300000
20
22.700000
11
96.300000
21
22.700000
0
LINE
8
Layer 1
10
96.300000
20
22.700000
11
96.400000
21
22.800000
0
LINE
8
Layer 1
10
96.400000
20
22.800000
11
96.400000
21
27.700000
0
LINE
8
Layer 1
10
96.400000
20
27.700000
11
96.362500
21
27.737500
0
LINE
8
Layer 1
10
96.362500
20
27.737500
11
96.400000
21
27.700000
0
LINE
8
Layer 1
10
96.400000
20
27.700000
11
106.200000
21
27.700000
0
LINE
8
Layer 1
10
106.200000
20
27.700000
11
106.237500
21
27.737500
0
LINE
8
Layer 1
10
106.237500
20
27.737500
11
106.200000
21
27.700000
0
LINE
8
Layer 1
10
106.200000
20
27.700000
11
106.200000
21
22.800000
0
LINE
8
Layer 1
10
106.200000
20
22.800000
11
106.300000
21
22.700000
0
LINE
8
Layer 1
10
106.300000
20
22.700000
11
116.300000
21
22.700000
0
LINE
8
Layer 1
10
116.300000
20
22.700000
11
116.400000
21
22.800000
0
LINE
8
Layer 1
10
116.400000
20
22.800000
11
116.400000
21
27.700000
0
LINE
8
Layer 1
10
116.400000
20
27.700000
11
116.362500
21
27.737500
0
LINE
8
Layer 1
10
116.362500
20
27.737500
11
116.400000
21
27.700000
0
LINE
8
Layer 1
10
116.400000
20
27.700000
11
126.200000
21
27.700000
0
LINE
8
Layer 1
10
126.200000
20
27.700000
11
126.237500
21
27.737500
0
LINE
8
Layer 1
10
126.237500
20
27.737500
11
126.200000
21
27.700000
0
LINE
8
Layer 1
10
126.200000
20
27.700000
11
126.200000
21
22.800000
0
LINE
8
Layer 1
10
126.200000
20
22.800000
11
126.300000
21
22.700000
0
LINE
8
Layer 1
10
126.300000
20
22.700000
11
136.300000
21
22.700000
0
LINE
8
Layer 1
10
136.300000
20
22.700000
11
136.400000
21
22.800000
0
LINE
8
Layer 1
10
136.400000
20
22.800000
11
136.400000
21
27.700000
0
LINE
8
Layer 1
10
136.400000
20
27.700000
11
136.362500
21
27.737500
0
LINE
8
Layer 1
10
136.362500
20
27.737500
11
136.400000
21
27.700000
0
LINE
8
Layer 1
10
136.400000
20
27.700000
11
146.200000
21
27.700000
0
LINE
8
Layer 1
10
146.200000
20
27.700000
11
146.237500
21
27.737500
0
LINE
8
Layer 1
10
146.237500
20
27.737500
11
146.200000
21
27.700000
0
LINE
8
Layer 1
10
146.200000
20
27.700000
11
146.200000
21
22.800000
0
LINE
8
Layer 1
10
146.200000
20
22.800000
11
146.300000
21
22.700000
0
LINE
8
Layer 1
10
146.300000
20
22.700000
11
156.300000
21
22.700000
0
LINE
8
Layer 1
10
156.300000
20
22.700000
11
156.400000
21
22.800000
0
LINE
8
Layer 1
10
156.400000
20
22.800000
11
156.400000
21
27.700000
0
LINE
8
Layer 1
10
156.400000
20
27.700000
11
156.362500
21
27.737500
0
LINE
8
Layer 1
10
156.362500
20
27.737500
11
156.400000
21
27.700000
0
LINE
8
Layer 1
10
156.400000
20
27.700000
11
166.200000
21
27.700000
0
LINE
8
Layer 1
10
166.200000
20
27.700000
11
166.237500
21
27.737500
0
LINE
8
Layer 1
10
166.237500
20
27.737500
11
166.200000
21
27.700000
0
LINE
8
Layer 1
10
166.200000
20
27.700000
11
166.200000
21
22.800000
0
LINE
8
Layer 1
10
166.200000
20
22.800000
11
166.300000
21
22.700000
0
LINE
8
Layer 1
10
166.300000
20
22.700000
11
176.300000
21
22.700000
0
LINE
8
Layer 1
10
176.300000
20
22.700000
11
176.400000
21
22.800000
0
LINE
8
Layer 1
10
176.400000
20
22.800000
11
176.400000
21
27.700000
0
LINE
8
Layer 1
10
176.400000
20
27.700000
11
176.362500
21
27.737500
0
LINE
8
Layer 1
10
176.362500
20
27.737500
11
176.400000
21
27.700000
0
LINE
8
Layer 1
10
176.400000
20
27.700000
11
186.200000
21
27.700000
0
LINE
8
Layer 1
10
186.200000
20
27.700000
11
186.237500
21
27.737500
0
LINE
8
Layer 1
10
186.237500
20
27.737500
11
186.200000
21
27.700000
0
LINE
8
Layer 1
10
186.200000
20
27.700000
11
186.200000
21
22.800000
0
LINE
8
Layer 1
10
186.200000
20
22.800000
11
186.300000
21
22.700000
0
LINE
8
Layer 1
10
186.300000
20
22.700000
11
196.300000
21
22.700000
0
LINE
8
Layer 1
10
196.300000
20
22.700000
11
196.400000
21
22.800000
0
LINE
8
Layer 1
10
196.400000
20
22.800000
11
196.400000
21
27.700000
0
LINE
8
Layer 1
10
196.400000
20
27.700000
11
196.362500
21
27.737500
0
LINE
8
Layer 1
10
196.362500
20
27.737500
11
196.400000
21
27.700000
0
LINE
8
Layer 1
10
196.400000
20
27.700000
11
206.200000
21
27.700000
0
LINE
8
Layer 1
10
206.200000
20
27.700000
11
206.237500
21
27.737500
0
LINE
8
Layer 1
10
206.237500
20
27.737500
11
206.200000
21
27.700000
0
LINE
8
Layer 1
10
206.200000
20
27.700000
11
206.200000
21
22.800000
0
LINE
8
Layer 1
10
206.200000
20
22.800000
11
206.300000
21
22.700000
0
LINE
8
Layer 1
10
206.300000
20
22.700000
11
218.800000
21
22.700000
0
LINE
8
Layer 1
10
218.800000
20
22.700000
11
223.800000
21
22.700000
0
LINE
8
Layer 1
10
223.800000
20
22.700000
11
223.900000
21
22.800000
0
LINE
8
Layer 1
10
223.900000
20
22.800000
11
223.900000
21
40.300000
0
LINE
8
Layer 1
10
223.900000
20
40.300000
11
223.800000
21
40.400000
0
LINE
8
Layer 1
10
223.800000
20
40.400000
11
218.900000
21
40.400000
0
LINE
8
Layer 1
10
218.900000
20
40.400000
11
218.862500
21
40.362500
0
LINE
8
Layer 1
10
218.862500
20
40.362500
11
218.900000
21
40.400000
0
LINE
8
Layer 1
10
218.900000
20
40.400000
11
218.900000
21
50.200000
0
LINE
8
Layer 1
10
218.900000
20
50.200000
11
218.900000
21
50.200000
0
LINE
8
Layer 1
10
218.900000
20
50.200000
11
223.800000
21
50.200000
0
LINE
8
Layer 1
10
223.800000
20
50.200000
11
223.900000
21
50.300000
0
LINE
8
Layer 1
10
223.900000
20
50.300000
11
223.900000
21
60.300000
0
LINE
8
Layer 1
10
223.900000
20
60.300000
11
223.800000
21
60.400000
0
LINE
8
Layer 1
10
223.800000
20
60.400000
11
218.900000
21
60.400000
0
LINE
8
Layer 1
10
218.900000
20
60.400000
11
218.862500
21
60.362500
0
LINE
8
Layer 1
10
218.862500
20
60.362500
11
218.900000
21
60.400000
0
LINE
8
Layer 1
10
218.900000
20
60.400000
11
218.900000
21
70.200000
0
LINE
8
Layer 1
10
218.900000
20
70.200000
11
218.900000
21
70.200000
0
LINE
8
Layer 1
10
218.900000
20
70.200000
11
223.800000
21
70.200000
0
LINE
8
Layer 1
10
223.800000
20
70.200000
11
223.900000
21
70.300000
0
LINE
8
Layer 1
10
223.900000
20
70.300000
11
223.900000
21
80.300000
0
LINE
8
Layer 1
10
223.900000
20
80.300000
11
223.800000
21
80.400000
0
LINE
8
Layer 1
10
223.800000
20
80.400000
11
218.900000
21
80.400000
0
LINE
8
Layer 1
10
218.900000
20
80.400000
11
218.862500
21
80.362500
0
LINE
8
Layer 1
10
218.862500
20
80.362500
11
218.900000
21
80.400000
0
LINE
8
Layer 1
10
218.900000
20
80.400000
11
218.900000
21
90.200000
0
LINE
8
Layer 1
10
218.900000
20
90.200000
11
218.900000
21
90.200000
0
LINE
8
Layer 1
10
218.900000
20
90.200000
11
223.800000
21
90.200000
0
LINE
8
Layer 1
10
223.800000
20
90.200000
11
223.900000
21
90.300000
0
LINE
8
Layer 1
10
223.900000
20
90.300000
11
223.900000
21
100.300000
0
LINE
8
Layer 1
10
223.900000
20
100.300000
11
223.800000
21
100.400000
0
LINE
8
Layer 1
10
223.800000
20
100.400000
11
218.900000
21
100.400000
0
LINE
8
Layer 1
10
218.900000
20
100.400000
11
218.862500
21
100.362500
0
LINE
8
Layer 1
10
218.862500
20
100.362500
11
218.900000
21
100.400000
0
LINE
8
Layer 1
10
218.900000
20
100.400000
11
218.900000
21
110.200000
0
LINE
8
Layer 1
10
218.900000
20
110.200000
11
218.900000
21
110.200000
0
LINE
8
Layer 1
10
218.900000
20
110.200000
11
223.800000
21
110.200000
0
LINE
8
Layer 1
10
223.800000
20
110.200000
11
223.900000
21
110.300000
0
LINE
8
Layer 1
10
223.900000
20
110.300000
11
223.900000
21
120.300000
0
LINE
8
Layer 1
10
223.900000
20
120.300000
11
223.800000
21
120.400000
0
LINE
8
Layer 1
10
223.800000
20
120.400000
11
218.900000
21
120.400000
0
LINE
8
Layer 1
10
218.900000
20
120.400000
11
218.862500
21
120.362500
0
LINE
8
Layer 1
10
218.862500
20
120.362500
11
218.900000
21
120.400000
0
LINE
8
Layer 1
10
218.900000
20
120.400000
11
218.900000
21
130.200000
0
LINE
8
Layer 1
10
218.900000
20
130.200000
11
218.862500
21
130.237500
0
LINE
8
Layer 1
10
218.862500
20
130.237500
11
218.900000
21
130.200000
0
LINE
8
Layer 1
10
218.900000
20
130.200000
11
223.800000
21
130.200000
0
LINE
8
Layer 1
10
223.800000
20
130.200000
11
223.900000
21
130.300000
0
LINE
8
Layer 1
10
223.900000
20
130.300000
11
223.900000
21
140.300000
0
LINE
8
Layer 1
10
223.900000
20
140.300000
11
223.800000
21
140.400000
0
LINE
8
Layer 1
10
223.800000
20
140.400000
11
218.900000
21
140.400000
0
LINE
8
Layer 1
10
218.900000
20
140.400000
11
218.900000
21
140.400000
0
LINE
8
Layer 1
10
218.900000
20
140.400000
11
218.900000
21
150.200000
0
LINE
8
Layer 1
10
218.900000
20
150.200000
11
218.862500
21
150.237500
0
LINE
8
Layer 1
10
218.862500
20
150.237500
11
218.900000
21
150.200000
0
LINE
8
Layer 1
10
218.900000
20
150.200000
11
223.800000
21
150.200000
0
LINE
8
Layer 1
10
223.800000
20
150.200000
11
223.900000
21
150.300000
0
LINE
8
Layer 1
10
223.900000
20
150.300000
11
223.900000
21
160.300000
0
LINE
8
Layer 1
10
223.900000
20
160.300000
11
223.800000
21
160.400000
0
LINE
8
Layer 1
10
223.800000
20
160.400000
11
218.900000
21
160.400000
0
LINE
8
Layer 1
10
218.900000
20
160.400000
11
218.900000
21
160.400000
0
LINE
8
Layer 1
10
218.900000
20
160.400000
11
218.900000
21
170.200000
0
LINE
8
Layer 1
10
218.900000
20
170.200000
11
218.862500
21
170.237500
0
LINE
8
Layer 1
10
218.862500
20
170.237500
11
218.900000
21
170.200000
0
LINE
8
Layer 1
10
218.900000
20
170.200000
11
223.800000
21
170.200000
0
LINE
8
Layer 1
10
223.800000
20
170.200000
11
223.900000
21
170.300000
0
LINE
8
Layer 1
10
223.900000
20
170.300000
11
223.900000
21
180.300000
0
LINE
8
Layer 1
10
223.900000
20
180.300000
11
223.800000
21
180.400000
0
LINE
8
Layer 1
10
223.800000
20
180.400000
11
218.900000
21
180.400000
0
LINE
8
Layer 1
10
218.900000
20
180.400000
11
218.900000
21
180.400000
0
LINE
8
Layer 1
10
218.900000
20
180.400000
11
218.900000
21
190.200000
0
LINE
8
Layer 1
10
218.900000
20
190.200000
11
218.862500
21
190.237500
0
LINE
8
Layer 1
10
218.862500
20
190.237500
11
218.900000
21
190.200000
0
LINE
8
Layer 1
10
218.900000
20
190.200000
11
223.800000
21
190.200000
0
LINE
8
Layer 1
10
223.800000
20
190.200000
11
223.900000
21
190.300000
0
LINE
8
Layer 1
10
223.900000
20
190.300000
11
223.900000
21
200.300000
0
LINE
8
Layer 1
10
223.900000
20
200.300000
11
223.800000
21
200.400000
0
LINE
8
Layer 1
10
223.800000
20
200.400000
11
218.900000
21
200.400000
0
LINE
8
Layer 1
10
218.900000
20
200.400000
11
218.900000
21
200.400000
0
LINE
8
Layer 1
10
218.900000
20
200.400000
11
218.900000
21
210.200000
0
LINE
8
Layer 1
10
218.900000
20
210.200000
11
218.862500
21
210.237500
0
LINE
8
Layer 1
10
218.862500
20
210.237500
11
218.900000
21
210.200000
0
LINE
8
Layer 1
10
218.900000
20
210.200000
11
223.800000
21
210.200000
0
LINE
8
Layer 1
10
223.800000
20
210.200000
11
223.900000
21
210.300000
0
LINE
8
Layer 1
10
223.900000
20
210.300000
11
223.900000
21
227.800000
0
LINE
8
Layer 1
10
223.900000
20
227.800000
11
223.800000
21
227.900000
0
LINE
8
Layer 1
10
223.800000
20
227.900000
11
218.800000
21
227.900000
0
LINE
8
Layer 1
10
218.800000
20
227.900000
11
23.800000
21
227.900000
0
LINE
8
Layer 1
10
23.800000
20
227.900000
11
18.800000
21
227.900000
0
LINE
8
Layer 1
10
18.800000
20
227.900000
11
18.700000
21
227.800000
0
LINE
8
Layer 1
10
18.700000
20
227.800000
11
18.700000
21
210.300000
0
LINE
8
Layer 1
10
18.700000
20
210.300000
11
18.800000
21
210.200000
0
LINE
8
Layer 1
10
18.800000
20
210.200000
11
23.700000
21
210.200000
0
LINE
8
Layer 1
10
23.700000
20
210.200000
11
23.737500
21
210.237500
0
LINE
8
Layer 1
10
23.737500
20
210.237500
11
23.700000
21
210.200000
0
LINE
8
Layer 1
10
23.700000
20
210.200000
11
23.700000
21
200.400000
0
LINE
8
Layer 1
10
23.700000
20
200.400000
11
23.737500
21
200.362500
0
LINE
8
Layer 1
10
23.737500
20
200.362500
11
23.700000
21
200.400000
0
LINE
8
Layer 1
10
23.700000
20
200.400000
11
18.800000
21
200.400000
0
LINE
8
Layer 1
10
18.800000
20
200.400000
11
18.700000
21
200.300000
0
LINE
8
Layer 1
10
18.700000
20
200.300000
11
18.700000
21
190.300000
0
LINE
8
Layer 1
10
18.700000
20
190.300000
11
18.800000
21
190.200000
0
LINE
8
Layer 1
10
18.800000
20
190.200000
11
23.700000
21
190.200000
0
LINE
8
Layer 1
10
23.700000
20
190.200000
11
23.737500
21
190.237500
0
LINE
8
Layer 1
10
23.737500
20
190.237500
11
23.700000
21
190.200000
0
LINE
8
Layer 1
10
23.700000
20
190.200000
11
23.700000
21
180.400000
0
LINE
8
Layer 1
10
23.700000
20
180.400000
11
23.737500
21
180.362500
0
LINE
8
Layer 1
10
23.737500
20
180.362500
11
23.700000
21
180.400000
0
LINE
8
Layer 1
10
23.700000
20
180.400000
11
18.800000
21
180.400000
0
LINE
8
Layer 1
10
18.800000
20
180.400000
11
18.700000
21
180.300000
0
LINE
8
Layer 1
10
18.700000
20
180.300000
11
18.700000
21
170.300000
0
LINE
8
Layer 1
10
18.700000
20
170.300000
11
18.800000
21
170.200000
0
LINE
8
Layer 1
10
18.800000
20
170.200000
11
23.700000
21
170.200000
0
LINE
8
Layer 1
10
23.700000
20
170.200000
11
23.737500
21
170.237500
0
LINE
8
Layer 1
10
23.737500
20
170.237500
11
23.700000
21
170.200000
0
LINE
8
Layer 1
10
23.700000
20
170.200000
11
23.700000
21
160.400000
0
LINE
8
Layer 1
10
23.700000
20
160.400000
11
23.737500
21
160.362500
0
LINE
8
Layer 1
10
23.737500
20
160.362500
11
23.700000
21
160.400000
0
LINE
8
Layer 1
10
23.700000
20
160.400000
11
18.800000
21
160.400000
0
LINE
8
Layer 1
10
18.800000
20
160.400000
11
18.700000
21
160.300000
0
LINE
8
Layer 1
10
18.700000
20
160.300000
11
18.700000
21
150.300000
0
LINE
8
Layer 1
10
18.700000
20
150.300000
11
18.800000
21
150.200000
0
LINE
8
Layer 1
10
18.800000
20
150.200000
11
23.700000
21
150.200000
0
LINE
8
Layer 1
10
23.700000
20
150.200000
11
23.737500
21
150.237500
0
LINE
8
Layer 1
10
23.737500
20
150.237500
11
23.700000
21
150.200000
0
LINE
8
Layer 1
10
23.700000
20
150.200000
11
23.700000
21
140.400000
0
LINE
8
Layer 1
10
23.700000
20
140.400000
11
23.737500
21
140.362500
0
LINE
8
Layer 1
10
23.737500
20
140.362500
11
23.700000
21
140.400000
0
LINE
8
Layer 1
10
23.700000
20
140.400000
11
18.800000
21
140.400000
0
LINE
8
Layer 1
10
18.800000
20
140.400000
11
18.700000
21
140.300000
0
LINE
8
Layer 1
10
18.700000
20
140.300000
11
18.700000
21
130.300000
0
LINE
8
Layer 1
10
18.700000
20
130.300000
11
18.800000
21
130.200000
0
LINE
8
Layer 1
10
18.800000
20
130.200000
11
23.700000
21
130.200000
0
LINE
8
Layer 1
10
23.700000
20
130.200000
11
23.737500
21
130.237500
0
LINE
8
Layer 1
10
23.737500
20
130.237500
11
23.700000
21
130.200000
0
LINE
8
Layer 1
10
23.700000
20
130.200000
11
23.700000
21
120.400000
0
LINE
8
Layer 1
10
23.700000
20
120.400000
11
23.737500
21
120.362500
0
LINE
8
Layer 1
10
23.737500
20
120.362500
11
23.700000
21
120.400000
0
LINE
8
Layer 1
10
23.700000
20
120.400000
11
18.800000
21
120.400000
0
LINE
8
Layer 1
10
18.800000
20
120.400000
11
18.700000
21
120.300000
0
LINE
8
Layer 1
10
18.700000
20
120.300000
11
18.700000
21
110.300000
0
LINE
8
Layer 1
10
18.700000
20
110.300000
11
18.800000
21
110.200000
0
LINE
8
Layer 1
10
18.800000
20
110.200000
11
23.700000
21
110.200000
0
LINE
8
Layer 1
10
23.700000
20
110.200000
11
23.737500
21
110.237500
0
LINE
8
Layer 1
10
23.737500
20
110.237500
11
23.700000
21
110.200000
0
LINE
8
Layer 1
10
23.700000
20
110.200000
11
23.700000
21
100.400000
0
LINE
8
Layer 1
10
23.700000
20
100.400000
11
23.737500
21
100.362500
0
LINE
8
Layer 1
10
23.737500
20
100.362500
11
23.700000
21
100.400000
0
LINE
8
Layer 1
10
23.700000
20
100.400000
11
18.800000
21
100.400000
0
LINE
8
Layer 1
10
18.800000
20
100.400000
11
18.700000
21
100.300000
0
LINE
8
Layer 1
10
18.700000
20
100.300000
11
18.700000
21
90.300000
0
LINE
8
Layer 1
10
18.700000
20
90.300000
11
18.800000
21
90.200000
0
LINE
8
Layer 1
10
18.800000
20
90.200000
11
23.700000
21
90.200000
0
LINE
8
Layer 1
10
23.700000
20
90.200000
11
23.737500
21
90.237500
0
LINE
8
Layer 1
10
23.737500
20
90.237500
11
23.700000
21
90.200000
0
LINE
8
Layer 1
10
23.700000
20
90.200000
11
23.700000
21
80.400000
0
LINE
8
Layer 1
10
23.700000
20
80.400000
11
23.737500
21
80.362500
0
LINE
8
Layer 1
10
23.737500
20
80.362500
11
23.700000
21
80.400000
0
LINE
8
Layer 1
10
23.700000
20
80.400000
11
18.800000
21
80.400000
0
LINE
8
Layer 1
10
18.800000
20
80.400000
11
18.700000
21
80.300000
0
LINE
8
Layer 1
10
18.700000
20
80.300000
11
18.700000
21
70.300000
0
LINE
8
Layer 1
10
18.700000
20
70.300000
11
18.800000
21
70.200000
0
LINE
8
Layer 1
10
18.800000
20
70.200000
11
23.700000
21
70.200000
0
LINE
8
Layer 1
10
23.700000
20
70.200000
11
23.737500
21
70.237500
0
LINE
8
Layer 1
10
23.737500
20
70.237500
11
23.700000
21
70.200000
0
LINE
8
Layer 1
10
23.700000
20
70.200000
11
23.700000
21
60.400000
0
LINE
8
Layer 1
10
23.700000
20
60.400000
11
23.737500
21
60.362500
0
LINE
8
Layer 1
10
23.737500
20
60.362500
11
23.700000
21
60.400000
0
LINE
8
Layer 1
10
23.700000
20
60.400000
11
18.800000
21
60.400000
0
LINE
8
Layer 1
10
18.800000
20
60.400000
11
18.700000
21
60.300000
0
LINE
8
Layer 1
10
18.700000
20
60.300000
11
18.700000
21
50.300000
0
LINE
8
Layer 1
10
18.700000
20
50.300000
11
18.800000
21
50.200000
0
LINE
8
Layer 1
10
18.800000
20
50.200000
11
23.700000
21
50.200000
0
LINE
8
Layer 1
10
23.700000
20
50.200000
11
23.737500
21
50.237500
0
LINE
8
Layer 1
10
23.737500
20
50.237500
11
23.700000
21
50.200000
0
LINE
8
Layer 1
10
23.700000
20
50.200000
11
23.700000
21
40.400000
0
LINE
8
Layer 1
10
23.700000
20
40.400000
11
23.737500
21
40.362500
0
LINE
8
Layer 1
10
23.737500
20
40.362500
11
23.700000
21
40.400000
0
LINE
8
Layer 1
10
23.700000
20
40.400000
11
18.800000
21
40.400000
0
LINE
8
Layer 1
10
18.800000
20
40.400000
11
18.700000
21
40.300000
0
LINE
8
Layer 1
10
18.700000
20
40.300000
11
18.700000
21
22.800000
0
LINE
8
Layer 1
10
18.700000
20
22.800000
11
18.800000
21
22.700000
0
LINE
8
Layer 1
10
18.800000
20
22.700000
11
23.800000
21
22.700000
0
LINE
8
Layer 1
10
23.800000
20
22.700000
11
23.800000
21
22.700000
0
LINE
8
Layer 1
10
23.800000
20
230.400000
11
36.300000
21
230.400000
0
LINE
8
Layer 1
10
36.300000
20
230.400000
11
36.400000
21
230.500000
0
LINE
8
Layer 1
10
36.400000
20
230.500000
11
36.400000
21
235.400000
0
LINE
8
Layer 1
10
36.400000
20
235.400000
11
36.362500
21
235.437500
0
LINE
8
Layer 1
10
36.362500
20
235.437500
11
36.400000
21
235.400000
0
LINE
8
Layer 1
10
36.400000
20
235.400000
11
46.200000
21
235.400000
0
LINE
8
Layer 1
10
46.200000
20
235.400000
11
46.200000
21
235.400000
0
LINE
8
Layer 1
10
46.200000
20
235.400000
11
46.200000
21
230.500000
0
LINE
8
Layer 1
10
46.200000
20
230.500000
11
46.300000
21
230.400000
0
LINE
8
Layer 1
10
46.300000
20
230.400000
11
56.300000
21
230.400000
0
LINE
8
Layer 1
10
56.300000
20
230.400000
11
56.400000
21
230.500000
0
LINE
8
Layer 1
10
56.400000
20
230.500000
11
56.400000
21
235.400000
0
LINE
8
Layer 1
10
56.400000
20
235.400000
11
56.362500
21
235.437500
0
LINE
8
Layer 1
10
56.362500
20
235.437500
11
56.400000
21
235.400000
0
LINE
8
Layer 1
10
56.400000
20
235.400000
11
66.200000
21
235.400000
0
LINE
8
Layer 1
10
66.200000
20
235.400000
11
66.200000
21
235.400000
0
LINE
8
Layer 1
10
66.200000
20
235.400000
11
66.200000
21
230.500000
0
LINE
8
Layer 1
10
66.200000
20
230.500000
11
66.300000
21
230.400000
0
LINE
8
Layer 1
10
66.300000
20
230.400000
11
76.300000
21
230.400000
0
LINE
8
Layer 1
10
76.300000
20
230.400000
11
76.400000
21
230.500000
0
LINE
8
Layer 1
10
76.400000
20
230.500000
11
76.400000
21
235.400000
0
LINE
8
Layer 1
10
76.400000
20
235.400000
11
76.362500
21
235.437500
0
LINE
8
Layer 1
10
76.362500
20
235.437500
11
76.400000
21
235.400000
0
LINE
8
Layer 1
10
76.400000
20
235.400000
11
86.200000
21
235.400000
0
LINE
8
Layer 1
10
86.200000
20
235.400000
11
86.200000
21
235.400000
0
LINE
8
Layer 1
10
86.200000
20
235.400000
11
86.200000
21
230.500000
0
LINE
8
Layer 1
10
86.200000
20
230.500000
11
86.300000
21
230.400000
0
LINE
8
Layer 1
10
86.300000
20
230.400000
11
96.300000
21
230.400000
0
LINE
8
Layer 1
10
96.300000
20
230.400000
11
96.400000
21
230.500000
0
LINE
8
Layer 1
10
96.400000
20
230.500000
11
96.400000
21
235.400000
0
LINE
8
Layer 1
10
96.400000
20
235.400000
11
96.362500
21
235.437500
0
LINE
8
Layer 1
10
96.362500
20
235.437500
11
96.400000
21
235.400000
0
LINE
8
Layer 1
10
96.400000
20
235.400000
11
106.200000
21
235.400000
0
LINE
8
Layer 1
10
106.200000
20
235.400000
11
106.200000
21
235.400000
0
LINE
8
Layer 1
10
106.200000
20
235.400000
11
106.200000
21
230.500000
0
LINE
8
Layer 1
10
106.200000
20
230.500000
11
106.300000
21
230.400000
0
LINE
8
Layer 1
10
106.300000
20
230.400000
11
116.300000
21
230.400000
0
LINE
8
Layer 1
10
116.300000
20
230.400000
11
116.400000
21
230.500000
0
LINE
8
Layer 1
10
116.400000
20
230.500000
11
116.400000
21
235.400000
0
LINE
8
Layer 1
10
116.400000
20
235.400000
11
116.362500
21
235.437500
0
LINE
8
Layer 1
10
116.362500
20
235.437500
11
116.400000
21
235.400000
0
LINE
8
Layer 1
10
116.400000
20
235.400000
11
126.200000
21
235.400000
0
LINE
8
Layer 1
10
126.200000
20
235.400000
11
126.200000
21
235.400000
0
LINE
8
Layer 1
10
126.200000
20
235.400000
11
126.200000
21
230.500000
0
LINE
8
Layer 1
10
126.200000
20
230.500000
11
126.300000
21
230.400000
0
LINE
8
Layer 1
10
126.300000
20
230.400000
11
136.300000
21
230.400000
0
LINE
8
Layer 1
10
136.300000
20
230.400000
11
136.400000
21
230.500000
0
LINE
8
Layer 1
10
136.400000
20
230.500000
11
136.400000
21
235.400000
0
LINE
8
Layer 1
10
136.400000
20
235.400000
11
136.400000
21
235.400000
0
LINE
8
Layer 1
10
136.400000
20
235.400000
11
146.200000
21
235.400000
0
LINE
8
Layer 1
10
146.200000
20
235.400000
11
146.237500
21
235.437500
0
LINE
8
Layer 1
10
146.237500
20
235.437500
11
146.200000
21
235.400000
0
LINE
8
Layer 1
10
146.200000
20
235.400000
11
146.200000
21
230.500000
0
LINE
8
Layer 1
10
146.200000
20
230.500000
11
146.300000
21
230.400000
0
LINE
8
Layer 1
10
146.300000
20
230.400000
11
156.300000
21
230.400000
0
LINE
8
Layer 1
10
156.300000
20
230.400000
11
156.400000
21
230.500000
0
LINE
8
Layer 1
10
156.400000
20
230.500000
11
156.400000
21
235.400000
0
LINE
8
Layer 1
10
156.400000
20
235.400000
11
156.400000
21
235.400000
0
LINE
8
Layer 1
10
156.400000
20
235.400000
11
166.200000
21
235.400000
0
LINE
8
Layer 1
10
166.200000
20
235.400000
11
166.237500
21
235.437500
0
LINE
8
Layer 1
10
166.237500
20
235.437500
11
166.200000
21
235.400000
0
LINE
8
Layer 1
10
166.200000
20
235.400000
11
166.200000
21
230.500000
0
LINE
8
Layer 1
10
166.200000
20
230.500000
11
166.300000
21
230.400000
0
LINE
8
Layer 1
10
166.300000
20
230.400000
11
176.300000
21
230.400000
0
LINE
8
Layer 1
10
176.300000
20
230.400000
11
176.400000
21
230.500000
0
LINE
8
Layer 1
10
176.400000
20
230.500000
11
176.400000
21
235.400000
0
LINE
8
Layer 1
10
176.400000
20
235.400000
11
176.400000
21
235.400000
0
LINE
8
Layer 1
10
176.400000
20
235.400000
11
186.200000
21
235.400000
0
LINE
8
Layer 1
10
186.200000
20
235.400000
11
186.237500
21
235.437500
0
LINE
8
Layer 1
10
186.237500
20
235.437500
11
186.200000
21
235.400000
0
LINE
8
Layer 1
10
186.200000
20
235.400000
11
186.200000
21
230.500000
0
LINE
8
Layer 1
10
186.200000
20
230.500000
11
186.300000
21
230.400000
0
LINE
8
Layer 1
10
186.300000
20
230.400000
11
196.300000
21
230.400000
0
LINE
8
Layer 1
10
196.300000
20
230.400000
11
196.400000
21
230.500000
0
LINE
8
Layer 1
10
196.400000
20
230.500000
11
196.400000
21
235.400000
0
LINE
8
Layer 1
10
196.400000
20
235.400000
11
196.400000
21
235.400000
0
LINE
8
Layer 1
10
196.400000
20
235.400000
11
206.200000
21
235.400000
0
LINE
8
Layer 1
10
206.200000
20
235.400000
11
206.237500
21
235.437500
0
LINE
8
Layer 1
10
206.237500
20
235.437500
11
206.200000
21
235.400000
0
LINE
8
Layer 1
10
206.200000
20
235.400000
11
206.200000
21
230.500000
0
LINE
8
Layer 1
10
206.200000
20
230.500000
11
206.300000
21
230.400000
0
LINE
8
Layer 1
10
206.300000
20
230.400000
11
218.800000
21
230.400000
0
LINE
8
Layer 1
10
218.800000
20
230.400000
11
223.800000
21
230.400000
0
LINE
8
Layer 1
10
223.800000
20
230.400000
11
223.900000
21
230.500000
0
LINE
8
Layer 1
10
223.900000
20
230.500000
11
223.900000
21
248.000000
0
LINE
8
Layer 1
10
223.900000
20
248.000000
11
223.800000
21
248.100000
0
LINE
8
Layer 1
10
223.800000
20
248.100000
11
218.900000
21
248.100000
0
LINE
8
Layer 1
10
218.900000
20
248.100000
11
218.900000
21
248.100000
0
LINE
8
Layer 1
10
218.900000
20
248.100000
11
218.900000
21
257.900000
0
LINE
8
Layer 1
10
218.900000
20
257.900000
11
218.862500
21
257.937500
0
LINE
8
Layer 1
10
218.862500
20
257.937500
11
218.900000
21
257.900000
0
LINE
8
Layer 1
10
218.900000
20
257.900000
11
223.800000
21
257.900000
0
LINE
8
Layer 1
10
223.800000
20
257.900000
11
223.900000
21
258.000000
0
LINE
8
Layer 1
10
223.900000
20
258.000000
11
223.900000
21
268.000000
0
LINE
8
Layer 1
10
223.900000
20
268.000000
11
223.800000
21
268.100000
0
LINE
8
Layer 1
10
223.800000
20
268.100000
11
218.900000
21
268.100000
0
LINE
8
Layer 1
10
218.900000
20
268.100000
11
218.862500
21
268.062500
0
LINE
8
Layer 1
10
218.862500
20
268.062500
11
218.900000
21
268.100000
0
LINE
8
Layer 1
10
218.900000
20
268.100000
11
218.900000
21
277.900000
0
LINE
8
Layer 1
10
218.900000
20
277.900000
11
218.862500
21
277.937500
0
LINE
8
Layer 1
10
218.862500
20
277.937500
11
218.900000
21
277.900000
0
LINE
8
Layer 1
10
218.900000
20
277.900000
11
223.800000
21
277.900000
0
LINE
8
Layer 1
10
223.800000
20
277.900000
11
223.900000
21
278.000000
0
LINE
8
Layer 1
10
223.900000
20
278.000000
11
223.900000
21
288.000000
0
LINE
8
Layer 1
10
223.900000
20
288.000000
11
223.800000
21
288.100000
0
LINE
8
Layer 1
10
223.800000
20
288.100000
11
218.900000
21
288.100000
0
LINE
8
Layer 1
10
218.900000
20
288.100000
11
218.862500
21
288.062500
0
LINE
8
Layer 1
10
218.862500
20
288.062500
11
218.900000
21
288.100000
0
LINE
8
Layer 1
10
218.900000
20
288.100000
11
218.900000
21
297.900000
0
LINE
8
Layer 1
10
218.900000
20
297.900000
11
218.862500
21
297.937500
0
LINE
8
Layer 1
10
218.862500
20
297.937500
11
218.900000
21
297.900000
0
LINE
8
Layer 1
10
218.900000
20
297.900000
11
223.800000
21
297.900000
0
LINE
8
Layer 1
10
223.800000
20
297.900000
11
223.900000
21
298.000000
0
LINE
8
Layer 1
10
223.900000
20
298.000000
11
223.900000
21
308.000000
0
LINE
8
Layer 1
10
223.900000
20
308.000000
11
223.800000
21
308.100000
0
LINE
8
Layer 1
10
223.800000
20
308.100000
11
218.900000
21
308.100000
0
LINE
8
Layer 1
10
218.900000
20
308.100000
11
218.862500
21
308.062500
0
LINE
8
Layer 1
10
218.862500
20
308.062500
11
218.900000
21
308.100000
0
LINE
8
Layer 1
10
218.900000
20
308.100000
11
218.900000
21
317.900000
0
LINE
8
Layer 1
10
218.900000
20
317.900000
11
218.862500
21
317.937500
0
LINE
8
Layer 1
10
218.862500
20
317.937500
11
218.900000
21
317.900000
0
LINE
8
Layer 1
10
218.900000
20
317.900000
11
223.800000
21
317.900000
0
LINE
8
Layer 1
10
223.800000
20
317.900000
11
223.900000
21
318.000000
0
LINE
8
Layer 1
10
223.900000
20
318.000000
11
223.900000
21
328.000000
0
LINE
8
Layer 1
10
223.900000
20
328.000000
11
223.800000
21
328.100000
0
LINE
8
Layer 1
10
223.800000
20
328.100000
11
218.900000
21
328.100000
0
LINE
8
Layer 1
10
218.900000
20
328.100000
11
218.862500
21
328.062500
0
LINE
8
Layer 1
10
218.862500
20
328.062500
11
218.900000
21
328.100000
0
LINE
8
Layer 1
10
218.900000
20
328.100000
11
218.900000
21
337.900000
0
LINE
8
Layer 1
10
218.900000
20
337.900000
11
218.862500
21
337.937500
0
LINE
8
Layer 1
10
218.862500
20
337.937500
11
218.900000
21
337.900000
0
LINE
8
Layer 1
10
218.900000
20
337.900000
11
223.800000
21
337.900000
0
LINE
8
Layer 1
10
223.800000
20
337.900000
11
223.900000
21
338.000000
0
LINE
8
Layer 1
10
223.900000
20
338.000000
11
223.900000
21
348.000000
0
LINE
8
Layer 1
10
223.900000
20
348.000000
11
223.800000
21
348.100000
0
LINE
8
Layer 1
10
223.800000
20
348.100000
11
218.900000
21
348.100000
0
LINE
8
Layer 1
10
218.900000
20
348.100000
11
218.862500
21
348.062500
0
LINE
8
Layer 1
10
218.862500
20
348.062500
11
218.900000
21
348.100000
0
LINE
8
Layer 1
10
218.900000
20
348.100000
11
218.900000
21
357.900000
0
LINE
8
Layer 1
10
218.900000
20
357.900000
11
218.862500
21
357.937500
0
LINE
8
Layer 1
10
218.862500
20
357.937500
11
218.900000
21
357.900000
0
LINE
8
Layer 1
10
218.900000
20
357.900000
11
223.800000
21
357.900000
0
LINE
8
Layer 1
10
223.800000
20
357.900000
11
223.900000
21
358.000000
0
LINE
8
Layer 1
10
223.900000
20
358.000000
11
223.900000
21
368.000000
0
LINE
8
Layer 1
10
223.900000
20
368.000000
11
223.800000
21
368.100000
0
LINE
8
Layer 1
10
223.800000
20
368.100000
11
218.900000
21
368.100000
0
LINE
8
Layer 1
10
218.900000
20
368.100000
11
218.862500
21
368.062500
0
LINE
8
Layer 1
10
218.862500
20
368.062500
11
218.900000
21
368.100000
0
LINE
8
Layer 1
10
218.900000
20
368.100000
11
218.900000
21
377.900000
0
LINE
8
Layer 1
10
218.900000
20
377.900000
11
218.862500
21
377.937500
0
LINE
8
Layer 1
10
218.862500
20
377.937500
11
218.900000
21
377.900000
0
LINE
8
Layer 1
10
218.900000
20
377.900000
11
223.800000
21
377.900000
0
LINE
8
Layer 1
10
223.800000
20
377.900000
11
223.900000
21
378.000000
0
LINE
8
Layer 1
10
223.900000
20
378.000000
11
223.900000
21
388.000000
0
LINE
8
Layer 1
10
223.900000
20
388.000000
11
223.800000
21
388.100000
0
LINE
8
Layer 1
10
223.800000
20
388.100000
11
218.900000
21
388.100000
0
LINE
8
Layer 1
10
218.900000
20
388.100000
11
218.862500
21
388.062500
0
LINE
8
Layer 1
10
218.862500
20
388.062500
11
218.900000
21
388.100000
0
LINE
8
Layer 1
10
218.900000
20
388.100000
11
218.900000
21
397.900000
0
LINE
8
Layer 1
10
218.900000
20
397.900000
11
218.862500
21
397.937500
0
LINE
8
Layer 1
10
218.862500
20
397.937500
11
218.900000
21
397.900000
0
LINE
8
Layer 1
10
218.900000
20
397.900000
11
223.800000
21
397.900000
0
LINE
8
Layer 1
10
223.800000
20
397.900000
11
223.900000
21
398.000000
0
LINE
8
Layer 1
10
223.900000
20
398.000000
11
223.900000
21
408.000000
0
LINE
8
Layer 1
10
223.900000
20
408.000000
11
223.800000
21
408.100000
0
LINE
8
Layer 1
10
223.800000
20
408.100000
11
218.900000
21
408.100000
0
LINE
8
Layer 1
10
218.900000
20
408.100000
11
218.862500
21
408.062500
0
LINE
8
Layer 1
10
218.862500
20
408.062500
11
218.900000
21
408.100000
0
LINE
8
Layer 1
10
218.900000
20
408.100000
11
218.900000
21
417.900000
0
LINE
8
Layer 1
10
218.900000
20
417.900000
11
218.862500
21
417.937500
0
LINE
8
Layer 1
10
218.862500
20
417.937500
11
218.900000
21
417.900000
0
LINE
8
Layer 1
10
218.900000
20
417.900000
11
223.800000
21
417.900000
0
LINE
8
Layer 1
10
223.800000
20
417.900000
11
223.900000
21
418.000000
0
LINE
8
Layer 1
10
223.900000
20
418.000000
11
223.900000
21
435.500000
0
LINE
8
Layer 1
10
223.900000
20
435.500000
11
223.800000
21
435.600000
0
LINE
8
Layer 1
10
223.800000
20
435.600000
11
218.800000
21
435.600000
0
LINE
8
Layer 1
10
218.800000
20
435.600000
11
23.800000
21
435.600000
0
LINE
8
Layer 1
10
23.800000
20
435.600000
11
18.800000
21
435.600000
0
LINE
8
Layer 1
10
18.800000
20
435.600000
11
18.700000
21
435.500000
0
LINE
8
Layer 1
10
18.700000
20
435.500000
11
18.700000
21
418.000000
0
LINE
8
Layer 1
10
18.700000
20
418.000000
11
18.800000
21
417.900000
0
LINE
8
Layer 1
10
18.800000
20
417.900000
11
23.700000
21
417.900000
0
LINE
8
Layer 1
10
23.700000
20
417.900000
11
23.737500
21
417.937500
0
LINE
8
Layer 1
10
23.737500
20
417.937500
11
23.700000
21
417.900000
0
LINE
8
Layer 1
10
23.700000
20
417.900000
11
23.700000
21
408.100000
0
LINE
8
Layer 1
10
23.700000
20
408.100000
11
23.737500
21
408.062500
0
LINE
8
Layer 1
10
23.737500
20
408.062500
11
23.700000
21
408.100000
0
LINE
8
Layer 1
10
23.700000
20
408.100000
11
18.800000
21
408.100000
0
LINE
8
Layer 1
10
18.800000
20
408.100000
11
18.700000
21
408.000000
0
LINE
8
Layer 1
10
18.700000
20
408.000000
11
18.700000
21
398.000000
0
LINE
8
Layer 1
10
18.700000
20
398.000000
11
18.800000
21
397.900000
0
LINE
8
Layer 1
10
18.800000
20
397.900000
11
23.700000
21
397.900000
0
LINE
8
Layer 1
10
23.700000
20
397.900000
11
23.737500
21
397.937500
0
LINE
8
Layer 1
10
23.737500
20
397.937500
11
23.700000
21
397.900000
0
LINE
8
Layer 1
10
23.700000
20
397.900000
11
23.700000
21
388.100000
0
LINE
8
Layer 1
10
23.700000
20
388.100000
11
23.737500
21
388.062500
0
LINE
8
Layer 1
10
23.737500
20
388.062500
11
23.700000
21
388.100000
0
LINE
8
Layer 1
10
23.700000
20
388.100000
11
18.800000
21
388.100000
0
LINE
8
Layer 1
10
18.800000
20
388.100000
11
18.700000
21
388.000000
0
LINE
8
Layer 1
10
18.700000
20
388.000000
11
18.700000
21
378.000000
0
LINE
8
Layer 1
10
18.700000
20
378.000000
11
18.800000
21
377.900000
0
LINE
8
Layer 1
10
18.800000
20
377.900000
11
23.700000
21
377.900000
0
LINE
8
Layer 1
10
23.700000
20
377.900000
11
23.737500
21
377.937500
0
LINE
8
Layer 1
10
23.737500
20
377.937500
11
23.700000
21
377.900000
0
LINE
8
Layer 1
10
23.700000
20
377.900000
11
23.700000
21
368.100000
0
LINE
8
Layer 1
10
23.700000
20
368.100000
11
23.737500
21
368.062500
0
LINE
8
Layer 1
10
23.737500
20
368.062500
11
23.700000
21
368.100000
0
LINE
8
Layer 1
10
23.700000
20
368.100000
11
18.800000
21
368.100000
0
LINE
8
Layer 1
10
18.800000
20
368.100000
11
18.700000
21
368.000000
0
LINE
8
Layer 1
10
18.700000
20
368.000000
11
18.700000
21
358.000000
0
LINE
8
Layer 1
10
18.700000
20
358.000000
11
18.800000
21
357.900000
0
LINE
8
Layer 1
10
18.800000
20
357.900000
11
23.700000
21
357.900000
0
LINE
8
Layer 1
10
23.700000
20
357.900000
11
23.737500
21
357.937500
0
LINE
8
Layer 1
10
23.737500
20
357.937500
11
23.700000
21
357.900000
0
LINE
8
Layer 1
10
23.700000
20
357.900000
11
23.700000
21
348.100000
0
LINE
8
Layer 1
10
23.700000
20
348.100000
11
23.737500
21
348.062500
0
LINE
8
Layer 1
10
23.737500
20
348.062500
11
23.700000
21
348.100000
0
LINE
8
Layer 1
10
23.700000
20
348.100000
11
18.800000
21
348.100000
0
LINE
8
Layer 1
10
18.800000
20
348.100000
11
18.700000
21
348.000000
0
LINE
8
Layer 1
10
18.700000
20
348.000000
11
18.700000
21
338.000000
0
LINE
8
Layer 1
10
18.700000
20
338.000000
11
18.800000
21
337.900000
0
LINE
8
Layer 1
10
18.800000
20
337.900000
11
23.700000
21
337.900000
0
LINE
8
Layer 1
10
23.700000
20
337.900000
11
23.737500
21
337.937500
0
LINE
8
Layer 1
10
23.737500
20
337.937500
11
23.700000
21
337.900000
0
LINE
8
Layer 1
10
23.700000
20
337.900000
11
23.700000
21
328.100000
0
LINE
8
Layer 1
10
23.700000
20
328.100000
11
23.737500
21
328.062500
0
LINE
8
Layer 1
10
23.737500
20
328.062500
11
23.700000
21
328.100000
0
LINE
8
Layer 1
10
23.700000
20
328.100000
11
18.800000
21
328.100000
0
LINE
8
Layer 1
10
18.800000
20
328.100000
11
18.700000
21
328.000000
0
LINE
8
Layer 1
10
18.700000
20
328.000000
11
18.700000
21
318.000000
0
LINE
8
Layer 1
10
18.700000
20
318.000000
11
18.800000
21
317.900000
0
LINE
8
Layer 1
10
18.800000
20
317.900000
11
23.700000
21
317.900000
0
LINE
8
Layer 1
10
23.700000
20
317.900000
11
23.737500
21
317.937500
0
LINE
8
Layer 1
10
23.737500
20
317.937500
11
23.700000
21
317.900000
0
LINE
8
Layer 1
10
23.700000
20
317.900000
11
23.700000
21
308.100000
0
LINE
8
Layer 1
10
23.700000
20
308.100000
11
23.737500
21
308.062500
0
LINE
8
Layer 1
10
23.737500
20
308.062500
11
23.700000
21
308.100000
0
LINE
8
Layer 1
10
23.700000
20
308.100000
11
18.800000
21
308.100000
0
LINE
8
Layer 1
10
18.800000
20
308.100000
11
18.700000
21
308.000000
0
LINE
8
Layer 1
10
18.700000
20
308.000000
11
18.700000
21
298.000000
0
LINE
8
Layer 1
10
18.700000
20
298.000000
11
18.800000
21
297.900000
0
LINE
8
Layer 1
10
18.800000
20
297.900000
11
23.700000
21
297.900000
0
LINE
8
Layer 1
10
23.700000
20
297.900000
11
23.737500
21
297.937500
0
LINE
8
Layer 1
10
23.737500
20
297.937500
11
23.700000
21
297.900000
0
LINE
8
Layer 1
10
23.700000
20
297.900000
11
23.700000
21
288.100000
0
LINE
8
Layer 1
10
23.700000
20
288.100000
11
23.737500
21
288.062500
0
LINE
8
Layer 1
10
23.737500
20
288.062500
11
23.700000
21
288.100000
0
LINE
8
Layer 1
10
23.700000
20
288.100000
11
18.800000
21
288.100000
0
LINE
8
Layer 1
10
18.800000
20
288.100000
11
18.700000
21
288.000000
0
LINE
8
Layer 1
10
18.700000
20
288.000000
11
18.700000
21
278.000000
0
LINE
8
Layer 1
10
18.700000
20
278.000000
11
18.800000
21
277.900000
0
LINE
8
Layer 1
10
18.800000
20
277.900000
11
23.700000
21
277.900000
0
LINE
8
Layer 1
10
23.700000
20
277.900000
11
23.737500
21
277.937500
0
LINE
8
Layer 1
10
23.737500
20
277.937500
11
23.700000
21
277.900000
0
LINE
8
Layer 1
10
23.700000
20
277.900000
11
23.700000
21
268.100000
0
LINE
8
Layer 1
10
23.700000
20
268.100000
11
23.737500
21
268.062500
0
LINE
8
Layer 1
10
23.737500
20
268.062500
11
23.700000
21
268.100000
0
LINE
8
Layer 1
10
23.700000
20
268.100000
11
18.800000
21
268.100000
0
LINE
8
Layer 1
10
18.800000
20
268.100000
11
18.700000
21
268.000000
0
LINE
8
Layer 1
10
18.700000
20
268.000000
11
18.700000
21
258.000000
0
LINE
8
Layer 1
10
18.700000
20
258.000000
11
18.800000
21
257.900000
0
LINE
8
Layer 1
10
18.800000
20
257.900000
11
23.700000
21
257.900000
0
LINE
8
Layer 1
10
23.700000
20
257.900000
11
23.737500
21
257.937500
0
LINE
8
Layer 1
10
23.737500
20
257.937500
11
23.700000
21
257.900000
0
LINE
8
Layer 1
10
23.700000
20
257.900000
11
23.700000
21
248.100000
0
LINE
8
Layer 1
10
23.700000
20
248.100000
11
23.737500
21
248.062500
0
LINE
8
Layer 1
10
23.737500
20
248.062500
11
23.700000
21
248.100000
0
LINE
8
Layer 1
10
23.700000
20
248.100000
11
18.800000
21
248.100000
0
LINE
8
Layer 1
10
18.800000
20
248.100000
11
18.700000
21
248.000000
0
LINE
8
Layer 1
10
18.700000
20
248.000000
11
18.700000
21
230.500000
0
LINE
8
Layer 1
10
18.700000
20
230.500000
11
18.800000
21
230.400000
0
LINE
8
Layer 1
10
18.800000
20
230.400000
11
23.800000
21
230.400000
0
LINE
8
Layer 1
10
23.800000
20
230.400000
11
23.800000
21
230.400000
0
LINE
8
Layer 1
10
23.800000
20
443.100000
11
36.200000
21
443.100000
0
LINE
8
Layer 1
10
36.200000
20
443.100000
11
36.200000
21
443.100000
0
LINE
8
Layer 1
10
36.200000
20
443.100000
11
36.200000
21
438.200000
0
LINE
8
Layer 1
10
36.200000
20
438.200000
11
36.300000
21
438.100000
0
LINE
8
Layer 1
10
36.300000
20
438.100000
11
46.300000
21
438.100000
0
LINE
8
Layer 1
10
46.300000
20
438.100000
11
46.400000
21
438.200000
0
LINE
8
Layer 1
10
46.400000
20
438.200000
11
46.400000
21
443.100000
0
LINE
8
Layer 1
10
46.400000
20
443.100000
11
46.362500
21
443.137500
0
LINE
8
Layer 1
10
46.362500
20
443.137500
11
46.400000
21
443.100000
0
LINE
8
Layer 1
10
46.400000
20
443.100000
11
56.200000
21
443.100000
0
LINE
8
Layer 1
10
56.200000
20
443.100000
11
56.200000
21
443.100000
0
LINE
8
Layer 1
10
56.200000
20
443.100000
11
56.200000
21
438.200000
0
LINE
8
Layer 1
10
56.200000
20
438.200000
11
56.300000
21
438.100000
0
LINE
8
Layer 1
10
56.300000
20
438.100000
11
66.300000
21
438.100000
0
LINE
8
Layer 1
10
66.300000
20
438.100000
11
66.400000
21
438.200000
0
LINE
8
Layer 1
10
66.400000
20
438.200000
11
66.400000
21
443.100000
0
LINE
8
Layer 1
10
66.400000
20
443.100000
11
66.362500
21
443.137500
0
LINE
8
Layer 1
10
66.362500
20
443.137500
11
66.400000
21
443.100000
0
LINE
8
Layer 1
10
66.400000
20
443.100000
11
76.200000
21
443.100000
0
LINE
8
Layer 1
10
76.200000
20
443.100000
11
76.200000
21
443.100000
0
LINE
8
Layer 1
10
76.200000
20
443.100000
11
76.200000
21
438.200000
0
LINE
8
Layer 1
10
76.200000
20
438.200000
11
76.300000
21
438.100000
0
LINE
8
Layer 1
10
76.300000
20
438.100000
11
86.300000
21
438.100000
0
LINE
8
Layer 1
10
86.300000
20
438.100000
11
86.400000
21
438.200000
0
LINE
8
Layer 1
10
86.400000
20
438.200000
11
86.400000
21
443.100000
0
LINE
8
Layer 1
10
86.400000
20
443.100000
11
86.362500
21
443.137500
0
LINE
8
Layer 1
10
86.362500
20
443.137500
11
86.400000
21
443.100000
0
LINE
8
Layer 1
10
86.400000
20
443.100000
11
96.200000
21
443.100000
0
LINE
8
Layer 1
10
96.200000
20
443.100000
11
96.200000
21
443.100000
0
LINE
8
Layer 1
10
96.200000
20
443.100000
11
96.200000
21
438.200000
0
LINE
8
Layer 1
10
96.200000
20
438.200000
11
96.300000
21
438.100000
0
LINE
8
Layer 1
10
96.300000
20
438.100000
11
106.300000
21
438.100000
0
LINE
8
Layer 1
10
106.300000
20
438.100000
11
106.400000
21
438.200000
0
LINE
8
Layer 1
10
106.400000
20
438.200000
11
106.400000
21
443.100000
0
LINE
8
Layer 1
10
106.400000
20
443.100000
11
106.362500
21
443.137500
0
LINE
8
Layer 1
10
106.362500
20
443.137500
11
106.400000
21
443.100000
0
LINE
8
Layer 1
10
106.400000
20
443.100000
11
116.200000
21
443.100000
0
LINE
8
Layer 1
10
116.200000
20
443.100000
11
116.200000
21
443.100000
0
LINE
8
Layer 1
10
116.200000
20
443.100000
11
116.200000
21
438.200000
0
LINE
8
Layer 1
10
116.200000
20
438.200000
11
116.300000
21
438.100000
0
LINE
8
Layer 1
10
116.300000
20
438.100000
11
126.300000
21
438.100000
0
LINE
8
Layer 1
10
126.300000
20
438.100000
11
126.400000
21
438.200000
0
LINE
8
Layer 1
10
126.400000
20
438.200000
11
126.400000
21
443.100000
0
LINE
8
Layer 1
10
126.400000
20
443.100000
11
126.362500
21
443.137500
0
LINE
8
Layer 1
10
126.362500
20
443.137500
11
126.400000
21
443.100000
0
LINE
8
Layer 1
10
126.400000
20
443.100000
11
136.200000
21
443.100000
0
LINE
8
Layer 1
10
136.200000
20
443.100000
11
136.237500
21
443.137500
0
LINE
8
Layer 1
10
136.237500
20
443.137500
11
136.200000
21
443.100000
0
LINE
8
Layer 1
10
136.200000
20
443.100000
11
136.200000
21
438.200000
0
LINE
8
Layer 1
10
136.200000
20
438.200000
11
136.300000
21
438.100000
0
LINE
8
Layer 1
10
136.300000
20
438.100000
11
146.300000
21
438.100000
0
LINE
8
Layer 1
10
146.300000
20
438.100000
11
146.400000
21
438.200000
0
LINE
8
Layer 1
10
146.400000
20
438.200000
11
146.400000
21
443.100000
0
LINE
8
Layer 1
10
146.400000
20
443.100000
11
146.400000
21
443.100000
0
LINE
8
Layer 1
10
146.400000
20
443.100000
11
156.200000
21
443.100000
0
LINE
8
Layer 1
10
156.200000
20
443.100000
11
156.237500
21
443.137500
0
LINE
8
Layer 1
10
156.237500
20
443.137500
11
156.200000
21
443.100000
0
LINE
8
Layer 1
10
156.200000
20
443.100000
11
156.200000
21
438.200000
0
LINE
8
Layer 1
10
156.200000
20
438.200000
11
156.300000
21
438.100000
0
LINE
8
Layer 1
10
156.300000
20
438.100000
11
166.300000
21
438.100000
0
LINE
8
Layer 1
10
166.300000
20
438.100000
11
166.400000
21
438.200000
0
LINE
8
Layer 1
10
166.400000
20
438.200000
11
166.400000
21
443.100000
0
LINE
8
Layer 1
10
166.400000
20
443.100000
11
166.400000
21
443.100000
0
LINE
8
Layer 1
10
166.400000
20
443.100000
11
176.200000
21
443.100000
0
LINE
8
Layer 1
10
176.200000
20
443.100000
11
176.237500
21
443.137500
0
LINE
8
Layer 1
10
176.237500
20
443.137500
11
176.200000
21
443.100000
0
LINE
8
Layer 1
10
176.200000
20
443.100000
11
176.200000
21
438.200000
0
LINE
8
Layer 1
10
176.200000
20
438.200000
11
176.300000
21
438.100000
0
LINE
8
Layer 1
10
176.300000
20
438.100000
11
186.300000
21
438.100000
0
LINE
8
Layer 1
10
186.300000
20
438.100000
11
186.400000
21
438.200000
0
LINE
8
Layer 1
10
186.400000
20
438.200000
11
186.400000
21
443.100000
0
LINE
8
Layer 1
10
186.400000
20
443.100000
11
186.400000
21
443.100000
0
LINE
8
Layer 1
10
186.400000
20
443.100000
11
196.200000
21
443.100000
0
LINE
8
Layer 1
10
196.200000
20
443.100000
11
196.237500
21
443.137500
0
LINE
8
Layer 1
10
196.237500
20
443.137500
11
196.200000
21
443.100000
0
LINE
8
Layer 1
10
196.200000
20
443.100000
11
196.200000
21
438.200000
0
LINE
8
Layer 1
10
196.200000
20
438.200000
11
196.300000
21
438.100000
0
LINE
8
Layer 1
10
196.300000
20
438.100000
11
206.300000
21
438.100000
0
LINE
8
Layer 1
10
206.300000
20
438.100000
11
206.400000
21
438.200000
0
LINE
8
Layer 1
10
206.400000
20
438.200000
11
206.400000
21
443.100000
0
LINE
8
Layer 1
10
206.400000
20
443.100000
11
206.400000
21
443.100000
0
LINE
8
Layer 1
10
206.400000
20
443.100000
11
218.800000
21
443.100000
0
LINE
8
Layer 1
10
218.800000
20
443.100000
11
218.900000
21
443.200000
0
LINE
8
Layer 1
10
218.900000
20
443.200000
11
218.900000
21
454.100000
0
LINE
8
Layer 1
10
218.900000
20
454.100000
11
218.900000
21
454.100000
0
LINE
8
Layer 1
10
218.900000
20
454.100000
11
223.800000
21
454.100000
0
LINE
8
Layer 1
10
223.800000
20
454.100000
11
223.900000
21
454.200000
0
LINE
8
Layer 1
10
223.900000
20
454.200000
11
223.900000
21
464.200000
0
LINE
8
Layer 1
10
223.900000
20
464.200000
11
223.800000
21
464.300000
0
LINE
8
Layer 1
10
223.800000
20
464.300000
11
218.900000
21
464.300000
0
LINE
8
Layer 1
10
218.900000
20
464.300000
11
218.862500
21
464.262500
0
LINE
8
Layer 1
10
218.862500
20
464.262500
11
218.900000
21
464.300000
0
LINE
8
Layer 1
10
218.900000
20
464.300000
11
218.900000
21
474.100000
0
LINE
8
Layer 1
10
218.900000
20
474.100000
11
218.900000
21
474.100000
0
LINE
8
Layer 1
10
218.900000
20
474.100000
11
223.800000
21
474.100000
0
LINE
8
Layer 1
10
223.800000
20
474.100000
11
223.900000
21
474.200000
0
LINE
8
Layer 1
10
223.900000
20
474.200000
11
223.900000
21
484.200000
0
LINE
8
Layer 1
10
223.900000
20
484.200000
11
223.800000
21
484.300000
0
LINE
8
Layer 1
10
223.800000
20
484.300000
11
218.900000
21
484.300000
0
LINE
8
Layer 1
10
218.900000
20
484.300000
11
218.862500
21
484.262500
0
LINE
8
Layer 1
10
218.862500
20
484.262500
11
218.900000
21
484.300000
0
LINE
8
Layer 1
10
218.900000
20
484.300000
11
218.900000
21
494.100000
0
LINE
8
Layer 1
10
218.900000
20
494.100000
11
218.900000
21
494.100000
0
LINE
8
Layer 1
10
218.900000
20
494.100000
11
223.800000
21
494.100000
0
LINE
8
Layer 1
10
223.800000
20
494.100000
11
223.900000
21
494.200000
0
LINE
8
Layer 1
10
223.900000
20
494.200000
11
223.900000
21
504.200000
0
LINE
8
Layer 1
10
223.900000
20
504.200000
11
223.800000
21
504.300000
0
LINE
8
Layer 1
10
223.800000
20
504.300000
11
218.900000
21
504.300000
0
LINE
8
Layer 1
10
218.900000
20
504.300000
11
218.862500
21
504.262500
0
LINE
8
Layer 1
10
218.862500
20
504.262500
11
218.900000
21
504.300000
0
LINE
8
Layer 1
10
218.900000
20
504.300000
11
218.900000
21
514.100000
0
LINE
8
Layer 1
10
218.900000
20
514.100000
11
218.862500
21
514.137500
0
LINE
8
Layer 1
10
218.862500
20
514.137500
11
218.900000
21
514.100000
0
LINE
8
Layer 1
10
218.900000
20
514.100000
11
223.800000
21
514.100000
0
LINE
8
Layer 1
10
223.800000
20
514.100000
11
223.900000
21
514.200000
0
LINE
8
Layer 1
10
223.900000
20
514.200000
11
223.900000
21
524.200000
0
LINE
8
Layer 1
10
223.900000
20
524.200000
11
223.800000
21
524.300000
0
LINE
8
Layer 1
10
223.800000
20
524.300000
11
218.900000
21
524.300000
0
LINE
8
Layer 1
10
218.900000
20
524.300000
11
218.900000
21
524.300000
0
LINE
8
Layer 1
10
218.900000
20
524.300000
11
218.900000
21
534.100000
0
LINE
8
Layer 1
10
218.900000
20
534.100000
11
218.862500
21
534.137500
0
LINE
8
Layer 1
10
218.862500
20
534.137500
11
218.900000
21
534.100000
0
LINE
8
Layer 1
10
218.900000
20
534.100000
11
223.800000
21
534.100000
0
LINE
8
Layer 1
10
223.800000
20
534.100000
11
223.900000
21
534.200000
0
LINE
8
Layer 1
10
223.900000
20
534.200000
11
223.900000
21
544.200000
0
LINE
8
Layer 1
10
223.900000
20
544.200000
11
223.800000
21
544.300000
0
LINE
8
Layer 1
10
223.800000
20
544.300000
11
218.900000
21
544.300000
0
LINE
8
Layer 1
10
218.900000
20
544.300000
11
218.900000
21
544.300000
0
LINE
8
Layer 1
10
218.900000
20
544.300000
11
218.900000
21
554.100000
0
LINE
8
Layer 1
10
218.900000
20
554.100000
11
218.862500
21
554.137500
0
LINE
8
Layer 1
10
218.862500
20
554.137500
11
218.900000
21
554.100000
0
LINE
8
Layer 1
10
218.900000
20
554.100000
11
223.800000
21
554.100000
0
LINE
8
Layer 1
10
223.800000
20
554.100000
11
223.900000
21
554.200000
0
LINE
8
Layer 1
10
223.900000
20
554.200000
11
223.900000
21
564.200000
0
LINE
8
Layer 1
10
223.900000
20
564.200000
11
223.800000
21
564.300000
0
LINE
8
Layer 1
10
223.800000
20
564.300000
11
218.900000
21
564.300000
0
LINE
8
Layer 1
10
218.900000
20
564.300000
11
218.900000
21
564.300000
0
LINE
8
Layer 1
10
218.900000
20
564.300000
11
218.900000
21
574.100000
0
LINE
8
Layer 1
10
218.900000
20
574.100000
11
218.862500
21
574.137500
0
LINE
8
Layer 1
10
218.862500
20
574.137500
11
218.900000
21
574.100000
0
LINE
8
Layer 1
10
218.900000
20
574.100000
11
223.800000
21
574.100000
0
LINE
8
Layer 1
10
223.800000
20
574.100000
11
223.900000
21
574.200000
0
LINE
8
Layer 1
10
223.900000
20
574.200000
11
223.900000
21
584.200000
0
LINE
8
Layer 1
10
223.900000
20
584.200000
11
223.800000
21
584.300000
0
LINE
8
Layer 1
10
223.800000
20
584.300000
11
218.900000
21
584.300000
0
LINE
8
Layer 1
10
218.900000
20
584.300000
11
218.900000
21
584.300000
0
LINE
8
Layer 1
10
218.900000
20
584.300000
11
218.900000
21
594.100000
0
LINE
8
Layer 1
10
218.900000
20
594.100000
11
218.862500
21
594.137500
0
LINE
8
Layer 1
10
218.862500
20
594.137500
11
218.900000
21
594.100000
0
LINE
8
Layer 1
10
218.900000
20
594.100000
11
223.800000
21
594.100000
0
LINE
8
Layer 1
10
223.800000
20
594.100000
11
223.900000
21
594.200000
0
LINE
8
Layer 1
10
223.900000
20
594.200000
11
223.900000
21
604.200000
0
LINE
8
Layer 1
10
223.900000
20
604.200000
11
223.800000
21
604.300000
0
LINE
8
Layer 1
10
223.800000
20
604.300000
11
218.900000
21
604.300000
0
LINE
8
Layer 1
10
218.900000
20
604.300000
11
218.900000
21
604.300000
0
LINE
8
Layer 1
10
218.900000
20
604.300000
11
218.900000
21
614.100000
0
LINE
8
Layer 1
10
218.900000
20
614.100000
11
218.862500
21
614.137500
0
LINE
8
Layer 1
10
218.862500
20
614.137500
11
218.900000
21
614.100000
0
LINE
8
Layer 1
10
218.900000
20
614.100000
11
223.800000
21
614.100000
0
LINE
8
Layer 1
10
223.800000
20
614.100000
11
223.900000
21
614.200000
0
LINE
8
Layer 1
10
223.900000
20
614.200000
11
223.900000
21
624.200000
0
LINE
8
Layer 1
10
223.900000
20
624.200000
11
223.800000
21
624.300000
0
LINE
8
Layer 1
10
223.800000
20
624.300000
11
218.900000
21
624.300000
0
LINE
8
Layer 1
10
218.900000
20
624.300000
11
218.900000
21
624.300000
0
LINE
8
Layer 1
10
218.900000
20
624.300000
11
218.900000
21
634.100000
0
LINE
8
Layer 1
10
218.900000
20
634.100000
11
218.862500
21
634.137500
0
LINE
8
Layer 1
10
218.862500
20
634.137500
11
218.900000
21
634.100000
0
LINE
8
Layer 1
10
218.900000
20
634.100000
11
223.800000
21
634.100000
0
LINE
8
Layer 1
10
223.800000
20
634.100000
11
223.900000
21
634.200000
0
LINE
8
Layer 1
10
223.900000
20
634.200000
11
223.900000
21
644.200000
0
LINE
8
Layer 1
10
223.900000
20
644.200000
11
223.800000
21
644.300000
0
LINE
8
Layer 1
10
223.800000
20
644.300000
11
218.900000
21
644.300000
0
LINE
8
Layer 1
10
218.900000
20
644.300000
11
218.900000
21
644.300000
0
LINE
8
Layer 1
10
218.900000
20
644.300000
11
218.900000
21
654.100000
0
LINE
8
Layer 1
10
218.900000
20
654.100000
11
218.862500
21
654.137500
0
LINE
8
Layer 1
10
218.862500
20
654.137500
11
218.900000
21
654.100000
0
LINE
8
Layer 1
10
218.900000
20
654.100000
11
223.800000
21
654.100000
0
LINE
8
Layer 1
10
223.800000
20
654.100000
11
223.900000
21
654.200000
0
LINE
8
Layer 1
10
223.900000
20
654.200000
11
223.900000
21
664.200000
0
LINE
8
Layer 1
10
223.900000
20
664.200000
11
223.800000
21
664.300000
0
LINE
8
Layer 1
10
223.800000
20
664.300000
11
218.900000
21
664.300000
0
LINE
8
Layer 1
10
218.900000
20
664.300000
11
218.900000
21
664.300000
0
LINE
8
Layer 1
10
218.900000
20
664.300000
11
218.900000
21
674.100000
0
LINE
8
Layer 1
10
218.900000
20
674.100000
11
218.862500
21
674.137500
0
LINE
8
Layer 1
10
218.862500
20
674.137500
11
218.900000
21
674.100000
0
LINE
8
Layer 1
10
218.900000
20
674.100000
11
223.800000
21
674.100000
0
LINE
8
Layer 1
10
223.800000
20
674.100000
11
223.900000
21
674.200000
0
LINE
8
Layer 1
10
223.900000
20
674.200000
11
223.900000
21
684.200000
0
LINE
8
Layer 1
10
223.900000
20
684.200000
11
223.800000
21
684.300000
0
LINE
8
Layer 1
10
223.800000
20
684.300000
11
218.900000
21
684.300000
0
LINE
8
Layer 1
10
218.900000
20
684.300000
11
218.900000
21
684.300000
0
LINE
8
Layer 1
10
218.900000
20
684.300000
11
218.900000
21
695.200000
0
LINE
8
Layer 1
10
218.900000
20
695.200000
11
218.800000
21
695.300000
0
LINE
8
Layer 1
10
218.800000
20
695.300000
11
206.400000
21
695.300000
0
LINE
8
Layer 1
10
206.400000
20
695.300000
11
206.400000
21
695.300000
0
LINE
8
Layer 1
10
206.400000
20
695.300000
11
206.400000
21
700.200000
0
LINE
8
Layer 1
10
206.400000
20
700.200000
11
206.300000
21
700.300000
0
LINE
8
Layer 1
10
206.300000
20
700.300000
11
196.300000
21
700.300000
0
LINE
8
Layer 1
10
196.300000
20
700.300000
11
196.200000
21
700.200000
0
LINE
8
Layer 1
10
196.200000
20
700.200000
11
196.200000
21
695.300000
0
LINE
8
Layer 1
10
196.200000
20
695.300000
11
196.237500
21
695.262500
0
LINE
8
Layer 1
10
196.237500
20
695.262500
11
196.200000
21
695.300000
0
LINE
8
Layer 1
10
196.200000
20
695.300000
11
186.400000
21
695.300000
0
LINE
8
Layer 1
10
186.400000
20
695.300000
11
186.400000
21
695.300000
0
LINE
8
Layer 1
10
186.400000
20
695.300000
11
186.400000
21
700.200000
0
LINE
8
Layer 1
10
186.400000
20
700.200000
11
186.300000
21
700.300000
0
LINE
8
Layer 1
10
186.300000
20
700.300000
11
176.300000
21
700.300000
0
LINE
8
Layer 1
10
176.300000
20
700.300000
11
176.200000
21
700.200000
0
LINE
8
Layer 1
10
176.200000
20
700.200000
11
176.200000
21
695.300000
0
LINE
8
Layer 1
10
176.200000
20
695.300000
11
176.237500
21
695.262500
0
LINE
8
Layer 1
10
176.237500
20
695.262500
11
176.200000
21
695.300000
0
LINE
8
Layer 1
10
176.200000
20
695.300000
11
166.400000
21
695.300000
0
LINE
8
Layer 1
10
166.400000
20
695.300000
11
166.400000
21
695.300000
0
LINE
8
Layer 1
10
166.400000
20
695.300000
11
166.400000
21
700.200000
0
LINE
8
Layer 1
10
166.400000
20
700.200000
11
166.300000
21
700.300000
0
LINE
8
Layer 1
10
166.300000
20
700.300000
11
156.300000
21
700.300000
0
LINE
8
Layer 1
10
156.300000
20
700.300000
11
156.200000
21
700.200000
0
LINE
8
Layer 1
10
156.200000
20
700.200000
11
156.200000
21
695.300000
0
LINE
8
Layer 1
10
156.200000
20
695.300000
11
156.237500
21
695.262500
0
LINE
8
Layer 1
10
156.237500
20
695.262500
11
156.200000
21
695.300000
0
LINE
8
Layer 1
10
156.200000
20
695.300000
11
146.400000
21
695.300000
0
LINE
8
Layer 1
10
146.400000
20
695.300000
11
146.400000
21
695.300000
0
LINE
8
Layer 1
10
146.400000
20
695.300000
11
146.400000
21
700.200000
0
LINE
8
Layer 1
10
146.400000
20
700.200000
11
146.300000
21
700.300000
0
LINE
8
Layer 1
10
146.300000
20
700.300000
11
136.300000
21
700.300000
0
LINE
8
Layer 1
10
136.300000
20
700.300000
11
136.200000
21
700.200000
0
LINE
8
Layer 1
10
136.200000
20
700.200000
11
136.200000
21
695.300000
0
LINE
8
Layer 1
10
136.200000
20
695.300000
11
136.237500
21
695.262500
0
LINE
8
Layer 1
10
136.237500
20
695.262500
11
136.200000
21
695.300000
0
LINE
8
Layer 1
10
136.200000
20
695.300000
11
126.400000
21
695.300000
0
LINE
8
Layer 1
10
126.400000
20
695.300000
11
126.362500
21
695.262500
0
LINE
8
Layer 1
10
126.362500
20
695.262500
11
126.400000
21
695.300000
0
LINE
8
Layer 1
10
126.400000
20
695.300000
11
126.400000
21
700.200000
0
LINE
8
Layer 1
10
126.400000
20
700.200000
11
126.300000
21
700.300000
0
LINE
8
Layer 1
10
126.300000
20
700.300000
11
116.300000
21
700.300000
0
LINE
8
Layer 1
10
116.300000
20
700.300000
11
116.200000
21
700.200000
0
LINE
8
Layer 1
10
116.200000
20
700.200000
11
116.200000
21
695.300000
0
LINE
8
Layer 1
10
116.200000
20
695.300000
11
116.200000
21
695.300000
0
LINE
8
Layer 1
10
116.200000
20
695.300000
11
106.400000
21
695.300000
0
LINE
8
Layer 1
10
106.400000
20
695.300000
11
106.362500
21
695.262500
0
LINE
8
Layer 1
10
106.362500
20
695.262500
11
106.400000
21
695.300000
0
LINE
8
Layer 1
10
106.400000
20
695.300000
11
106.400000
21
700.200000
0
LINE
8
Layer 1
10
106.400000
20
700.200000
11
106.300000
21
700.300000
0
LINE
8
Layer 1
10
106.300000
20
700.300000
11
96.300000
21
700.300000
0
LINE
8
Layer 1
10
96.300000
20
700.300000
11
96.200000
21
700.200000
0
LINE
8
Layer 1
10
96.200000
20
700.200000
11
96.200000
21
695.300000
0
LINE
8
Layer 1
10
96.200000
20
695.300000
11
96.200000
21
695.300000
0
LINE
8
Layer 1
10
96.200000
20
695.300000
11
86.400000
21
695.300000
0
LINE
8
Layer 1
10
86.400000
20
695.300000
11
86.362500
21
695.262500
0
LINE
8
Layer 1
10
86.362500
20
695.262500
11
86.400000
21
695.300000
0
LINE
8
Layer 1
10
86.400000
20
695.300000
11
86.400000
21
700.200000
0
LINE
8
Layer 1
10
86.400000
20
700.200000
11
86.300000
21
700.300000
0
LINE
8
Layer 1
10
86.300000
20
700.300000
11
76.300000
21
700.300000
0
LINE
8
Layer 1
10
76.300000
20
700.300000
11
76.200000
21
700.200000
0
LINE
8
Layer 1
10
76.200000
20
700.200000
11
76.200000
21
695.300000
0
LINE
8
Layer 1
10
76.200000
20
695.300000
11
76.200000
21
695.300000
0
LINE
8
Layer 1
10
76.200000
20
695.300000
11
66.400000
21
695.300000
0
LINE
8
Layer 1
10
66.400000
20
695.300000
11
66.362500
21
695.262500
0
LINE
8
Layer 1
10
66.362500
20
695.262500
11
66.400000
21
695.300000
0
LINE
8
Layer 1
10
66.400000
20
695.300000
11
66.400000
21
700.200000
0
LINE
8
Layer 1
10
66.400000
20
700.200000
11
66.300000
21
700.300000
0
LINE
8
Layer 1
10
66.300000
20
700.300000
11
56.300000
21
700.300000
0
LINE
8
Layer 1
10
56.300000
20
700.300000
11
56.200000
21
700.200000
0
LINE
8
Layer 1
10
56.200000
20
700.200000
11
56.200000
21
695.300000
0
LINE
8
Layer 1
10
56.200000
20
695.300000
11
56.200000
21
695.300000
0
LINE
8
Layer 1
10
56.200000
20
695.300000
11
46.400000
21
695.300000
0
LINE
8
Layer 1
10
46.400000
20
695.300000
11
46.362500
21
695.262500
0
LINE
8
Layer 1
10
46.362500
20
695.262500
11
46.400000
21
695.300000
0
LINE
8
Layer 1
10
46.400000
20
695.300000
11
46.400000
21
700.200000
0
LINE
8
Layer 1
10
46.400000
20
700.200000
11
46.300000
21
700.300000
0
LINE
8
Layer 1
10
46.300000
20
700.300000
11
36.300000
21
700.300000
0
LINE
8
Layer 1
10
36.300000
20
700.300000
11
36.200000
21
700.200000
0
LINE
8
Layer 1
10
36.200000
20
700.200000
11
36.200000
21
695.300000
0
LINE
8
Layer 1
10
36.200000
20
695.300000
11
36.200000
21
695.300000
0
LINE
8
Layer 1
10
36.200000
20
695.300000
11
23.800000
21
695.300000
0
LINE
8
Layer 1
10
23.800000
20
695.300000
11
23.700000
21
695.200000
0
LINE
8
Layer 1
10
23.700000
20
695.200000
11
23.700000
21
684.300000
0
LINE
8
Layer 1
10
23.700000
20
684.300000
11
23.737500
21
684.262500
0
LINE
8
Layer 1
10
23.737500
20
684.262500
11
23.700000
21
684.300000
0
LINE
8
Layer 1
10
23.700000
20
684.300000
11
18.800000
21
684.300000
0
LINE
8
Layer 1
10
18.800000
20
684.300000
11
18.700000
21
684.200000
0
LINE
8
Layer 1
10
18.700000
20
684.200000
11
18.700000
21
674.200000
0
LINE
8
Layer 1
10
18.700000
20
674.200000
11
18.800000
21
674.100000
0
LINE
8
Layer 1
10
18.800000
20
674.100000
11
23.700000
21
674.100000
0
LINE
8
Layer 1
10
23.700000
20
674.100000
11
23.737500
21
674.137500
0
LINE
8
Layer 1
10
23.737500
20
674.137500
11
23.700000
21
674.100000
0
LINE
8
Layer 1
10
23.700000
20
674.100000
11
23.700000
21
664.300000
0
LINE
8
Layer 1
10
23.700000
20
664.300000
11
23.737500
21
664.262500
0
LINE
8
Layer 1
10
23.737500
20
664.262500
11
23.700000
21
664.300000
0
LINE
8
Layer 1
10
23.700000
20
664.300000
11
18.800000
21
664.300000
0
LINE
8
Layer 1
10
18.800000
20
664.300000
11
18.700000
21
664.200000
0
LINE
8
Layer 1
10
18.700000
20
664.200000
11
18.700000
21
654.200000
0
LINE
8
Layer 1
10
18.700000
20
654.200000
11
18.800000
21
654.100000
0
LINE
8
Layer 1
10
18.800000
20
654.100000
11
23.700000
21
654.100000
0
LINE
8
Layer 1
10
23.700000
20
654.100000
11
23.737500
21
654.137500
0
LINE
8
Layer 1
10
23.737500
20
654.137500
11
23.700000
21
654.100000
0
LINE
8
Layer 1
10
23.700000
20
654.100000
11
23.700000
21
644.300000
0
LINE
8
Layer 1
10
23.700000
20
644.300000
11
23.737500
21
644.262500
0
LINE
8
Layer 1
10
23.737500
20
644.262500
11
23.700000
21
644.300000
0
LINE
8
Layer 1
10
23.700000
20
644.300000
11
18.800000
21
644.300000
0
LINE
8
Layer 1
10
18.800000
20
644.300000
11
18.700000
21
644.200000
0
LINE
8
Layer 1
10
18.700000
20
644.200000
11
18.700000
21
634.200000
0
LINE
8
Layer 1
10
18.700000
20
634.200000
11
18.800000
21
634.100000
0
LINE
8
Layer 1
10
18.800000
20
634.100000
11
23.700000
21
634.100000
0
LINE
8
Layer 1
10
23.700000
20
634.100000
11
23.737500
21
634.137500
0
LINE
8
Layer 1
10
23.737500
20
634.137500
11
23.700000
21
634.100000
0
LINE
8
Layer 1
10
23.700000
20
634.100000
11
23.700000
21
624.300000
0
LINE
8
Layer 1
10
23.700000
20
624.300000
11
23.737500
21
624.262500
0
LINE
8
Layer 1
10
23.737500
20
624.262500
11
23.700000
21
624.300000
0
LINE
8
Layer 1
10
23.700000
20
624.300000
11
18.800000
21
624.300000
0
LINE
8
Layer 1
10
18.800000
20
624.300000
11
18.700000
21
624.200000
0
LINE
8
Layer 1
10
18.700000
20
624.200000
11
18.700000
21
614.200000
0
LINE
8
Layer 1
10
18.700000
20
614.200000
11
18.800000
21
614.100000
0
LINE
8
Layer 1
10
18.800000
20
614.100000
11
23.700000
21
614.100000
0
LINE
8
Layer 1
10
23.700000
20
614.100000
11
23.737500
21
614.137500
0
LINE
8
Layer 1
10
23.737500
20
614.137500
11
23.700000
21
614.100000
0
LINE
8
Layer 1
10
23.700000
20
614.100000
11
23.700000
21
604.300000
0
LINE
8
Layer 1
10
23.700000
20
604.300000
11
23.737500
21
604.262500
0
LINE
8
Layer 1
10
23.737500
20
604.262500
11
23.700000
21
604.300000
0
LINE
8
Layer 1
10
23.700000
20
604.300000
11
18.800000
21
604.300000
0
LINE
8
Layer 1
10
18.800000
20
604.300000
11
18.700000
21
604.200000
0
LINE
8
Layer 1
10
18.700000
20
604.200000
11
18.700000
21
594.200000
0
LINE
8
Layer 1
10
18.700000
20
594.200000
11
18.800000
21
594.100000
0
LINE
8
Layer 1
10
18.800000
20
594.100000
11
23.700000
21
594.100000
0
LINE
8
Layer 1
10
23.700000
20
594.100000
11
23.737500
21
594.137500
0
LINE
8
Layer 1
10
23.737500
20
594.137500
11
23.700000
21
594.100000
0
LINE
8
Layer 1
10
23.700000
20
594.100000
11
23.700000
21
584.300000
0
LINE
8
Layer 1
10
23.700000
20
584.300000
11
23.737500
21
584.262500
0
LINE
8
Layer 1
10
23.737500
20
584.262500
11
23.700000
21
584.300000
0
LINE
8
Layer 1
10
23.700000
20
584.300000
11
18.800000
21
584.300000
0
LINE
8
Layer 1
10
18.800000
20
584.300000
11
18.700000
21
584.200000
0
LINE
8
Layer 1
10
18.700000
20
584.200000
11
18.700000
21
574.200000
0
LINE
8
Layer 1
10
18.700000
20
574.200000
11
18.800000
21
574.100000
0
LINE
8
Layer 1
10
18.800000
20
574.100000
11
23.700000
21
574.100000
0
LINE
8
Layer 1
10
23.700000
20
574.100000
11
23.737500
21
574.137500
0
LINE
8
Layer 1
10
23.737500
20
574.137500
11
23.700000
21
574.100000
0
LINE
8
Layer 1
10
23.700000
20
574.100000
11
23.700000
21
564.300000
0
LINE
8
Layer 1
10
23.700000
20
564.300000
11
23.737500
21
564.262500
0
LINE
8
Layer 1
10
23.737500
20
564.262500
11
23.700000
21
564.300000
0
LINE
8
Layer 1
10
23.700000
20
564.300000
11
18.800000
21
564.300000
0
LINE
8
Layer 1
10
18.800000
20
564.300000
11
18.700000
21
564.200000
0
LINE
8
Layer 1
10
18.700000
20
564.200000
11
18.700000
21
554.200000
0
LINE
8
Layer 1
10
18.700000
20
554.200000
11
18.800000
21
554.100000
0
LINE
8
Layer 1
10
18.800000
20
554.100000
11
23.700000
21
554.100000
0
LINE
8
Layer 1
10
23.700000
20
554.100000
11
23.737500
21
554.137500
0
LINE
8
Layer 1
10
23.737500
20
554.137500
11
23.700000
21
554.100000
0
LINE
8
Layer 1
10
23.700000
20
554.100000
11
23.700000
21
544.300000
0
LINE
8
Layer 1
10
23.700000
20
544.300000
11
23.737500
21
544.262500
0
LINE
8
Layer 1
10
23.737500
20
544.262500
11
23.700000
21
544.300000
0
LINE
8
Layer 1
10
23.700000
20
544.300000
11
18.800000
21
544.300000
0
LINE
8
Layer 1
10
18.800000
20
544.300000
11
18.700000
21
544.200000
0
LINE
8
Layer 1
10
18.700000
20
544.200000
11
18.700000
21
534.200000
0
LINE
8
Layer 1
10
18.700000
20
534.200000
11
18.800000
21
534.100000
0
LINE
8
Layer 1
10
18.800000
20
534.100000
11
23.700000
21
534.100000
0
LINE
8
Layer 1
10
23.700000
20
534.100000
11
23.737500
21
534.137500
0
LINE
8
Layer 1
10
23.737500
20
534.137500
11
23.700000
21
534.100000
0
LINE
8
Layer 1
10
23.700000
20
534.100000
11
23.700000
21
524.300000
0
LINE
8
Layer 1
10
23.700000
20
524.300000
11
23.737500
21
524.262500
0
LINE
8
Layer 1
10
23.737500
20
524.262500
11
23.700000
21
524.300000
0
LINE
8
Layer 1
10
23.700000
20
524.300000
11
18.800000
21
524.300000
0
LINE
8
Layer 1
10
18.800000
20
524.300000
11
18.700000
21
524.200000
0
LINE
8
Layer 1
10
18.700000
20
524.200000
11
18.700000
21
514.200000
0
LINE
8
Layer 1
10
18.700000
20
514.200000
11
18.800000
21
514.100000
0
LINE
8
Layer 1
10
18.800000
20
514.100000
11
23.700000
21
514.100000
0
LINE
8
Layer 1
10
23.700000
20
514.100000
11
23.737500
21
514.137500
0
LINE
8
Layer 1
10
23.737500
20
514.137500
11
23.700000
21
514.100000
0
LINE
8
Layer 1
10
23.700000
20
514.100000
11
23.700000
21
504.300000
0
LINE
8
Layer 1
10
23.700000
20
504.300000
11
23.737500
21
504.262500
0
LINE
8
Layer 1
10
23.737500
20
504.262500
11
23.700000
21
504.300000
0
LINE
8
Layer 1
10
23.700000
20
504.300000
11
18.800000
21
504.300000
0
LINE
8
Layer 1
10
18.800000
20
504.300000
11
18.700000
21
504.200000
0
LINE
8
Layer 1
10
18.700000
20
504.200000
11
18.700000
21
494.200000
0
LINE
8
Layer 1
10
18.700000
20
494.200000
11
18.800000
21
494.100000
0
LINE
8
Layer 1
10
18.800000
20
494.100000
11
23.700000
21
494.100000
0
LINE
8
Layer 1
10
23.700000
20
494.100000
11
23.737500
21
494.137500
0
LINE
8
Layer 1
10
23.737500
20
494.137500
11
23.700000
21
494.100000
0
LINE
8
Layer 1
10
23.700000
20
494.100000
11
23.700000
21
484.300000
0
LINE
8
Layer 1
10
23.700000
20
484.300000
11
23.737500
21
484.262500
0
LINE
8
Layer 1
10
23.737500
20
484.262500
11
23.700000
21
484.300000
0
LINE
8
Layer 1
10
23.700000
20
484.300000
11
18.800000
21
484.300000
0
LINE
8
Layer 1
10
18.800000
20
484.300000
11
18.700000
21
484.200000
0
LINE
8
Layer 1
10
18.700000
20
484.200000
11
18.700000
21
474.200000
0
LINE
8
Layer 1
10
18.700000
20
474.200000
11
18.800000
21
474.100000
0
LINE
8
Layer 1
10
18.800000
20
474.100000
11
23.700000
21
474.100000
0
LINE
8
Layer 1
10
23.700000
20
474.100000
11
23.737500
21
474.137500
0
LINE
8
Layer 1
10
23.737500
20
474.137500
11
23.700000
21
474.100000
0
LINE
8
Layer 1
10
23.700000
20
474.100000
11
23.700000
21
464.300000
0
LINE
8
Layer 1
10
23.700000
20
464.300000
11
23.737500
21
464.262500
0
LINE
8
Layer 1
10
23.737500
20
464.262500
11
23.700000
21
464.300000
0
LINE
8
Layer 1
10
23.700000
20
464.300000
11
18.800000
21
464.300000
0
LINE
8
Layer 1
10
18.800000
20
464.300000
11
18.700000
21
464.200000
0
LINE
8
Layer 1
10
18.700000
20
464.200000
11
18.700000
21
454.200000
0
LINE
8
Layer 1
10
18.700000
20
454.200000
11
18.800000
21
454.100000
0
LINE
8
Layer 1
10
18.800000
20
454.100000
11
23.700000
21
454.100000
0
LINE
8
Layer 1
10
23.700000
20
454.100000
11
23.737500
21
454.137500
0
LINE
8
Layer 1
10
23.737500
20
454.137500
11
23.700000
21
454.100000
0
LINE
8
Layer 1
10
23.700000
20
454.100000
11
23.700000
21
443.200000
0
LINE
8
Layer 1
10
23.700000
20
443.200000
11
23.800000
21
443.100000
0
LINE
8
Layer 1
10
23.800000
20
443.100000
11
23.800000
21
443.100000
0
LINE
8
Layer 1
10
231.500000
20
22.700000
11
242.500000
21
22.700000
0
LINE
8
Layer 1
10
242.500000
20
22.700000
11
242.600000
21
22.800000
0
LINE
8
Layer 1
10
242.600000
20
22.800000
11
242.600000
21
27.700000
0
LINE
8
Layer 1
10
242.600000
20
27.700000
11
242.562500
21
27.737500
0
LINE
8
Layer 1
10
242.562500
20
27.737500
11
242.600000
21
27.700000
0
LINE
8
Layer 1
10
242.600000
20
27.700000
11
252.400000
21
27.700000
0
LINE
8
Layer 1
10
252.400000
20
27.700000
11
252.437500
21
27.737500
0
LINE
8
Layer 1
10
252.437500
20
27.737500
11
252.400000
21
27.700000
0
LINE
8
Layer 1
10
252.400000
20
27.700000
11
252.400000
21
22.800000
0
LINE
8
Layer 1
10
252.400000
20
22.800000
11
252.500000
21
22.700000
0
LINE
8
Layer 1
10
252.500000
20
22.700000
11
262.500000
21
22.700000
0
LINE
8
Layer 1
10
262.500000
20
22.700000
11
262.600000
21
22.800000
0
LINE
8
Layer 1
10
262.600000
20
22.800000
11
262.600000
21
27.700000
0
LINE
8
Layer 1
10
262.600000
20
27.700000
11
262.562500
21
27.737500
0
LINE
8
Layer 1
10
262.562500
20
27.737500
11
262.600000
21
27.700000
0
LINE
8
Layer 1
10
262.600000
20
27.700000
11
272.400000
21
27.700000
0
LINE
8
Layer 1
10
272.400000
20
27.700000
11
272.437500
21
27.737500
0
LINE
8
Layer 1
10
272.437500
20
27.737500
11
272.400000
21
27.700000
0
LINE
8
Layer 1
10
272.400000
20
27.700000
11
272.400000
21
22.800000
0
LINE
8
Layer 1
10
272.400000
20
22.800000
11
272.500000
21
22.700000
0
LINE
8
Layer 1
10
272.500000
20
22.700000
11
282.500000
21
22.700000
0
LINE
8
Layer 1
10
282.500000
20
22.700000
11
282.600000
21
22.800000
0
LINE
8
Layer 1
10
282.600000
20
22.800000
11
282.600000
21
27.700000
0
LINE
8
Layer 1
10
282.600000
20
27.700000
11
282.562500
21
27.737500
0
LINE
8
Layer 1
10
282.562500
20
27.737500
11
282.600000
21
27.700000
0
LINE
8
Layer 1
10
282.600000
20
27.700000
11
292.400000
21
27.700000
0
LINE
8
Layer 1
10
292.400000
20
27.700000
11
292.437500
21
27.737500
0
LINE
8
Layer 1
10
292.437500
20
27.737500
11
292.400000
21
27.700000
0
LINE
8
Layer 1
10
292.400000
20
27.700000
11
292.400000
21
22.800000
0
LINE
8
Layer 1
10
292.400000
20
22.800000
11
292.500000
21
22.700000
0
LINE
8
Layer 1
10
292.500000
20
22.700000
11
302.500000
21
22.700000
0
LINE
8
Layer 1
10
302.500000
20
22.700000
11
302.600000
21
22.800000
0
LINE
8
Layer 1
10
302.600000
20
22.800000
11
302.600000
21
27.700000
0
LINE
8
Layer 1
10
302.600000
20
27.700000
11
302.562500
21
27.737500
0
LINE
8
Layer 1
10
302.562500
20
27.737500
11
302.600000
21
27.700000
0
LINE
8
Layer 1
10
302.600000
20
27.700000
11
312.400000
21
27.700000
0
LINE
8
Layer 1
10
312.400000
20
27.700000
11
312.437500
21
27.737500
0
LINE
8
Layer 1
10
312.437500
20
27.737500
11
312.400000
21
27.700000
0
LINE
8
Layer 1
10
312.400000
20
27.700000
11
312.400000
21
22.800000
0
LINE
8
Layer 1
10
312.400000
20
22.800000
11
312.500000
21
22.700000
0
LINE
8
Layer 1
10
312.500000
20
22.700000
11
322.500000
21
22.700000
0
LINE
8
Layer 1
10
322.500000
20
22.700000
11
322.600000
21
22.800000
0
LINE
8
Layer 1
10
322.600000
20
22.800000
11
322.600000
21
27.700000
0
LINE
8
Layer 1
10
322.600000
20
27.700000
11
322.562500
21
27.737500
0
LINE
8
Layer 1
10
322.562500
20
27.737500
11
322.600000
21
27.700000
0
LINE
8
Layer 1
10
322.600000
20
27.700000
11
332.400000
21
27.700000
0
LINE
8
Layer 1
10
332.400000
20
27.700000
11
332.437500
21
27.737500
0
LINE
8
Layer 1
10
332.437500
20
27.737500
11
332.400000
21
27.700000
0
LINE
8
Layer 1
10
332.400000
20
27.700000
11
332.400000
21
22.800000
0
LINE
8
Layer 1
10
332.400000
20
22.800000
11
332.500000
21
22.700000
0
LINE
8
Layer 1
10
332.500000
20
22.700000
11
342.500000
21
22.700000
0
LINE
8
Layer 1
10
342.500000
20
22.700000
11
342.600000
21
22.800000
0
LINE
8
Layer 1
10
342.600000
20
22.800000
11
342.600000
21
27.700000
0
LINE
8
Layer 1
10
342.600000
20
27.700000
11
342.562500
21
27.737500
0
LINE
8
Layer 1
10
342.562500
20
27.737500
11
342.600000
21
27.700000
0
LINE
8
Layer 1
10
342.600000
20
27.700000
11
352.400000
21
27.700000
0
LINE
8
Layer 1
10
352.400000
20
27.700000
11
352.437500
21
27.737500
0
LINE
8
Layer 1
10
352.437500
20
27.737500
11
352.400000
21
27.700000
0
LINE
8
Layer 1
10
352.400000
20
27.700000
11
352.400000
21
22.800000
0
LINE
8
Layer 1
10
352.400000
20
22.800000
11
352.500000
21
22.700000
0
LINE
8
Layer 1
10
352.500000
20
22.700000
11
362.500000
21
22.700000
0
LINE
8
Layer 1
10
362.500000
20
22.700000
11
362.600000
21
22.800000
0
LINE
8
Layer 1
10
362.600000
20
22.800000
11
362.600000
21
27.700000
0
LINE
8
Layer 1
10
362.600000
20
27.700000
11
362.562500
21
27.737500
0
LINE
8
Layer 1
10
362.562500
20
27.737500
11
362.600000
21
27.700000
0
LINE
8
Layer 1
10
362.600000
20
27.700000
11
372.400000
21
27.700000
0
LINE
8
Layer 1
10
372.400000
20
27.700000
11
372.437500
21
27.737500
0
LINE
8
Layer 1
10
372.437500
20
27.737500
11
372.400000
21
27.700000
0
LINE
8
Layer 1
10
372.400000
20
27.700000
11
372.400000
21
22.800000
0
LINE
8
Layer 1
10
372.400000
20
22.800000
11
372.500000
21
22.700000
0
LINE
8
Layer 1
10
372.500000
20
22.700000
11
382.500000
21
22.700000
0
LINE
8
Layer 1
10
382.500000
20
22.700000
11
382.600000
21
22.800000
0
LINE
8
Layer 1
10
382.600000
20
22.800000
11
382.600000
21
27.700000
0
LINE
8
Layer 1
10
382.600000
20
27.700000
11
382.562500
21
27.737500
0
LINE
8
Layer 1
10
382.562500
20
27.737500
11
382.600000
21
27.700000
0
LINE
8
Layer 1
10
382.600000
20
27.700000
11
392.400000
21
27.700000
0
LINE
8
Layer 1
10
392.400000
20
27.700000
11
392.437500
21
27.737500
0
LINE
8
Layer 1
10
392.437500
20
27.737500
11
392.400000
21
27.700000
0
LINE
8
Layer 1
10
392.400000
20
27.700000
11
392.400000
21
22.800000
0
LINE
8
Layer 1
10
392.400000
20
22.800000
11
392.500000
21
22.700000
0
LINE
8
Layer 1
10
392.500000
20
22.700000
11
402.500000
21
22.700000
0
LINE
8
Layer 1
10
402.500000
20
22.700000
11
402.600000
21
22.800000
0
LINE
8
Layer 1
10
402.600000
20
22.800000
11
402.600000
21
27.700000
0
LINE
8
Layer 1
10
402.600000
20
27.700000
11
402.562500
21
27.737500
0
LINE
8
Layer 1
10
402.562500
20
27.737500
11
402.600000
21
27.700000
0
LINE
8
Layer 1
10
402.600000
20
27.700000
11
412.400000
21
27.700000
0
LINE
8
Layer 1
10
412.400000
20
27.700000
11
412.437500
21
27.737500
0
LINE
8
Layer 1
10
412.437500
20
27.737500
11
412.400000
21
27.700000
0
LINE
8
Layer 1
10
412.400000
20
27.700000
11
412.400000
21
22.800000
0
LINE
8
Layer 1
10
412.400000
20
22.800000
11
412.500000
21
22.700000
0
LINE
8
Layer 1
10
412.500000
20
22.700000
11
422.500000
21
22.700000
0
LINE
8
Layer 1
10
422.500000
20
22.700000
11
422.600000
21
22.800000
0
LINE
8
Layer 1
10
422.600000
20
22.800000
11
422.600000
21
27.700000
0
LINE
8
Layer 1
10
422.600000
20
27.700000
11
422.562500
21
27.737500
0
LINE
8
Layer 1
10
422.562500
20
27.737500
11
422.600000
21
27.700000
0
LINE
8
Layer 1
10
422.600000
20
27.700000
11
432.400000
21
27.700000
0
LINE
8
Layer 1
10
432.400000
20
27.700000
11
432.437500
21
27.737500
0
LINE
8
Layer 1
10
432.437500
20
27.737500
11
432.400000
21
27.700000
0
LINE
8
Layer 1
10
432.400000
20
27.700000
11
432.400000
21
22.800000
0
LINE
8
Layer 1
10
432.400000
20
22.800000
11
432.500000
21
22.700000
0
LINE
8
Layer 1
10
432.500000
20
22.700000
11
442.500000
21
22.700000
0
LINE
8
Layer 1
10
442.500000
20
22.700000
11
442.600000
21
22.800000
0
LINE
8
Layer 1
10
442.600000
20
22.800000
11
442.600000
21
27.700000
0
LINE
8
Layer 1
10
442.600000
20
27.700000
11
442.562500
21
27.737500
0
LINE
8
Layer 1
10
442.562500
20
27.737500
11
442.600000
21
27.700000
0
LINE
8
Layer 1
10
442.600000
20
27.700000
11
452.400000
21
27.700000
0
LINE
8
Layer 1
10
452.400000
20
27.700000
11
452.437500
21
27.737500
0
LINE
8
Layer 1
10
452.437500
20
27.737500
11
452.400000
21
27.700000
0
LINE
8
Layer 1
10
452.400000
20
27.700000
11
452.400000
21
22.800000
0
LINE
8
Layer 1
10
452.400000
20
22.800000
11
452.500000
21
22.700000
0
LINE
8
Layer 1
10
452.500000
20
22.700000
11
462.500000
21
22.700000
0
LINE
8
Layer 1
10
462.500000
20
22.700000
11
462.600000
21
22.800000
0
LINE
8
Layer 1
10
462.600000
20
22.800000
11
462.600000
21
27.700000
0
LINE
8
Layer 1
10
462.600000
20
27.700000
11
462.562500
21
27.737500
0
LINE
8
Layer 1
10
462.562500
20
27.737500
11
462.600000
21
27.700000
0
LINE
8
Layer 1
10
462.600000
20
27.700000
11
472.400000
21
27.700000
0
LINE
8
Layer 1
10
472.400000
20
27.700000
11
472.437500
21
27.737500
0
LINE
8
Layer 1
10
472.437500
20
27.737500
11
472.400000
21
27.700000
0
LINE
8
Layer 1
10
472.400000
20
27.700000
11
472.400000
21
22.800000
0
LINE
8
Layer 1
10
472.400000
20
22.800000
11
472.500000
21
22.700000
0
LINE
8
Layer 1
10
472.500000
20
22.700000
11
483.500000
21
22.700000
0
LINE
8
Layer 1
10
483.500000
20
22.700000
11
483.600000
21
22.800000
0
LINE
8
Layer 1
10
483.600000
20
22.800000
11
483.600000
21
40.200000
0
LINE
8
Layer 1
10
483.600000
20
40.200000
11
483.562500
21
40.237500
0
LINE
8
Layer 1
10
483.562500
20
40.237500
11
483.600000
21
40.200000
0
LINE
8
Layer 1
10
483.600000
20
40.200000
11
488.500000
21
40.200000
0
LINE
8
Layer 1
10
488.500000
20
40.200000
11
488.600000
21
40.300000
0
LINE
8
Layer 1
10
488.600000
20
40.300000
11
488.600000
21
50.300000
0
LINE
8
Layer 1
10
488.600000
20
50.300000
11
488.500000
21
50.400000
0
LINE
8
Layer 1
10
488.500000
20
50.400000
11
483.600000
21
50.400000
0
LINE
8
Layer 1
10
483.600000
20
50.400000
11
483.562500
21
50.362500
0
LINE
8
Layer 1
10
483.562500
20
50.362500
11
483.600000
21
50.400000
0
LINE
8
Layer 1
10
483.600000
20
50.400000
11
483.600000
21
60.200000
0
LINE
8
Layer 1
10
483.600000
20
60.200000
11
483.562500
21
60.237500
0
LINE
8
Layer 1
10
483.562500
20
60.237500
11
483.600000
21
60.200000
0
LINE
8
Layer 1
10
483.600000
20
60.200000
11
488.500000
21
60.200000
0
LINE
8
Layer 1
10
488.500000
20
60.200000
11
488.600000
21
60.300000
0
LINE
8
Layer 1
10
488.600000
20
60.300000
11
488.600000
21
70.300000
0
LINE
8
Layer 1
10
488.600000
20
70.300000
11
488.500000
21
70.400000
0
LINE
8
Layer 1
10
488.500000
20
70.400000
11
483.600000
21
70.400000
0
LINE
8
Layer 1
10
483.600000
20
70.400000
11
483.562500
21
70.362500
0
LINE
8
Layer 1
10
483.562500
20
70.362500
11
483.600000
21
70.400000
0
LINE
8
Layer 1
10
483.600000
20
70.400000
11
483.600000
21
80.200000
0
LINE
8
Layer 1
10
483.600000
20
80.200000
11
483.562500
21
80.237500
0
LINE
8
Layer 1
10
483.562500
20
80.237500
11
483.600000
21
80.200000
0
LINE
8
Layer 1
10
483.600000
20
80.200000
11
488.500000
21
80.200000
0
LINE
8
Layer 1
10
488.500000
20
80.200000
11
488.600000
21
80.300000
0
LINE
8
Layer 1
10
488.600000
20
80.300000
11
488.600000
21
90.300000
0
LINE
8
Layer 1
10
488.600000
20
90.300000
11
488.500000
21
90.400000
0
LINE
8
Layer 1
10
488.500000
20
90.400000
11
483.600000
21
90.400000
0
LINE
8
Layer 1
10
483.600000
20
90.400000
11
483.562500
21
90.362500
0
LINE
8
Layer 1
10
483.562500
20
90.362500
11
483.600000
21
90.400000
0
LINE
8
Layer 1
10
483.600000
20
90.400000
11
483.600000
21
100.200000
0
LINE
8
Layer 1
10
483.600000
20
100.200000
11
483.562500
21
100.237500
0
LINE
8
Layer 1
10
483.562500
20
100.237500
11
483.600000
21
100.200000
0
LINE
8
Layer 1
10
483.600000
20
100.200000
11
488.500000
21
100.200000
0
LINE
8
Layer 1
10
488.500000
20
100.200000
11
488.600000
21
100.300000
0
LINE
8
Layer 1
10
488.600000
20
100.300000
11
488.600000
21
110.300000
0
LINE
8
Layer 1
10
488.600000
20
110.300000
11
488.500000
21
110.400000
0
LINE
8
Layer 1
10
488.500000
20
110.400000
11
483.600000
21
110.400000
0
LINE
8
Layer 1
10
483.600000
20
110.400000
11
483.562500
21
110.362500
0
LINE
8
Layer 1
10
483.562500
20
110.362500
11
483.600000
21
110.400000
0
LINE
8
Layer 1
10
483.600000
20
110.400000
11
483.600000
21
120.200000
0
LINE
8
Layer 1
10
483.600000
20
120.200000
11
483.562500
21
120.237500
0
LINE
8
Layer 1
10
483.562500
20
120.237500
11
483.600000
21
120.200000
0
LINE
8
Layer 1
10
483.600000
20
120.200000
11
488.500000
21
120.200000
0
LINE
8
Layer 1
10
488.500000
20
120.200000
11
488.600000
21
120.300000
0
LINE
8
Layer 1
10
488.600000
20
120.300000
11
488.600000
21
130.300000
0
LINE
8
Layer 1
10
488.600000
20
130.300000
11
488.500000
21
130.400000
0
LINE
8
Layer 1
10
488.500000
20
130.400000
11
483.600000
21
130.400000
0
LINE
8
Layer 1
10
483.600000
20
130.400000
11
483.562500
21
130.362500
0
LINE
8
Layer 1
10
483.562500
20
130.362500
11
483.600000
21
130.400000
0
LINE
8
Layer 1
10
483.600000
20
130.400000
11
483.600000
21
140.200000
0
LINE
8
Layer 1
10
483.600000
20
140.200000
11
483.562500
21
140.237500
0
LINE
8
Layer 1
10
483.562500
20
140.237500
11
483.600000
21
140.200000
0
LINE
8
Layer 1
10
483.600000
20
140.200000
11
488.500000
21
140.200000
0
LINE
8
Layer 1
10
488.500000
20
140.200000
11
488.600000
21
140.300000
0
LINE
8
Layer 1
10
488.600000
20
140.300000
11
488.600000
21
150.300000
0
LINE
8
Layer 1
10
488.600000
20
150.300000
11
488.500000
21
150.400000
0
LINE
8
Layer 1
10
488.500000
20
150.400000
11
483.600000
21
150.400000
0
LINE
8
Layer 1
10
483.600000
20
150.400000
11
483.562500
21
150.362500
0
LINE
8
Layer 1
10
483.562500
20
150.362500
11
483.600000
21
150.400000
0
LINE
8
Layer 1
10
483.600000
20
150.400000
11
483.600000
21
160.200000
0
LINE
8
Layer 1
10
483.600000
20
160.200000
11
483.562500
21
160.237500
0
LINE
8
Layer 1
10
483.562500
20
160.237500
11
483.600000
21
160.200000
0
LINE
8
Layer 1
10
483.600000
20
160.200000
11
488.500000
21
160.200000
0
LINE
8
Layer 1
10
488.500000
20
160.200000
11
488.600000
21
160.300000
0
LINE
8
Layer 1
10
488.600000
20
160.300000
11
488.600000
21
170.300000
0
LINE
8
Layer 1
10
488.600000
20
170.300000
11
488.500000
21
170.400000
0
LINE
8
Layer 1
10
488.500000
20
170.400000
11
483.600000
21
170.400000
0
LINE
8
Layer 1
10
483.600000
20
170.400000
11
483.562500
21
170.362500
0
LINE
8
Layer 1
10
483.562500
20
170.362500
11
483.600000
21
170.400000
0
LINE
8
Layer 1
10
483.600000
20
170.400000
11
483.600000
21
180.200000
0
LINE
8
Layer 1
10
483.600000
20
180.200000
11
483.562500
21
180.237500
0
LINE
8
Layer 1
10
483.562500
20
180.237500
11
483.600000
21
180.200000
0
LINE
8
Layer 1
10
483.600000
20
180.200000
11
488.500000
21
180.200000
0
LINE
8
Layer 1
10
488.500000
20
180.200000
11
488.600000
21
180.300000
0
LINE
8
Layer 1
10
488.600000
20
180.300000
11
488.600000
21
190.300000
0
LINE
8
Layer 1
10
488.600000
20
190.300000
11
488.500000
21
190.400000
0
LINE
8
Layer 1
10
488.500000
20
190.400000
11
483.600000
21
190.400000
0
LINE
8
Layer 1
10
483.600000
20
190.400000
11
483.562500
21
190.362500
0
LINE
8
Layer 1
10
483.562500
20
190.362500
11
483.600000
21
190.400000
0
LINE
8
Layer 1
10
483.600000
20
190.400000
11
483.600000
21
200.200000
0
LINE
8
Layer 1
10
483.600000
20
200.200000
11
483.562500
21
200.237500
0
LINE
8
Layer 1
10
483.562500
20
200.237500
11
483.600000
21
200.200000
0
LINE
8
Layer 1
10
483.600000
20
200.200000
11
488.500000
21
200.200000
0
LINE
8
Layer 1
10
488.500000
20
200.200000
11
488.600000
21
200.300000
0
LINE
8
Layer 1
10
488.600000
20
200.300000
11
488.600000
21
210.300000
0
LINE
8
Layer 1
10
488.600000
20
210.300000
11
488.500000
21
210.400000
0
LINE
8
Layer 1
10
488.500000
20
210.400000
11
483.600000
21
210.400000
0
LINE
8
Layer 1
10
483.600000
20
210.400000
11
483.562500
21
210.362500
0
LINE
8
Layer 1
10
483.562500
20
210.362500
11
483.600000
21
210.400000
0
LINE
8
Layer 1
10
483.600000
20
210.400000
11
483.600000
21
227.800000
0
LINE
8
Layer 1
10
483.600000
20
227.800000
11
483.500000
21
227.900000
0
LINE
8
Layer 1
10
483.500000
20
227.900000
11
231.500000
21
227.900000
0
LINE
8
Layer 1
10
231.500000
20
227.900000
11
231.400000
21
227.800000
0
LINE
8
Layer 1
10
231.400000
20
227.800000
11
231.400000
21
210.400000
0
LINE
8
Layer 1
10
231.400000
20
210.400000
11
231.400000
21
210.400000
0
LINE
8
Layer 1
10
231.400000
20
210.400000
11
226.500000
21
210.400000
0
LINE
8
Layer 1
10
226.500000
20
210.400000
11
226.400000
21
210.300000
0
LINE
8
Layer 1
10
226.400000
20
210.300000
11
226.400000
21
200.300000
0
LINE
8
Layer 1
10
226.400000
20
200.300000
11
226.500000
21
200.200000
0
LINE
8
Layer 1
10
226.500000
20
200.200000
11
231.400000
21
200.200000
0
LINE
8
Layer 1
10
231.400000
20
200.200000
11
231.437500
21
200.237500
0
LINE
8
Layer 1
10
231.437500
20
200.237500
11
231.400000
21
200.200000
0
LINE
8
Layer 1
10
231.400000
20
200.200000
11
231.400000
21
190.400000
0
LINE
8
Layer 1
10
231.400000
20
190.400000
11
231.400000
21
190.400000
0
LINE
8
Layer 1
10
231.400000
20
190.400000
11
226.500000
21
190.400000
0
LINE
8
Layer 1
10
226.500000
20
190.400000
11
226.400000
21
190.300000
0
LINE
8
Layer 1
10
226.400000
20
190.300000
11
226.400000
21
180.300000
0
LINE
8
Layer 1
10
226.400000
20
180.300000
11
226.500000
21
180.200000
0
LINE
8
Layer 1
10
226.500000
20
180.200000
11
231.400000
21
180.200000
0
LINE
8
Layer 1
10
231.400000
20
180.200000
11
231.437500
21
180.237500
0
LINE
8
Layer 1
10
231.437500
20
180.237500
11
231.400000
21
180.200000
0
LINE
8
Layer 1
10
231.400000
20
180.200000
11
231.400000
21
170.400000
0
LINE
8
Layer 1
10
231.400000
20
170.400000
11
231.400000
21
170.400000
0
LINE
8
Layer 1
10
231.400000
20
170.400000
11
226.500000
21
170.400000
0
LINE
8
Layer 1
10
226.500000
20
170.400000
11
226.400000
21
170.300000
0
LINE
8
Layer 1
10
226.400000
20
170.300000
11
226.400000
21
160.300000
0
LINE
8
Layer 1
10
226.400000
20
160.300000
11
226.500000
21
160.200000
0
LINE
8
Layer 1
10
226.500000
20
160.200000
11
231.400000
21
160.200000
0
LINE
8
Layer 1
10
231.400000
20
160.200000
11
231.437500
21
160.237500
0
LINE
8
Layer 1
10
231.437500
20
160.237500
11
231.400000
21
160.200000
0
LINE
8
Layer 1
10
231.400000
20
160.200000
11
231.400000
21
150.400000
0
LINE
8
Layer 1
10
231.400000
20
150.400000
11
231.400000
21
150.400000
0
LINE
8
Layer 1
10
231.400000
20
150.400000
11
226.500000
21
150.400000
0
LINE
8
Layer 1
10
226.500000
20
150.400000
11
226.400000
21
150.300000
0
LINE
8
Layer 1
10
226.400000
20
150.300000
11
226.400000
21
140.300000
0
LINE
8
Layer 1
10
226.400000
20
140.300000
11
226.500000
21
140.200000
0
LINE
8
Layer 1
10
226.500000
20
140.200000
11
231.400000
21
140.200000
0
LINE
8
Layer 1
10
231.400000
20
140.200000
11
231.437500
21
140.237500
0
LINE
8
Layer 1
10
231.437500
20
140.237500
11
231.400000
21
140.200000
0
LINE
8
Layer 1
10
231.400000
20
140.200000
11
231.400000
21
130.400000
0
LINE
8
Layer 1
10
231.400000
20
130.400000
11
231.400000
21
130.400000
0
LINE
8
Layer 1
10
231.400000
20
130.400000
11
226.500000
21
130.400000
0
LINE
8
Layer 1
10
226.500000
20
130.400000
11
226.400000
21
130.300000
0
LINE
8
Layer 1
10
226.400000
20
130.300000
11
226.400000
21
120.300000
0
LINE
8
Layer 1
10
226.400000
20
120.300000
11
226.500000
21
120.200000
0
LINE
8
Layer 1
10
226.500000
20
120.200000
11
231.400000
21
120.200000
0
LINE
8
Layer 1
10
231.400000
20
120.200000
11
231.400000
21
120.200000
0
LINE
8
Layer 1
10
231.400000
20
120.200000
11
231.400000
21
110.400000
0
LINE
8
Layer 1
10
231.400000
20
110.400000
11
231.437500
21
110.362500
0
LINE
8
Layer 1
10
231.437500
20
110.362500
11
231.400000
21
110.400000
0
LINE
8
Layer 1
10
231.400000
20
110.400000
11
226.500000
21
110.400000
0
LINE
8
Layer 1
10
226.500000
20
110.400000
11
226.400000
21
110.300000
0
LINE
8
Layer 1
10
226.400000
20
110.300000
11
226.400000
21
100.300000
0
LINE
8
Layer 1
10
226.400000
20
100.300000
11
226.500000
21
100.200000
0
LINE
8
Layer 1
10
226.500000
20
100.200000
11
231.400000
21
100.200000
0
LINE
8
Layer 1
10
231.400000
20
100.200000
11
231.400000
21
100.200000
0
LINE
8
Layer 1
10
231.400000
20
100.200000
11
231.400000
21
90.400000
0
LINE
8
Layer 1
10
231.400000
20
90.400000
11
231.437500
21
90.362500
0
LINE
8
Layer 1
10
231.437500
20
90.362500
11
231.400000
21
90.400000
0
LINE
8
Layer 1
10
231.400000
20
90.400000
11
226.500000
21
90.400000
0
LINE
8
Layer 1
10
226.500000
20
90.400000
11
226.400000
21
90.300000
0
LINE
8
Layer 1
10
226.400000
20
90.300000
11
226.400000
21
80.300000
0
LINE
8
Layer 1
10
226.400000
20
80.300000
11
226.500000
21
80.200000
0
LINE
8
Layer 1
10
226.500000
20
80.200000
11
231.400000
21
80.200000
0
LINE
8
Layer 1
10
231.400000
20
80.200000
11
231.400000
21
80.200000
0
LINE
8
Layer 1
10
231.400000
20
80.200000
11
231.400000
21
70.400000
0
LINE
8
Layer 1
10
231.400000
20
70.400000
11
231.437500
21
70.362500
0
LINE
8
Layer 1
10
231.437500
20
70.362500
11
231.400000
21
70.400000
0
LINE
8
Layer 1
10
231.400000
20
70.400000
11
226.500000
21
70.400000
0
LINE
8
Layer 1
10
226.500000
20
70.400000
11
226.400000
21
70.300000
0
LINE
8
Layer 1
10
226.400000
20
70.300000
11
226.400000
21
60.300000
0
LINE
8
Layer 1
10
226.400000
20
60.300000
11
226.500000
21
60.200000
0
LINE
8
Layer 1
10
226.500000
20
60.200000
11
231.400000
21
60.200000
0
LINE
8
Layer 1
10
231.400000
20
60.200000
11
231.400000
21
60.200000
0
LINE
8
Layer 1
10
231.400000
20
60.200000
11
231.400000
21
50.400000
0
LINE
8
Layer 1
10
231.400000
20
50.400000
11
231.437500
21
50.362500
0
LINE
8
Layer 1
10
231.437500
20
50.362500
11
231.400000
21
50.400000
0
LINE
8
Layer 1
10
231.400000
20
50.400000
11
226.500000
21
50.400000
0
LINE
8
Layer 1
10
226.500000
20
50.400000
11
226.400000
21
50.300000
0
LINE
8
Layer 1
10
226.400000
20
50.300000
11
226.400000
21
40.300000
0
LINE
8
Layer 1
10
226.400000
20
40.300000
11
226.500000
21
40.200000
0
LINE
8
Layer 1
10
226.500000
20
40.200000
11
231.400000
21
40.200000
0
LINE
8
Layer 1
10
231.400000
20
40.200000
11
231.400000
21
40.200000
0
LINE
8
Layer 1
10
231.400000
20
40.200000
11
231.400000
21
22.800000
0
LINE
8
Layer 1
10
231.400000
20
22.800000
11
231.500000
21
22.700000
0
LINE
8
Layer 1
10
231.500000
20
22.700000
11
231.500000
21
22.700000
0
LINE
8
Layer 1
10
231.500000
20
230.400000
11
242.500000
21
230.400000
0
LINE
8
Layer 1
10
242.500000
20
230.400000
11
242.600000
21
230.500000
0
LINE
8
Layer 1
10
242.600000
20
230.500000
11
242.600000
21
235.400000
0
LINE
8
Layer 1
10
242.600000
20
235.400000
11
242.600000
21
235.400000
0
LINE
8
Layer 1
10
242.600000
20
235.400000
11
252.400000
21
235.400000
0
LINE
8
Layer 1
10
252.400000
20
235.400000
11
252.400000
21
235.400000
0
LINE
8
Layer 1
10
252.400000
20
235.400000
11
252.400000
21
230.500000
0
LINE
8
Layer 1
10
252.400000
20
230.500000
11
252.500000
21
230.400000
0
LINE
8
Layer 1
10
252.500000
20
230.400000
11
262.500000
21
230.400000
0
LINE
8
Layer 1
10
262.500000
20
230.400000
11
262.600000
21
230.500000
0
LINE
8
Layer 1
10
262.600000
20
230.500000
11
262.600000
21
235.400000
0
LINE
8
Layer 1
10
262.600000
20
235.400000
11
262.562500
21
235.437500
0
LINE
8
Layer 1
10
262.562500
20
235.437500
11
262.600000
21
235.400000
0
LINE
8
Layer 1
10
262.600000
20
235.400000
11
272.400000
21
235.400000
0
LINE
8
Layer 1
10
272.400000
20
235.400000
11
272.437500
21
235.437500
0
LINE
8
Layer 1
10
272.437500
20
235.437500
11
272.400000
21
235.400000
0
LINE
8
Layer 1
10
272.400000
20
235.400000
11
272.400000
21
230.500000
0
LINE
8
Layer 1
10
272.400000
20
230.500000
11
272.500000
21
230.400000
0
LINE
8
Layer 1
10
272.500000
20
230.400000
11
282.500000
21
230.400000
0
LINE
8
Layer 1
10
282.500000
20
230.400000
11
282.600000
21
230.500000
0
LINE
8
Layer 1
10
282.600000
20
230.500000
11
282.600000
21
235.400000
0
LINE
8
Layer 1
10
282.600000
20
235.400000
11
282.562500
21
235.437500
0
LINE
8
Layer 1
10
282.562500
20
235.437500
11
282.600000
21
235.400000
0
LINE
8
Layer 1
10
282.600000
20
235.400000
11
292.400000
21
235.400000
0
LINE
8
Layer 1
10
292.400000
20
235.400000
11
292.437500
21
235.437500
0
LINE
8
Layer 1
10
292.437500
20
235.437500
11
292.400000
21
235.400000
0
LINE
8
Layer 1
10
292.400000
20
235.400000
11
292.400000
21
230.500000
0
LINE
8
Layer 1
10
292.400000
20
230.500000
11
292.500000
21
230.400000
0
LINE
8
Layer 1
10
292.500000
20
230.400000
11
302.500000
21
230.400000
0
LINE
8
Layer 1
10
302.500000
20
230.400000
11
302.600000
21
230.500000
0
LINE
8
Layer 1
10
302.600000
20
230.500000
11
302.600000
21
235.400000
0
LINE
8
Layer 1
10
302.600000
20
235.400000
11
302.562500
21
235.437500
0
LINE
8
Layer 1
10
302.562500
20
235.437500
11
302.600000
21
235.400000
0
LINE
8
Layer 1
10
302.600000
20
235.400000
11
312.400000
21
235.400000
0
LINE
8
Layer 1
10
312.400000
20
235.400000
11
312.437500
21
235.437500
0
LINE
8
Layer 1
10
312.437500
20
235.437500
11
312.400000
21
235.400000
0
LINE
8
Layer 1
10
312.400000
20
235.400000
11
312.400000
21
230.500000
0
LINE
8
Layer 1
10
312.400000
20
230.500000
11
312.500000
21
230.400000
0
LINE
8
Layer 1
10
312.500000
20
230.400000
11
322.500000
21
230.400000
0
LINE
8
Layer 1
10
322.500000
20
230.400000
11
322.600000
21
230.500000
0
LINE
8
Layer 1
10
322.600000
20
230.500000
11
322.600000
21
235.400000
0
LINE
8
Layer 1
10
322.600000
20
235.400000
11
322.562500
21
235.437500
0
LINE
8
Layer 1
10
322.562500
20
235.437500
11
322.600000
21
235.400000
0
LINE
8
Layer 1
10
322.600000
20
235.400000
11
332.400000
21
235.400000
0
LINE
8
Layer 1
10
332.400000
20
235.400000
11
332.437500
21
235.437500
0
LINE
8
Layer 1
10
332.437500
20
235.437500
11
332.400000
21
235.400000
0
LINE
8
Layer 1
10
332.400000
20
235.400000
11
332.400000
21
230.500000
0
LINE
8
Layer 1
10
332.400000
20
230.500000
11
332.500000
21
230.400000
0
LINE
8
Layer 1
10
332.500000
20
230.400000
11
342.500000
21
230.400000
0
LINE
8
Layer 1
10
342.500000
20
230.400000
11
342.600000
21
230.500000
0
LINE
8
Layer 1
10
342.600000
20
230.500000
11
342.600000
21
235.400000
0
LINE
8
Layer 1
10
342.600000
20
235.400000
11
342.562500
21
235.437500
0
LINE
8
Layer 1
10
342.562500
20
235.437500
11
342.600000
21
235.400000
0
LINE
8
Layer 1
10
342.600000
20
235.400000
11
352.400000
21
235.400000
0
LINE
8
Layer 1
10
352.400000
20
235.400000
11
352.437500
21
235.437500
0
LINE
8
Layer 1
10
352.437500
20
235.437500
11
352.400000
21
235.400000
0
LINE
8
Layer 1
10
352.400000
20
235.400000
11
352.400000
21
230.500000
0
LINE
8
Layer 1
10
352.400000
20
230.500000
11
352.500000
21
230.400000
0
LINE
8
Layer 1
10
352.500000
20
230.400000
11
362.500000
21
230.400000
0
LINE
8
Layer 1
10
362.500000
20
230.400000
11
362.600000
21
230.500000
0
LINE
8
Layer 1
10
362.600000
20
230.500000
11
362.600000
21
235.400000
0
LINE
8
Layer 1
10
362.600000
20
235.400000
11
362.562500
21
235.437500
0
LINE
8
Layer 1
10
362.562500
20
235.437500
11
362.600000
21
235.400000
0
LINE
8
Layer 1
10
362.600000
20
235.400000
11
372.400000
21
235.400000
0
LINE
8
Layer 1
10
372.400000
20
235.400000
11
372.437500
21
235.437500
0
LINE
8
Layer 1
10
372.437500
20
235.437500
11
372.400000
21
235.400000
0
LINE
8
Layer 1
10
372.400000
20
235.400000
11
372.400000
21
230.500000
0
LINE
8
Layer 1
10
372.400000
20
230.500000
11
372.500000
21
230.400000
0
LINE
8
Layer 1
10
372.500000
20
230.400000
11
382.500000
21
230.400000
0
LINE
8
Layer 1
10
382.500000
20
230.400000
11
382.600000
21
230.500000
0
LINE
8
Layer 1
10
382.600000
20
230.500000
11
382.600000
21
235.400000
0
LINE
8
Layer 1
10
382.600000
20
235.400000
11
382.562500
21
235.437500
0
LINE
8
Layer 1
10
382.562500
20
235.437500
11
382.600000
21
235.400000
0
LINE
8
Layer 1
10
382.600000
20
235.400000
11
392.400000
21
235.400000
0
LINE
8
Layer 1
10
392.400000
20
235.400000
11
392.437500
21
235.437500
0
LINE
8
Layer 1
10
392.437500
20
235.437500
11
392.400000
21
235.400000
0
LINE
8
Layer 1
10
392.400000
20
235.400000
11
392.400000
21
230.500000
0
LINE
8
Layer 1
10
392.400000
20
230.500000
11
392.500000
21
230.400000
0
LINE
8
Layer 1
10
392.500000
20
230.400000
11
402.500000
21
230.400000
0
LINE
8
Layer 1
10
402.500000
20
230.400000
11
402.600000
21
230.500000
0
LINE
8
Layer 1
10
402.600000
20
230.500000
11
402.600000
21
235.400000
0
LINE
8
Layer 1
10
402.600000
20
235.400000
11
402.562500
21
235.437500
0
LINE
8
Layer 1
10
402.562500
20
235.437500
11
402.600000
21
235.400000
0
LINE
8
Layer 1
10
402.600000
20
235.400000
11
412.400000
21
235.400000
0
LINE
8
Layer 1
10
412.400000
20
235.400000
11
412.437500
21
235.437500
0
LINE
8
Layer 1
10
412.437500
20
235.437500
11
412.400000
21
235.400000
0
LINE
8
Layer 1
10
412.400000
20
235.400000
11
412.400000
21
230.500000
0
LINE
8
Layer 1
10
412.400000
20
230.500000
11
412.500000
21
230.400000
0
LINE
8
Layer 1
10
412.500000
20
230.400000
11
422.500000
21
230.400000
0
LINE
8
Layer 1
10
422.500000
20
230.400000
11
422.600000
21
230.500000
0
LINE
8
Layer 1
10
422.600000
20
230.500000
11
422.600000
21
235.400000
0
LINE
8
Layer 1
10
422.600000
20
235.400000
11
422.562500
21
235.437500
0
LINE
8
Layer 1
10
422.562500
20
235.437500
11
422.600000
21
235.400000
0
LINE
8
Layer 1
10
422.600000
20
235.400000
11
432.400000
21
235.400000
0
LINE
8
Layer 1
10
432.400000
20
235.400000
11
432.437500
21
235.437500
0
LINE
8
Layer 1
10
432.437500
20
235.437500
11
432.400000
21
235.400000
0
LINE
8
Layer 1
10
432.400000
20
235.400000
11
432.400000
21
230.500000
0
LINE
8
Layer 1
10
432.400000
20
230.500000
11
432.500000
21
230.400000
0
LINE
8
Layer 1
10
432.500000
20
230.400000
11
442.500000
21
230.400000
0
LINE
8
Layer 1
10
442.500000
20
230.400000
11
442.600000
21
230.500000
0
LINE
8
Layer 1
10
442.600000
20
230.500000
11
442.600000
21
235.400000
0
LINE
8
Layer 1
10
442.600000
20
235.400000
11
442.562500
21
235.437500
0
LINE
8
Layer 1
10
442.562500
20
235.437500
11
442.600000
21
235.400000
0
LINE
8
Layer 1
10
442.600000
20
235.400000
11
452.400000
21
235.400000
0
LINE
8
Layer 1
10
452.400000
20
235.400000
11
452.437500
21
235.437500
0
LINE
8
Layer 1
10
452.437500
20
235.437500
11
452.400000
21
235.400000
0
LINE
8
Layer 1
10
452.400000
20
235.400000
11
452.400000
21
230.500000
0
LINE
8
Layer 1
10
452.400000
20
230.500000
11
452.500000
21
230.400000
0
LINE
8
Layer 1
10
452.500000
20
230.400000
11
462.500000
21
230.400000
0
LINE
8
Layer 1
10
462.500000
20
230.400000
11
462.600000
21
230.500000
0
LINE
8
Layer 1
10
462.600000
20
230.500000
11
462.600000
21
235.400000
0
LINE
8
Layer 1
10
462.600000
20
235.400000
11
462.562500
21
235.437500
0
LINE
8
Layer 1
10
462.562500
20
235.437500
11
462.600000
21
235.400000
0
LINE
8
Layer 1
10
462.600000
20
235.400000
11
472.400000
21
235.400000
0
LINE
8
Layer 1
10
472.400000
20
235.400000
11
472.437500
21
235.437500
0
LINE
8
Layer 1
10
472.437500
20
235.437500
11
472.400000
21
235.400000
0
LINE
8
Layer 1
10
472.400000
20
235.400000
11
472.400000
21
230.500000
0
LINE
8
Layer 1
10
472.400000
20
230.500000
11
472.500000
21
230.400000
0
LINE
8
Layer 1
10
472.500000
20
230.400000
11
483.500000
21
230.400000
0
LINE
8
Layer 1
10
483.500000
20
230.400000
11
483.600000
21
230.500000
0
LINE
8
Layer 1
10
483.600000
20
230.500000
11
483.600000
21
247.900000
0
LINE
8
Layer 1
10
483.600000
20
247.900000
11
483.562500
21
247.937500
0
LINE
8
Layer 1
10
483.562500
20
247.937500
11
483.600000
21
247.900000
0
LINE
8
Layer 1
10
483.600000
20
247.900000
11
488.500000
21
247.900000
0
LINE
8
Layer 1
10
488.500000
20
247.900000
11
488.600000
21
248.000000
0
LINE
8
Layer 1
10
488.600000
20
248.000000
11
488.600000
21
258.000000
0
LINE
8
Layer 1
10
488.600000
20
258.000000
11
488.500000
21
258.100000
0
LINE
8
Layer 1
10
488.500000
20
258.100000
11
483.600000
21
258.100000
0
LINE
8
Layer 1
10
483.600000
20
258.100000
11
483.562500
21
258.062500
0
LINE
8
Layer 1
10
483.562500
20
258.062500
11
483.600000
21
258.100000
0
LINE
8
Layer 1
10
483.600000
20
258.100000
11
483.600000
21
267.900000
0
LINE
8
Layer 1
10
483.600000
20
267.900000
11
483.562500
21
267.937500
0
LINE
8
Layer 1
10
483.562500
20
267.937500
11
483.600000
21
267.900000
0
LINE
8
Layer 1
10
483.600000
20
267.900000
11
488.500000
21
267.900000
0
LINE
8
Layer 1
10
488.500000
20
267.900000
11
488.600000
21
268.000000
0
LINE
8
Layer 1
10
488.600000
20
268.000000
11
488.600000
21
278.000000
0
LINE
8
Layer 1
10
488.600000
20
278.000000
11
488.500000
21
278.100000
0
LINE
8
Layer 1
10
488.500000
20
278.100000
11
483.600000
21
278.100000
0
LINE
8
Layer 1
10
483.600000
20
278.100000
11
483.562500
21
278.062500
0
LINE
8
Layer 1
10
483.562500
20
278.062500
11
483.600000
21
278.100000
0
LINE
8
Layer 1
10
483.600000
20
278.100000
11
483.600000
21
287.900000
0
LINE
8
Layer 1
10
483.600000
20
287.900000
11
483.562500
21
287.937500
0
LINE
8
Layer 1
10
483.562500
20
287.937500
11
483.600000
21
287.900000
0
LINE
8
Layer 1
10
483.600000
20
287.900000
11
488.500000
21
287.900000
0
LINE
8
Layer 1
10
488.500000
20
287.900000
11
488.600000
21
288.000000
0
LINE
8
Layer 1
10
488.600000
20
288.000000
11
488.600000
21
298.000000
0
LINE
8
Layer 1
10
488.600000
20
298.000000
11
488.500000
21
298.100000
0
LINE
8
Layer 1
10
488.500000
20
298.100000
11
483.600000
21
298.100000
0
LINE
8
Layer 1
10
483.600000
20
298.100000
11
483.562500
21
298.062500
0
LINE
8
Layer 1
10
483.562500
20
298.062500
11
483.600000
21
298.100000
0
LINE
8
Layer 1
10
483.600000
20
298.100000
11
483.600000
21
307.900000
0
LINE
8
Layer 1
10
483.600000
20
307.900000
11
483.562500
21
307.937500
0
LINE
8
Layer 1
10
483.562500
20
307.937500
11
483.600000
21
307.900000
0
LINE
8
Layer 1
10
483.600000
20
307.900000
11
488.500000
21
307.900000
0
LINE
8
Layer 1
10
488.500000
20
307.900000
11
488.600000
21
308.000000
0
LINE
8
Layer 1
10
488.600000
20
308.000000
11
488.600000
21
318.000000
0
LINE
8
Layer 1
10
488.600000
20
318.000000
11
488.500000
21
318.100000
0
LINE
8
Layer 1
10
488.500000
20
318.100000
11
483.600000
21
318.100000
0
LINE
8
Layer 1
10
483.600000
20
318.100000
11
483.562500
21
318.062500
0
LINE
8
Layer 1
10
483.562500
20
318.062500
11
483.600000
21
318.100000
0
LINE
8
Layer 1
10
483.600000
20
318.100000
11
483.600000
21
327.900000
0
LINE
8
Layer 1
10
483.600000
20
327.900000
11
483.562500
21
327.937500
0
LINE
8
Layer 1
10
483.562500
20
327.937500
11
483.600000
21
327.900000
0
LINE
8
Layer 1
10
483.600000
20
327.900000
11
488.500000
21
327.900000
0
LINE
8
Layer 1
10
488.500000
20
327.900000
11
488.600000
21
328.000000
0
LINE
8
Layer 1
10
488.600000
20
328.000000
11
488.600000
21
338.000000
0
LINE
8
Layer 1
10
488.600000
20
338.000000
11
488.500000
21
338.100000
0
LINE
8
Layer 1
10
488.500000
20
338.100000
11
483.600000
21
338.100000
0
LINE
8
Layer 1
10
483.600000
20
338.100000
11
483.562500
21
338.062500
0
LINE
8
Layer 1
10
483.562500
20
338.062500
11
483.600000
21
338.100000
0
LINE
8
Layer 1
10
483.600000
20
338.100000
11
483.600000
21
347.900000
0
LINE
8
Layer 1
10
483.600000
20
347.900000
11
483.562500
21
347.937500
0
LINE
8
Layer 1
10
483.562500
20
347.937500
11
483.600000
21
347.900000
0
LINE
8
Layer 1
10
483.600000
20
347.900000
11
488.500000
21
347.900000
0
LINE
8
Layer 1
10
488.500000
20
347.900000
11
488.600000
21
348.000000
0
LINE
8
Layer 1
10
488.600000
20
348.000000
11
488.600000
21
358.000000
0
LINE
8
Layer 1
10
488.600000
20
358.000000
11
488.500000
21
358.100000
0
LINE
8
Layer 1
10
488.500000
20
358.100000
11
483.600000
21
358.100000
0
LINE
8
Layer 1
10
483.600000
20
358.100000
11
483.562500
21
358.062500
0
LINE
8
Layer 1
10
483.562500
20
358.062500
11
483.600000
21
358.100000
0
LINE
8
Layer 1
10
483.600000
20
358.100000
11
483.600000
21
367.900000
0
LINE
8
Layer 1
10
483.600000
20
367.900000
11
483.562500
21
367.937500
0
LINE
8
Layer 1
10
483.562500
20
367.937500
11
483.600000
21
367.900000
0
LINE
8
Layer 1
10
483.600000
20
367.900000
11
488.500000
21
367.900000
0
LINE
8
Layer 1
10
488.500000
20
367.900000
11
488.600000
21
368.000000
0
LINE
8
Layer 1
10
488.600000
20
368.000000
11
488.600000
21
378.000000
0
LINE
8
Layer 1
10
488.600000
20
378.000000
11
488.500000
21
378.100000
0
LINE
8
Layer 1
10
488.500000
20
378.100000
11
483.600000
21
378.100000
0
LINE
8
Layer 1
10
483.600000
20
378.100000
11
483.562500
21
378.062500
0
LINE
8
Layer 1
10
483.562500
20
378.062500
11
483.600000
21
378.100000
0
LINE
8
Layer 1
10
483.600000
20
378.100000
11
483.600000
21
387.900000
0
LINE
8
Layer 1
10
483.600000
20
387.900000
11
483.562500
21
387.937500
0
LINE
8
Layer 1
10
483.562500
20
387.937500
11
483.600000
21
387.900000
0
LINE
8
Layer 1
10
483.600000
20
387.900000
11
488.500000
21
387.900000
0
LINE
8
Layer 1
10
488.500000
20
387.900000
11
488.600000
21
388.000000
0
LINE
8
Layer 1
10
488.600000
20
388.000000
11
488.600000
21
398.000000
0
LINE
8
Layer 1
10
488.600000
20
398.000000
11
488.500000
21
398.100000
0
LINE
8
Layer 1
10
488.500000
20
398.100000
11
483.600000
21
398.100000
0
LINE
8
Layer 1
10
483.600000
20
398.100000
11
483.562500
21
398.062500
0
LINE
8
Layer 1
10
483.562500
20
398.062500
11
483.600000
21
398.100000
0
LINE
8
Layer 1
10
483.600000
20
398.100000
11
483.600000
21
407.900000
0
LINE
8
Layer 1
10
483.600000
20
407.900000
11
483.562500
21
407.937500
0
LINE
8
Layer 1
10
483.562500
20
407.937500
11
483.600000
21
407.900000
0
LINE
8
Layer 1
10
483.600000
20
407.900000
11
488.500000
21
407.900000
0
LINE
8
Layer 1
10
488.500000
20
407.900000
11
488.600000
21
408.000000
0
LINE
8
Layer 1
10
488.600000
20
408.000000
11
488.600000
21
418.000000
0
LINE
8
Layer 1
10
488.600000
20
418.000000
11
488.500000
21
418.100000
0
LINE
8
Layer 1
10
488.500000
20
418.100000
11
483.600000
21
418.100000
0
LINE
8
Layer 1
10
483.600000
20
418.100000
11
483.562500
21
418.062500
0
LINE
8
Layer 1
10
483.562500
20
418.062500
11
483.600000
21
418.100000
0
LINE
8
Layer 1
10
483.600000
20
418.100000
11
483.600000
21
435.500000
0
LINE
8
Layer 1
10
483.600000
20
435.500000
11
483.500000
21
435.600000
0
LINE
8
Layer 1
10
483.500000
20
435.600000
11
231.500000
21
435.600000
0
LINE
8
Layer 1
10
231.500000
20
435.600000
11
231.400000
21
435.500000
0
LINE
8
Layer 1
10
231.400000
20
435.500000
11
231.400000
21
418.100000
0
LINE
8
Layer 1
10
231.400000
20
418.100000
11
231.437500
21
418.062500
0
LINE
8
Layer 1
10
231.437500
20
418.062500
11
231.400000
21
418.100000
0
LINE
8
Layer 1
10
231.400000
20
418.100000
11
226.500000
21
418.100000
0
LINE
8
Layer 1
10
226.500000
20
418.100000
11
226.400000
21
418.000000
0
LINE
8
Layer 1
10
226.400000
20
418.000000
11
226.400000
21
408.000000
0
LINE
8
Layer 1
10
226.400000
20
408.000000
11
226.500000
21
407.900000
0
LINE
8
Layer 1
10
226.500000
20
407.900000
11
231.400000
21
407.900000
0
LINE
8
Layer 1
10
231.400000
20
407.900000
11
231.437500
21
407.937500
0
LINE
8
Layer 1
10
231.437500
20
407.937500
11
231.400000
21
407.900000
0
LINE
8
Layer 1
10
231.400000
20
407.900000
11
231.400000
21
398.100000
0
LINE
8
Layer 1
10
231.400000
20
398.100000
11
231.437500
21
398.062500
0
LINE
8
Layer 1
10
231.437500
20
398.062500
11
231.400000
21
398.100000
0
LINE
8
Layer 1
10
231.400000
20
398.100000
11
226.500000
21
398.100000
0
LINE
8
Layer 1
10
226.500000
20
398.100000
11
226.400000
21
398.000000
0
LINE
8
Layer 1
10
226.400000
20
398.000000
11
226.400000
21
388.000000
0
LINE
8
Layer 1
10
226.400000
20
388.000000
11
226.500000
21
387.900000
0
LINE
8
Layer 1
10
226.500000
20
387.900000
11
231.400000
21
387.900000
0
LINE
8
Layer 1
10
231.400000
20
387.900000
11
231.437500
21
387.937500
0
LINE
8
Layer 1
10
231.437500
20
387.937500
11
231.400000
21
387.900000
0
LINE
8
Layer 1
10
231.400000
20
387.900000
11
231.400000
21
378.100000
0
LINE
8
Layer 1
10
231.400000
20
378.100000
11
231.437500
21
378.062500
0
LINE
8
Layer 1
10
231.437500
20
378.062500
11
231.400000
21
378.100000
0
LINE
8
Layer 1
10
231.400000
20
378.100000
11
226.500000
21
378.100000
0
LINE
8
Layer 1
10
226.500000
20
378.100000
11
226.400000
21
378.000000
0
LINE
8
Layer 1
10
226.400000
20
378.000000
11
226.400000
21
368.000000
0
LINE
8
Layer 1
10
226.400000
20
368.000000
11
226.500000
21
367.900000
0
LINE
8
Layer 1
10
226.500000
20
367.900000
11
231.400000
21
367.900000
0
LINE
8
Layer 1
10
231.400000
20
367.900000
11
231.437500
21
367.937500
0
LINE
8
Layer 1
10
231.437500
20
367.937500
11
231.400000
21
367.900000
0
LINE
8
Layer 1
10
231.400000
20
367.900000
11
231.400000
21
358.100000
0
LINE
8
Layer 1
10
231.400000
20
358.100000
11
231.437500
21
358.062500
0
LINE
8
Layer 1
10
231.437500
20
358.062500
11
231.400000
21
358.100000
0
LINE
8
Layer 1
10
231.400000
20
358.100000
11
226.500000
21
358.100000
0
LINE
8
Layer 1
10
226.500000
20
358.100000
11
226.400000
21
358.000000
0
LINE
8
Layer 1
10
226.400000
20
358.000000
11
226.400000
21
348.000000
0
LINE
8
Layer 1
10
226.400000
20
348.000000
11
226.500000
21
347.900000
0
LINE
8
Layer 1
10
226.500000
20
347.900000
11
231.400000
21
347.900000
0
LINE
8
Layer 1
10
231.400000
20
347.900000
11
231.437500
21
347.937500
0
LINE
8
Layer 1
10
231.437500
20
347.937500
11
231.400000
21
347.900000
0
LINE
8
Layer 1
10
231.400000
20
347.900000
11
231.400000
21
338.100000
0
LINE
8
Layer 1
10
231.400000
20
338.100000
11
231.437500
21
338.062500
0
LINE
8
Layer 1
10
231.437500
20
338.062500
11
231.400000
21
338.100000
0
LINE
8
Layer 1
10
231.400000
20
338.100000
11
226.500000
21
338.100000
0
LINE
8
Layer 1
10
226.500000
20
338.100000
11
226.400000
21
338.000000
0
LINE
8
Layer 1
10
226.400000
20
338.000000
11
226.400000
21
328.000000
0
LINE
8
Layer 1
10
226.400000
20
328.000000
11
226.500000
21
327.900000
0
LINE
8
Layer 1
10
226.500000
20
327.900000
11
231.400000
21
327.900000
0
LINE
8
Layer 1
10
231.400000
20
327.900000
11
231.437500
21
327.937500
0
LINE
8
Layer 1
10
231.437500
20
327.937500
11
231.400000
21
327.900000
0
LINE
8
Layer 1
10
231.400000
20
327.900000
11
231.400000
21
318.100000
0
LINE
8
Layer 1
10
231.400000
20
318.100000
11
231.437500
21
318.062500
0
LINE
8
Layer 1
10
231.437500
20
318.062500
11
231.400000
21
318.100000
0
LINE
8
Layer 1
10
231.400000
20
318.100000
11
226.500000
21
318.100000
0
LINE
8
Layer 1
10
226.500000
20
318.100000
11
226.400000
21
318.000000
0
LINE
8
Layer 1
10
226.400000
20
318.000000
11
226.400000
21
308.000000
0
LINE
8
Layer 1
10
226.400000
20
308.000000
11
226.500000
21
307.900000
0
LINE
8
Layer 1
10
226.500000
20
307.900000
11
231.400000
21
307.900000
0
LINE
8
Layer 1
10
231.400000
20
307.900000
11
231.437500
21
307.937500
0
LINE
8
Layer 1
10
231.437500
20
307.937500
11
231.400000
21
307.900000
0
LINE
8
Layer 1
10
231.400000
20
307.900000
11
231.400000
21
298.100000
0
LINE
8
Layer 1
10
231.400000
20
298.100000
11
231.437500
21
298.062500
0
LINE
8
Layer 1
10
231.437500
20
298.062500
11
231.400000
21
298.100000
0
LINE
8
Layer 1
10
231.400000
20
298.100000
11
226.500000
21
298.100000
0
LINE
8
Layer 1
10
226.500000
20
298.100000
11
226.400000
21
298.000000
0
LINE
8
Layer 1
10
226.400000
20
298.000000
11
226.400000
21
288.000000
0
LINE
8
Layer 1
10
226.400000
20
288.000000
11
226.500000
21
287.900000
0
LINE
8
Layer 1
10
226.500000
20
287.900000
11
231.400000
21
287.900000
0
LINE
8
Layer 1
10
231.400000
20
287.900000
11
231.437500
21
287.937500
0
LINE
8
Layer 1
10
231.437500
20
287.937500
11
231.400000
21
287.900000
0
LINE
8
Layer 1
10
231.400000
20
287.900000
11
231.400000
21
278.100000
0
LINE
8
Layer 1
10
231.400000
20
278.100000
11
231.437500
21
278.062500
0
LINE
8
Layer 1
10
231.437500
20
278.062500
11
231.400000
21
278.100000
0
LINE
8
Layer 1
10
231.400000
20
278.100000
11
226.500000
21
278.100000
0
LINE
8
Layer 1
10
226.500000
20
278.100000
11
226.400000
21
278.000000
0
LINE
8
Layer 1
10
226.400000
20
278.000000
11
226.400000
21
268.000000
0
LINE
8
Layer 1
10
226.400000
20
268.000000
11
226.500000
21
267.900000
0
LINE
8
Layer 1
10
226.500000
20
267.900000
11
231.400000
21
267.900000
0
LINE
8
Layer 1
10
231.400000
20
267.900000
11
231.437500
21
267.937500
0
LINE
8
Layer 1
10
231.437500
20
267.937500
11
231.400000
21
267.900000
0
LINE
8
Layer 1
10
231.400000
20
267.900000
11
231.400000
21
258.100000
0
LINE
8
Layer 1
10
231.400000
20
258.100000
11
231.437500
21
258.062500
0
LINE
8
Layer 1
10
231.437500
20
258.062500
11
231.400000
21
258.100000
0
LINE
8
Layer 1
10
231.400000
20
258.100000
11
226.500000
21
258.100000
0
LINE
8
Layer 1
10
226.500000
20
258.100000
11
226.400000
21
258.000000
0
LINE
8
Layer 1
10
226.400000
20
258.000000
11
226.400000
21
248.000000
0
LINE
8
Layer 1
10
226.400000
20
248.000000
11
226.500000
21
247.900000
0
LINE
8
Layer 1
10
226.500000
20
247.900000
11
231.400000
21
247.900000
0
LINE
8
Layer 1
10
231.400000
20
247.900000
11
231.400000
21
247.900000
0
LINE
8
Layer 1
10
231.400000
20
247.900000
11
231.400000
21
230.500000
0
LINE
8
Layer 1
10
231.400000
20
230.500000
11
231.500000
21
230.400000
0
LINE
8
Layer 1
10
231.500000
20
230.400000
11
231.500000
21
230.400000
 0 
ENDSEC
 0 
EOF