<?xml version="1.0" encoding="UTF-8" standalone="no"?>
<!-- Created with Inkscape (http://www.inkscape.org/) -->

<svg
   version="1.1"
   id="svg3526"
   width="424"
   height="661"
   viewBox="0 0 424 661"
   sodipodi:docname="LogoM_2.svg"
   inkscape:version="1.2.2 (732a01da63, 2022-12-09)"
   xmlns:inkscape="http://www.inkscape.org/namespaces/inkscape"
   xmlns:sodipodi="http://sodipodi.sourceforge.net/DTD/sodipodi-0.dtd"
   xmlns="http://www.w3.org/2000/svg"
   xmlns:svg="http://www.w3.org/2000/svg">
  <defs
     id="defs3530" />
  <sodipodi:namedview
     id="namedview3528"
     pagecolor="#ffffff"
     bordercolor="#000000"
     borderopacity="0.25"
     inkscape:showpageshadow="2"
     inkscape:pageopacity="0.0"
     inkscape:pagecheckerboard="0"
     inkscape:deskcolor="#d1d1d1"
     showgrid="false"
     inkscape:zoom="1.2662632"
     inkscape:cx="186.77001"
     inkscape:cy="330.89486"
     inkscape:window-width="1920"
     inkscape:window-height="1017"
     inkscape:window-x="1672"
     inkscape:window-y="-8"
     inkscape:window-maximized="1"
     inkscape:current-layer="g3532" />
  <g
     inkscape:groupmode="layer"
     inkscape:label="Image"
     id="g3532">
    <path
       style="fill:#000000"
       d="M 205,633.33942 C 160.12018,629.43458 122.26459,615.06564 90.274438,589.79275 52.012512,559.56504 24.636742,512.91927 17.915593,466.5 15.989698,453.1989 15.810151,448.83839 16.330331,428 16.677826,414.07938 17.518188,401.30147 18.391895,396.6534 20.792724,383.88115 26.828618,365.36555 32.948442,352 47.361766,320.52164 67.982331,294.98905 95.5,274.54804 115.49935,259.69187 115.27478,260.08281 109.3478,250.44117 97.329628,230.89073 94.531416,225.87997 91.02904,217.63775 83.936777,200.94736 83.570926,198.59004 83.558191,169.5 c -0.01282,-29.28387 0.48997,-32.62095 7.292093,-48.39862 14.853636,-34.453317 40.923766,-60.783165 72.979066,-73.706093 15.28979,-6.164 25.4721,-8.521126 39.37435,-9.114856 15.08096,-0.644071 34.76619,1.021813 45.5417,3.854015 13.27099,3.488106 17.8262,3.917499 51.2546,4.831472 35.91802,0.982042 39.04413,1.479129 42.60774,6.775109 1.90683,2.833803 2.27207,5.187382 2.90684,18.73172 0.80508,17.178132 -0.0508,33.510723 -1.88769,36.022833 -0.65838,0.90039 -3.09377,1.89148 -5.41198,2.20242 -2.87131,0.38512 -4.21491,1.05329 -4.21491,2.09607 0,0.8419 1.79303,7.04207 3.98451,13.77814 5.99262,18.41983 7.32647,27.80071 6.74366,47.42779 -0.41442,13.95634 -0.89696,17.88745 -3.13009,25.5 -6.65627,22.69062 -14.5248,38.74132 -26.78808,54.6439 -1.5455,2.00415 -2.81,4.15073 -2.81,4.77018 0,0.61944 3.2625,3.22285 7.25,5.78534 25.33247,16.27943 46.68142,37.27712 62.42371,61.39664 11.30702,17.32402 22.60169,44.55985 27.95259,67.40452 1.63355,6.97416 1.87233,12.22891 1.86302,40.99942 -0.009,28.25243 -0.26508,33.99798 -1.77895,39.93687 -8.03447,31.51906 -19.29126,56.10335 -35.82421,78.23838 -27.3109,36.565 -66.16236,62.59003 -110.20057,73.81891 -17.96708,4.58126 -46.48068,7.90717 -58.68559,6.84526 z m 41.14541,-8.83796 c 37.09977,-5.48879 77.31223,-26.63045 104.93511,-55.16951 26.46574,-27.34354 43.0266,-57.95984 52.10752,-96.33195 2.07413,-8.76437 2.24389,-11.78432 2.19226,-39 -0.0516,-27.20204 -0.23437,-30.24002 -2.34614,-39 -7.31622,-30.34889 -21.81889,-60.20822 -40.12306,-82.6088 -15.98066,-19.55707 -53.72248,-49.85539 -59.72886,-47.94904 -0.99342,0.3153 -6.27832,3.95727 -11.74423,8.09328 -12.21394,9.24218 -26.14844,16.21335 -41.93801,20.98081 -17.25812,5.21087 -16.87059,4.95389 -9.62164,6.38004 3.456,0.67992 11.33495,2.97799 17.50878,5.10682 25.31537,8.72911 46.51391,23.5875 63.28137,44.35492 10.26595,12.71493 21.60606,35.49111 25.42505,51.06526 4.0985,16.71401 3.52672,55.7238 -1.05866,72.2271 -8.46231,30.45682 -32.62565,61.36 -61.87551,79.13431 -6.57424,3.99498 -23.73033,11.49734 -31.19851,13.6431 -31.68591,9.10403 -64.73034,6.65249 -94.75397,-7.02972 C 138.01754,549.65321 119.24715,534.35609 103.34157,514.5 84.580917,491.07972 75.229245,457.09711 78.035306,422.54074 c 2.649733,-32.6312 15.61656,-61.11008 38.144444,-83.77617 11.05497,-11.12279 20.02959,-17.71387 34.21882,-25.13073 10.63957,-5.56142 27.69461,-11.97189 36.38198,-13.67489 3.4543,-0.67715 6.10739,-1.40434 5.89575,-1.61598 -0.21164,-0.21165 -5.83948,-1.95518 -12.5063,-3.87452 -20.04107,-5.76972 -34.97829,-13.16506 -48.73627,-24.12908 C 127.74872,267.40272 123.87129,265 122.8172,265 c -3.96236,0 -16.00633,7.83942 -33.173056,21.59234 C 47.240596,320.56345 19.943409,378.55505 20.022626,434.5 c 0.02001,14.13039 0.91206,21.16725 5.053614,39.86485 9.892582,44.66141 29.051665,76.56568 64.42376,107.28034 10.399429,9.03014 13.65366,11.37961 24.18982,17.46444 26.72257,15.43277 49.59583,23.5156 76.21371,26.93201 9.44016,1.21164 44.04769,0.26392 56.24188,-1.54018 z M 240.5,563.08029 c 24.99292,-6.05003 44.52125,-16.31861 60.87152,-32.00807 19.88225,-19.0787 28.72602,-32.4929 36.79014,-55.8032 5.37735,-15.54386 7.19486,-28.30399 6.44798,-45.26902 -0.75792,-17.21549 -1.86633,-23.77825 -6.13728,-36.33791 -7.8305,-23.02733 -20.10814,-41.57388 -38.38052,-57.97749 -9.72836,-8.73342 -18.94519,-14.46607 -35.13802,-21.85504 -18.66677,-8.51785 -26.19885,-9.96549 -52.45382,-10.08149 -20.10693,-0.0888 -21.37754,0.0223 -29.87753,2.61216 C 137.2573,320.18272 106.91002,347.12224 90.655537,388 c -7.402609,18.61653 -7.886334,21.84794 -7.40988,49.5 0.45653,26.49571 0.158248,24.92338 8.882256,46.82107 4.368682,10.96561 8.399537,17.77153 16.689147,28.17893 21.05649,26.4359 41.14192,40.09349 72.7927,49.49723 14.61313,4.3417 43.25277,4.86842 58.89024,1.08306 z M 144,428.5 V 359 h 13.86232 13.86233 l 17.56045,52.25 c 9.65825,28.7375 18.54146,55.31625 19.74046,59.06388 1.19901,3.74763 2.32628,6.66762 2.50504,6.48885 0.26845,-0.26844 27.0037,-77.65698 37.67422,-109.05273 L 252.17869,359 H 264.58935 277 v 69.5 69.5 h -8.99181 -8.99181 l -0.25819,-56.95679 -0.25819,-56.9568 -14.20814,40.7068 C 236.47738,447.18194 227.53537,472.8125 224.42072,481.75 L 218.75773,498 h -8.2618 -8.26179 L 193.0436,471.25 C 187.98881,456.5375 179.04863,430.325 173.17653,413 L 162.5,381.5 162.24194,439.75 161.98388,498 H 152.99194 144 Z m 99.13951,-138.31659 c 16.21181,-4.33984 35.15889,-13.66896 47.56973,-23.42225 6.36664,-5.00336 7.33009,-6.6537 5.00893,-8.5801 -2.13584,-1.77258 -17.68154,-8.07972 -26.71817,-10.83998 -18.90364,-5.77415 -21.4604,-6.20035 -44.19397,-7.36683 -30.91651,-1.58635 -41.46941,-0.33096 -67.80603,8.06635 -12.75253,4.06608 -27.03547,10.5547 -27.71117,12.58894 -0.47995,1.44492 10.14937,9.84273 19.2169,15.18253 13.19842,7.77245 30.99875,14.46118 43.99427,16.53148 1.65,0.26285 12,0.3445 23,0.18143 16.32024,-0.24195 21.40558,-0.67277 27.63951,-2.34157 z M 134.12516,251.65302 c 10.87664,-4.93623 25.7838,-9.68581 39.50787,-12.58762 6.67317,-1.41097 12.29487,-3.0154 12.49268,-3.5654 0.1978,-0.55 -1.67104,-2.125 -4.15297,-3.5 -16.09842,-8.91857 -22.9,-16.1712 -31.7718,-33.87869 L 144.5,186.74262 v -17.63313 -17.63314 l 4.60831,-9.48817 c 2.53457,-5.2185 6.67225,-12.21692 9.19484,-15.55204 8.8425,-11.69069 26.18121,-23.0626 38.8172,-25.45896 7.94736,-1.50719 28.58304,-1.205457 35.18635,0.51449 14.5477,3.78919 29.44924,14.56455 38.95534,28.16873 5.20341,7.44661 7.42701,12.18385 9.82961,20.94143 1.81988,6.63351 2.06431,9.70122 1.69895,21.3232 -0.49098,15.61837 -2.90065,24.27345 -9.47116,34.01857 -4.71919,6.99931 -17.55359,19.76837 -23.17439,23.0564 -2.35052,1.375 -5.25724,3.27836 -6.45936,4.22968 -1.8721,1.48152 -1.97048,1.87227 -0.68569,2.72349 0.825,0.54659 3.975,1.47322 7,2.05917 16.87428,3.26861 31.10686,7.58645 45.4788,13.79725 8.30966,3.591 8.75563,3.44728 15.31974,-4.93715 6.90069,-8.81434 14.44563,-22.2672 19.0833,-34.02611 6.69012,-16.96294 7.48089,-21.6465 7.48747,-44.34633 0.007,-23.01391 -1.08337,-28.91199 -8.96889,-48.52974 -5.08517,-12.65099 -5.02546,-12.92941 2.77815,-12.95495 2.77907,-0.009 5.27945,-0.61619 6.15857,-1.4953 1.98417,-1.98418 3.03966,-15.436383 2.46338,-31.395675 C 338.98995,51.676909 339.69708,52.096377 300.74739,50.958155 257.97535,49.708234 252.67135,49.302952 240,46.316401 229.96487,43.95119 226.39823,43.603139 212,43.584013 c -14.83623,-0.01971 -17.55876,0.255665 -27,2.730921 -12.53332,3.285922 -13.90646,3.78138 -25.5,9.200901 -13.47261,6.297915 -23.86761,13.703439 -35.06412,24.980115 -16.30253,16.419254 -26.232181,33.39425 -32.76,56.00405 -3.130183,10.84173 -3.175048,11.30216 -3.118039,32 0.05922,21.50228 0.43433,24.32719 5.104656,38.44299 C 100.26938,226.91193 118.27796,255 124.4741,255 c 1.25192,0 5.59489,-1.50614 9.65106,-3.34698 z M 231.5,231.31472 c 11.22555,-2.79903 16.33088,-5.95466 27.05153,-16.72067 11.42803,-11.47636 15.27103,-18.1001 17.87083,-30.80189 3.37662,-16.49707 1.53557,-30.24737 -6.00455,-44.84643 -3.59043,-6.95174 -6.17477,-10.34384 -12.28494,-16.12474 C 243.8631,109.32021 232.80588,105 212.52154,105 199.425,105 193.77824,106.39329 183,112.28416 170.11943,119.32407 158.18456,132.83012 152.32273,147 c -2.05286,4.9624 -2.27758,7.13525 -2.29899,22.22976 -0.0264,18.59696 0.3382,20.21779 7.17356,31.89076 10.22195,17.45636 27.45345,29.87519 44.3027,31.92916 7.948,0.96888 22.5408,0.12495 30,-1.73496 z"
       id="path6194" />
  </g>
</svg>
