  0
SECTION
  2
HEADER
  9
$ACADVER
  1
AC1014
  9
$HANDSEED
  5
FFFF
  9
$INSUNITS
 70
     0
  9
$MEASUREMENT
 70
     1
  0
ENDSEC
  0
SECTION
  2
TABLES
  0
TABLE
  2
VPORT
  5
8
330
0
100
AcDbSymbolTable
 70
     4
  0
VPORT
  5
2E
330
8
100
AcDbSymbolTableRecord
100
AcDbViewportTableRecord
  2
*ACTIVE
 70
     0
 10
0.0
 20
0.0
 11
1.0
 21
1.0
 12
210.0
 22
148.5
 13
0.0
 23
0.0
 14
10.0
 24
10.0
 15
10.0
 25
10.0
 16
0.0
 26
0.0
 36
1.0
 17
0.0
 27
0.0
 37
0.0
 40
341.0
 41
1.24
 42
50.0
 43
0.0
 44
0.0
 50
0.0
 51
0.0
 71
     0
 72
   100
 73
     1
 74
     3
 75
     0
 76
     0
 77
     0
 78
     0
  0
ENDTAB
  0
TABLE
  2
LTYPE
  5
5
330
0
100
AcDbSymbolTable
 70
     1
  0
LTYPE
  5
14
330
5
100
AcDbSymbolTableRecord
100
AcDbLinetypeTableRecord
  2
BYBLOCK
 70
     0
  3

 72
    65
 73
     0
 40
0.0
  0
LTYPE
  5
15
330
5
100
AcDbSymbolTableRecord
100
AcDbLinetypeTableRecord
  2
BYLAYER
 70
     0
  3

 72
    65
 73
     0
 40
0.0
  0
LTYPE
  5
16
330
5
100
AcDbSymbolTableRecord
100
AcDbLinetypeTableRecord
  2
CONTINUOUS
 70
     0
  3
Solid line
 72
    65
 73
     0
 40
0.0
  0
ENDTAB
  0
TABLE
  2
LAYER
  5
2
100
AcDbSymbolTable
 70
2
  0
LAYER
  5
50
100
AcDbSymbolTableRecord
100
AcDbLayerTableRecord
  2
0
 70
0
  6
CONTINUOUS
  0
LAYER
  5
51
100
AcDbSymbolTableRecord
100
AcDbLayerTableRecord
  2
Image
 70
0
  6
CONTINUOUS
  0
ENDTAB
  0
TABLE
  2
STYLE
  5
3
330
0
100
AcDbSymbolTable
 70
     1
  0
STYLE
  5
11
330
3
100
AcDbSymbolTableRecord
100
AcDbTextStyleTableRecord
  2
STANDARD
 70
     0
 40
0.0
 41
1.0
 50
0.0
 71
     0
 42
2.5
  3
txt
  4

  0
ENDTAB
  0
TABLE
  2
VIEW
  5
6
330
0
100
AcDbSymbolTable
 70
     0
  0
ENDTAB
  0
TABLE
  2
UCS
  5
7
330
0
100
AcDbSymbolTable
 70
     0
  0
ENDTAB
  0
TABLE
  2
APPID
  5
9
330
0
100
AcDbSymbolTable
 70
     2
  0
APPID
  5
12
330
9
100
AcDbSymbolTableRecord
100
AcDbRegAppTableRecord
  2
ACAD
 70
     0
  0
ENDTAB
  0
TABLE
  2
DIMSTYLE
  5
A
330
0
100
AcDbSymbolTable
 70
     1
  0
DIMSTYLE
105
27
330
A
100
AcDbSymbolTableRecord
100
AcDbDimStyleTableRecord
  2
ISO-25
 70
     0
  3

  4

  5

  6

  7

 40
1.0
 41
2.5
 42
0.625
 43
3.75
 44
1.25
 45
0.0
 46
0.0
 47
0.0
 48
0.0
140
2.5
141
2.5
142
0.0
143
0.03937007874016
144
1.0
145
0.0
146
1.0
147
0.625
 71
     0
 72
     0
 73
     0
 74
     0
 75
     0
 76
     0
 77
     1
 78
     8
170
     0
171
     3
172
     1
173
     0
174
     0
175
     0
176
     0
177
     0
178
     0
270
     2
271
     2
272
     2
273
     2
274
     3
340
11
275
     0
280
     0
281
     0
282
     0
283
     0
284
     8
285
     0
286
     0
287
     3
288
     0
  0
ENDTAB
  0
TABLE
  2
BLOCK_RECORD
  5
1
330
0
100
AcDbSymbolTable
 70
     1
  0
BLOCK_RECORD
  5
1F
330
1
100
AcDbSymbolTableRecord
100
AcDbBlockTableRecord
  2
*MODEL_SPACE
  0
BLOCK_RECORD
  5
1B
330
1
100
AcDbSymbolTableRecord
100
AcDbBlockTableRecord
  2
*PAPER_SPACE
  0
ENDTAB
  0
ENDSEC
  0
SECTION
  2
BLOCKS
  0
BLOCK
  5
20
330
1F
100
AcDbEntity
  8
0
100
AcDbBlockBegin
  2
*MODEL_SPACE
 70
     0
 10
0.0
 20
0.0
 30
0.0
  3
*MODEL_SPACE
  1

  0
ENDBLK
  5
21
330
1F
100
AcDbEntity
  8
0
100
AcDbBlockEnd
  0
BLOCK
  5
1C
330
1B
100
AcDbEntity
 67
     1
  8
0
100
AcDbBlockBegin
  2
*PAPER_SPACE
  1

  0
ENDBLK
  5
1D
330
1B
100
AcDbEntity
 67
     1
  8
0
100
AcDbBlockEnd
  0
ENDSEC
  0
SECTION
  2
ENTITIES
  0
SPLINE
  5
100
100
AcDbEntity
  8
Image
 62
7
100
AcDbSpline
 70
8
 71
3
 72
8
 73
4
 74
0
 40
0
 40
0
 40
0
 40
0
 40
1
 40
1
 40
1
 40
1
 10
438.873680
 20
24.858410
 30
0.0
 10
390.273870
 20
29.763400
 30
0.0
 10
355.452660
 20
43.652770
 30
0.0
 10
321.373680
 20
71.726440
 30
0.0
  0
SPLINE
  5
101
100
AcDbEntity
  8
Image
 62
7
100
AcDbSpline
 70
8
 71
3
 72
8
 73
4
 74
0
 40
0
 40
0
 40
0
 40
0
 40
1
 40
1
 40
1
 40
1
 10
321.373680
 20
71.726440
 30
0.0
 10
307.871400
 20
82.849380
 30
0.0
 10
298.634170
 20
92.481400
 30
0.0
 10
288.694820
 20
105.801940
 30
0.0
  0
SPLINE
  5
102
100
AcDbEntity
  8
Image
 62
7
100
AcDbSpline
 70
8
 71
3
 72
8
 73
4
 74
0
 40
0
 40
0
 40
0
 40
0
 40
1
 40
1
 40
1
 40
1
 10
288.694820
 20
105.801940
 30
0.0
 10
270.894560
 20
129.657540
 30
0.0
 10
257.670650
 20
159.470800
 30
0.0
 10
252.284730
 20
187.888330
 30
0.0
  0
SPLINE
  5
103
100
AcDbEntity
  8
Image
 62
7
100
AcDbSpline
 70
8
 71
3
 72
8
 73
4
 74
0
 40
0
 40
0
 40
0
 40
0
 40
1
 40
1
 40
1
 40
1
 10
252.284730
 20
187.888330
 30
0.0
 10
250.126860
 20
199.273810
 30
0.0
 10
249.231040
 20
237.329360
 30
0.0
 10
250.775640
 20
251.995900
 30
0.0
  0
SPLINE
  5
104
100
AcDbEntity
  8
Image
 62
7
100
AcDbSpline
 70
8
 71
3
 72
8
 73
4
 74
0
 40
0
 40
0
 40
0
 40
0
 40
1
 40
1
 40
1
 40
1
 10
250.775640
 20
251.995900
 30
0.0
 10
252.540010
 20
268.749170
 30
0.0
 10
258.174420
 20
288.883510
 30
0.0
 10
265.975970
 20
306.313680
 30
0.0
  0
SPLINE
  5
105
100
AcDbEntity
  8
Image
 62
7
100
AcDbSpline
 70
8
 71
3
 72
8
 73
4
 74
0
 40
0
 40
0
 40
0
 40
0
 40
1
 40
1
 40
1
 40
1
 10
265.975970
 20
306.313680
 30
0.0
 10
280.448090
 20
338.647170
 30
0.0
 10
302.132960
 20
365.575230
 30
0.0
 10
330.873680
 20
386.903010
 30
0.0
  0
SPLINE
  5
106
100
AcDbEntity
  8
Image
 62
7
100
AcDbSpline
 70
8
 71
3
 72
8
 73
4
 74
0
 40
0
 40
0
 40
0
 40
0
 40
1
 40
1
 40
1
 40
1
 10
330.873680
 20
386.903010
 30
0.0
 10
338.298680
 20
392.412920
 30
0.0
 10
345.220530
 20
397.861080
 30
0.0
 10
346.255570
 20
399.010040
 30
0.0
  0
SPLINE
  5
107
100
AcDbEntity
  8
Image
 62
7
100
AcDbSpline
 70
8
 71
3
 72
8
 73
4
 74
0
 40
0
 40
0
 40
0
 40
0
 40
1
 40
1
 40
1
 40
1
 10
346.255570
 20
399.010040
 30
0.0
 10
348.644200
 20
401.661560
 30
0.0
 10
347.877030
 20
403.688090
 30
0.0
 10
339.661140
 20
416.429750
 30
0.0
  0
SPLINE
  5
108
100
AcDbEntity
  8
Image
 62
7
100
AcDbSpline
 70
8
 71
3
 72
8
 73
4
 74
0
 40
0
 40
0
 40
0
 40
0
 40
1
 40
1
 40
1
 40
1
 10
339.661140
 20
416.429750
 30
0.0
 10
331.575710
 20
428.969060
 30
0.0
 10
323.467060
 20
445.836540
 30
0.0
 10
320.438500
 20
456.416360
 30
0.0
  0
SPLINE
  5
109
100
AcDbEntity
  8
Image
 62
7
100
AcDbSpline
 70
8
 71
3
 72
8
 73
4
 74
0
 40
0
 40
0
 40
0
 40
0
 40
1
 40
1
 40
1
 40
1
 10
320.438500
 20
456.416360
 30
0.0
 10
318.385460
 20
463.588330
 30
0.0
 10
317.814190
 20
468.316870
 30
0.0
 10
317.297340
 20
482.416360
 30
0.0
  0
SPLINE
  5
10a
100
AcDbEntity
  8
Image
 62
7
100
AcDbSpline
 70
8
 71
3
 72
8
 73
4
 74
0
 40
0
 40
0
 40
0
 40
0
 40
1
 40
1
 40
1
 40
1
 10
317.297340
 20
482.416360
 30
0.0
 10
316.470550
 20
504.970670
 30
0.0
 10
317.842050
 20
519.877510
 30
0.0
 10
321.818080
 20
531.552470
 30
0.0
  0
SPLINE
  5
10b
100
AcDbEntity
  8
Image
 62
7
100
AcDbSpline
 70
8
 71
3
 72
8
 73
4
 74
0
 40
0
 40
0
 40
0
 40
0
 40
1
 40
1
 40
1
 40
1
 10
321.818080
 20
531.552470
 30
0.0
 10
336.770810
 20
575.458722
 30
0.0
 10
369.711770
 20
607.009184
 30
0.0
 10
413.873680
 20
619.722252
 30
0.0
  0
SPLINE
  5
10c
100
AcDbEntity
  8
Image
 62
7
100
AcDbSpline
 70
8
 71
3
 72
8
 73
4
 74
0
 40
0
 40
0
 40
0
 40
0
 40
1
 40
1
 40
1
 40
1
 10
413.873680
 20
619.722252
 30
0.0
 10
423.808600
 20
622.582259
 30
0.0
 10
428.733550
 20
623.428485
 30
0.0
 10
437.873680
 20
623.846038
 30
0.0
  0
SPLINE
  5
10d
100
AcDbEntity
  8
Image
 62
7
100
AcDbSpline
 70
8
 71
3
 72
8
 73
4
 74
0
 40
0
 40
0
 40
0
 40
0
 40
1
 40
1
 40
1
 40
1
 10
437.873680
 20
623.846038
 30
0.0
 10
453.414500
 20
624.555997
 30
0.0
 10
471.784540
 20
622.782076
 30
0.0
 10
486.873680
 20
619.114304
 30
0.0
  0
SPLINE
  5
10e
100
AcDbEntity
  8
Image
 62
7
100
AcDbSpline
 70
8
 71
3
 72
8
 73
4
 74
0
 40
0
 40
0
 40
0
 40
0
 40
1
 40
1
 40
1
 40
1
 10
486.873680
 20
619.114304
 30
0.0
 10
498.779220
 20
616.220381
 30
0.0
 10
500.919270
 20
616.026934
 30
0.0
 10
531.873680
 20
615.046595
 30
0.0
  0
SPLINE
  5
10f
100
AcDbEntity
  8
Image
 62
7
100
AcDbSpline
 70
8
 71
3
 72
8
 73
4
 74
0
 40
0
 40
0
 40
0
 40
0
 40
1
 40
1
 40
1
 40
1
 10
531.873680
 20
615.046595
 30
0.0
 10
569.296830
 20
613.861388
 30
0.0
 10
573.373880
 20
613.324981
 30
0.0
 10
577.472140
 20
609.047318
 30
0.0
  0
SPLINE
  5
110
100
AcDbEntity
  8
Image
 62
7
100
AcDbSpline
 70
8
 71
3
 72
8
 73
4
 74
0
 40
0
 40
0
 40
0
 40
0
 40
1
 40
1
 40
1
 40
1
 10
577.472140
 20
609.047318
 30
0.0
 10
580.312080
 20
606.083066
 30
0.0
 10
580.380240
 20
605.750064
 30
0.0
 10
580.995030
 20
591.837335
 30
0.0
  0
SPLINE
  5
111
100
AcDbEntity
  8
Image
 62
7
100
AcDbSpline
 70
8
 71
3
 72
8
 73
4
 74
0
 40
0
 40
0
 40
0
 40
0
 40
1
 40
1
 40
1
 40
1
 10
580.995030
 20
591.837335
 30
0.0
 10
581.339840
 20
584.034351
 30
0.0
 10
581.380860
 20
572.514852
 30
0.0
 10
581.086130
 20
566.238452
 30
0.0
  0
SPLINE
  5
112
100
AcDbEntity
  8
Image
 62
7
100
AcDbSpline
 70
8
 71
3
 72
8
 73
4
 74
0
 40
0
 40
0
 40
0
 40
0
 40
1
 40
1
 40
1
 40
1
 10
581.086130
 20
566.238452
 30
0.0
 10
580.475580
 20
553.234140
 30
0.0
 10
579.629920
 20
551.614470
 30
0.0
 10
572.887700
 20
550.536350
 30
0.0
  0
SPLINE
  5
113
100
AcDbEntity
  8
Image
 62
7
100
AcDbSpline
 70
8
 71
3
 72
8
 73
4
 74
0
 40
0
 40
0
 40
0
 40
0
 40
1
 40
1
 40
1
 40
1
 10
572.887700
 20
550.536350
 30
0.0
 10
570.679960
 20
550.183320
 30
0.0
 10
568.873630
 20
549.815400
 30
0.0
 10
568.873630
 20
549.718770
 30
0.0
  0
SPLINE
  5
114
100
AcDbEntity
  8
Image
 62
7
100
AcDbSpline
 70
8
 71
3
 72
8
 73
4
 74
0
 40
0
 40
0
 40
0
 40
0
 40
1
 40
1
 40
1
 40
1
 10
568.873630
 20
549.718770
 30
0.0
 10
568.873630
 20
549.622170
 30
0.0
 10
570.393370
 20
545.030300
 30
0.0
 10
572.250840
 20
539.514700
 30
0.0
  0
SPLINE
  5
115
100
AcDbEntity
  8
Image
 62
7
100
AcDbSpline
 70
8
 71
3
 72
8
 73
4
 74
0
 40
0
 40
0
 40
0
 40
0
 40
1
 40
1
 40
1
 40
1
 10
572.250840
 20
539.514700
 30
0.0
 10
579.273890
 20
518.660340
 30
0.0
 10
580.300280
 20
512.570060
 30
0.0
 10
580.317470
 20
491.650090
 30
0.0
  0
SPLINE
  5
116
100
AcDbEntity
  8
Image
 62
7
100
AcDbSpline
 70
8
 71
3
 72
8
 73
4
 74
0
 40
0
 40
0
 40
0
 40
0
 40
1
 40
1
 40
1
 40
1
 10
580.317470
 20
491.650090
 30
0.0
 10
580.331970
 20
473.972370
 30
0.0
 10
580.141310
 20
471.954150
 30
0.0
 10
577.577310
 20
462.650090
 30
0.0
  0
SPLINE
  5
117
100
AcDbEntity
  8
Image
 62
7
100
AcDbSpline
 70
8
 71
3
 72
8
 73
4
 74
0
 40
0
 40
0
 40
0
 40
0
 40
1
 40
1
 40
1
 40
1
 10
577.577310
 20
462.650090
 30
0.0
 10
572.026570
 20
442.507930
 30
0.0
 10
566.546810
 20
430.442200
 30
0.0
 10
555.278250
 20
413.550430
 30
0.0
  0
SPLINE
  5
118
100
AcDbEntity
  8
Image
 62
7
100
AcDbSpline
 70
8
 71
3
 72
8
 73
4
 74
0
 40
0
 40
0
 40
0
 40
0
 40
1
 40
1
 40
1
 40
1
 10
555.278250
 20
413.550430
 30
0.0
 10
551.205760
 20
407.445620
 30
0.0
 10
547.873680
 20
401.999140
 30
0.0
 10
547.873680
 20
401.447150
 30
0.0
  0
SPLINE
  5
119
100
AcDbEntity
  8
Image
 62
7
100
AcDbSpline
 70
8
 71
3
 72
8
 73
4
 74
0
 40
0
 40
0
 40
0
 40
0
 40
1
 40
1
 40
1
 40
1
 10
547.873680
 20
401.447150
 30
0.0
 10
547.873680
 20
400.895150
 30
0.0
 10
551.136180
 20
398.290200
 30
0.0
 10
555.123680
 20
395.658360
 30
0.0
  0
SPLINE
  5
11a
100
AcDbEntity
  8
Image
 62
7
100
AcDbSpline
 70
8
 71
3
 72
8
 73
4
 74
0
 40
0
 40
0
 40
0
 40
0
 40
1
 40
1
 40
1
 40
1
 10
555.123680
 20
395.658360
 30
0.0
 10
572.725890
 20
384.040520
 30
0.0
 10
585.708220
 20
373.116980
 30
0.0
 10
597.677900
 20
359.852560
 30
0.0
  0
SPLINE
  5
11b
100
AcDbEntity
  8
Image
 62
7
100
AcDbSpline
 70
8
 71
3
 72
8
 73
4
 74
0
 40
0
 40
0
 40
0
 40
0
 40
1
 40
1
 40
1
 40
1
 10
597.677900
 20
359.852560
 30
0.0
 10
619.476290
 20
335.696280
 30
0.0
 10
635.174550
 20
306.048120
 30
0.0
 10
643.987540
 20
272.390930
 30
0.0
  0
SPLINE
  5
11c
100
AcDbEntity
  8
Image
 62
7
100
AcDbSpline
 70
8
 71
3
 72
8
 73
4
 74
0
 40
0
 40
0
 40
0
 40
0
 40
1
 40
1
 40
1
 40
1
 10
643.987540
 20
272.390930
 30
0.0
 10
646.658820
 20
262.189190
 30
0.0
 10
647.176330
 20
258.028300
 30
0.0
 10
647.935330
 20
240.650090
 30
0.0
  0
SPLINE
  5
11d
100
AcDbEntity
  8
Image
 62
7
100
AcDbSpline
 70
8
 71
3
 72
8
 73
4
 74
0
 40
0
 40
0
 40
0
 40
0
 40
1
 40
1
 40
1
 40
1
 10
647.935330
 20
240.650090
 30
0.0
 10
648.829560
 20
220.175540
 30
0.0
 10
647.856230
 20
194.693370
 30
0.0
 10
645.853700
 20
186.150090
 30
0.0
  0
SPLINE
  5
11e
100
AcDbEntity
  8
Image
 62
7
100
AcDbSpline
 70
8
 71
3
 72
8
 73
4
 74
0
 40
0
 40
0
 40
0
 40
0
 40
1
 40
1
 40
1
 40
1
 10
645.853700
 20
186.150090
 30
0.0
 10
638.531970
 20
154.914410
 30
0.0
 10
626.533020
 20
128.462300
 30
0.0
 10
609.338050
 20
105.650090
 30
0.0
  0
SPLINE
  5
11f
100
AcDbEntity
  8
Image
 62
7
100
AcDbSpline
 70
8
 71
3
 72
8
 73
4
 74
0
 40
0
 40
0
 40
0
 40
0
 40
1
 40
1
 40
1
 40
1
 10
609.338050
 20
105.650090
 30
0.0
 10
597.496540
 20
89.940210
 30
0.0
 10
589.407210
 20
81.505020
 30
0.0
 10
575.352550
 20
70.211530
 30
0.0
  0
SPLINE
  5
120
100
AcDbEntity
  8
Image
 62
7
100
AcDbSpline
 70
8
 71
3
 72
8
 73
4
 74
0
 40
0
 40
0
 40
0
 40
0
 40
1
 40
1
 40
1
 40
1
 10
575.352550
 20
70.211530
 30
0.0
 10
551.707630
 20
51.211870
 30
0.0
 10
525.460210
 20
38.182760
 30
0.0
 10
496.630820
 20
31.134380
 30
0.0
  0
SPLINE
  5
121
100
AcDbEntity
  8
Image
 62
7
100
AcDbSpline
 70
8
 71
3
 72
8
 73
4
 74
0
 40
0
 40
0
 40
0
 40
0
 40
1
 40
1
 40
1
 40
1
 10
496.630820
 20
31.134380
 30
0.0
 10
481.164220
 20
27.353020
 30
0.0
 10
448.896890
 20
23.846800
 30
0.0
 10
438.873680
 20
24.858410
 30
0.0
  0
SPLINE
  5
122
100
AcDbEntity
  8
Image
 62
7
100
AcDbSpline
 70
8
 71
3
 72
8
 73
4
 74
0
 40
0
 40
0
 40
0
 40
0
 40
1
 40
1
 40
1
 40
1
 10
480.764720
 20
33.717720
 30
0.0
 10
502.719090
 20
37.180530
 30
0.0
 10
527.450800
 20
46.200260
 30
0.0
 10
546.373680
 20
57.645490
 30
0.0
  0
SPLINE
  5
123
100
AcDbEntity
  8
Image
 62
7
100
AcDbSpline
 70
8
 71
3
 72
8
 73
4
 74
0
 40
0
 40
0
 40
0
 40
0
 40
1
 40
1
 40
1
 40
1
 10
546.373680
 20
57.645490
 30
0.0
 10
587.454660
 20
82.492750
 30
0.0
 10
618.709710
 20
121.128710
 30
0.0
 10
632.779270
 20
164.455850
 30
0.0
  0
SPLINE
  5
124
100
AcDbEntity
  8
Image
 62
7
100
AcDbSpline
 70
8
 71
3
 72
8
 73
4
 74
0
 40
0
 40
0
 40
0
 40
0
 40
1
 40
1
 40
1
 40
1
 10
632.779270
 20
164.455850
 30
0.0
 10
641.377280
 20
190.933350
 30
0.0
 10
641.375570
 20
190.921170
 30
0.0
 10
641.357990
 20
225.650090
 30
0.0
  0
SPLINE
  5
125
100
AcDbEntity
  8
Image
 62
7
100
AcDbSpline
 70
8
 71
3
 72
8
 73
4
 74
0
 40
0
 40
0
 40
0
 40
0
 40
1
 40
1
 40
1
 40
1
 10
641.357990
 20
225.650090
 30
0.0
 10
641.342590
 20
256.165670
 30
0.0
 10
641.300090
 20
256.807360
 30
0.0
 10
638.638970
 20
266.714300
 30
0.0
  0
SPLINE
  5
126
100
AcDbEntity
  8
Image
 62
7
100
AcDbSpline
 70
8
 71
3
 72
8
 73
4
 74
0
 40
0
 40
0
 40
0
 40
0
 40
1
 40
1
 40
1
 40
1
 10
638.638970
 20
266.714300
 30
0.0
 10
623.914780
 20
321.530960
 30
0.0
 10
597.872730
 20
358.033960
 30
0.0
 10
549.945620
 20
391.035320
 30
0.0
  0
SPLINE
  5
127
100
AcDbEntity
  8
Image
 62
7
100
AcDbSpline
 70
8
 71
3
 72
8
 73
4
 74
0
 40
0
 40
0
 40
0
 40
0
 40
1
 40
1
 40
1
 40
1
 10
549.945620
 20
391.035320
 30
0.0
 10
545.860180
 20
393.848440
 30
0.0
 10
541.433760
 20
396.150090
 30
0.0
 10
540.109130
 20
396.150090
 30
0.0
  0
SPLINE
  5
128
100
AcDbEntity
  8
Image
 62
7
100
AcDbSpline
 70
8
 71
3
 72
8
 73
4
 74
0
 40
0
 40
0
 40
0
 40
0
 40
1
 40
1
 40
1
 40
1
 10
540.109130
 20
396.150090
 30
0.0
 10
538.670580
 20
396.150090
 30
0.0
 10
533.809210
 20
393.219830
 30
0.0
 10
528.037190
 20
388.873550
 30
0.0
  0
SPLINE
  5
129
100
AcDbEntity
  8
Image
 62
7
100
AcDbSpline
 70
8
 71
3
 72
8
 73
4
 74
0
 40
0
 40
0
 40
0
 40
0
 40
1
 40
1
 40
1
 40
1
 10
528.037190
 20
388.873550
 30
0.0
 10
511.787960
 20
376.638020
 30
0.0
 10
496.682270
 20
369.361290
 30
0.0
 10
478.330310
 20
364.928670
 30
0.0
  0
SPLINE
  5
12a
100
AcDbEntity
  8
Image
 62
7
100
AcDbSpline
 70
8
 71
3
 72
8
 73
4
 74
0
 40
0
 40
0
 40
0
 40
0
 40
1
 40
1
 40
1
 40
1
 10
478.330310
 20
364.928670
 30
0.0
 10
473.141700
 20
363.675450
 30
0.0
 10
468.899410
 20
362.425090
 30
0.0
 10
468.902990
 20
362.150090
 30
0.0
  0
SPLINE
  5
12b
100
AcDbEntity
  8
Image
 62
7
100
AcDbSpline
 70
8
 71
3
 72
8
 73
4
 74
0
 40
0
 40
0
 40
0
 40
0
 40
1
 40
1
 40
1
 40
1
 10
468.902990
 20
362.150090
 30
0.0
 10
468.906990
 20
361.875090
 30
0.0
 10
473.738940
 20
360.447820
 30
0.0
 10
479.641590
 20
358.978370
 30
0.0
  0
SPLINE
  5
12c
100
AcDbEntity
  8
Image
 62
7
100
AcDbSpline
 70
8
 71
3
 72
8
 73
4
 74
0
 40
0
 40
0
 40
0
 40
0
 40
1
 40
1
 40
1
 40
1
 10
479.641590
 20
358.978370
 30
0.0
 10
512.343110
 20
350.837440
 30
0.0
 10
539.628040
 20
333.043450
 30
0.0
 10
558.538570
 20
307.525350
 30
0.0
  0
SPLINE
  5
12d
100
AcDbEntity
  8
Image
 62
7
100
AcDbSpline
 70
8
 71
3
 72
8
 73
4
 74
0
 40
0
 40
0
 40
0
 40
0
 40
1
 40
1
 40
1
 40
1
 10
558.538570
 20
307.525350
 30
0.0
 10
568.608860
 20
293.936390
 30
0.0
 10
579.525870
 20
270.860770
 30
0.0
 10
582.313700
 20
257.271170
 30
0.0
  0
SPLINE
  5
12e
100
AcDbEntity
  8
Image
 62
7
100
AcDbSpline
 70
8
 71
3
 72
8
 73
4
 74
0
 40
0
 40
0
 40
0
 40
0
 40
1
 40
1
 40
1
 40
1
 10
582.313700
 20
257.271170
 30
0.0
 10
584.390480
 20
247.147640
 30
0.0
 10
585.116290
 20
225.349400
 30
0.0
 10
583.943650
 20
208.319000
 30
0.0
  0
SPLINE
  5
12f
100
AcDbEntity
  8
Image
 62
7
100
AcDbSpline
 70
8
 71
3
 72
8
 73
4
 74
0
 40
0
 40
0
 40
0
 40
0
 40
1
 40
1
 40
1
 40
1
 10
583.943650
 20
208.319000
 30
0.0
 10
582.714650
 20
190.470060
 30
0.0
 10
580.257350
 20
181.741610
 30
0.0
 10
571.368110
 20
163.650090
 30
0.0
  0
SPLINE
  5
130
100
AcDbEntity
  8
Image
 62
7
100
AcDbSpline
 70
8
 71
3
 72
8
 73
4
 74
0
 40
0
 40
0
 40
0
 40
0
 40
1
 40
1
 40
1
 40
1
 10
571.368110
 20
163.650090
 30
0.0
 10
560.541630
 20
141.615890
 30
0.0
 10
538.528680
 20
118.504330
 30
0.0
 10
516.373680
 20
105.911040
 30
0.0
  0
SPLINE
  5
131
100
AcDbEntity
  8
Image
 62
7
100
AcDbSpline
 70
8
 71
3
 72
8
 73
4
 74
0
 40
0
 40
0
 40
0
 40
0
 40
1
 40
1
 40
1
 40
1
 10
516.373680
 20
105.911040
 30
0.0
 10
506.272600
 20
100.169410
 30
0.0
 10
492.503150
 20
94.706020
 30
0.0
 10
480.052120
 20
91.499510
 30
0.0
  0
SPLINE
  5
132
100
AcDbEntity
  8
Image
 62
7
100
AcDbSpline
 70
8
 71
3
 72
8
 73
4
 74
0
 40
0
 40
0
 40
0
 40
0
 40
1
 40
1
 40
1
 40
1
 10
480.052120
 20
91.499510
 30
0.0
 10
467.984100
 20
88.391630
 30
0.0
 10
441.085290
 20
87.160070
 30
0.0
 10
427.747140
 20
89.104730
 30
0.0
  0
SPLINE
  5
133
100
AcDbEntity
  8
Image
 62
7
100
AcDbSpline
 70
8
 71
3
 72
8
 73
4
 74
0
 40
0
 40
0
 40
0
 40
0
 40
1
 40
1
 40
1
 40
1
 10
427.747140
 20
89.104730
 30
0.0
 10
411.545330
 20
91.466900
 30
0.0
 10
388.490410
 20
100.479060
 30
0.0
 10
372.978100
 20
110.513920
 30
0.0
  0
SPLINE
  5
134
100
AcDbEntity
  8
Image
 62
7
100
AcDbSpline
 70
8
 71
3
 72
8
 73
4
 74
0
 40
0
 40
0
 40
0
 40
0
 40
1
 40
1
 40
1
 40
1
 10
372.978100
 20
110.513920
 30
0.0
 10
364.443510
 20
116.034920
 30
0.0
 10
341.089120
 20
138.961730
 30
0.0
 10
334.640020
 20
148.150090
 30
0.0
  0
SPLINE
  5
135
100
AcDbEntity
  8
Image
 62
7
100
AcDbSpline
 70
8
 71
3
 72
8
 73
4
 74
0
 40
0
 40
0
 40
0
 40
0
 40
1
 40
1
 40
1
 40
1
 10
334.640020
 20
148.150090
 30
0.0
 10
324.102350
 20
163.163650
 30
0.0
 10
316.160190
 20
183.639250
 30
0.0
 10
313.306400
 20
203.150090
 30
0.0
  0
SPLINE
  5
136
100
AcDbEntity
  8
Image
 62
7
100
AcDbSpline
 70
8
 71
3
 72
8
 73
4
 74
0
 40
0
 40
0
 40
0
 40
0
 40
1
 40
1
 40
1
 40
1
 10
313.306400
 20
203.150090
 30
0.0
 10
310.311710
 20
223.624280
 30
0.0
 10
312.218010
 20
249.832910
 30
0.0
 10
318.034230
 20
268.150090
 30
0.0
  0
SPLINE
  5
137
100
AcDbEntity
  8
Image
 62
7
100
AcDbSpline
 70
8
 71
3
 72
8
 73
4
 74
0
 40
0
 40
0
 40
0
 40
0
 40
1
 40
1
 40
1
 40
1
 10
318.034230
 20
268.150090
 30
0.0
 10
320.738760
 20
276.667540
 30
0.0
 10
329.633060
 20
294.975940
 30
0.0
 10
335.001440
 20
303.076080
 30
0.0
  0
SPLINE
  5
138
100
AcDbEntity
  8
Image
 62
7
100
AcDbSpline
 70
8
 71
3
 72
8
 73
4
 74
0
 40
0
 40
0
 40
0
 40
0
 40
1
 40
1
 40
1
 40
1
 10
335.001440
 20
303.076080
 30
0.0
 10
340.719540
 20
311.703910
 30
0.0
 10
356.411160
 20
327.898930
 30
0.0
 10
366.198320
 20
335.273780
 30
0.0
  0
SPLINE
  5
139
100
AcDbEntity
  8
Image
 62
7
100
AcDbSpline
 70
8
 71
3
 72
8
 73
4
 74
0
 40
0
 40
0
 40
0
 40
0
 40
1
 40
1
 40
1
 40
1
 10
366.198320
 20
335.273780
 30
0.0
 10
380.039110
 20
345.703130
 30
0.0
 10
406.105680
 20
357.300620
 30
0.0
 10
422.492180
 20
360.319960
 30
0.0
  0
SPLINE
  5
13a
100
AcDbEntity
  8
Image
 62
7
100
AcDbSpline
 70
8
 71
3
 72
8
 73
4
 74
0
 40
0
 40
0
 40
0
 40
0
 40
1
 40
1
 40
1
 40
1
 10
422.492180
 20
360.319960
 30
0.0
 10
429.067980
 20
361.531590
 30
0.0
 10
431.076160
 20
363.150090
 30
0.0
 10
426.003720
 20
363.150090
 30
0.0
  0
SPLINE
  5
13b
100
AcDbEntity
  8
Image
 62
7
100
AcDbSpline
 70
8
 71
3
 72
8
 73
4
 74
0
 40
0
 40
0
 40
0
 40
0
 40
1
 40
1
 40
1
 40
1
 10
426.003720
 20
363.150090
 30
0.0
 10
422.353520
 20
363.150090
 30
0.0
 10
405.501130
 20
368.153880
 30
0.0
 10
396.373680
 20
371.947810
 30
0.0
  0
SPLINE
  5
13c
100
AcDbEntity
  8
Image
 62
7
100
AcDbSpline
 70
8
 71
3
 72
8
 73
4
 74
0
 40
0
 40
0
 40
0
 40
0
 40
1
 40
1
 40
1
 40
1
 10
396.373680
 20
371.947810
 30
0.0
 10
387.491700
 20
375.639700
 30
0.0
 10
376.676830
 20
382.061200
 30
0.0
 10
366.037090
 20
389.960630
 30
0.0
  0
SPLINE
  5
13d
100
AcDbEntity
  8
Image
 62
7
100
AcDbSpline
 70
8
 71
3
 72
8
 73
4
 74
0
 40
0
 40
0
 40
0
 40
0
 40
1
 40
1
 40
1
 40
1
 10
366.037090
 20
389.960630
 30
0.0
 10
361.451960
 20
393.364830
 30
0.0
 10
357.122200
 20
396.150090
 30
0.0
 10
356.415390
 20
396.150090
 30
0.0
  0
SPLINE
  5
13e
100
AcDbEntity
  8
Image
 62
7
100
AcDbSpline
 70
8
 71
3
 72
8
 73
4
 74
0
 40
0
 40
0
 40
0
 40
0
 40
1
 40
1
 40
1
 40
1
 10
356.415390
 20
396.150090
 30
0.0
 10
353.281050
 20
396.150090
 30
0.0
 10
328.897120
 20
378.640780
 30
0.0
 10
316.896160
 20
367.772620
 30
0.0
  0
SPLINE
  5
13f
100
AcDbEntity
  8
Image
 62
7
100
AcDbSpline
 70
8
 71
3
 72
8
 73
4
 74
0
 40
0
 40
0
 40
0
 40
0
 40
1
 40
1
 40
1
 40
1
 10
316.896160
 20
367.772620
 30
0.0
 10
290.305970
 20
343.692330
 30
0.0
 10
269.002640
 20
307.904710
 30
0.0
 10
259.797690
 20
271.852460
 30
0.0
  0
SPLINE
  5
140
100
AcDbEntity
  8
Image
 62
7
100
AcDbSpline
 70
8
 71
3
 72
8
 73
4
 74
0
 40
0
 40
0
 40
0
 40
0
 40
1
 40
1
 40
1
 40
1
 10
259.797690
 20
271.852460
 30
0.0
 10
254.190530
 20
249.891410
 30
0.0
 10
252.497270
 20
223.375600
 30
0.0
 10
255.418640
 20
203.278430
 30
0.0
  0
SPLINE
  5
141
100
AcDbEntity
  8
Image
 62
7
100
AcDbSpline
 70
8
 71
3
 72
8
 73
4
 74
0
 40
0
 40
0
 40
0
 40
0
 40
1
 40
1
 40
1
 40
1
 10
255.418640
 20
203.278430
 30
0.0
 10
262.835980
 20
152.251830
 30
0.0
 10
283.769550
 20
112.441390
 30
0.0
 10
320.248480
 20
79.988190
 30
0.0
  0
SPLINE
  5
142
100
AcDbEntity
  8
Image
 62
7
100
AcDbSpline
 70
8
 71
3
 72
8
 73
4
 74
0
 40
0
 40
0
 40
0
 40
0
 40
1
 40
1
 40
1
 40
1
 10
320.248480
 20
79.988190
 30
0.0
 10
336.665650
 20
65.382780
 30
0.0
 10
353.885690
 20
54.926670
 30
0.0
 10
379.136350
 20
44.231120
 30
0.0
  0
SPLINE
  5
143
100
AcDbEntity
  8
Image
 62
7
100
AcDbSpline
 70
8
 71
3
 72
8
 73
4
 74
0
 40
0
 40
0
 40
0
 40
0
 40
1
 40
1
 40
1
 40
1
 10
379.136350
 20
44.231120
 30
0.0
 10
391.571600
 20
38.963860
 30
0.0
 10
411.786280
 20
33.689180
 30
0.0
 10
426.873680
 20
31.774860
 30
0.0
  0
SPLINE
  5
144
100
AcDbEntity
  8
Image
 62
7
100
AcDbSpline
 70
8
 71
3
 72
8
 73
4
 74
0
 40
0
 40
0
 40
0
 40
0
 40
1
 40
1
 40
1
 40
1
 10
426.873680
 20
31.774860
 30
0.0
 10
433.756320
 20
30.901570
 30
0.0
 10
471.548330
 20
32.264040
 30
0.0
 10
480.764720
 20
33.717720
 30
0.0
  0
LWPOLYLINE
  5
145
100
AcDbEntity
  8
Image
 62
7
100
AcDbPolyline
 90
1
 70
1
 10
438.873680
 20
24.858410
 30
0.0
  0
SPLINE
  5
146
100
AcDbEntity
  8
Image
 62
7
100
AcDbSpline
 70
8
 71
3
 72
8
 73
4
 74
0
 40
0
 40
0
 40
0
 40
0
 40
1
 40
1
 40
1
 40
1
 10
470.488310
 20
94.698040
 30
0.0
 10
502.443260
 20
100.270520
 30
0.0
 10
529.233890
 20
116.572480
 30
0.0
 10
552.763120
 20
144.761860
 30
0.0
  0
SPLINE
  5
147
100
AcDbEntity
  8
Image
 62
7
100
AcDbSpline
 70
8
 71
3
 72
8
 73
4
 74
0
 40
0
 40
0
 40
0
 40
0
 40
1
 40
1
 40
1
 40
1
 10
552.763120
 20
144.761860
 30
0.0
 10
564.828210
 20
159.216530
 30
0.0
 10
575.243110
 20
182.398150
 30
0.0
 10
578.995450
 20
203.150090
 30
0.0
  0
SPLINE
  5
148
100
AcDbEntity
  8
Image
 62
7
100
AcDbSpline
 70
8
 71
3
 72
8
 73
4
 74
0
 40
0
 40
0
 40
0
 40
0
 40
1
 40
1
 40
1
 40
1
 10
578.995450
 20
203.150090
 30
0.0
 10
580.637210
 20
212.229720
 30
0.0
 10
580.650530
 20
236.808710
 30
0.0
 10
579.019150
 20
246.931800
 30
0.0
  0
SPLINE
  5
149
100
AcDbEntity
  8
Image
 62
7
100
AcDbSpline
 70
8
 71
3
 72
8
 73
4
 74
0
 40
0
 40
0
 40
0
 40
0
 40
1
 40
1
 40
1
 40
1
 10
579.019150
 20
246.931800
 30
0.0
 10
576.313350
 20
263.722230
 30
0.0
 10
566.672320
 20
286.649840
 30
0.0
 10
555.799940
 20
302.150090
 30
0.0
  0
SPLINE
  5
14a
100
AcDbEntity
  8
Image
 62
7
100
AcDbSpline
 70
8
 71
3
 72
8
 73
4
 74
0
 40
0
 40
0
 40
0
 40
0
 40
1
 40
1
 40
1
 40
1
 10
555.799940
 20
302.150090
 30
0.0
 10
544.204850
 20
318.680670
 30
0.0
 10
523.945110
 20
335.633260
 30
0.0
 10
505.759390
 20
344.022160
 30
0.0
  0
SPLINE
  5
14b
100
AcDbEntity
  8
Image
 62
7
100
AcDbSpline
 70
8
 71
3
 72
8
 73
4
 74
0
 40
0
 40
0
 40
0
 40
0
 40
1
 40
1
 40
1
 40
1
 10
505.759390
 20
344.022160
 30
0.0
 10
482.833390
 20
354.597700
 30
0.0
 10
471.841160
 20
357.156660
 30
0.0
 10
449.399910
 20
357.142500
 30
0.0
  0
SPLINE
  5
14c
100
AcDbEntity
  8
Image
 62
7
100
AcDbSpline
 70
8
 71
3
 72
8
 73
4
 74
0
 40
0
 40
0
 40
0
 40
0
 40
1
 40
1
 40
1
 40
1
 10
449.399910
 20
357.142500
 30
0.0
 10
425.160050
 20
357.127200
 30
0.0
 10
412.532770
 20
354.124650
 30
0.0
 10
390.090760
 20
343.039800
 30
0.0
  0
SPLINE
  5
14d
100
AcDbEntity
  8
Image
 62
7
100
AcDbSpline
 70
8
 71
3
 72
8
 73
4
 74
0
 40
0
 40
0
 40
0
 40
0
 40
1
 40
1
 40
1
 40
1
 10
390.090760
 20
343.039800
 30
0.0
 10
356.413410
 20
326.405440
 30
0.0
 10
334.341000
 20
300.323400
 30
0.0
 10
320.790090
 20
261.150090
 30
0.0
  0
SPLINE
  5
14e
100
AcDbEntity
  8
Image
 62
7
100
AcDbSpline
 70
8
 71
3
 72
8
 73
4
 74
0
 40
0
 40
0
 40
0
 40
0
 40
1
 40
1
 40
1
 40
1
 10
320.790090
 20
261.150090
 30
0.0
 10
317.584780
 20
251.884110
 30
0.0
 10
317.493280
 20
251.153990
 30
0.0
 10
317.075810
 20
231.510900
 30
0.0
  0
SPLINE
  5
14f
100
AcDbEntity
  8
Image
 62
7
100
AcDbSpline
 70
8
 71
3
 72
8
 73
4
 74
0
 40
0
 40
0
 40
0
 40
0
 40
1
 40
1
 40
1
 40
1
 10
317.075810
 20
231.510900
 30
0.0
 10
316.831560
 20
220.018230
 30
0.0
 10
317.111610
 20
207.925520
 30
0.0
 10
317.728020
 20
203.344980
 30
0.0
  0
SPLINE
  5
150
100
AcDbEntity
  8
Image
 62
7
100
AcDbSpline
 70
8
 71
3
 72
8
 73
4
 74
0
 40
0
 40
0
 40
0
 40
0
 40
1
 40
1
 40
1
 40
1
 10
317.728020
 20
203.344980
 30
0.0
 10
318.865500
 20
194.892870
 30
0.0
 10
324.758920
 20
177.496190
 30
0.0
 10
330.504800
 20
165.629410
 30
0.0
  0
SPLINE
  5
151
100
AcDbEntity
  8
Image
 62
7
100
AcDbSpline
 70
8
 71
3
 72
8
 73
4
 74
0
 40
0
 40
0
 40
0
 40
0
 40
1
 40
1
 40
1
 40
1
 10
330.504800
 20
165.629410
 30
0.0
 10
339.473410
 20
147.106860
 30
0.0
 10
362.806620
 20
122.404070
 30
0.0
 10
382.086150
 20
111.020420
 30
0.0
  0
SPLINE
  5
152
100
AcDbEntity
  8
Image
 62
7
100
AcDbSpline
 70
8
 71
3
 72
8
 73
4
 74
0
 40
0
 40
0
 40
0
 40
0
 40
1
 40
1
 40
1
 40
1
 10
382.086150
 20
111.020420
 30
0.0
 10
394.789510
 20
103.519670
 30
0.0
 10
415.730190
 20
95.915500
 30
0.0
 10
428.373680
 20
94.212070
 30
0.0
  0
SPLINE
  5
153
100
AcDbEntity
  8
Image
 62
7
100
AcDbSpline
 70
8
 71
3
 72
8
 73
4
 74
0
 40
0
 40
0
 40
0
 40
0
 40
1
 40
1
 40
1
 40
1
 10
428.373680
 20
94.212070
 30
0.0
 10
438.908290
 20
92.792760
 30
0.0
 10
461.026180
 20
93.047980
 30
0.0
 10
470.488310
 20
94.698040
 30
0.0
  0
LWPOLYLINE
  5
154
100
AcDbEntity
  8
Image
 62
7
100
AcDbPolyline
 90
1
 70
1
 10
480.764720
 20
33.717720
 30
0.0
  0
SPLINE
  5
155
100
AcDbEntity
  8
Image
 62
7
100
AcDbSpline
 70
8
 71
3
 72
8
 73
4
 74
0
 40
0
 40
0
 40
0
 40
0
 40
1
 40
1
 40
1
 40
1
 10
398.362120
 20
146.326180
 30
0.0
 10
398.084080
 20
147.054330
 30
0.0
 10
397.972940
 20
181.850090
 30
0.0
 10
398.115140
 20
223.650090
 30
0.0
  0
LWPOLYLINE
  5
156
100
AcDbEntity
  8
Image
 62
7
100
AcDbPolyline
 90
1
 70
1
 10
470.488310
 20
94.698040
 30
0.0
  0
SPLINE
  5
157
100
AcDbEntity
  8
Image
 62
7
100
AcDbSpline
 70
8
 71
3
 72
8
 73
4
 74
0
 40
0
 40
0
 40
0
 40
0
 40
1
 40
1
 40
1
 40
1
 10
400.762690
 20
299.650090
 30
0.0
 10
402.863110
 20
299.650090
 30
0.0
 10
406.064350
 20
294.547700
 30
0.0
 10
427.262690
 20
257.412280
 30
0.0
  0
SPLINE
  5
158
100
AcDbEntity
  8
Image
 62
7
100
AcDbSpline
 70
8
 71
3
 72
8
 73
4
 74
0
 40
0
 40
0
 40
0
 40
0
 40
1
 40
1
 40
1
 40
1
 10
427.262690
 20
257.412280
 30
0.0
 10
440.523740
 20
234.181490
 30
0.0
 10
451.629010
 20
215.168990
 30
0.0
 10
451.941080
 20
215.162280
 30
0.0
  0
SPLINE
  5
159
100
AcDbEntity
  8
Image
 62
7
100
AcDbSpline
 70
8
 71
3
 72
8
 73
4
 74
0
 40
0
 40
0
 40
0
 40
0
 40
1
 40
1
 40
1
 40
1
 10
451.941080
 20
215.162280
 30
0.0
 10
452.253150
 20
215.155280
 30
0.0
 10
462.665630
 20
234.387590
 30
0.0
 10
475.079940
 20
257.900090
 30
0.0
  0
SPLINE
  5
15a
100
AcDbEntity
  8
Image
 62
7
100
AcDbSpline
 70
8
 71
3
 72
8
 73
4
 74
0
 40
0
 40
0
 40
0
 40
0
 40
1
 40
1
 40
1
 40
1
 10
475.079940
 20
257.900090
 30
0.0
 10
492.469170
 20
290.835020
 30
0.0
 10
498.078710
 20
300.650090
 30
0.0
 10
499.512540
 20
300.650090
 30
0.0
  0
SPLINE
  5
15b
100
AcDbEntity
  8
Image
 62
7
100
AcDbSpline
 70
8
 71
3
 72
8
 73
4
 74
0
 40
0
 40
0
 40
0
 40
0
 40
1
 40
1
 40
1
 40
1
 10
499.512540
 20
300.650090
 30
0.0
 10
501.310960
 20
300.650090
 30
0.0
 10
501.373680
 20
298.105690
 30
0.0
 10
501.373680
 20
225.150090
 30
0.0
  0
SPLINE
  5
15c
100
AcDbEntity
  8
Image
 62
7
100
AcDbSpline
 70
8
 71
3
 72
8
 73
4
 74
0
 40
0
 40
0
 40
0
 40
0
 40
1
 40
1
 40
1
 40
1
 10
501.373680
 20
225.150090
 30
0.0
 10
501.373680
 20
150.316760
 30
0.0
 10
501.355980
 20
149.650090
 30
0.0
 10
499.373680
 20
149.650090
 30
0.0
  0
SPLINE
  5
15d
100
AcDbEntity
  8
Image
 62
7
100
AcDbSpline
 70
8
 71
3
 72
8
 73
4
 74
0
 40
0
 40
0
 40
0
 40
0
 40
1
 40
1
 40
1
 40
1
 10
499.373680
 20
149.650090
 30
0.0
 10
497.397850
 20
149.650090
 30
0.0
 10
497.367640
 20
150.483420
 30
0.0
 10
496.873680
 20
218.599540
 30
0.0
  0
LWPOLYLINE
  5
15e
100
AcDbEntity
  8
Image
 62
7
100
AcDbPolyline
 90
3
 70
0
 10
398.115140
 20
223.650090
 30
0.0
 10
398.373680
 20
299.650090
 30
0.0
 10
400.762690
 20
299.650090
 30
0.0
  0
SPLINE
  5
15f
100
AcDbEntity
  8
Image
 62
7
100
AcDbSpline
 70
8
 71
3
 72
8
 73
4
 74
0
 40
0
 40
0
 40
0
 40
0
 40
1
 40
1
 40
1
 40
1
 10
478.199370
 20
253.099540
 30
0.0
 10
468.203500
 20
234.152340
 30
0.0
 10
458.605860
 20
215.950090
 30
0.0
 10
456.871280
 20
212.650090
 30
0.0
  0
SPLINE
  5
160
100
AcDbEntity
  8
Image
 62
7
100
AcDbSpline
 70
8
 71
3
 72
8
 73
4
 74
0
 40
0
 40
0
 40
0
 40
0
 40
1
 40
1
 40
1
 40
1
 10
456.871280
 20
212.650090
 30
0.0
 10
455.128170
 20
209.333860
 30
0.0
 10
453.038000
 20
206.650090
 30
0.0
 10
452.198360
 20
206.650090
 30
0.0
  0
SPLINE
  5
161
100
AcDbEntity
  8
Image
 62
7
100
AcDbSpline
 70
8
 71
3
 72
8
 73
4
 74
0
 40
0
 40
0
 40
0
 40
0
 40
1
 40
1
 40
1
 40
1
 10
452.198360
 20
206.650090
 30
0.0
 10
451.246010
 20
206.650090
 30
0.0
 10
441.854480
 20
222.052580
 30
0.0
 10
427.026450
 20
247.933030
 30
0.0
  0
LWPOLYLINE
  5
162
100
AcDbEntity
  8
Image
 62
7
100
AcDbPolyline
 90
3
 70
0
 10
496.873680
 20
218.599540
 30
0.0
 10
496.373680
 20
287.548990
 30
0.0
 10
478.199370
 20
253.099540
 30
0.0
  0
SPLINE
  5
163
100
AcDbEntity
  8
Image
 62
7
100
AcDbSpline
 70
8
 71
3
 72
8
 73
4
 74
0
 40
0
 40
0
 40
0
 40
0
 40
1
 40
1
 40
1
 40
1
 10
402.873680
 20
217.446590
 30
0.0
 10
402.404290
 20
150.070770
 30
0.0
 10
402.266360
 20
145.656560
 30
0.0
 10
400.620660
 20
145.339750
 30
0.0
  0
SPLINE
  5
164
100
AcDbEntity
  8
Image
 62
7
100
AcDbSpline
 70
8
 71
3
 72
8
 73
4
 74
0
 40
0
 40
0
 40
0
 40
0
 40
1
 40
1
 40
1
 40
1
 10
400.620660
 20
145.339750
 30
0.0
 10
399.656490
 20
145.154140
 30
0.0
 10
398.640150
 20
145.598030
 30
0.0
 10
398.362120
 20
146.326180
 30
0.0
  0
LWPOLYLINE
  5
165
100
AcDbEntity
  8
Image
 62
7
100
AcDbPolyline
 90
3
 70
0
 10
427.026450
 20
247.933030
 30
0.0
 10
403.373680
 20
289.215970
 30
0.0
 10
402.873680
 20
217.446590
 30
0.0
  0
SPLINE
  5
166
100
AcDbEntity
  8
Image
 62
7
100
AcDbSpline
 70
8
 71
3
 72
8
 73
4
 74
0
 40
0
 40
0
 40
0
 40
0
 40
1
 40
1
 40
1
 40
1
 10
468.373680
 20
368.627180
 30
0.0
 10
480.091410
 20
370.315060
 30
0.0
 10
492.657180
 20
374.383140
 30
0.0
 10
504.152150
 20
380.210200
 30
0.0
  0
SPLINE
  5
167
100
AcDbEntity
  8
Image
 62
7
100
AcDbSpline
 70
8
 71
3
 72
8
 73
4
 74
0
 40
0
 40
0
 40
0
 40
0
 40
1
 40
1
 40
1
 40
1
 10
504.152150
 20
380.210200
 30
0.0
 10
519.479350
 20
387.979910
 30
0.0
 10
533.920970
 20
398.646520
 30
0.0
 10
532.414160
 20
401.084590
 30
0.0
  0
SPLINE
  5
168
100
AcDbEntity
  8
Image
 62
7
100
AcDbSpline
 70
8
 71
3
 72
8
 73
4
 74
0
 40
0
 40
0
 40
0
 40
0
 40
1
 40
1
 40
1
 40
1
 10
532.414160
 20
401.084590
 30
0.0
 10
531.460350
 20
402.627890
 30
0.0
 10
520.356120
 20
407.727760
 30
0.0
 10
509.873680
 20
411.436800
 30
0.0
  0
SPLINE
  5
169
100
AcDbEntity
  8
Image
 62
7
100
AcDbSpline
 70
8
 71
3
 72
8
 73
4
 74
0
 40
0
 40
0
 40
0
 40
0
 40
1
 40
1
 40
1
 40
1
 10
509.873680
 20
411.436800
 30
0.0
 10
486.745770
 20
419.620260
 30
0.0
 10
471.332140
 20
421.682730
 30
0.0
 10
439.081930
 20
420.909340
 30
0.0
  0
SPLINE
  5
16a
100
AcDbEntity
  8
Image
 62
7
100
AcDbSpline
 70
8
 71
3
 72
8
 73
4
 74
0
 40
0
 40
0
 40
0
 40
0
 40
1
 40
1
 40
1
 40
1
 10
439.081930
 20
420.909340
 30
0.0
 10
420.489060
 20
420.463470
 30
0.0
 10
418.609650
 20
420.235590
 30
0.0
 10
405.873680
 20
416.882810
 30
0.0
  0
SPLINE
  5
16b
100
AcDbEntity
  8
Image
 62
7
100
AcDbSpline
 70
8
 71
3
 72
8
 73
4
 74
0
 40
0
 40
0
 40
0
 40
0
 40
1
 40
1
 40
1
 40
1
 10
405.873680
 20
416.882810
 30
0.0
 10
386.029010
 20
411.658650
 30
0.0
 10
363.868000
 20
402.634160
 30
0.0
 10
363.877410
 20
399.780940
 30
0.0
  0
SPLINE
  5
16c
100
AcDbEntity
  8
Image
 62
7
100
AcDbSpline
 70
8
 71
3
 72
8
 73
4
 74
0
 40
0
 40
0
 40
0
 40
0
 40
1
 40
1
 40
1
 40
1
 10
363.877410
 20
399.780940
 30
0.0
 10
363.879410
 20
399.158970
 30
0.0
 10
366.466970
 20
396.570420
 30
0.0
 10
369.627410
 20
394.028600
 30
0.0
  0
SPLINE
  5
16d
100
AcDbEntity
  8
Image
 62
7
100
AcDbSpline
 70
8
 71
3
 72
8
 73
4
 74
0
 40
0
 40
0
 40
0
 40
0
 40
1
 40
1
 40
1
 40
1
 10
369.627410
 20
394.028600
 30
0.0
 10
384.687390
 20
381.916480
 30
0.0
 10
403.141600
 20
373.223490
 30
0.0
 10
422.373680
 20
369.182070
 30
0.0
  0
SPLINE
  5
16e
100
AcDbEntity
  8
Image
 62
7
100
AcDbSpline
 70
8
 71
3
 72
8
 73
4
 74
0
 40
0
 40
0
 40
0
 40
0
 40
1
 40
1
 40
1
 40
1
 10
422.373680
 20
369.182070
 30
0.0
 10
433.543810
 20
366.834780
 30
0.0
 10
454.200510
 20
366.585610
 30
0.0
 10
468.373680
 20
368.627180
 30
0.0
  0
LWPOLYLINE
  5
16f
100
AcDbEntity
  8
Image
 62
7
100
AcDbPolyline
 90
1
 70
1
 10
398.362120
 20
146.326180
 30
0.0
  0
SPLINE
  5
170
100
AcDbEntity
  8
Image
 62
7
100
AcDbSpline
 70
8
 71
3
 72
8
 73
4
 74
0
 40
0
 40
0
 40
0
 40
0
 40
1
 40
1
 40
1
 40
1
 10
370.611970
 20
409.786070
 30
0.0
 10
383.969210
 20
415.329120
 30
0.0
 10
391.566540
 20
417.728970
 30
0.0
 10
406.605270
 20
421.155650
 30
0.0
  0
SPLINE
  5
171
100
AcDbEntity
  8
Image
 62
7
100
AcDbSpline
 70
8
 71
3
 72
8
 73
4
 74
0
 40
0
 40
0
 40
0
 40
0
 40
1
 40
1
 40
1
 40
1
 10
406.605270
 20
421.155650
 30
0.0
 10
414.177900
 20
422.881130
 30
0.0
 10
420.698770
 20
424.608350
 30
0.0
 10
421.096110
 20
424.993920
 30
0.0
  0
SPLINE
  5
172
100
AcDbEntity
  8
Image
 62
7
100
AcDbSpline
 70
8
 71
3
 72
8
 73
4
 74
0
 40
0
 40
0
 40
0
 40
0
 40
1
 40
1
 40
1
 40
1
 10
421.096110
 20
424.993920
 30
0.0
 10
421.493450
 20
425.379490
 30
0.0
 10
418.343450
 20
427.709560
 30
0.0
 10
414.096110
 20
430.171860
 30
0.0
  0
SPLINE
  5
173
100
AcDbEntity
  8
Image
 62
7
100
AcDbSpline
 70
8
 71
3
 72
8
 73
4
 74
0
 40
0
 40
0
 40
0
 40
0
 40
1
 40
1
 40
1
 40
1
 10
414.096110
 20
430.171860
 30
0.0
 10
404.027690
 20
436.008810
 30
0.0
 10
393.645820
 20
446.445590
 30
0.0
 10
387.757170
 20
456.650090
 30
0.0
  0
SPLINE
  5
174
100
AcDbEntity
  8
Image
 62
7
100
AcDbSpline
 70
8
 71
3
 72
8
 73
4
 74
0
 40
0
 40
0
 40
0
 40
0
 40
1
 40
1
 40
1
 40
1
 10
387.757170
 20
456.650090
 30
0.0
 10
379.778500
 20
470.476410
 30
0.0
 10
379.373680
 20
472.214750
 30
0.0
 10
379.373680
 20
492.650090
 30
0.0
  0
LWPOLYLINE
  5
175
100
AcDbEntity
  8
Image
 62
7
100
AcDbPolyline
 90
1
 70
1
 10
468.373680
 20
368.627180
 30
0.0
  0
SPLINE
  5
176
100
AcDbEntity
  8
Image
 62
7
100
AcDbSpline
 70
8
 71
3
 72
8
 73
4
 74
0
 40
0
 40
0
 40
0
 40
0
 40
1
 40
1
 40
1
 40
1
 10
383.026730
 20
518.312200
 30
0.0
 10
392.407330
 20
537.987560
 30
0.0
 10
406.788490
 20
551.887920
 30
0.0
 10
424.441520
 20
558.342390
 30
0.0
  0
SPLINE
  5
177
100
AcDbEntity
  8
Image
 62
7
100
AcDbSpline
 70
8
 71
3
 72
8
 73
4
 74
0
 40
0
 40
0
 40
0
 40
0
 40
1
 40
1
 40
1
 40
1
 10
424.441520
 20
558.342390
 30
0.0
 10
433.484980
 20
561.648940
 30
0.0
 10
457.447440
 20
562.158870
 30
0.0
 10
468.806190
 20
559.286480
 30
0.0
  0
SPLINE
  5
178
100
AcDbEntity
  8
Image
 62
7
100
AcDbSpline
 70
8
 71
3
 72
8
 73
4
 74
0
 40
0
 40
0
 40
0
 40
0
 40
1
 40
1
 40
1
 40
1
 10
468.806190
 20
559.286480
 30
0.0
 10
489.195670
 20
554.130410
 30
0.0
 10
510.212500
 20
533.321960
 30
0.0
 10
515.957900
 20
512.602280
 30
0.0
  0
SPLINE
  5
179
100
AcDbEntity
  8
Image
 62
7
100
AcDbSpline
 70
8
 71
3
 72
8
 73
4
 74
0
 40
0
 40
0
 40
0
 40
0
 40
1
 40
1
 40
1
 40
1
 10
515.957900
 20
512.602280
 30
0.0
 10
519.809460
 20
498.712360
 30
0.0
 10
519.360910
 20
481.250770
 30
0.0
 10
514.798290
 20
467.459650
 30
0.0
  0
SPLINE
  5
17a
100
AcDbEntity
  8
Image
 62
7
100
AcDbSpline
 70
8
 71
3
 72
8
 73
4
 74
0
 40
0
 40
0
 40
0
 40
0
 40
1
 40
1
 40
1
 40
1
 10
514.798290
 20
467.459650
 30
0.0
 10
510.564250
 20
454.661700
 30
0.0
 10
497.978500
 20
439.691050
 30
0.0
 10
483.828140
 20
430.620900
 30
0.0
  0
SPLINE
  5
17b
100
AcDbEntity
  8
Image
 62
7
100
AcDbSpline
 70
8
 71
3
 72
8
 73
4
 74
0
 40
0
 40
0
 40
0
 40
0
 40
1
 40
1
 40
1
 40
1
 10
483.828140
 20
430.620900
 30
0.0
 10
479.953490
 20
428.137310
 30
0.0
 10
477.033820
 20
425.699990
 30
0.0
 10
477.339970
 20
425.204630
 30
0.0
  0
SPLINE
  5
17c
100
AcDbEntity
  8
Image
 62
7
100
AcDbSpline
 70
8
 71
3
 72
8
 73
4
 74
0
 40
0
 40
0
 40
0
 40
0
 40
1
 40
1
 40
1
 40
1
 10
477.339970
 20
425.204630
 30
0.0
 10
477.646130
 20
424.709260
 30
0.0
 10
479.353950
 20
424.012340
 30
0.0
 10
481.135150
 20
423.655910
 30
0.0
  0
SPLINE
  5
17d
100
AcDbEntity
  8
Image
 62
7
100
AcDbSpline
 70
8
 71
3
 72
8
 73
4
 74
0
 40
0
 40
0
 40
0
 40
0
 40
1
 40
1
 40
1
 40
1
 10
481.135150
 20
423.655910
 30
0.0
 10
494.687210
 20
420.944070
 30
0.0
 10
511.660120
 20
416.292380
 30
0.0
 10
520.201360
 20
412.949220
 30
0.0
  0
SPLINE
  5
17e
100
AcDbEntity
  8
Image
 62
7
100
AcDbSpline
 70
8
 71
3
 72
8
 73
4
 74
0
 40
0
 40
0
 40
0
 40
0
 40
1
 40
1
 40
1
 40
1
 10
520.201360
 20
412.949220
 30
0.0
 10
525.796140
 20
410.759350
 30
0.0
 10
532.329570
 20
408.221180
 30
0.0
 10
534.720110
 20
407.308860
 30
0.0
  0
LWPOLYLINE
  5
17f
100
AcDbEntity
  8
Image
 62
7
100
AcDbPolyline
 90
3
 70
0
 10
379.373680
 20
492.650090
 30
0.0
 10
379.373680
 20
510.650090
 30
0.0
 10
383.026730
 20
518.312200
 30
0.0
  0
SPLINE
  5
180
100
AcDbEntity
  8
Image
 62
7
100
AcDbSpline
 70
8
 71
3
 72
8
 73
4
 74
0
 40
0
 40
0
 40
0
 40
0
 40
1
 40
1
 40
1
 40
1
 10
543.415900
 20
410.436960
 30
0.0
 10
555.239550
 20
423.449980
 30
0.0
 10
567.442320
 20
448.377190
 30
0.0
 10
571.913330
 20
468.650090
 30
0.0
  0
SPLINE
  5
181
100
AcDbEntity
  8
Image
 62
7
100
AcDbSpline
 70
8
 71
3
 72
8
 73
4
 74
0
 40
0
 40
0
 40
0
 40
0
 40
1
 40
1
 40
1
 40
1
 10
571.913330
 20
468.650090
 30
0.0
 10
573.708530
 20
476.790070
 30
0.0
 10
573.306120
 20
510.346350
 30
0.0
 10
571.307330
 20
519.183610
 30
0.0
  0
SPLINE
  5
182
100
AcDbEntity
  8
Image
 62
7
100
AcDbSpline
 70
8
 71
3
 72
8
 73
4
 74
0
 40
0
 40
0
 40
0
 40
0
 40
1
 40
1
 40
1
 40
1
 10
571.307330
 20
519.183610
 30
0.0
 10
569.577810
 20
526.830340
 30
0.0
 10
565.666670
 20
538.145890
 30
0.0
 10
561.986580
 20
546.150090
 30
0.0
  0
SPLINE
  5
183
100
AcDbEntity
  8
Image
 62
7
100
AcDbSpline
 70
8
 71
3
 72
8
 73
4
 74
0
 40
0
 40
0
 40
0
 40
0
 40
1
 40
1
 40
1
 40
1
 10
561.986580
 20
546.150090
 30
0.0
 10
558.698420
 20
553.301810
 30
0.0
 10
558.964170
 20
553.843920
 30
0.0
 10
566.008060
 20
554.353430
 30
0.0
  0
SPLINE
  5
184
100
AcDbEntity
  8
Image
 62
7
100
AcDbSpline
 70
8
 71
3
 72
8
 73
4
 74
0
 40
0
 40
0
 40
0
 40
0
 40
1
 40
1
 40
1
 40
1
 10
566.008060
 20
554.353430
 30
0.0
 10
570.180300
 20
554.655220
 30
0.0
 10
572.530830
 20
555.328310
 30
0.0
 10
573.356700
 20
556.457750
 30
0.0
  0
SPLINE
  5
185
100
AcDbEntity
  8
Image
 62
7
100
AcDbSpline
 70
8
 71
3
 72
8
 73
4
 74
0
 40
0
 40
0
 40
0
 40
0
 40
1
 40
1
 40
1
 40
1
 10
573.356700
 20
556.457750
 30
0.0
 10
575.947130
 20
560.000370
 30
0.0
 10
576.227880
 20
594.588064
 30
0.0
 10
573.733010
 20
602.818184
 30
0.0
  0
SPLINE
  5
186
100
AcDbEntity
  8
Image
 62
7
100
AcDbSpline
 70
8
 71
3
 72
8
 73
4
 74
0
 40
0
 40
0
 40
0
 40
0
 40
1
 40
1
 40
1
 40
1
 10
573.733010
 20
602.818184
 30
0.0
 10
572.728080
 20
606.133280
 30
0.0
 10
570.091200
 20
608.368545
 30
0.0
 10
565.873680
 20
609.480494
 30
0.0
  0
SPLINE
  5
187
100
AcDbEntity
  8
Image
 62
7
100
AcDbSpline
 70
8
 71
3
 72
8
 73
4
 74
0
 40
0
 40
0
 40
0
 40
0
 40
1
 40
1
 40
1
 40
1
 10
565.873680
 20
609.480494
 30
0.0
 10
564.498680
 20
609.843013
 30
0.0
 10
547.398680
 20
610.593445
 30
0.0
 10
527.873680
 20
611.148121
 30
0.0
  0
SPLINE
  5
188
100
AcDbEntity
  8
Image
 62
7
100
AcDbSpline
 70
8
 71
3
 72
8
 73
4
 74
0
 40
0
 40
0
 40
0
 40
0
 40
1
 40
1
 40
1
 40
1
 10
527.873680
 20
611.148121
 30
0.0
 10
488.581430
 20
612.264356
 30
0.0
 10
487.260170
 20
612.365796
 30
0.0
 10
476.642080
 20
615.081447
 30
0.0
  0
SPLINE
  5
189
100
AcDbEntity
  8
Image
 62
7
100
AcDbSpline
 70
8
 71
3
 72
8
 73
4
 74
0
 40
0
 40
0
 40
0
 40
0
 40
1
 40
1
 40
1
 40
1
 10
476.642080
 20
615.081447
 30
0.0
 10
465.319480
 20
617.977279
 30
0.0
 10
448.037110
 20
619.354249
 30
0.0
 10
436.873680
 20
618.249987
 30
0.0
  0
SPLINE
  5
18a
100
AcDbEntity
  8
Image
 62
7
100
AcDbSpline
 70
8
 71
3
 72
8
 73
4
 74
0
 40
0
 40
0
 40
0
 40
0
 40
1
 40
1
 40
1
 40
1
 10
436.873680
 20
618.249987
 30
0.0
 10
399.842280
 20
614.586923
 30
0.0
 10
369.659690
 20
597.268425
 30
0.0
 10
345.202840
 20
565.650092
 30
0.0
  0
SPLINE
  5
18b
100
AcDbEntity
  8
Image
 62
7
100
AcDbSpline
 70
8
 71
3
 72
8
 73
4
 74
0
 40
0
 40
0
 40
0
 40
0
 40
1
 40
1
 40
1
 40
1
 10
345.202840
 20
565.650092
 30
0.0
 10
339.827370
 20
558.700560
 30
0.0
 10
332.121310
 20
543.096940
 30
0.0
 10
327.670690
 20
530.150090
 30
0.0
  0
LWPOLYLINE
  5
18c
100
AcDbEntity
  8
Image
 62
7
100
AcDbPolyline
 90
3
 70
0
 10
534.720110
 20
407.308860
 30
0.0
 10
539.066540
 20
405.650090
 30
0.0
 10
543.415900
 20
410.436960
 30
0.0
  0
SPLINE
  5
18d
100
AcDbEntity
  8
Image
 62
7
100
AcDbSpline
 70
8
 71
3
 72
8
 73
4
 74
0
 40
0
 40
0
 40
0
 40
0
 40
1
 40
1
 40
1
 40
1
 10
323.373680
 20
493.150090
 30
0.0
 10
323.373680
 20
470.774700
 30
0.0
 10
323.567010
 20
467.983550
 30
0.0
 10
325.603120
 20
460.963880
 30
0.0
  0
SPLINE
  5
18e
100
AcDbEntity
  8
Image
 62
7
100
AcDbSpline
 70
8
 71
3
 72
8
 73
4
 74
0
 40
0
 40
0
 40
0
 40
0
 40
1
 40
1
 40
1
 40
1
 10
325.603120
 20
460.963880
 30
0.0
 10
330.577030
 20
443.815830
 30
0.0
 10
340.050010
 20
425.344240
 30
0.0
 10
349.995750
 20
413.400090
 30
0.0
  0
SPLINE
  5
18f
100
AcDbEntity
  8
Image
 62
7
100
AcDbSpline
 70
8
 71
3
 72
8
 73
4
 74
0
 40
0
 40
0
 40
0
 40
0
 40
1
 40
1
 40
1
 40
1
 10
349.995750
 20
413.400090
 30
0.0
 10
357.245020
 20
404.694210
 30
0.0
 10
358.016220
 20
404.559020
 30
0.0
 10
370.611970
 20
409.786070
 30
0.0
  0
LWPOLYLINE
  5
190
100
AcDbEntity
  8
Image
 62
7
100
AcDbPolyline
 90
3
 70
0
 10
327.670690
 20
530.150090
 30
0.0
 10
323.373680
 20
517.650090
 30
0.0
 10
323.373680
 20
493.150090
 30
0.0
  0
SPLINE
  5
191
100
AcDbEntity
  8
Image
 62
7
100
AcDbSpline
 70
8
 71
3
 72
8
 73
4
 74
0
 40
0
 40
0
 40
0
 40
0
 40
1
 40
1
 40
1
 40
1
 10
470.552600
 20
430.575030
 30
0.0
 10
479.807070
 20
433.536360
 30
0.0
 10
487.737590
 20
438.938290
 30
0.0
 10
495.830550
 20
447.793280
 30
0.0
  0
SPLINE
  5
192
100
AcDbEntity
  8
Image
 62
7
100
AcDbSpline
 70
8
 71
3
 72
8
 73
4
 74
0
 40
0
 40
0
 40
0
 40
0
 40
1
 40
1
 40
1
 40
1
 10
495.830550
 20
447.793280
 30
0.0
 10
506.606930
 20
459.584350
 30
0.0
 10
510.793680
 20
468.594120
 30
0.0
 10
512.919410
 20
484.567980
 30
0.0
  0
SPLINE
  5
193
100
AcDbEntity
  8
Image
 62
7
100
AcDbSpline
 70
8
 71
3
 72
8
 73
4
 74
0
 40
0
 40
0
 40
0
 40
0
 40
1
 40
1
 40
1
 40
1
 10
512.919410
 20
484.567980
 30
0.0
 10
516.129020
 20
508.686780
 30
0.0
 10
503.938940
 20
533.963450
 30
0.0
 10
482.559570
 20
547.520450
 30
0.0
  0
SPLINE
  5
194
100
AcDbEntity
  8
Image
 62
7
100
AcDbSpline
 70
8
 71
3
 72
8
 73
4
 74
0
 40
0
 40
0
 40
0
 40
0
 40
1
 40
1
 40
1
 40
1
 10
482.559570
 20
547.520450
 30
0.0
 10
465.522670
 20
558.323820
 30
0.0
 10
440.733710
 20
560.023100
 30
0.0
 10
422.962430
 20
551.605820
 30
0.0
  0
SPLINE
  5
195
100
AcDbEntity
  8
Image
 62
7
100
AcDbSpline
 70
8
 71
3
 72
8
 73
4
 74
0
 40
0
 40
0
 40
0
 40
0
 40
1
 40
1
 40
1
 40
1
 10
422.962430
 20
551.605820
 30
0.0
 10
406.844980
 20
543.971870
 30
0.0
 10
396.992440
 20
534.196870
 30
0.0
 10
388.233400
 20
517.150090
 30
0.0
  0
LWPOLYLINE
  5
196
100
AcDbEntity
  8
Image
 62
7
100
AcDbPolyline
 90
1
 70
1
 10
370.611970
 20
409.786070
 30
0.0
  0
SPLINE
  5
197
100
AcDbEntity
  8
Image
 62
7
100
AcDbSpline
 70
8
 71
3
 72
8
 73
4
 74
0
 40
0
 40
0
 40
0
 40
0
 40
1
 40
1
 40
1
 40
1
 10
388.664550
 20
465.842040
 30
0.0
 10
396.523300
 20
449.978800
 30
0.0
 10
406.418540
 20
439.732760
 30
0.0
 10
420.389110
 20
432.992830
 30
0.0
  0
SPLINE
  5
198
100
AcDbEntity
  8
Image
 62
7
100
AcDbSpline
 70
8
 71
3
 72
8
 73
4
 74
0
 40
0
 40
0
 40
0
 40
0
 40
1
 40
1
 40
1
 40
1
 10
420.389110
 20
432.992830
 30
0.0
 10
430.941300
 20
427.902060
 30
0.0
 10
434.970920
 20
427.164470
 30
0.0
 10
449.873720
 20
427.595950
 30
0.0
  0
SPLINE
  5
199
100
AcDbEntity
  8
Image
 62
7
100
AcDbSpline
 70
8
 71
3
 72
8
 73
4
 74
0
 40
0
 40
0
 40
0
 40
0
 40
1
 40
1
 40
1
 40
1
 10
449.873720
 20
427.595950
 30
0.0
 10
459.914520
 20
427.886660
 30
0.0
 10
463.982810
 20
428.472750
 30
0.0
 10
470.552640
 20
430.575030
 30
0.0
  0
LWPOLYLINE
  5
19a
100
AcDbEntity
  8
Image
 62
7
100
AcDbPolyline
 90
5
 70
0
 10
388.233400
 20
517.150090
 30
0.0
 10
384.379720
 20
509.650090
 30
0.0
 10
384.376720
 20
492.076680
 30
0.0
 10
384.373720
 20
474.503270
 30
0.0
 10
388.664550
 20
465.842040
 30
0.0
  0
SPLINE
  5
19b
100
AcDbEntity
  8
Image
 62
7
100
AcDbSpline
 70
8
 71
3
 72
8
 73
4
 74
0
 40
0
 40
0
 40
0
 40
0
 40
1
 40
1
 40
1
 40
1
 10
453.017060
 20
668.289000
 30
0.0
 10
312.227057
 20
668.289000
 30
0.0
 10
185.300144
 20
583.479148
 30
0.0
 10
131.422143
 20
453.406146
 30
0.0
  0
SPLINE
  5
19c
100
AcDbEntity
  8
Image
 62
7
100
AcDbSpline
 70
8
 71
3
 72
8
 73
4
 74
0
 40
0
 40
0
 40
0
 40
0
 40
1
 40
1
 40
1
 40
1
 10
131.422143
 20
453.406146
 30
0.0
 10
77.544141
 20
323.333144
 30
0.0
 10
107.325401
 20
173.612642
 30
0.0
 10
206.878967
 20
74.059077
 30
0.0
  0
SPLINE
  5
19d
100
AcDbEntity
  8
Image
 62
7
100
AcDbSpline
 70
8
 71
3
 72
8
 73
4
 74
0
 40
0
 40
0
 40
0
 40
0
 40
1
 40
1
 40
1
 40
1
 10
206.878967
 20
74.059077
 30
0.0
 10
306.432532
 20
-25.494489
 30
0.0
 10
456.153034
 20
-55.275749
 30
0.0
 10
586.226036
 20
-1.397747
 30
0.0
  0
SPLINE
  5
19e
100
AcDbEntity
  8
Image
 62
7
100
AcDbSpline
 70
8
 71
3
 72
8
 73
4
 74
0
 40
0
 40
0
 40
0
 40
0
 40
1
 40
1
 40
1
 40
1
 10
586.226036
 20
-1.397747
 30
0.0
 10
716.299038
 20
52.480254
 30
0.0
 10
801.108890
 20
179.407167
 30
0.0
 10
801.108890
 20
320.197170
 30
0.0
  0
SPLINE
  5
19f
100
AcDbEntity
  8
Image
 62
7
100
AcDbSpline
 70
8
 71
3
 72
8
 73
4
 74
0
 40
0
 40
0
 40
0
 40
0
 40
1
 40
1
 40
1
 40
1
 10
801.108890
 20
320.197170
 30
0.0
 10
801.108890
 20
512.442979
 30
0.0
 10
645.262869
 20
668.289000
 30
0.0
 10
453.017060
 20
668.289000
 30
0.0
  0
LWPOLYLINE
  5
1a0
100
AcDbEntity
  8
Image
 62
7
100
AcDbPolyline
 90
1
 70
1
 10
470.552640
 20
430.575030
 30
0.0
  0
LWPOLYLINE
  5
1a1
100
AcDbEntity
  8
Image
 62
7
100
AcDbPolyline
 90
1
 70
1
 10
453.017060
 20
668.289000
 30
0.0
  0
ENDSEC
  0
SECTION
  2
OBJECTS
  0
DICTIONARY
  5
C
330
0
100
AcDbDictionary
  3
ACAD_GROUP
350
D
  3
ACAD_MLINESTYLE
350
17
  0
DICTIONARY
  5
D
330
C
100
AcDbDictionary
  0
DICTIONARY
  5
1A
330
C
100
AcDbDictionary
  0
DICTIONARY
  5
17
330
C
100
AcDbDictionary
  3
STANDARD
350
18
  0
DICTIONARY
  5
19
330
C
100
AcDbDictionary
  0
ENDSEC
  0
EOF
