  0
SECTION
  2
HEADER
  9
$ACADVER
  1
AC1014
  9
$HANDSEED
  5
FFFF
  9
$INSUNITS
 70
     4
  9
$MEASUREMENT
 70
     1
  0
ENDSEC
  0
SECTION
  2
TABLES
  0
TABLE
  2
VPORT
  5
8
330
0
100
AcDbSymbolTable
 70
     4
  0
VPORT
  5
2E
330
8
100
AcDbSymbolTableRecord
100
AcDbViewportTableRecord
  2
*ACTIVE
 70
     0
 10
0.0
 20
0.0
 11
1.0
 21
1.0
 12
210.0
 22
148.5
 13
0.0
 23
0.0
 14
10.0
 24
10.0
 15
10.0
 25
10.0
 16
0.0
 26
0.0
 36
1.0
 17
0.0
 27
0.0
 37
0.0
 40
341.0
 41
1.24
 42
50.0
 43
0.0
 44
0.0
 50
0.0
 51
0.0
 71
     0
 72
   100
 73
     1
 74
     3
 75
     0
 76
     0
 77
     0
 78
     0
  0
ENDTAB
  0
TABLE
  2
LTYPE
  5
5
330
0
100
AcDbSymbolTable
 70
     1
  0
LTYPE
  5
14
330
5
100
AcDbSymbolTableRecord
100
AcDbLinetypeTableRecord
  2
BYBLOCK
 70
     0
  3

 72
    65
 73
     0
 40
0.0
  0
LTYPE
  5
15
330
5
100
AcDbSymbolTableRecord
100
AcDbLinetypeTableRecord
  2
BYLAYER
 70
     0
  3

 72
    65
 73
     0
 40
0.0
  0
LTYPE
  5
16
330
5
100
AcDbSymbolTableRecord
100
AcDbLinetypeTableRecord
  2
CONTINUOUS
 70
     0
  3
Solid line
 72
    65
 73
     0
 40
0.0
  0
ENDTAB
  0
TABLE
  2
LAYER
  5
2
100
AcDbSymbolTable
 70
2
  0
LAYER
  5
50
100
AcDbSymbolTableRecord
100
AcDbLayerTableRecord
  2
0
 70
0
  6
CONTINUOUS
  0
LAYER
  5
51
100
AcDbSymbolTableRecord
100
AcDbLayerTableRecord
  2
Calque_1
 70
0
  6
CONTINUOUS
  0
ENDTAB
  0
TABLE
  2
STYLE
  5
3
330
0
100
AcDbSymbolTable
 70
     1
  0
STYLE
  5
11
330
3
100
AcDbSymbolTableRecord
100
AcDbTextStyleTableRecord
  2
STANDARD
 70
     0
 40
0.0
 41
1.0
 50
0.0
 71
     0
 42
2.5
  3
txt
  4

  0
ENDTAB
  0
TABLE
  2
VIEW
  5
6
330
0
100
AcDbSymbolTable
 70
     0
  0
ENDTAB
  0
TABLE
  2
UCS
  5
7
330
0
100
AcDbSymbolTable
 70
     0
  0
ENDTAB
  0
TABLE
  2
APPID
  5
9
330
0
100
AcDbSymbolTable
 70
     2
  0
APPID
  5
12
330
9
100
AcDbSymbolTableRecord
100
AcDbRegAppTableRecord
  2
ACAD
 70
     0
  0
ENDTAB
  0
TABLE
  2
DIMSTYLE
  5
A
330
0
100
AcDbSymbolTable
 70
     1
  0
DIMSTYLE
105
27
330
A
100
AcDbSymbolTableRecord
100
AcDbDimStyleTableRecord
  2
ISO-25
 70
     0
  3

  4

  5

  6

  7

 40
1.0
 41
2.5
 42
0.625
 43
3.75
 44
1.25
 45
0.0
 46
0.0
 47
0.0
 48
0.0
140
2.5
141
2.5
142
0.0
143
0.03937007874016
144
1.0
145
0.0
146
1.0
147
0.625
 71
     0
 72
     0
 73
     0
 74
     0
 75
     0
 76
     0
 77
     1
 78
     8
170
     0
171
     3
172
     1
173
     0
174
     0
175
     0
176
     0
177
     0
178
     0
270
     2
271
     2
272
     2
273
     2
274
     3
340
11
275
     0
280
     0
281
     0
282
     0
283
     0
284
     8
285
     0
286
     0
287
     3
288
     0
  0
ENDTAB
  0
TABLE
  2
BLOCK_RECORD
  5
1
330
0
100
AcDbSymbolTable
 70
     1
  0
BLOCK_RECORD
  5
1F
330
1
100
AcDbSymbolTableRecord
100
AcDbBlockTableRecord
  2
*MODEL_SPACE
  0
BLOCK_RECORD
  5
1B
330
1
100
AcDbSymbolTableRecord
100
AcDbBlockTableRecord
  2
*PAPER_SPACE
  0
ENDTAB
  0
ENDSEC
  0
SECTION
  2
BLOCKS
  0
BLOCK
  5
20
330
1F
100
AcDbEntity
  8
0
100
AcDbBlockBegin
  2
*MODEL_SPACE
 70
     0
 10
0.0
 20
0.0
 30
0.0
  3
*MODEL_SPACE
  1

  0
ENDBLK
  5
21
330
1F
100
AcDbEntity
  8
0
100
AcDbBlockEnd
  0
BLOCK
  5
1C
330
1B
100
AcDbEntity
 67
     1
  8
0
100
AcDbBlockBegin
  2
*PAPER_SPACE
  1

  0
ENDBLK
  5
1D
330
1B
100
AcDbEntity
 67
     1
  8
0
100
AcDbBlockEnd
  0
ENDSEC
  0
SECTION
  2
ENTITIES
  0
SPLINE
  5
100
100
AcDbEntity
  8
Calque_1
 62
7
100
AcDbSpline
 70
8
 71
3
 72
8
 73
4
 74
0
 40
0
 40
0
 40
0
 40
0
 40
1
 40
1
 40
1
 40
1
 10
98.552911
 20
142.716980
 30
0.0
 10
97.771641
 20
142.798480
 30
0.0
 10
96.493181
 20
142.992600
 30
0.0
 10
95.711921
 20
143.148350
 30
0.0
  0
SPLINE
  5
101
100
AcDbEntity
  8
Calque_1
 62
7
100
AcDbSpline
 70
8
 71
3
 72
8
 73
4
 74
0
 40
0
 40
0
 40
0
 40
0
 40
1
 40
1
 40
1
 40
1
 10
95.711921
 20
143.148350
 30
0.0
 10
94.930641
 20
143.304100
 30
0.0
 10
93.465201
 20
143.706400
 30
0.0
 10
92.455361
 20
144.042350
 30
0.0
  0
SPLINE
  5
102
100
AcDbEntity
  8
Calque_1
 62
7
100
AcDbSpline
 70
8
 71
3
 72
8
 73
4
 74
0
 40
0
 40
0
 40
0
 40
0
 40
1
 40
1
 40
1
 40
1
 10
92.455361
 20
144.042350
 30
0.0
 10
91.445541
 20
144.378310
 30
0.0
 10
89.823061
 20
145.062190
 30
0.0
 10
88.849861
 20
145.562090
 30
0.0
  0
SPLINE
  5
103
100
AcDbEntity
  8
Calque_1
 62
7
100
AcDbSpline
 70
8
 71
3
 72
8
 73
4
 74
0
 40
0
 40
0
 40
0
 40
0
 40
1
 40
1
 40
1
 40
1
 10
88.849861
 20
145.562090
 30
0.0
 10
87.876661
 20
146.061990
 30
0.0
 10
86.433611
 20
146.933340
 30
0.0
 10
85.643091
 20
147.498430
 30
0.0
  0
SPLINE
  5
104
100
AcDbEntity
  8
Calque_1
 62
7
100
AcDbSpline
 70
8
 71
3
 72
8
 73
4
 74
0
 40
0
 40
0
 40
0
 40
0
 40
1
 40
1
 40
1
 40
1
 10
85.643091
 20
147.498430
 30
0.0
 10
84.852561
 20
148.063510
 30
0.0
 10
83.622111
 20
149.054470
 30
0.0
 10
82.908751
 20
149.700560
 30
0.0
  0
SPLINE
  5
105
100
AcDbEntity
  8
Calque_1
 62
7
100
AcDbSpline
 70
8
 71
3
 72
8
 73
4
 74
0
 40
0
 40
0
 40
0
 40
0
 40
1
 40
1
 40
1
 40
1
 10
82.908751
 20
149.700560
 30
0.0
 10
82.195381
 20
150.346650
 30
0.0
 10
81.139941
 20
151.452720
 30
0.0
 10
80.563321
 20
152.158480
 30
0.0
  0
SPLINE
  5
106
100
AcDbEntity
  8
Calque_1
 62
7
100
AcDbSpline
 70
8
 71
3
 72
8
 73
4
 74
0
 40
0
 40
0
 40
0
 40
0
 40
1
 40
1
 40
1
 40
1
 10
80.563321
 20
152.158480
 30
0.0
 10
79.986701
 20
152.864240
 30
0.0
 10
79.154221
 20
154.001010
 30
0.0
 10
78.713371
 20
154.684620
 30
0.0
  0
SPLINE
  5
107
100
AcDbEntity
  8
Calque_1
 62
7
100
AcDbSpline
 70
8
 71
3
 72
8
 73
4
 74
0
 40
0
 40
0
 40
0
 40
0
 40
1
 40
1
 40
1
 40
1
 10
78.713371
 20
154.684620
 30
0.0
 10
78.272511
 20
155.368240
 30
0.0
 10
77.621871
 20
156.505190
 30
0.0
 10
77.267501
 20
157.211170
 30
0.0
  0
SPLINE
  5
108
100
AcDbEntity
  8
Calque_1
 62
7
100
AcDbSpline
 70
8
 71
3
 72
8
 73
4
 74
0
 40
0
 40
0
 40
0
 40
0
 40
1
 40
1
 40
1
 40
1
 10
77.267501
 20
157.211170
 30
0.0
 10
76.913121
 20
157.917150
 30
0.0
 10
76.386911
 20
159.089560
 30
0.0
 10
76.098131
 20
159.816520
 30
0.0
  0
SPLINE
  5
109
100
AcDbEntity
  8
Calque_1
 62
7
100
AcDbSpline
 70
8
 71
3
 72
8
 73
4
 74
0
 40
0
 40
0
 40
0
 40
0
 40
1
 40
1
 40
1
 40
1
 10
76.098131
 20
159.816520
 30
0.0
 10
75.809351
 20
160.543480
 30
0.0
 10
75.415891
 20
161.763690
 30
0.0
 10
75.223791
 20
162.528080
 30
0.0
  0
SPLINE
  5
10a
100
AcDbEntity
  8
Calque_1
 62
7
100
AcDbSpline
 70
8
 71
3
 72
8
 73
4
 74
0
 40
0
 40
0
 40
0
 40
0
 40
1
 40
1
 40
1
 40
1
 10
75.223791
 20
162.528080
 30
0.0
 10
75.031681
 20
163.292480
 30
0.0
 10
74.777871
 20
164.704600
 30
0.0
 10
74.659761
 20
165.666130
 30
0.0
  0
SPLINE
  5
10b
100
AcDbEntity
  8
Calque_1
 62
7
100
AcDbSpline
 70
8
 71
3
 72
8
 73
4
 74
0
 40
0
 40
0
 40
0
 40
0
 40
1
 40
1
 40
1
 40
1
 10
74.659761
 20
165.666130
 30
0.0
 10
74.525101
 20
166.762330
 30
0.0
 10
74.481921
 20
168.517290
 30
0.0
 10
74.543961
 20
170.371550
 30
0.0
  0
SPLINE
  5
10c
100
AcDbEntity
  8
Calque_1
 62
7
100
AcDbSpline
 70
8
 71
3
 72
8
 73
4
 74
0
 40
0
 40
0
 40
0
 40
0
 40
1
 40
1
 40
1
 40
1
 10
74.543961
 20
170.371550
 30
0.0
 10
74.621661
 20
172.694230
 30
0.0
 10
74.738381
 20
173.709710
 30
0.0
 10
75.087851
 20
175.104360
 30
0.0
  0
SPLINE
  5
10d
100
AcDbEntity
  8
Calque_1
 62
7
100
AcDbSpline
 70
8
 71
3
 72
8
 73
4
 74
0
 40
0
 40
0
 40
0
 40
0
 40
1
 40
1
 40
1
 40
1
 10
75.087851
 20
175.104360
 30
0.0
 10
75.332571
 20
176.080960
 30
0.0
 10
75.747291
 20
177.479260
 30
0.0
 10
76.009461
 20
178.211710
 30
0.0
  0
SPLINE
  5
10e
100
AcDbEntity
  8
Calque_1
 62
7
100
AcDbSpline
 70
8
 71
3
 72
8
 73
4
 74
0
 40
0
 40
0
 40
0
 40
0
 40
1
 40
1
 40
1
 40
1
 10
76.009461
 20
178.211710
 30
0.0
 10
76.271631
 20
178.944160
 30
0.0
 10
76.887591
 20
180.329290
 30
0.0
 10
77.378271
 20
181.289780
 30
0.0
  0
SPLINE
  5
10f
100
AcDbEntity
  8
Calque_1
 62
7
100
AcDbSpline
 70
8
 71
3
 72
8
 73
4
 74
0
 40
0
 40
0
 40
0
 40
0
 40
1
 40
1
 40
1
 40
1
 10
77.378271
 20
181.289780
 30
0.0
 10
77.868951
 20
182.250270
 30
0.0
 10
78.709201
 20
183.648570
 30
0.0
 10
79.245501
 20
184.397130
 30
0.0
  0
SPLINE
  5
110
100
AcDbEntity
  8
Calque_1
 62
7
100
AcDbSpline
 70
8
 71
3
 72
8
 73
4
 74
0
 40
0
 40
0
 40
0
 40
0
 40
1
 40
1
 40
1
 40
1
 10
79.245501
 20
184.397130
 30
0.0
 10
79.781791
 20
185.145680
 30
0.0
 10
80.702241
 20
186.302250
 30
0.0
 10
81.290931
 20
186.967290
 30
0.0
  0
SPLINE
  5
111
100
AcDbEntity
  8
Calque_1
 62
7
100
AcDbSpline
 70
8
 71
3
 72
8
 73
4
 74
0
 40
0
 40
0
 40
0
 40
0
 40
1
 40
1
 40
1
 40
1
 10
81.290931
 20
186.967290
 30
0.0
 10
81.879621
 20
187.632320
 30
0.0
 10
82.957191
 20
188.669360
 30
0.0
 10
83.685531
 20
189.271830
 30
0.0
  0
SPLINE
  5
112
100
AcDbEntity
  8
Calque_1
 62
7
100
AcDbSpline
 70
8
 71
3
 72
8
 73
4
 74
0
 40
0
 40
0
 40
0
 40
0
 40
1
 40
1
 40
1
 40
1
 10
83.685531
 20
189.271830
 30
0.0
 10
84.413861
 20
189.874290
 30
0.0
 10
85.531821
 20
190.728480
 30
0.0
 10
86.169881
 20
191.170030
 30
0.0
  0
SPLINE
  5
113
100
AcDbEntity
  8
Calque_1
 62
7
100
AcDbSpline
 70
8
 71
3
 72
8
 73
4
 74
0
 40
0
 40
0
 40
0
 40
0
 40
1
 40
1
 40
1
 40
1
 10
86.169881
 20
191.170030
 30
0.0
 10
86.807941
 20
191.611580
 30
0.0
 10
87.409551
 20
192.099790
 30
0.0
 10
87.506801
 20
192.254930
 30
0.0
  0
SPLINE
  5
114
100
AcDbEntity
  8
Calque_1
 62
7
100
AcDbSpline
 70
8
 71
3
 72
8
 73
4
 74
0
 40
0
 40
0
 40
0
 40
0
 40
1
 40
1
 40
1
 40
1
 10
87.506801
 20
192.254930
 30
0.0
 10
87.643651
 20
192.473250
 30
0.0
 10
87.400091
 20
192.966330
 30
0.0
 10
86.429251
 20
194.436270
 30
0.0
  0
SPLINE
  5
115
100
AcDbEntity
  8
Calque_1
 62
7
100
AcDbSpline
 70
8
 71
3
 72
8
 73
4
 74
0
 40
0
 40
0
 40
0
 40
0
 40
1
 40
1
 40
1
 40
1
 10
86.429251
 20
194.436270
 30
0.0
 10
85.739361
 20
195.480870
 30
0.0
 10
84.928291
 20
196.927900
 30
0.0
 10
84.626891
 20
197.651906
 30
0.0
  0
SPLINE
  5
116
100
AcDbEntity
  8
Calque_1
 62
7
100
AcDbSpline
 70
8
 71
3
 72
8
 73
4
 74
0
 40
0
 40
0
 40
0
 40
0
 40
1
 40
1
 40
1
 40
1
 10
84.626891
 20
197.651906
 30
0.0
 10
84.325481
 20
198.375916
 30
0.0
 10
83.941511
 20
199.471796
 30
0.0
 10
83.773621
 20
200.087196
 30
0.0
  0
SPLINE
  5
117
100
AcDbEntity
  8
Calque_1
 62
7
100
AcDbSpline
 70
8
 71
3
 72
8
 73
4
 74
0
 40
0
 40
0
 40
0
 40
0
 40
1
 40
1
 40
1
 40
1
 10
83.773621
 20
200.087196
 30
0.0
 10
83.537731
 20
200.951844
 30
0.0
 10
83.468361
 20
201.932419
 30
0.0
 10
83.468361
 20
204.402245
 30
0.0
  0
SPLINE
  5
118
100
AcDbEntity
  8
Calque_1
 62
7
100
AcDbSpline
 70
8
 71
3
 72
8
 73
4
 74
0
 40
0
 40
0
 40
0
 40
0
 40
1
 40
1
 40
1
 40
1
 10
83.468361
 20
204.402245
 30
0.0
 10
83.468361
 20
206.885494
 30
0.0
 10
83.537161
 20
207.850925
 30
0.0
 10
83.777051
 20
208.730647
 30
0.0
  0
SPLINE
  5
119
100
AcDbEntity
  8
Calque_1
 62
7
100
AcDbSpline
 70
8
 71
3
 72
8
 73
4
 74
0
 40
0
 40
0
 40
0
 40
0
 40
1
 40
1
 40
1
 40
1
 10
83.777051
 20
208.730647
 30
0.0
 10
83.946821
 20
209.353396
 30
0.0
 10
84.356231
 20
210.487156
 30
0.0
 10
84.686881
 20
211.250115
 30
0.0
  0
SPLINE
  5
11a
100
AcDbEntity
  8
Calque_1
 62
7
100
AcDbSpline
 70
8
 71
3
 72
8
 73
4
 74
0
 40
0
 40
0
 40
0
 40
0
 40
1
 40
1
 40
1
 40
1
 10
84.686881
 20
211.250115
 30
0.0
 10
85.017501
 20
212.013074
 30
0.0
 10
85.725501
 20
213.301377
 30
0.0
 10
86.260201
 20
214.113011
 30
0.0
  0
SPLINE
  5
11b
100
AcDbEntity
  8
Calque_1
 62
7
100
AcDbSpline
 70
8
 71
3
 72
8
 73
4
 74
0
 40
0
 40
0
 40
0
 40
0
 40
1
 40
1
 40
1
 40
1
 10
86.260201
 20
214.113011
 30
0.0
 10
86.794901
 20
214.924645
 30
0.0
 10
87.781931
 20
216.135180
 30
0.0
 10
88.453591
 20
216.803088
 30
0.0
  0
SPLINE
  5
11c
100
AcDbEntity
  8
Calque_1
 62
7
100
AcDbSpline
 70
8
 71
3
 72
8
 73
4
 74
0
 40
0
 40
0
 40
0
 40
0
 40
1
 40
1
 40
1
 40
1
 10
88.453591
 20
216.803088
 30
0.0
 10
89.125241
 20
217.470997
 30
0.0
 10
90.386501
 20
218.488808
 30
0.0
 10
91.256421
 20
219.064892
 30
0.0
  0
SPLINE
  5
11d
100
AcDbEntity
  8
Calque_1
 62
7
100
AcDbSpline
 70
8
 71
3
 72
8
 73
4
 74
0
 40
0
 40
0
 40
0
 40
0
 40
1
 40
1
 40
1
 40
1
 10
91.256421
 20
219.064892
 30
0.0
 10
92.126321
 20
219.640976
 30
0.0
 10
93.468101
 20
220.355290
 30
0.0
 10
94.238161
 20
220.652256
 30
0.0
  0
SPLINE
  5
11e
100
AcDbEntity
  8
Calque_1
 62
7
100
AcDbSpline
 70
8
 71
3
 72
8
 73
4
 74
0
 40
0
 40
0
 40
0
 40
0
 40
1
 40
1
 40
1
 40
1
 10
94.238161
 20
220.652256
 30
0.0
 10
95.008221
 20
220.949222
 30
0.0
 10
96.334021
 20
221.358246
 30
0.0
 10
97.184381
 20
221.561198
 30
0.0
  0
SPLINE
  5
11f
100
AcDbEntity
  8
Calque_1
 62
7
100
AcDbSpline
 70
8
 71
3
 72
8
 73
4
 74
0
 40
0
 40
0
 40
0
 40
0
 40
1
 40
1
 40
1
 40
1
 10
97.184381
 20
221.561198
 30
0.0
 10
98.505741
 20
221.876562
 30
0.0
 10
99.104751
 20
221.917217
 30
0.0
 10
101.305140
 20
221.840873
 30
0.0
  0
SPLINE
  5
120
100
AcDbEntity
  8
Calque_1
 62
7
100
AcDbSpline
 70
8
 71
3
 72
8
 73
4
 74
0
 40
0
 40
0
 40
0
 40
0
 40
1
 40
1
 40
1
 40
1
 10
101.305140
 20
221.840873
 30
0.0
 10
103.325940
 20
221.770763
 30
0.0
 10
104.280870
 20
221.647219
 30
0.0
 10
105.744210
 20
221.266585
 30
0.0
  0
SPLINE
  5
121
100
AcDbEntity
  8
Calque_1
 62
7
100
AcDbSpline
 70
8
 71
3
 72
8
 73
4
 74
0
 40
0
 40
0
 40
0
 40
0
 40
1
 40
1
 40
1
 40
1
 10
105.744210
 20
221.266585
 30
0.0
 10
107.468840
 20
220.817988
 30
0.0
 10
107.962030
 20
220.773336
 30
0.0
 10
112.322140
 20
220.671049
 30
0.0
  0
SPLINE
  5
122
100
AcDbEntity
  8
Calque_1
 62
7
100
AcDbSpline
 70
8
 71
3
 72
8
 73
4
 74
0
 40
0
 40
0
 40
0
 40
0
 40
1
 40
1
 40
1
 40
1
 10
112.322140
 20
220.671049
 30
0.0
 10
116.390870
 20
220.575599
 30
0.0
 10
117.100500
 20
220.517964
 30
0.0
 10
117.509610
 20
220.249736
 30
0.0
  0
SPLINE
  5
123
100
AcDbEntity
  8
Calque_1
 62
7
100
AcDbSpline
 70
8
 71
3
 72
8
 73
4
 74
0
 40
0
 40
0
 40
0
 40
0
 40
1
 40
1
 40
1
 40
1
 10
117.509610
 20
220.249736
 30
0.0
 10
117.770280
 20
220.078832
 30
0.0
 10
118.086250
 20
219.759219
 30
0.0
 10
118.211760
 20
219.539485
 30
0.0
  0
SPLINE
  5
124
100
AcDbEntity
  8
Calque_1
 62
7
100
AcDbSpline
 70
8
 71
3
 72
8
 73
4
 74
0
 40
0
 40
0
 40
0
 40
0
 40
1
 40
1
 40
1
 40
1
 10
118.211760
 20
219.539485
 30
0.0
 10
118.374820
 20
219.254006
 30
0.0
 10
118.439960
 20
218.210906
 30
0.0
 10
118.439960
 20
215.885131
 30
0.0
  0
SPLINE
  5
125
100
AcDbEntity
  8
Calque_1
 62
7
100
AcDbSpline
 70
8
 71
3
 72
8
 73
4
 74
0
 40
0
 40
0
 40
0
 40
0
 40
1
 40
1
 40
1
 40
1
 10
118.439960
 20
215.885131
 30
0.0
 10
118.439960
 20
212.868131
 30
0.0
 10
118.414760
 20
212.611877
 30
0.0
 10
118.095290
 20
212.378263
 30
0.0
  0
SPLINE
  5
126
100
AcDbEntity
  8
Calque_1
 62
7
100
AcDbSpline
 70
8
 71
3
 72
8
 73
4
 74
0
 40
0
 40
0
 40
0
 40
0
 40
1
 40
1
 40
1
 40
1
 10
118.095290
 20
212.378263
 30
0.0
 10
117.905720
 20
212.239646
 30
0.0
 10
117.517630
 20
212.126232
 30
0.0
 10
117.232870
 20
212.126232
 30
0.0
  0
SPLINE
  5
127
100
AcDbEntity
  8
Calque_1
 62
7
100
AcDbSpline
 70
8
 71
3
 72
8
 73
4
 74
0
 40
0
 40
0
 40
0
 40
0
 40
1
 40
1
 40
1
 40
1
 10
117.232870
 20
212.126232
 30
0.0
 10
116.811120
 20
212.126232
 30
0.0
 10
116.738010
 20
212.068612
 30
0.0
 10
116.838570
 20
211.815497
 30
0.0
  0
SPLINE
  5
128
100
AcDbEntity
  8
Calque_1
 62
7
100
AcDbSpline
 70
8
 71
3
 72
8
 73
4
 74
0
 40
0
 40
0
 40
0
 40
0
 40
1
 40
1
 40
1
 40
1
 10
116.838570
 20
211.815497
 30
0.0
 10
116.906470
 20
211.644593
 30
0.0
 10
117.184910
 20
210.825584
 30
0.0
 10
117.457330
 20
209.995477
 30
0.0
  0
SPLINE
  5
129
100
AcDbEntity
  8
Calque_1
 62
7
100
AcDbSpline
 70
8
 71
3
 72
8
 73
4
 74
0
 40
0
 40
0
 40
0
 40
0
 40
1
 40
1
 40
1
 40
1
 10
117.457330
 20
209.995477
 30
0.0
 10
117.729750
 20
209.165370
 30
0.0
 10
118.056300
 20
207.886917
 30
0.0
 10
118.182990
 20
207.154470
 30
0.0
  0
SPLINE
  5
12a
100
AcDbEntity
  8
Calque_1
 62
7
100
AcDbSpline
 70
8
 71
3
 72
8
 73
4
 74
0
 40
0
 40
0
 40
0
 40
0
 40
1
 40
1
 40
1
 40
1
 10
118.182990
 20
207.154470
 30
0.0
 10
118.309690
 20
206.422023
 30
0.0
 10
118.409530
 20
205.143570
 30
0.0
 10
118.404880
 20
204.313463
 30
0.0
  0
SPLINE
  5
12b
100
AcDbEntity
  8
Calque_1
 62
7
100
AcDbSpline
 70
8
 71
3
 72
8
 73
4
 74
0
 40
0
 40
0
 40
0
 40
0
 40
1
 40
1
 40
1
 40
1
 10
118.404880
 20
204.313463
 30
0.0
 10
118.399880
 20
203.483357
 30
0.0
 10
118.302600
 20
202.284807
 30
0.0
 10
118.187920
 20
201.650019
 30
0.0
  0
SPLINE
  5
12c
100
AcDbEntity
  8
Calque_1
 62
7
100
AcDbSpline
 70
8
 71
3
 72
8
 73
4
 74
0
 40
0
 40
0
 40
0
 40
0
 40
1
 40
1
 40
1
 40
1
 10
118.187920
 20
201.650019
 30
0.0
 10
118.073240
 20
201.015232
 30
0.0
 10
117.772100
 20
199.856636
 30
0.0
 10
117.518700
 20
199.075356
 30
0.0
  0
SPLINE
  5
12d
100
AcDbEntity
  8
Calque_1
 62
7
100
AcDbSpline
 70
8
 71
3
 72
8
 73
4
 74
0
 40
0
 40
0
 40
0
 40
0
 40
1
 40
1
 40
1
 40
1
 10
117.518700
 20
199.075356
 30
0.0
 10
117.265310
 20
198.294086
 30
0.0
 10
116.757870
 20
197.055586
 30
0.0
 10
116.391050
 20
196.323140
 30
0.0
  0
SPLINE
  5
12e
100
AcDbEntity
  8
Calque_1
 62
7
100
AcDbSpline
 70
8
 71
3
 72
8
 73
4
 74
0
 40
0
 40
0
 40
0
 40
0
 40
1
 40
1
 40
1
 40
1
 10
116.391050
 20
196.323140
 30
0.0
 10
116.024240
 20
195.590690
 30
0.0
 10
115.316410
 20
194.433810
 30
0.0
 10
114.818110
 20
193.752280
 30
0.0
  0
SPLINE
  5
12f
100
AcDbEntity
  8
Calque_1
 62
7
100
AcDbSpline
 70
8
 71
3
 72
8
 73
4
 74
0
 40
0
 40
0
 40
0
 40
0
 40
1
 40
1
 40
1
 40
1
 10
114.818110
 20
193.752280
 30
0.0
 10
114.319810
 20
193.070750
 30
0.0
 10
113.914900
 20
192.471480
 30
0.0
 10
113.918310
 20
192.420560
 30
0.0
  0
SPLINE
  5
130
100
AcDbEntity
  8
Calque_1
 62
7
100
AcDbSpline
 70
8
 71
3
 72
8
 73
4
 74
0
 40
0
 40
0
 40
0
 40
0
 40
1
 40
1
 40
1
 40
1
 10
113.918310
 20
192.420560
 30
0.0
 10
113.921310
 20
192.369660
 30
0.0
 10
114.596590
 20
191.897500
 30
0.0
 10
115.418020
 20
191.371360
 30
0.0
  0
SPLINE
  5
131
100
AcDbEntity
  8
Calque_1
 62
7
100
AcDbSpline
 70
8
 71
3
 72
8
 73
4
 74
0
 40
0
 40
0
 40
0
 40
0
 40
1
 40
1
 40
1
 40
1
 10
115.418020
 20
191.371360
 30
0.0
 10
116.239440
 20
190.845230
 30
0.0
 10
117.614980
 20
189.799940
 30
0.0
 10
118.474770
 20
189.048500
 30
0.0
  0
SPLINE
  5
132
100
AcDbEntity
  8
Calque_1
 62
7
100
AcDbSpline
 70
8
 71
3
 72
8
 73
4
 74
0
 40
0
 40
0
 40
0
 40
0
 40
1
 40
1
 40
1
 40
1
 10
118.474770
 20
189.048500
 30
0.0
 10
119.334560
 20
188.297060
 30
0.0
 10
120.525820
 20
187.089510
 30
0.0
 10
121.122010
 20
186.365060
 30
0.0
  0
SPLINE
  5
133
100
AcDbEntity
  8
Calque_1
 62
7
100
AcDbSpline
 70
8
 71
3
 72
8
 73
4
 74
0
 40
0
 40
0
 40
0
 40
0
 40
1
 40
1
 40
1
 40
1
 10
121.122010
 20
186.365060
 30
0.0
 10
121.718200
 20
185.640610
 30
0.0
 10
122.583240
 20
184.488560
 30
0.0
 10
123.044310
 20
183.804940
 30
0.0
  0
SPLINE
  5
134
100
AcDbEntity
  8
Calque_1
 62
7
100
AcDbSpline
 70
8
 71
3
 72
8
 73
4
 74
0
 40
0
 40
0
 40
0
 40
0
 40
1
 40
1
 40
1
 40
1
 10
123.044310
 20
183.804940
 30
0.0
 10
123.505380
 20
183.121330
 30
0.0
 10
124.273440
 20
181.762970
 30
0.0
 10
124.751090
 20
180.786370
 30
0.0
  0
SPLINE
  5
135
100
AcDbEntity
  8
Calque_1
 62
7
100
AcDbSpline
 70
8
 71
3
 72
8
 73
4
 74
0
 40
0
 40
0
 40
0
 40
0
 40
1
 40
1
 40
1
 40
1
 10
124.751090
 20
180.786370
 30
0.0
 10
125.228750
 20
179.809780
 30
0.0
 10
125.852790
 20
178.291610
 30
0.0
 10
126.137840
 20
177.412680
 30
0.0
  0
SPLINE
  5
136
100
AcDbEntity
  8
Calque_1
 62
7
100
AcDbSpline
 70
8
 71
3
 72
8
 73
4
 74
0
 40
0
 40
0
 40
0
 40
0
 40
1
 40
1
 40
1
 40
1
 10
126.137840
 20
177.412680
 30
0.0
 10
126.422900
 20
176.533740
 30
0.0
 10
126.804610
 20
175.135430
 30
0.0
 10
126.986100
 20
174.305330
 30
0.0
  0
SPLINE
  5
137
100
AcDbEntity
  8
Calque_1
 62
7
100
AcDbSpline
 70
8
 71
3
 72
8
 73
4
 74
0
 40
0
 40
0
 40
0
 40
0
 40
1
 40
1
 40
1
 40
1
 10
126.986100
 20
174.305330
 30
0.0
 10
127.247880
 20
173.107960
 30
0.0
 10
127.316080
 20
172.043770
 30
0.0
 10
127.316080
 20
169.156000
 30
0.0
  0
SPLINE
  5
138
100
AcDbEntity
  8
Calque_1
 62
7
100
AcDbSpline
 70
8
 71
3
 72
8
 73
4
 74
0
 40
0
 40
0
 40
0
 40
0
 40
1
 40
1
 40
1
 40
1
 10
127.316080
 20
169.156000
 30
0.0
 10
127.316080
 20
166.268230
 30
0.0
 10
127.247880
 20
165.204040
 30
0.0
 10
126.986100
 20
164.006680
 30
0.0
  0
SPLINE
  5
139
100
AcDbEntity
  8
Calque_1
 62
7
100
AcDbSpline
 70
8
 71
3
 72
8
 73
4
 74
0
 40
0
 40
0
 40
0
 40
0
 40
1
 40
1
 40
1
 40
1
 10
126.986100
 20
164.006680
 30
0.0
 10
126.804610
 20
163.176570
 30
0.0
 10
126.422900
 20
161.778260
 30
0.0
 10
126.137840
 20
160.899330
 30
0.0
  0
SPLINE
  5
13a
100
AcDbEntity
  8
Calque_1
 62
7
100
AcDbSpline
 70
8
 71
3
 72
8
 73
4
 74
0
 40
0
 40
0
 40
0
 40
0
 40
1
 40
1
 40
1
 40
1
 10
126.137840
 20
160.899330
 30
0.0
 10
125.852790
 20
160.020390
 30
0.0
 10
125.228750
 20
158.502230
 30
0.0
 10
124.751090
 20
157.525630
 30
0.0
  0
SPLINE
  5
13b
100
AcDbEntity
  8
Calque_1
 62
7
100
AcDbSpline
 70
8
 71
3
 72
8
 73
4
 74
0
 40
0
 40
0
 40
0
 40
0
 40
1
 40
1
 40
1
 40
1
 10
124.751090
 20
157.525630
 30
0.0
 10
124.273440
 20
156.549030
 30
0.0
 10
123.505950
 20
155.190680
 30
0.0
 10
123.045560
 20
154.507060
 30
0.0
  0
SPLINE
  5
13c
100
AcDbEntity
  8
Calque_1
 62
7
100
AcDbSpline
 70
8
 71
3
 72
8
 73
4
 74
0
 40
0
 40
0
 40
0
 40
0
 40
1
 40
1
 40
1
 40
1
 10
123.045560
 20
154.507060
 30
0.0
 10
122.585170
 20
153.823440
 30
0.0
 10
121.687950
 20
152.638490
 30
0.0
 10
121.051730
 20
151.873840
 30
0.0
  0
SPLINE
  5
13d
100
AcDbEntity
  8
Calque_1
 62
7
100
AcDbSpline
 70
8
 71
3
 72
8
 73
4
 74
0
 40
0
 40
0
 40
0
 40
0
 40
1
 40
1
 40
1
 40
1
 10
121.051730
 20
151.873840
 30
0.0
 10
120.415510
 20
151.109190
 30
0.0
 10
119.270010
 20
149.942630
 30
0.0
 10
118.506180
 20
149.281490
 30
0.0
  0
SPLINE
  5
13e
100
AcDbEntity
  8
Calque_1
 62
7
100
AcDbSpline
 70
8
 71
3
 72
8
 73
4
 74
0
 40
0
 40
0
 40
0
 40
0
 40
1
 40
1
 40
1
 40
1
 10
118.506180
 20
149.281490
 30
0.0
 10
117.742350
 20
148.620340
 30
0.0
 10
116.536410
 20
147.687850
 30
0.0
 10
115.826320
 20
147.209290
 30
0.0
  0
SPLINE
  5
13f
100
AcDbEntity
  8
Calque_1
 62
7
100
AcDbSpline
 70
8
 71
3
 72
8
 73
4
 74
0
 40
0
 40
0
 40
0
 40
0
 40
1
 40
1
 40
1
 40
1
 10
115.826320
 20
147.209290
 30
0.0
 10
115.116230
 20
146.730720
 30
0.0
 10
113.699420
 20
145.918160
 30
0.0
 10
112.677870
 20
145.403600
 30
0.0
  0
SPLINE
  5
140
100
AcDbEntity
  8
Calque_1
 62
7
100
AcDbSpline
 70
8
 71
3
 72
8
 73
4
 74
0
 40
0
 40
0
 40
0
 40
0
 40
1
 40
1
 40
1
 40
1
 10
112.677870
 20
145.403600
 30
0.0
 10
111.656310
 20
144.889040
 30
0.0
 10
110.097820
 20
144.237890
 30
0.0
 10
109.214560
 20
143.956610
 30
0.0
  0
SPLINE
  5
141
100
AcDbEntity
  8
Calque_1
 62
7
100
AcDbSpline
 70
8
 71
3
 72
8
 73
4
 74
0
 40
0
 40
0
 40
0
 40
0
 40
1
 40
1
 40
1
 40
1
 10
109.214560
 20
143.956610
 30
0.0
 10
108.331290
 20
143.675330
 30
0.0
 10
106.969400
 20
143.317760
 30
0.0
 10
106.188120
 20
143.162020
 30
0.0
  0
SPLINE
  5
142
100
AcDbEntity
  8
Calque_1
 62
7
100
AcDbSpline
 70
8
 71
3
 72
8
 73
4
 74
0
 40
0
 40
0
 40
0
 40
0
 40
1
 40
1
 40
1
 40
1
 10
106.188120
 20
143.162020
 30
0.0
 10
105.406840
 20
143.006270
 30
0.0
 10
103.848730
 20
142.799140
 30
0.0
 10
102.725640
 20
142.701720
 30
0.0
  0
SPLINE
  5
143
100
AcDbEntity
  8
Calque_1
 62
7
100
AcDbSpline
 70
8
 71
3
 72
8
 73
4
 74
0
 40
0
 40
0
 40
0
 40
0
 40
1
 40
1
 40
1
 40
1
 10
102.725640
 20
142.701720
 30
0.0
 10
101.602560
 20
142.604320
 30
0.0
 10
100.523860
 20
142.534540
 30
0.0
 10
100.328540
 20
142.546700
 30
0.0
  0
SPLINE
  5
144
100
AcDbEntity
  8
Calque_1
 62
7
100
AcDbSpline
 70
8
 71
3
 72
8
 73
4
 74
0
 40
0
 40
0
 40
0
 40
0
 40
1
 40
1
 40
1
 40
1
 10
100.328540
 20
142.546700
 30
0.0
 10
100.133220
 20
142.558800
 30
0.0
 10
99.334191
 20
142.635500
 30
0.0
 10
98.552911
 20
142.716980
 30
0.0
  0
SPLINE
  5
145
100
AcDbEntity
  8
Calque_1
 62
7
100
AcDbSpline
 70
8
 71
3
 72
8
 73
4
 74
0
 40
0
 40
0
 40
0
 40
0
 40
1
 40
1
 40
1
 40
1
 10
106.045060
 20
143.923110
 30
0.0
 10
106.942970
 20
144.120370
 30
0.0
 10
108.293410
 20
144.488480
 30
0.0
 10
109.046040
 20
144.741130
 30
0.0
  0
SPLINE
  5
146
100
AcDbEntity
  8
Calque_1
 62
7
100
AcDbSpline
 70
8
 71
3
 72
8
 73
4
 74
0
 40
0
 40
0
 40
0
 40
0
 40
1
 40
1
 40
1
 40
1
 10
109.046040
 20
144.741130
 30
0.0
 10
109.798670
 20
144.993780
 30
0.0
 10
111.062230
 20
145.509660
 30
0.0
 10
111.853950
 20
145.887530
 30
0.0
  0
SPLINE
  5
147
100
AcDbEntity
  8
Calque_1
 62
7
100
AcDbSpline
 70
8
 71
3
 72
8
 73
4
 74
0
 40
0
 40
0
 40
0
 40
0
 40
1
 40
1
 40
1
 40
1
 10
111.853950
 20
145.887530
 30
0.0
 10
112.645670
 20
146.265410
 30
0.0
 10
114.023370
 20
147.053870
 30
0.0
 10
114.915510
 20
147.639680
 30
0.0
  0
SPLINE
  5
148
100
AcDbEntity
  8
Calque_1
 62
7
100
AcDbSpline
 70
8
 71
3
 72
8
 73
4
 74
0
 40
0
 40
0
 40
0
 40
0
 40
1
 40
1
 40
1
 40
1
 10
114.915510
 20
147.639680
 30
0.0
 10
115.807640
 20
148.225490
 30
0.0
 10
117.181060
 20
149.271820
 30
0.0
 10
117.967550
 20
149.964860
 30
0.0
  0
SPLINE
  5
149
100
AcDbEntity
  8
Calque_1
 62
7
100
AcDbSpline
 70
8
 71
3
 72
8
 73
4
 74
0
 40
0
 40
0
 40
0
 40
0
 40
1
 40
1
 40
1
 40
1
 10
117.967550
 20
149.964860
 30
0.0
 10
118.754040
 20
150.657910
 30
0.0
 10
120.066740
 20
152.060270
 30
0.0
 10
120.884670
 20
153.081220
 30
0.0
  0
SPLINE
  5
14a
100
AcDbEntity
  8
Calque_1
 62
7
100
AcDbSpline
 70
8
 71
3
 72
8
 73
4
 74
0
 40
0
 40
0
 40
0
 40
0
 40
1
 40
1
 40
1
 40
1
 10
120.884670
 20
153.081220
 30
0.0
 10
121.702590
 20
154.102180
 30
0.0
 10
122.789270
 20
155.691080
 30
0.0
 10
123.299510
 20
156.612130
 30
0.0
  0
SPLINE
  5
14b
100
AcDbEntity
  8
Calque_1
 62
7
100
AcDbSpline
 70
8
 71
3
 72
8
 73
4
 74
0
 40
0
 40
0
 40
0
 40
0
 40
1
 40
1
 40
1
 40
1
 10
123.299510
 20
156.612130
 30
0.0
 10
123.809760
 20
157.533180
 30
0.0
 10
124.469380
 20
158.914540
 30
0.0
 10
124.765350
 20
159.681830
 30
0.0
  0
SPLINE
  5
14c
100
AcDbEntity
  8
Calque_1
 62
7
100
AcDbSpline
 70
8
 71
3
 72
8
 73
4
 74
0
 40
0
 40
0
 40
0
 40
0
 40
1
 40
1
 40
1
 40
1
 10
124.765350
 20
159.681830
 30
0.0
 10
125.061320
 20
160.449110
 30
0.0
 10
125.552050
 20
161.995780
 30
0.0
 10
125.855860
 20
163.118860
 30
0.0
  0
SPLINE
  5
14d
100
AcDbEntity
  8
Calque_1
 62
7
100
AcDbSpline
 70
8
 71
3
 72
8
 73
4
 74
0
 40
0
 40
0
 40
0
 40
0
 40
1
 40
1
 40
1
 40
1
 10
125.855860
 20
163.118860
 30
0.0
 10
126.391280
 20
165.098160
 30
0.0
 10
126.408540
 20
165.278020
 30
0.0
 10
126.418260
 20
168.978440
 30
0.0
  0
SPLINE
  5
14e
100
AcDbEntity
  8
Calque_1
 62
7
100
AcDbSpline
 70
8
 71
3
 72
8
 73
4
 74
0
 40
0
 40
0
 40
0
 40
0
 40
1
 40
1
 40
1
 40
1
 10
126.418260
 20
168.978440
 30
0.0
 10
126.425260
 20
171.562130
 30
0.0
 10
126.351160
 20
173.140390
 30
0.0
 10
126.189660
 20
173.861420
 30
0.0
  0
SPLINE
  5
14f
100
AcDbEntity
  8
Calque_1
 62
7
100
AcDbSpline
 70
8
 71
3
 72
8
 73
4
 74
0
 40
0
 40
0
 40
0
 40
0
 40
1
 40
1
 40
1
 40
1
 10
126.189660
 20
173.861420
 30
0.0
 10
126.058420
 20
174.447380
 30
0.0
 10
125.669450
 20
175.805730
 30
0.0
 10
125.325280
 20
176.879990
 30
0.0
  0
SPLINE
  5
150
100
AcDbEntity
  8
Calque_1
 62
7
100
AcDbSpline
 70
8
 71
3
 72
8
 73
4
 74
0
 40
0
 40
0
 40
0
 40
0
 40
1
 40
1
 40
1
 40
1
 10
125.325280
 20
176.879990
 30
0.0
 10
124.981110
 20
177.954240
 30
0.0
 10
124.357170
 20
179.516130
 30
0.0
 10
123.938750
 20
180.350850
 30
0.0
  0
SPLINE
  5
151
100
AcDbEntity
  8
Calque_1
 62
7
100
AcDbSpline
 70
8
 71
3
 72
8
 73
4
 74
0
 40
0
 40
0
 40
0
 40
0
 40
1
 40
1
 40
1
 40
1
 10
123.938750
 20
180.350850
 30
0.0
 10
123.520330
 20
181.185560
 30
0.0
 10
122.697880
 20
182.583870
 30
0.0
 10
122.111090
 20
183.458200
 30
0.0
  0
SPLINE
  5
152
100
AcDbEntity
  8
Calque_1
 62
7
100
AcDbSpline
 70
8
 71
3
 72
8
 73
4
 74
0
 40
0
 40
0
 40
0
 40
0
 40
1
 40
1
 40
1
 40
1
 10
122.111090
 20
183.458200
 30
0.0
 10
121.524310
 20
184.332530
 30
0.0
 10
120.458250
 20
185.682450
 30
0.0
 10
119.742080
 20
186.458030
 30
0.0
  0
SPLINE
  5
153
100
AcDbEntity
  8
Calque_1
 62
7
100
AcDbSpline
 70
8
 71
3
 72
8
 73
4
 74
0
 40
0
 40
0
 40
0
 40
0
 40
1
 40
1
 40
1
 40
1
 10
119.742080
 20
186.458030
 30
0.0
 10
119.025920
 20
187.233610
 30
0.0
 10
117.628250
 20
188.512060
 30
0.0
 10
116.636150
 20
189.299040
 30
0.0
  0
SPLINE
  5
154
100
AcDbEntity
  8
Calque_1
 62
7
100
AcDbSpline
 70
8
 71
3
 72
8
 73
4
 74
0
 40
0
 40
0
 40
0
 40
0
 40
1
 40
1
 40
1
 40
1
 10
116.636150
 20
189.299040
 30
0.0
 10
115.644060
 20
190.086020
 30
0.0
 10
114.387190
 20
190.998380
 30
0.0
 10
113.843100
 20
191.326500
 30
0.0
  0
LWPOLYLINE
  5
155
100
AcDbEntity
  8
Calque_1
 62
7
100
AcDbPolyline
 90
1
 70
1
 10
98.552911
 20
142.716980
 30
0.0
  0
SPLINE
  5
156
100
AcDbEntity
  8
Calque_1
 62
7
100
AcDbSpline
 70
8
 71
3
 72
8
 73
4
 74
0
 40
0
 40
0
 40
0
 40
0
 40
1
 40
1
 40
1
 40
1
 10
112.006860
 20
191.223840
 30
0.0
 10
111.541020
 20
190.839250
 30
0.0
 10
110.800320
 20
190.281900
 30
0.0
 10
110.360850
 20
189.985270
 30
0.0
  0
SPLINE
  5
157
100
AcDbEntity
  8
Calque_1
 62
7
100
AcDbSpline
 70
8
 71
3
 72
8
 73
4
 74
0
 40
0
 40
0
 40
0
 40
0
 40
1
 40
1
 40
1
 40
1
 10
110.360850
 20
189.985270
 30
0.0
 10
109.921380
 20
189.688650
 30
0.0
 10
109.122350
 20
189.223940
 30
0.0
 10
108.585220
 20
188.952580
 30
0.0
  0
SPLINE
  5
158
100
AcDbEntity
  8
Calque_1
 62
7
100
AcDbSpline
 70
8
 71
3
 72
8
 73
4
 74
0
 40
0
 40
0
 40
0
 40
0
 40
1
 40
1
 40
1
 40
1
 10
108.585220
 20
188.952580
 30
0.0
 10
108.048090
 20
188.681210
 30
0.0
 10
107.076100
 20
188.278020
 30
0.0
 10
106.425250
 20
188.056610
 30
0.0
  0
SPLINE
  5
159
100
AcDbEntity
  8
Calque_1
 62
7
100
AcDbSpline
 70
8
 71
3
 72
8
 73
4
 74
0
 40
0
 40
0
 40
0
 40
0
 40
1
 40
1
 40
1
 40
1
 10
106.425250
 20
188.056610
 30
0.0
 10
105.774390
 20
187.835180
 30
0.0
 10
104.775600
 20
187.552590
 30
0.0
 10
104.205710
 20
187.428610
 30
0.0
  0
LWPOLYLINE
  5
15a
100
AcDbEntity
  8
Calque_1
 62
7
100
AcDbPolyline
 90
2
 70
0
 10
113.843100
 20
191.326500
 30
0.0
 10
112.006860
 20
191.223840
 30
0.0
  0
SPLINE
  5
15b
100
AcDbEntity
  8
Calque_1
 62
7
100
AcDbSpline
 70
8
 71
3
 72
8
 73
4
 74
0
 40
0
 40
0
 40
0
 40
0
 40
1
 40
1
 40
1
 40
1
 10
104.035700
 20
187.069210
 30
0.0
 10
104.512080
 20
186.995510
 30
0.0
 10
105.550810
 20
186.720630
 30
0.0
 10
106.344010
 20
186.458340
 30
0.0
  0
SPLINE
  5
15c
100
AcDbEntity
  8
Calque_1
 62
7
100
AcDbSpline
 70
8
 71
3
 72
8
 73
4
 74
0
 40
0
 40
0
 40
0
 40
0
 40
1
 40
1
 40
1
 40
1
 10
106.344010
 20
186.458340
 30
0.0
 10
107.137210
 20
186.196060
 30
0.0
 10
108.265600
 20
185.741220
 30
0.0
 10
108.851560
 20
185.447590
 30
0.0
  0
SPLINE
  5
15d
100
AcDbEntity
  8
Calque_1
 62
7
100
AcDbSpline
 70
8
 71
3
 72
8
 73
4
 74
0
 40
0
 40
0
 40
0
 40
0
 40
1
 40
1
 40
1
 40
1
 10
108.851560
 20
185.447590
 30
0.0
 10
109.437520
 20
185.153960
 30
0.0
 10
110.476260
 20
184.553480
 30
0.0
 10
111.159880
 20
184.113190
 30
0.0
  0
SPLINE
  5
15e
100
AcDbEntity
  8
Calque_1
 62
7
100
AcDbSpline
 70
8
 71
3
 72
8
 73
4
 74
0
 40
0
 40
0
 40
0
 40
0
 40
1
 40
1
 40
1
 40
1
 10
111.159880
 20
184.113190
 30
0.0
 10
111.843500
 20
183.672890
 30
0.0
 10
113.006480
 20
182.704280
 30
0.0
 10
113.744280
 20
181.960730
 30
0.0
  0
SPLINE
  5
15f
100
AcDbEntity
  8
Calque_1
 62
7
100
AcDbSpline
 70
8
 71
3
 72
8
 73
4
 74
0
 40
0
 40
0
 40
0
 40
0
 40
1
 40
1
 40
1
 40
1
 10
113.744280
 20
181.960730
 30
0.0
 10
114.482090
 20
181.217170
 30
0.0
 10
115.470100
 20
180.024910
 30
0.0
 10
115.939870
 20
179.311250
 30
0.0
  0
SPLINE
  5
160
100
AcDbEntity
  8
Calque_1
 62
7
100
AcDbSpline
 70
8
 71
3
 72
8
 73
4
 74
0
 40
0
 40
0
 40
0
 40
0
 40
1
 40
1
 40
1
 40
1
 10
115.939870
 20
179.311250
 30
0.0
 10
116.409630
 20
178.597590
 30
0.0
 10
117.185880
 20
177.110260
 30
0.0
 10
117.664850
 20
176.006070
 30
0.0
  0
SPLINE
  5
161
100
AcDbEntity
  8
Calque_1
 62
7
100
AcDbSpline
 70
8
 71
3
 72
8
 73
4
 74
0
 40
0
 40
0
 40
0
 40
0
 40
1
 40
1
 40
1
 40
1
 10
117.664850
 20
176.006070
 30
0.0
 10
118.338580
 20
174.452900
 30
0.0
 10
118.579740
 20
173.641290
 30
0.0
 10
118.730180
 20
172.420650
 30
0.0
  0
SPLINE
  5
162
100
AcDbEntity
  8
Calque_1
 62
7
100
AcDbSpline
 70
8
 71
3
 72
8
 73
4
 74
0
 40
0
 40
0
 40
0
 40
0
 40
1
 40
1
 40
1
 40
1
 10
118.730180
 20
172.420650
 30
0.0
 10
118.838870
 20
171.538850
 30
0.0
 10
118.885740
 20
169.589620
 30
0.0
 10
118.836450
 20
168.001840
 30
0.0
  0
SPLINE
  5
163
100
AcDbEntity
  8
Calque_1
 62
7
100
AcDbSpline
 70
8
 71
3
 72
8
 73
4
 74
0
 40
0
 40
0
 40
0
 40
0
 40
1
 40
1
 40
1
 40
1
 10
118.836450
 20
168.001840
 30
0.0
 10
118.765850
 20
165.728730
 30
0.0
 10
118.669370
 20
164.913890
 30
0.0
 10
118.353630
 20
163.925410
 30
0.0
  0
SPLINE
  5
164
100
AcDbEntity
  8
Calque_1
 62
7
100
AcDbSpline
 70
8
 71
3
 72
8
 73
4
 74
0
 40
0
 40
0
 40
0
 40
0
 40
1
 40
1
 40
1
 40
1
 10
118.353630
 20
163.925410
 30
0.0
 10
118.136580
 20
163.245930
 30
0.0
 10
117.660460
 20
162.047380
 30
0.0
 10
117.295580
 20
161.261970
 30
0.0
  0
SPLINE
  5
165
100
AcDbEntity
  8
Calque_1
 62
7
100
AcDbSpline
 70
8
 71
3
 72
8
 73
4
 74
0
 40
0
 40
0
 40
0
 40
0
 40
1
 40
1
 40
1
 40
1
 10
117.295580
 20
161.261970
 30
0.0
 10
116.930690
 20
160.476560
 30
0.0
 10
116.325910
 20
159.434430
 30
0.0
 10
115.951600
 20
158.946130
 30
0.0
  0
SPLINE
  5
166
100
AcDbEntity
  8
Calque_1
 62
7
100
AcDbSpline
 70
8
 71
3
 72
8
 73
4
 74
0
 40
0
 40
0
 40
0
 40
0
 40
1
 40
1
 40
1
 40
1
 10
115.951600
 20
158.946130
 30
0.0
 10
115.577300
 20
158.457830
 30
0.0
 10
114.865410
 20
157.592920
 30
0.0
 10
114.369630
 20
157.024090
 30
0.0
  0
SPLINE
  5
167
100
AcDbEntity
  8
Calque_1
 62
7
100
AcDbSpline
 70
8
 71
3
 72
8
 73
4
 74
0
 40
0
 40
0
 40
0
 40
0
 40
1
 40
1
 40
1
 40
1
 10
114.369630
 20
157.024090
 30
0.0
 10
113.873840
 20
156.455270
 30
0.0
 10
112.912560
 20
155.516080
 30
0.0
 10
112.233450
 20
154.937010
 30
0.0
  0
SPLINE
  5
168
100
AcDbEntity
  8
Calque_1
 62
7
100
AcDbSpline
 70
8
 71
3
 72
8
 73
4
 74
0
 40
0
 40
0
 40
0
 40
0
 40
1
 40
1
 40
1
 40
1
 10
112.233450
 20
154.937010
 30
0.0
 10
111.554350
 20
154.357940
 30
0.0
 10
110.308210
 20
153.527520
 30
0.0
 10
109.464260
 20
153.091640
 30
0.0
  0
SPLINE
  5
169
100
AcDbEntity
  8
Calque_1
 62
7
100
AcDbSpline
 70
8
 71
3
 72
8
 73
4
 74
0
 40
0
 40
0
 40
0
 40
0
 40
1
 40
1
 40
1
 40
1
 10
109.464260
 20
153.091640
 30
0.0
 10
108.620310
 20
152.655760
 30
0.0
 10
107.218310
 20
152.062290
 30
0.0
 10
106.348710
 20
151.772820
 30
0.0
  0
SPLINE
  5
16a
100
AcDbEntity
  8
Calque_1
 62
7
100
AcDbSpline
 70
8
 71
3
 72
8
 73
4
 74
0
 40
0
 40
0
 40
0
 40
0
 40
1
 40
1
 40
1
 40
1
 10
106.348710
 20
151.772820
 30
0.0
 10
105.458800
 20
151.476590
 30
0.0
 10
103.953660
 20
151.153240
 30
0.0
 10
102.905680
 20
151.033150
 30
0.0
  0
SPLINE
  5
16b
100
AcDbEntity
  8
Calque_1
 62
7
100
AcDbSpline
 70
8
 71
3
 72
8
 73
4
 74
0
 40
0
 40
0
 40
0
 40
0
 40
1
 40
1
 40
1
 40
1
 10
102.905680
 20
151.033150
 30
0.0
 10
101.870600
 20
150.914540
 30
0.0
 10
100.372400
 20
150.869100
 30
0.0
 10
99.532001
 20
150.930830
 30
0.0
  0
SPLINE
  5
16c
100
AcDbEntity
  8
Calque_1
 62
7
100
AcDbSpline
 70
8
 71
3
 72
8
 73
4
 74
0
 40
0
 40
0
 40
0
 40
0
 40
1
 40
1
 40
1
 40
1
 10
99.532001
 20
150.930830
 30
0.0
 10
98.700531
 20
150.991930
 30
0.0
 10
97.341061
 20
151.205760
 30
0.0
 10
96.510951
 20
151.406080
 30
0.0
  0
SPLINE
  5
16d
100
AcDbEntity
  8
Calque_1
 62
7
100
AcDbSpline
 70
8
 71
3
 72
8
 73
4
 74
0
 40
0
 40
0
 40
0
 40
0
 40
1
 40
1
 40
1
 40
1
 10
96.510951
 20
151.406080
 30
0.0
 10
95.680841
 20
151.606390
 30
0.0
 10
94.165731
 20
152.169510
 30
0.0
 10
93.144031
 20
152.657440
 30
0.0
  0
SPLINE
  5
16e
100
AcDbEntity
  8
Calque_1
 62
7
100
AcDbSpline
 70
8
 71
3
 72
8
 73
4
 74
0
 40
0
 40
0
 40
0
 40
0
 40
1
 40
1
 40
1
 40
1
 10
93.144031
 20
152.657440
 30
0.0
 10
92.122331
 20
153.145380
 30
0.0
 10
90.867181
 20
153.861110
 30
0.0
 10
90.354801
 20
154.247960
 30
0.0
  0
SPLINE
  5
16f
100
AcDbEntity
  8
Calque_1
 62
7
100
AcDbSpline
 70
8
 71
3
 72
8
 73
4
 74
0
 40
0
 40
0
 40
0
 40
0
 40
1
 40
1
 40
1
 40
1
 10
90.354801
 20
154.247960
 30
0.0
 10
89.842431
 20
154.634800
 30
0.0
 10
88.732881
 20
155.646320
 30
0.0
 10
87.889151
 20
156.495770
 30
0.0
  0
SPLINE
  5
170
100
AcDbEntity
  8
Calque_1
 62
7
100
AcDbSpline
 70
8
 71
3
 72
8
 73
4
 74
0
 40
0
 40
0
 40
0
 40
0
 40
1
 40
1
 40
1
 40
1
 10
87.889151
 20
156.495770
 30
0.0
 10
87.045421
 20
157.345210
 30
0.0
 10
86.054371
 20
158.483760
 30
0.0
 10
85.686811
 20
159.025860
 30
0.0
  0
SPLINE
  5
171
100
AcDbEntity
  8
Calque_1
 62
7
100
AcDbSpline
 70
8
 71
3
 72
8
 73
4
 74
0
 40
0
 40
0
 40
0
 40
0
 40
1
 40
1
 40
1
 40
1
 10
85.686811
 20
159.025860
 30
0.0
 10
85.319251
 20
159.567970
 30
0.0
 10
84.805831
 20
160.432030
 30
0.0
 10
84.545881
 20
160.946010
 30
0.0
  0
SPLINE
  5
172
100
AcDbEntity
  8
Calque_1
 62
7
100
AcDbSpline
 70
8
 71
3
 72
8
 73
4
 74
0
 40
0
 40
0
 40
0
 40
0
 40
1
 40
1
 40
1
 40
1
 10
84.545881
 20
160.946010
 30
0.0
 10
84.285931
 20
161.459980
 30
0.0
 10
83.839491
 20
162.578630
 30
0.0
 10
83.553801
 20
163.431890
 30
0.0
  0
SPLINE
  5
173
100
AcDbEntity
  8
Calque_1
 62
7
100
AcDbSpline
 70
8
 71
3
 72
8
 73
4
 74
0
 40
0
 40
0
 40
0
 40
0
 40
1
 40
1
 40
1
 40
1
 10
83.553801
 20
163.431890
 30
0.0
 10
83.222821
 20
164.420380
 30
0.0
 10
82.962531
 20
165.702810
 30
0.0
 10
82.836391
 20
166.966380
 30
0.0
  0
SPLINE
  5
174
100
AcDbEntity
  8
Calque_1
 62
7
100
AcDbSpline
 70
8
 71
3
 72
8
 73
4
 74
0
 40
0
 40
0
 40
0
 40
0
 40
1
 40
1
 40
1
 40
1
 10
82.836391
 20
166.966380
 30
0.0
 10
82.693031
 20
168.402470
 30
0.0
 10
82.691161
 20
169.516260
 30
0.0
 10
82.829391
 20
171.004160
 30
0.0
  0
SPLINE
  5
175
100
AcDbEntity
  8
Calque_1
 62
7
100
AcDbSpline
 70
8
 71
3
 72
8
 73
4
 74
0
 40
0
 40
0
 40
0
 40
0
 40
1
 40
1
 40
1
 40
1
 10
82.829391
 20
171.004160
 30
0.0
 10
82.943271
 20
172.228020
 30
0.0
 10
83.207631
 20
173.651870
 30
0.0
 10
83.483151
 20
174.525500
 30
0.0
  0
SPLINE
  5
176
100
AcDbEntity
  8
Calque_1
 62
7
100
AcDbSpline
 70
8
 71
3
 72
8
 73
4
 74
0
 40
0
 40
0
 40
0
 40
0
 40
1
 40
1
 40
1
 40
1
 10
83.483151
 20
174.525500
 30
0.0
 10
83.737571
 20
175.332170
 30
0.0
 10
84.226771
 20
176.551500
 30
0.0
 10
84.570301
 20
177.235110
 30
0.0
  0
SPLINE
  5
177
100
AcDbEntity
  8
Calque_1
 62
7
100
AcDbSpline
 70
8
 71
3
 72
8
 73
4
 74
0
 40
0
 40
0
 40
0
 40
0
 40
1
 40
1
 40
1
 40
1
 10
84.570301
 20
177.235110
 30
0.0
 10
84.913811
 20
177.918730
 30
0.0
 10
85.517541
 20
178.957480
 30
0.0
 10
85.911921
 20
179.543430
 30
0.0
  0
SPLINE
  5
178
100
AcDbEntity
  8
Calque_1
 62
7
100
AcDbSpline
 70
8
 71
3
 72
8
 73
4
 74
0
 40
0
 40
0
 40
0
 40
0
 40
1
 40
1
 40
1
 40
1
 10
85.911921
 20
179.543430
 30
0.0
 10
86.306301
 20
180.129390
 30
0.0
 10
87.234321
 20
181.214160
 30
0.0
 10
87.974181
 20
181.954030
 30
0.0
  0
SPLINE
  5
179
100
AcDbEntity
  8
Calque_1
 62
7
100
AcDbSpline
 70
8
 71
3
 72
8
 73
4
 74
0
 40
0
 40
0
 40
0
 40
0
 40
1
 40
1
 40
1
 40
1
 10
87.974181
 20
181.954030
 30
0.0
 10
88.714051
 20
182.693900
 30
0.0
 10
89.829281
 20
183.642850
 30
0.0
 10
90.452461
 20
184.062820
 30
0.0
  0
SPLINE
  5
17a
100
AcDbEntity
  8
Calque_1
 62
7
100
AcDbSpline
 70
8
 71
3
 72
8
 73
4
 74
0
 40
0
 40
0
 40
0
 40
0
 40
1
 40
1
 40
1
 40
1
 10
90.452461
 20
184.062820
 30
0.0
 10
91.075641
 20
184.482790
 30
0.0
 10
92.234241
 20
185.129360
 30
0.0
 10
93.027121
 20
185.499640
 30
0.0
  0
SPLINE
  5
17b
100
AcDbEntity
  8
Calque_1
 62
7
100
AcDbSpline
 70
8
 71
3
 72
8
 73
4
 74
0
 40
0
 40
0
 40
0
 40
0
 40
1
 40
1
 40
1
 40
1
 10
93.027121
 20
185.499640
 30
0.0
 10
93.820001
 20
185.869920
 30
0.0
 10
95.006381
 20
186.345630
 30
0.0
 10
95.663511
 20
186.556770
 30
0.0
  0
SPLINE
  5
17c
100
AcDbEntity
  8
Calque_1
 62
7
100
AcDbSpline
 70
8
 71
3
 72
8
 73
4
 74
0
 40
0
 40
0
 40
0
 40
0
 40
1
 40
1
 40
1
 40
1
 10
95.663511
 20
186.556770
 30
0.0
 10
96.320641
 20
186.767910
 30
0.0
 10
97.239531
 20
186.999470
 30
0.0
 10
97.705481
 20
187.071350
 30
0.0
  0
LWPOLYLINE
  5
17d
100
AcDbEntity
  8
Calque_1
 62
7
100
AcDbPolyline
 90
2
 70
0
 10
104.205710
 20
187.428610
 30
0.0
 10
104.035700
 20
187.069210
 30
0.0
  0
SPLINE
  5
17e
100
AcDbEntity
  8
Calque_1
 62
7
100
AcDbSpline
 70
8
 71
3
 72
8
 73
4
 74
0
 40
0
 40
0
 40
0
 40
0
 40
1
 40
1
 40
1
 40
1
 10
97.753681
 20
187.343630
 30
0.0
 10
97.314211
 20
187.421530
 30
0.0
 10
96.315421
 20
187.685310
 30
0.0
 10
95.534141
 20
187.929870
 30
0.0
  0
SPLINE
  5
17f
100
AcDbEntity
  8
Calque_1
 62
7
100
AcDbSpline
 70
8
 71
3
 72
8
 73
4
 74
0
 40
0
 40
0
 40
0
 40
0
 40
1
 40
1
 40
1
 40
1
 10
95.534141
 20
187.929870
 30
0.0
 10
94.752871
 20
188.174430
 30
0.0
 10
93.634231
 20
188.615470
 30
0.0
 10
93.048271
 20
188.909970
 30
0.0
  0
SPLINE
  5
180
100
AcDbEntity
  8
Calque_1
 62
7
100
AcDbSpline
 70
8
 71
3
 72
8
 73
4
 74
0
 40
0
 40
0
 40
0
 40
0
 40
1
 40
1
 40
1
 40
1
 10
93.048271
 20
188.909970
 30
0.0
 10
92.462321
 20
189.204450
 30
0.0
 10
91.623321
 20
189.688210
 30
0.0
 10
91.183851
 20
189.984990
 30
0.0
  0
SPLINE
  5
181
100
AcDbEntity
  8
Calque_1
 62
7
100
AcDbSpline
 70
8
 71
3
 72
8
 73
4
 74
0
 40
0
 40
0
 40
0
 40
0
 40
1
 40
1
 40
1
 40
1
 10
91.183851
 20
189.984990
 30
0.0
 10
90.744381
 20
190.281770
 30
0.0
 10
90.015691
 20
190.829190
 30
0.0
 10
89.564531
 20
191.201490
 30
0.0
  0
LWPOLYLINE
  5
182
100
AcDbEntity
  8
Calque_1
 62
7
100
AcDbPolyline
 90
2
 70
0
 10
97.705481
 20
187.071350
 30
0.0
 10
97.753681
 20
187.343630
 30
0.0
  0
SPLINE
  5
183
100
AcDbEntity
  8
Calque_1
 62
7
100
AcDbSpline
 70
8
 71
3
 72
8
 73
4
 74
0
 40
0
 40
0
 40
0
 40
0
 40
1
 40
1
 40
1
 40
1
 10
87.619991
 20
191.151790
 30
0.0
 10
87.001641
 20
190.752130
 30
0.0
 10
85.852611
 20
189.935710
 30
0.0
 10
85.066581
 20
189.337510
 30
0.0
  0
SPLINE
  5
184
100
AcDbEntity
  8
Calque_1
 62
7
100
AcDbSpline
 70
8
 71
3
 72
8
 73
4
 74
0
 40
0
 40
0
 40
0
 40
0
 40
1
 40
1
 40
1
 40
1
 10
85.066581
 20
189.337510
 30
0.0
 10
84.280541
 20
188.739310
 30
0.0
 10
83.126831
 20
187.729190
 30
0.0
 10
82.502771
 20
187.092810
 30
0.0
  0
SPLINE
  5
185
100
AcDbEntity
  8
Calque_1
 62
7
100
AcDbSpline
 70
8
 71
3
 72
8
 73
4
 74
0
 40
0
 40
0
 40
0
 40
0
 40
1
 40
1
 40
1
 40
1
 10
82.502771
 20
187.092810
 30
0.0
 10
81.878711
 20
186.456420
 30
0.0
 10
80.946571
 20
185.376410
 30
0.0
 10
80.431351
 20
184.692800
 30
0.0
  0
SPLINE
  5
186
100
AcDbEntity
  8
Calque_1
 62
7
100
AcDbSpline
 70
8
 71
3
 72
8
 73
4
 74
0
 40
0
 40
0
 40
0
 40
0
 40
1
 40
1
 40
1
 40
1
 10
80.431351
 20
184.692800
 30
0.0
 10
79.916131
 20
184.009180
 30
0.0
 10
79.125891
 20
182.824220
 30
0.0
 10
78.675251
 20
182.059560
 30
0.0
  0
SPLINE
  5
187
100
AcDbEntity
  8
Calque_1
 62
7
100
AcDbSpline
 70
8
 71
3
 72
8
 73
4
 74
0
 40
0
 40
0
 40
0
 40
0
 40
1
 40
1
 40
1
 40
1
 10
78.675251
 20
182.059560
 30
0.0
 10
78.224611
 20
181.294900
 30
0.0
 10
77.508881
 20
179.856640
 30
0.0
 10
77.084731
 20
178.863430
 30
0.0
  0
SPLINE
  5
188
100
AcDbEntity
  8
Calque_1
 62
7
100
AcDbSpline
 70
8
 71
3
 72
8
 73
4
 74
0
 40
0
 40
0
 40
0
 40
0
 40
1
 40
1
 40
1
 40
1
 10
77.084731
 20
178.863430
 30
0.0
 10
76.660581
 20
177.870220
 30
0.0
 10
76.145941
 20
176.378410
 30
0.0
 10
75.941091
 20
175.548310
 30
0.0
  0
SPLINE
  5
189
100
AcDbEntity
  8
Calque_1
 62
7
100
AcDbSpline
 70
8
 71
3
 72
8
 73
4
 74
0
 40
0
 40
0
 40
0
 40
0
 40
1
 40
1
 40
1
 40
1
 10
75.941091
 20
175.548310
 30
0.0
 10
75.736241
 20
174.718200
 30
0.0
 10
75.490881
 20
173.519650
 30
0.0
 10
75.395851
 20
172.884860
 30
0.0
  0
SPLINE
  5
18a
100
AcDbEntity
  8
Calque_1
 62
7
100
AcDbSpline
 70
8
 71
3
 72
8
 73
4
 74
0
 40
0
 40
0
 40
0
 40
0
 40
1
 40
1
 40
1
 40
1
 10
75.395851
 20
172.884860
 30
0.0
 10
75.300851
 20
172.250080
 30
0.0
 10
75.171241
 20
171.091480
 30
0.0
 10
75.107911
 20
170.310200
 30
0.0
  0
SPLINE
  5
18b
100
AcDbEntity
  8
Calque_1
 62
7
100
AcDbSpline
 70
8
 71
3
 72
8
 73
4
 74
0
 40
0
 40
0
 40
0
 40
0
 40
1
 40
1
 40
1
 40
1
 10
75.107911
 20
170.310200
 30
0.0
 10
75.044611
 20
169.528920
 30
0.0
 10
75.082411
 20
168.050710
 30
0.0
 10
75.192011
 20
167.025290
 30
0.0
  0
SPLINE
  5
18c
100
AcDbEntity
  8
Calque_1
 62
7
100
AcDbSpline
 70
8
 71
3
 72
8
 73
4
 74
0
 40
0
 40
0
 40
0
 40
0
 40
1
 40
1
 40
1
 40
1
 10
75.192011
 20
167.025290
 30
0.0
 10
75.301581
 20
165.999860
 30
0.0
 10
75.636371
 20
164.165300
 30
0.0
 10
75.935981
 20
162.948490
 30
0.0
  0
SPLINE
  5
18d
100
AcDbEntity
  8
Calque_1
 62
7
100
AcDbSpline
 70
8
 71
3
 72
8
 73
4
 74
0
 40
0
 40
0
 40
0
 40
0
 40
1
 40
1
 40
1
 40
1
 10
75.935981
 20
162.948490
 30
0.0
 10
76.235601
 20
161.731680
 30
0.0
 10
76.783521
 20
160.033800
 30
0.0
 10
77.153591
 20
159.175430
 30
0.0
  0
SPLINE
  5
18e
100
AcDbEntity
  8
Calque_1
 62
7
100
AcDbSpline
 70
8
 71
3
 72
8
 73
4
 74
0
 40
0
 40
0
 40
0
 40
0
 40
1
 40
1
 40
1
 40
1
 10
77.153591
 20
159.175430
 30
0.0
 10
77.523661
 20
158.317050
 30
0.0
 10
78.160691
 20
157.030550
 30
0.0
 10
78.569221
 20
156.316530
 30
0.0
  0
SPLINE
  5
18f
100
AcDbEntity
  8
Calque_1
 62
7
100
AcDbSpline
 70
8
 71
3
 72
8
 73
4
 74
0
 40
0
 40
0
 40
0
 40
0
 40
1
 40
1
 40
1
 40
1
 10
78.569221
 20
156.316530
 30
0.0
 10
78.977741
 20
155.602520
 30
0.0
 10
79.719381
 20
154.463830
 30
0.0
 10
80.217281
 20
153.786110
 30
0.0
  0
SPLINE
  5
190
100
AcDbEntity
  8
Calque_1
 62
7
100
AcDbSpline
 70
8
 71
3
 72
8
 73
4
 74
0
 40
0
 40
0
 40
0
 40
0
 40
1
 40
1
 40
1
 40
1
 10
80.217281
 20
153.786110
 30
0.0
 10
80.715191
 20
153.108400
 30
0.0
 10
81.932231
 20
151.754870
 30
0.0
 10
82.921821
 20
150.778280
 30
0.0
  0
SPLINE
  5
191
100
AcDbEntity
  8
Calque_1
 62
7
100
AcDbSpline
 70
8
 71
3
 72
8
 73
4
 74
0
 40
0
 40
0
 40
0
 40
0
 40
1
 40
1
 40
1
 40
1
 10
82.921821
 20
150.778280
 30
0.0
 10
83.911401
 20
149.801680
 30
0.0
 10
85.399751
 20
148.546800
 30
0.0
 10
86.229261
 20
147.989650
 30
0.0
  0
SPLINE
  5
192
100
AcDbEntity
  8
Calque_1
 62
7
100
AcDbSpline
 70
8
 71
3
 72
8
 73
4
 74
0
 40
0
 40
0
 40
0
 40
0
 40
1
 40
1
 40
1
 40
1
 10
86.229261
 20
147.989650
 30
0.0
 10
87.058771
 20
147.432500
 30
0.0
 10
88.812541
 20
146.461730
 30
0.0
 10
90.126531
 20
145.832380
 30
0.0
  0
SPLINE
  5
193
100
AcDbEntity
  8
Calque_1
 62
7
100
AcDbSpline
 70
8
 71
3
 72
8
 73
4
 74
0
 40
0
 40
0
 40
0
 40
0
 40
1
 40
1
 40
1
 40
1
 10
90.126531
 20
145.832380
 30
0.0
 10
91.440531
 20
145.203040
 30
0.0
 10
93.169731
 20
144.517720
 30
0.0
 10
93.969201
 20
144.309450
 30
0.0
  0
SPLINE
  5
194
100
AcDbEntity
  8
Calque_1
 62
7
100
AcDbSpline
 70
8
 71
3
 72
8
 73
4
 74
0
 40
0
 40
0
 40
0
 40
0
 40
1
 40
1
 40
1
 40
1
 10
93.969201
 20
144.309450
 30
0.0
 10
94.768671
 20
144.101180
 30
0.0
 10
96.127031
 20
143.815930
 30
0.0
 10
96.987771
 20
143.675550
 30
0.0
  0
SPLINE
  5
195
100
AcDbEntity
  8
Calque_1
 62
7
100
AcDbSpline
 70
8
 71
3
 72
8
 73
4
 74
0
 40
0
 40
0
 40
0
 40
0
 40
1
 40
1
 40
1
 40
1
 10
96.987771
 20
143.675550
 30
0.0
 10
98.067401
 20
143.499480
 30
0.0
 10
99.461381
 20
143.442680
 30
0.0
 10
101.482540
 20
143.492410
 30
0.0
  0
SPLINE
  5
196
100
AcDbEntity
  8
Calque_1
 62
7
100
AcDbSpline
 70
8
 71
3
 72
8
 73
4
 74
0
 40
0
 40
0
 40
0
 40
0
 40
1
 40
1
 40
1
 40
1
 10
101.482540
 20
143.492410
 30
0.0
 10
103.533100
 20
143.542810
 30
0.0
 10
104.902260
 20
143.672130
 30
0.0
 10
106.044900
 20
143.923150
 30
0.0
  0
LWPOLYLINE
  5
197
100
AcDbEntity
  8
Calque_1
 62
7
100
AcDbPolyline
 90
2
 70
0
 10
89.564531
 20
191.201490
 30
0.0
 10
87.619991
 20
191.151790
 30
0.0
  0
SPLINE
  5
198
100
AcDbEntity
  8
Calque_1
 62
7
100
AcDbSpline
 70
8
 71
3
 72
8
 73
4
 74
0
 40
0
 40
0
 40
0
 40
0
 40
1
 40
1
 40
1
 40
1
 10
103.347110
 20
151.761350
 30
0.0
 10
104.030730
 20
151.858750
 30
0.0
 10
105.229280
 20
152.148110
 30
0.0
 10
106.010560
 20
152.404420
 30
0.0
  0
SPLINE
  5
199
100
AcDbEntity
  8
Calque_1
 62
7
100
AcDbSpline
 70
8
 71
3
 72
8
 73
4
 74
0
 40
0
 40
0
 40
0
 40
0
 40
1
 40
1
 40
1
 40
1
 10
106.010560
 20
152.404420
 30
0.0
 10
106.791830
 20
152.660740
 30
0.0
 10
108.030330
 20
153.169650
 30
0.0
 10
108.762780
 20
153.535330
 30
0.0
  0
SPLINE
  5
19a
100
AcDbEntity
  8
Calque_1
 62
7
100
AcDbSpline
 70
8
 71
3
 72
8
 73
4
 74
0
 40
0
 40
0
 40
0
 40
0
 40
1
 40
1
 40
1
 40
1
 10
108.762780
 20
153.535330
 30
0.0
 10
109.495230
 20
153.901020
 30
0.0
 10
110.591810
 20
154.574090
 30
0.0
 10
111.199620
 20
155.031050
 30
0.0
  0
SPLINE
  5
19b
100
AcDbEntity
  8
Calque_1
 62
7
100
AcDbSpline
 70
8
 71
3
 72
8
 73
4
 74
0
 40
0
 40
0
 40
0
 40
0
 40
1
 40
1
 40
1
 40
1
 10
111.199620
 20
155.031050
 30
0.0
 10
111.807440
 20
155.488020
 30
0.0
 10
112.909790
 20
156.513170
 30
0.0
 10
113.649280
 20
157.309160
 30
0.0
  0
SPLINE
  5
19c
100
AcDbEntity
  8
Calque_1
 62
7
100
AcDbSpline
 70
8
 71
3
 72
8
 73
4
 74
0
 40
0
 40
0
 40
0
 40
0
 40
1
 40
1
 40
1
 40
1
 10
113.649280
 20
157.309160
 30
0.0
 10
114.388780
 20
158.105160
 30
0.0
 10
115.284420
 20
159.194240
 30
0.0
 10
115.639600
 20
159.729340
 30
0.0
  0
SPLINE
  5
19d
100
AcDbEntity
  8
Calque_1
 62
7
100
AcDbSpline
 70
8
 71
3
 72
8
 73
4
 74
0
 40
0
 40
0
 40
0
 40
0
 40
1
 40
1
 40
1
 40
1
 10
115.639600
 20
159.729340
 30
0.0
 10
115.994780
 20
160.264430
 30
0.0
 10
116.627400
 20
161.545620
 30
0.0
 10
117.045420
 20
162.576410
 30
0.0
  0
SPLINE
  5
19e
100
AcDbEntity
  8
Calque_1
 62
7
100
AcDbSpline
 70
8
 71
3
 72
8
 73
4
 74
0
 40
0
 40
0
 40
0
 40
0
 40
1
 40
1
 40
1
 40
1
 10
117.045420
 20
162.576410
 30
0.0
 10
117.491770
 20
163.677050
 30
0.0
 10
117.926570
 20
165.146800
 30
0.0
 10
118.098880
 20
166.137430
 30
0.0
  0
SPLINE
  5
19f
100
AcDbEntity
  8
Calque_1
 62
7
100
AcDbSpline
 70
8
 71
3
 72
8
 73
4
 74
0
 40
0
 40
0
 40
0
 40
0
 40
1
 40
1
 40
1
 40
1
 10
118.098880
 20
166.137430
 30
0.0
 10
118.313850
 20
167.373260
 30
0.0
 10
118.366050
 20
168.393990
 30
0.0
 10
118.294150
 20
169.955030
 30
0.0
  0
SPLINE
  5
1a0
100
AcDbEntity
  8
Calque_1
 62
7
100
AcDbSpline
 70
8
 71
3
 72
8
 73
4
 74
0
 40
0
 40
0
 40
0
 40
0
 40
1
 40
1
 40
1
 40
1
 10
118.294150
 20
169.955030
 30
0.0
 10
118.231550
 20
171.314260
 30
0.0
 10
118.061120
 20
172.559170
 30
0.0
 10
117.823510
 20
173.393120
 30
0.0
  0
SPLINE
  5
1a1
100
AcDbEntity
  8
Calque_1
 62
7
100
AcDbSpline
 70
8
 71
3
 72
8
 73
4
 74
0
 40
0
 40
0
 40
0
 40
0
 40
1
 40
1
 40
1
 40
1
 10
117.823510
 20
173.393120
 30
0.0
 10
117.618650
 20
174.112140
 30
0.0
 10
117.245230
 20
175.190840
 30
0.0
 10
116.993680
 20
175.790220
 30
0.0
  0
SPLINE
  5
1a2
100
AcDbEntity
  8
Calque_1
 62
7
100
AcDbSpline
 70
8
 71
3
 72
8
 73
4
 74
0
 40
0
 40
0
 40
0
 40
0
 40
1
 40
1
 40
1
 40
1
 10
116.993680
 20
175.790220
 30
0.0
 10
116.742140
 20
176.389590
 30
0.0
 10
116.227390
 20
177.410140
 30
0.0
 10
115.849800
 20
178.058100
 30
0.0
  0
SPLINE
  5
1a3
100
AcDbEntity
  8
Calque_1
 62
7
100
AcDbSpline
 70
8
 71
3
 72
8
 73
4
 74
0
 40
0
 40
0
 40
0
 40
0
 40
1
 40
1
 40
1
 40
1
 10
115.849800
 20
178.058100
 30
0.0
 10
115.472200
 20
178.706060
 30
0.0
 10
114.744680
 20
179.737150
 30
0.0
 10
114.233080
 20
180.349420
 30
0.0
  0
SPLINE
  5
1a4
100
AcDbEntity
  8
Calque_1
 62
7
100
AcDbSpline
 70
8
 71
3
 72
8
 73
4
 74
0
 40
0
 40
0
 40
0
 40
0
 40
1
 40
1
 40
1
 40
1
 10
114.233080
 20
180.349420
 30
0.0
 10
113.721480
 20
180.961690
 30
0.0
 10
112.700860
 20
181.977310
 30
0.0
 10
111.965040
 20
182.606350
 30
0.0
  0
SPLINE
  5
1a5
100
AcDbEntity
  8
Calque_1
 62
7
100
AcDbSpline
 70
8
 71
3
 72
8
 73
4
 74
0
 40
0
 40
0
 40
0
 40
0
 40
1
 40
1
 40
1
 40
1
 10
111.965040
 20
182.606350
 30
0.0
 10
111.106190
 20
183.340580
 30
0.0
 10
109.991450
 20
184.058960
 30
0.0
 10
108.851560
 20
184.612790
 30
0.0
  0
SPLINE
  5
1a6
100
AcDbEntity
  8
Calque_1
 62
7
100
AcDbSpline
 70
8
 71
3
 72
8
 73
4
 74
0
 40
0
 40
0
 40
0
 40
0
 40
1
 40
1
 40
1
 40
1
 10
108.851560
 20
184.612790
 30
0.0
 10
107.874970
 20
185.087290
 30
0.0
 10
106.436710
 20
185.692240
 30
0.0
 10
105.655430
 20
185.957130
 30
0.0
  0
SPLINE
  5
1a7
100
AcDbEntity
  8
Calque_1
 62
7
100
AcDbSpline
 70
8
 71
3
 72
8
 73
4
 74
0
 40
0
 40
0
 40
0
 40
0
 40
1
 40
1
 40
1
 40
1
 10
105.655430
 20
185.957130
 30
0.0
 10
104.413940
 20
186.378060
 30
0.0
 10
103.888090
 20
186.448230
 30
0.0
 10
101.482700
 20
186.513910
 30
0.0
  0
SPLINE
  5
1a8
100
AcDbEntity
  8
Calque_1
 62
7
100
AcDbSpline
 70
8
 71
3
 72
8
 73
4
 74
0
 40
0
 40
0
 40
0
 40
0
 40
1
 40
1
 40
1
 40
1
 10
101.482700
 20
186.513910
 30
0.0
 10
99.441051
 20
186.569610
 30
0.0
 10
98.397741
 20
186.518910
 30
0.0
 10
97.441731
 20
186.316020
 30
0.0
  0
SPLINE
  5
1a9
100
AcDbEntity
  8
Calque_1
 62
7
100
AcDbSpline
 70
8
 71
3
 72
8
 73
4
 74
0
 40
0
 40
0
 40
0
 40
0
 40
1
 40
1
 40
1
 40
1
 10
97.441731
 20
186.316020
 30
0.0
 10
96.732911
 20
186.165860
 30
0.0
 10
95.318941
 20
185.689500
 30
0.0
 10
94.299561
 20
185.257450
 30
0.0
  0
SPLINE
  5
1aa
100
AcDbEntity
  8
Calque_1
 62
7
100
AcDbSpline
 70
8
 71
3
 72
8
 73
4
 74
0
 40
0
 40
0
 40
0
 40
0
 40
1
 40
1
 40
1
 40
1
 10
94.299561
 20
185.257450
 30
0.0
 10
93.280181
 20
184.825400
 30
0.0
 10
91.775801
 20
184.025870
 30
0.0
 10
90.956491
 20
183.480720
 30
0.0
  0
SPLINE
  5
1ab
100
AcDbEntity
  8
Calque_1
 62
7
100
AcDbSpline
 70
8
 71
3
 72
8
 73
4
 74
0
 40
0
 40
0
 40
0
 40
0
 40
1
 40
1
 40
1
 40
1
 10
90.956491
 20
183.480720
 30
0.0
 10
90.137171
 20
182.935560
 30
0.0
 10
88.941311
 20
181.932460
 30
0.0
 10
88.299021
 20
181.251590
 30
0.0
  0
SPLINE
  5
1ac
100
AcDbEntity
  8
Calque_1
 62
7
100
AcDbSpline
 70
8
 71
3
 72
8
 73
4
 74
0
 40
0
 40
0
 40
0
 40
0
 40
1
 40
1
 40
1
 40
1
 10
88.299021
 20
181.251590
 30
0.0
 10
87.656721
 20
180.570720
 30
0.0
 10
86.815531
 20
179.548290
 30
0.0
 10
86.429701
 20
178.979510
 30
0.0
  0
SPLINE
  5
1ad
100
AcDbEntity
  8
Calque_1
 62
7
100
AcDbSpline
 70
8
 71
3
 72
8
 73
4
 74
0
 40
0
 40
0
 40
0
 40
0
 40
1
 40
1
 40
1
 40
1
 10
86.429701
 20
178.979510
 30
0.0
 10
86.043881
 20
178.410730
 30
0.0
 10
85.475301
 20
177.443770
 30
0.0
 10
85.166191
 20
176.830720
 30
0.0
  0
SPLINE
  5
1ae
100
AcDbEntity
  8
Calque_1
 62
7
100
AcDbSpline
 70
8
 71
3
 72
8
 73
4
 74
0
 40
0
 40
0
 40
0
 40
0
 40
1
 40
1
 40
1
 40
1
 10
85.166191
 20
176.830720
 30
0.0
 10
84.857091
 20
176.217660
 30
0.0
 10
84.349441
 20
174.979160
 30
0.0
 10
84.038081
 20
174.078490
 30
0.0
  0
SPLINE
  5
1af
100
AcDbEntity
  8
Calque_1
 62
7
100
AcDbSpline
 70
8
 71
3
 72
8
 73
4
 74
0
 40
0
 40
0
 40
0
 40
0
 40
1
 40
1
 40
1
 40
1
 10
84.038081
 20
174.078490
 30
0.0
 10
83.481191
 20
172.467550
 30
0.0
 10
83.471971
 20
172.387490
 30
0.0
 10
83.471411
 20
169.156000
 30
0.0
  0
LWPOLYLINE
  5
1b0
100
AcDbEntity
  8
Calque_1
 62
7
100
AcDbPolyline
 90
2
 70
0
 10
106.044900
 20
143.923150
 30
0.0
 10
106.045060
 20
143.923110
 30
0.0
  0
SPLINE
  5
1b1
100
AcDbEntity
  8
Calque_1
 62
7
100
AcDbSpline
 70
8
 71
3
 72
8
 73
4
 74
0
 40
0
 40
0
 40
0
 40
0
 40
1
 40
1
 40
1
 40
1
 10
84.134721
 20
163.937380
 30
0.0
 10
84.499851
 20
162.873840
 30
0.0
 10
85.079281
 20
161.469540
 30
0.0
 10
85.422331
 20
160.816720
 30
0.0
  0
SPLINE
  5
1b2
100
AcDbEntity
  8
Calque_1
 62
7
100
AcDbSpline
 70
8
 71
3
 72
8
 73
4
 74
0
 40
0
 40
0
 40
0
 40
0
 40
1
 40
1
 40
1
 40
1
 10
85.422331
 20
160.816720
 30
0.0
 10
85.765381
 20
160.163890
 30
0.0
 10
86.685271
 20
158.896430
 30
0.0
 10
87.466541
 20
158.000140
 30
0.0
  0
SPLINE
  5
1b3
100
AcDbEntity
  8
Calque_1
 62
7
100
AcDbSpline
 70
8
 71
3
 72
8
 73
4
 74
0
 40
0
 40
0
 40
0
 40
0
 40
1
 40
1
 40
1
 40
1
 10
87.466541
 20
158.000140
 30
0.0
 10
88.247811
 20
157.103840
 30
0.0
 10
89.463791
 20
155.894500
 30
0.0
 10
90.168711
 20
155.312720
 30
0.0
  0
SPLINE
  5
1b4
100
AcDbEntity
  8
Calque_1
 62
7
100
AcDbSpline
 70
8
 71
3
 72
8
 73
4
 74
0
 40
0
 40
0
 40
0
 40
0
 40
1
 40
1
 40
1
 40
1
 10
90.168711
 20
155.312720
 30
0.0
 10
90.873641
 20
154.730930
 30
0.0
 10
92.089621
 20
153.938200
 30
0.0
 10
92.870901
 20
153.551090
 30
0.0
  0
SPLINE
  5
1b5
100
AcDbEntity
  8
Calque_1
 62
7
100
AcDbSpline
 70
8
 71
3
 72
8
 73
4
 74
0
 40
0
 40
0
 40
0
 40
0
 40
1
 40
1
 40
1
 40
1
 10
92.870901
 20
153.551090
 30
0.0
 10
93.652181
 20
153.163990
 30
0.0
 10
94.893821
 20
152.645100
 30
0.0
 10
95.630111
 20
152.398000
 30
0.0
  0
SPLINE
  5
1b6
100
AcDbEntity
  8
Calque_1
 62
7
100
AcDbSpline
 70
8
 71
3
 72
8
 73
4
 74
0
 40
0
 40
0
 40
0
 40
0
 40
1
 40
1
 40
1
 40
1
 10
95.630111
 20
152.398000
 30
0.0
 10
96.366401
 20
152.150900
 30
0.0
 10
97.485041
 20
151.875010
 30
0.0
 10
98.115991
 20
151.784920
 30
0.0
  0
SPLINE
  5
1b7
100
AcDbEntity
  8
Calque_1
 62
7
100
AcDbSpline
 70
8
 71
3
 72
8
 73
4
 74
0
 40
0
 40
0
 40
0
 40
0
 40
1
 40
1
 40
1
 40
1
 10
98.115991
 20
151.784920
 30
0.0
 10
98.746941
 20
151.694820
 30
0.0
 10
99.902391
 20
151.612820
 30
0.0
 10
100.683670
 20
151.602710
 30
0.0
  0
SPLINE
  5
1b8
100
AcDbEntity
  8
Calque_1
 62
7
100
AcDbSpline
 70
8
 71
3
 72
8
 73
4
 74
0
 40
0
 40
0
 40
0
 40
0
 40
1
 40
1
 40
1
 40
1
 10
100.683670
 20
151.602710
 30
0.0
 10
101.464950
 20
151.592610
 30
0.0
 10
102.663490
 20
151.664010
 30
0.0
 10
103.347110
 20
151.761350
 30
0.0
  0
LWPOLYLINE
  5
1b9
100
AcDbEntity
  8
Calque_1
 62
7
100
AcDbPolyline
 90
2
 70
0
 10
83.471411
 20
169.156000
 30
0.0
 10
84.134721
 20
163.937380
 30
0.0
  0
SPLINE
  5
1ba
100
AcDbEntity
  8
Calque_1
 62
7
100
AcDbSpline
 70
8
 71
3
 72
8
 73
4
 74
0
 40
0
 40
0
 40
0
 40
0
 40
1
 40
1
 40
1
 40
1
 10
104.945180
 20
188.333030
 30
0.0
 10
105.726460
 20
188.542770
 30
0.0
 10
107.032360
 20
189.026360
 30
0.0
 10
107.847180
 20
189.407670
 30
0.0
  0
SPLINE
  5
1bb
100
AcDbEntity
  8
Calque_1
 62
7
100
AcDbSpline
 70
8
 71
3
 72
8
 73
4
 74
0
 40
0
 40
0
 40
0
 40
0
 40
1
 40
1
 40
1
 40
1
 10
107.847180
 20
189.407670
 30
0.0
 10
108.662010
 20
189.788980
 30
0.0
 10
109.820600
 20
190.452730
 30
0.0
 10
110.421840
 20
190.882670
 30
0.0
  0
SPLINE
  5
1bc
100
AcDbEntity
  8
Calque_1
 62
7
100
AcDbSpline
 70
8
 71
3
 72
8
 73
4
 74
0
 40
0
 40
0
 40
0
 40
0
 40
1
 40
1
 40
1
 40
1
 10
110.421840
 20
190.882670
 30
0.0
 10
111.023080
 20
191.312610
 30
0.0
 10
111.654220
 20
191.819300
 30
0.0
 10
111.824370
 20
192.008640
 30
0.0
  0
SPLINE
  5
1bd
100
AcDbEntity
  8
Calque_1
 62
7
100
AcDbSpline
 70
8
 71
3
 72
8
 73
4
 74
0
 40
0
 40
0
 40
0
 40
0
 40
1
 40
1
 40
1
 40
1
 10
111.824370
 20
192.008640
 30
0.0
 10
112.122740
 20
192.340680
 30
0.0
 10
112.110130
 20
192.366120
 30
0.0
 10
111.469240
 20
192.725080
 30
0.0
  0
SPLINE
  5
1be
100
AcDbEntity
  8
Calque_1
 62
7
100
AcDbSpline
 70
8
 71
3
 72
8
 73
4
 74
0
 40
0
 40
0
 40
0
 40
0
 40
1
 40
1
 40
1
 40
1
 10
111.469240
 20
192.725080
 30
0.0
 10
111.103770
 20
192.929780
 30
0.0
 10
109.845910
 20
193.431190
 30
0.0
 10
108.674000
 20
193.839330
 30
0.0
  0
SPLINE
  5
1bf
100
AcDbEntity
  8
Calque_1
 62
7
100
AcDbSpline
 70
8
 71
3
 72
8
 73
4
 74
0
 40
0
 40
0
 40
0
 40
0
 40
1
 40
1
 40
1
 40
1
 10
108.674000
 20
193.839330
 30
0.0
 10
107.502080
 20
194.247460
 30
0.0
 10
106.063820
 20
194.662130
 30
0.0
 10
105.477870
 20
194.760820
 30
0.0
  0
SPLINE
  5
1c0
100
AcDbEntity
  8
Calque_1
 62
7
100
AcDbSpline
 70
8
 71
3
 72
8
 73
4
 74
0
 40
0
 40
0
 40
0
 40
0
 40
1
 40
1
 40
1
 40
1
 10
105.477870
 20
194.760820
 30
0.0
 10
104.891910
 20
194.859520
 30
0.0
 10
103.024420
 20
194.976990
 30
0.0
 10
101.327900
 20
195.021920
 30
0.0
  0
SPLINE
  5
1c1
100
AcDbEntity
  8
Calque_1
 62
7
100
AcDbSpline
 70
8
 71
3
 72
8
 73
4
 74
0
 40
0
 40
0
 40
0
 40
0
 40
1
 40
1
 40
1
 40
1
 10
101.327900
 20
195.021920
 30
0.0
 10
98.948841
 20
195.084920
 30
0.0
 10
97.924271
 20
195.038920
 30
0.0
 10
96.848471
 20
194.820970
 30
0.0
  0
SPLINE
  5
1c2
100
AcDbEntity
  8
Calque_1
 62
7
100
AcDbSpline
 70
8
 71
3
 72
8
 73
4
 74
0
 40
0
 40
0
 40
0
 40
0
 40
1
 40
1
 40
1
 40
1
 10
96.848471
 20
194.820970
 30
0.0
 10
96.081311
 20
194.665520
 30
0.0
 10
94.752661
 20
194.336980
 30
0.0
 10
93.895921
 20
194.090870
 30
0.0
  0
SPLINE
  5
1c3
100
AcDbEntity
  8
Calque_1
 62
7
100
AcDbSpline
 70
8
 71
3
 72
8
 73
4
 74
0
 40
0
 40
0
 40
0
 40
0
 40
1
 40
1
 40
1
 40
1
 10
93.895921
 20
194.090870
 30
0.0
 10
93.039181
 20
193.844770
 30
0.0
 10
91.718961
 20
193.354810
 30
0.0
 10
90.962101
 20
193.002080
 30
0.0
  0
SPLINE
  5
1c4
100
AcDbEntity
  8
Calque_1
 62
7
100
AcDbSpline
 70
8
 71
3
 72
8
 73
4
 74
0
 40
0
 40
0
 40
0
 40
0
 40
1
 40
1
 40
1
 40
1
 10
90.962101
 20
193.002080
 30
0.0
 10
90.205241
 20
192.649350
 30
0.0
 10
89.585991
 20
192.294620
 30
0.0
 10
89.585991
 20
192.213790
 30
0.0
  0
SPLINE
  5
1c5
100
AcDbEntity
  8
Calque_1
 62
7
100
AcDbSpline
 70
8
 71
3
 72
8
 73
4
 74
0
 40
0
 40
0
 40
0
 40
0
 40
1
 40
1
 40
1
 40
1
 10
89.585991
 20
192.213790
 30
0.0
 10
89.585991
 20
192.132990
 30
0.0
 10
90.045431
 20
191.705810
 30
0.0
 10
90.606971
 20
191.264580
 30
0.0
  0
SPLINE
  5
1c6
100
AcDbEntity
  8
Calque_1
 62
7
100
AcDbSpline
 70
8
 71
3
 72
8
 73
4
 74
0
 40
0
 40
0
 40
0
 40
0
 40
1
 40
1
 40
1
 40
1
 10
90.606971
 20
191.264580
 30
0.0
 10
91.168521
 20
190.823340
 30
0.0
 10
92.162101
 20
190.181330
 30
0.0
 10
92.814941
 20
189.837870
 30
0.0
  0
SPLINE
  5
1c7
100
AcDbEntity
  8
Calque_1
 62
7
100
AcDbSpline
 70
8
 71
3
 72
8
 73
4
 74
0
 40
0
 40
0
 40
0
 40
0
 40
1
 40
1
 40
1
 40
1
 10
92.814941
 20
189.837870
 30
0.0
 10
93.467781
 20
189.494420
 30
0.0
 10
94.533251
 20
189.013430
 30
0.0
 10
95.182651
 20
188.768980
 30
0.0
  0
SPLINE
  5
1c8
100
AcDbEntity
  8
Calque_1
 62
7
100
AcDbSpline
 70
8
 71
3
 72
8
 73
4
 74
0
 40
0
 40
0
 40
0
 40
0
 40
1
 40
1
 40
1
 40
1
 10
95.182651
 20
188.768980
 30
0.0
 10
95.832051
 20
188.524550
 30
0.0
 10
96.975881
 20
188.208330
 30
0.0
 10
97.724491
 20
188.066270
 30
0.0
  0
SPLINE
  5
1c9
100
AcDbEntity
  8
Calque_1
 62
7
100
AcDbSpline
 70
8
 71
3
 72
8
 73
4
 74
0
 40
0
 40
0
 40
0
 40
0
 40
1
 40
1
 40
1
 40
1
 10
97.724491
 20
188.066270
 30
0.0
 10
98.634881
 20
187.893510
 30
0.0
 10
99.820591
 20
187.831770
 30
0.0
 10
101.305140
 20
187.879830
 30
0.0
  0
SPLINE
  5
1ca
100
AcDbEntity
  8
Calque_1
 62
7
100
AcDbSpline
 70
8
 71
3
 72
8
 73
4
 74
0
 40
0
 40
0
 40
0
 40
0
 40
1
 40
1
 40
1
 40
1
 10
101.305140
 20
187.879830
 30
0.0
 10
102.819650
 20
187.928830
 30
0.0
 10
103.975890
 20
188.072820
 30
0.0
 10
104.945180
 20
188.333030
 30
0.0
  0
LWPOLYLINE
  5
1cb
100
AcDbEntity
  8
Calque_1
 62
7
100
AcDbPolyline
 90
1
 70
1
 10
103.347110
 20
151.761350
 30
0.0
  0
SPLINE
  5
1cc
100
AcDbEntity
  8
Calque_1
 62
7
100
AcDbSpline
 70
8
 71
3
 72
8
 73
4
 74
0
 40
0
 40
0
 40
0
 40
0
 40
1
 40
1
 40
1
 40
1
 10
93.550981
 20
194.619780
 30
0.0
 10
94.348851
 20
194.849460
 30
0.0
 10
95.582971
 20
195.140080
 30
0.0
 10
96.293441
 20
195.265590
 30
0.0
  0
LWPOLYLINE
  5
1cd
100
AcDbEntity
  8
Calque_1
 62
7
100
AcDbPolyline
 90
1
 70
1
 10
104.945180
 20
188.333030
 30
0.0
  0
SPLINE
  5
1ce
100
AcDbEntity
  8
Calque_1
 62
7
100
AcDbSpline
 70
8
 71
3
 72
8
 73
4
 74
0
 40
0
 40
0
 40
0
 40
0
 40
1
 40
1
 40
1
 40
1
 10
96.695051
 20
195.980590
 30
0.0
 10
96.205461
 20
196.248330
 30
0.0
 10
95.407561
 20
196.759040
 30
0.0
 10
94.921961
 20
197.115496
 30
0.0
  0
SPLINE
  5
1cf
100
AcDbEntity
  8
Calque_1
 62
7
100
AcDbSpline
 70
8
 71
3
 72
8
 73
4
 74
0
 40
0
 40
0
 40
0
 40
0
 40
1
 40
1
 40
1
 40
1
 10
94.921961
 20
197.115496
 30
0.0
 10
94.413701
 20
197.488606
 30
0.0
 10
93.709611
 20
198.267946
 30
0.0
 10
93.262681
 20
198.952176
 30
0.0
  0
SPLINE
  5
1d0
100
AcDbEntity
  8
Calque_1
 62
7
100
AcDbSpline
 70
8
 71
3
 72
8
 73
4
 74
0
 40
0
 40
0
 40
0
 40
0
 40
1
 40
1
 40
1
 40
1
 10
93.262681
 20
198.952176
 30
0.0
 10
92.835671
 20
199.605886
 30
0.0
 10
92.296631
 20
200.580206
 30
0.0
 10
92.064841
 20
201.117331
 30
0.0
  0
SPLINE
  5
1d1
100
AcDbEntity
  8
Calque_1
 62
7
100
AcDbSpline
 70
8
 71
3
 72
8
 73
4
 74
0
 40
0
 40
0
 40
0
 40
0
 40
1
 40
1
 40
1
 40
1
 10
92.064841
 20
201.117331
 30
0.0
 10
91.694431
 20
201.975654
 30
0.0
 10
91.642451
 20
202.375103
 30
0.0
 10
91.635681
 20
204.415631
 30
0.0
  0
LWPOLYLINE
  5
1d2
100
AcDbEntity
  8
Calque_1
 62
7
100
AcDbPolyline
 90
2
 70
0
 10
96.293441
 20
195.265590
 30
0.0
 10
96.695051
 20
195.980590
 30
0.0
  0
SPLINE
  5
1d3
100
AcDbEntity
  8
Calque_1
 62
7
100
AcDbSpline
 70
8
 71
3
 72
8
 73
4
 74
0
 40
0
 40
0
 40
0
 40
0
 40
1
 40
1
 40
1
 40
1
 10
92.409811
 20
208.322016
 30
0.0
 10
93.000571
 20
209.519405
 30
0.0
 10
93.479261
 20
210.188768
 30
0.0
 10
94.368461
 20
211.060855
 30
0.0
  0
SPLINE
  5
1d4
100
AcDbEntity
  8
Calque_1
 62
7
100
AcDbSpline
 70
8
 71
3
 72
8
 73
4
 74
0
 40
0
 40
0
 40
0
 40
0
 40
1
 40
1
 40
1
 40
1
 10
94.368461
 20
211.060855
 30
0.0
 10
95.120421
 20
211.798340
 30
0.0
 10
95.989221
 20
212.432658
 30
0.0
 10
96.774971
 20
212.817873
 30
0.0
  0
SPLINE
  5
1d5
100
AcDbEntity
  8
Calque_1
 62
7
100
AcDbSpline
 70
8
 71
3
 72
8
 73
4
 74
0
 40
0
 40
0
 40
0
 40
0
 40
1
 40
1
 40
1
 40
1
 10
96.774971
 20
212.817873
 30
0.0
 10
97.689191
 20
213.266069
 30
0.0
 10
98.371091
 20
213.457802
 30
0.0
 10
99.432951
 20
213.565228
 30
0.0
  0
SPLINE
  5
1d6
100
AcDbEntity
  8
Calque_1
 62
7
100
AcDbSpline
 70
8
 71
3
 72
8
 73
4
 74
0
 40
0
 40
0
 40
0
 40
0
 40
1
 40
1
 40
1
 40
1
 10
99.432951
 20
213.565228
 30
0.0
 10
100.218510
 20
213.644698
 30
0.0
 10
101.505890
 20
213.644618
 30
0.0
 10
102.293790
 20
213.565033
 30
0.0
  0
SPLINE
  5
1d7
100
AcDbEntity
  8
Calque_1
 62
7
100
AcDbSpline
 70
8
 71
3
 72
8
 73
4
 74
0
 40
0
 40
0
 40
0
 40
0
 40
1
 40
1
 40
1
 40
1
 10
102.293790
 20
213.565033
 30
0.0
 10
103.275710
 20
213.465853
 30
0.0
 10
104.029780
 20
213.268334
 30
0.0
 10
104.690890
 20
212.937117
 30
0.0
  0
SPLINE
  5
1d8
100
AcDbEntity
  8
Calque_1
 62
7
100
AcDbSpline
 70
8
 71
3
 72
8
 73
4
 74
0
 40
0
 40
0
 40
0
 40
0
 40
1
 40
1
 40
1
 40
1
 10
104.690890
 20
212.937117
 30
0.0
 10
105.221400
 20
212.671345
 30
0.0
 10
106.073450
 20
212.138985
 30
0.0
 10
106.584360
 20
211.754097
 30
0.0
  0
SPLINE
  5
1d9
100
AcDbEntity
  8
Calque_1
 62
7
100
AcDbSpline
 70
8
 71
3
 72
8
 73
4
 74
0
 40
0
 40
0
 40
0
 40
0
 40
1
 40
1
 40
1
 40
1
 10
106.584360
 20
211.754097
 30
0.0
 10
107.095270
 20
211.369209
 30
0.0
 10
107.828190
 20
210.636282
 30
0.0
 10
108.213080
 20
210.125372
 30
0.0
  0
SPLINE
  5
1da
100
AcDbEntity
  8
Calque_1
 62
7
100
AcDbSpline
 70
8
 71
3
 72
8
 73
4
 74
0
 40
0
 40
0
 40
0
 40
0
 40
1
 40
1
 40
1
 40
1
 10
108.213080
 20
210.125372
 30
0.0
 10
108.597970
 20
209.614462
 30
0.0
 10
109.128960
 20
208.765129
 30
0.0
 10
109.393060
 20
208.237965
 30
0.0
  0
SPLINE
  5
1db
100
AcDbEntity
  8
Calque_1
 62
7
100
AcDbSpline
 70
8
 71
3
 72
8
 73
4
 74
0
 40
0
 40
0
 40
0
 40
0
 40
1
 40
1
 40
1
 40
1
 10
109.393060
 20
208.237965
 30
0.0
 10
109.692410
 20
207.640431
 30
0.0
 10
109.941160
 20
206.747416
 30
0.0
 10
110.053610
 20
205.866592
 30
0.0
  0
SPLINE
  5
1dc
100
AcDbEntity
  8
Calque_1
 62
7
100
AcDbSpline
 70
8
 71
3
 72
8
 73
4
 74
0
 40
0
 40
0
 40
0
 40
0
 40
1
 40
1
 40
1
 40
1
 10
110.053610
 20
205.866592
 30
0.0
 10
110.176040
 20
204.907595
 30
0.0
 10
110.175680
 20
203.972914
 30
0.0
 10
110.052610
 20
202.957108
 30
0.0
  0
SPLINE
  5
1dd
100
AcDbEntity
  8
Calque_1
 62
7
100
AcDbSpline
 70
8
 71
3
 72
8
 73
4
 74
0
 40
0
 40
0
 40
0
 40
0
 40
1
 40
1
 40
1
 40
1
 10
110.052610
 20
202.957108
 30
0.0
 10
109.923700
 20
201.894073
 30
0.0
 10
109.703810
 20
201.120639
 30
0.0
 10
109.293550
 20
200.287296
 30
0.0
  0
SPLINE
  5
1de
100
AcDbEntity
  8
Calque_1
 62
7
100
AcDbSpline
 70
8
 71
3
 72
8
 73
4
 74
0
 40
0
 40
0
 40
0
 40
0
 40
1
 40
1
 40
1
 40
1
 10
109.293550
 20
200.287296
 30
0.0
 10
108.931940
 20
199.552746
 30
0.0
 10
108.276600
 20
198.667896
 30
0.0
 10
107.540880
 20
197.920796
 30
0.0
  0
SPLINE
  5
1df
100
AcDbEntity
  8
Calque_1
 62
7
100
AcDbSpline
 70
8
 71
3
 72
8
 73
4
 74
0
 40
0
 40
0
 40
0
 40
0
 40
1
 40
1
 40
1
 40
1
 10
107.540880
 20
197.920796
 30
0.0
 10
106.894580
 20
197.264496
 30
0.0
 10
105.892660
 20
196.461390
 30
0.0
 10
105.314390
 20
196.136100
 30
0.0
  0
LWPOLYLINE
  5
1e0
100
AcDbEntity
  8
Calque_1
 62
7
100
AcDbPolyline
 90
2
 70
0
 10
91.635681
 20
204.415631
 30
0.0
 10
92.409811
 20
208.322016
 30
0.0
  0
SPLINE
  5
1e1
100
AcDbEntity
  8
Calque_1
 62
7
100
AcDbSpline
 70
8
 71
3
 72
8
 73
4
 74
0
 40
0
 40
0
 40
0
 40
0
 40
1
 40
1
 40
1
 40
1
 10
106.172730
 20
195.144390
 30
0.0
 10
107.223070
 20
194.924230
 30
0.0
 10
108.615090
 20
194.567260
 30
0.0
 10
109.266090
 20
194.351130
 30
0.0
  0
SPLINE
  5
1e2
100
AcDbEntity
  8
Calque_1
 62
7
100
AcDbSpline
 70
8
 71
3
 72
8
 73
4
 74
0
 40
0
 40
0
 40
0
 40
0
 40
1
 40
1
 40
1
 40
1
 10
109.266090
 20
194.351130
 30
0.0
 10
109.917090
 20
194.134990
 30
0.0
 10
110.961570
 20
193.728950
 30
0.0
 10
111.587140
 20
193.448820
 30
0.0
  0
LWPOLYLINE
  5
1e3
100
AcDbEntity
  8
Calque_1
 62
7
100
AcDbPolyline
 90
2
 70
0
 10
105.314390
 20
196.136100
 30
0.0
 10
106.172730
 20
195.144390
 30
0.0
  0
SPLINE
  5
1e4
100
AcDbEntity
  8
Calque_1
 62
7
100
AcDbSpline
 70
8
 71
3
 72
8
 73
4
 74
0
 40
0
 40
0
 40
0
 40
0
 40
1
 40
1
 40
1
 40
1
 10
113.160040
 20
193.343980
 30
0.0
 10
113.399560
 20
193.566450
 30
0.0
 10
113.948120
 20
194.240400
 30
0.0
 10
114.379070
 20
194.841640
 30
0.0
  0
SPLINE
  5
1e5
100
AcDbEntity
  8
Calque_1
 62
7
100
AcDbSpline
 70
8
 71
3
 72
8
 73
4
 74
0
 40
0
 40
0
 40
0
 40
0
 40
1
 40
1
 40
1
 40
1
 10
114.379070
 20
194.841640
 30
0.0
 10
114.810020
 20
195.442880
 30
0.0
 10
115.474920
 20
196.601480
 30
0.0
 10
115.856620
 20
197.416296
 30
0.0
  0
SPLINE
  5
1e6
100
AcDbEntity
  8
Calque_1
 62
7
100
AcDbSpline
 70
8
 71
3
 72
8
 73
4
 74
0
 40
0
 40
0
 40
0
 40
0
 40
1
 40
1
 40
1
 40
1
 10
115.856620
 20
197.416296
 30
0.0
 10
116.238330
 20
198.231126
 30
0.0
 10
116.734280
 20
199.576976
 30
0.0
 10
116.958740
 20
200.407076
 30
0.0
  0
SPLINE
  5
1e7
100
AcDbEntity
  8
Calque_1
 62
7
100
AcDbSpline
 70
8
 71
3
 72
8
 73
4
 74
0
 40
0
 40
0
 40
0
 40
0
 40
1
 40
1
 40
1
 40
1
 10
116.958740
 20
200.407076
 30
0.0
 10
117.296350
 20
201.655656
 30
0.0
 10
117.366850
 20
202.361102
 30
0.0
 10
117.366850
 20
204.491027
 30
0.0
  0
SPLINE
  5
1e8
100
AcDbEntity
  8
Calque_1
 62
7
100
AcDbSpline
 70
8
 71
3
 72
8
 73
4
 74
0
 40
0
 40
0
 40
0
 40
0
 40
1
 40
1
 40
1
 40
1
 10
117.366850
 20
204.491027
 30
0.0
 10
117.366850
 20
206.616061
 30
0.0
 10
117.296050
 20
207.327191
 30
0.0
 10
116.961600
 20
208.563107
 30
0.0
  0
SPLINE
  5
1e9
100
AcDbEntity
  8
Calque_1
 62
7
100
AcDbSpline
 70
8
 71
3
 72
8
 73
4
 74
0
 40
0
 40
0
 40
0
 40
0
 40
1
 40
1
 40
1
 40
1
 10
116.961600
 20
208.563107
 30
0.0
 10
116.738710
 20
209.386687
 30
0.0
 10
116.288370
 20
210.640532
 30
0.0
 10
115.960840
 20
211.349430
 30
0.0
  0
LWPOLYLINE
  5
1ea
100
AcDbEntity
  8
Calque_1
 62
7
100
AcDbPolyline
 90
2
 70
0
 10
111.587140
 20
193.448820
 30
0.0
 10
113.160040
 20
193.343980
 30
0.0
  0
SPLINE
  5
1eb
100
AcDbEntity
  8
Calque_1
 62
7
100
AcDbSpline
 70
8
 71
3
 72
8
 73
4
 74
0
 40
0
 40
0
 40
0
 40
0
 40
1
 40
1
 40
1
 40
1
 10
116.270950
 20
212.631319
 30
0.0
 10
116.941610
 20
212.626119
 30
0.0
 10
117.236820
 20
212.706699
 30
0.0
 10
117.408800
 20
212.941895
 30
0.0
  0
SPLINE
  5
1ec
100
AcDbEntity
  8
Calque_1
 62
7
100
AcDbSpline
 70
8
 71
3
 72
8
 73
4
 74
0
 40
0
 40
0
 40
0
 40
0
 40
1
 40
1
 40
1
 40
1
 10
117.408800
 20
212.941895
 30
0.0
 10
117.576150
 20
213.170822
 30
0.0
 10
117.640990
 20
214.020821
 30
0.0
 10
117.640990
 20
215.986591
 30
0.0
  0
SPLINE
  5
1ed
100
AcDbEntity
  8
Calque_1
 62
7
100
AcDbSpline
 70
8
 71
3
 72
8
 73
4
 74
0
 40
0
 40
0
 40
0
 40
0
 40
1
 40
1
 40
1
 40
1
 10
117.640990
 20
215.986591
 30
0.0
 10
117.640990
 20
218.068769
 30
0.0
 10
117.577690
 20
218.836042
 30
0.0
 10
117.373460
 20
219.231042
 30
0.0
  0
SPLINE
  5
1ee
100
AcDbEntity
  8
Calque_1
 62
7
100
AcDbSpline
 70
8
 71
3
 72
8
 73
4
 74
0
 40
0
 40
0
 40
0
 40
0
 40
1
 40
1
 40
1
 40
1
 10
117.373460
 20
219.231042
 30
0.0
 10
117.190340
 20
219.585142
 30
0.0
 10
116.896190
 20
219.804088
 30
0.0
 10
116.441250
 20
219.924905
 30
0.0
  0
SPLINE
  5
1ef
100
AcDbEntity
  8
Calque_1
 62
7
100
AcDbSpline
 70
8
 71
3
 72
8
 73
4
 74
0
 40
0
 40
0
 40
0
 40
0
 40
1
 40
1
 40
1
 40
1
 10
116.441250
 20
219.924905
 30
0.0
 10
116.075680
 20
220.021985
 30
0.0
 10
113.619190
 20
220.132154
 30
0.0
 10
110.982380
 20
220.169716
 30
0.0
  0
SPLINE
  5
1f0
100
AcDbEntity
  8
Calque_1
 62
7
100
AcDbSpline
 70
8
 71
3
 72
8
 73
4
 74
0
 40
0
 40
0
 40
0
 40
0
 40
1
 40
1
 40
1
 40
1
 10
110.982380
 20
220.169716
 30
0.0
 10
106.684700
 20
220.230936
 30
0.0
 10
106.050260
 20
220.278520
 30
0.0
 10
104.856460
 20
220.629153
 30
0.0
  0
SPLINE
  5
1f1
100
AcDbEntity
  8
Calque_1
 62
7
100
AcDbSpline
 70
8
 71
3
 72
8
 73
4
 74
0
 40
0
 40
0
 40
0
 40
0
 40
1
 40
1
 40
1
 40
1
 10
104.856460
 20
220.629153
 30
0.0
 10
104.101400
 20
220.850921
 30
0.0
 10
102.750130
 20
221.066114
 30
0.0
 10
101.735910
 20
221.126106
 30
0.0
  0
SPLINE
  5
1f2
100
AcDbEntity
  8
Calque_1
 62
7
100
AcDbSpline
 70
8
 71
3
 72
8
 73
4
 74
0
 40
0
 40
0
 40
0
 40
0
 40
1
 40
1
 40
1
 40
1
 10
101.735910
 20
221.126106
 30
0.0
 10
100.668060
 20
221.189266
 30
0.0
 10
99.351581
 20
221.144846
 30
0.0
 10
98.469601
 20
221.015879
 30
0.0
  0
SPLINE
  5
1f3
100
AcDbEntity
  8
Calque_1
 62
7
100
AcDbSpline
 70
8
 71
3
 72
8
 73
4
 74
0
 40
0
 40
0
 40
0
 40
0
 40
1
 40
1
 40
1
 40
1
 10
98.469601
 20
221.015879
 30
0.0
 10
97.656981
 20
220.897059
 30
0.0
 10
96.320961
 20
220.571567
 30
0.0
 10
95.500671
 20
220.292564
 30
0.0
  0
SPLINE
  5
1f4
100
AcDbEntity
  8
Calque_1
 62
7
100
AcDbSpline
 70
8
 71
3
 72
8
 73
4
 74
0
 40
0
 40
0
 40
0
 40
0
 40
1
 40
1
 40
1
 40
1
 10
95.500671
 20
220.292564
 30
0.0
 10
94.680371
 20
220.013560
 30
0.0
 10
93.479061
 20
219.493872
 30
0.0
 10
92.831091
 20
219.137701
 30
0.0
  0
SPLINE
  5
1f5
100
AcDbEntity
  8
Calque_1
 62
7
100
AcDbSpline
 70
8
 71
3
 72
8
 73
4
 74
0
 40
0
 40
0
 40
0
 40
0
 40
1
 40
1
 40
1
 40
1
 10
92.831091
 20
219.137701
 30
0.0
 10
92.183111
 20
218.781530
 30
0.0
 10
91.205011
 20
218.145430
 30
0.0
 10
90.657521
 20
217.724146
 30
0.0
  0
SPLINE
  5
1f6
100
AcDbEntity
  8
Calque_1
 62
7
100
AcDbSpline
 70
8
 71
3
 72
8
 73
4
 74
0
 40
0
 40
0
 40
0
 40
0
 40
1
 40
1
 40
1
 40
1
 10
90.657521
 20
217.724146
 30
0.0
 10
90.110031
 20
217.302862
 30
0.0
 10
89.156501
 20
216.417709
 30
0.0
 10
88.538571
 20
215.757139
 30
0.0
  0
SPLINE
  5
1f7
100
AcDbEntity
  8
Calque_1
 62
7
100
AcDbSpline
 70
8
 71
3
 72
8
 73
4
 74
0
 40
0
 40
0
 40
0
 40
0
 40
1
 40
1
 40
1
 40
1
 10
88.538571
 20
215.757139
 30
0.0
 10
87.920641
 20
215.096570
 30
0.0
 10
87.132121
 20
214.113794
 30
0.0
 10
86.786301
 20
213.573193
 30
0.0
  0
SPLINE
  5
1f8
100
AcDbEntity
  8
Calque_1
 62
7
100
AcDbSpline
 70
8
 71
3
 72
8
 73
4
 74
0
 40
0
 40
0
 40
0
 40
0
 40
1
 40
1
 40
1
 40
1
 10
86.786301
 20
213.573193
 30
0.0
 10
86.440481
 20
213.032591
 30
0.0
 10
85.894561
 20
212.021086
 30
0.0
 10
85.573131
 20
211.325403
 30
0.0
  0
SPLINE
  5
1f9
100
AcDbEntity
  8
Calque_1
 62
7
100
AcDbSpline
 70
8
 71
3
 72
8
 73
4
 74
0
 40
0
 40
0
 40
0
 40
0
 40
1
 40
1
 40
1
 40
1
 10
85.573131
 20
211.325403
 30
0.0
 10
85.251711
 20
210.629720
 30
0.0
 10
84.805701
 20
209.386687
 30
0.0
 10
84.582011
 20
208.563107
 30
0.0
  0
SPLINE
  5
1fa
100
AcDbEntity
  8
Calque_1
 62
7
100
AcDbSpline
 70
8
 71
3
 72
8
 73
4
 74
0
 40
0
 40
0
 40
0
 40
0
 40
1
 40
1
 40
1
 40
1
 10
84.582011
 20
208.563107
 30
0.0
 10
84.238261
 20
207.297520
 30
0.0
 10
84.177461
 20
206.653334
 30
0.0
 10
84.189291
 20
204.402245
 30
0.0
  0
SPLINE
  5
1fb
100
AcDbEntity
  8
Calque_1
 62
7
100
AcDbSpline
 70
8
 71
3
 72
8
 73
4
 74
0
 40
0
 40
0
 40
0
 40
0
 40
1
 40
1
 40
1
 40
1
 10
84.189291
 20
204.402245
 30
0.0
 10
84.200491
 20
202.270238
 30
0.0
 10
84.278591
 20
201.463028
 30
0.0
 10
84.580631
 20
200.356686
 30
0.0
  0
SPLINE
  5
1fc
100
AcDbEntity
  8
Calque_1
 62
7
100
AcDbSpline
 70
8
 71
3
 72
8
 73
4
 74
0
 40
0
 40
0
 40
0
 40
0
 40
1
 40
1
 40
1
 40
1
 10
84.580631
 20
200.356686
 30
0.0
 10
84.788161
 20
199.596526
 30
0.0
 10
85.272101
 20
198.304236
 30
0.0
 10
85.656041
 20
197.484916
 30
0.0
  0
SPLINE
  5
1fd
100
AcDbEntity
  8
Calque_1
 62
7
100
AcDbSpline
 70
8
 71
3
 72
8
 73
4
 74
0
 40
0
 40
0
 40
0
 40
0
 40
1
 40
1
 40
1
 40
1
 10
85.656041
 20
197.484916
 30
0.0
 10
86.039991
 20
196.665600
 30
0.0
 10
86.619111
 20
195.609580
 30
0.0
 10
86.942981
 20
195.138210
 30
0.0
  0
SPLINE
  5
1fe
100
AcDbEntity
  8
Calque_1
 62
7
100
AcDbSpline
 70
8
 71
3
 72
8
 73
4
 74
0
 40
0
 40
0
 40
0
 40
0
 40
1
 40
1
 40
1
 40
1
 10
86.942981
 20
195.138210
 30
0.0
 10
87.266851
 20
194.666830
 30
0.0
 10
87.835561
 20
193.951170
 30
0.0
 10
88.206781
 20
193.547850
 30
0.0
  0
LWPOLYLINE
  5
1ff
100
AcDbEntity
  8
Calque_1
 62
7
100
AcDbPolyline
 90
2
 70
0
 10
115.960840
 20
211.349430
 30
0.0
 10
116.270950
 20
212.631319
 30
0.0
  0
SPLINE
  5
200
100
AcDbEntity
  8
Calque_1
 62
7
100
AcDbSpline
 70
8
 71
3
 72
8
 73
4
 74
0
 40
0
 40
0
 40
0
 40
0
 40
1
 40
1
 40
1
 40
1
 10
90.491041
 20
193.508350
 30
0.0
 10
91.376181
 20
193.889950
 30
0.0
 10
92.753181
 20
194.390090
 30
0.0
 10
93.551051
 20
194.619770
 30
0.0
  0
LWPOLYLINE
  5
201
100
AcDbEntity
  8
Calque_1
 62
7
100
AcDbPolyline
 90
2
 70
0
 10
88.206781
 20
193.547850
 30
0.0
 10
90.491041
 20
193.508350
 30
0.0
  0
SPLINE
  5
202
100
AcDbEntity
  8
Calque_1
 62
7
100
AcDbSpline
 70
8
 71
3
 72
8
 73
4
 74
0
 40
0
 40
0
 40
0
 40
0
 40
1
 40
1
 40
1
 40
1
 10
103.041970
 20
196.058660
 30
0.0
 10
103.655410
 20
196.203290
 30
0.0
 10
104.494400
 20
196.493260
 30
0.0
 10
104.906380
 20
196.703020
 30
0.0
  0
SPLINE
  5
203
100
AcDbEntity
  8
Calque_1
 62
7
100
AcDbSpline
 70
8
 71
3
 72
8
 73
4
 74
0
 40
0
 40
0
 40
0
 40
0
 40
1
 40
1
 40
1
 40
1
 10
104.906380
 20
196.703020
 30
0.0
 10
105.318360
 20
196.912790
 30
0.0
 10
106.221110
 20
197.652236
 30
0.0
 10
106.912500
 20
198.346236
 30
0.0
  0
SPLINE
  5
204
100
AcDbEntity
  8
Calque_1
 62
7
100
AcDbSpline
 70
8
 71
3
 72
8
 73
4
 74
0
 40
0
 40
0
 40
0
 40
0
 40
1
 40
1
 40
1
 40
1
 10
106.912500
 20
198.346236
 30
0.0
 10
107.709580
 20
199.146316
 30
0.0
 10
108.345750
 20
199.983296
 30
0.0
 10
108.651060
 20
200.633536
 30
0.0
  0
SPLINE
  5
205
100
AcDbEntity
  8
Calque_1
 62
7
100
AcDbSpline
 70
8
 71
3
 72
8
 73
4
 74
0
 40
0
 40
0
 40
0
 40
0
 40
1
 40
1
 40
1
 40
1
 10
108.651060
 20
200.633536
 30
0.0
 10
108.915900
 20
201.197557
 30
0.0
 10
109.224440
 20
202.289315
 30
0.0
 10
109.336720
 20
203.059663
 30
0.0
  0
SPLINE
  5
206
100
AcDbEntity
  8
Calque_1
 62
7
100
AcDbSpline
 70
8
 71
3
 72
8
 73
4
 74
0
 40
0
 40
0
 40
0
 40
0
 40
1
 40
1
 40
1
 40
1
 10
109.336720
 20
203.059663
 30
0.0
 10
109.488890
 20
204.103751
 30
0.0
 10
109.490090
 20
204.788332
 30
0.0
 10
109.341720
 20
205.748926
 30
0.0
  0
SPLINE
  5
207
100
AcDbEntity
  8
Calque_1
 62
7
100
AcDbSpline
 70
8
 71
3
 72
8
 73
4
 74
0
 40
0
 40
0
 40
0
 40
0
 40
1
 40
1
 40
1
 40
1
 10
109.341720
 20
205.748926
 30
0.0
 10
109.219160
 20
206.540706
 30
0.0
 10
108.898270
 20
207.531232
 30
0.0
 10
108.509440
 20
208.317963
 30
0.0
  0
SPLINE
  5
208
100
AcDbEntity
  8
Calque_1
 62
7
100
AcDbSpline
 70
8
 71
3
 72
8
 73
4
 74
0
 40
0
 40
0
 40
0
 40
0
 40
1
 40
1
 40
1
 40
1
 10
108.509440
 20
208.317963
 30
0.0
 10
108.058890
 20
209.229604
 30
0.0
 10
107.548270
 20
209.905533
 30
0.0
 10
106.736540
 20
210.664869
 30
0.0
  0
SPLINE
  5
209
100
AcDbEntity
  8
Calque_1
 62
7
100
AcDbSpline
 70
8
 71
3
 72
8
 73
4
 74
0
 40
0
 40
0
 40
0
 40
0
 40
1
 40
1
 40
1
 40
1
 10
106.736540
 20
210.664869
 30
0.0
 10
106.109490
 20
211.251442
 30
0.0
 10
105.149060
 20
211.943017
 30
0.0
 10
104.602240
 20
212.201702
 30
0.0
  0
SPLINE
  5
20a
100
AcDbEntity
  8
Calque_1
 62
7
100
AcDbSpline
 70
8
 71
3
 72
8
 73
4
 74
0
 40
0
 40
0
 40
0
 40
0
 40
1
 40
1
 40
1
 40
1
 10
104.602240
 20
212.201702
 30
0.0
 10
104.055430
 20
212.460387
 30
0.0
 10
103.149880
 20
212.757887
 30
0.0
 10
102.589920
 20
212.862812
 30
0.0
  0
SPLINE
  5
20b
100
AcDbEntity
  8
Calque_1
 62
7
100
AcDbSpline
 70
8
 71
3
 72
8
 73
4
 74
0
 40
0
 40
0
 40
0
 40
0
 40
1
 40
1
 40
1
 40
1
 10
102.589920
 20
212.862812
 30
0.0
 10
102.029950
 20
212.967738
 30
0.0
 10
100.902850
 20
213.012973
 30
0.0
 10
100.085250
 20
212.963334
 30
0.0
  0
SPLINE
  5
20c
100
AcDbEntity
  8
Calque_1
 62
7
100
AcDbSpline
 70
8
 71
3
 72
8
 73
4
 74
0
 40
0
 40
0
 40
0
 40
0
 40
1
 40
1
 40
1
 40
1
 10
100.085250
 20
212.963334
 30
0.0
 10
98.807661
 20
212.885764
 30
0.0
 10
98.395841
 20
212.772537
 30
0.0
 10
97.155461
 20
212.157793
 30
0.0
  0
SPLINE
  5
20d
100
AcDbEntity
  8
Calque_1
 62
7
100
AcDbSpline
 70
8
 71
3
 72
8
 73
4
 74
0
 40
0
 40
0
 40
0
 40
0
 40
1
 40
1
 40
1
 40
1
 10
97.155461
 20
212.157793
 30
0.0
 10
96.235451
 20
211.701825
 30
0.0
 10
95.374971
 20
211.103401
 30
0.0
 10
94.781971
 20
210.507146
 30
0.0
  0
SPLINE
  5
20e
100
AcDbEntity
  8
Calque_1
 62
7
100
AcDbSpline
 70
8
 71
3
 72
8
 73
4
 74
0
 40
0
 40
0
 40
0
 40
0
 40
1
 40
1
 40
1
 40
1
 10
94.781971
 20
210.507146
 30
0.0
 10
94.257821
 20
209.980123
 30
0.0
 10
93.521421
 20
208.947245
 30
0.0
 10
93.095121
 20
208.141175
 30
0.0
  0
LWPOLYLINE
  5
20f
100
AcDbEntity
  8
Calque_1
 62
7
100
AcDbPolyline
 90
1
 70
1
 10
93.551051
 20
194.619770
 30
0.0
  0
SPLINE
  5
210
100
AcDbEntity
  8
Calque_1
 62
7
100
AcDbSpline
 70
8
 71
3
 72
8
 73
4
 74
0
 40
0
 40
0
 40
0
 40
0
 40
1
 40
1
 40
1
 40
1
 10
93.046201
 20
200.675996
 30
0.0
 10
93.507701
 20
199.751316
 30
0.0
 10
94.108151
 20
198.903796
 30
0.0
 10
94.772281
 20
198.239666
 30
0.0
  0
SPLINE
  5
211
100
AcDbEntity
  8
Calque_1
 62
7
100
AcDbSpline
 70
8
 71
3
 72
8
 73
4
 74
0
 40
0
 40
0
 40
0
 40
0
 40
1
 40
1
 40
1
 40
1
 10
94.772281
 20
198.239666
 30
0.0
 10
95.332401
 20
197.679556
 30
0.0
 10
96.281451
 20
196.973540
 30
0.0
 10
96.881281
 20
196.670740
 30
0.0
  0
SPLINE
  5
212
100
AcDbEntity
  8
Calque_1
 62
7
100
AcDbSpline
 70
8
 71
3
 72
8
 73
4
 74
0
 40
0
 40
0
 40
0
 40
0
 40
1
 40
1
 40
1
 40
1
 10
96.881281
 20
196.670740
 30
0.0
 10
97.481111
 20
196.367950
 30
0.0
 10
98.302441
 20
196.054770
 30
0.0
 10
98.706461
 20
195.974780
 30
0.0
  0
SPLINE
  5
213
100
AcDbEntity
  8
Calque_1
 62
7
100
AcDbSpline
 70
8
 71
3
 72
8
 73
4
 74
0
 40
0
 40
0
 40
0
 40
0
 40
1
 40
1
 40
1
 40
1
 10
98.706461
 20
195.974780
 30
0.0
 10
99.110481
 20
195.894780
 30
0.0
 10
100.000360
 20
195.821790
 30
0.0
 10
100.683980
 20
195.812530
 30
0.0
  0
SPLINE
  5
214
100
AcDbEntity
  8
Calque_1
 62
7
100
AcDbSpline
 70
8
 71
3
 72
8
 73
4
 74
0
 40
0
 40
0
 40
0
 40
0
 40
1
 40
1
 40
1
 40
1
 10
100.683980
 20
195.812530
 30
0.0
 10
101.367600
 20
195.803530
 30
0.0
 10
102.428830
 20
195.914030
 30
0.0
 10
103.042280
 20
196.058660
 30
0.0
  0
LWPOLYLINE
  5
215
100
AcDbEntity
  8
Calque_1
 62
7
100
AcDbPolyline
 90
3
 70
0
 10
93.095121
 20
208.141175
 30
0.0
 10
92.338521
 20
204.402245
 30
0.0
 10
93.046201
 20
200.675996
 30
0.0
  0
SPLINE
  5
216
100
AcDbEntity
  8
Calque_1
 62
7
100
AcDbSpline
 70
8
 71
3
 72
8
 73
4
 74
0
 40
0
 40
0
 40
0
 40
0
 40
1
 40
1
 40
1
 40
1
 10
129.374100
 20
218.977202
 30
0.0
 10
129.383100
 20
219.184053
 30
0.0
 10
129.424700
 20
219.226127
 30
0.0
 10
129.481370
 20
219.084480
 30
0.0
  0
SPLINE
  5
217
100
AcDbEntity
  8
Calque_1
 62
7
100
AcDbSpline
 70
8
 71
3
 72
8
 73
4
 74
0
 40
0
 40
0
 40
0
 40
0
 40
1
 40
1
 40
1
 40
1
 10
129.481370
 20
219.084480
 30
0.0
 10
129.532670
 20
218.956301
 30
0.0
 10
129.526370
 20
218.803153
 30
0.0
 10
129.467370
 20
218.744151
 30
0.0
  0
SPLINE
  5
218
100
AcDbEntity
  8
Calque_1
 62
7
100
AcDbSpline
 70
8
 71
3
 72
8
 73
4
 74
0
 40
0
 40
0
 40
0
 40
0
 40
1
 40
1
 40
1
 40
1
 10
129.467370
 20
218.744151
 30
0.0
 10
129.408370
 20
218.685151
 30
0.0
 10
129.366400
 20
218.790021
 30
0.0
 10
129.374070
 20
218.977202
 30
0.0
  0
LWPOLYLINE
  5
219
100
AcDbEntity
  8
Calque_1
 62
7
100
AcDbPolyline
 90
2
 70
0
 10
103.042280
 20
196.058660
 30
0.0
 10
103.041970
 20
196.058660
 30
0.0
  0
LWPOLYLINE
  5
21a
100
AcDbEntity
  8
Calque_1
 62
7
100
AcDbPolyline
 90
1
 70
1
 10
129.374070
 20
218.977202
 30
0.0
  0
ENDSEC
  0
SECTION
  2
OBJECTS
  0
DICTIONARY
  5
C
330
0
100
AcDbDictionary
  3
ACAD_GROUP
350
D
  3
ACAD_MLINESTYLE
350
17
  0
DICTIONARY
  5
D
330
C
100
AcDbDictionary
  0
DICTIONARY
  5
1A
330
C
100
AcDbDictionary
  0
DICTIONARY
  5
17
330
C
100
AcDbDictionary
  3
STANDARD
350
18
  0
DICTIONARY
  5
19
330
C
100
AcDbDictionary
  0
ENDSEC
  0
EOF
