<?xml version="1.0" encoding="UTF-8" standalone="no"?>
<!-- Created with Inkscape (http://www.inkscape.org/) -->

<svg
   version="1.1"
   id="svg1825"
   width="933"
   height="664"
   viewBox="0 0 933 664"
   sodipodi:docname="LogoM_3.svg"
   inkscape:version="1.2.2 (732a01da63, 2022-12-09)"
   xmlns:inkscape="http://www.inkscape.org/namespaces/inkscape"
   xmlns:sodipodi="http://sodipodi.sourceforge.net/DTD/sodipodi-0.dtd"
   xmlns="http://www.w3.org/2000/svg"
   xmlns:svg="http://www.w3.org/2000/svg">
  <defs
     id="defs1829" />
  <sodipodi:namedview
     id="namedview1827"
     pagecolor="#ffffff"
     bordercolor="#000000"
     borderopacity="0.25"
     inkscape:showpageshadow="2"
     inkscape:pageopacity="0.0"
     inkscape:pagecheckerboard="0"
     inkscape:deskcolor="#d1d1d1"
     showgrid="false"
     inkscape:zoom="18.891566"
     inkscape:cx="369.66231"
     inkscape:cy="253.39349"
     inkscape:window-width="1920"
     inkscape:window-height="1017"
     inkscape:window-x="1672"
     inkscape:window-y="-8"
     inkscape:window-maximized="1"
     inkscape:current-layer="g1831">
    <inkscape:grid
       type="xygrid"
       id="grid5212" />
  </sodipodi:namedview>
  <g
     inkscape:groupmode="layer"
     inkscape:label="Image"
     id="g1831">
    <path
       style="fill:#000000;stroke-width:0.0429138"
       d="m 376.58712,266.28092 c -2.08561,-0.21049 -3.57992,-0.80654 -5.04239,-2.01129 -0.57942,-0.47733 -0.97583,-0.89067 -1.40237,-1.46231 -0.76388,-1.02374 -1.33136,-2.30314 -1.5625,-3.52264 -0.0926,-0.4886 -0.13105,-2.12171 -0.0647,-2.7511 0.0757,-0.71895 0.31752,-1.58299 0.65231,-2.33099 0.62105,-1.38755 1.55163,-2.54314 2.78501,-3.4584 0.31864,-0.23645 0.61568,-0.47025 0.66009,-0.51956 0.10251,-0.11378 0.0696,-0.20075 -0.28299,-0.74754 -0.34697,-0.53811 -0.69495,-1.26196 -0.82492,-1.71598 -0.0881,-0.30778 -0.11261,-0.5107 -0.13479,-1.11576 -0.0355,-0.9679 0.0234,-1.60761 0.194,-2.10862 0.64167,-1.88419 2.05531,-3.23814 3.95046,-3.78371 0.42634,-0.12273 0.6377,-0.15905 1.02993,-0.17697 0.66692,-0.0305 1.45525,0.0457 2.10278,0.20306 0.51091,0.12419 0.60275,0.13249 1.93112,0.17456 1.60598,0.0509 1.78094,0.0739 1.95681,0.25745 0.12187,0.12721 0.1248,0.1415 0.15118,0.73855 0.0148,0.33486 0.0166,0.8292 0.004,1.09855 -0.0262,0.55806 -0.0625,0.62757 -0.35183,0.67384 -0.0947,0.0151 -0.17225,0.0309 -0.17225,0.0351 0,0.004 0.0652,0.2012 0.14493,0.4379 0.30138,0.89494 0.34543,1.15629 0.34617,2.05405 6.2e-4,0.75862 -0.007,0.84523 -0.11759,1.2445 -0.23821,0.86438 -0.47337,1.38217 -0.95695,2.10706 -0.17476,0.26198 -0.31776,0.49571 -0.31776,0.5194 0,0.0237 0.14001,0.13547 0.31113,0.24842 0.75538,0.49856 1.31251,0.96733 1.82617,1.53656 0.93545,1.03664 1.60912,2.30896 1.98733,3.75332 0.11462,0.43779 0.13683,0.61635 0.16941,1.36212 0.0384,0.87864 -0.003,1.97218 -0.0893,2.3388 -0.31421,1.34045 -0.82913,2.47561 -1.56703,3.45457 -0.50816,0.67417 -0.85531,1.03616 -1.45845,1.5208 -1.01469,0.81535 -2.14107,1.37448 -3.37825,1.67695 -0.66373,0.16228 -2.04844,0.31274 -2.47858,0.26933 z m 1.7977,-0.38019 c 0.94214,-0.1486 2.00348,-0.53567 2.81554,-1.02683 1.76294,-1.06629 3.10421,-2.72431 3.70799,-4.58364 0.36898,-1.13626 0.36891,-1.13573 0.36814,-2.62608 -6.6e-4,-1.30955 -0.002,-1.33708 -0.11668,-1.76223 -0.63187,-2.35239 -1.74943,-3.91888 -3.80617,-5.33509 -0.17532,-0.12072 -0.36528,-0.2195 -0.42212,-0.2195 -0.0618,0 -0.27036,0.12575 -0.51805,0.31227 -0.69732,0.52507 -1.34556,0.83734 -2.13312,1.02757 -0.22266,0.0538 -0.40471,0.10743 -0.40456,0.11923 1.7e-4,0.0118 0.20752,0.0731 0.46084,0.13612 1.40334,0.34935 2.57424,1.11296 3.38577,2.20804 0.43215,0.58316 0.90064,1.57342 1.02028,2.1566 0.0891,0.43444 0.12026,1.36989 0.0699,2.10073 -0.0527,0.76597 -0.1582,1.14054 -0.53967,1.91691 -0.46461,0.94558 -1.40926,1.93738 -2.36003,2.47781 -0.43347,0.24639 -1.02437,0.48085 -1.55869,0.61845 -0.51788,0.13337 -1.67222,0.18623 -2.24461,0.10277 -0.69529,-0.10137 -1.68466,-0.48811 -2.35034,-0.91875 -0.36626,-0.23693 -1.36848,-1.2208 -1.64524,-1.61511 -0.45222,-0.64429 -0.79304,-1.52298 -0.91552,-2.36026 -0.1285,-0.87863 -0.0467,-2.00334 0.20289,-2.7894 0.11607,-0.36552 0.49776,-1.1512 0.72814,-1.49881 0.24539,-0.37026 0.91877,-1.06525 1.33878,-1.38173 0.59395,-0.44756 1.71257,-0.94526 2.41578,-1.07483 0.28219,-0.052 0.36837,-0.12145 0.1507,-0.12145 -0.15665,0 -0.87985,-0.21473 -1.27154,-0.37754 -0.38116,-0.15844 -0.84527,-0.43401 -1.30186,-0.773 -0.19677,-0.14609 -0.38257,-0.26562 -0.41291,-0.26562 -0.1345,0 -1.18091,0.7514 -1.69592,1.21779 -1.14109,1.03338 -2.0553,2.56916 -2.45032,4.1163 -0.24062,0.94244 -0.31329,2.08033 -0.18792,2.94278 0.31831,2.18975 1.21665,3.89817 2.7821,5.29086 0.70452,0.62677 1.44351,1.07548 2.5271,1.53447 0.53365,0.22604 1.40114,0.4524 2.0486,0.53455 0.29536,0.0375 1.91716,-0.021 2.31267,-0.0834 z m -0.441,-2.6169 c 1.37131,-0.23913 2.521,-0.93871 3.53073,-2.14843 0.51775,-0.62031 0.9647,-1.61512 1.12573,-2.50566 0.0704,-0.38964 0.071,-1.44442 10e-4,-1.87885 -0.11612,-0.72054 -0.52986,-1.70445 -0.99642,-2.36962 -0.4976,-0.70939 -1.36702,-1.4369 -2.14744,-1.7969 -0.98384,-0.45383 -1.45556,-0.56365 -2.41861,-0.56304 -1.04022,6.5e-4 -1.58211,0.12951 -2.54517,0.6052 -1.44523,0.71385 -2.39244,1.83313 -2.97397,3.5142 -0.13755,0.39764 -0.14147,0.42897 -0.15939,1.27194 -0.0105,0.49319 0.002,1.01213 0.0279,1.2087 0.0488,0.36272 0.30172,1.10927 0.5483,1.61852 0.38487,0.79488 1.38619,1.85497 2.21355,2.34349 0.54516,0.32188 1.4438,0.64821 1.98638,0.72131 0.45208,0.0609 1.40124,0.05 1.8073,-0.0208 z m -3.09522,-2.21556 c -0.0119,-0.0312 -0.0167,-1.52447 -0.0106,-3.31827 l 0.0111,-3.26145 h 0.10253 c 0.0901,0 0.22751,0.21896 1.13721,1.81259 0.56909,0.99692 1.04565,1.81282 1.05905,1.81311 0.0134,3e-4 0.46023,-0.82503 0.99297,-1.83405 0.74625,-1.41336 0.98697,-1.83456 1.0485,-1.83456 0.0772,0 0.0799,0.10919 0.0799,3.23999 0,3.21139 -7.6e-4,3.24 -0.0859,3.24 -0.0847,0 -0.0861,-0.0358 -0.10728,-2.95889 l -0.0214,-2.95888 -0.77993,1.47835 c -0.42896,0.8131 -0.84083,1.59423 -0.91527,1.73585 -0.0748,0.14231 -0.1645,0.25748 -0.20053,0.25748 -0.0408,0 -0.44389,-0.66098 -1.08023,-1.77161 l -1.01502,-1.77161 -0.0214,3.0799 c -0.0201,2.89135 -0.026,3.08079 -0.0967,3.09438 -0.0413,0.008 -0.085,-0.0111 -0.0969,-0.0423 z m 3.00447,-9.53979 c 0.50285,-0.0724 1.04211,-0.24701 1.53539,-0.49707 0.65776,-0.33343 1.2775,-0.79118 1.21284,-0.8958 -0.0409,-0.0662 -0.51746,-0.28509 -0.9673,-0.44426 -0.99251,-0.35118 -1.65397,-0.43969 -3.03795,-0.4065 -0.79789,0.0191 -0.87854,0.0289 -1.42509,0.17279 -0.85161,0.22419 -1.80263,0.61147 -1.80222,0.73391 8e-5,0.0267 0.11112,0.13778 0.24675,0.24686 0.64628,0.51977 1.43823,0.89282 2.26354,1.06626 0.47936,0.10073 1.36582,0.11142 1.97404,0.0238 z m -4.19532,-1.76629 c 0.5732,-0.23787 0.89924,-0.34086 1.5446,-0.48791 0.32498,-0.074 0.60481,-0.14817 0.62186,-0.16472 0.0171,-0.0165 -0.11812,-0.11653 -0.3004,-0.2222 -0.43207,-0.25049 -0.8776,-0.69837 -1.1303,-1.13628 -0.34239,-0.59334 -0.35977,-0.66794 -0.35977,-1.5449 v -0.77245 l 0.15677,-0.32881 c 0.40255,-0.84435 1.01971,-1.44087 1.77726,-1.71785 0.38809,-0.1419 1.41642,-0.16378 1.90386,-0.0405 0.87499,0.22127 1.77691,1.11424 2.02346,2.0034 0.16529,0.59607 0.14605,1.34542 -0.0498,1.93725 -0.1817,0.54921 -0.7218,1.19165 -1.32905,1.58089 -0.16627,0.10658 -0.29157,0.21117 -0.27843,0.23243 0.0131,0.0213 0.0865,0.0512 0.16287,0.0665 0.58157,0.11638 1.30994,0.316 1.67647,0.45947 0.2401,0.094 0.52048,0.2029 0.62306,0.24205 l 0.18653,0.0712 0.18664,-0.20542 c 0.50741,-0.55844 1.03107,-1.62816 1.22294,-2.49815 0.077,-0.34932 0.0597,-1.78935 -0.026,-2.16859 -0.0743,-0.32815 -0.24206,-0.81374 -0.39999,-1.15723 -0.1411,-0.30691 -0.1297,-0.33018 0.17258,-0.35204 0.17905,-0.0129 0.27992,-0.0418 0.31536,-0.0903 0.11117,-0.15202 0.12321,-1.63631 0.0161,-1.9895 -0.0432,-0.14226 -0.15628,-0.23819 -0.33728,-0.28591 -0.059,-0.0156 -0.79283,-0.0478 -1.63072,-0.0716 -1.68618,-0.0479 -1.74289,-0.0522 -2.19854,-0.16879 -0.48591,-0.12428 -1.22756,-0.18337 -1.70662,-0.13598 -1.58916,0.1572 -2.88441,0.9004 -3.93395,2.25727 -0.23069,0.29823 -0.56138,0.96784 -0.75237,1.52344 l -0.1844,0.53642 v 1.05139 c 0,0.96021 0.008,1.07999 0.0957,1.38123 0.21345,0.73589 0.61997,1.52858 1.04678,2.04115 0.3111,0.3736 0.34419,0.3794 0.88473,0.15509 z m 4.28883,-0.89213 c 0.39715,-0.12708 0.73748,-0.3589 1.08477,-0.7389 0.46246,-0.506 0.64213,-0.89265 0.73336,-1.57815 0.13773,-1.03503 -0.38539,-2.11975 -1.30287,-2.70153 -0.73112,-0.46362 -1.7949,-0.53654 -2.55754,-0.17532 -0.69166,0.3276 -1.11447,0.74709 -1.49035,1.47863 l -0.16538,0.32185 -1.3e-4,0.75414 -1.3e-4,0.75415 0.18414,0.37168 c 0.33725,0.68076 0.76189,1.12045 1.36142,1.40969 0.45284,0.21846 0.62576,0.25012 1.2653,0.2316 0.43089,-0.0125 0.60547,-0.0376 0.88741,-0.12784 z"
       id="path2306" />
    <circle
       style="opacity:1;fill:#747474;fill-opacity:0;stroke:#000000;stroke-width:0.124079;stroke-dasharray:none;stroke-opacity:1"
       id="path1578"
       cx="377.19406"
       cy="253.6068"
       r="14.937961" />
  </g>
</svg>
