  0
SECTION
  2
HEADER
  9
$ACADVER
  1
AC1014
  9
$HANDSEED
  5
FFFF
  9
$INSUNITS
 70
     0
  9
$MEASUREMENT
 70
     1
  0
ENDSEC
  0
SECTION
  2
TABLES
  0
TABLE
  2
VPORT
  5
8
330
0
100
AcDbSymbolTable
 70
     4
  0
VPORT
  5
2E
330
8
100
AcDbSymbolTableRecord
100
AcDbViewportTableRecord
  2
*ACTIVE
 70
     0
 10
0.0
 20
0.0
 11
1.0
 21
1.0
 12
210.0
 22
148.5
 13
0.0
 23
0.0
 14
10.0
 24
10.0
 15
10.0
 25
10.0
 16
0.0
 26
0.0
 36
1.0
 17
0.0
 27
0.0
 37
0.0
 40
341.0
 41
1.24
 42
50.0
 43
0.0
 44
0.0
 50
0.0
 51
0.0
 71
     0
 72
   100
 73
     1
 74
     3
 75
     0
 76
     0
 77
     0
 78
     0
  0
ENDTAB
  0
TABLE
  2
LTYPE
  5
5
330
0
100
AcDbSymbolTable
 70
     1
  0
LTYPE
  5
14
330
5
100
AcDbSymbolTableRecord
100
AcDbLinetypeTableRecord
  2
BYBLOCK
 70
     0
  3

 72
    65
 73
     0
 40
0.0
  0
LTYPE
  5
15
330
5
100
AcDbSymbolTableRecord
100
AcDbLinetypeTableRecord
  2
BYLAYER
 70
     0
  3

 72
    65
 73
     0
 40
0.0
  0
LTYPE
  5
16
330
5
100
AcDbSymbolTableRecord
100
AcDbLinetypeTableRecord
  2
CONTINUOUS
 70
     0
  3
Solid line
 72
    65
 73
     0
 40
0.0
  0
ENDTAB
  0
TABLE
  2
LAYER
  5
2
100
AcDbSymbolTable
 70
2
  0
LAYER
  5
50
100
AcDbSymbolTableRecord
100
AcDbLayerTableRecord
  2
0
 70
0
  6
CONTINUOUS
  0
LAYER
  5
51
100
AcDbSymbolTableRecord
100
AcDbLayerTableRecord
  2
Image
 70
0
  6
CONTINUOUS
  0
ENDTAB
  0
TABLE
  2
STYLE
  5
3
330
0
100
AcDbSymbolTable
 70
     1
  0
STYLE
  5
11
330
3
100
AcDbSymbolTableRecord
100
AcDbTextStyleTableRecord
  2
STANDARD
 70
     0
 40
0.0
 41
1.0
 50
0.0
 71
     0
 42
2.5
  3
txt
  4

  0
ENDTAB
  0
TABLE
  2
VIEW
  5
6
330
0
100
AcDbSymbolTable
 70
     0
  0
ENDTAB
  0
TABLE
  2
UCS
  5
7
330
0
100
AcDbSymbolTable
 70
     0
  0
ENDTAB
  0
TABLE
  2
APPID
  5
9
330
0
100
AcDbSymbolTable
 70
     2
  0
APPID
  5
12
330
9
100
AcDbSymbolTableRecord
100
AcDbRegAppTableRecord
  2
ACAD
 70
     0
  0
ENDTAB
  0
TABLE
  2
DIMSTYLE
  5
A
330
0
100
AcDbSymbolTable
 70
     1
  0
DIMSTYLE
105
27
330
A
100
AcDbSymbolTableRecord
100
AcDbDimStyleTableRecord
  2
ISO-25
 70
     0
  3

  4

  5

  6

  7

 40
1.0
 41
2.5
 42
0.625
 43
3.75
 44
1.25
 45
0.0
 46
0.0
 47
0.0
 48
0.0
140
2.5
141
2.5
142
0.0
143
0.03937007874016
144
1.0
145
0.0
146
1.0
147
0.625
 71
     0
 72
     0
 73
     0
 74
     0
 75
     0
 76
     0
 77
     1
 78
     8
170
     0
171
     3
172
     1
173
     0
174
     0
175
     0
176
     0
177
     0
178
     0
270
     2
271
     2
272
     2
273
     2
274
     3
340
11
275
     0
280
     0
281
     0
282
     0
283
     0
284
     8
285
     0
286
     0
287
     3
288
     0
  0
ENDTAB
  0
TABLE
  2
BLOCK_RECORD
  5
1
330
0
100
AcDbSymbolTable
 70
     1
  0
BLOCK_RECORD
  5
1F
330
1
100
AcDbSymbolTableRecord
100
AcDbBlockTableRecord
  2
*MODEL_SPACE
  0
BLOCK_RECORD
  5
1B
330
1
100
AcDbSymbolTableRecord
100
AcDbBlockTableRecord
  2
*PAPER_SPACE
  0
ENDTAB
  0
ENDSEC
  0
SECTION
  2
BLOCKS
  0
BLOCK
  5
20
330
1F
100
AcDbEntity
  8
0
100
AcDbBlockBegin
  2
*MODEL_SPACE
 70
     0
 10
0.0
 20
0.0
 30
0.0
  3
*MODEL_SPACE
  1

  0
ENDBLK
  5
21
330
1F
100
AcDbEntity
  8
0
100
AcDbBlockEnd
  0
BLOCK
  5
1C
330
1B
100
AcDbEntity
 67
     1
  8
0
100
AcDbBlockBegin
  2
*PAPER_SPACE
  1

  0
ENDBLK
  5
1D
330
1B
100
AcDbEntity
 67
     1
  8
0
100
AcDbBlockEnd
  0
ENDSEC
  0
SECTION
  2
ENTITIES
  0
SPLINE
  5
100
100
AcDbEntity
  8
Image
 62
7
100
AcDbSpline
 70
8
 71
3
 72
8
 73
4
 74
0
 40
0
 40
0
 40
0
 40
0
 40
1
 40
1
 40
1
 40
1
 10
205.000000
 20
27.660580
 30
0.0
 10
160.120180
 20
31.565420
 30
0.0
 10
122.264590
 20
45.934360
 30
0.0
 10
90.274438
 20
71.207250
 30
0.0
  0
SPLINE
  5
101
100
AcDbEntity
  8
Image
 62
7
100
AcDbSpline
 70
8
 71
3
 72
8
 73
4
 74
0
 40
0
 40
0
 40
0
 40
0
 40
1
 40
1
 40
1
 40
1
 10
90.274438
 20
71.207250
 30
0.0
 10
52.012512
 20
101.434960
 30
0.0
 10
24.636742
 20
148.080730
 30
0.0
 10
17.915593
 20
194.500000
 30
0.0
  0
SPLINE
  5
102
100
AcDbEntity
  8
Image
 62
7
100
AcDbSpline
 70
8
 71
3
 72
8
 73
4
 74
0
 40
0
 40
0
 40
0
 40
0
 40
1
 40
1
 40
1
 40
1
 10
17.915593
 20
194.500000
 30
0.0
 10
15.989698
 20
207.801100
 30
0.0
 10
15.810151
 20
212.161610
 30
0.0
 10
16.330331
 20
233.000000
 30
0.0
  0
SPLINE
  5
103
100
AcDbEntity
  8
Image
 62
7
100
AcDbSpline
 70
8
 71
3
 72
8
 73
4
 74
0
 40
0
 40
0
 40
0
 40
0
 40
1
 40
1
 40
1
 40
1
 10
16.330331
 20
233.000000
 30
0.0
 10
16.677826
 20
246.920620
 30
0.0
 10
17.518188
 20
259.698530
 30
0.0
 10
18.391895
 20
264.346600
 30
0.0
  0
SPLINE
  5
104
100
AcDbEntity
  8
Image
 62
7
100
AcDbSpline
 70
8
 71
3
 72
8
 73
4
 74
0
 40
0
 40
0
 40
0
 40
0
 40
1
 40
1
 40
1
 40
1
 10
18.391895
 20
264.346600
 30
0.0
 10
20.792724
 20
277.118850
 30
0.0
 10
26.828618
 20
295.634450
 30
0.0
 10
32.948442
 20
309.000000
 30
0.0
  0
SPLINE
  5
105
100
AcDbEntity
  8
Image
 62
7
100
AcDbSpline
 70
8
 71
3
 72
8
 73
4
 74
0
 40
0
 40
0
 40
0
 40
0
 40
1
 40
1
 40
1
 40
1
 10
32.948442
 20
309.000000
 30
0.0
 10
47.361766
 20
340.478360
 30
0.0
 10
67.982331
 20
366.010950
 30
0.0
 10
95.500000
 20
386.451960
 30
0.0
  0
SPLINE
  5
106
100
AcDbEntity
  8
Image
 62
7
100
AcDbSpline
 70
8
 71
3
 72
8
 73
4
 74
0
 40
0
 40
0
 40
0
 40
0
 40
1
 40
1
 40
1
 40
1
 10
95.500000
 20
386.451960
 30
0.0
 10
115.499350
 20
401.308130
 30
0.0
 10
115.274780
 20
400.917190
 30
0.0
 10
109.347800
 20
410.558830
 30
0.0
  0
SPLINE
  5
107
100
AcDbEntity
  8
Image
 62
7
100
AcDbSpline
 70
8
 71
3
 72
8
 73
4
 74
0
 40
0
 40
0
 40
0
 40
0
 40
1
 40
1
 40
1
 40
1
 10
109.347800
 20
410.558830
 30
0.0
 10
97.329628
 20
430.109270
 30
0.0
 10
94.531416
 20
435.120030
 30
0.0
 10
91.029040
 20
443.362250
 30
0.0
  0
SPLINE
  5
108
100
AcDbEntity
  8
Image
 62
7
100
AcDbSpline
 70
8
 71
3
 72
8
 73
4
 74
0
 40
0
 40
0
 40
0
 40
0
 40
1
 40
1
 40
1
 40
1
 10
91.029040
 20
443.362250
 30
0.0
 10
83.936777
 20
460.052640
 30
0.0
 10
83.570926
 20
462.409960
 30
0.0
 10
83.558191
 20
491.500000
 30
0.0
  0
SPLINE
  5
109
100
AcDbEntity
  8
Image
 62
7
100
AcDbSpline
 70
8
 71
3
 72
8
 73
4
 74
0
 40
0
 40
0
 40
0
 40
0
 40
1
 40
1
 40
1
 40
1
 10
83.558191
 20
491.500000
 30
0.0
 10
83.545371
 20
520.783870
 30
0.0
 10
84.048161
 20
524.120950
 30
0.0
 10
90.850284
 20
539.898620
 30
0.0
  0
SPLINE
  5
10a
100
AcDbEntity
  8
Image
 62
7
100
AcDbSpline
 70
8
 71
3
 72
8
 73
4
 74
0
 40
0
 40
0
 40
0
 40
0
 40
1
 40
1
 40
1
 40
1
 10
90.850284
 20
539.898620
 30
0.0
 10
105.703920
 20
574.351937
 30
0.0
 10
131.774050
 20
600.681785
 30
0.0
 10
163.829350
 20
613.604713
 30
0.0
  0
SPLINE
  5
10b
100
AcDbEntity
  8
Image
 62
7
100
AcDbSpline
 70
8
 71
3
 72
8
 73
4
 74
0
 40
0
 40
0
 40
0
 40
0
 40
1
 40
1
 40
1
 40
1
 10
163.829350
 20
613.604713
 30
0.0
 10
179.119140
 20
619.768713
 30
0.0
 10
189.301450
 20
622.125839
 30
0.0
 10
203.203700
 20
622.719569
 30
0.0
  0
SPLINE
  5
10c
100
AcDbEntity
  8
Image
 62
7
100
AcDbSpline
 70
8
 71
3
 72
8
 73
4
 74
0
 40
0
 40
0
 40
0
 40
0
 40
1
 40
1
 40
1
 40
1
 10
203.203700
 20
622.719569
 30
0.0
 10
218.284660
 20
623.363640
 30
0.0
 10
237.969890
 20
621.697756
 30
0.0
 10
248.745400
 20
618.865554
 30
0.0
  0
SPLINE
  5
10d
100
AcDbEntity
  8
Image
 62
7
100
AcDbSpline
 70
8
 71
3
 72
8
 73
4
 74
0
 40
0
 40
0
 40
0
 40
0
 40
1
 40
1
 40
1
 40
1
 10
248.745400
 20
618.865554
 30
0.0
 10
262.016390
 20
615.377448
 30
0.0
 10
266.571600
 20
614.948055
 30
0.0
 10
300.000000
 20
614.034082
 30
0.0
  0
SPLINE
  5
10e
100
AcDbEntity
  8
Image
 62
7
100
AcDbSpline
 70
8
 71
3
 72
8
 73
4
 74
0
 40
0
 40
0
 40
0
 40
0
 40
1
 40
1
 40
1
 40
1
 10
300.000000
 20
614.034082
 30
0.0
 10
335.918020
 20
613.052040
 30
0.0
 10
339.044130
 20
612.554953
 30
0.0
 10
342.607740
 20
607.258973
 30
0.0
  0
SPLINE
  5
10f
100
AcDbEntity
  8
Image
 62
7
100
AcDbSpline
 70
8
 71
3
 72
8
 73
4
 74
0
 40
0
 40
0
 40
0
 40
0
 40
1
 40
1
 40
1
 40
1
 10
342.607740
 20
607.258973
 30
0.0
 10
344.514570
 20
604.425170
 30
0.0
 10
344.879810
 20
602.071591
 30
0.0
 10
345.514580
 20
588.527253
 30
0.0
  0
SPLINE
  5
110
100
AcDbEntity
  8
Image
 62
7
100
AcDbSpline
 70
8
 71
3
 72
8
 73
4
 74
0
 40
0
 40
0
 40
0
 40
0
 40
1
 40
1
 40
1
 40
1
 10
345.514580
 20
588.527253
 30
0.0
 10
346.319660
 20
571.349121
 30
0.0
 10
345.463780
 20
555.016530
 30
0.0
 10
343.626890
 20
552.504420
 30
0.0
  0
SPLINE
  5
111
100
AcDbEntity
  8
Image
 62
7
100
AcDbSpline
 70
8
 71
3
 72
8
 73
4
 74
0
 40
0
 40
0
 40
0
 40
0
 40
1
 40
1
 40
1
 40
1
 10
343.626890
 20
552.504420
 30
0.0
 10
342.968510
 20
551.604030
 30
0.0
 10
340.533120
 20
550.612940
 30
0.0
 10
338.214910
 20
550.302000
 30
0.0
  0
SPLINE
  5
112
100
AcDbEntity
  8
Image
 62
7
100
AcDbSpline
 70
8
 71
3
 72
8
 73
4
 74
0
 40
0
 40
0
 40
0
 40
0
 40
1
 40
1
 40
1
 40
1
 10
338.214910
 20
550.302000
 30
0.0
 10
335.343600
 20
549.916880
 30
0.0
 10
334.000000
 20
549.248710
 30
0.0
 10
334.000000
 20
548.205930
 30
0.0
  0
SPLINE
  5
113
100
AcDbEntity
  8
Image
 62
7
100
AcDbSpline
 70
8
 71
3
 72
8
 73
4
 74
0
 40
0
 40
0
 40
0
 40
0
 40
1
 40
1
 40
1
 40
1
 10
334.000000
 20
548.205930
 30
0.0
 10
334.000000
 20
547.364030
 30
0.0
 10
335.793030
 20
541.163860
 30
0.0
 10
337.984510
 20
534.427790
 30
0.0
  0
SPLINE
  5
114
100
AcDbEntity
  8
Image
 62
7
100
AcDbSpline
 70
8
 71
3
 72
8
 73
4
 74
0
 40
0
 40
0
 40
0
 40
0
 40
1
 40
1
 40
1
 40
1
 10
337.984510
 20
534.427790
 30
0.0
 10
343.977130
 20
516.007960
 30
0.0
 10
345.310980
 20
506.627080
 30
0.0
 10
344.728170
 20
487.000000
 30
0.0
  0
SPLINE
  5
115
100
AcDbEntity
  8
Image
 62
7
100
AcDbSpline
 70
8
 71
3
 72
8
 73
4
 74
0
 40
0
 40
0
 40
0
 40
0
 40
1
 40
1
 40
1
 40
1
 10
344.728170
 20
487.000000
 30
0.0
 10
344.313750
 20
473.043660
 30
0.0
 10
343.831210
 20
469.112550
 30
0.0
 10
341.598080
 20
461.500000
 30
0.0
  0
SPLINE
  5
116
100
AcDbEntity
  8
Image
 62
7
100
AcDbSpline
 70
8
 71
3
 72
8
 73
4
 74
0
 40
0
 40
0
 40
0
 40
0
 40
1
 40
1
 40
1
 40
1
 10
341.598080
 20
461.500000
 30
0.0
 10
334.941810
 20
438.809380
 30
0.0
 10
327.073280
 20
422.758680
 30
0.0
 10
314.810000
 20
406.856100
 30
0.0
  0
SPLINE
  5
117
100
AcDbEntity
  8
Image
 62
7
100
AcDbSpline
 70
8
 71
3
 72
8
 73
4
 74
0
 40
0
 40
0
 40
0
 40
0
 40
1
 40
1
 40
1
 40
1
 10
314.810000
 20
406.856100
 30
0.0
 10
313.264500
 20
404.851950
 30
0.0
 10
312.000000
 20
402.705370
 30
0.0
 10
312.000000
 20
402.085920
 30
0.0
  0
SPLINE
  5
118
100
AcDbEntity
  8
Image
 62
7
100
AcDbSpline
 70
8
 71
3
 72
8
 73
4
 74
0
 40
0
 40
0
 40
0
 40
0
 40
1
 40
1
 40
1
 40
1
 10
312.000000
 20
402.085920
 30
0.0
 10
312.000000
 20
401.466480
 30
0.0
 10
315.262500
 20
398.863070
 30
0.0
 10
319.250000
 20
396.300580
 30
0.0
  0
SPLINE
  5
119
100
AcDbEntity
  8
Image
 62
7
100
AcDbSpline
 70
8
 71
3
 72
8
 73
4
 74
0
 40
0
 40
0
 40
0
 40
0
 40
1
 40
1
 40
1
 40
1
 10
319.250000
 20
396.300580
 30
0.0
 10
344.582470
 20
380.021150
 30
0.0
 10
365.931420
 20
359.023460
 30
0.0
 10
381.673710
 20
334.903940
 30
0.0
  0
SPLINE
  5
11a
100
AcDbEntity
  8
Image
 62
7
100
AcDbSpline
 70
8
 71
3
 72
8
 73
4
 74
0
 40
0
 40
0
 40
0
 40
0
 40
1
 40
1
 40
1
 40
1
 10
381.673710
 20
334.903940
 30
0.0
 10
392.980730
 20
317.579920
 30
0.0
 10
404.275400
 20
290.344090
 30
0.0
 10
409.626300
 20
267.499420
 30
0.0
  0
SPLINE
  5
11b
100
AcDbEntity
  8
Image
 62
7
100
AcDbSpline
 70
8
 71
3
 72
8
 73
4
 74
0
 40
0
 40
0
 40
0
 40
0
 40
1
 40
1
 40
1
 40
1
 10
409.626300
 20
267.499420
 30
0.0
 10
411.259850
 20
260.525260
 30
0.0
 10
411.498630
 20
255.270510
 30
0.0
 10
411.489320
 20
226.500000
 30
0.0
  0
SPLINE
  5
11c
100
AcDbEntity
  8
Image
 62
7
100
AcDbSpline
 70
8
 71
3
 72
8
 73
4
 74
0
 40
0
 40
0
 40
0
 40
0
 40
1
 40
1
 40
1
 40
1
 10
411.489320
 20
226.500000
 30
0.0
 10
411.480320
 20
198.247570
 30
0.0
 10
411.224240
 20
192.502020
 30
0.0
 10
409.710370
 20
186.563130
 30
0.0
  0
SPLINE
  5
11d
100
AcDbEntity
  8
Image
 62
7
100
AcDbSpline
 70
8
 71
3
 72
8
 73
4
 74
0
 40
0
 40
0
 40
0
 40
0
 40
1
 40
1
 40
1
 40
1
 10
409.710370
 20
186.563130
 30
0.0
 10
401.675900
 20
155.044070
 30
0.0
 10
390.419110
 20
130.459780
 30
0.0
 10
373.886160
 20
108.324750
 30
0.0
  0
SPLINE
  5
11e
100
AcDbEntity
  8
Image
 62
7
100
AcDbSpline
 70
8
 71
3
 72
8
 73
4
 74
0
 40
0
 40
0
 40
0
 40
0
 40
1
 40
1
 40
1
 40
1
 10
373.886160
 20
108.324750
 30
0.0
 10
346.575260
 20
71.759750
 30
0.0
 10
307.723800
 20
45.734720
 30
0.0
 10
263.685590
 20
34.505840
 30
0.0
  0
SPLINE
  5
11f
100
AcDbEntity
  8
Image
 62
7
100
AcDbSpline
 70
8
 71
3
 72
8
 73
4
 74
0
 40
0
 40
0
 40
0
 40
0
 40
1
 40
1
 40
1
 40
1
 10
263.685590
 20
34.505840
 30
0.0
 10
245.718510
 20
29.924580
 30
0.0
 10
217.204910
 20
26.598670
 30
0.0
 10
205.000000
 20
27.660580
 30
0.0
  0
SPLINE
  5
120
100
AcDbEntity
  8
Image
 62
7
100
AcDbSpline
 70
8
 71
3
 72
8
 73
4
 74
0
 40
0
 40
0
 40
0
 40
0
 40
1
 40
1
 40
1
 40
1
 10
246.145410
 20
36.498540
 30
0.0
 10
283.245180
 20
41.987330
 30
0.0
 10
323.457640
 20
63.128990
 30
0.0
 10
351.080520
 20
91.668050
 30
0.0
  0
SPLINE
  5
121
100
AcDbEntity
  8
Image
 62
7
100
AcDbSpline
 70
8
 71
3
 72
8
 73
4
 74
0
 40
0
 40
0
 40
0
 40
0
 40
1
 40
1
 40
1
 40
1
 10
351.080520
 20
91.668050
 30
0.0
 10
377.546260
 20
119.011590
 30
0.0
 10
394.107120
 20
149.627890
 30
0.0
 10
403.188040
 20
188.000000
 30
0.0
  0
SPLINE
  5
122
100
AcDbEntity
  8
Image
 62
7
100
AcDbSpline
 70
8
 71
3
 72
8
 73
4
 74
0
 40
0
 40
0
 40
0
 40
0
 40
1
 40
1
 40
1
 40
1
 10
403.188040
 20
188.000000
 30
0.0
 10
405.262170
 20
196.764370
 30
0.0
 10
405.431930
 20
199.784320
 30
0.0
 10
405.380300
 20
227.000000
 30
0.0
  0
SPLINE
  5
123
100
AcDbEntity
  8
Image
 62
7
100
AcDbSpline
 70
8
 71
3
 72
8
 73
4
 74
0
 40
0
 40
0
 40
0
 40
0
 40
1
 40
1
 40
1
 40
1
 10
405.380300
 20
227.000000
 30
0.0
 10
405.328700
 20
254.202040
 30
0.0
 10
405.145930
 20
257.240020
 30
0.0
 10
403.034160
 20
266.000000
 30
0.0
  0
SPLINE
  5
124
100
AcDbEntity
  8
Image
 62
7
100
AcDbSpline
 70
8
 71
3
 72
8
 73
4
 74
0
 40
0
 40
0
 40
0
 40
0
 40
1
 40
1
 40
1
 40
1
 10
403.034160
 20
266.000000
 30
0.0
 10
395.717940
 20
296.348890
 30
0.0
 10
381.215270
 20
326.208220
 30
0.0
 10
362.911100
 20
348.608800
 30
0.0
  0
SPLINE
  5
125
100
AcDbEntity
  8
Image
 62
7
100
AcDbSpline
 70
8
 71
3
 72
8
 73
4
 74
0
 40
0
 40
0
 40
0
 40
0
 40
1
 40
1
 40
1
 40
1
 10
362.911100
 20
348.608800
 30
0.0
 10
346.930440
 20
368.165870
 30
0.0
 10
309.188620
 20
398.464190
 30
0.0
 10
303.182240
 20
396.557840
 30
0.0
  0
SPLINE
  5
126
100
AcDbEntity
  8
Image
 62
7
100
AcDbSpline
 70
8
 71
3
 72
8
 73
4
 74
0
 40
0
 40
0
 40
0
 40
0
 40
1
 40
1
 40
1
 40
1
 10
303.182240
 20
396.557840
 30
0.0
 10
302.188820
 20
396.242540
 30
0.0
 10
296.903920
 20
392.600570
 30
0.0
 10
291.438010
 20
388.464560
 30
0.0
  0
SPLINE
  5
127
100
AcDbEntity
  8
Image
 62
7
100
AcDbSpline
 70
8
 71
3
 72
8
 73
4
 74
0
 40
0
 40
0
 40
0
 40
0
 40
1
 40
1
 40
1
 40
1
 10
291.438010
 20
388.464560
 30
0.0
 10
279.224070
 20
379.222380
 30
0.0
 10
265.289570
 20
372.251210
 30
0.0
 10
249.500000
 20
367.483750
 30
0.0
  0
SPLINE
  5
128
100
AcDbEntity
  8
Image
 62
7
100
AcDbSpline
 70
8
 71
3
 72
8
 73
4
 74
0
 40
0
 40
0
 40
0
 40
0
 40
1
 40
1
 40
1
 40
1
 10
249.500000
 20
367.483750
 30
0.0
 10
232.241880
 20
362.272880
 30
0.0
 10
232.629410
 20
362.529860
 30
0.0
 10
239.878360
 20
361.103710
 30
0.0
  0
SPLINE
  5
129
100
AcDbEntity
  8
Image
 62
7
100
AcDbSpline
 70
8
 71
3
 72
8
 73
4
 74
0
 40
0
 40
0
 40
0
 40
0
 40
1
 40
1
 40
1
 40
1
 10
239.878360
 20
361.103710
 30
0.0
 10
243.334360
 20
360.423790
 30
0.0
 10
251.213310
 20
358.125720
 30
0.0
 10
257.387140
 20
355.996890
 30
0.0
  0
SPLINE
  5
12a
100
AcDbEntity
  8
Image
 62
7
100
AcDbSpline
 70
8
 71
3
 72
8
 73
4
 74
0
 40
0
 40
0
 40
0
 40
0
 40
1
 40
1
 40
1
 40
1
 10
257.387140
 20
355.996890
 30
0.0
 10
282.702510
 20
347.267780
 30
0.0
 10
303.901050
 20
332.409390
 30
0.0
 10
320.668510
 20
311.641970
 30
0.0
  0
SPLINE
  5
12b
100
AcDbEntity
  8
Image
 62
7
100
AcDbSpline
 70
8
 71
3
 72
8
 73
4
 74
0
 40
0
 40
0
 40
0
 40
0
 40
1
 40
1
 40
1
 40
1
 10
320.668510
 20
311.641970
 30
0.0
 10
330.934460
 20
298.927040
 30
0.0
 10
342.274570
 20
276.150860
 30
0.0
 10
346.093560
 20
260.576710
 30
0.0
  0
SPLINE
  5
12c
100
AcDbEntity
  8
Image
 62
7
100
AcDbSpline
 70
8
 71
3
 72
8
 73
4
 74
0
 40
0
 40
0
 40
0
 40
0
 40
1
 40
1
 40
1
 40
1
 10
346.093560
 20
260.576710
 30
0.0
 10
350.192060
 20
243.862700
 30
0.0
 10
349.620280
 20
204.852910
 30
0.0
 10
345.034900
 20
188.349610
 30
0.0
  0
SPLINE
  5
12d
100
AcDbEntity
  8
Image
 62
7
100
AcDbSpline
 70
8
 71
3
 72
8
 73
4
 74
0
 40
0
 40
0
 40
0
 40
0
 40
1
 40
1
 40
1
 40
1
 10
345.034900
 20
188.349610
 30
0.0
 10
336.572590
 20
157.892790
 30
0.0
 10
312.409250
 20
126.989610
 30
0.0
 10
283.159390
 20
109.215300
 30
0.0
  0
SPLINE
  5
12e
100
AcDbEntity
  8
Image
 62
7
100
AcDbSpline
 70
8
 71
3
 72
8
 73
4
 74
0
 40
0
 40
0
 40
0
 40
0
 40
1
 40
1
 40
1
 40
1
 10
283.159390
 20
109.215300
 30
0.0
 10
276.585150
 20
105.220320
 30
0.0
 10
259.429060
 20
97.717960
 30
0.0
 10
251.960880
 20
95.572200
 30
0.0
  0
SPLINE
  5
12f
100
AcDbEntity
  8
Image
 62
7
100
AcDbSpline
 70
8
 71
3
 72
8
 73
4
 74
0
 40
0
 40
0
 40
0
 40
0
 40
1
 40
1
 40
1
 40
1
 10
251.960880
 20
95.572200
 30
0.0
 10
220.274970
 20
86.468170
 30
0.0
 10
187.230540
 20
88.919710
 30
0.0
 10
157.206910
 20
102.601920
 30
0.0
  0
SPLINE
  5
130
100
AcDbEntity
  8
Image
 62
7
100
AcDbSpline
 70
8
 71
3
 72
8
 73
4
 74
0
 40
0
 40
0
 40
0
 40
0
 40
1
 40
1
 40
1
 40
1
 10
157.206910
 20
102.601920
 30
0.0
 10
138.017540
 20
111.346790
 30
0.0
 10
119.247150
 20
126.643910
 30
0.0
 10
103.341570
 20
146.500000
 30
0.0
  0
SPLINE
  5
131
100
AcDbEntity
  8
Image
 62
7
100
AcDbSpline
 70
8
 71
3
 72
8
 73
4
 74
0
 40
0
 40
0
 40
0
 40
0
 40
1
 40
1
 40
1
 40
1
 10
103.341570
 20
146.500000
 30
0.0
 10
84.580917
 20
169.920280
 30
0.0
 10
75.229245
 20
203.902890
 30
0.0
 10
78.035306
 20
238.459260
 30
0.0
  0
SPLINE
  5
132
100
AcDbEntity
  8
Image
 62
7
100
AcDbSpline
 70
8
 71
3
 72
8
 73
4
 74
0
 40
0
 40
0
 40
0
 40
0
 40
1
 40
1
 40
1
 40
1
 10
78.035306
 20
238.459260
 30
0.0
 10
80.685039
 20
271.090460
 30
0.0
 10
93.651866
 20
299.569340
 30
0.0
 10
116.179750
 20
322.235430
 30
0.0
  0
SPLINE
  5
133
100
AcDbEntity
  8
Image
 62
7
100
AcDbSpline
 70
8
 71
3
 72
8
 73
4
 74
0
 40
0
 40
0
 40
0
 40
0
 40
1
 40
1
 40
1
 40
1
 10
116.179750
 20
322.235430
 30
0.0
 10
127.234720
 20
333.358220
 30
0.0
 10
136.209340
 20
339.949300
 30
0.0
 10
150.398570
 20
347.366160
 30
0.0
  0
SPLINE
  5
134
100
AcDbEntity
  8
Image
 62
7
100
AcDbSpline
 70
8
 71
3
 72
8
 73
4
 74
0
 40
0
 40
0
 40
0
 40
0
 40
1
 40
1
 40
1
 40
1
 10
150.398570
 20
347.366160
 30
0.0
 10
161.038140
 20
352.927580
 30
0.0
 10
178.093180
 20
359.338050
 30
0.0
 10
186.780550
 20
361.041050
 30
0.0
  0
SPLINE
  5
135
100
AcDbEntity
  8
Image
 62
7
100
AcDbSpline
 70
8
 71
3
 72
8
 73
4
 74
0
 40
0
 40
0
 40
0
 40
0
 40
1
 40
1
 40
1
 40
1
 10
186.780550
 20
361.041050
 30
0.0
 10
190.234850
 20
361.718200
 30
0.0
 10
192.887940
 20
362.445390
 30
0.0
 10
192.676300
 20
362.657030
 30
0.0
  0
SPLINE
  5
136
100
AcDbEntity
  8
Image
 62
7
100
AcDbSpline
 70
8
 71
3
 72
8
 73
4
 74
0
 40
0
 40
0
 40
0
 40
0
 40
1
 40
1
 40
1
 40
1
 10
192.676300
 20
362.657030
 30
0.0
 10
192.464660
 20
362.868680
 30
0.0
 10
186.836820
 20
364.612210
 30
0.0
 10
180.170000
 20
366.531550
 30
0.0
  0
SPLINE
  5
137
100
AcDbEntity
  8
Image
 62
7
100
AcDbSpline
 70
8
 71
3
 72
8
 73
4
 74
0
 40
0
 40
0
 40
0
 40
0
 40
1
 40
1
 40
1
 40
1
 10
180.170000
 20
366.531550
 30
0.0
 10
160.128930
 20
372.301270
 30
0.0
 10
145.191710
 20
379.696610
 30
0.0
 10
131.433730
 20
390.660630
 30
0.0
  0
SPLINE
  5
138
100
AcDbEntity
  8
Image
 62
7
100
AcDbSpline
 70
8
 71
3
 72
8
 73
4
 74
0
 40
0
 40
0
 40
0
 40
0
 40
1
 40
1
 40
1
 40
1
 10
131.433730
 20
390.660630
 30
0.0
 10
127.748720
 20
393.597280
 30
0.0
 10
123.871290
 20
396.000000
 30
0.0
 10
122.817200
 20
396.000000
 30
0.0
  0
SPLINE
  5
139
100
AcDbEntity
  8
Image
 62
7
100
AcDbSpline
 70
8
 71
3
 72
8
 73
4
 74
0
 40
0
 40
0
 40
0
 40
0
 40
1
 40
1
 40
1
 40
1
 10
122.817200
 20
396.000000
 30
0.0
 10
118.854840
 20
396.000000
 30
0.0
 10
106.810870
 20
388.160580
 30
0.0
 10
89.644144
 20
374.407660
 30
0.0
  0
SPLINE
  5
13a
100
AcDbEntity
  8
Image
 62
7
100
AcDbSpline
 70
8
 71
3
 72
8
 73
4
 74
0
 40
0
 40
0
 40
0
 40
0
 40
1
 40
1
 40
1
 40
1
 10
89.644144
 20
374.407660
 30
0.0
 10
47.240596
 20
340.436550
 30
0.0
 10
19.943409
 20
282.444950
 30
0.0
 10
20.022626
 20
226.500000
 30
0.0
  0
SPLINE
  5
13b
100
AcDbEntity
  8
Image
 62
7
100
AcDbSpline
 70
8
 71
3
 72
8
 73
4
 74
0
 40
0
 40
0
 40
0
 40
0
 40
1
 40
1
 40
1
 40
1
 10
20.022626
 20
226.500000
 30
0.0
 10
20.042636
 20
212.369610
 30
0.0
 10
20.934686
 20
205.332750
 30
0.0
 10
25.076240
 20
186.635150
 30
0.0
  0
SPLINE
  5
13c
100
AcDbEntity
  8
Image
 62
7
100
AcDbSpline
 70
8
 71
3
 72
8
 73
4
 74
0
 40
0
 40
0
 40
0
 40
0
 40
1
 40
1
 40
1
 40
1
 10
25.076240
 20
186.635150
 30
0.0
 10
34.968822
 20
141.973740
 30
0.0
 10
54.127905
 20
110.069470
 30
0.0
 10
89.500000
 20
79.354810
 30
0.0
  0
SPLINE
  5
13d
100
AcDbEntity
  8
Image
 62
7
100
AcDbSpline
 70
8
 71
3
 72
8
 73
4
 74
0
 40
0
 40
0
 40
0
 40
0
 40
1
 40
1
 40
1
 40
1
 10
89.500000
 20
79.354810
 30
0.0
 10
99.899429
 20
70.324670
 30
0.0
 10
103.153660
 20
67.975200
 30
0.0
 10
113.689820
 20
61.890370
 30
0.0
  0
SPLINE
  5
13e
100
AcDbEntity
  8
Image
 62
7
100
AcDbSpline
 70
8
 71
3
 72
8
 73
4
 74
0
 40
0
 40
0
 40
0
 40
0
 40
1
 40
1
 40
1
 40
1
 10
113.689820
 20
61.890370
 30
0.0
 10
140.412390
 20
46.457600
 30
0.0
 10
163.285650
 20
38.374770
 30
0.0
 10
189.903530
 20
34.958360
 30
0.0
  0
SPLINE
  5
13f
100
AcDbEntity
  8
Image
 62
7
100
AcDbSpline
 70
8
 71
3
 72
8
 73
4
 74
0
 40
0
 40
0
 40
0
 40
0
 40
1
 40
1
 40
1
 40
1
 10
189.903530
 20
34.958360
 30
0.0
 10
199.343690
 20
33.746720
 30
0.0
 10
233.951220
 20
34.694440
 30
0.0
 10
246.145410
 20
36.498540
 30
0.0
  0
LWPOLYLINE
  5
140
100
AcDbEntity
  8
Image
 62
7
100
AcDbPolyline
 90
1
 70
1
 10
205.000000
 20
27.660580
 30
0.0
  0
SPLINE
  5
141
100
AcDbEntity
  8
Image
 62
7
100
AcDbSpline
 70
8
 71
3
 72
8
 73
4
 74
0
 40
0
 40
0
 40
0
 40
0
 40
1
 40
1
 40
1
 40
1
 10
240.500000
 20
97.919710
 30
0.0
 10
265.492920
 20
103.969740
 30
0.0
 10
285.021250
 20
114.238320
 30
0.0
 10
301.371520
 20
129.927780
 30
0.0
  0
SPLINE
  5
142
100
AcDbEntity
  8
Image
 62
7
100
AcDbSpline
 70
8
 71
3
 72
8
 73
4
 74
0
 40
0
 40
0
 40
0
 40
0
 40
1
 40
1
 40
1
 40
1
 10
301.371520
 20
129.927780
 30
0.0
 10
321.253770
 20
149.006480
 30
0.0
 10
330.097540
 20
162.420680
 30
0.0
 10
338.161660
 20
185.730980
 30
0.0
  0
SPLINE
  5
143
100
AcDbEntity
  8
Image
 62
7
100
AcDbSpline
 70
8
 71
3
 72
8
 73
4
 74
0
 40
0
 40
0
 40
0
 40
0
 40
1
 40
1
 40
1
 40
1
 10
338.161660
 20
185.730980
 30
0.0
 10
343.539010
 20
201.274840
 30
0.0
 10
345.356520
 20
214.034970
 30
0.0
 10
344.609640
 20
231.000000
 30
0.0
  0
SPLINE
  5
144
100
AcDbEntity
  8
Image
 62
7
100
AcDbSpline
 70
8
 71
3
 72
8
 73
4
 74
0
 40
0
 40
0
 40
0
 40
0
 40
1
 40
1
 40
1
 40
1
 10
344.609640
 20
231.000000
 30
0.0
 10
343.851720
 20
248.215490
 30
0.0
 10
342.743310
 20
254.778250
 30
0.0
 10
338.472360
 20
267.337910
 30
0.0
  0
SPLINE
  5
145
100
AcDbEntity
  8
Image
 62
7
100
AcDbSpline
 70
8
 71
3
 72
8
 73
4
 74
0
 40
0
 40
0
 40
0
 40
0
 40
1
 40
1
 40
1
 40
1
 10
338.472360
 20
267.337910
 30
0.0
 10
330.641860
 20
290.365240
 30
0.0
 10
318.364220
 20
308.911790
 30
0.0
 10
300.091840
 20
325.315400
 30
0.0
  0
SPLINE
  5
146
100
AcDbEntity
  8
Image
 62
7
100
AcDbSpline
 70
8
 71
3
 72
8
 73
4
 74
0
 40
0
 40
0
 40
0
 40
0
 40
1
 40
1
 40
1
 40
1
 10
300.091840
 20
325.315400
 30
0.0
 10
290.363480
 20
334.048820
 30
0.0
 10
281.146650
 20
339.781470
 30
0.0
 10
264.953820
 20
347.170440
 30
0.0
  0
SPLINE
  5
147
100
AcDbEntity
  8
Image
 62
7
100
AcDbSpline
 70
8
 71
3
 72
8
 73
4
 74
0
 40
0
 40
0
 40
0
 40
0
 40
1
 40
1
 40
1
 40
1
 10
264.953820
 20
347.170440
 30
0.0
 10
246.287050
 20
355.688290
 30
0.0
 10
238.754970
 20
357.135930
 30
0.0
 10
212.500000
 20
357.251930
 30
0.0
  0
SPLINE
  5
148
100
AcDbEntity
  8
Image
 62
7
100
AcDbSpline
 70
8
 71
3
 72
8
 73
4
 74
0
 40
0
 40
0
 40
0
 40
0
 40
1
 40
1
 40
1
 40
1
 10
212.500000
 20
357.251930
 30
0.0
 10
192.393070
 20
357.340730
 30
0.0
 10
191.122460
 20
357.229630
 30
0.0
 10
182.622470
 20
354.639770
 30
0.0
  0
SPLINE
  5
149
100
AcDbEntity
  8
Image
 62
7
100
AcDbSpline
 70
8
 71
3
 72
8
 73
4
 74
0
 40
0
 40
0
 40
0
 40
0
 40
1
 40
1
 40
1
 40
1
 10
182.622470
 20
354.639770
 30
0.0
 10
137.257300
 20
340.817280
 30
0.0
 10
106.910020
 20
313.877760
 30
0.0
 10
90.655537
 20
273.000000
 30
0.0
  0
SPLINE
  5
14a
100
AcDbEntity
  8
Image
 62
7
100
AcDbSpline
 70
8
 71
3
 72
8
 73
4
 74
0
 40
0
 40
0
 40
0
 40
0
 40
1
 40
1
 40
1
 40
1
 10
90.655537
 20
273.000000
 30
0.0
 10
83.252928
 20
254.383470
 30
0.0
 10
82.769203
 20
251.152060
 30
0.0
 10
83.245657
 20
223.500000
 30
0.0
  0
SPLINE
  5
14b
100
AcDbEntity
  8
Image
 62
7
100
AcDbSpline
 70
8
 71
3
 72
8
 73
4
 74
0
 40
0
 40
0
 40
0
 40
0
 40
1
 40
1
 40
1
 40
1
 10
83.245657
 20
223.500000
 30
0.0
 10
83.702187
 20
197.004290
 30
0.0
 10
83.403905
 20
198.576620
 30
0.0
 10
92.127913
 20
176.678930
 30
0.0
  0
SPLINE
  5
14c
100
AcDbEntity
  8
Image
 62
7
100
AcDbSpline
 70
8
 71
3
 72
8
 73
4
 74
0
 40
0
 40
0
 40
0
 40
0
 40
1
 40
1
 40
1
 40
1
 10
92.127913
 20
176.678930
 30
0.0
 10
96.496595
 20
165.713320
 30
0.0
 10
100.527450
 20
158.907400
 30
0.0
 10
108.817060
 20
148.500000
 30
0.0
  0
SPLINE
  5
14d
100
AcDbEntity
  8
Image
 62
7
100
AcDbSpline
 70
8
 71
3
 72
8
 73
4
 74
0
 40
0
 40
0
 40
0
 40
0
 40
1
 40
1
 40
1
 40
1
 10
108.817060
 20
148.500000
 30
0.0
 10
129.873550
 20
122.064100
 30
0.0
 10
149.958980
 20
108.406510
 30
0.0
 10
181.609760
 20
99.002770
 30
0.0
  0
SPLINE
  5
14e
100
AcDbEntity
  8
Image
 62
7
100
AcDbSpline
 70
8
 71
3
 72
8
 73
4
 74
0
 40
0
 40
0
 40
0
 40
0
 40
1
 40
1
 40
1
 40
1
 10
181.609760
 20
99.002770
 30
0.0
 10
196.222890
 20
94.661070
 30
0.0
 10
224.862530
 20
94.134350
 30
0.0
 10
240.500000
 20
97.919710
 30
0.0
  0
LWPOLYLINE
  5
14f
100
AcDbEntity
  8
Image
 62
7
100
AcDbPolyline
 90
1
 70
1
 10
246.145410
 20
36.498540
 30
0.0
  0
LWPOLYLINE
  5
150
100
AcDbEntity
  8
Image
 62
7
100
AcDbPolyline
 90
1
 70
1
 10
240.500000
 20
97.919710
 30
0.0
  0
SPLINE
  5
151
100
AcDbEntity
  8
Image
 62
7
100
AcDbSpline
 70
8
 71
3
 72
8
 73
4
 74
0
 40
0
 40
0
 40
0
 40
0
 40
1
 40
1
 40
1
 40
1
 10
189.285100
 20
249.750000
 30
0.0
 10
198.943350
 20
221.012500
 30
0.0
 10
207.826560
 20
194.433750
 30
0.0
 10
209.025560
 20
190.686120
 30
0.0
  0
SPLINE
  5
152
100
AcDbEntity
  8
Image
 62
7
100
AcDbSpline
 70
8
 71
3
 72
8
 73
4
 74
0
 40
0
 40
0
 40
0
 40
0
 40
1
 40
1
 40
1
 40
1
 10
209.025560
 20
190.686120
 30
0.0
 10
210.224570
 20
186.938490
 30
0.0
 10
211.351840
 20
184.018500
 30
0.0
 10
211.530600
 20
184.197270
 30
0.0
  0
SPLINE
  5
153
100
AcDbEntity
  8
Image
 62
7
100
AcDbSpline
 70
8
 71
3
 72
8
 73
4
 74
0
 40
0
 40
0
 40
0
 40
0
 40
1
 40
1
 40
1
 40
1
 10
211.530600
 20
184.197270
 30
0.0
 10
211.799050
 20
184.465710
 30
0.0
 10
238.534300
 20
261.854250
 30
0.0
 10
249.204820
 20
293.250000
 30
0.0
  0
LWPOLYLINE
  5
154
100
AcDbEntity
  8
Image
 62
7
100
AcDbPolyline
 90
5
 70
0
 10
144.000000
 20
232.500000
 30
0.0
 10
144.000000
 20
302.000000
 30
0.0
 10
157.862320
 20
302.000000
 30
0.0
 10
171.724650
 20
302.000000
 30
0.0
 10
189.285100
 20
249.750000
 30
0.0
  0
SPLINE
  5
155
100
AcDbEntity
  8
Image
 62
7
100
AcDbSpline
 70
8
 71
3
 72
8
 73
4
 74
0
 40
0
 40
0
 40
0
 40
0
 40
1
 40
1
 40
1
 40
1
 10
244.291860
 20
236.206790
 30
0.0
 10
236.477380
 20
213.818060
 30
0.0
 10
227.535370
 20
188.187500
 30
0.0
 10
224.420720
 20
179.250000
 30
0.0
  0
LWPOLYLINE
  5
156
100
AcDbEntity
  8
Image
 62
7
100
AcDbPolyline
 90
11
 70
0
 10
249.204820
 20
293.250000
 30
0.0
 10
252.178690
 20
302.000000
 30
0.0
 10
264.589350
 20
302.000000
 30
0.0
 10
277.000000
 20
302.000000
 30
0.0
 10
277.000000
 20
232.500000
 30
0.0
 10
277.000000
 20
163.000000
 30
0.0
 10
268.008190
 20
163.000000
 30
0.0
 10
259.016380
 20
163.000000
 30
0.0
 10
258.758190
 20
219.956790
 30
0.0
 10
258.500000
 20
276.913590
 30
0.0
 10
244.291860
 20
236.206790
 30
0.0
  0
SPLINE
  5
157
100
AcDbEntity
  8
Image
 62
7
100
AcDbSpline
 70
8
 71
3
 72
8
 73
4
 74
0
 40
0
 40
0
 40
0
 40
0
 40
1
 40
1
 40
1
 40
1
 10
193.043600
 20
189.750000
 30
0.0
 10
187.988810
 20
204.462500
 30
0.0
 10
179.048630
 20
230.675000
 30
0.0
 10
173.176530
 20
248.000000
 30
0.0
  0
LWPOLYLINE
  5
158
100
AcDbEntity
  8
Image
 62
7
100
AcDbPolyline
 90
5
 70
0
 10
224.420720
 20
179.250000
 30
0.0
 10
218.757730
 20
163.000000
 30
0.0
 10
210.495930
 20
163.000000
 30
0.0
 10
202.234140
 20
163.000000
 30
0.0
 10
193.043600
 20
189.750000
 30
0.0
  0
SPLINE
  5
159
100
AcDbEntity
  8
Image
 62
7
100
AcDbSpline
 70
8
 71
3
 72
8
 73
4
 74
0
 40
0
 40
0
 40
0
 40
0
 40
1
 40
1
 40
1
 40
1
 10
243.139510
 20
370.816590
 30
0.0
 10
259.351320
 20
375.156430
 30
0.0
 10
278.298400
 20
384.485550
 30
0.0
 10
290.709240
 20
394.238840
 30
0.0
  0
SPLINE
  5
15a
100
AcDbEntity
  8
Image
 62
7
100
AcDbSpline
 70
8
 71
3
 72
8
 73
4
 74
0
 40
0
 40
0
 40
0
 40
0
 40
1
 40
1
 40
1
 40
1
 10
290.709240
 20
394.238840
 30
0.0
 10
297.075880
 20
399.242200
 30
0.0
 10
298.039330
 20
400.892540
 30
0.0
 10
295.718170
 20
402.818940
 30
0.0
  0
SPLINE
  5
15b
100
AcDbEntity
  8
Image
 62
7
100
AcDbSpline
 70
8
 71
3
 72
8
 73
4
 74
0
 40
0
 40
0
 40
0
 40
0
 40
1
 40
1
 40
1
 40
1
 10
295.718170
 20
402.818940
 30
0.0
 10
293.582330
 20
404.591520
 30
0.0
 10
278.036630
 20
410.898660
 30
0.0
 10
269.000000
 20
413.658920
 30
0.0
  0
SPLINE
  5
15c
100
AcDbEntity
  8
Image
 62
7
100
AcDbSpline
 70
8
 71
3
 72
8
 73
4
 74
0
 40
0
 40
0
 40
0
 40
0
 40
1
 40
1
 40
1
 40
1
 10
269.000000
 20
413.658920
 30
0.0
 10
250.096360
 20
419.433070
 30
0.0
 10
247.539600
 20
419.859270
 30
0.0
 10
224.806030
 20
421.025750
 30
0.0
  0
SPLINE
  5
15d
100
AcDbEntity
  8
Image
 62
7
100
AcDbSpline
 70
8
 71
3
 72
8
 73
4
 74
0
 40
0
 40
0
 40
0
 40
0
 40
1
 40
1
 40
1
 40
1
 10
224.806030
 20
421.025750
 30
0.0
 10
193.889520
 20
422.612100
 30
0.0
 10
183.336620
 20
421.356710
 30
0.0
 10
157.000000
 20
412.959400
 30
0.0
  0
SPLINE
  5
15e
100
AcDbEntity
  8
Image
 62
7
100
AcDbSpline
 70
8
 71
3
 72
8
 73
4
 74
0
 40
0
 40
0
 40
0
 40
0
 40
1
 40
1
 40
1
 40
1
 10
157.000000
 20
412.959400
 30
0.0
 10
144.247470
 20
408.893320
 30
0.0
 10
129.964530
 20
402.404700
 30
0.0
 10
129.288830
 20
400.370460
 30
0.0
  0
SPLINE
  5
15f
100
AcDbEntity
  8
Image
 62
7
100
AcDbSpline
 70
8
 71
3
 72
8
 73
4
 74
0
 40
0
 40
0
 40
0
 40
0
 40
1
 40
1
 40
1
 40
1
 10
129.288830
 20
400.370460
 30
0.0
 10
128.808880
 20
398.925540
 30
0.0
 10
139.438200
 20
390.527730
 30
0.0
 10
148.505730
 20
385.187930
 30
0.0
  0
SPLINE
  5
160
100
AcDbEntity
  8
Image
 62
7
100
AcDbSpline
 70
8
 71
3
 72
8
 73
4
 74
0
 40
0
 40
0
 40
0
 40
0
 40
1
 40
1
 40
1
 40
1
 10
148.505730
 20
385.187930
 30
0.0
 10
161.704150
 20
377.415480
 30
0.0
 10
179.504480
 20
370.726750
 30
0.0
 10
192.500000
 20
368.656450
 30
0.0
  0
SPLINE
  5
161
100
AcDbEntity
  8
Image
 62
7
100
AcDbSpline
 70
8
 71
3
 72
8
 73
4
 74
0
 40
0
 40
0
 40
0
 40
0
 40
1
 40
1
 40
1
 40
1
 10
192.500000
 20
368.656450
 30
0.0
 10
194.150000
 20
368.393600
 30
0.0
 10
204.500000
 20
368.311950
 30
0.0
 10
215.500000
 20
368.475020
 30
0.0
  0
SPLINE
  5
162
100
AcDbEntity
  8
Image
 62
7
100
AcDbSpline
 70
8
 71
3
 72
8
 73
4
 74
0
 40
0
 40
0
 40
0
 40
0
 40
1
 40
1
 40
1
 40
1
 10
215.500000
 20
368.475020
 30
0.0
 10
231.820240
 20
368.716970
 30
0.0
 10
236.905580
 20
369.147790
 30
0.0
 10
243.139510
 20
370.816590
 30
0.0
  0
LWPOLYLINE
  5
163
100
AcDbEntity
  8
Image
 62
7
100
AcDbPolyline
 90
7
 70
0
 10
173.176530
 20
248.000000
 30
0.0
 10
162.500000
 20
279.500000
 30
0.0
 10
162.241940
 20
221.250000
 30
0.0
 10
161.983880
 20
163.000000
 30
0.0
 10
152.991940
 20
163.000000
 30
0.0
 10
144.000000
 20
163.000000
 30
0.0
 10
144.000000
 20
232.500000
 30
0.0
  0
SPLINE
  5
164
100
AcDbEntity
  8
Image
 62
7
100
AcDbSpline
 70
8
 71
3
 72
8
 73
4
 74
0
 40
0
 40
0
 40
0
 40
0
 40
1
 40
1
 40
1
 40
1
 10
134.125160
 20
409.346980
 30
0.0
 10
145.001800
 20
414.283210
 30
0.0
 10
159.908960
 20
419.032790
 30
0.0
 10
173.633030
 20
421.934600
 30
0.0
  0
SPLINE
  5
165
100
AcDbEntity
  8
Image
 62
7
100
AcDbSpline
 70
8
 71
3
 72
8
 73
4
 74
0
 40
0
 40
0
 40
0
 40
0
 40
1
 40
1
 40
1
 40
1
 10
173.633030
 20
421.934600
 30
0.0
 10
180.306200
 20
423.345570
 30
0.0
 10
185.927900
 20
424.950000
 30
0.0
 10
186.125710
 20
425.500000
 30
0.0
  0
SPLINE
  5
166
100
AcDbEntity
  8
Image
 62
7
100
AcDbSpline
 70
8
 71
3
 72
8
 73
4
 74
0
 40
0
 40
0
 40
0
 40
0
 40
1
 40
1
 40
1
 40
1
 10
186.125710
 20
425.500000
 30
0.0
 10
186.323510
 20
426.050000
 30
0.0
 10
184.454670
 20
427.625000
 30
0.0
 10
181.972740
 20
429.000000
 30
0.0
  0
SPLINE
  5
167
100
AcDbEntity
  8
Image
 62
7
100
AcDbSpline
 70
8
 71
3
 72
8
 73
4
 74
0
 40
0
 40
0
 40
0
 40
0
 40
1
 40
1
 40
1
 40
1
 10
181.972740
 20
429.000000
 30
0.0
 10
165.874320
 20
437.918570
 30
0.0
 10
159.072740
 20
445.171200
 30
0.0
 10
150.200940
 20
462.878690
 30
0.0
  0
LWPOLYLINE
  5
168
100
AcDbEntity
  8
Image
 62
7
100
AcDbPolyline
 90
1
 70
1
 10
243.139510
 20
370.816590
 30
0.0
  0
SPLINE
  5
169
100
AcDbEntity
  8
Image
 62
7
100
AcDbSpline
 70
8
 71
3
 72
8
 73
4
 74
0
 40
0
 40
0
 40
0
 40
0
 40
1
 40
1
 40
1
 40
1
 10
149.108310
 20
519.011820
 30
0.0
 10
151.642880
 20
524.230320
 30
0.0
 10
155.780560
 20
531.228740
 30
0.0
 10
158.303150
 20
534.563860
 30
0.0
  0
SPLINE
  5
16a
100
AcDbEntity
  8
Image
 62
7
100
AcDbSpline
 70
8
 71
3
 72
8
 73
4
 74
0
 40
0
 40
0
 40
0
 40
0
 40
1
 40
1
 40
1
 40
1
 10
158.303150
 20
534.563860
 30
0.0
 10
167.145650
 20
546.254550
 30
0.0
 10
184.484360
 20
557.626460
 30
0.0
 10
197.120350
 20
560.022820
 30
0.0
  0
SPLINE
  5
16b
100
AcDbEntity
  8
Image
 62
7
100
AcDbSpline
 70
8
 71
3
 72
8
 73
4
 74
0
 40
0
 40
0
 40
0
 40
0
 40
1
 40
1
 40
1
 40
1
 10
197.120350
 20
560.022820
 30
0.0
 10
205.067710
 20
561.530010
 30
0.0
 10
225.703390
 20
561.228277
 30
0.0
 10
232.306700
 20
559.508330
 30
0.0
  0
SPLINE
  5
16c
100
AcDbEntity
  8
Image
 62
7
100
AcDbSpline
 70
8
 71
3
 72
8
 73
4
 74
0
 40
0
 40
0
 40
0
 40
0
 40
1
 40
1
 40
1
 40
1
 10
232.306700
 20
559.508330
 30
0.0
 10
246.854400
 20
555.719140
 30
0.0
 10
261.755940
 20
544.943780
 30
0.0
 10
271.262040
 20
531.339600
 30
0.0
  0
SPLINE
  5
16d
100
AcDbEntity
  8
Image
 62
7
100
AcDbSpline
 70
8
 71
3
 72
8
 73
4
 74
0
 40
0
 40
0
 40
0
 40
0
 40
1
 40
1
 40
1
 40
1
 10
271.262040
 20
531.339600
 30
0.0
 10
276.465450
 20
523.892990
 30
0.0
 10
278.689050
 20
519.155750
 30
0.0
 10
281.091650
 20
510.398170
 30
0.0
  0
SPLINE
  5
16e
100
AcDbEntity
  8
Image
 62
7
100
AcDbSpline
 70
8
 71
3
 72
8
 73
4
 74
0
 40
0
 40
0
 40
0
 40
0
 40
1
 40
1
 40
1
 40
1
 10
281.091650
 20
510.398170
 30
0.0
 10
282.911530
 20
503.764660
 30
0.0
 10
283.155960
 20
500.696950
 30
0.0
 10
282.790600
 20
489.074970
 30
0.0
  0
SPLINE
  5
16f
100
AcDbEntity
  8
Image
 62
7
100
AcDbSpline
 70
8
 71
3
 72
8
 73
4
 74
0
 40
0
 40
0
 40
0
 40
0
 40
1
 40
1
 40
1
 40
1
 10
282.790600
 20
489.074970
 30
0.0
 10
282.299620
 20
473.456600
 30
0.0
 10
279.889950
 20
464.801520
 30
0.0
 10
273.319440
 20
455.056400
 30
0.0
  0
SPLINE
  5
170
100
AcDbEntity
  8
Image
 62
7
100
AcDbSpline
 70
8
 71
3
 72
8
 73
4
 74
0
 40
0
 40
0
 40
0
 40
0
 40
1
 40
1
 40
1
 40
1
 10
273.319440
 20
455.056400
 30
0.0
 10
268.600250
 20
448.057090
 30
0.0
 10
255.765850
 20
435.288030
 30
0.0
 10
250.145050
 20
432.000000
 30
0.0
  0
SPLINE
  5
171
100
AcDbEntity
  8
Image
 62
7
100
AcDbSpline
 70
8
 71
3
 72
8
 73
4
 74
0
 40
0
 40
0
 40
0
 40
0
 40
1
 40
1
 40
1
 40
1
 10
250.145050
 20
432.000000
 30
0.0
 10
247.794530
 20
430.625000
 30
0.0
 10
244.887810
 20
428.721640
 30
0.0
 10
243.685690
 20
427.770320
 30
0.0
  0
SPLINE
  5
172
100
AcDbEntity
  8
Image
 62
7
100
AcDbSpline
 70
8
 71
3
 72
8
 73
4
 74
0
 40
0
 40
0
 40
0
 40
0
 40
1
 40
1
 40
1
 40
1
 10
243.685690
 20
427.770320
 30
0.0
 10
241.813590
 20
426.288800
 30
0.0
 10
241.715210
 20
425.898050
 30
0.0
 10
243.000000
 20
425.046830
 30
0.0
  0
SPLINE
  5
173
100
AcDbEntity
  8
Image
 62
7
100
AcDbSpline
 70
8
 71
3
 72
8
 73
4
 74
0
 40
0
 40
0
 40
0
 40
0
 40
1
 40
1
 40
1
 40
1
 10
243.000000
 20
425.046830
 30
0.0
 10
243.825000
 20
424.500240
 30
0.0
 10
246.975000
 20
423.573610
 30
0.0
 10
250.000000
 20
422.987660
 30
0.0
  0
SPLINE
  5
174
100
AcDbEntity
  8
Image
 62
7
100
AcDbSpline
 70
8
 71
3
 72
8
 73
4
 74
0
 40
0
 40
0
 40
0
 40
0
 40
1
 40
1
 40
1
 40
1
 10
250.000000
 20
422.987660
 30
0.0
 10
266.874280
 20
419.719050
 30
0.0
 10
281.106860
 20
415.401210
 30
0.0
 10
295.478800
 20
409.190410
 30
0.0
  0
SPLINE
  5
175
100
AcDbEntity
  8
Image
 62
7
100
AcDbSpline
 70
8
 71
3
 72
8
 73
4
 74
0
 40
0
 40
0
 40
0
 40
0
 40
1
 40
1
 40
1
 40
1
 10
295.478800
 20
409.190410
 30
0.0
 10
303.788460
 20
405.599410
 30
0.0
 10
304.234430
 20
405.743130
 30
0.0
 10
310.798540
 20
414.127560
 30
0.0
  0
SPLINE
  5
176
100
AcDbEntity
  8
Image
 62
7
100
AcDbSpline
 70
8
 71
3
 72
8
 73
4
 74
0
 40
0
 40
0
 40
0
 40
0
 40
1
 40
1
 40
1
 40
1
 10
310.798540
 20
414.127560
 30
0.0
 10
317.699230
 20
422.941900
 30
0.0
 10
325.244170
 20
436.394760
 30
0.0
 10
329.881840
 20
448.153670
 30
0.0
  0
SPLINE
  5
177
100
AcDbEntity
  8
Image
 62
7
100
AcDbSpline
 70
8
 71
3
 72
8
 73
4
 74
0
 40
0
 40
0
 40
0
 40
0
 40
1
 40
1
 40
1
 40
1
 10
329.881840
 20
448.153670
 30
0.0
 10
336.571960
 20
465.116610
 30
0.0
 10
337.362730
 20
469.800170
 30
0.0
 10
337.369310
 20
492.500000
 30
0.0
  0
SPLINE
  5
178
100
AcDbEntity
  8
Image
 62
7
100
AcDbSpline
 70
8
 71
3
 72
8
 73
4
 74
0
 40
0
 40
0
 40
0
 40
0
 40
1
 40
1
 40
1
 40
1
 10
337.369310
 20
492.500000
 30
0.0
 10
337.376310
 20
515.513910
 30
0.0
 10
336.285940
 20
521.411990
 30
0.0
 10
328.400420
 20
541.029740
 30
0.0
  0
SPLINE
  5
179
100
AcDbEntity
  8
Image
 62
7
100
AcDbSpline
 70
8
 71
3
 72
8
 73
4
 74
0
 40
0
 40
0
 40
0
 40
0
 40
1
 40
1
 40
1
 40
1
 10
328.400420
 20
541.029740
 30
0.0
 10
323.315250
 20
553.680730
 30
0.0
 10
323.374960
 20
553.959150
 30
0.0
 10
331.178570
 20
553.984690
 30
0.0
  0
SPLINE
  5
17a
100
AcDbEntity
  8
Image
 62
7
100
AcDbSpline
 70
8
 71
3
 72
8
 73
4
 74
0
 40
0
 40
0
 40
0
 40
0
 40
1
 40
1
 40
1
 40
1
 10
331.178570
 20
553.984690
 30
0.0
 10
333.957640
 20
553.993690
 30
0.0
 10
336.458020
 20
554.600880
 30
0.0
 10
337.337140
 20
555.479990
 30
0.0
  0
SPLINE
  5
17b
100
AcDbEntity
  8
Image
 62
7
100
AcDbSpline
 70
8
 71
3
 72
8
 73
4
 74
0
 40
0
 40
0
 40
0
 40
0
 40
1
 40
1
 40
1
 40
1
 10
337.337140
 20
555.479990
 30
0.0
 10
339.321310
 20
557.464170
 30
0.0
 10
340.376800
 20
570.916373
 30
0.0
 10
339.800520
 20
586.875665
 30
0.0
  0
SPLINE
  5
17c
100
AcDbEntity
  8
Image
 62
7
100
AcDbSpline
 70
8
 71
3
 72
8
 73
4
 74
0
 40
0
 40
0
 40
0
 40
0
 40
1
 40
1
 40
1
 40
1
 10
339.800520
 20
586.875665
 30
0.0
 10
338.989950
 20
609.323091
 30
0.0
 10
339.697080
 20
608.903623
 30
0.0
 10
300.747390
 20
610.041845
 30
0.0
  0
SPLINE
  5
17d
100
AcDbEntity
  8
Image
 62
7
100
AcDbSpline
 70
8
 71
3
 72
8
 73
4
 74
0
 40
0
 40
0
 40
0
 40
0
 40
1
 40
1
 40
1
 40
1
 10
300.747390
 20
610.041845
 30
0.0
 10
257.975350
 20
611.291766
 30
0.0
 10
252.671350
 20
611.697048
 30
0.0
 10
240.000000
 20
614.683599
 30
0.0
  0
SPLINE
  5
17e
100
AcDbEntity
  8
Image
 62
7
100
AcDbSpline
 70
8
 71
3
 72
8
 73
4
 74
0
 40
0
 40
0
 40
0
 40
0
 40
1
 40
1
 40
1
 40
1
 10
240.000000
 20
614.683599
 30
0.0
 10
229.964870
 20
617.048810
 30
0.0
 10
226.398230
 20
617.396861
 30
0.0
 10
212.000000
 20
617.415987
 30
0.0
  0
SPLINE
  5
17f
100
AcDbEntity
  8
Image
 62
7
100
AcDbSpline
 70
8
 71
3
 72
8
 73
4
 74
0
 40
0
 40
0
 40
0
 40
0
 40
1
 40
1
 40
1
 40
1
 10
212.000000
 20
617.415987
 30
0.0
 10
197.163770
 20
617.435697
 30
0.0
 10
194.441240
 20
617.160322
 30
0.0
 10
185.000000
 20
614.685066
 30
0.0
  0
SPLINE
  5
180
100
AcDbEntity
  8
Image
 62
7
100
AcDbSpline
 70
8
 71
3
 72
8
 73
4
 74
0
 40
0
 40
0
 40
0
 40
0
 40
1
 40
1
 40
1
 40
1
 10
185.000000
 20
614.685066
 30
0.0
 10
172.466680
 20
611.399144
 30
0.0
 10
171.093540
 20
610.903686
 30
0.0
 10
159.500000
 20
605.484165
 30
0.0
  0
SPLINE
  5
181
100
AcDbEntity
  8
Image
 62
7
100
AcDbSpline
 70
8
 71
3
 72
8
 73
4
 74
0
 40
0
 40
0
 40
0
 40
0
 40
1
 40
1
 40
1
 40
1
 10
159.500000
 20
605.484165
 30
0.0
 10
146.027390
 20
599.186250
 30
0.0
 10
135.632390
 20
591.780726
 30
0.0
 10
124.435880
 20
580.504050
 30
0.0
  0
SPLINE
  5
182
100
AcDbEntity
  8
Image
 62
7
100
AcDbSpline
 70
8
 71
3
 72
8
 73
4
 74
0
 40
0
 40
0
 40
0
 40
0
 40
1
 40
1
 40
1
 40
1
 10
124.435880
 20
580.504050
 30
0.0
 10
108.133350
 20
564.084796
 30
0.0
 10
98.203699
 20
547.109800
 30
0.0
 10
91.675880
 20
524.500000
 30
0.0
  0
SPLINE
  5
183
100
AcDbEntity
  8
Image
 62
7
100
AcDbSpline
 70
8
 71
3
 72
8
 73
4
 74
0
 40
0
 40
0
 40
0
 40
0
 40
1
 40
1
 40
1
 40
1
 10
91.675880
 20
524.500000
 30
0.0
 10
88.545697
 20
513.658270
 30
0.0
 10
88.500832
 20
513.197840
 30
0.0
 10
88.557841
 20
492.500000
 30
0.0
  0
SPLINE
  5
184
100
AcDbEntity
  8
Image
 62
7
100
AcDbSpline
 70
8
 71
3
 72
8
 73
4
 74
0
 40
0
 40
0
 40
0
 40
0
 40
1
 40
1
 40
1
 40
1
 10
88.557841
 20
492.500000
 30
0.0
 10
88.617061
 20
470.997720
 30
0.0
 10
88.992171
 20
468.172810
 30
0.0
 10
93.662497
 20
454.057010
 30
0.0
  0
SPLINE
  5
185
100
AcDbEntity
  8
Image
 62
7
100
AcDbSpline
 70
8
 71
3
 72
8
 73
4
 74
0
 40
0
 40
0
 40
0
 40
0
 40
1
 40
1
 40
1
 40
1
 10
93.662497
 20
454.057010
 30
0.0
 10
100.269380
 20
434.088070
 30
0.0
 10
118.277960
 20
406.000000
 30
0.0
 10
124.474100
 20
406.000000
 30
0.0
  0
SPLINE
  5
186
100
AcDbEntity
  8
Image
 62
7
100
AcDbSpline
 70
8
 71
3
 72
8
 73
4
 74
0
 40
0
 40
0
 40
0
 40
0
 40
1
 40
1
 40
1
 40
1
 10
124.474100
 20
406.000000
 30
0.0
 10
125.726020
 20
406.000000
 30
0.0
 10
130.068990
 20
407.506140
 30
0.0
 10
134.125160
 20
409.346980
 30
0.0
  0
LWPOLYLINE
  5
187
100
AcDbEntity
  8
Image
 62
7
100
AcDbPolyline
 90
5
 70
0
 10
150.200940
 20
462.878690
 30
0.0
 10
144.500000
 20
474.257380
 30
0.0
 10
144.500000
 20
491.890510
 30
0.0
 10
144.500000
 20
509.523650
 30
0.0
 10
149.108310
 20
519.011820
 30
0.0
  0
SPLINE
  5
188
100
AcDbEntity
  8
Image
 62
7
100
AcDbSpline
 70
8
 71
3
 72
8
 73
4
 74
0
 40
0
 40
0
 40
0
 40
0
 40
1
 40
1
 40
1
 40
1
 10
231.500000
 20
429.685280
 30
0.0
 10
242.725550
 20
432.484310
 30
0.0
 10
247.830880
 20
435.639940
 30
0.0
 10
258.551530
 20
446.405950
 30
0.0
  0
SPLINE
  5
189
100
AcDbEntity
  8
Image
 62
7
100
AcDbSpline
 70
8
 71
3
 72
8
 73
4
 74
0
 40
0
 40
0
 40
0
 40
0
 40
1
 40
1
 40
1
 40
1
 10
258.551530
 20
446.405950
 30
0.0
 10
269.979560
 20
457.882310
 30
0.0
 10
273.822560
 20
464.506050
 30
0.0
 10
276.422360
 20
477.207840
 30
0.0
  0
SPLINE
  5
18a
100
AcDbEntity
  8
Image
 62
7
100
AcDbSpline
 70
8
 71
3
 72
8
 73
4
 74
0
 40
0
 40
0
 40
0
 40
0
 40
1
 40
1
 40
1
 40
1
 10
276.422360
 20
477.207840
 30
0.0
 10
279.798980
 20
493.704910
 30
0.0
 10
277.957930
 20
507.455210
 30
0.0
 10
270.417810
 20
522.054270
 30
0.0
  0
SPLINE
  5
18b
100
AcDbEntity
  8
Image
 62
7
100
AcDbSpline
 70
8
 71
3
 72
8
 73
4
 74
0
 40
0
 40
0
 40
0
 40
0
 40
1
 40
1
 40
1
 40
1
 10
270.417810
 20
522.054270
 30
0.0
 10
266.827380
 20
529.006010
 30
0.0
 10
264.243040
 20
532.398110
 30
0.0
 10
258.132870
 20
538.179010
 30
0.0
  0
SPLINE
  5
18c
100
AcDbEntity
  8
Image
 62
7
100
AcDbSpline
 70
8
 71
3
 72
8
 73
4
 74
0
 40
0
 40
0
 40
0
 40
0
 40
1
 40
1
 40
1
 40
1
 10
258.132870
 20
538.179010
 30
0.0
 10
243.863100
 20
551.679790
 30
0.0
 10
232.805880
 20
556.000000
 30
0.0
 10
212.521540
 20
556.000000
 30
0.0
  0
SPLINE
  5
18d
100
AcDbEntity
  8
Image
 62
7
100
AcDbSpline
 70
8
 71
3
 72
8
 73
4
 74
0
 40
0
 40
0
 40
0
 40
0
 40
1
 40
1
 40
1
 40
1
 10
212.521540
 20
556.000000
 30
0.0
 10
199.425000
 20
556.000000
 30
0.0
 10
193.778240
 20
554.606710
 30
0.0
 10
183.000000
 20
548.715840
 30
0.0
  0
SPLINE
  5
18e
100
AcDbEntity
  8
Image
 62
7
100
AcDbSpline
 70
8
 71
3
 72
8
 73
4
 74
0
 40
0
 40
0
 40
0
 40
0
 40
1
 40
1
 40
1
 40
1
 10
183.000000
 20
548.715840
 30
0.0
 10
170.119430
 20
541.675930
 30
0.0
 10
158.184560
 20
528.169880
 30
0.0
 10
152.322730
 20
514.000000
 30
0.0
  0
SPLINE
  5
18f
100
AcDbEntity
  8
Image
 62
7
100
AcDbSpline
 70
8
 71
3
 72
8
 73
4
 74
0
 40
0
 40
0
 40
0
 40
0
 40
1
 40
1
 40
1
 40
1
 10
152.322730
 20
514.000000
 30
0.0
 10
150.269870
 20
509.037600
 30
0.0
 10
150.045150
 20
506.864750
 30
0.0
 10
150.023740
 20
491.770240
 30
0.0
  0
SPLINE
  5
190
100
AcDbEntity
  8
Image
 62
7
100
AcDbSpline
 70
8
 71
3
 72
8
 73
4
 74
0
 40
0
 40
0
 40
0
 40
0
 40
1
 40
1
 40
1
 40
1
 10
150.023740
 20
491.770240
 30
0.0
 10
149.997340
 20
473.173280
 30
0.0
 10
150.361940
 20
471.552450
 30
0.0
 10
157.197300
 20
459.879480
 30
0.0
  0
SPLINE
  5
191
100
AcDbEntity
  8
Image
 62
7
100
AcDbSpline
 70
8
 71
3
 72
8
 73
4
 74
0
 40
0
 40
0
 40
0
 40
0
 40
1
 40
1
 40
1
 40
1
 10
157.197300
 20
459.879480
 30
0.0
 10
167.419250
 20
442.423120
 30
0.0
 10
184.650750
 20
430.004290
 30
0.0
 10
201.500000
 20
427.950320
 30
0.0
  0
SPLINE
  5
192
100
AcDbEntity
  8
Image
 62
7
100
AcDbSpline
 70
8
 71
3
 72
8
 73
4
 74
0
 40
0
 40
0
 40
0
 40
0
 40
1
 40
1
 40
1
 40
1
 10
201.500000
 20
427.950320
 30
0.0
 10
209.448000
 20
426.981440
 30
0.0
 10
224.040800
 20
427.825370
 30
0.0
 10
231.500000
 20
429.685280
 30
0.0
  0
LWPOLYLINE
  5
193
100
AcDbEntity
  8
Image
 62
7
100
AcDbPolyline
 90
1
 70
1
 10
134.125160
 20
409.346980
 30
0.0
  0
LWPOLYLINE
  5
194
100
AcDbEntity
  8
Image
 62
7
100
AcDbPolyline
 90
1
 70
1
 10
231.500000
 20
429.685280
 30
0.0
  0
ENDSEC
  0
SECTION
  2
OBJECTS
  0
DICTIONARY
  5
C
330
0
100
AcDbDictionary
  3
ACAD_GROUP
350
D
  3
ACAD_MLINESTYLE
350
17
  0
DICTIONARY
  5
D
330
C
100
AcDbDictionary
  0
DICTIONARY
  5
1A
330
C
100
AcDbDictionary
  0
DICTIONARY
  5
17
330
C
100
AcDbDictionary
  3
STANDARD
350
18
  0
DICTIONARY
  5
19
330
C
100
AcDbDictionary
  0
ENDSEC
  0
EOF
