  0
SECTION
  2
HEADER
  9
$ACADVER
  1
AC1014
  9
$HANDSEED
  5
FFFF
  9
$INSUNITS
 70
     4
  9
$MEASUREMENT
 70
     1
  0
ENDSEC
  0
SECTION
  2
TABLES
  0
TABLE
  2
VPORT
  5
8
330
0
100
AcDbSymbolTable
 70
     4
  0
VPORT
  5
2E
330
8
100
AcDbSymbolTableRecord
100
AcDbViewportTableRecord
  2
*ACTIVE
 70
     0
 10
0.0
 20
0.0
 11
1.0
 21
1.0
 12
210.0
 22
148.5
 13
0.0
 23
0.0
 14
10.0
 24
10.0
 15
10.0
 25
10.0
 16
0.0
 26
0.0
 36
1.0
 17
0.0
 27
0.0
 37
0.0
 40
341.0
 41
1.24
 42
50.0
 43
0.0
 44
0.0
 50
0.0
 51
0.0
 71
     0
 72
   100
 73
     1
 74
     3
 75
     0
 76
     0
 77
     0
 78
     0
  0
ENDTAB
  0
TABLE
  2
LTYPE
  5
5
330
0
100
AcDbSymbolTable
 70
     1
  0
LTYPE
  5
14
330
5
100
AcDbSymbolTableRecord
100
AcDbLinetypeTableRecord
  2
BYBLOCK
 70
     0
  3

 72
    65
 73
     0
 40
0.0
  0
LTYPE
  5
15
330
5
100
AcDbSymbolTableRecord
100
AcDbLinetypeTableRecord
  2
BYLAYER
 70
     0
  3

 72
    65
 73
     0
 40
0.0
  0
LTYPE
  5
16
330
5
100
AcDbSymbolTableRecord
100
AcDbLinetypeTableRecord
  2
CONTINUOUS
 70
     0
  3
Solid line
 72
    65
 73
     0
 40
0.0
  0
ENDTAB
  0
TABLE
  2
LAYER
  5
2
100
AcDbSymbolTable
 70
2
  0
LAYER
  5
50
100
AcDbSymbolTableRecord
100
AcDbLayerTableRecord
  2
0
 70
0
  6
CONTINUOUS
  0
LAYER
  5
51
100
AcDbSymbolTableRecord
100
AcDbLayerTableRecord
  2
Calque_1
 70
0
  6
CONTINUOUS
  0
ENDTAB
  0
TABLE
  2
STYLE
  5
3
330
0
100
AcDbSymbolTable
 70
     1
  0
STYLE
  5
11
330
3
100
AcDbSymbolTableRecord
100
AcDbTextStyleTableRecord
  2
STANDARD
 70
     0
 40
0.0
 41
1.0
 50
0.0
 71
     0
 42
2.5
  3
txt
  4

  0
ENDTAB
  0
TABLE
  2
VIEW
  5
6
330
0
100
AcDbSymbolTable
 70
     0
  0
ENDTAB
  0
TABLE
  2
UCS
  5
7
330
0
100
AcDbSymbolTable
 70
     0
  0
ENDTAB
  0
TABLE
  2
APPID
  5
9
330
0
100
AcDbSymbolTable
 70
     2
  0
APPID
  5
12
330
9
100
AcDbSymbolTableRecord
100
AcDbRegAppTableRecord
  2
ACAD
 70
     0
  0
ENDTAB
  0
TABLE
  2
DIMSTYLE
  5
A
330
0
100
AcDbSymbolTable
 70
     1
  0
DIMSTYLE
105
27
330
A
100
AcDbSymbolTableRecord
100
AcDbDimStyleTableRecord
  2
ISO-25
 70
     0
  3

  4

  5

  6

  7

 40
1.0
 41
2.5
 42
0.625
 43
3.75
 44
1.25
 45
0.0
 46
0.0
 47
0.0
 48
0.0
140
2.5
141
2.5
142
0.0
143
0.03937007874016
144
1.0
145
0.0
146
1.0
147
0.625
 71
     0
 72
     0
 73
     0
 74
     0
 75
     0
 76
     0
 77
     1
 78
     8
170
     0
171
     3
172
     1
173
     0
174
     0
175
     0
176
     0
177
     0
178
     0
270
     2
271
     2
272
     2
273
     2
274
     3
340
11
275
     0
280
     0
281
     0
282
     0
283
     0
284
     8
285
     0
286
     0
287
     3
288
     0
  0
ENDTAB
  0
TABLE
  2
BLOCK_RECORD
  5
1
330
0
100
AcDbSymbolTable
 70
     1
  0
BLOCK_RECORD
  5
1F
330
1
100
AcDbSymbolTableRecord
100
AcDbBlockTableRecord
  2
*MODEL_SPACE
  0
BLOCK_RECORD
  5
1B
330
1
100
AcDbSymbolTableRecord
100
AcDbBlockTableRecord
  2
*PAPER_SPACE
  0
ENDTAB
  0
ENDSEC
  0
SECTION
  2
BLOCKS
  0
BLOCK
  5
20
330
1F
100
AcDbEntity
  8
0
100
AcDbBlockBegin
  2
*MODEL_SPACE
 70
     0
 10
0.0
 20
0.0
 30
0.0
  3
*MODEL_SPACE
  1

  0
ENDBLK
  5
21
330
1F
100
AcDbEntity
  8
0
100
AcDbBlockEnd
  0
BLOCK
  5
1C
330
1B
100
AcDbEntity
 67
     1
  8
0
100
AcDbBlockBegin
  2
*PAPER_SPACE
  1

  0
ENDBLK
  5
1D
330
1B
100
AcDbEntity
 67
     1
  8
0
100
AcDbBlockEnd
  0
ENDSEC
  0
SECTION
  2
ENTITIES
  0
SPLINE
  5
100
100
AcDbEntity
  8
Calque_1
 62
7
100
AcDbSpline
 70
8
 71
3
 72
8
 73
4
 74
0
 40
0
 40
0
 40
0
 40
0
 40
1
 40
1
 40
1
 40
1
 10
100.149690
 20
143.249250
 30
0.0
 10
99.368421
 20
143.330750
 30
0.0
 10
98.089961
 20
143.524870
 30
0.0
 10
97.308691
 20
143.680620
 30
0.0
  0
SPLINE
  5
101
100
AcDbEntity
  8
Calque_1
 62
7
100
AcDbSpline
 70
8
 71
3
 72
8
 73
4
 74
0
 40
0
 40
0
 40
0
 40
0
 40
1
 40
1
 40
1
 40
1
 10
97.308691
 20
143.680620
 30
0.0
 10
96.527411
 20
143.836370
 30
0.0
 10
95.061971
 20
144.238670
 30
0.0
 10
94.052141
 20
144.574620
 30
0.0
  0
SPLINE
  5
102
100
AcDbEntity
  8
Calque_1
 62
7
100
AcDbSpline
 70
8
 71
3
 72
8
 73
4
 74
0
 40
0
 40
0
 40
0
 40
0
 40
1
 40
1
 40
1
 40
1
 10
94.052141
 20
144.574620
 30
0.0
 10
93.042321
 20
144.910580
 30
0.0
 10
91.419841
 20
145.594460
 30
0.0
 10
90.446641
 20
146.094360
 30
0.0
  0
SPLINE
  5
103
100
AcDbEntity
  8
Calque_1
 62
7
100
AcDbSpline
 70
8
 71
3
 72
8
 73
4
 74
0
 40
0
 40
0
 40
0
 40
0
 40
1
 40
1
 40
1
 40
1
 10
90.446641
 20
146.094360
 30
0.0
 10
89.473441
 20
146.594260
 30
0.0
 10
88.030391
 20
147.465610
 30
0.0
 10
87.239871
 20
148.030700
 30
0.0
  0
SPLINE
  5
104
100
AcDbEntity
  8
Calque_1
 62
7
100
AcDbSpline
 70
8
 71
3
 72
8
 73
4
 74
0
 40
0
 40
0
 40
0
 40
0
 40
1
 40
1
 40
1
 40
1
 10
87.239871
 20
148.030700
 30
0.0
 10
86.449341
 20
148.595780
 30
0.0
 10
85.218891
 20
149.586740
 30
0.0
 10
84.505531
 20
150.232830
 30
0.0
  0
SPLINE
  5
105
100
AcDbEntity
  8
Calque_1
 62
7
100
AcDbSpline
 70
8
 71
3
 72
8
 73
4
 74
0
 40
0
 40
0
 40
0
 40
0
 40
1
 40
1
 40
1
 40
1
 10
84.505531
 20
150.232830
 30
0.0
 10
83.792161
 20
150.878920
 30
0.0
 10
82.736721
 20
151.984990
 30
0.0
 10
82.160101
 20
152.690750
 30
0.0
  0
SPLINE
  5
106
100
AcDbEntity
  8
Calque_1
 62
7
100
AcDbSpline
 70
8
 71
3
 72
8
 73
4
 74
0
 40
0
 40
0
 40
0
 40
0
 40
1
 40
1
 40
1
 40
1
 10
82.160101
 20
152.690750
 30
0.0
 10
81.583481
 20
153.396510
 30
0.0
 10
80.751001
 20
154.533280
 30
0.0
 10
80.310151
 20
155.216890
 30
0.0
  0
SPLINE
  5
107
100
AcDbEntity
  8
Calque_1
 62
7
100
AcDbSpline
 70
8
 71
3
 72
8
 73
4
 74
0
 40
0
 40
0
 40
0
 40
0
 40
1
 40
1
 40
1
 40
1
 10
80.310151
 20
155.216890
 30
0.0
 10
79.869291
 20
155.900510
 30
0.0
 10
79.218651
 20
157.037460
 30
0.0
 10
78.864281
 20
157.743440
 30
0.0
  0
SPLINE
  5
108
100
AcDbEntity
  8
Calque_1
 62
7
100
AcDbSpline
 70
8
 71
3
 72
8
 73
4
 74
0
 40
0
 40
0
 40
0
 40
0
 40
1
 40
1
 40
1
 40
1
 10
78.864281
 20
157.743440
 30
0.0
 10
78.509901
 20
158.449420
 30
0.0
 10
77.983691
 20
159.621830
 30
0.0
 10
77.694911
 20
160.348790
 30
0.0
  0
SPLINE
  5
109
100
AcDbEntity
  8
Calque_1
 62
7
100
AcDbSpline
 70
8
 71
3
 72
8
 73
4
 74
0
 40
0
 40
0
 40
0
 40
0
 40
1
 40
1
 40
1
 40
1
 10
77.694911
 20
160.348790
 30
0.0
 10
77.406131
 20
161.075750
 30
0.0
 10
77.012671
 20
162.295960
 30
0.0
 10
76.820571
 20
163.060350
 30
0.0
  0
SPLINE
  5
10a
100
AcDbEntity
  8
Calque_1
 62
7
100
AcDbSpline
 70
8
 71
3
 72
8
 73
4
 74
0
 40
0
 40
0
 40
0
 40
0
 40
1
 40
1
 40
1
 40
1
 10
76.820571
 20
163.060350
 30
0.0
 10
76.628461
 20
163.824750
 30
0.0
 10
76.374651
 20
165.236870
 30
0.0
 10
76.256541
 20
166.198400
 30
0.0
  0
SPLINE
  5
10b
100
AcDbEntity
  8
Calque_1
 62
7
100
AcDbSpline
 70
8
 71
3
 72
8
 73
4
 74
0
 40
0
 40
0
 40
0
 40
0
 40
1
 40
1
 40
1
 40
1
 10
76.256541
 20
166.198400
 30
0.0
 10
76.121881
 20
167.294600
 30
0.0
 10
76.078701
 20
169.049560
 30
0.0
 10
76.140741
 20
170.903820
 30
0.0
  0
SPLINE
  5
10c
100
AcDbEntity
  8
Calque_1
 62
7
100
AcDbSpline
 70
8
 71
3
 72
8
 73
4
 74
0
 40
0
 40
0
 40
0
 40
0
 40
1
 40
1
 40
1
 40
1
 10
76.140741
 20
170.903820
 30
0.0
 10
76.218441
 20
173.226500
 30
0.0
 10
76.335161
 20
174.241980
 30
0.0
 10
76.684631
 20
175.636630
 30
0.0
  0
SPLINE
  5
10d
100
AcDbEntity
  8
Calque_1
 62
7
100
AcDbSpline
 70
8
 71
3
 72
8
 73
4
 74
0
 40
0
 40
0
 40
0
 40
0
 40
1
 40
1
 40
1
 40
1
 10
76.684631
 20
175.636630
 30
0.0
 10
76.929351
 20
176.613230
 30
0.0
 10
77.344071
 20
178.011530
 30
0.0
 10
77.606241
 20
178.743980
 30
0.0
  0
SPLINE
  5
10e
100
AcDbEntity
  8
Calque_1
 62
7
100
AcDbSpline
 70
8
 71
3
 72
8
 73
4
 74
0
 40
0
 40
0
 40
0
 40
0
 40
1
 40
1
 40
1
 40
1
 10
77.606241
 20
178.743980
 30
0.0
 10
77.868411
 20
179.476430
 30
0.0
 10
78.484371
 20
180.861560
 30
0.0
 10
78.975051
 20
181.822050
 30
0.0
  0
SPLINE
  5
10f
100
AcDbEntity
  8
Calque_1
 62
7
100
AcDbSpline
 70
8
 71
3
 72
8
 73
4
 74
0
 40
0
 40
0
 40
0
 40
0
 40
1
 40
1
 40
1
 40
1
 10
78.975051
 20
181.822050
 30
0.0
 10
79.465731
 20
182.782540
 30
0.0
 10
80.305981
 20
184.180840
 30
0.0
 10
80.842281
 20
184.929400
 30
0.0
  0
SPLINE
  5
110
100
AcDbEntity
  8
Calque_1
 62
7
100
AcDbSpline
 70
8
 71
3
 72
8
 73
4
 74
0
 40
0
 40
0
 40
0
 40
0
 40
1
 40
1
 40
1
 40
1
 10
80.842281
 20
184.929400
 30
0.0
 10
81.378571
 20
185.677940
 30
0.0
 10
82.299021
 20
186.834510
 30
0.0
 10
82.887711
 20
187.499550
 30
0.0
  0
SPLINE
  5
111
100
AcDbEntity
  8
Calque_1
 62
7
100
AcDbSpline
 70
8
 71
3
 72
8
 73
4
 74
0
 40
0
 40
0
 40
0
 40
0
 40
1
 40
1
 40
1
 40
1
 10
82.887711
 20
187.499550
 30
0.0
 10
83.476401
 20
188.164580
 30
0.0
 10
84.553971
 20
189.201620
 30
0.0
 10
85.282311
 20
189.804080
 30
0.0
  0
SPLINE
  5
112
100
AcDbEntity
  8
Calque_1
 62
7
100
AcDbSpline
 70
8
 71
3
 72
8
 73
4
 74
0
 40
0
 40
0
 40
0
 40
0
 40
1
 40
1
 40
1
 40
1
 10
85.282311
 20
189.804080
 30
0.0
 10
86.010641
 20
190.406540
 30
0.0
 10
87.128601
 20
191.260730
 30
0.0
 10
87.766661
 20
191.702280
 30
0.0
  0
SPLINE
  5
113
100
AcDbEntity
  8
Calque_1
 62
7
100
AcDbSpline
 70
8
 71
3
 72
8
 73
4
 74
0
 40
0
 40
0
 40
0
 40
0
 40
1
 40
1
 40
1
 40
1
 10
87.766661
 20
191.702280
 30
0.0
 10
88.404721
 20
192.143830
 30
0.0
 10
89.006331
 20
192.632040
 30
0.0
 10
89.103581
 20
192.787180
 30
0.0
  0
SPLINE
  5
114
100
AcDbEntity
  8
Calque_1
 62
7
100
AcDbSpline
 70
8
 71
3
 72
8
 73
4
 74
0
 40
0
 40
0
 40
0
 40
0
 40
1
 40
1
 40
1
 40
1
 10
89.103581
 20
192.787180
 30
0.0
 10
89.240431
 20
193.005500
 30
0.0
 10
88.996861
 20
193.498580
 30
0.0
 10
88.026031
 20
194.968520
 30
0.0
  0
SPLINE
  5
115
100
AcDbEntity
  8
Calque_1
 62
7
100
AcDbSpline
 70
8
 71
3
 72
8
 73
4
 74
0
 40
0
 40
0
 40
0
 40
0
 40
1
 40
1
 40
1
 40
1
 10
88.026031
 20
194.968520
 30
0.0
 10
87.336141
 20
196.013120
 30
0.0
 10
86.525071
 20
197.460146
 30
0.0
 10
86.223661
 20
198.184156
 30
0.0
  0
SPLINE
  5
116
100
AcDbEntity
  8
Calque_1
 62
7
100
AcDbSpline
 70
8
 71
3
 72
8
 73
4
 74
0
 40
0
 40
0
 40
0
 40
0
 40
1
 40
1
 40
1
 40
1
 10
86.223661
 20
198.184156
 30
0.0
 10
85.922261
 20
198.908166
 30
0.0
 10
85.538291
 20
200.004056
 30
0.0
 10
85.370391
 20
200.619456
 30
0.0
  0
SPLINE
  5
117
100
AcDbEntity
  8
Calque_1
 62
7
100
AcDbSpline
 70
8
 71
3
 72
8
 73
4
 74
0
 40
0
 40
0
 40
0
 40
0
 40
1
 40
1
 40
1
 40
1
 10
85.370391
 20
200.619456
 30
0.0
 10
85.134501
 20
201.484103
 30
0.0
 10
85.065131
 20
202.464678
 30
0.0
 10
85.065131
 20
204.934504
 30
0.0
  0
SPLINE
  5
118
100
AcDbEntity
  8
Calque_1
 62
7
100
AcDbSpline
 70
8
 71
3
 72
8
 73
4
 74
0
 40
0
 40
0
 40
0
 40
0
 40
1
 40
1
 40
1
 40
1
 10
85.065131
 20
204.934504
 30
0.0
 10
85.065131
 20
207.417753
 30
0.0
 10
85.133931
 20
208.383184
 30
0.0
 10
85.373821
 20
209.262906
 30
0.0
  0
SPLINE
  5
119
100
AcDbEntity
  8
Calque_1
 62
7
100
AcDbSpline
 70
8
 71
3
 72
8
 73
4
 74
0
 40
0
 40
0
 40
0
 40
0
 40
1
 40
1
 40
1
 40
1
 10
85.373821
 20
209.262906
 30
0.0
 10
85.543591
 20
209.885655
 30
0.0
 10
85.953011
 20
211.019415
 30
0.0
 10
86.283651
 20
211.782374
 30
0.0
  0
SPLINE
  5
11a
100
AcDbEntity
  8
Calque_1
 62
7
100
AcDbSpline
 70
8
 71
3
 72
8
 73
4
 74
0
 40
0
 40
0
 40
0
 40
0
 40
1
 40
1
 40
1
 40
1
 10
86.283651
 20
211.782374
 30
0.0
 10
86.614281
 20
212.545333
 30
0.0
 10
87.322281
 20
213.833636
 30
0.0
 10
87.856981
 20
214.645270
 30
0.0
  0
SPLINE
  5
11b
100
AcDbEntity
  8
Calque_1
 62
7
100
AcDbSpline
 70
8
 71
3
 72
8
 73
4
 74
0
 40
0
 40
0
 40
0
 40
0
 40
1
 40
1
 40
1
 40
1
 10
87.856981
 20
214.645270
 30
0.0
 10
88.391681
 20
215.456904
 30
0.0
 10
89.378701
 20
216.667439
 30
0.0
 10
90.050361
 20
217.335347
 30
0.0
  0
SPLINE
  5
11c
100
AcDbEntity
  8
Calque_1
 62
7
100
AcDbSpline
 70
8
 71
3
 72
8
 73
4
 74
0
 40
0
 40
0
 40
0
 40
0
 40
1
 40
1
 40
1
 40
1
 10
90.050361
 20
217.335347
 30
0.0
 10
90.722011
 20
218.003256
 30
0.0
 10
91.983281
 20
219.021067
 30
0.0
 10
92.853191
 20
219.597151
 30
0.0
  0
SPLINE
  5
11d
100
AcDbEntity
  8
Calque_1
 62
7
100
AcDbSpline
 70
8
 71
3
 72
8
 73
4
 74
0
 40
0
 40
0
 40
0
 40
0
 40
1
 40
1
 40
1
 40
1
 10
92.853191
 20
219.597151
 30
0.0
 10
93.723091
 20
220.173235
 30
0.0
 10
95.064871
 20
220.887549
 30
0.0
 10
95.834931
 20
221.184515
 30
0.0
  0
SPLINE
  5
11e
100
AcDbEntity
  8
Calque_1
 62
7
100
AcDbSpline
 70
8
 71
3
 72
8
 73
4
 74
0
 40
0
 40
0
 40
0
 40
0
 40
1
 40
1
 40
1
 40
1
 10
95.834931
 20
221.184515
 30
0.0
 10
96.604991
 20
221.481481
 30
0.0
 10
97.930791
 20
221.890505
 30
0.0
 10
98.781151
 20
222.093457
 30
0.0
  0
SPLINE
  5
11f
100
AcDbEntity
  8
Calque_1
 62
7
100
AcDbSpline
 70
8
 71
3
 72
8
 73
4
 74
0
 40
0
 40
0
 40
0
 40
0
 40
1
 40
1
 40
1
 40
1
 10
98.781151
 20
222.093457
 30
0.0
 10
100.102510
 20
222.408821
 30
0.0
 10
100.701520
 20
222.449476
 30
0.0
 10
102.901920
 20
222.373132
 30
0.0
  0
SPLINE
  5
120
100
AcDbEntity
  8
Calque_1
 62
7
100
AcDbSpline
 70
8
 71
3
 72
8
 73
4
 74
0
 40
0
 40
0
 40
0
 40
0
 40
1
 40
1
 40
1
 40
1
 10
102.901920
 20
222.373132
 30
0.0
 10
104.922720
 20
222.303022
 30
0.0
 10
105.877650
 20
222.179478
 30
0.0
 10
107.340990
 20
221.798844
 30
0.0
  0
SPLINE
  5
121
100
AcDbEntity
  8
Calque_1
 62
7
100
AcDbSpline
 70
8
 71
3
 72
8
 73
4
 74
0
 40
0
 40
0
 40
0
 40
0
 40
1
 40
1
 40
1
 40
1
 10
107.340990
 20
221.798844
 30
0.0
 10
109.065620
 20
221.350247
 30
0.0
 10
109.558810
 20
221.305595
 30
0.0
 10
113.918920
 20
221.203308
 30
0.0
  0
SPLINE
  5
122
100
AcDbEntity
  8
Calque_1
 62
7
100
AcDbSpline
 70
8
 71
3
 72
8
 73
4
 74
0
 40
0
 40
0
 40
0
 40
0
 40
1
 40
1
 40
1
 40
1
 10
113.918920
 20
221.203308
 30
0.0
 10
117.987650
 20
221.107858
 30
0.0
 10
118.697280
 20
221.050223
 30
0.0
 10
119.106390
 20
220.781995
 30
0.0
  0
SPLINE
  5
123
100
AcDbEntity
  8
Calque_1
 62
7
100
AcDbSpline
 70
8
 71
3
 72
8
 73
4
 74
0
 40
0
 40
0
 40
0
 40
0
 40
1
 40
1
 40
1
 40
1
 10
119.106390
 20
220.781995
 30
0.0
 10
119.367060
 20
220.611091
 30
0.0
 10
119.683030
 20
220.291478
 30
0.0
 10
119.808540
 20
220.071744
 30
0.0
  0
SPLINE
  5
124
100
AcDbEntity
  8
Calque_1
 62
7
100
AcDbSpline
 70
8
 71
3
 72
8
 73
4
 74
0
 40
0
 40
0
 40
0
 40
0
 40
1
 40
1
 40
1
 40
1
 10
119.808540
 20
220.071744
 30
0.0
 10
119.971600
 20
219.786265
 30
0.0
 10
120.036740
 20
218.743165
 30
0.0
 10
120.036740
 20
216.417390
 30
0.0
  0
SPLINE
  5
125
100
AcDbEntity
  8
Calque_1
 62
7
100
AcDbSpline
 70
8
 71
3
 72
8
 73
4
 74
0
 40
0
 40
0
 40
0
 40
0
 40
1
 40
1
 40
1
 40
1
 10
120.036740
 20
216.417390
 30
0.0
 10
120.036740
 20
213.400390
 30
0.0
 10
120.011540
 20
213.144136
 30
0.0
 10
119.692070
 20
212.910522
 30
0.0
  0
SPLINE
  5
126
100
AcDbEntity
  8
Calque_1
 62
7
100
AcDbSpline
 70
8
 71
3
 72
8
 73
4
 74
0
 40
0
 40
0
 40
0
 40
0
 40
1
 40
1
 40
1
 40
1
 10
119.692070
 20
212.910522
 30
0.0
 10
119.502500
 20
212.771905
 30
0.0
 10
119.114410
 20
212.658491
 30
0.0
 10
118.829650
 20
212.658491
 30
0.0
  0
SPLINE
  5
127
100
AcDbEntity
  8
Calque_1
 62
7
100
AcDbSpline
 70
8
 71
3
 72
8
 73
4
 74
0
 40
0
 40
0
 40
0
 40
0
 40
1
 40
1
 40
1
 40
1
 10
118.829650
 20
212.658491
 30
0.0
 10
118.407900
 20
212.658491
 30
0.0
 10
118.334790
 20
212.600871
 30
0.0
 10
118.435350
 20
212.347756
 30
0.0
  0
SPLINE
  5
128
100
AcDbEntity
  8
Calque_1
 62
7
100
AcDbSpline
 70
8
 71
3
 72
8
 73
4
 74
0
 40
0
 40
0
 40
0
 40
0
 40
1
 40
1
 40
1
 40
1
 10
118.435350
 20
212.347756
 30
0.0
 10
118.503250
 20
212.176852
 30
0.0
 10
118.781690
 20
211.357843
 30
0.0
 10
119.054110
 20
210.527736
 30
0.0
  0
SPLINE
  5
129
100
AcDbEntity
  8
Calque_1
 62
7
100
AcDbSpline
 70
8
 71
3
 72
8
 73
4
 74
0
 40
0
 40
0
 40
0
 40
0
 40
1
 40
1
 40
1
 40
1
 10
119.054110
 20
210.527736
 30
0.0
 10
119.326530
 20
209.697629
 30
0.0
 10
119.653080
 20
208.419176
 30
0.0
 10
119.779770
 20
207.686729
 30
0.0
  0
SPLINE
  5
12a
100
AcDbEntity
  8
Calque_1
 62
7
100
AcDbSpline
 70
8
 71
3
 72
8
 73
4
 74
0
 40
0
 40
0
 40
0
 40
0
 40
1
 40
1
 40
1
 40
1
 10
119.779770
 20
207.686729
 30
0.0
 10
119.906470
 20
206.954282
 30
0.0
 10
120.006310
 20
205.675829
 30
0.0
 10
120.001660
 20
204.845722
 30
0.0
  0
SPLINE
  5
12b
100
AcDbEntity
  8
Calque_1
 62
7
100
AcDbSpline
 70
8
 71
3
 72
8
 73
4
 74
0
 40
0
 40
0
 40
0
 40
0
 40
1
 40
1
 40
1
 40
1
 10
120.001660
 20
204.845722
 30
0.0
 10
119.996660
 20
204.015616
 30
0.0
 10
119.899380
 20
202.817066
 30
0.0
 10
119.784700
 20
202.182278
 30
0.0
  0
SPLINE
  5
12c
100
AcDbEntity
  8
Calque_1
 62
7
100
AcDbSpline
 70
8
 71
3
 72
8
 73
4
 74
0
 40
0
 40
0
 40
0
 40
0
 40
1
 40
1
 40
1
 40
1
 10
119.784700
 20
202.182278
 30
0.0
 10
119.670020
 20
201.547491
 30
0.0
 10
119.368880
 20
200.388896
 30
0.0
 10
119.115480
 20
199.607616
 30
0.0
  0
SPLINE
  5
12d
100
AcDbEntity
  8
Calque_1
 62
7
100
AcDbSpline
 70
8
 71
3
 72
8
 73
4
 74
0
 40
0
 40
0
 40
0
 40
0
 40
1
 40
1
 40
1
 40
1
 10
119.115480
 20
199.607616
 30
0.0
 10
118.862090
 20
198.826336
 30
0.0
 10
118.354650
 20
197.587836
 30
0.0
 10
117.987830
 20
196.855390
 30
0.0
  0
SPLINE
  5
12e
100
AcDbEntity
  8
Calque_1
 62
7
100
AcDbSpline
 70
8
 71
3
 72
8
 73
4
 74
0
 40
0
 40
0
 40
0
 40
0
 40
1
 40
1
 40
1
 40
1
 10
117.987830
 20
196.855390
 30
0.0
 10
117.621020
 20
196.122940
 30
0.0
 10
116.913190
 20
194.966060
 30
0.0
 10
116.414890
 20
194.284530
 30
0.0
  0
SPLINE
  5
12f
100
AcDbEntity
  8
Calque_1
 62
7
100
AcDbSpline
 70
8
 71
3
 72
8
 73
4
 74
0
 40
0
 40
0
 40
0
 40
0
 40
1
 40
1
 40
1
 40
1
 10
116.414890
 20
194.284530
 30
0.0
 10
115.916590
 20
193.603000
 30
0.0
 10
115.511680
 20
193.003730
 30
0.0
 10
115.515090
 20
192.952810
 30
0.0
  0
SPLINE
  5
130
100
AcDbEntity
  8
Calque_1
 62
7
100
AcDbSpline
 70
8
 71
3
 72
8
 73
4
 74
0
 40
0
 40
0
 40
0
 40
0
 40
1
 40
1
 40
1
 40
1
 10
115.515090
 20
192.952810
 30
0.0
 10
115.518090
 20
192.901910
 30
0.0
 10
116.193370
 20
192.429750
 30
0.0
 10
117.014800
 20
191.903610
 30
0.0
  0
SPLINE
  5
131
100
AcDbEntity
  8
Calque_1
 62
7
100
AcDbSpline
 70
8
 71
3
 72
8
 73
4
 74
0
 40
0
 40
0
 40
0
 40
0
 40
1
 40
1
 40
1
 40
1
 10
117.014800
 20
191.903610
 30
0.0
 10
117.836220
 20
191.377480
 30
0.0
 10
119.211760
 20
190.332190
 30
0.0
 10
120.071550
 20
189.580750
 30
0.0
  0
SPLINE
  5
132
100
AcDbEntity
  8
Calque_1
 62
7
100
AcDbSpline
 70
8
 71
3
 72
8
 73
4
 74
0
 40
0
 40
0
 40
0
 40
0
 40
1
 40
1
 40
1
 40
1
 10
120.071550
 20
189.580750
 30
0.0
 10
120.931340
 20
188.829320
 30
0.0
 10
122.122600
 20
187.621770
 30
0.0
 10
122.718790
 20
186.897320
 30
0.0
  0
SPLINE
  5
133
100
AcDbEntity
  8
Calque_1
 62
7
100
AcDbSpline
 70
8
 71
3
 72
8
 73
4
 74
0
 40
0
 40
0
 40
0
 40
0
 40
1
 40
1
 40
1
 40
1
 10
122.718790
 20
186.897320
 30
0.0
 10
123.314980
 20
186.172870
 30
0.0
 10
124.180020
 20
185.020830
 30
0.0
 10
124.641090
 20
184.337210
 30
0.0
  0
SPLINE
  5
134
100
AcDbEntity
  8
Calque_1
 62
7
100
AcDbSpline
 70
8
 71
3
 72
8
 73
4
 74
0
 40
0
 40
0
 40
0
 40
0
 40
1
 40
1
 40
1
 40
1
 10
124.641090
 20
184.337210
 30
0.0
 10
125.102160
 20
183.653600
 30
0.0
 10
125.870220
 20
182.295240
 30
0.0
 10
126.347870
 20
181.318640
 30
0.0
  0
SPLINE
  5
135
100
AcDbEntity
  8
Calque_1
 62
7
100
AcDbSpline
 70
8
 71
3
 72
8
 73
4
 74
0
 40
0
 40
0
 40
0
 40
0
 40
1
 40
1
 40
1
 40
1
 10
126.347870
 20
181.318640
 30
0.0
 10
126.825530
 20
180.342050
 30
0.0
 10
127.449570
 20
178.823880
 30
0.0
 10
127.734620
 20
177.944950
 30
0.0
  0
SPLINE
  5
136
100
AcDbEntity
  8
Calque_1
 62
7
100
AcDbSpline
 70
8
 71
3
 72
8
 73
4
 74
0
 40
0
 40
0
 40
0
 40
0
 40
1
 40
1
 40
1
 40
1
 10
127.734620
 20
177.944950
 30
0.0
 10
128.019680
 20
177.066010
 30
0.0
 10
128.401390
 20
175.667700
 30
0.0
 10
128.582880
 20
174.837600
 30
0.0
  0
SPLINE
  5
137
100
AcDbEntity
  8
Calque_1
 62
7
100
AcDbSpline
 70
8
 71
3
 72
8
 73
4
 74
0
 40
0
 40
0
 40
0
 40
0
 40
1
 40
1
 40
1
 40
1
 10
128.582880
 20
174.837600
 30
0.0
 10
128.844660
 20
173.640230
 30
0.0
 10
128.912860
 20
172.576040
 30
0.0
 10
128.912860
 20
169.688270
 30
0.0
  0
SPLINE
  5
138
100
AcDbEntity
  8
Calque_1
 62
7
100
AcDbSpline
 70
8
 71
3
 72
8
 73
4
 74
0
 40
0
 40
0
 40
0
 40
0
 40
1
 40
1
 40
1
 40
1
 10
128.912860
 20
169.688270
 30
0.0
 10
128.912860
 20
166.800500
 30
0.0
 10
128.844660
 20
165.736310
 30
0.0
 10
128.582880
 20
164.538950
 30
0.0
  0
SPLINE
  5
139
100
AcDbEntity
  8
Calque_1
 62
7
100
AcDbSpline
 70
8
 71
3
 72
8
 73
4
 74
0
 40
0
 40
0
 40
0
 40
0
 40
1
 40
1
 40
1
 40
1
 10
128.582880
 20
164.538950
 30
0.0
 10
128.401390
 20
163.708840
 30
0.0
 10
128.019680
 20
162.310530
 30
0.0
 10
127.734620
 20
161.431600
 30
0.0
  0
SPLINE
  5
13a
100
AcDbEntity
  8
Calque_1
 62
7
100
AcDbSpline
 70
8
 71
3
 72
8
 73
4
 74
0
 40
0
 40
0
 40
0
 40
0
 40
1
 40
1
 40
1
 40
1
 10
127.734620
 20
161.431600
 30
0.0
 10
127.449570
 20
160.552660
 30
0.0
 10
126.825530
 20
159.034500
 30
0.0
 10
126.347870
 20
158.057900
 30
0.0
  0
SPLINE
  5
13b
100
AcDbEntity
  8
Calque_1
 62
7
100
AcDbSpline
 70
8
 71
3
 72
8
 73
4
 74
0
 40
0
 40
0
 40
0
 40
0
 40
1
 40
1
 40
1
 40
1
 10
126.347870
 20
158.057900
 30
0.0
 10
125.870220
 20
157.081300
 30
0.0
 10
125.102730
 20
155.722950
 30
0.0
 10
124.642340
 20
155.039330
 30
0.0
  0
SPLINE
  5
13c
100
AcDbEntity
  8
Calque_1
 62
7
100
AcDbSpline
 70
8
 71
3
 72
8
 73
4
 74
0
 40
0
 40
0
 40
0
 40
0
 40
1
 40
1
 40
1
 40
1
 10
124.642340
 20
155.039330
 30
0.0
 10
124.181950
 20
154.355710
 30
0.0
 10
123.284730
 20
153.170760
 30
0.0
 10
122.648510
 20
152.406110
 30
0.0
  0
SPLINE
  5
13d
100
AcDbEntity
  8
Calque_1
 62
7
100
AcDbSpline
 70
8
 71
3
 72
8
 73
4
 74
0
 40
0
 40
0
 40
0
 40
0
 40
1
 40
1
 40
1
 40
1
 10
122.648510
 20
152.406110
 30
0.0
 10
122.012290
 20
151.641460
 30
0.0
 10
120.866790
 20
150.474900
 30
0.0
 10
120.102960
 20
149.813760
 30
0.0
  0
SPLINE
  5
13e
100
AcDbEntity
  8
Calque_1
 62
7
100
AcDbSpline
 70
8
 71
3
 72
8
 73
4
 74
0
 40
0
 40
0
 40
0
 40
0
 40
1
 40
1
 40
1
 40
1
 10
120.102960
 20
149.813760
 30
0.0
 10
119.339130
 20
149.152610
 30
0.0
 10
118.133190
 20
148.220120
 30
0.0
 10
117.423100
 20
147.741560
 30
0.0
  0
SPLINE
  5
13f
100
AcDbEntity
  8
Calque_1
 62
7
100
AcDbSpline
 70
8
 71
3
 72
8
 73
4
 74
0
 40
0
 40
0
 40
0
 40
0
 40
1
 40
1
 40
1
 40
1
 10
117.423100
 20
147.741560
 30
0.0
 10
116.713010
 20
147.262990
 30
0.0
 10
115.296200
 20
146.450430
 30
0.0
 10
114.274650
 20
145.935870
 30
0.0
  0
SPLINE
  5
140
100
AcDbEntity
  8
Calque_1
 62
7
100
AcDbSpline
 70
8
 71
3
 72
8
 73
4
 74
0
 40
0
 40
0
 40
0
 40
0
 40
1
 40
1
 40
1
 40
1
 10
114.274650
 20
145.935870
 30
0.0
 10
113.253090
 20
145.421310
 30
0.0
 10
111.694600
 20
144.770160
 30
0.0
 10
110.811340
 20
144.488880
 30
0.0
  0
SPLINE
  5
141
100
AcDbEntity
  8
Calque_1
 62
7
100
AcDbSpline
 70
8
 71
3
 72
8
 73
4
 74
0
 40
0
 40
0
 40
0
 40
0
 40
1
 40
1
 40
1
 40
1
 10
110.811340
 20
144.488880
 30
0.0
 10
109.928070
 20
144.207600
 30
0.0
 10
108.566180
 20
143.850030
 30
0.0
 10
107.784900
 20
143.694290
 30
0.0
  0
SPLINE
  5
142
100
AcDbEntity
  8
Calque_1
 62
7
100
AcDbSpline
 70
8
 71
3
 72
8
 73
4
 74
0
 40
0
 40
0
 40
0
 40
0
 40
1
 40
1
 40
1
 40
1
 10
107.784900
 20
143.694290
 30
0.0
 10
107.003620
 20
143.538540
 30
0.0
 10
105.445510
 20
143.331410
 30
0.0
 10
104.322420
 20
143.233990
 30
0.0
  0
SPLINE
  5
143
100
AcDbEntity
  8
Calque_1
 62
7
100
AcDbSpline
 70
8
 71
3
 72
8
 73
4
 74
0
 40
0
 40
0
 40
0
 40
0
 40
1
 40
1
 40
1
 40
1
 10
104.322420
 20
143.233990
 30
0.0
 10
103.199340
 20
143.136590
 30
0.0
 10
102.120640
 20
143.066810
 30
0.0
 10
101.925320
 20
143.078970
 30
0.0
  0
SPLINE
  5
144
100
AcDbEntity
  8
Calque_1
 62
7
100
AcDbSpline
 70
8
 71
3
 72
8
 73
4
 74
0
 40
0
 40
0
 40
0
 40
0
 40
1
 40
1
 40
1
 40
1
 10
101.925320
 20
143.078970
 30
0.0
 10
101.730000
 20
143.091070
 30
0.0
 10
100.930970
 20
143.167770
 30
0.0
 10
100.149690
 20
143.249250
 30
0.0
  0
SPLINE
  5
145
100
AcDbEntity
  8
Calque_1
 62
7
100
AcDbSpline
 70
8
 71
3
 72
8
 73
4
 74
0
 40
0
 40
0
 40
0
 40
0
 40
1
 40
1
 40
1
 40
1
 10
107.641840
 20
144.455380
 30
0.0
 10
108.539750
 20
144.652640
 30
0.0
 10
109.890190
 20
145.020750
 30
0.0
 10
110.642820
 20
145.273400
 30
0.0
  0
SPLINE
  5
146
100
AcDbEntity
  8
Calque_1
 62
7
100
AcDbSpline
 70
8
 71
3
 72
8
 73
4
 74
0
 40
0
 40
0
 40
0
 40
0
 40
1
 40
1
 40
1
 40
1
 10
110.642820
 20
145.273400
 30
0.0
 10
111.395450
 20
145.526050
 30
0.0
 10
112.659010
 20
146.041930
 30
0.0
 10
113.450730
 20
146.419800
 30
0.0
  0
SPLINE
  5
147
100
AcDbEntity
  8
Calque_1
 62
7
100
AcDbSpline
 70
8
 71
3
 72
8
 73
4
 74
0
 40
0
 40
0
 40
0
 40
0
 40
1
 40
1
 40
1
 40
1
 10
113.450730
 20
146.419800
 30
0.0
 10
114.242450
 20
146.797680
 30
0.0
 10
115.620150
 20
147.586140
 30
0.0
 10
116.512290
 20
148.171950
 30
0.0
  0
SPLINE
  5
148
100
AcDbEntity
  8
Calque_1
 62
7
100
AcDbSpline
 70
8
 71
3
 72
8
 73
4
 74
0
 40
0
 40
0
 40
0
 40
0
 40
1
 40
1
 40
1
 40
1
 10
116.512290
 20
148.171950
 30
0.0
 10
117.404420
 20
148.757760
 30
0.0
 10
118.777840
 20
149.804090
 30
0.0
 10
119.564330
 20
150.497130
 30
0.0
  0
SPLINE
  5
149
100
AcDbEntity
  8
Calque_1
 62
7
100
AcDbSpline
 70
8
 71
3
 72
8
 73
4
 74
0
 40
0
 40
0
 40
0
 40
0
 40
1
 40
1
 40
1
 40
1
 10
119.564330
 20
150.497130
 30
0.0
 10
120.350820
 20
151.190180
 30
0.0
 10
121.663520
 20
152.592540
 30
0.0
 10
122.481450
 20
153.613490
 30
0.0
  0
SPLINE
  5
14a
100
AcDbEntity
  8
Calque_1
 62
7
100
AcDbSpline
 70
8
 71
3
 72
8
 73
4
 74
0
 40
0
 40
0
 40
0
 40
0
 40
1
 40
1
 40
1
 40
1
 10
122.481450
 20
153.613490
 30
0.0
 10
123.299370
 20
154.634450
 30
0.0
 10
124.386050
 20
156.223350
 30
0.0
 10
124.896290
 20
157.144400
 30
0.0
  0
SPLINE
  5
14b
100
AcDbEntity
  8
Calque_1
 62
7
100
AcDbSpline
 70
8
 71
3
 72
8
 73
4
 74
0
 40
0
 40
0
 40
0
 40
0
 40
1
 40
1
 40
1
 40
1
 10
124.896290
 20
157.144400
 30
0.0
 10
125.406540
 20
158.065450
 30
0.0
 10
126.066160
 20
159.446810
 30
0.0
 10
126.362130
 20
160.214100
 30
0.0
  0
SPLINE
  5
14c
100
AcDbEntity
  8
Calque_1
 62
7
100
AcDbSpline
 70
8
 71
3
 72
8
 73
4
 74
0
 40
0
 40
0
 40
0
 40
0
 40
1
 40
1
 40
1
 40
1
 10
126.362130
 20
160.214100
 30
0.0
 10
126.658100
 20
160.981380
 30
0.0
 10
127.148830
 20
162.528050
 30
0.0
 10
127.452640
 20
163.651130
 30
0.0
  0
SPLINE
  5
14d
100
AcDbEntity
  8
Calque_1
 62
7
100
AcDbSpline
 70
8
 71
3
 72
8
 73
4
 74
0
 40
0
 40
0
 40
0
 40
0
 40
1
 40
1
 40
1
 40
1
 10
127.452640
 20
163.651130
 30
0.0
 10
127.988060
 20
165.630430
 30
0.0
 10
128.005320
 20
165.810290
 30
0.0
 10
128.015040
 20
169.510710
 30
0.0
  0
SPLINE
  5
14e
100
AcDbEntity
  8
Calque_1
 62
7
100
AcDbSpline
 70
8
 71
3
 72
8
 73
4
 74
0
 40
0
 40
0
 40
0
 40
0
 40
1
 40
1
 40
1
 40
1
 10
128.015040
 20
169.510710
 30
0.0
 10
128.022040
 20
172.094400
 30
0.0
 10
127.947940
 20
173.672660
 30
0.0
 10
127.786440
 20
174.393690
 30
0.0
  0
SPLINE
  5
14f
100
AcDbEntity
  8
Calque_1
 62
7
100
AcDbSpline
 70
8
 71
3
 72
8
 73
4
 74
0
 40
0
 40
0
 40
0
 40
0
 40
1
 40
1
 40
1
 40
1
 10
127.786440
 20
174.393690
 30
0.0
 10
127.655200
 20
174.979650
 30
0.0
 10
127.266230
 20
176.338000
 30
0.0
 10
126.922060
 20
177.412260
 30
0.0
  0
SPLINE
  5
150
100
AcDbEntity
  8
Calque_1
 62
7
100
AcDbSpline
 70
8
 71
3
 72
8
 73
4
 74
0
 40
0
 40
0
 40
0
 40
0
 40
1
 40
1
 40
1
 40
1
 10
126.922060
 20
177.412260
 30
0.0
 10
126.577890
 20
178.486510
 30
0.0
 10
125.953950
 20
180.048400
 30
0.0
 10
125.535530
 20
180.883120
 30
0.0
  0
SPLINE
  5
151
100
AcDbEntity
  8
Calque_1
 62
7
100
AcDbSpline
 70
8
 71
3
 72
8
 73
4
 74
0
 40
0
 40
0
 40
0
 40
0
 40
1
 40
1
 40
1
 40
1
 10
125.535530
 20
180.883120
 30
0.0
 10
125.117110
 20
181.717830
 30
0.0
 10
124.294660
 20
183.116140
 30
0.0
 10
123.707870
 20
183.990470
 30
0.0
  0
SPLINE
  5
152
100
AcDbEntity
  8
Calque_1
 62
7
100
AcDbSpline
 70
8
 71
3
 72
8
 73
4
 74
0
 40
0
 40
0
 40
0
 40
0
 40
1
 40
1
 40
1
 40
1
 10
123.707870
 20
183.990470
 30
0.0
 10
123.121090
 20
184.864800
 30
0.0
 10
122.055030
 20
186.214710
 30
0.0
 10
121.338860
 20
186.990290
 30
0.0
  0
SPLINE
  5
153
100
AcDbEntity
  8
Calque_1
 62
7
100
AcDbSpline
 70
8
 71
3
 72
8
 73
4
 74
0
 40
0
 40
0
 40
0
 40
0
 40
1
 40
1
 40
1
 40
1
 10
121.338860
 20
186.990290
 30
0.0
 10
120.622700
 20
187.765870
 30
0.0
 10
119.225030
 20
189.044320
 30
0.0
 10
118.232930
 20
189.831290
 30
0.0
  0
SPLINE
  5
154
100
AcDbEntity
  8
Calque_1
 62
7
100
AcDbSpline
 70
8
 71
3
 72
8
 73
4
 74
0
 40
0
 40
0
 40
0
 40
0
 40
1
 40
1
 40
1
 40
1
 10
118.232930
 20
189.831290
 30
0.0
 10
117.240840
 20
190.618270
 30
0.0
 10
115.983970
 20
191.530630
 30
0.0
 10
115.439880
 20
191.858750
 30
0.0
  0
LWPOLYLINE
  5
155
100
AcDbEntity
  8
Calque_1
 62
7
100
AcDbPolyline
 90
1
 70
1
 10
100.149690
 20
143.249250
 30
0.0
  0
SPLINE
  5
156
100
AcDbEntity
  8
Calque_1
 62
7
100
AcDbSpline
 70
8
 71
3
 72
8
 73
4
 74
0
 40
0
 40
0
 40
0
 40
0
 40
1
 40
1
 40
1
 40
1
 10
113.603640
 20
191.756090
 30
0.0
 10
113.137800
 20
191.371500
 30
0.0
 10
112.397100
 20
190.814150
 30
0.0
 10
111.957630
 20
190.517520
 30
0.0
  0
SPLINE
  5
157
100
AcDbEntity
  8
Calque_1
 62
7
100
AcDbSpline
 70
8
 71
3
 72
8
 73
4
 74
0
 40
0
 40
0
 40
0
 40
0
 40
1
 40
1
 40
1
 40
1
 10
111.957630
 20
190.517520
 30
0.0
 10
111.518160
 20
190.220900
 30
0.0
 10
110.719130
 20
189.756190
 30
0.0
 10
110.182000
 20
189.484830
 30
0.0
  0
SPLINE
  5
158
100
AcDbEntity
  8
Calque_1
 62
7
100
AcDbSpline
 70
8
 71
3
 72
8
 73
4
 74
0
 40
0
 40
0
 40
0
 40
0
 40
1
 40
1
 40
1
 40
1
 10
110.182000
 20
189.484830
 30
0.0
 10
109.644870
 20
189.213470
 30
0.0
 10
108.672880
 20
188.810280
 30
0.0
 10
108.022030
 20
188.588870
 30
0.0
  0
SPLINE
  5
159
100
AcDbEntity
  8
Calque_1
 62
7
100
AcDbSpline
 70
8
 71
3
 72
8
 73
4
 74
0
 40
0
 40
0
 40
0
 40
0
 40
1
 40
1
 40
1
 40
1
 10
108.022030
 20
188.588870
 30
0.0
 10
107.371170
 20
188.367440
 30
0.0
 10
106.372380
 20
188.084850
 30
0.0
 10
105.802490
 20
187.960870
 30
0.0
  0
LWPOLYLINE
  5
15a
100
AcDbEntity
  8
Calque_1
 62
7
100
AcDbPolyline
 90
2
 70
0
 10
115.439880
 20
191.858750
 30
0.0
 10
113.603640
 20
191.756090
 30
0.0
  0
SPLINE
  5
15b
100
AcDbEntity
  8
Calque_1
 62
7
100
AcDbSpline
 70
8
 71
3
 72
8
 73
4
 74
0
 40
0
 40
0
 40
0
 40
0
 40
1
 40
1
 40
1
 40
1
 10
105.632470
 20
187.601470
 30
0.0
 10
106.108850
 20
187.527770
 30
0.0
 10
107.147590
 20
187.252890
 30
0.0
 10
107.940790
 20
186.990600
 30
0.0
  0
SPLINE
  5
15c
100
AcDbEntity
  8
Calque_1
 62
7
100
AcDbSpline
 70
8
 71
3
 72
8
 73
4
 74
0
 40
0
 40
0
 40
0
 40
0
 40
1
 40
1
 40
1
 40
1
 10
107.940790
 20
186.990600
 30
0.0
 10
108.733990
 20
186.728320
 30
0.0
 10
109.862380
 20
186.273480
 30
0.0
 10
110.448340
 20
185.979850
 30
0.0
  0
SPLINE
  5
15d
100
AcDbEntity
  8
Calque_1
 62
7
100
AcDbSpline
 70
8
 71
3
 72
8
 73
4
 74
0
 40
0
 40
0
 40
0
 40
0
 40
1
 40
1
 40
1
 40
1
 10
110.448340
 20
185.979850
 30
0.0
 10
111.034300
 20
185.686220
 30
0.0
 10
112.073040
 20
185.085750
 30
0.0
 10
112.756660
 20
184.645460
 30
0.0
  0
SPLINE
  5
15e
100
AcDbEntity
  8
Calque_1
 62
7
100
AcDbSpline
 70
8
 71
3
 72
8
 73
4
 74
0
 40
0
 40
0
 40
0
 40
0
 40
1
 40
1
 40
1
 40
1
 10
112.756660
 20
184.645460
 30
0.0
 10
113.440280
 20
184.205160
 30
0.0
 10
114.603260
 20
183.236550
 30
0.0
 10
115.341060
 20
182.493000
 30
0.0
  0
SPLINE
  5
15f
100
AcDbEntity
  8
Calque_1
 62
7
100
AcDbSpline
 70
8
 71
3
 72
8
 73
4
 74
0
 40
0
 40
0
 40
0
 40
0
 40
1
 40
1
 40
1
 40
1
 10
115.341060
 20
182.493000
 30
0.0
 10
116.078870
 20
181.749440
 30
0.0
 10
117.066880
 20
180.557180
 30
0.0
 10
117.536650
 20
179.843520
 30
0.0
  0
SPLINE
  5
160
100
AcDbEntity
  8
Calque_1
 62
7
100
AcDbSpline
 70
8
 71
3
 72
8
 73
4
 74
0
 40
0
 40
0
 40
0
 40
0
 40
1
 40
1
 40
1
 40
1
 10
117.536650
 20
179.843520
 30
0.0
 10
118.006410
 20
179.129860
 30
0.0
 10
118.782660
 20
177.642530
 30
0.0
 10
119.261630
 20
176.538340
 30
0.0
  0
SPLINE
  5
161
100
AcDbEntity
  8
Calque_1
 62
7
100
AcDbSpline
 70
8
 71
3
 72
8
 73
4
 74
0
 40
0
 40
0
 40
0
 40
0
 40
1
 40
1
 40
1
 40
1
 10
119.261630
 20
176.538340
 30
0.0
 10
119.935360
 20
174.985170
 30
0.0
 10
120.176520
 20
174.173560
 30
0.0
 10
120.326960
 20
172.952920
 30
0.0
  0
SPLINE
  5
162
100
AcDbEntity
  8
Calque_1
 62
7
100
AcDbSpline
 70
8
 71
3
 72
8
 73
4
 74
0
 40
0
 40
0
 40
0
 40
0
 40
1
 40
1
 40
1
 40
1
 10
120.326960
 20
172.952920
 30
0.0
 10
120.435650
 20
172.071120
 30
0.0
 10
120.482520
 20
170.121890
 30
0.0
 10
120.433230
 20
168.534110
 30
0.0
  0
SPLINE
  5
163
100
AcDbEntity
  8
Calque_1
 62
7
100
AcDbSpline
 70
8
 71
3
 72
8
 73
4
 74
0
 40
0
 40
0
 40
0
 40
0
 40
1
 40
1
 40
1
 40
1
 10
120.433230
 20
168.534110
 30
0.0
 10
120.362630
 20
166.261000
 30
0.0
 10
120.266150
 20
165.446160
 30
0.0
 10
119.950410
 20
164.457680
 30
0.0
  0
SPLINE
  5
164
100
AcDbEntity
  8
Calque_1
 62
7
100
AcDbSpline
 70
8
 71
3
 72
8
 73
4
 74
0
 40
0
 40
0
 40
0
 40
0
 40
1
 40
1
 40
1
 40
1
 10
119.950410
 20
164.457680
 30
0.0
 10
119.733360
 20
163.778200
 30
0.0
 10
119.257240
 20
162.579650
 30
0.0
 10
118.892360
 20
161.794240
 30
0.0
  0
SPLINE
  5
165
100
AcDbEntity
  8
Calque_1
 62
7
100
AcDbSpline
 70
8
 71
3
 72
8
 73
4
 74
0
 40
0
 40
0
 40
0
 40
0
 40
1
 40
1
 40
1
 40
1
 10
118.892360
 20
161.794240
 30
0.0
 10
118.527470
 20
161.008830
 30
0.0
 10
117.922690
 20
159.966700
 30
0.0
 10
117.548380
 20
159.478400
 30
0.0
  0
SPLINE
  5
166
100
AcDbEntity
  8
Calque_1
 62
7
100
AcDbSpline
 70
8
 71
3
 72
8
 73
4
 74
0
 40
0
 40
0
 40
0
 40
0
 40
1
 40
1
 40
1
 40
1
 10
117.548380
 20
159.478400
 30
0.0
 10
117.174080
 20
158.990100
 30
0.0
 10
116.462190
 20
158.125190
 30
0.0
 10
115.966410
 20
157.556360
 30
0.0
  0
SPLINE
  5
167
100
AcDbEntity
  8
Calque_1
 62
7
100
AcDbSpline
 70
8
 71
3
 72
8
 73
4
 74
0
 40
0
 40
0
 40
0
 40
0
 40
1
 40
1
 40
1
 40
1
 10
115.966410
 20
157.556360
 30
0.0
 10
115.470620
 20
156.987540
 30
0.0
 10
114.509340
 20
156.048350
 30
0.0
 10
113.830230
 20
155.469280
 30
0.0
  0
SPLINE
  5
168
100
AcDbEntity
  8
Calque_1
 62
7
100
AcDbSpline
 70
8
 71
3
 72
8
 73
4
 74
0
 40
0
 40
0
 40
0
 40
0
 40
1
 40
1
 40
1
 40
1
 10
113.830230
 20
155.469280
 30
0.0
 10
113.151130
 20
154.890210
 30
0.0
 10
111.904990
 20
154.059790
 30
0.0
 10
111.061040
 20
153.623910
 30
0.0
  0
SPLINE
  5
169
100
AcDbEntity
  8
Calque_1
 62
7
100
AcDbSpline
 70
8
 71
3
 72
8
 73
4
 74
0
 40
0
 40
0
 40
0
 40
0
 40
1
 40
1
 40
1
 40
1
 10
111.061040
 20
153.623910
 30
0.0
 10
110.217080
 20
153.188030
 30
0.0
 10
108.815090
 20
152.594560
 30
0.0
 10
107.945490
 20
152.305090
 30
0.0
  0
SPLINE
  5
16a
100
AcDbEntity
  8
Calque_1
 62
7
100
AcDbSpline
 70
8
 71
3
 72
8
 73
4
 74
0
 40
0
 40
0
 40
0
 40
0
 40
1
 40
1
 40
1
 40
1
 10
107.945490
 20
152.305090
 30
0.0
 10
107.055580
 20
152.008860
 30
0.0
 10
105.550440
 20
151.685510
 30
0.0
 10
104.502460
 20
151.565420
 30
0.0
  0
SPLINE
  5
16b
100
AcDbEntity
  8
Calque_1
 62
7
100
AcDbSpline
 70
8
 71
3
 72
8
 73
4
 74
0
 40
0
 40
0
 40
0
 40
0
 40
1
 40
1
 40
1
 40
1
 10
104.502460
 20
151.565420
 30
0.0
 10
103.467380
 20
151.446810
 30
0.0
 10
101.969180
 20
151.401370
 30
0.0
 10
101.128770
 20
151.463100
 30
0.0
  0
SPLINE
  5
16c
100
AcDbEntity
  8
Calque_1
 62
7
100
AcDbSpline
 70
8
 71
3
 72
8
 73
4
 74
0
 40
0
 40
0
 40
0
 40
0
 40
1
 40
1
 40
1
 40
1
 10
101.128770
 20
151.463100
 30
0.0
 10
100.297300
 20
151.524200
 30
0.0
 10
98.937831
 20
151.738030
 30
0.0
 10
98.107721
 20
151.938350
 30
0.0
  0
SPLINE
  5
16d
100
AcDbEntity
  8
Calque_1
 62
7
100
AcDbSpline
 70
8
 71
3
 72
8
 73
4
 74
0
 40
0
 40
0
 40
0
 40
0
 40
1
 40
1
 40
1
 40
1
 10
98.107721
 20
151.938350
 30
0.0
 10
97.277611
 20
152.138660
 30
0.0
 10
95.762501
 20
152.701780
 30
0.0
 10
94.740801
 20
153.189710
 30
0.0
  0
SPLINE
  5
16e
100
AcDbEntity
  8
Calque_1
 62
7
100
AcDbSpline
 70
8
 71
3
 72
8
 73
4
 74
0
 40
0
 40
0
 40
0
 40
0
 40
1
 40
1
 40
1
 40
1
 10
94.740801
 20
153.189710
 30
0.0
 10
93.719101
 20
153.677650
 30
0.0
 10
92.463951
 20
154.393380
 30
0.0
 10
91.951571
 20
154.780230
 30
0.0
  0
SPLINE
  5
16f
100
AcDbEntity
  8
Calque_1
 62
7
100
AcDbSpline
 70
8
 71
3
 72
8
 73
4
 74
0
 40
0
 40
0
 40
0
 40
0
 40
1
 40
1
 40
1
 40
1
 10
91.951571
 20
154.780230
 30
0.0
 10
91.439201
 20
155.167070
 30
0.0
 10
90.329651
 20
156.178590
 30
0.0
 10
89.485921
 20
157.028040
 30
0.0
  0
SPLINE
  5
170
100
AcDbEntity
  8
Calque_1
 62
7
100
AcDbSpline
 70
8
 71
3
 72
8
 73
4
 74
0
 40
0
 40
0
 40
0
 40
0
 40
1
 40
1
 40
1
 40
1
 10
89.485921
 20
157.028040
 30
0.0
 10
88.642191
 20
157.877480
 30
0.0
 10
87.651141
 20
159.016030
 30
0.0
 10
87.283581
 20
159.558130
 30
0.0
  0
SPLINE
  5
171
100
AcDbEntity
  8
Calque_1
 62
7
100
AcDbSpline
 70
8
 71
3
 72
8
 73
4
 74
0
 40
0
 40
0
 40
0
 40
0
 40
1
 40
1
 40
1
 40
1
 10
87.283581
 20
159.558130
 30
0.0
 10
86.916021
 20
160.100240
 30
0.0
 10
86.402601
 20
160.964300
 30
0.0
 10
86.142651
 20
161.478280
 30
0.0
  0
SPLINE
  5
172
100
AcDbEntity
  8
Calque_1
 62
7
100
AcDbSpline
 70
8
 71
3
 72
8
 73
4
 74
0
 40
0
 40
0
 40
0
 40
0
 40
1
 40
1
 40
1
 40
1
 10
86.142651
 20
161.478280
 30
0.0
 10
85.882701
 20
161.992250
 30
0.0
 10
85.436261
 20
163.110900
 30
0.0
 10
85.150571
 20
163.964160
 30
0.0
  0
SPLINE
  5
173
100
AcDbEntity
  8
Calque_1
 62
7
100
AcDbSpline
 70
8
 71
3
 72
8
 73
4
 74
0
 40
0
 40
0
 40
0
 40
0
 40
1
 40
1
 40
1
 40
1
 10
85.150571
 20
163.964160
 30
0.0
 10
84.819591
 20
164.952650
 30
0.0
 10
84.559301
 20
166.235080
 30
0.0
 10
84.433161
 20
167.498650
 30
0.0
  0
SPLINE
  5
174
100
AcDbEntity
  8
Calque_1
 62
7
100
AcDbSpline
 70
8
 71
3
 72
8
 73
4
 74
0
 40
0
 40
0
 40
0
 40
0
 40
1
 40
1
 40
1
 40
1
 10
84.433161
 20
167.498650
 30
0.0
 10
84.289801
 20
168.934740
 30
0.0
 10
84.287931
 20
170.048530
 30
0.0
 10
84.426161
 20
171.536430
 30
0.0
  0
SPLINE
  5
175
100
AcDbEntity
  8
Calque_1
 62
7
100
AcDbSpline
 70
8
 71
3
 72
8
 73
4
 74
0
 40
0
 40
0
 40
0
 40
0
 40
1
 40
1
 40
1
 40
1
 10
84.426161
 20
171.536430
 30
0.0
 10
84.540051
 20
172.760290
 30
0.0
 10
84.804401
 20
174.184140
 30
0.0
 10
85.079931
 20
175.057770
 30
0.0
  0
SPLINE
  5
176
100
AcDbEntity
  8
Calque_1
 62
7
100
AcDbSpline
 70
8
 71
3
 72
8
 73
4
 74
0
 40
0
 40
0
 40
0
 40
0
 40
1
 40
1
 40
1
 40
1
 10
85.079931
 20
175.057770
 30
0.0
 10
85.334341
 20
175.864440
 30
0.0
 10
85.823551
 20
177.083770
 30
0.0
 10
86.167071
 20
177.767380
 30
0.0
  0
SPLINE
  5
177
100
AcDbEntity
  8
Calque_1
 62
7
100
AcDbSpline
 70
8
 71
3
 72
8
 73
4
 74
0
 40
0
 40
0
 40
0
 40
0
 40
1
 40
1
 40
1
 40
1
 10
86.167071
 20
177.767380
 30
0.0
 10
86.510591
 20
178.451000
 30
0.0
 10
87.114321
 20
179.489750
 30
0.0
 10
87.508701
 20
180.075700
 30
0.0
  0
SPLINE
  5
178
100
AcDbEntity
  8
Calque_1
 62
7
100
AcDbSpline
 70
8
 71
3
 72
8
 73
4
 74
0
 40
0
 40
0
 40
0
 40
0
 40
1
 40
1
 40
1
 40
1
 10
87.508701
 20
180.075700
 30
0.0
 10
87.903081
 20
180.661660
 30
0.0
 10
88.831101
 20
181.746430
 30
0.0
 10
89.570961
 20
182.486300
 30
0.0
  0
SPLINE
  5
179
100
AcDbEntity
  8
Calque_1
 62
7
100
AcDbSpline
 70
8
 71
3
 72
8
 73
4
 74
0
 40
0
 40
0
 40
0
 40
0
 40
1
 40
1
 40
1
 40
1
 10
89.570961
 20
182.486300
 30
0.0
 10
90.310831
 20
183.226170
 30
0.0
 10
91.426061
 20
184.175120
 30
0.0
 10
92.049241
 20
184.595090
 30
0.0
  0
SPLINE
  5
17a
100
AcDbEntity
  8
Calque_1
 62
7
100
AcDbSpline
 70
8
 71
3
 72
8
 73
4
 74
0
 40
0
 40
0
 40
0
 40
0
 40
1
 40
1
 40
1
 40
1
 10
92.049241
 20
184.595090
 30
0.0
 10
92.672421
 20
185.015060
 30
0.0
 10
93.831021
 20
185.661620
 30
0.0
 10
94.623901
 20
186.031900
 30
0.0
  0
SPLINE
  5
17b
100
AcDbEntity
  8
Calque_1
 62
7
100
AcDbSpline
 70
8
 71
3
 72
8
 73
4
 74
0
 40
0
 40
0
 40
0
 40
0
 40
1
 40
1
 40
1
 40
1
 10
94.623901
 20
186.031900
 30
0.0
 10
95.416781
 20
186.402180
 30
0.0
 10
96.603161
 20
186.877890
 30
0.0
 10
97.260291
 20
187.089030
 30
0.0
  0
SPLINE
  5
17c
100
AcDbEntity
  8
Calque_1
 62
7
100
AcDbSpline
 70
8
 71
3
 72
8
 73
4
 74
0
 40
0
 40
0
 40
0
 40
0
 40
1
 40
1
 40
1
 40
1
 10
97.260291
 20
187.089030
 30
0.0
 10
97.917421
 20
187.300170
 30
0.0
 10
98.836311
 20
187.531730
 30
0.0
 10
99.302261
 20
187.603610
 30
0.0
  0
LWPOLYLINE
  5
17d
100
AcDbEntity
  8
Calque_1
 62
7
100
AcDbPolyline
 90
2
 70
0
 10
105.802490
 20
187.960870
 30
0.0
 10
105.632470
 20
187.601470
 30
0.0
  0
SPLINE
  5
17e
100
AcDbEntity
  8
Calque_1
 62
7
100
AcDbSpline
 70
8
 71
3
 72
8
 73
4
 74
0
 40
0
 40
0
 40
0
 40
0
 40
1
 40
1
 40
1
 40
1
 10
99.350461
 20
187.875890
 30
0.0
 10
98.910991
 20
187.953790
 30
0.0
 10
97.912201
 20
188.217570
 30
0.0
 10
97.130921
 20
188.462130
 30
0.0
  0
SPLINE
  5
17f
100
AcDbEntity
  8
Calque_1
 62
7
100
AcDbSpline
 70
8
 71
3
 72
8
 73
4
 74
0
 40
0
 40
0
 40
0
 40
0
 40
1
 40
1
 40
1
 40
1
 10
97.130921
 20
188.462130
 30
0.0
 10
96.349651
 20
188.706690
 30
0.0
 10
95.231001
 20
189.147730
 30
0.0
 10
94.645041
 20
189.442220
 30
0.0
  0
SPLINE
  5
180
100
AcDbEntity
  8
Calque_1
 62
7
100
AcDbSpline
 70
8
 71
3
 72
8
 73
4
 74
0
 40
0
 40
0
 40
0
 40
0
 40
1
 40
1
 40
1
 40
1
 10
94.645041
 20
189.442220
 30
0.0
 10
94.059091
 20
189.736700
 30
0.0
 10
93.220101
 20
190.220460
 30
0.0
 10
92.780631
 20
190.517240
 30
0.0
  0
SPLINE
  5
181
100
AcDbEntity
  8
Calque_1
 62
7
100
AcDbSpline
 70
8
 71
3
 72
8
 73
4
 74
0
 40
0
 40
0
 40
0
 40
0
 40
1
 40
1
 40
1
 40
1
 10
92.780631
 20
190.517240
 30
0.0
 10
92.341161
 20
190.814020
 30
0.0
 10
91.612471
 20
191.361440
 30
0.0
 10
91.161311
 20
191.733740
 30
0.0
  0
LWPOLYLINE
  5
182
100
AcDbEntity
  8
Calque_1
 62
7
100
AcDbPolyline
 90
2
 70
0
 10
99.302261
 20
187.603610
 30
0.0
 10
99.350461
 20
187.875890
 30
0.0
  0
SPLINE
  5
183
100
AcDbEntity
  8
Calque_1
 62
7
100
AcDbSpline
 70
8
 71
3
 72
8
 73
4
 74
0
 40
0
 40
0
 40
0
 40
0
 40
1
 40
1
 40
1
 40
1
 10
89.216771
 20
191.684040
 30
0.0
 10
88.598421
 20
191.284380
 30
0.0
 10
87.449391
 20
190.467960
 30
0.0
 10
86.663361
 20
189.869760
 30
0.0
  0
SPLINE
  5
184
100
AcDbEntity
  8
Calque_1
 62
7
100
AcDbSpline
 70
8
 71
3
 72
8
 73
4
 74
0
 40
0
 40
0
 40
0
 40
0
 40
1
 40
1
 40
1
 40
1
 10
86.663361
 20
189.869760
 30
0.0
 10
85.877321
 20
189.271570
 30
0.0
 10
84.723611
 20
188.261450
 30
0.0
 10
84.099551
 20
187.625070
 30
0.0
  0
SPLINE
  5
185
100
AcDbEntity
  8
Calque_1
 62
7
100
AcDbSpline
 70
8
 71
3
 72
8
 73
4
 74
0
 40
0
 40
0
 40
0
 40
0
 40
1
 40
1
 40
1
 40
1
 10
84.099551
 20
187.625070
 30
0.0
 10
83.475491
 20
186.988680
 30
0.0
 10
82.543351
 20
185.908670
 30
0.0
 10
82.028131
 20
185.225070
 30
0.0
  0
SPLINE
  5
186
100
AcDbEntity
  8
Calque_1
 62
7
100
AcDbSpline
 70
8
 71
3
 72
8
 73
4
 74
0
 40
0
 40
0
 40
0
 40
0
 40
1
 40
1
 40
1
 40
1
 10
82.028131
 20
185.225070
 30
0.0
 10
81.512911
 20
184.541450
 30
0.0
 10
80.722671
 20
183.356490
 30
0.0
 10
80.272031
 20
182.591830
 30
0.0
  0
SPLINE
  5
187
100
AcDbEntity
  8
Calque_1
 62
7
100
AcDbSpline
 70
8
 71
3
 72
8
 73
4
 74
0
 40
0
 40
0
 40
0
 40
0
 40
1
 40
1
 40
1
 40
1
 10
80.272031
 20
182.591830
 30
0.0
 10
79.821391
 20
181.827170
 30
0.0
 10
79.105661
 20
180.388910
 30
0.0
 10
78.681511
 20
179.395700
 30
0.0
  0
SPLINE
  5
188
100
AcDbEntity
  8
Calque_1
 62
7
100
AcDbSpline
 70
8
 71
3
 72
8
 73
4
 74
0
 40
0
 40
0
 40
0
 40
0
 40
1
 40
1
 40
1
 40
1
 10
78.681511
 20
179.395700
 30
0.0
 10
78.257361
 20
178.402490
 30
0.0
 10
77.742721
 20
176.910680
 30
0.0
 10
77.537871
 20
176.080580
 30
0.0
  0
SPLINE
  5
189
100
AcDbEntity
  8
Calque_1
 62
7
100
AcDbSpline
 70
8
 71
3
 72
8
 73
4
 74
0
 40
0
 40
0
 40
0
 40
0
 40
1
 40
1
 40
1
 40
1
 10
77.537871
 20
176.080580
 30
0.0
 10
77.333021
 20
175.250470
 30
0.0
 10
77.087661
 20
174.051920
 30
0.0
 10
76.992631
 20
173.417130
 30
0.0
  0
SPLINE
  5
18a
100
AcDbEntity
  8
Calque_1
 62
7
100
AcDbSpline
 70
8
 71
3
 72
8
 73
4
 74
0
 40
0
 40
0
 40
0
 40
0
 40
1
 40
1
 40
1
 40
1
 10
76.992631
 20
173.417130
 30
0.0
 10
76.897631
 20
172.782350
 30
0.0
 10
76.768021
 20
171.623750
 30
0.0
 10
76.704691
 20
170.842470
 30
0.0
  0
SPLINE
  5
18b
100
AcDbEntity
  8
Calque_1
 62
7
100
AcDbSpline
 70
8
 71
3
 72
8
 73
4
 74
0
 40
0
 40
0
 40
0
 40
0
 40
1
 40
1
 40
1
 40
1
 10
76.704691
 20
170.842470
 30
0.0
 10
76.641391
 20
170.061190
 30
0.0
 10
76.679191
 20
168.582980
 30
0.0
 10
76.788791
 20
167.557560
 30
0.0
  0
SPLINE
  5
18c
100
AcDbEntity
  8
Calque_1
 62
7
100
AcDbSpline
 70
8
 71
3
 72
8
 73
4
 74
0
 40
0
 40
0
 40
0
 40
0
 40
1
 40
1
 40
1
 40
1
 10
76.788791
 20
167.557560
 30
0.0
 10
76.898361
 20
166.532130
 30
0.0
 10
77.233151
 20
164.697570
 30
0.0
 10
77.532761
 20
163.480760
 30
0.0
  0
SPLINE
  5
18d
100
AcDbEntity
  8
Calque_1
 62
7
100
AcDbSpline
 70
8
 71
3
 72
8
 73
4
 74
0
 40
0
 40
0
 40
0
 40
0
 40
1
 40
1
 40
1
 40
1
 10
77.532761
 20
163.480760
 30
0.0
 10
77.832381
 20
162.263950
 30
0.0
 10
78.380301
 20
160.566070
 30
0.0
 10
78.750371
 20
159.707700
 30
0.0
  0
SPLINE
  5
18e
100
AcDbEntity
  8
Calque_1
 62
7
100
AcDbSpline
 70
8
 71
3
 72
8
 73
4
 74
0
 40
0
 40
0
 40
0
 40
0
 40
1
 40
1
 40
1
 40
1
 10
78.750371
 20
159.707700
 30
0.0
 10
79.120441
 20
158.849320
 30
0.0
 10
79.757471
 20
157.562820
 30
0.0
 10
80.166001
 20
156.848800
 30
0.0
  0
SPLINE
  5
18f
100
AcDbEntity
  8
Calque_1
 62
7
100
AcDbSpline
 70
8
 71
3
 72
8
 73
4
 74
0
 40
0
 40
0
 40
0
 40
0
 40
1
 40
1
 40
1
 40
1
 10
80.166001
 20
156.848800
 30
0.0
 10
80.574521
 20
156.134790
 30
0.0
 10
81.316161
 20
154.996100
 30
0.0
 10
81.814061
 20
154.318380
 30
0.0
  0
SPLINE
  5
190
100
AcDbEntity
  8
Calque_1
 62
7
100
AcDbSpline
 70
8
 71
3
 72
8
 73
4
 74
0
 40
0
 40
0
 40
0
 40
0
 40
1
 40
1
 40
1
 40
1
 10
81.814061
 20
154.318380
 30
0.0
 10
82.311971
 20
153.640670
 30
0.0
 10
83.529011
 20
152.287140
 30
0.0
 10
84.518601
 20
151.310550
 30
0.0
  0
SPLINE
  5
191
100
AcDbEntity
  8
Calque_1
 62
7
100
AcDbSpline
 70
8
 71
3
 72
8
 73
4
 74
0
 40
0
 40
0
 40
0
 40
0
 40
1
 40
1
 40
1
 40
1
 10
84.518601
 20
151.310550
 30
0.0
 10
85.508181
 20
150.333950
 30
0.0
 10
86.996531
 20
149.079070
 30
0.0
 10
87.826041
 20
148.521920
 30
0.0
  0
SPLINE
  5
192
100
AcDbEntity
  8
Calque_1
 62
7
100
AcDbSpline
 70
8
 71
3
 72
8
 73
4
 74
0
 40
0
 40
0
 40
0
 40
0
 40
1
 40
1
 40
1
 40
1
 10
87.826041
 20
148.521920
 30
0.0
 10
88.655551
 20
147.964770
 30
0.0
 10
90.409321
 20
146.994000
 30
0.0
 10
91.723311
 20
146.364650
 30
0.0
  0
SPLINE
  5
193
100
AcDbEntity
  8
Calque_1
 62
7
100
AcDbSpline
 70
8
 71
3
 72
8
 73
4
 74
0
 40
0
 40
0
 40
0
 40
0
 40
1
 40
1
 40
1
 40
1
 10
91.723311
 20
146.364650
 30
0.0
 10
93.037311
 20
145.735310
 30
0.0
 10
94.766511
 20
145.049990
 30
0.0
 10
95.565981
 20
144.841720
 30
0.0
  0
SPLINE
  5
194
100
AcDbEntity
  8
Calque_1
 62
7
100
AcDbSpline
 70
8
 71
3
 72
8
 73
4
 74
0
 40
0
 40
0
 40
0
 40
0
 40
1
 40
1
 40
1
 40
1
 10
95.565981
 20
144.841720
 30
0.0
 10
96.365451
 20
144.633450
 30
0.0
 10
97.723811
 20
144.348200
 30
0.0
 10
98.584551
 20
144.207820
 30
0.0
  0
SPLINE
  5
195
100
AcDbEntity
  8
Calque_1
 62
7
100
AcDbSpline
 70
8
 71
3
 72
8
 73
4
 74
0
 40
0
 40
0
 40
0
 40
0
 40
1
 40
1
 40
1
 40
1
 10
98.584551
 20
144.207820
 30
0.0
 10
99.664181
 20
144.031750
 30
0.0
 10
101.058160
 20
143.974950
 30
0.0
 10
103.079320
 20
144.024680
 30
0.0
  0
SPLINE
  5
196
100
AcDbEntity
  8
Calque_1
 62
7
100
AcDbSpline
 70
8
 71
3
 72
8
 73
4
 74
0
 40
0
 40
0
 40
0
 40
0
 40
1
 40
1
 40
1
 40
1
 10
103.079320
 20
144.024680
 30
0.0
 10
105.129880
 20
144.075080
 30
0.0
 10
106.499040
 20
144.204400
 30
0.0
 10
107.641680
 20
144.455420
 30
0.0
  0
LWPOLYLINE
  5
197
100
AcDbEntity
  8
Calque_1
 62
7
100
AcDbPolyline
 90
2
 70
0
 10
91.161311
 20
191.733740
 30
0.0
 10
89.216771
 20
191.684040
 30
0.0
  0
SPLINE
  5
198
100
AcDbEntity
  8
Calque_1
 62
7
100
AcDbSpline
 70
8
 71
3
 72
8
 73
4
 74
0
 40
0
 40
0
 40
0
 40
0
 40
1
 40
1
 40
1
 40
1
 10
104.943890
 20
152.293620
 30
0.0
 10
105.627510
 20
152.391020
 30
0.0
 10
106.826060
 20
152.680380
 30
0.0
 10
107.607340
 20
152.936690
 30
0.0
  0
SPLINE
  5
199
100
AcDbEntity
  8
Calque_1
 62
7
100
AcDbSpline
 70
8
 71
3
 72
8
 73
4
 74
0
 40
0
 40
0
 40
0
 40
0
 40
1
 40
1
 40
1
 40
1
 10
107.607340
 20
152.936690
 30
0.0
 10
108.388610
 20
153.193010
 30
0.0
 10
109.627110
 20
153.701920
 30
0.0
 10
110.359560
 20
154.067600
 30
0.0
  0
SPLINE
  5
19a
100
AcDbEntity
  8
Calque_1
 62
7
100
AcDbSpline
 70
8
 71
3
 72
8
 73
4
 74
0
 40
0
 40
0
 40
0
 40
0
 40
1
 40
1
 40
1
 40
1
 10
110.359560
 20
154.067600
 30
0.0
 10
111.092010
 20
154.433290
 30
0.0
 10
112.188590
 20
155.106360
 30
0.0
 10
112.796400
 20
155.563320
 30
0.0
  0
SPLINE
  5
19b
100
AcDbEntity
  8
Calque_1
 62
7
100
AcDbSpline
 70
8
 71
3
 72
8
 73
4
 74
0
 40
0
 40
0
 40
0
 40
0
 40
1
 40
1
 40
1
 40
1
 10
112.796400
 20
155.563320
 30
0.0
 10
113.404220
 20
156.020290
 30
0.0
 10
114.506570
 20
157.045440
 30
0.0
 10
115.246060
 20
157.841430
 30
0.0
  0
SPLINE
  5
19c
100
AcDbEntity
  8
Calque_1
 62
7
100
AcDbSpline
 70
8
 71
3
 72
8
 73
4
 74
0
 40
0
 40
0
 40
0
 40
0
 40
1
 40
1
 40
1
 40
1
 10
115.246060
 20
157.841430
 30
0.0
 10
115.985560
 20
158.637430
 30
0.0
 10
116.881200
 20
159.726510
 30
0.0
 10
117.236380
 20
160.261610
 30
0.0
  0
SPLINE
  5
19d
100
AcDbEntity
  8
Calque_1
 62
7
100
AcDbSpline
 70
8
 71
3
 72
8
 73
4
 74
0
 40
0
 40
0
 40
0
 40
0
 40
1
 40
1
 40
1
 40
1
 10
117.236380
 20
160.261610
 30
0.0
 10
117.591560
 20
160.796700
 30
0.0
 10
118.224180
 20
162.077890
 30
0.0
 10
118.642200
 20
163.108680
 30
0.0
  0
SPLINE
  5
19e
100
AcDbEntity
  8
Calque_1
 62
7
100
AcDbSpline
 70
8
 71
3
 72
8
 73
4
 74
0
 40
0
 40
0
 40
0
 40
0
 40
1
 40
1
 40
1
 40
1
 10
118.642200
 20
163.108680
 30
0.0
 10
119.088550
 20
164.209320
 30
0.0
 10
119.523350
 20
165.679070
 30
0.0
 10
119.695660
 20
166.669700
 30
0.0
  0
SPLINE
  5
19f
100
AcDbEntity
  8
Calque_1
 62
7
100
AcDbSpline
 70
8
 71
3
 72
8
 73
4
 74
0
 40
0
 40
0
 40
0
 40
0
 40
1
 40
1
 40
1
 40
1
 10
119.695660
 20
166.669700
 30
0.0
 10
119.910630
 20
167.905530
 30
0.0
 10
119.962830
 20
168.926260
 30
0.0
 10
119.890930
 20
170.487300
 30
0.0
  0
SPLINE
  5
1a0
100
AcDbEntity
  8
Calque_1
 62
7
100
AcDbSpline
 70
8
 71
3
 72
8
 73
4
 74
0
 40
0
 40
0
 40
0
 40
0
 40
1
 40
1
 40
1
 40
1
 10
119.890930
 20
170.487300
 30
0.0
 10
119.828330
 20
171.846530
 30
0.0
 10
119.657900
 20
173.091440
 30
0.0
 10
119.420290
 20
173.925390
 30
0.0
  0
SPLINE
  5
1a1
100
AcDbEntity
  8
Calque_1
 62
7
100
AcDbSpline
 70
8
 71
3
 72
8
 73
4
 74
0
 40
0
 40
0
 40
0
 40
0
 40
1
 40
1
 40
1
 40
1
 10
119.420290
 20
173.925390
 30
0.0
 10
119.215430
 20
174.644410
 30
0.0
 10
118.842010
 20
175.723110
 30
0.0
 10
118.590460
 20
176.322490
 30
0.0
  0
SPLINE
  5
1a2
100
AcDbEntity
  8
Calque_1
 62
7
100
AcDbSpline
 70
8
 71
3
 72
8
 73
4
 74
0
 40
0
 40
0
 40
0
 40
0
 40
1
 40
1
 40
1
 40
1
 10
118.590460
 20
176.322490
 30
0.0
 10
118.338920
 20
176.921860
 30
0.0
 10
117.824170
 20
177.942410
 30
0.0
 10
117.446580
 20
178.590370
 30
0.0
  0
SPLINE
  5
1a3
100
AcDbEntity
  8
Calque_1
 62
7
100
AcDbSpline
 70
8
 71
3
 72
8
 73
4
 74
0
 40
0
 40
0
 40
0
 40
0
 40
1
 40
1
 40
1
 40
1
 10
117.446580
 20
178.590370
 30
0.0
 10
117.068980
 20
179.238330
 30
0.0
 10
116.341460
 20
180.269420
 30
0.0
 10
115.829860
 20
180.881690
 30
0.0
  0
SPLINE
  5
1a4
100
AcDbEntity
  8
Calque_1
 62
7
100
AcDbSpline
 70
8
 71
3
 72
8
 73
4
 74
0
 40
0
 40
0
 40
0
 40
0
 40
1
 40
1
 40
1
 40
1
 10
115.829860
 20
180.881690
 30
0.0
 10
115.318260
 20
181.493960
 30
0.0
 10
114.297640
 20
182.509580
 30
0.0
 10
113.561820
 20
183.138620
 30
0.0
  0
SPLINE
  5
1a5
100
AcDbEntity
  8
Calque_1
 62
7
100
AcDbSpline
 70
8
 71
3
 72
8
 73
4
 74
0
 40
0
 40
0
 40
0
 40
0
 40
1
 40
1
 40
1
 40
1
 10
113.561820
 20
183.138620
 30
0.0
 10
112.702970
 20
183.872850
 30
0.0
 10
111.588230
 20
184.591230
 30
0.0
 10
110.448340
 20
185.145060
 30
0.0
  0
SPLINE
  5
1a6
100
AcDbEntity
  8
Calque_1
 62
7
100
AcDbSpline
 70
8
 71
3
 72
8
 73
4
 74
0
 40
0
 40
0
 40
0
 40
0
 40
1
 40
1
 40
1
 40
1
 10
110.448340
 20
185.145060
 30
0.0
 10
109.471750
 20
185.619550
 30
0.0
 10
108.033490
 20
186.224500
 30
0.0
 10
107.252210
 20
186.489390
 30
0.0
  0
SPLINE
  5
1a7
100
AcDbEntity
  8
Calque_1
 62
7
100
AcDbSpline
 70
8
 71
3
 72
8
 73
4
 74
0
 40
0
 40
0
 40
0
 40
0
 40
1
 40
1
 40
1
 40
1
 10
107.252210
 20
186.489390
 30
0.0
 10
106.010720
 20
186.910320
 30
0.0
 10
105.484870
 20
186.980490
 30
0.0
 10
103.079480
 20
187.046170
 30
0.0
  0
SPLINE
  5
1a8
100
AcDbEntity
  8
Calque_1
 62
7
100
AcDbSpline
 70
8
 71
3
 72
8
 73
4
 74
0
 40
0
 40
0
 40
0
 40
0
 40
1
 40
1
 40
1
 40
1
 10
103.079480
 20
187.046170
 30
0.0
 10
101.037830
 20
187.101870
 30
0.0
 10
99.994521
 20
187.051170
 30
0.0
 10
99.038511
 20
186.848280
 30
0.0
  0
SPLINE
  5
1a9
100
AcDbEntity
  8
Calque_1
 62
7
100
AcDbSpline
 70
8
 71
3
 72
8
 73
4
 74
0
 40
0
 40
0
 40
0
 40
0
 40
1
 40
1
 40
1
 40
1
 10
99.038511
 20
186.848280
 30
0.0
 10
98.329691
 20
186.698120
 30
0.0
 10
96.915721
 20
186.221760
 30
0.0
 10
95.896341
 20
185.789710
 30
0.0
  0
SPLINE
  5
1aa
100
AcDbEntity
  8
Calque_1
 62
7
100
AcDbSpline
 70
8
 71
3
 72
8
 73
4
 74
0
 40
0
 40
0
 40
0
 40
0
 40
1
 40
1
 40
1
 40
1
 10
95.896341
 20
185.789710
 30
0.0
 10
94.876961
 20
185.357670
 30
0.0
 10
93.372581
 20
184.558140
 30
0.0
 10
92.553271
 20
184.012990
 30
0.0
  0
SPLINE
  5
1ab
100
AcDbEntity
  8
Calque_1
 62
7
100
AcDbSpline
 70
8
 71
3
 72
8
 73
4
 74
0
 40
0
 40
0
 40
0
 40
0
 40
1
 40
1
 40
1
 40
1
 10
92.553271
 20
184.012990
 30
0.0
 10
91.733951
 20
183.467830
 30
0.0
 10
90.538091
 20
182.464730
 30
0.0
 10
89.895801
 20
181.783860
 30
0.0
  0
SPLINE
  5
1ac
100
AcDbEntity
  8
Calque_1
 62
7
100
AcDbSpline
 70
8
 71
3
 72
8
 73
4
 74
0
 40
0
 40
0
 40
0
 40
0
 40
1
 40
1
 40
1
 40
1
 10
89.895801
 20
181.783860
 30
0.0
 10
89.253501
 20
181.102990
 30
0.0
 10
88.412311
 20
180.080560
 30
0.0
 10
88.026481
 20
179.511780
 30
0.0
  0
SPLINE
  5
1ad
100
AcDbEntity
  8
Calque_1
 62
7
100
AcDbSpline
 70
8
 71
3
 72
8
 73
4
 74
0
 40
0
 40
0
 40
0
 40
0
 40
1
 40
1
 40
1
 40
1
 10
88.026481
 20
179.511780
 30
0.0
 10
87.640661
 20
178.943000
 30
0.0
 10
87.072081
 20
177.976040
 30
0.0
 10
86.762971
 20
177.362990
 30
0.0
  0
SPLINE
  5
1ae
100
AcDbEntity
  8
Calque_1
 62
7
100
AcDbSpline
 70
8
 71
3
 72
8
 73
4
 74
0
 40
0
 40
0
 40
0
 40
0
 40
1
 40
1
 40
1
 40
1
 10
86.762971
 20
177.362990
 30
0.0
 10
86.453871
 20
176.749930
 30
0.0
 10
85.946221
 20
175.511430
 30
0.0
 10
85.634861
 20
174.610760
 30
0.0
  0
SPLINE
  5
1af
100
AcDbEntity
  8
Calque_1
 62
7
100
AcDbSpline
 70
8
 71
3
 72
8
 73
4
 74
0
 40
0
 40
0
 40
0
 40
0
 40
1
 40
1
 40
1
 40
1
 10
85.634861
 20
174.610760
 30
0.0
 10
85.077971
 20
172.999820
 30
0.0
 10
85.068751
 20
172.919760
 30
0.0
 10
85.068191
 20
169.688270
 30
0.0
  0
LWPOLYLINE
  5
1b0
100
AcDbEntity
  8
Calque_1
 62
7
100
AcDbPolyline
 90
2
 70
0
 10
107.641680
 20
144.455420
 30
0.0
 10
107.641840
 20
144.455380
 30
0.0
  0
SPLINE
  5
1b1
100
AcDbEntity
  8
Calque_1
 62
7
100
AcDbSpline
 70
8
 71
3
 72
8
 73
4
 74
0
 40
0
 40
0
 40
0
 40
0
 40
1
 40
1
 40
1
 40
1
 10
85.731501
 20
164.469650
 30
0.0
 10
86.096631
 20
163.406110
 30
0.0
 10
86.676061
 20
162.001810
 30
0.0
 10
87.019111
 20
161.348990
 30
0.0
  0
SPLINE
  5
1b2
100
AcDbEntity
  8
Calque_1
 62
7
100
AcDbSpline
 70
8
 71
3
 72
8
 73
4
 74
0
 40
0
 40
0
 40
0
 40
0
 40
1
 40
1
 40
1
 40
1
 10
87.019111
 20
161.348990
 30
0.0
 10
87.362161
 20
160.696160
 30
0.0
 10
88.282051
 20
159.428700
 30
0.0
 10
89.063321
 20
158.532410
 30
0.0
  0
SPLINE
  5
1b3
100
AcDbEntity
  8
Calque_1
 62
7
100
AcDbSpline
 70
8
 71
3
 72
8
 73
4
 74
0
 40
0
 40
0
 40
0
 40
0
 40
1
 40
1
 40
1
 40
1
 10
89.063321
 20
158.532410
 30
0.0
 10
89.844591
 20
157.636110
 30
0.0
 10
91.060571
 20
156.426770
 30
0.0
 10
91.765491
 20
155.844990
 30
0.0
  0
SPLINE
  5
1b4
100
AcDbEntity
  8
Calque_1
 62
7
100
AcDbSpline
 70
8
 71
3
 72
8
 73
4
 74
0
 40
0
 40
0
 40
0
 40
0
 40
1
 40
1
 40
1
 40
1
 10
91.765491
 20
155.844990
 30
0.0
 10
92.470421
 20
155.263200
 30
0.0
 10
93.686401
 20
154.470470
 30
0.0
 10
94.467681
 20
154.083360
 30
0.0
  0
SPLINE
  5
1b5
100
AcDbEntity
  8
Calque_1
 62
7
100
AcDbSpline
 70
8
 71
3
 72
8
 73
4
 74
0
 40
0
 40
0
 40
0
 40
0
 40
1
 40
1
 40
1
 40
1
 10
94.467681
 20
154.083360
 30
0.0
 10
95.248961
 20
153.696260
 30
0.0
 10
96.490601
 20
153.177370
 30
0.0
 10
97.226891
 20
152.930270
 30
0.0
  0
SPLINE
  5
1b6
100
AcDbEntity
  8
Calque_1
 62
7
100
AcDbSpline
 70
8
 71
3
 72
8
 73
4
 74
0
 40
0
 40
0
 40
0
 40
0
 40
1
 40
1
 40
1
 40
1
 10
97.226891
 20
152.930270
 30
0.0
 10
97.963181
 20
152.683170
 30
0.0
 10
99.081821
 20
152.407280
 30
0.0
 10
99.712771
 20
152.317190
 30
0.0
  0
SPLINE
  5
1b7
100
AcDbEntity
  8
Calque_1
 62
7
100
AcDbSpline
 70
8
 71
3
 72
8
 73
4
 74
0
 40
0
 40
0
 40
0
 40
0
 40
1
 40
1
 40
1
 40
1
 10
99.712771
 20
152.317190
 30
0.0
 10
100.343720
 20
152.227090
 30
0.0
 10
101.499170
 20
152.145090
 30
0.0
 10
102.280450
 20
152.134980
 30
0.0
  0
SPLINE
  5
1b8
100
AcDbEntity
  8
Calque_1
 62
7
100
AcDbSpline
 70
8
 71
3
 72
8
 73
4
 74
0
 40
0
 40
0
 40
0
 40
0
 40
1
 40
1
 40
1
 40
1
 10
102.280450
 20
152.134980
 30
0.0
 10
103.061730
 20
152.124880
 30
0.0
 10
104.260270
 20
152.196280
 30
0.0
 10
104.943890
 20
152.293620
 30
0.0
  0
LWPOLYLINE
  5
1b9
100
AcDbEntity
  8
Calque_1
 62
7
100
AcDbPolyline
 90
2
 70
0
 10
85.068191
 20
169.688270
 30
0.0
 10
85.731501
 20
164.469650
 30
0.0
  0
SPLINE
  5
1ba
100
AcDbEntity
  8
Calque_1
 62
7
100
AcDbSpline
 70
8
 71
3
 72
8
 73
4
 74
0
 40
0
 40
0
 40
0
 40
0
 40
1
 40
1
 40
1
 40
1
 10
106.541960
 20
188.865290
 30
0.0
 10
107.323240
 20
189.075030
 30
0.0
 10
108.629140
 20
189.558610
 30
0.0
 10
109.443960
 20
189.939920
 30
0.0
  0
SPLINE
  5
1bb
100
AcDbEntity
  8
Calque_1
 62
7
100
AcDbSpline
 70
8
 71
3
 72
8
 73
4
 74
0
 40
0
 40
0
 40
0
 40
0
 40
1
 40
1
 40
1
 40
1
 10
109.443960
 20
189.939920
 30
0.0
 10
110.258790
 20
190.321230
 30
0.0
 10
111.417380
 20
190.984980
 30
0.0
 10
112.018620
 20
191.414920
 30
0.0
  0
SPLINE
  5
1bc
100
AcDbEntity
  8
Calque_1
 62
7
100
AcDbSpline
 70
8
 71
3
 72
8
 73
4
 74
0
 40
0
 40
0
 40
0
 40
0
 40
1
 40
1
 40
1
 40
1
 10
112.018620
 20
191.414920
 30
0.0
 10
112.619860
 20
191.844860
 30
0.0
 10
113.251000
 20
192.351550
 30
0.0
 10
113.421150
 20
192.540890
 30
0.0
  0
SPLINE
  5
1bd
100
AcDbEntity
  8
Calque_1
 62
7
100
AcDbSpline
 70
8
 71
3
 72
8
 73
4
 74
0
 40
0
 40
0
 40
0
 40
0
 40
1
 40
1
 40
1
 40
1
 10
113.421150
 20
192.540890
 30
0.0
 10
113.719520
 20
192.872930
 30
0.0
 10
113.706910
 20
192.898370
 30
0.0
 10
113.066020
 20
193.257330
 30
0.0
  0
SPLINE
  5
1be
100
AcDbEntity
  8
Calque_1
 62
7
100
AcDbSpline
 70
8
 71
3
 72
8
 73
4
 74
0
 40
0
 40
0
 40
0
 40
0
 40
1
 40
1
 40
1
 40
1
 10
113.066020
 20
193.257330
 30
0.0
 10
112.700550
 20
193.462030
 30
0.0
 10
111.442690
 20
193.963440
 30
0.0
 10
110.270780
 20
194.371580
 30
0.0
  0
SPLINE
  5
1bf
100
AcDbEntity
  8
Calque_1
 62
7
100
AcDbSpline
 70
8
 71
3
 72
8
 73
4
 74
0
 40
0
 40
0
 40
0
 40
0
 40
1
 40
1
 40
1
 40
1
 10
110.270780
 20
194.371580
 30
0.0
 10
109.098860
 20
194.779710
 30
0.0
 10
107.660600
 20
195.194380
 30
0.0
 10
107.074650
 20
195.293070
 30
0.0
  0
SPLINE
  5
1c0
100
AcDbEntity
  8
Calque_1
 62
7
100
AcDbSpline
 70
8
 71
3
 72
8
 73
4
 74
0
 40
0
 40
0
 40
0
 40
0
 40
1
 40
1
 40
1
 40
1
 10
107.074650
 20
195.293070
 30
0.0
 10
106.488690
 20
195.391770
 30
0.0
 10
104.621200
 20
195.509240
 30
0.0
 10
102.924680
 20
195.554170
 30
0.0
  0
SPLINE
  5
1c1
100
AcDbEntity
  8
Calque_1
 62
7
100
AcDbSpline
 70
8
 71
3
 72
8
 73
4
 74
0
 40
0
 40
0
 40
0
 40
0
 40
1
 40
1
 40
1
 40
1
 10
102.924680
 20
195.554170
 30
0.0
 10
100.545620
 20
195.617170
 30
0.0
 10
99.521051
 20
195.571170
 30
0.0
 10
98.445251
 20
195.353220
 30
0.0
  0
SPLINE
  5
1c2
100
AcDbEntity
  8
Calque_1
 62
7
100
AcDbSpline
 70
8
 71
3
 72
8
 73
4
 74
0
 40
0
 40
0
 40
0
 40
0
 40
1
 40
1
 40
1
 40
1
 10
98.445251
 20
195.353220
 30
0.0
 10
97.678091
 20
195.197770
 30
0.0
 10
96.349441
 20
194.869230
 30
0.0
 10
95.492701
 20
194.623120
 30
0.0
  0
SPLINE
  5
1c3
100
AcDbEntity
  8
Calque_1
 62
7
100
AcDbSpline
 70
8
 71
3
 72
8
 73
4
 74
0
 40
0
 40
0
 40
0
 40
0
 40
1
 40
1
 40
1
 40
1
 10
95.492701
 20
194.623120
 30
0.0
 10
94.635961
 20
194.377020
 30
0.0
 10
93.315741
 20
193.887060
 30
0.0
 10
92.558881
 20
193.534330
 30
0.0
  0
SPLINE
  5
1c4
100
AcDbEntity
  8
Calque_1
 62
7
100
AcDbSpline
 70
8
 71
3
 72
8
 73
4
 74
0
 40
0
 40
0
 40
0
 40
0
 40
1
 40
1
 40
1
 40
1
 10
92.558881
 20
193.534330
 30
0.0
 10
91.802021
 20
193.181600
 30
0.0
 10
91.182771
 20
192.826870
 30
0.0
 10
91.182771
 20
192.746040
 30
0.0
  0
SPLINE
  5
1c5
100
AcDbEntity
  8
Calque_1
 62
7
100
AcDbSpline
 70
8
 71
3
 72
8
 73
4
 74
0
 40
0
 40
0
 40
0
 40
0
 40
1
 40
1
 40
1
 40
1
 10
91.182771
 20
192.746040
 30
0.0
 10
91.182771
 20
192.665240
 30
0.0
 10
91.642211
 20
192.238060
 30
0.0
 10
92.203751
 20
191.796830
 30
0.0
  0
SPLINE
  5
1c6
100
AcDbEntity
  8
Calque_1
 62
7
100
AcDbSpline
 70
8
 71
3
 72
8
 73
4
 74
0
 40
0
 40
0
 40
0
 40
0
 40
1
 40
1
 40
1
 40
1
 10
92.203751
 20
191.796830
 30
0.0
 10
92.765301
 20
191.355590
 30
0.0
 10
93.758881
 20
190.713580
 30
0.0
 10
94.411721
 20
190.370120
 30
0.0
  0
SPLINE
  5
1c7
100
AcDbEntity
  8
Calque_1
 62
7
100
AcDbSpline
 70
8
 71
3
 72
8
 73
4
 74
0
 40
0
 40
0
 40
0
 40
0
 40
1
 40
1
 40
1
 40
1
 10
94.411721
 20
190.370120
 30
0.0
 10
95.064561
 20
190.026670
 30
0.0
 10
96.130031
 20
189.545680
 30
0.0
 10
96.779431
 20
189.301240
 30
0.0
  0
SPLINE
  5
1c8
100
AcDbEntity
  8
Calque_1
 62
7
100
AcDbSpline
 70
8
 71
3
 72
8
 73
4
 74
0
 40
0
 40
0
 40
0
 40
0
 40
1
 40
1
 40
1
 40
1
 10
96.779431
 20
189.301240
 30
0.0
 10
97.428831
 20
189.056810
 30
0.0
 10
98.572661
 20
188.740590
 30
0.0
 10
99.321271
 20
188.598530
 30
0.0
  0
SPLINE
  5
1c9
100
AcDbEntity
  8
Calque_1
 62
7
100
AcDbSpline
 70
8
 71
3
 72
8
 73
4
 74
0
 40
0
 40
0
 40
0
 40
0
 40
1
 40
1
 40
1
 40
1
 10
99.321271
 20
188.598530
 30
0.0
 10
100.231660
 20
188.425770
 30
0.0
 10
101.417370
 20
188.364030
 30
0.0
 10
102.901920
 20
188.412090
 30
0.0
  0
SPLINE
  5
1ca
100
AcDbEntity
  8
Calque_1
 62
7
100
AcDbSpline
 70
8
 71
3
 72
8
 73
4
 74
0
 40
0
 40
0
 40
0
 40
0
 40
1
 40
1
 40
1
 40
1
 10
102.901920
 20
188.412090
 30
0.0
 10
104.416430
 20
188.461090
 30
0.0
 10
105.572670
 20
188.605080
 30
0.0
 10
106.541960
 20
188.865290
 30
0.0
  0
LWPOLYLINE
  5
1cb
100
AcDbEntity
  8
Calque_1
 62
7
100
AcDbPolyline
 90
1
 70
1
 10
104.943890
 20
152.293620
 30
0.0
  0
SPLINE
  5
1cc
100
AcDbEntity
  8
Calque_1
 62
7
100
AcDbSpline
 70
8
 71
3
 72
8
 73
4
 74
0
 40
0
 40
0
 40
0
 40
0
 40
1
 40
1
 40
1
 40
1
 10
95.147761
 20
195.152030
 30
0.0
 10
95.945631
 20
195.381710
 30
0.0
 10
97.179741
 20
195.672330
 30
0.0
 10
97.890221
 20
195.797840
 30
0.0
  0
LWPOLYLINE
  5
1cd
100
AcDbEntity
  8
Calque_1
 62
7
100
AcDbPolyline
 90
1
 70
1
 10
106.541960
 20
188.865290
 30
0.0
  0
SPLINE
  5
1ce
100
AcDbEntity
  8
Calque_1
 62
7
100
AcDbSpline
 70
8
 71
3
 72
8
 73
4
 74
0
 40
0
 40
0
 40
0
 40
0
 40
1
 40
1
 40
1
 40
1
 10
98.291831
 20
196.512840
 30
0.0
 10
97.802231
 20
196.780580
 30
0.0
 10
97.004341
 20
197.291286
 30
0.0
 10
96.518741
 20
197.647746
 30
0.0
  0
SPLINE
  5
1cf
100
AcDbEntity
  8
Calque_1
 62
7
100
AcDbSpline
 70
8
 71
3
 72
8
 73
4
 74
0
 40
0
 40
0
 40
0
 40
0
 40
1
 40
1
 40
1
 40
1
 10
96.518741
 20
197.647746
 30
0.0
 10
96.010471
 20
198.020856
 30
0.0
 10
95.306391
 20
198.800196
 30
0.0
 10
94.859451
 20
199.484426
 30
0.0
  0
SPLINE
  5
1d0
100
AcDbEntity
  8
Calque_1
 62
7
100
AcDbSpline
 70
8
 71
3
 72
8
 73
4
 74
0
 40
0
 40
0
 40
0
 40
0
 40
1
 40
1
 40
1
 40
1
 10
94.859451
 20
199.484426
 30
0.0
 10
94.432441
 20
200.138136
 30
0.0
 10
93.893411
 20
201.112462
 30
0.0
 10
93.661611
 20
201.649590
 30
0.0
  0
SPLINE
  5
1d1
100
AcDbEntity
  8
Calque_1
 62
7
100
AcDbSpline
 70
8
 71
3
 72
8
 73
4
 74
0
 40
0
 40
0
 40
0
 40
0
 40
1
 40
1
 40
1
 40
1
 10
93.661611
 20
201.649590
 30
0.0
 10
93.291211
 20
202.507913
 30
0.0
 10
93.239231
 20
202.907362
 30
0.0
 10
93.232451
 20
204.947890
 30
0.0
  0
LWPOLYLINE
  5
1d2
100
AcDbEntity
  8
Calque_1
 62
7
100
AcDbPolyline
 90
2
 70
0
 10
97.890221
 20
195.797840
 30
0.0
 10
98.291831
 20
196.512840
 30
0.0
  0
SPLINE
  5
1d3
100
AcDbEntity
  8
Calque_1
 62
7
100
AcDbSpline
 70
8
 71
3
 72
8
 73
4
 74
0
 40
0
 40
0
 40
0
 40
0
 40
1
 40
1
 40
1
 40
1
 10
94.006581
 20
208.854275
 30
0.0
 10
94.597341
 20
210.051664
 30
0.0
 10
95.076031
 20
210.721027
 30
0.0
 10
95.965231
 20
211.593114
 30
0.0
  0
SPLINE
  5
1d4
100
AcDbEntity
  8
Calque_1
 62
7
100
AcDbSpline
 70
8
 71
3
 72
8
 73
4
 74
0
 40
0
 40
0
 40
0
 40
0
 40
1
 40
1
 40
1
 40
1
 10
95.965231
 20
211.593114
 30
0.0
 10
96.717191
 20
212.330599
 30
0.0
 10
97.585991
 20
212.964917
 30
0.0
 10
98.371741
 20
213.350132
 30
0.0
  0
SPLINE
  5
1d5
100
AcDbEntity
  8
Calque_1
 62
7
100
AcDbSpline
 70
8
 71
3
 72
8
 73
4
 74
0
 40
0
 40
0
 40
0
 40
0
 40
1
 40
1
 40
1
 40
1
 10
98.371741
 20
213.350132
 30
0.0
 10
99.285961
 20
213.798328
 30
0.0
 10
99.967861
 20
213.990061
 30
0.0
 10
101.029720
 20
214.097487
 30
0.0
  0
SPLINE
  5
1d6
100
AcDbEntity
  8
Calque_1
 62
7
100
AcDbSpline
 70
8
 71
3
 72
8
 73
4
 74
0
 40
0
 40
0
 40
0
 40
0
 40
1
 40
1
 40
1
 40
1
 10
101.029720
 20
214.097487
 30
0.0
 10
101.815280
 20
214.176957
 30
0.0
 10
103.102660
 20
214.176877
 30
0.0
 10
103.890570
 20
214.097292
 30
0.0
  0
SPLINE
  5
1d7
100
AcDbEntity
  8
Calque_1
 62
7
100
AcDbSpline
 70
8
 71
3
 72
8
 73
4
 74
0
 40
0
 40
0
 40
0
 40
0
 40
1
 40
1
 40
1
 40
1
 10
103.890570
 20
214.097292
 30
0.0
 10
104.872490
 20
213.998112
 30
0.0
 10
105.626550
 20
213.800593
 30
0.0
 10
106.287670
 20
213.469376
 30
0.0
  0
SPLINE
  5
1d8
100
AcDbEntity
  8
Calque_1
 62
7
100
AcDbSpline
 70
8
 71
3
 72
8
 73
4
 74
0
 40
0
 40
0
 40
0
 40
0
 40
1
 40
1
 40
1
 40
1
 10
106.287670
 20
213.469376
 30
0.0
 10
106.818170
 20
213.203604
 30
0.0
 10
107.670230
 20
212.671244
 30
0.0
 10
108.181140
 20
212.286356
 30
0.0
  0
SPLINE
  5
1d9
100
AcDbEntity
  8
Calque_1
 62
7
100
AcDbSpline
 70
8
 71
3
 72
8
 73
4
 74
0
 40
0
 40
0
 40
0
 40
0
 40
1
 40
1
 40
1
 40
1
 10
108.181140
 20
212.286356
 30
0.0
 10
108.692050
 20
211.901468
 30
0.0
 10
109.424970
 20
211.168541
 30
0.0
 10
109.809860
 20
210.657631
 30
0.0
  0
SPLINE
  5
1da
100
AcDbEntity
  8
Calque_1
 62
7
100
AcDbSpline
 70
8
 71
3
 72
8
 73
4
 74
0
 40
0
 40
0
 40
0
 40
0
 40
1
 40
1
 40
1
 40
1
 10
109.809860
 20
210.657631
 30
0.0
 10
110.194750
 20
210.146721
 30
0.0
 10
110.725740
 20
209.297388
 30
0.0
 10
110.989840
 20
208.770224
 30
0.0
  0
SPLINE
  5
1db
100
AcDbEntity
  8
Calque_1
 62
7
100
AcDbSpline
 70
8
 71
3
 72
8
 73
4
 74
0
 40
0
 40
0
 40
0
 40
0
 40
1
 40
1
 40
1
 40
1
 10
110.989840
 20
208.770224
 30
0.0
 10
111.289190
 20
208.172690
 30
0.0
 10
111.537940
 20
207.279675
 30
0.0
 10
111.650390
 20
206.398851
 30
0.0
  0
SPLINE
  5
1dc
100
AcDbEntity
  8
Calque_1
 62
7
100
AcDbSpline
 70
8
 71
3
 72
8
 73
4
 74
0
 40
0
 40
0
 40
0
 40
0
 40
1
 40
1
 40
1
 40
1
 10
111.650390
 20
206.398851
 30
0.0
 10
111.772820
 20
205.439854
 30
0.0
 10
111.772460
 20
204.505173
 30
0.0
 10
111.649390
 20
203.489367
 30
0.0
  0
SPLINE
  5
1dd
100
AcDbEntity
  8
Calque_1
 62
7
100
AcDbSpline
 70
8
 71
3
 72
8
 73
4
 74
0
 40
0
 40
0
 40
0
 40
0
 40
1
 40
1
 40
1
 40
1
 10
111.649390
 20
203.489367
 30
0.0
 10
111.520480
 20
202.426332
 30
0.0
 10
111.300590
 20
201.652898
 30
0.0
 10
110.890330
 20
200.819551
 30
0.0
  0
SPLINE
  5
1de
100
AcDbEntity
  8
Calque_1
 62
7
100
AcDbSpline
 70
8
 71
3
 72
8
 73
4
 74
0
 40
0
 40
0
 40
0
 40
0
 40
1
 40
1
 40
1
 40
1
 10
110.890330
 20
200.819551
 30
0.0
 10
110.528720
 20
200.085006
 30
0.0
 10
109.873380
 20
199.200146
 30
0.0
 10
109.137660
 20
198.453046
 30
0.0
  0
SPLINE
  5
1df
100
AcDbEntity
  8
Calque_1
 62
7
100
AcDbSpline
 70
8
 71
3
 72
8
 73
4
 74
0
 40
0
 40
0
 40
0
 40
0
 40
1
 40
1
 40
1
 40
1
 10
109.137660
 20
198.453046
 30
0.0
 10
108.491360
 20
197.796746
 30
0.0
 10
107.489440
 20
196.993640
 30
0.0
 10
106.911170
 20
196.668350
 30
0.0
  0
LWPOLYLINE
  5
1e0
100
AcDbEntity
  8
Calque_1
 62
7
100
AcDbPolyline
 90
2
 70
0
 10
93.232451
 20
204.947890
 30
0.0
 10
94.006581
 20
208.854275
 30
0.0
  0
SPLINE
  5
1e1
100
AcDbEntity
  8
Calque_1
 62
7
100
AcDbSpline
 70
8
 71
3
 72
8
 73
4
 74
0
 40
0
 40
0
 40
0
 40
0
 40
1
 40
1
 40
1
 40
1
 10
107.769510
 20
195.676640
 30
0.0
 10
108.819850
 20
195.456480
 30
0.0
 10
110.211870
 20
195.099510
 30
0.0
 10
110.862870
 20
194.883380
 30
0.0
  0
SPLINE
  5
1e2
100
AcDbEntity
  8
Calque_1
 62
7
100
AcDbSpline
 70
8
 71
3
 72
8
 73
4
 74
0
 40
0
 40
0
 40
0
 40
0
 40
1
 40
1
 40
1
 40
1
 10
110.862870
 20
194.883380
 30
0.0
 10
111.513870
 20
194.667240
 30
0.0
 10
112.558350
 20
194.261200
 30
0.0
 10
113.183920
 20
193.981070
 30
0.0
  0
LWPOLYLINE
  5
1e3
100
AcDbEntity
  8
Calque_1
 62
7
100
AcDbPolyline
 90
2
 70
0
 10
106.911170
 20
196.668350
 30
0.0
 10
107.769510
 20
195.676640
 30
0.0
  0
SPLINE
  5
1e4
100
AcDbEntity
  8
Calque_1
 62
7
100
AcDbSpline
 70
8
 71
3
 72
8
 73
4
 74
0
 40
0
 40
0
 40
0
 40
0
 40
1
 40
1
 40
1
 40
1
 10
114.756820
 20
193.876230
 30
0.0
 10
114.996340
 20
194.098700
 30
0.0
 10
115.544900
 20
194.772650
 30
0.0
 10
115.975850
 20
195.373890
 30
0.0
  0
SPLINE
  5
1e5
100
AcDbEntity
  8
Calque_1
 62
7
100
AcDbSpline
 70
8
 71
3
 72
8
 73
4
 74
0
 40
0
 40
0
 40
0
 40
0
 40
1
 40
1
 40
1
 40
1
 10
115.975850
 20
195.373890
 30
0.0
 10
116.406800
 20
195.975130
 30
0.0
 10
117.071700
 20
197.133726
 30
0.0
 10
117.453400
 20
197.948546
 30
0.0
  0
SPLINE
  5
1e6
100
AcDbEntity
  8
Calque_1
 62
7
100
AcDbSpline
 70
8
 71
3
 72
8
 73
4
 74
0
 40
0
 40
0
 40
0
 40
0
 40
1
 40
1
 40
1
 40
1
 10
117.453400
 20
197.948546
 30
0.0
 10
117.835110
 20
198.763376
 30
0.0
 10
118.331060
 20
200.109236
 30
0.0
 10
118.555520
 20
200.939338
 30
0.0
  0
SPLINE
  5
1e7
100
AcDbEntity
  8
Calque_1
 62
7
100
AcDbSpline
 70
8
 71
3
 72
8
 73
4
 74
0
 40
0
 40
0
 40
0
 40
0
 40
1
 40
1
 40
1
 40
1
 10
118.555520
 20
200.939338
 30
0.0
 10
118.893130
 20
202.187915
 30
0.0
 10
118.963630
 20
202.893361
 30
0.0
 10
118.963630
 20
205.023286
 30
0.0
  0
SPLINE
  5
1e8
100
AcDbEntity
  8
Calque_1
 62
7
100
AcDbSpline
 70
8
 71
3
 72
8
 73
4
 74
0
 40
0
 40
0
 40
0
 40
0
 40
1
 40
1
 40
1
 40
1
 10
118.963630
 20
205.023286
 30
0.0
 10
118.963630
 20
207.148320
 30
0.0
 10
118.892830
 20
207.859450
 30
0.0
 10
118.558380
 20
209.095366
 30
0.0
  0
SPLINE
  5
1e9
100
AcDbEntity
  8
Calque_1
 62
7
100
AcDbSpline
 70
8
 71
3
 72
8
 73
4
 74
0
 40
0
 40
0
 40
0
 40
0
 40
1
 40
1
 40
1
 40
1
 10
118.558380
 20
209.095366
 30
0.0
 10
118.335490
 20
209.918946
 30
0.0
 10
117.885150
 20
211.172791
 30
0.0
 10
117.557620
 20
211.881689
 30
0.0
  0
LWPOLYLINE
  5
1ea
100
AcDbEntity
  8
Calque_1
 62
7
100
AcDbPolyline
 90
2
 70
0
 10
113.183920
 20
193.981070
 30
0.0
 10
114.756820
 20
193.876230
 30
0.0
  0
SPLINE
  5
1eb
100
AcDbEntity
  8
Calque_1
 62
7
100
AcDbSpline
 70
8
 71
3
 72
8
 73
4
 74
0
 40
0
 40
0
 40
0
 40
0
 40
1
 40
1
 40
1
 40
1
 10
117.867730
 20
213.163578
 30
0.0
 10
118.538390
 20
213.158378
 30
0.0
 10
118.833600
 20
213.238958
 30
0.0
 10
119.005580
 20
213.474154
 30
0.0
  0
SPLINE
  5
1ec
100
AcDbEntity
  8
Calque_1
 62
7
100
AcDbSpline
 70
8
 71
3
 72
8
 73
4
 74
0
 40
0
 40
0
 40
0
 40
0
 40
1
 40
1
 40
1
 40
1
 10
119.005580
 20
213.474154
 30
0.0
 10
119.172930
 20
213.703081
 30
0.0
 10
119.237770
 20
214.553080
 30
0.0
 10
119.237770
 20
216.518850
 30
0.0
  0
SPLINE
  5
1ed
100
AcDbEntity
  8
Calque_1
 62
7
100
AcDbSpline
 70
8
 71
3
 72
8
 73
4
 74
0
 40
0
 40
0
 40
0
 40
0
 40
1
 40
1
 40
1
 40
1
 10
119.237770
 20
216.518850
 30
0.0
 10
119.237770
 20
218.601028
 30
0.0
 10
119.174470
 20
219.368301
 30
0.0
 10
118.970240
 20
219.763301
 30
0.0
  0
SPLINE
  5
1ee
100
AcDbEntity
  8
Calque_1
 62
7
100
AcDbSpline
 70
8
 71
3
 72
8
 73
4
 74
0
 40
0
 40
0
 40
0
 40
0
 40
1
 40
1
 40
1
 40
1
 10
118.970240
 20
219.763301
 30
0.0
 10
118.787120
 20
220.117401
 30
0.0
 10
118.492970
 20
220.336347
 30
0.0
 10
118.038030
 20
220.457164
 30
0.0
  0
SPLINE
  5
1ef
100
AcDbEntity
  8
Calque_1
 62
7
100
AcDbSpline
 70
8
 71
3
 72
8
 73
4
 74
0
 40
0
 40
0
 40
0
 40
0
 40
1
 40
1
 40
1
 40
1
 10
118.038030
 20
220.457164
 30
0.0
 10
117.672460
 20
220.554244
 30
0.0
 10
115.215970
 20
220.664413
 30
0.0
 10
112.579160
 20
220.701975
 30
0.0
  0
SPLINE
  5
1f0
100
AcDbEntity
  8
Calque_1
 62
7
100
AcDbSpline
 70
8
 71
3
 72
8
 73
4
 74
0
 40
0
 40
0
 40
0
 40
0
 40
1
 40
1
 40
1
 40
1
 10
112.579160
 20
220.701975
 30
0.0
 10
108.281470
 20
220.763195
 30
0.0
 10
107.647040
 20
220.810779
 30
0.0
 10
106.453240
 20
221.161412
 30
0.0
  0
SPLINE
  5
1f1
100
AcDbEntity
  8
Calque_1
 62
7
100
AcDbSpline
 70
8
 71
3
 72
8
 73
4
 74
0
 40
0
 40
0
 40
0
 40
0
 40
1
 40
1
 40
1
 40
1
 10
106.453240
 20
221.161412
 30
0.0
 10
105.698180
 20
221.383180
 30
0.0
 10
104.346910
 20
221.598373
 30
0.0
 10
103.332680
 20
221.658365
 30
0.0
  0
SPLINE
  5
1f2
100
AcDbEntity
  8
Calque_1
 62
7
100
AcDbSpline
 70
8
 71
3
 72
8
 73
4
 74
0
 40
0
 40
0
 40
0
 40
0
 40
1
 40
1
 40
1
 40
1
 10
103.332680
 20
221.658365
 30
0.0
 10
102.264840
 20
221.721525
 30
0.0
 10
100.948350
 20
221.677105
 30
0.0
 10
100.066370
 20
221.548138
 30
0.0
  0
SPLINE
  5
1f3
100
AcDbEntity
  8
Calque_1
 62
7
100
AcDbSpline
 70
8
 71
3
 72
8
 73
4
 74
0
 40
0
 40
0
 40
0
 40
0
 40
1
 40
1
 40
1
 40
1
 10
100.066370
 20
221.548138
 30
0.0
 10
99.253751
 20
221.429318
 30
0.0
 10
97.917731
 20
221.103826
 30
0.0
 10
97.097441
 20
220.824823
 30
0.0
  0
SPLINE
  5
1f4
100
AcDbEntity
  8
Calque_1
 62
7
100
AcDbSpline
 70
8
 71
3
 72
8
 73
4
 74
0
 40
0
 40
0
 40
0
 40
0
 40
1
 40
1
 40
1
 40
1
 10
97.097441
 20
220.824823
 30
0.0
 10
96.277141
 20
220.545819
 30
0.0
 10
95.075831
 20
220.026131
 30
0.0
 10
94.427861
 20
219.669960
 30
0.0
  0
SPLINE
  5
1f5
100
AcDbEntity
  8
Calque_1
 62
7
100
AcDbSpline
 70
8
 71
3
 72
8
 73
4
 74
0
 40
0
 40
0
 40
0
 40
0
 40
1
 40
1
 40
1
 40
1
 10
94.427861
 20
219.669960
 30
0.0
 10
93.779881
 20
219.313789
 30
0.0
 10
92.801781
 20
218.677689
 30
0.0
 10
92.254291
 20
218.256405
 30
0.0
  0
SPLINE
  5
1f6
100
AcDbEntity
  8
Calque_1
 62
7
100
AcDbSpline
 70
8
 71
3
 72
8
 73
4
 74
0
 40
0
 40
0
 40
0
 40
0
 40
1
 40
1
 40
1
 40
1
 10
92.254291
 20
218.256405
 30
0.0
 10
91.706801
 20
217.835121
 30
0.0
 10
90.753271
 20
216.949968
 30
0.0
 10
90.135341
 20
216.289398
 30
0.0
  0
SPLINE
  5
1f7
100
AcDbEntity
  8
Calque_1
 62
7
100
AcDbSpline
 70
8
 71
3
 72
8
 73
4
 74
0
 40
0
 40
0
 40
0
 40
0
 40
1
 40
1
 40
1
 40
1
 10
90.135341
 20
216.289398
 30
0.0
 10
89.517411
 20
215.628829
 30
0.0
 10
88.728891
 20
214.646053
 30
0.0
 10
88.383071
 20
214.105452
 30
0.0
  0
SPLINE
  5
1f8
100
AcDbEntity
  8
Calque_1
 62
7
100
AcDbSpline
 70
8
 71
3
 72
8
 73
4
 74
0
 40
0
 40
0
 40
0
 40
0
 40
1
 40
1
 40
1
 40
1
 10
88.383071
 20
214.105452
 30
0.0
 10
88.037251
 20
213.564850
 30
0.0
 10
87.491331
 20
212.553345
 30
0.0
 10
87.169901
 20
211.857662
 30
0.0
  0
SPLINE
  5
1f9
100
AcDbEntity
  8
Calque_1
 62
7
100
AcDbSpline
 70
8
 71
3
 72
8
 73
4
 74
0
 40
0
 40
0
 40
0
 40
0
 40
1
 40
1
 40
1
 40
1
 10
87.169901
 20
211.857662
 30
0.0
 10
86.848481
 20
211.161979
 30
0.0
 10
86.402471
 20
209.918946
 30
0.0
 10
86.178781
 20
209.095366
 30
0.0
  0
SPLINE
  5
1fa
100
AcDbEntity
  8
Calque_1
 62
7
100
AcDbSpline
 70
8
 71
3
 72
8
 73
4
 74
0
 40
0
 40
0
 40
0
 40
0
 40
1
 40
1
 40
1
 40
1
 10
86.178781
 20
209.095366
 30
0.0
 10
85.835031
 20
207.829779
 30
0.0
 10
85.774231
 20
207.185593
 30
0.0
 10
85.786061
 20
204.934504
 30
0.0
  0
SPLINE
  5
1fb
100
AcDbEntity
  8
Calque_1
 62
7
100
AcDbSpline
 70
8
 71
3
 72
8
 73
4
 74
0
 40
0
 40
0
 40
0
 40
0
 40
1
 40
1
 40
1
 40
1
 10
85.786061
 20
204.934504
 30
0.0
 10
85.797261
 20
202.802497
 30
0.0
 10
85.875361
 20
201.995287
 30
0.0
 10
86.177401
 20
200.888949
 30
0.0
  0
SPLINE
  5
1fc
100
AcDbEntity
  8
Calque_1
 62
7
100
AcDbSpline
 70
8
 71
3
 72
8
 73
4
 74
0
 40
0
 40
0
 40
0
 40
0
 40
1
 40
1
 40
1
 40
1
 10
86.177401
 20
200.888949
 30
0.0
 10
86.384931
 20
200.128786
 30
0.0
 10
86.868871
 20
198.836486
 30
0.0
 10
87.252811
 20
198.017166
 30
0.0
  0
SPLINE
  5
1fd
100
AcDbEntity
  8
Calque_1
 62
7
100
AcDbSpline
 70
8
 71
3
 72
8
 73
4
 74
0
 40
0
 40
0
 40
0
 40
0
 40
1
 40
1
 40
1
 40
1
 10
87.252811
 20
198.017166
 30
0.0
 10
87.636761
 20
197.197846
 30
0.0
 10
88.215881
 20
196.141830
 30
0.0
 10
88.539751
 20
195.670460
 30
0.0
  0
SPLINE
  5
1fe
100
AcDbEntity
  8
Calque_1
 62
7
100
AcDbSpline
 70
8
 71
3
 72
8
 73
4
 74
0
 40
0
 40
0
 40
0
 40
0
 40
1
 40
1
 40
1
 40
1
 10
88.539751
 20
195.670460
 30
0.0
 10
88.863621
 20
195.199080
 30
0.0
 10
89.432331
 20
194.483420
 30
0.0
 10
89.803551
 20
194.080100
 30
0.0
  0
LWPOLYLINE
  5
1ff
100
AcDbEntity
  8
Calque_1
 62
7
100
AcDbPolyline
 90
2
 70
0
 10
117.557620
 20
211.881689
 30
0.0
 10
117.867730
 20
213.163578
 30
0.0
  0
SPLINE
  5
200
100
AcDbEntity
  8
Calque_1
 62
7
100
AcDbSpline
 70
8
 71
3
 72
8
 73
4
 74
0
 40
0
 40
0
 40
0
 40
0
 40
1
 40
1
 40
1
 40
1
 10
92.087811
 20
194.040600
 30
0.0
 10
92.972951
 20
194.422200
 30
0.0
 10
94.349951
 20
194.922340
 30
0.0
 10
95.147821
 20
195.152020
 30
0.0
  0
LWPOLYLINE
  5
201
100
AcDbEntity
  8
Calque_1
 62
7
100
AcDbPolyline
 90
2
 70
0
 10
89.803551
 20
194.080100
 30
0.0
 10
92.087811
 20
194.040600
 30
0.0
  0
SPLINE
  5
202
100
AcDbEntity
  8
Calque_1
 62
7
100
AcDbSpline
 70
8
 71
3
 72
8
 73
4
 74
0
 40
0
 40
0
 40
0
 40
0
 40
1
 40
1
 40
1
 40
1
 10
104.638750
 20
196.590910
 30
0.0
 10
105.252190
 20
196.735540
 30
0.0
 10
106.091180
 20
197.025506
 30
0.0
 10
106.503160
 20
197.235266
 30
0.0
  0
SPLINE
  5
203
100
AcDbEntity
  8
Calque_1
 62
7
100
AcDbSpline
 70
8
 71
3
 72
8
 73
4
 74
0
 40
0
 40
0
 40
0
 40
0
 40
1
 40
1
 40
1
 40
1
 10
106.503160
 20
197.235266
 30
0.0
 10
106.915140
 20
197.445036
 30
0.0
 10
107.817890
 20
198.184486
 30
0.0
 10
108.509270
 20
198.878486
 30
0.0
  0
SPLINE
  5
204
100
AcDbEntity
  8
Calque_1
 62
7
100
AcDbSpline
 70
8
 71
3
 72
8
 73
4
 74
0
 40
0
 40
0
 40
0
 40
0
 40
1
 40
1
 40
1
 40
1
 10
108.509270
 20
198.878486
 30
0.0
 10
109.306350
 20
199.678576
 30
0.0
 10
109.942530
 20
200.515556
 30
0.0
 10
110.247840
 20
201.165796
 30
0.0
  0
SPLINE
  5
205
100
AcDbEntity
  8
Calque_1
 62
7
100
AcDbSpline
 70
8
 71
3
 72
8
 73
4
 74
0
 40
0
 40
0
 40
0
 40
0
 40
1
 40
1
 40
1
 40
1
 10
110.247840
 20
201.165796
 30
0.0
 10
110.512670
 20
201.729816
 30
0.0
 10
110.821220
 20
202.821574
 30
0.0
 10
110.933500
 20
203.591922
 30
0.0
  0
SPLINE
  5
206
100
AcDbEntity
  8
Calque_1
 62
7
100
AcDbSpline
 70
8
 71
3
 72
8
 73
4
 74
0
 40
0
 40
0
 40
0
 40
0
 40
1
 40
1
 40
1
 40
1
 10
110.933500
 20
203.591922
 30
0.0
 10
111.085670
 20
204.636010
 30
0.0
 10
111.086870
 20
205.320591
 30
0.0
 10
110.938500
 20
206.281185
 30
0.0
  0
SPLINE
  5
207
100
AcDbEntity
  8
Calque_1
 62
7
100
AcDbSpline
 70
8
 71
3
 72
8
 73
4
 74
0
 40
0
 40
0
 40
0
 40
0
 40
1
 40
1
 40
1
 40
1
 10
110.938500
 20
206.281185
 30
0.0
 10
110.815940
 20
207.072965
 30
0.0
 10
110.495050
 20
208.063491
 30
0.0
 10
110.106220
 20
208.850222
 30
0.0
  0
SPLINE
  5
208
100
AcDbEntity
  8
Calque_1
 62
7
100
AcDbSpline
 70
8
 71
3
 72
8
 73
4
 74
0
 40
0
 40
0
 40
0
 40
0
 40
1
 40
1
 40
1
 40
1
 10
110.106220
 20
208.850222
 30
0.0
 10
109.655670
 20
209.761863
 30
0.0
 10
109.145050
 20
210.437792
 30
0.0
 10
108.333320
 20
211.197128
 30
0.0
  0
SPLINE
  5
209
100
AcDbEntity
  8
Calque_1
 62
7
100
AcDbSpline
 70
8
 71
3
 72
8
 73
4
 74
0
 40
0
 40
0
 40
0
 40
0
 40
1
 40
1
 40
1
 40
1
 10
108.333320
 20
211.197128
 30
0.0
 10
107.706270
 20
211.783701
 30
0.0
 10
106.745840
 20
212.475276
 30
0.0
 10
106.199020
 20
212.733961
 30
0.0
  0
SPLINE
  5
20a
100
AcDbEntity
  8
Calque_1
 62
7
100
AcDbSpline
 70
8
 71
3
 72
8
 73
4
 74
0
 40
0
 40
0
 40
0
 40
0
 40
1
 40
1
 40
1
 40
1
 10
106.199020
 20
212.733961
 30
0.0
 10
105.652210
 20
212.992646
 30
0.0
 10
104.746660
 20
213.290146
 30
0.0
 10
104.186700
 20
213.395071
 30
0.0
  0
SPLINE
  5
20b
100
AcDbEntity
  8
Calque_1
 62
7
100
AcDbSpline
 70
8
 71
3
 72
8
 73
4
 74
0
 40
0
 40
0
 40
0
 40
0
 40
1
 40
1
 40
1
 40
1
 10
104.186700
 20
213.395071
 30
0.0
 10
103.626730
 20
213.499997
 30
0.0
 10
102.499630
 20
213.545232
 30
0.0
 10
101.682030
 20
213.495593
 30
0.0
  0
SPLINE
  5
20c
100
AcDbEntity
  8
Calque_1
 62
7
100
AcDbSpline
 70
8
 71
3
 72
8
 73
4
 74
0
 40
0
 40
0
 40
0
 40
0
 40
1
 40
1
 40
1
 40
1
 10
101.682030
 20
213.495593
 30
0.0
 10
100.404440
 20
213.418023
 30
0.0
 10
99.992621
 20
213.304796
 30
0.0
 10
98.752241
 20
212.690052
 30
0.0
  0
SPLINE
  5
20d
100
AcDbEntity
  8
Calque_1
 62
7
100
AcDbSpline
 70
8
 71
3
 72
8
 73
4
 74
0
 40
0
 40
0
 40
0
 40
0
 40
1
 40
1
 40
1
 40
1
 10
98.752241
 20
212.690052
 30
0.0
 10
97.832231
 20
212.234084
 30
0.0
 10
96.971751
 20
211.635660
 30
0.0
 10
96.378751
 20
211.039405
 30
0.0
  0
SPLINE
  5
20e
100
AcDbEntity
  8
Calque_1
 62
7
100
AcDbSpline
 70
8
 71
3
 72
8
 73
4
 74
0
 40
0
 40
0
 40
0
 40
0
 40
1
 40
1
 40
1
 40
1
 10
96.378751
 20
211.039405
 30
0.0
 10
95.854601
 20
210.512382
 30
0.0
 10
95.118201
 20
209.479504
 30
0.0
 10
94.691901
 20
208.673434
 30
0.0
  0
LWPOLYLINE
  5
20f
100
AcDbEntity
  8
Calque_1
 62
7
100
AcDbPolyline
 90
1
 70
1
 10
95.147821
 20
195.152020
 30
0.0
  0
SPLINE
  5
210
100
AcDbEntity
  8
Calque_1
 62
7
100
AcDbSpline
 70
8
 71
3
 72
8
 73
4
 74
0
 40
0
 40
0
 40
0
 40
0
 40
1
 40
1
 40
1
 40
1
 10
94.642981
 20
201.208252
 30
0.0
 10
95.104481
 20
200.283576
 30
0.0
 10
95.704931
 20
199.436046
 30
0.0
 10
96.369061
 20
198.771916
 30
0.0
  0
SPLINE
  5
211
100
AcDbEntity
  8
Calque_1
 62
7
100
AcDbSpline
 70
8
 71
3
 72
8
 73
4
 74
0
 40
0
 40
0
 40
0
 40
0
 40
1
 40
1
 40
1
 40
1
 10
96.369061
 20
198.771916
 30
0.0
 10
96.929181
 20
198.211806
 30
0.0
 10
97.878231
 20
197.505786
 30
0.0
 10
98.478061
 20
197.202986
 30
0.0
  0
SPLINE
  5
212
100
AcDbEntity
  8
Calque_1
 62
7
100
AcDbSpline
 70
8
 71
3
 72
8
 73
4
 74
0
 40
0
 40
0
 40
0
 40
0
 40
1
 40
1
 40
1
 40
1
 10
98.478061
 20
197.202986
 30
0.0
 10
99.077891
 20
196.900200
 30
0.0
 10
99.899221
 20
196.587020
 30
0.0
 10
100.303240
 20
196.507030
 30
0.0
  0
SPLINE
  5
213
100
AcDbEntity
  8
Calque_1
 62
7
100
AcDbSpline
 70
8
 71
3
 72
8
 73
4
 74
0
 40
0
 40
0
 40
0
 40
0
 40
1
 40
1
 40
1
 40
1
 10
100.303240
 20
196.507030
 30
0.0
 10
100.707260
 20
196.427030
 30
0.0
 10
101.597140
 20
196.354040
 30
0.0
 10
102.280760
 20
196.344780
 30
0.0
  0
SPLINE
  5
214
100
AcDbEntity
  8
Calque_1
 62
7
100
AcDbSpline
 70
8
 71
3
 72
8
 73
4
 74
0
 40
0
 40
0
 40
0
 40
0
 40
1
 40
1
 40
1
 40
1
 10
102.280760
 20
196.344780
 30
0.0
 10
102.964380
 20
196.335780
 30
0.0
 10
104.025610
 20
196.446280
 30
0.0
 10
104.639060
 20
196.590910
 30
0.0
  0
LWPOLYLINE
  5
215
100
AcDbEntity
  8
Calque_1
 62
7
100
AcDbPolyline
 90
3
 70
0
 10
94.691901
 20
208.673434
 30
0.0
 10
93.935301
 20
204.934504
 30
0.0
 10
94.642981
 20
201.208252
 30
0.0
  0
SPLINE
  5
216
100
AcDbEntity
  8
Calque_1
 62
7
100
AcDbSpline
 70
8
 71
3
 72
8
 73
4
 74
0
 40
0
 40
0
 40
0
 40
0
 40
1
 40
1
 40
1
 40
1
 10
130.970880
 20
219.509461
 30
0.0
 10
130.979880
 20
219.716312
 30
0.0
 10
131.021480
 20
219.758386
 30
0.0
 10
131.078150
 20
219.616739
 30
0.0
  0
SPLINE
  5
217
100
AcDbEntity
  8
Calque_1
 62
7
100
AcDbSpline
 70
8
 71
3
 72
8
 73
4
 74
0
 40
0
 40
0
 40
0
 40
0
 40
1
 40
1
 40
1
 40
1
 10
131.078150
 20
219.616739
 30
0.0
 10
131.129450
 20
219.488560
 30
0.0
 10
131.123150
 20
219.335412
 30
0.0
 10
131.064150
 20
219.276410
 30
0.0
  0
SPLINE
  5
218
100
AcDbEntity
  8
Calque_1
 62
7
100
AcDbSpline
 70
8
 71
3
 72
8
 73
4
 74
0
 40
0
 40
0
 40
0
 40
0
 40
1
 40
1
 40
1
 40
1
 10
131.064150
 20
219.276410
 30
0.0
 10
131.005150
 20
219.217410
 30
0.0
 10
130.963180
 20
219.322280
 30
0.0
 10
130.970850
 20
219.509461
 30
0.0
  0
LWPOLYLINE
  5
219
100
AcDbEntity
  8
Calque_1
 62
7
100
AcDbPolyline
 90
2
 70
0
 10
104.639060
 20
196.590910
 30
0.0
 10
104.638750
 20
196.590910
 30
0.0
  0
LWPOLYLINE
  5
21a
100
AcDbEntity
  8
Calque_1
 62
7
100
AcDbPolyline
 90
1
 70
1
 10
130.970850
 20
219.509461
 30
0.0
  0
ENDSEC
  0
SECTION
  2
OBJECTS
  0
DICTIONARY
  5
C
330
0
100
AcDbDictionary
  3
ACAD_GROUP
350
D
  3
ACAD_MLINESTYLE
350
17
  0
DICTIONARY
  5
D
330
C
100
AcDbDictionary
  0
DICTIONARY
  5
1A
330
C
100
AcDbDictionary
  0
DICTIONARY
  5
17
330
C
100
AcDbDictionary
  3
STANDARD
350
18
  0
DICTIONARY
  5
19
330
C
100
AcDbDictionary
  0
ENDSEC
  0
EOF
