  0
SECTION
  2
HEADER
  9
$ACADVER
  1
AC1014
  9
$HANDSEED
  5
FFFF
  9
$INSUNITS
 70
     4
  9
$MEASUREMENT
 70
     1
  0
ENDSEC
  0
SECTION
  2
TABLES
  0
TABLE
  2
VPORT
  5
8
330
0
100
AcDbSymbolTable
 70
     4
  0
VPORT
  5
2E
330
8
100
AcDbSymbolTableRecord
100
AcDbViewportTableRecord
  2
*ACTIVE
 70
     0
 10
0.0
 20
0.0
 11
1.0
 21
1.0
 12
210.0
 22
148.5
 13
0.0
 23
0.0
 14
10.0
 24
10.0
 15
10.0
 25
10.0
 16
0.0
 26
0.0
 36
1.0
 17
0.0
 27
0.0
 37
0.0
 40
341.0
 41
1.24
 42
50.0
 43
0.0
 44
0.0
 50
0.0
 51
0.0
 71
     0
 72
   100
 73
     1
 74
     3
 75
     0
 76
     0
 77
     0
 78
     0
  0
ENDTAB
  0
TABLE
  2
LTYPE
  5
5
330
0
100
AcDbSymbolTable
 70
     1
  0
LTYPE
  5
14
330
5
100
AcDbSymbolTableRecord
100
AcDbLinetypeTableRecord
  2
BYBLOCK
 70
     0
  3

 72
    65
 73
     0
 40
0.0
  0
LTYPE
  5
15
330
5
100
AcDbSymbolTableRecord
100
AcDbLinetypeTableRecord
  2
BYLAYER
 70
     0
  3

 72
    65
 73
     0
 40
0.0
  0
LTYPE
  5
16
330
5
100
AcDbSymbolTableRecord
100
AcDbLinetypeTableRecord
  2
CONTINUOUS
 70
     0
  3
Solid line
 72
    65
 73
     0
 40
0.0
  0
ENDTAB
  0
TABLE
  2
LAYER
  5
2
100
AcDbSymbolTable
 70
2
  0
LAYER
  5
50
100
AcDbSymbolTableRecord
100
AcDbLayerTableRecord
  2
0
 70
0
  6
CONTINUOUS
  0
LAYER
  5
51
100
AcDbSymbolTableRecord
100
AcDbLayerTableRecord
  2
Calque_1
 70
0
  6
CONTINUOUS
  0
ENDTAB
  0
TABLE
  2
STYLE
  5
3
330
0
100
AcDbSymbolTable
 70
     1
  0
STYLE
  5
11
330
3
100
AcDbSymbolTableRecord
100
AcDbTextStyleTableRecord
  2
STANDARD
 70
     0
 40
0.0
 41
1.0
 50
0.0
 71
     0
 42
2.5
  3
txt
  4

  0
ENDTAB
  0
TABLE
  2
VIEW
  5
6
330
0
100
AcDbSymbolTable
 70
     0
  0
ENDTAB
  0
TABLE
  2
UCS
  5
7
330
0
100
AcDbSymbolTable
 70
     0
  0
ENDTAB
  0
TABLE
  2
APPID
  5
9
330
0
100
AcDbSymbolTable
 70
     2
  0
APPID
  5
12
330
9
100
AcDbSymbolTableRecord
100
AcDbRegAppTableRecord
  2
ACAD
 70
     0
  0
ENDTAB
  0
TABLE
  2
DIMSTYLE
  5
A
330
0
100
AcDbSymbolTable
 70
     1
  0
DIMSTYLE
105
27
330
A
100
AcDbSymbolTableRecord
100
AcDbDimStyleTableRecord
  2
ISO-25
 70
     0
  3

  4

  5

  6

  7

 40
1.0
 41
2.5
 42
0.625
 43
3.75
 44
1.25
 45
0.0
 46
0.0
 47
0.0
 48
0.0
140
2.5
141
2.5
142
0.0
143
0.03937007874016
144
1.0
145
0.0
146
1.0
147
0.625
 71
     0
 72
     0
 73
     0
 74
     0
 75
     0
 76
     0
 77
     1
 78
     8
170
     0
171
     3
172
     1
173
     0
174
     0
175
     0
176
     0
177
     0
178
     0
270
     2
271
     2
272
     2
273
     2
274
     3
340
11
275
     0
280
     0
281
     0
282
     0
283
     0
284
     8
285
     0
286
     0
287
     3
288
     0
  0
ENDTAB
  0
TABLE
  2
BLOCK_RECORD
  5
1
330
0
100
AcDbSymbolTable
 70
     1
  0
BLOCK_RECORD
  5
1F
330
1
100
AcDbSymbolTableRecord
100
AcDbBlockTableRecord
  2
*MODEL_SPACE
  0
BLOCK_RECORD
  5
1B
330
1
100
AcDbSymbolTableRecord
100
AcDbBlockTableRecord
  2
*PAPER_SPACE
  0
ENDTAB
  0
ENDSEC
  0
SECTION
  2
BLOCKS
  0
BLOCK
  5
20
330
1F
100
AcDbEntity
  8
0
100
AcDbBlockBegin
  2
*MODEL_SPACE
 70
     0
 10
0.0
 20
0.0
 30
0.0
  3
*MODEL_SPACE
  1

  0
ENDBLK
  5
21
330
1F
100
AcDbEntity
  8
0
100
AcDbBlockEnd
  0
BLOCK
  5
1C
330
1B
100
AcDbEntity
 67
     1
  8
0
100
AcDbBlockBegin
  2
*PAPER_SPACE
  1

  0
ENDBLK
  5
1D
330
1B
100
AcDbEntity
 67
     1
  8
0
100
AcDbBlockEnd
  0
ENDSEC
  0
SECTION
  2
ENTITIES
  0
SPLINE
  5
100
100
AcDbEntity
  8
Calque_1
 62
7
100
AcDbSpline
 70
8
 71
3
 72
8
 73
4
 74
0
 40
0
 40
0
 40
0
 40
0
 40
1
 40
1
 40
1
 40
1
 10
86.182761
 20
160.815260
 30
0.0
 10
85.401491
 20
160.896760
 30
0.0
 10
84.123031
 20
161.090880
 30
0.0
 10
83.341761
 20
161.246630
 30
0.0
  0
SPLINE
  5
101
100
AcDbEntity
  8
Calque_1
 62
7
100
AcDbSpline
 70
8
 71
3
 72
8
 73
4
 74
0
 40
0
 40
0
 40
0
 40
0
 40
1
 40
1
 40
1
 40
1
 10
83.341761
 20
161.246630
 30
0.0
 10
82.560481
 20
161.402380
 30
0.0
 10
81.095041
 20
161.804680
 30
0.0
 10
80.085211
 20
162.140630
 30
0.0
  0
SPLINE
  5
102
100
AcDbEntity
  8
Calque_1
 62
7
100
AcDbSpline
 70
8
 71
3
 72
8
 73
4
 74
0
 40
0
 40
0
 40
0
 40
0
 40
1
 40
1
 40
1
 40
1
 10
80.085211
 20
162.140630
 30
0.0
 10
79.075391
 20
162.476590
 30
0.0
 10
77.452911
 20
163.160470
 30
0.0
 10
76.479711
 20
163.660370
 30
0.0
  0
SPLINE
  5
103
100
AcDbEntity
  8
Calque_1
 62
7
100
AcDbSpline
 70
8
 71
3
 72
8
 73
4
 74
0
 40
0
 40
0
 40
0
 40
0
 40
1
 40
1
 40
1
 40
1
 10
76.479711
 20
163.660370
 30
0.0
 10
75.506511
 20
164.160270
 30
0.0
 10
74.063461
 20
165.031620
 30
0.0
 10
73.272941
 20
165.596710
 30
0.0
  0
SPLINE
  5
104
100
AcDbEntity
  8
Calque_1
 62
7
100
AcDbSpline
 70
8
 71
3
 72
8
 73
4
 74
0
 40
0
 40
0
 40
0
 40
0
 40
1
 40
1
 40
1
 40
1
 10
73.272941
 20
165.596710
 30
0.0
 10
72.482411
 20
166.161790
 30
0.0
 10
71.251961
 20
167.152750
 30
0.0
 10
70.538601
 20
167.798840
 30
0.0
  0
SPLINE
  5
105
100
AcDbEntity
  8
Calque_1
 62
7
100
AcDbSpline
 70
8
 71
3
 72
8
 73
4
 74
0
 40
0
 40
0
 40
0
 40
0
 40
1
 40
1
 40
1
 40
1
 10
70.538601
 20
167.798840
 30
0.0
 10
69.825231
 20
168.444930
 30
0.0
 10
68.769791
 20
169.551000
 30
0.0
 10
68.193171
 20
170.256760
 30
0.0
  0
SPLINE
  5
106
100
AcDbEntity
  8
Calque_1
 62
7
100
AcDbSpline
 70
8
 71
3
 72
8
 73
4
 74
0
 40
0
 40
0
 40
0
 40
0
 40
1
 40
1
 40
1
 40
1
 10
68.193171
 20
170.256760
 30
0.0
 10
67.616551
 20
170.962520
 30
0.0
 10
66.784071
 20
172.099290
 30
0.0
 10
66.343221
 20
172.782900
 30
0.0
  0
SPLINE
  5
107
100
AcDbEntity
  8
Calque_1
 62
7
100
AcDbSpline
 70
8
 71
3
 72
8
 73
4
 74
0
 40
0
 40
0
 40
0
 40
0
 40
1
 40
1
 40
1
 40
1
 10
66.343221
 20
172.782900
 30
0.0
 10
65.902361
 20
173.466520
 30
0.0
 10
65.251721
 20
174.603470
 30
0.0
 10
64.897351
 20
175.309450
 30
0.0
  0
SPLINE
  5
108
100
AcDbEntity
  8
Calque_1
 62
7
100
AcDbSpline
 70
8
 71
3
 72
8
 73
4
 74
0
 40
0
 40
0
 40
0
 40
0
 40
1
 40
1
 40
1
 40
1
 10
64.897351
 20
175.309450
 30
0.0
 10
64.542971
 20
176.015430
 30
0.0
 10
64.016761
 20
177.187840
 30
0.0
 10
63.727981
 20
177.914800
 30
0.0
  0
SPLINE
  5
109
100
AcDbEntity
  8
Calque_1
 62
7
100
AcDbSpline
 70
8
 71
3
 72
8
 73
4
 74
0
 40
0
 40
0
 40
0
 40
0
 40
1
 40
1
 40
1
 40
1
 10
63.727981
 20
177.914800
 30
0.0
 10
63.439201
 20
178.641760
 30
0.0
 10
63.045741
 20
179.861970
 30
0.0
 10
62.853641
 20
180.626360
 30
0.0
  0
SPLINE
  5
10a
100
AcDbEntity
  8
Calque_1
 62
7
100
AcDbSpline
 70
8
 71
3
 72
8
 73
4
 74
0
 40
0
 40
0
 40
0
 40
0
 40
1
 40
1
 40
1
 40
1
 10
62.853641
 20
180.626360
 30
0.0
 10
62.661531
 20
181.390760
 30
0.0
 10
62.407721
 20
182.802880
 30
0.0
 10
62.289611
 20
183.764410
 30
0.0
  0
SPLINE
  5
10b
100
AcDbEntity
  8
Calque_1
 62
7
100
AcDbSpline
 70
8
 71
3
 72
8
 73
4
 74
0
 40
0
 40
0
 40
0
 40
0
 40
1
 40
1
 40
1
 40
1
 10
62.289611
 20
183.764410
 30
0.0
 10
62.154951
 20
184.860610
 30
0.0
 10
62.111771
 20
186.615570
 30
0.0
 10
62.173811
 20
188.469830
 30
0.0
  0
SPLINE
  5
10c
100
AcDbEntity
  8
Calque_1
 62
7
100
AcDbSpline
 70
8
 71
3
 72
8
 73
4
 74
0
 40
0
 40
0
 40
0
 40
0
 40
1
 40
1
 40
1
 40
1
 10
62.173811
 20
188.469830
 30
0.0
 10
62.251511
 20
190.792510
 30
0.0
 10
62.368231
 20
191.807990
 30
0.0
 10
62.717701
 20
193.202640
 30
0.0
  0
SPLINE
  5
10d
100
AcDbEntity
  8
Calque_1
 62
7
100
AcDbSpline
 70
8
 71
3
 72
8
 73
4
 74
0
 40
0
 40
0
 40
0
 40
0
 40
1
 40
1
 40
1
 40
1
 10
62.717701
 20
193.202640
 30
0.0
 10
62.962421
 20
194.179240
 30
0.0
 10
63.377141
 20
195.577540
 30
0.0
 10
63.639311
 20
196.309990
 30
0.0
  0
SPLINE
  5
10e
100
AcDbEntity
  8
Calque_1
 62
7
100
AcDbSpline
 70
8
 71
3
 72
8
 73
4
 74
0
 40
0
 40
0
 40
0
 40
0
 40
1
 40
1
 40
1
 40
1
 10
63.639311
 20
196.309990
 30
0.0
 10
63.901481
 20
197.042442
 30
0.0
 10
64.517441
 20
198.427572
 30
0.0
 10
65.008121
 20
199.388062
 30
0.0
  0
SPLINE
  5
10f
100
AcDbEntity
  8
Calque_1
 62
7
100
AcDbSpline
 70
8
 71
3
 72
8
 73
4
 74
0
 40
0
 40
0
 40
0
 40
0
 40
1
 40
1
 40
1
 40
1
 10
65.008121
 20
199.388062
 30
0.0
 10
65.498801
 20
200.348552
 30
0.0
 10
66.339051
 20
201.746852
 30
0.0
 10
66.875351
 20
202.495412
 30
0.0
  0
SPLINE
  5
110
100
AcDbEntity
  8
Calque_1
 62
7
100
AcDbSpline
 70
8
 71
3
 72
8
 73
4
 74
0
 40
0
 40
0
 40
0
 40
0
 40
1
 40
1
 40
1
 40
1
 10
66.875351
 20
202.495412
 30
0.0
 10
67.411641
 20
203.243962
 30
0.0
 10
68.332091
 20
204.400532
 30
0.0
 10
68.920781
 20
205.065572
 30
0.0
  0
SPLINE
  5
111
100
AcDbEntity
  8
Calque_1
 62
7
100
AcDbSpline
 70
8
 71
3
 72
8
 73
4
 74
0
 40
0
 40
0
 40
0
 40
0
 40
1
 40
1
 40
1
 40
1
 10
68.920781
 20
205.065572
 30
0.0
 10
69.509471
 20
205.730602
 30
0.0
 10
70.587041
 20
206.767642
 30
0.0
 10
71.315381
 20
207.370102
 30
0.0
  0
SPLINE
  5
112
100
AcDbEntity
  8
Calque_1
 62
7
100
AcDbSpline
 70
8
 71
3
 72
8
 73
4
 74
0
 40
0
 40
0
 40
0
 40
0
 40
1
 40
1
 40
1
 40
1
 10
71.315381
 20
207.370102
 30
0.0
 10
72.043711
 20
207.972562
 30
0.0
 10
73.161671
 20
208.826752
 30
0.0
 10
73.799731
 20
209.268302
 30
0.0
  0
SPLINE
  5
113
100
AcDbEntity
  8
Calque_1
 62
7
100
AcDbSpline
 70
8
 71
3
 72
8
 73
4
 74
0
 40
0
 40
0
 40
0
 40
0
 40
1
 40
1
 40
1
 40
1
 10
73.799731
 20
209.268302
 30
0.0
 10
74.437791
 20
209.709852
 30
0.0
 10
75.039401
 20
210.198062
 30
0.0
 10
75.136651
 20
210.353202
 30
0.0
  0
SPLINE
  5
114
100
AcDbEntity
  8
Calque_1
 62
7
100
AcDbSpline
 70
8
 71
3
 72
8
 73
4
 74
0
 40
0
 40
0
 40
0
 40
0
 40
1
 40
1
 40
1
 40
1
 10
75.136651
 20
210.353202
 30
0.0
 10
75.273501
 20
210.571522
 30
0.0
 10
75.029931
 20
211.064602
 30
0.0
 10
74.059101
 20
212.534542
 30
0.0
  0
SPLINE
  5
115
100
AcDbEntity
  8
Calque_1
 62
7
100
AcDbSpline
 70
8
 71
3
 72
8
 73
4
 74
0
 40
0
 40
0
 40
0
 40
0
 40
1
 40
1
 40
1
 40
1
 10
74.059101
 20
212.534542
 30
0.0
 10
73.369211
 20
213.579142
 30
0.0
 10
72.558141
 20
215.026172
 30
0.0
 10
72.256731
 20
215.750182
 30
0.0
  0
SPLINE
  5
116
100
AcDbEntity
  8
Calque_1
 62
7
100
AcDbSpline
 70
8
 71
3
 72
8
 73
4
 74
0
 40
0
 40
0
 40
0
 40
0
 40
1
 40
1
 40
1
 40
1
 10
72.256731
 20
215.750182
 30
0.0
 10
71.955331
 20
216.474192
 30
0.0
 10
71.571361
 20
217.570073
 30
0.0
 10
71.403461
 20
218.185476
 30
0.0
  0
SPLINE
  5
117
100
AcDbEntity
  8
Calque_1
 62
7
100
AcDbSpline
 70
8
 71
3
 72
8
 73
4
 74
0
 40
0
 40
0
 40
0
 40
0
 40
1
 40
1
 40
1
 40
1
 10
71.403461
 20
218.185476
 30
0.0
 10
71.167571
 20
219.050124
 30
0.0
 10
71.098201
 20
220.030699
 30
0.0
 10
71.098201
 20
222.500525
 30
0.0
  0
SPLINE
  5
118
100
AcDbEntity
  8
Calque_1
 62
7
100
AcDbSpline
 70
8
 71
3
 72
8
 73
4
 74
0
 40
0
 40
0
 40
0
 40
0
 40
1
 40
1
 40
1
 40
1
 10
71.098201
 20
222.500525
 30
0.0
 10
71.098201
 20
224.983774
 30
0.0
 10
71.167001
 20
225.949205
 30
0.0
 10
71.406891
 20
226.828927
 30
0.0
  0
SPLINE
  5
119
100
AcDbEntity
  8
Calque_1
 62
7
100
AcDbSpline
 70
8
 71
3
 72
8
 73
4
 74
0
 40
0
 40
0
 40
0
 40
0
 40
1
 40
1
 40
1
 40
1
 10
71.406891
 20
226.828927
 30
0.0
 10
71.576661
 20
227.451676
 30
0.0
 10
71.986081
 20
228.585436
 30
0.0
 10
72.316721
 20
229.348395
 30
0.0
  0
SPLINE
  5
11a
100
AcDbEntity
  8
Calque_1
 62
7
100
AcDbSpline
 70
8
 71
3
 72
8
 73
4
 74
0
 40
0
 40
0
 40
0
 40
0
 40
1
 40
1
 40
1
 40
1
 10
72.316721
 20
229.348395
 30
0.0
 10
72.647351
 20
230.111354
 30
0.0
 10
73.355351
 20
231.399657
 30
0.0
 10
73.890051
 20
232.211291
 30
0.0
  0
SPLINE
  5
11b
100
AcDbEntity
  8
Calque_1
 62
7
100
AcDbSpline
 70
8
 71
3
 72
8
 73
4
 74
0
 40
0
 40
0
 40
0
 40
0
 40
1
 40
1
 40
1
 40
1
 10
73.890051
 20
232.211291
 30
0.0
 10
74.424751
 20
233.022925
 30
0.0
 10
75.411771
 20
234.233460
 30
0.0
 10
76.083431
 20
234.901368
 30
0.0
  0
SPLINE
  5
11c
100
AcDbEntity
  8
Calque_1
 62
7
100
AcDbSpline
 70
8
 71
3
 72
8
 73
4
 74
0
 40
0
 40
0
 40
0
 40
0
 40
1
 40
1
 40
1
 40
1
 10
76.083431
 20
234.901368
 30
0.0
 10
76.755081
 20
235.569277
 30
0.0
 10
78.016351
 20
236.587088
 30
0.0
 10
78.886261
 20
237.163172
 30
0.0
  0
SPLINE
  5
11d
100
AcDbEntity
  8
Calque_1
 62
7
100
AcDbSpline
 70
8
 71
3
 72
8
 73
4
 74
0
 40
0
 40
0
 40
0
 40
0
 40
1
 40
1
 40
1
 40
1
 10
78.886261
 20
237.163172
 30
0.0
 10
79.756161
 20
237.739256
 30
0.0
 10
81.097941
 20
238.453570
 30
0.0
 10
81.868001
 20
238.750536
 30
0.0
  0
SPLINE
  5
11e
100
AcDbEntity
  8
Calque_1
 62
7
100
AcDbSpline
 70
8
 71
3
 72
8
 73
4
 74
0
 40
0
 40
0
 40
0
 40
0
 40
1
 40
1
 40
1
 40
1
 10
81.868001
 20
238.750536
 30
0.0
 10
82.638061
 20
239.047502
 30
0.0
 10
83.963861
 20
239.456526
 30
0.0
 10
84.814221
 20
239.659478
 30
0.0
  0
SPLINE
  5
11f
100
AcDbEntity
  8
Calque_1
 62
7
100
AcDbSpline
 70
8
 71
3
 72
8
 73
4
 74
0
 40
0
 40
0
 40
0
 40
0
 40
1
 40
1
 40
1
 40
1
 10
84.814221
 20
239.659478
 30
0.0
 10
86.135581
 20
239.974842
 30
0.0
 10
86.734591
 20
240.015497
 30
0.0
 10
88.934991
 20
239.939153
 30
0.0
  0
SPLINE
  5
120
100
AcDbEntity
  8
Calque_1
 62
7
100
AcDbSpline
 70
8
 71
3
 72
8
 73
4
 74
0
 40
0
 40
0
 40
0
 40
0
 40
1
 40
1
 40
1
 40
1
 10
88.934991
 20
239.939153
 30
0.0
 10
90.955791
 20
239.869043
 30
0.0
 10
91.910721
 20
239.745499
 30
0.0
 10
93.374061
 20
239.364865
 30
0.0
  0
SPLINE
  5
121
100
AcDbEntity
  8
Calque_1
 62
7
100
AcDbSpline
 70
8
 71
3
 72
8
 73
4
 74
0
 40
0
 40
0
 40
0
 40
0
 40
1
 40
1
 40
1
 40
1
 10
93.374061
 20
239.364865
 30
0.0
 10
95.098691
 20
238.916268
 30
0.0
 10
95.591881
 20
238.871616
 30
0.0
 10
99.951991
 20
238.769329
 30
0.0
  0
SPLINE
  5
122
100
AcDbEntity
  8
Calque_1
 62
7
100
AcDbSpline
 70
8
 71
3
 72
8
 73
4
 74
0
 40
0
 40
0
 40
0
 40
0
 40
1
 40
1
 40
1
 40
1
 10
99.951991
 20
238.769329
 30
0.0
 10
104.020720
 20
238.673879
 30
0.0
 10
104.730350
 20
238.616244
 30
0.0
 10
105.139460
 20
238.348016
 30
0.0
  0
SPLINE
  5
123
100
AcDbEntity
  8
Calque_1
 62
7
100
AcDbSpline
 70
8
 71
3
 72
8
 73
4
 74
0
 40
0
 40
0
 40
0
 40
0
 40
1
 40
1
 40
1
 40
1
 10
105.139460
 20
238.348016
 30
0.0
 10
105.400130
 20
238.177112
 30
0.0
 10
105.716100
 20
237.857499
 30
0.0
 10
105.841610
 20
237.637765
 30
0.0
  0
SPLINE
  5
124
100
AcDbEntity
  8
Calque_1
 62
7
100
AcDbSpline
 70
8
 71
3
 72
8
 73
4
 74
0
 40
0
 40
0
 40
0
 40
0
 40
1
 40
1
 40
1
 40
1
 10
105.841610
 20
237.637765
 30
0.0
 10
106.004670
 20
237.352286
 30
0.0
 10
106.069810
 20
236.309186
 30
0.0
 10
106.069810
 20
233.983411
 30
0.0
  0
SPLINE
  5
125
100
AcDbEntity
  8
Calque_1
 62
7
100
AcDbSpline
 70
8
 71
3
 72
8
 73
4
 74
0
 40
0
 40
0
 40
0
 40
0
 40
1
 40
1
 40
1
 40
1
 10
106.069810
 20
233.983411
 30
0.0
 10
106.069810
 20
230.966411
 30
0.0
 10
106.044610
 20
230.710157
 30
0.0
 10
105.725140
 20
230.476543
 30
0.0
  0
SPLINE
  5
126
100
AcDbEntity
  8
Calque_1
 62
7
100
AcDbSpline
 70
8
 71
3
 72
8
 73
4
 74
0
 40
0
 40
0
 40
0
 40
0
 40
1
 40
1
 40
1
 40
1
 10
105.725140
 20
230.476543
 30
0.0
 10
105.535570
 20
230.337926
 30
0.0
 10
105.147480
 20
230.224512
 30
0.0
 10
104.862720
 20
230.224512
 30
0.0
  0
SPLINE
  5
127
100
AcDbEntity
  8
Calque_1
 62
7
100
AcDbSpline
 70
8
 71
3
 72
8
 73
4
 74
0
 40
0
 40
0
 40
0
 40
0
 40
1
 40
1
 40
1
 40
1
 10
104.862720
 20
230.224512
 30
0.0
 10
104.440970
 20
230.224512
 30
0.0
 10
104.367860
 20
230.166892
 30
0.0
 10
104.468420
 20
229.913777
 30
0.0
  0
SPLINE
  5
128
100
AcDbEntity
  8
Calque_1
 62
7
100
AcDbSpline
 70
8
 71
3
 72
8
 73
4
 74
0
 40
0
 40
0
 40
0
 40
0
 40
1
 40
1
 40
1
 40
1
 10
104.468420
 20
229.913777
 30
0.0
 10
104.536320
 20
229.742873
 30
0.0
 10
104.814760
 20
228.923864
 30
0.0
 10
105.087180
 20
228.093757
 30
0.0
  0
SPLINE
  5
129
100
AcDbEntity
  8
Calque_1
 62
7
100
AcDbSpline
 70
8
 71
3
 72
8
 73
4
 74
0
 40
0
 40
0
 40
0
 40
0
 40
1
 40
1
 40
1
 40
1
 10
105.087180
 20
228.093757
 30
0.0
 10
105.359600
 20
227.263650
 30
0.0
 10
105.686150
 20
225.985197
 30
0.0
 10
105.812840
 20
225.252750
 30
0.0
  0
SPLINE
  5
12a
100
AcDbEntity
  8
Calque_1
 62
7
100
AcDbSpline
 70
8
 71
3
 72
8
 73
4
 74
0
 40
0
 40
0
 40
0
 40
0
 40
1
 40
1
 40
1
 40
1
 10
105.812840
 20
225.252750
 30
0.0
 10
105.939540
 20
224.520303
 30
0.0
 10
106.039380
 20
223.241850
 30
0.0
 10
106.034730
 20
222.411743
 30
0.0
  0
SPLINE
  5
12b
100
AcDbEntity
  8
Calque_1
 62
7
100
AcDbSpline
 70
8
 71
3
 72
8
 73
4
 74
0
 40
0
 40
0
 40
0
 40
0
 40
1
 40
1
 40
1
 40
1
 10
106.034730
 20
222.411743
 30
0.0
 10
106.029730
 20
221.581637
 30
0.0
 10
105.932450
 20
220.383087
 30
0.0
 10
105.817770
 20
219.748299
 30
0.0
  0
SPLINE
  5
12c
100
AcDbEntity
  8
Calque_1
 62
7
100
AcDbSpline
 70
8
 71
3
 72
8
 73
4
 74
0
 40
0
 40
0
 40
0
 40
0
 40
1
 40
1
 40
1
 40
1
 10
105.817770
 20
219.748299
 30
0.0
 10
105.703090
 20
219.113512
 30
0.0
 10
105.401950
 20
217.954914
 30
0.0
 10
105.148550
 20
217.173637
 30
0.0
  0
SPLINE
  5
12d
100
AcDbEntity
  8
Calque_1
 62
7
100
AcDbSpline
 70
8
 71
3
 72
8
 73
4
 74
0
 40
0
 40
0
 40
0
 40
0
 40
1
 40
1
 40
1
 40
1
 10
105.148550
 20
217.173637
 30
0.0
 10
104.895160
 20
216.392362
 30
0.0
 10
104.387720
 20
215.153862
 30
0.0
 10
104.020900
 20
214.421412
 30
0.0
  0
SPLINE
  5
12e
100
AcDbEntity
  8
Calque_1
 62
7
100
AcDbSpline
 70
8
 71
3
 72
8
 73
4
 74
0
 40
0
 40
0
 40
0
 40
0
 40
1
 40
1
 40
1
 40
1
 10
104.020900
 20
214.421412
 30
0.0
 10
103.654090
 20
213.688962
 30
0.0
 10
102.946260
 20
212.532082
 30
0.0
 10
102.447960
 20
211.850552
 30
0.0
  0
SPLINE
  5
12f
100
AcDbEntity
  8
Calque_1
 62
7
100
AcDbSpline
 70
8
 71
3
 72
8
 73
4
 74
0
 40
0
 40
0
 40
0
 40
0
 40
1
 40
1
 40
1
 40
1
 10
102.447960
 20
211.850552
 30
0.0
 10
101.949660
 20
211.169022
 30
0.0
 10
101.544750
 20
210.569752
 30
0.0
 10
101.548160
 20
210.518832
 30
0.0
  0
SPLINE
  5
130
100
AcDbEntity
  8
Calque_1
 62
7
100
AcDbSpline
 70
8
 71
3
 72
8
 73
4
 74
0
 40
0
 40
0
 40
0
 40
0
 40
1
 40
1
 40
1
 40
1
 10
101.548160
 20
210.518832
 30
0.0
 10
101.551160
 20
210.467932
 30
0.0
 10
102.226440
 20
209.995772
 30
0.0
 10
103.047870
 20
209.469632
 30
0.0
  0
SPLINE
  5
131
100
AcDbEntity
  8
Calque_1
 62
7
100
AcDbSpline
 70
8
 71
3
 72
8
 73
4
 74
0
 40
0
 40
0
 40
0
 40
0
 40
1
 40
1
 40
1
 40
1
 10
103.047870
 20
209.469632
 30
0.0
 10
103.869290
 20
208.943502
 30
0.0
 10
105.244830
 20
207.898212
 30
0.0
 10
106.104620
 20
207.146772
 30
0.0
  0
SPLINE
  5
132
100
AcDbEntity
  8
Calque_1
 62
7
100
AcDbSpline
 70
8
 71
3
 72
8
 73
4
 74
0
 40
0
 40
0
 40
0
 40
0
 40
1
 40
1
 40
1
 40
1
 10
106.104620
 20
207.146772
 30
0.0
 10
106.964410
 20
206.395342
 30
0.0
 10
108.155670
 20
205.187792
 30
0.0
 10
108.751860
 20
204.463342
 30
0.0
  0
SPLINE
  5
133
100
AcDbEntity
  8
Calque_1
 62
7
100
AcDbSpline
 70
8
 71
3
 72
8
 73
4
 74
0
 40
0
 40
0
 40
0
 40
0
 40
1
 40
1
 40
1
 40
1
 10
108.751860
 20
204.463342
 30
0.0
 10
109.348050
 20
203.738892
 30
0.0
 10
110.213090
 20
202.586842
 30
0.0
 10
110.674160
 20
201.903222
 30
0.0
  0
SPLINE
  5
134
100
AcDbEntity
  8
Calque_1
 62
7
100
AcDbSpline
 70
8
 71
3
 72
8
 73
4
 74
0
 40
0
 40
0
 40
0
 40
0
 40
1
 40
1
 40
1
 40
1
 10
110.674160
 20
201.903222
 30
0.0
 10
111.135230
 20
201.219612
 30
0.0
 10
111.903290
 20
199.861252
 30
0.0
 10
112.380940
 20
198.884652
 30
0.0
  0
SPLINE
  5
135
100
AcDbEntity
  8
Calque_1
 62
7
100
AcDbSpline
 70
8
 71
3
 72
8
 73
4
 74
0
 40
0
 40
0
 40
0
 40
0
 40
1
 40
1
 40
1
 40
1
 10
112.380940
 20
198.884652
 30
0.0
 10
112.858600
 20
197.908062
 30
0.0
 10
113.482640
 20
196.389890
 30
0.0
 10
113.767690
 20
195.510960
 30
0.0
  0
SPLINE
  5
136
100
AcDbEntity
  8
Calque_1
 62
7
100
AcDbSpline
 70
8
 71
3
 72
8
 73
4
 74
0
 40
0
 40
0
 40
0
 40
0
 40
1
 40
1
 40
1
 40
1
 10
113.767690
 20
195.510960
 30
0.0
 10
114.052750
 20
194.632020
 30
0.0
 10
114.434460
 20
193.233710
 30
0.0
 10
114.615950
 20
192.403610
 30
0.0
  0
SPLINE
  5
137
100
AcDbEntity
  8
Calque_1
 62
7
100
AcDbSpline
 70
8
 71
3
 72
8
 73
4
 74
0
 40
0
 40
0
 40
0
 40
0
 40
1
 40
1
 40
1
 40
1
 10
114.615950
 20
192.403610
 30
0.0
 10
114.877730
 20
191.206240
 30
0.0
 10
114.945930
 20
190.142050
 30
0.0
 10
114.945930
 20
187.254280
 30
0.0
  0
SPLINE
  5
138
100
AcDbEntity
  8
Calque_1
 62
7
100
AcDbSpline
 70
8
 71
3
 72
8
 73
4
 74
0
 40
0
 40
0
 40
0
 40
0
 40
1
 40
1
 40
1
 40
1
 10
114.945930
 20
187.254280
 30
0.0
 10
114.945930
 20
184.366510
 30
0.0
 10
114.877730
 20
183.302320
 30
0.0
 10
114.615950
 20
182.104960
 30
0.0
  0
SPLINE
  5
139
100
AcDbEntity
  8
Calque_1
 62
7
100
AcDbSpline
 70
8
 71
3
 72
8
 73
4
 74
0
 40
0
 40
0
 40
0
 40
0
 40
1
 40
1
 40
1
 40
1
 10
114.615950
 20
182.104960
 30
0.0
 10
114.434460
 20
181.274850
 30
0.0
 10
114.052750
 20
179.876540
 30
0.0
 10
113.767690
 20
178.997610
 30
0.0
  0
SPLINE
  5
13a
100
AcDbEntity
  8
Calque_1
 62
7
100
AcDbSpline
 70
8
 71
3
 72
8
 73
4
 74
0
 40
0
 40
0
 40
0
 40
0
 40
1
 40
1
 40
1
 40
1
 10
113.767690
 20
178.997610
 30
0.0
 10
113.482640
 20
178.118670
 30
0.0
 10
112.858600
 20
176.600510
 30
0.0
 10
112.380940
 20
175.623910
 30
0.0
  0
SPLINE
  5
13b
100
AcDbEntity
  8
Calque_1
 62
7
100
AcDbSpline
 70
8
 71
3
 72
8
 73
4
 74
0
 40
0
 40
0
 40
0
 40
0
 40
1
 40
1
 40
1
 40
1
 10
112.380940
 20
175.623910
 30
0.0
 10
111.903290
 20
174.647310
 30
0.0
 10
111.135800
 20
173.288960
 30
0.0
 10
110.675410
 20
172.605340
 30
0.0
  0
SPLINE
  5
13c
100
AcDbEntity
  8
Calque_1
 62
7
100
AcDbSpline
 70
8
 71
3
 72
8
 73
4
 74
0
 40
0
 40
0
 40
0
 40
0
 40
1
 40
1
 40
1
 40
1
 10
110.675410
 20
172.605340
 30
0.0
 10
110.215020
 20
171.921720
 30
0.0
 10
109.317800
 20
170.736770
 30
0.0
 10
108.681580
 20
169.972120
 30
0.0
  0
SPLINE
  5
13d
100
AcDbEntity
  8
Calque_1
 62
7
100
AcDbSpline
 70
8
 71
3
 72
8
 73
4
 74
0
 40
0
 40
0
 40
0
 40
0
 40
1
 40
1
 40
1
 40
1
 10
108.681580
 20
169.972120
 30
0.0
 10
108.045360
 20
169.207470
 30
0.0
 10
106.899860
 20
168.040910
 30
0.0
 10
106.136030
 20
167.379770
 30
0.0
  0
SPLINE
  5
13e
100
AcDbEntity
  8
Calque_1
 62
7
100
AcDbSpline
 70
8
 71
3
 72
8
 73
4
 74
0
 40
0
 40
0
 40
0
 40
0
 40
1
 40
1
 40
1
 40
1
 10
106.136030
 20
167.379770
 30
0.0
 10
105.372200
 20
166.718620
 30
0.0
 10
104.166260
 20
165.786130
 30
0.0
 10
103.456170
 20
165.307570
 30
0.0
  0
SPLINE
  5
13f
100
AcDbEntity
  8
Calque_1
 62
7
100
AcDbSpline
 70
8
 71
3
 72
8
 73
4
 74
0
 40
0
 40
0
 40
0
 40
0
 40
1
 40
1
 40
1
 40
1
 10
103.456170
 20
165.307570
 30
0.0
 10
102.746080
 20
164.829000
 30
0.0
 10
101.329270
 20
164.016440
 30
0.0
 10
100.307720
 20
163.501880
 30
0.0
  0
SPLINE
  5
140
100
AcDbEntity
  8
Calque_1
 62
7
100
AcDbSpline
 70
8
 71
3
 72
8
 73
4
 74
0
 40
0
 40
0
 40
0
 40
0
 40
1
 40
1
 40
1
 40
1
 10
100.307720
 20
163.501880
 30
0.0
 10
99.286161
 20
162.987320
 30
0.0
 10
97.727671
 20
162.336170
 30
0.0
 10
96.844411
 20
162.054890
 30
0.0
  0
SPLINE
  5
141
100
AcDbEntity
  8
Calque_1
 62
7
100
AcDbSpline
 70
8
 71
3
 72
8
 73
4
 74
0
 40
0
 40
0
 40
0
 40
0
 40
1
 40
1
 40
1
 40
1
 10
96.844411
 20
162.054890
 30
0.0
 10
95.961141
 20
161.773610
 30
0.0
 10
94.599251
 20
161.416040
 30
0.0
 10
93.817971
 20
161.260300
 30
0.0
  0
SPLINE
  5
142
100
AcDbEntity
  8
Calque_1
 62
7
100
AcDbSpline
 70
8
 71
3
 72
8
 73
4
 74
0
 40
0
 40
0
 40
0
 40
0
 40
1
 40
1
 40
1
 40
1
 10
93.817971
 20
161.260300
 30
0.0
 10
93.036691
 20
161.104550
 30
0.0
 10
91.478581
 20
160.897420
 30
0.0
 10
90.355491
 20
160.800000
 30
0.0
  0
SPLINE
  5
143
100
AcDbEntity
  8
Calque_1
 62
7
100
AcDbSpline
 70
8
 71
3
 72
8
 73
4
 74
0
 40
0
 40
0
 40
0
 40
0
 40
1
 40
1
 40
1
 40
1
 10
90.355491
 20
160.800000
 30
0.0
 10
89.232411
 20
160.702600
 30
0.0
 10
88.153711
 20
160.632820
 30
0.0
 10
87.958391
 20
160.644980
 30
0.0
  0
SPLINE
  5
144
100
AcDbEntity
  8
Calque_1
 62
7
100
AcDbSpline
 70
8
 71
3
 72
8
 73
4
 74
0
 40
0
 40
0
 40
0
 40
0
 40
1
 40
1
 40
1
 40
1
 10
87.958391
 20
160.644980
 30
0.0
 10
87.763071
 20
160.657080
 30
0.0
 10
86.964041
 20
160.733780
 30
0.0
 10
86.182761
 20
160.815260
 30
0.0
  0
SPLINE
  5
145
100
AcDbEntity
  8
Calque_1
 62
7
100
AcDbSpline
 70
8
 71
3
 72
8
 73
4
 74
0
 40
0
 40
0
 40
0
 40
0
 40
1
 40
1
 40
1
 40
1
 10
93.674911
 20
162.021390
 30
0.0
 10
94.572821
 20
162.218650
 30
0.0
 10
95.923261
 20
162.586760
 30
0.0
 10
96.675891
 20
162.839410
 30
0.0
  0
SPLINE
  5
146
100
AcDbEntity
  8
Calque_1
 62
7
100
AcDbSpline
 70
8
 71
3
 72
8
 73
4
 74
0
 40
0
 40
0
 40
0
 40
0
 40
1
 40
1
 40
1
 40
1
 10
96.675891
 20
162.839410
 30
0.0
 10
97.428521
 20
163.092060
 30
0.0
 10
98.692081
 20
163.607940
 30
0.0
 10
99.483801
 20
163.985810
 30
0.0
  0
SPLINE
  5
147
100
AcDbEntity
  8
Calque_1
 62
7
100
AcDbSpline
 70
8
 71
3
 72
8
 73
4
 74
0
 40
0
 40
0
 40
0
 40
0
 40
1
 40
1
 40
1
 40
1
 10
99.483801
 20
163.985810
 30
0.0
 10
100.275520
 20
164.363690
 30
0.0
 10
101.653220
 20
165.152150
 30
0.0
 10
102.545360
 20
165.737960
 30
0.0
  0
SPLINE
  5
148
100
AcDbEntity
  8
Calque_1
 62
7
100
AcDbSpline
 70
8
 71
3
 72
8
 73
4
 74
0
 40
0
 40
0
 40
0
 40
0
 40
1
 40
1
 40
1
 40
1
 10
102.545360
 20
165.737960
 30
0.0
 10
103.437490
 20
166.323770
 30
0.0
 10
104.810910
 20
167.370100
 30
0.0
 10
105.597400
 20
168.063140
 30
0.0
  0
SPLINE
  5
149
100
AcDbEntity
  8
Calque_1
 62
7
100
AcDbSpline
 70
8
 71
3
 72
8
 73
4
 74
0
 40
0
 40
0
 40
0
 40
0
 40
1
 40
1
 40
1
 40
1
 10
105.597400
 20
168.063140
 30
0.0
 10
106.383890
 20
168.756190
 30
0.0
 10
107.696590
 20
170.158550
 30
0.0
 10
108.514520
 20
171.179500
 30
0.0
  0
SPLINE
  5
14a
100
AcDbEntity
  8
Calque_1
 62
7
100
AcDbSpline
 70
8
 71
3
 72
8
 73
4
 74
0
 40
0
 40
0
 40
0
 40
0
 40
1
 40
1
 40
1
 40
1
 10
108.514520
 20
171.179500
 30
0.0
 10
109.332440
 20
172.200460
 30
0.0
 10
110.419120
 20
173.789360
 30
0.0
 10
110.929360
 20
174.710410
 30
0.0
  0
SPLINE
  5
14b
100
AcDbEntity
  8
Calque_1
 62
7
100
AcDbSpline
 70
8
 71
3
 72
8
 73
4
 74
0
 40
0
 40
0
 40
0
 40
0
 40
1
 40
1
 40
1
 40
1
 10
110.929360
 20
174.710410
 30
0.0
 10
111.439610
 20
175.631460
 30
0.0
 10
112.099230
 20
177.012820
 30
0.0
 10
112.395200
 20
177.780110
 30
0.0
  0
SPLINE
  5
14c
100
AcDbEntity
  8
Calque_1
 62
7
100
AcDbSpline
 70
8
 71
3
 72
8
 73
4
 74
0
 40
0
 40
0
 40
0
 40
0
 40
1
 40
1
 40
1
 40
1
 10
112.395200
 20
177.780110
 30
0.0
 10
112.691170
 20
178.547390
 30
0.0
 10
113.181900
 20
180.094060
 30
0.0
 10
113.485710
 20
181.217140
 30
0.0
  0
SPLINE
  5
14d
100
AcDbEntity
  8
Calque_1
 62
7
100
AcDbSpline
 70
8
 71
3
 72
8
 73
4
 74
0
 40
0
 40
0
 40
0
 40
0
 40
1
 40
1
 40
1
 40
1
 10
113.485710
 20
181.217140
 30
0.0
 10
114.021130
 20
183.196440
 30
0.0
 10
114.038390
 20
183.376300
 30
0.0
 10
114.048110
 20
187.076720
 30
0.0
  0
SPLINE
  5
14e
100
AcDbEntity
  8
Calque_1
 62
7
100
AcDbSpline
 70
8
 71
3
 72
8
 73
4
 74
0
 40
0
 40
0
 40
0
 40
0
 40
1
 40
1
 40
1
 40
1
 10
114.048110
 20
187.076720
 30
0.0
 10
114.055110
 20
189.660410
 30
0.0
 10
113.981010
 20
191.238670
 30
0.0
 10
113.819510
 20
191.959700
 30
0.0
  0
SPLINE
  5
14f
100
AcDbEntity
  8
Calque_1
 62
7
100
AcDbSpline
 70
8
 71
3
 72
8
 73
4
 74
0
 40
0
 40
0
 40
0
 40
0
 40
1
 40
1
 40
1
 40
1
 10
113.819510
 20
191.959700
 30
0.0
 10
113.688270
 20
192.545660
 30
0.0
 10
113.299300
 20
193.904010
 30
0.0
 10
112.955130
 20
194.978270
 30
0.0
  0
SPLINE
  5
150
100
AcDbEntity
  8
Calque_1
 62
7
100
AcDbSpline
 70
8
 71
3
 72
8
 73
4
 74
0
 40
0
 40
0
 40
0
 40
0
 40
1
 40
1
 40
1
 40
1
 10
112.955130
 20
194.978270
 30
0.0
 10
112.610960
 20
196.052520
 30
0.0
 10
111.987020
 20
197.614412
 30
0.0
 10
111.568600
 20
198.449132
 30
0.0
  0
SPLINE
  5
151
100
AcDbEntity
  8
Calque_1
 62
7
100
AcDbSpline
 70
8
 71
3
 72
8
 73
4
 74
0
 40
0
 40
0
 40
0
 40
0
 40
1
 40
1
 40
1
 40
1
 10
111.568600
 20
198.449132
 30
0.0
 10
111.150180
 20
199.283842
 30
0.0
 10
110.327730
 20
200.682152
 30
0.0
 10
109.740940
 20
201.556482
 30
0.0
  0
SPLINE
  5
152
100
AcDbEntity
  8
Calque_1
 62
7
100
AcDbSpline
 70
8
 71
3
 72
8
 73
4
 74
0
 40
0
 40
0
 40
0
 40
0
 40
1
 40
1
 40
1
 40
1
 10
109.740940
 20
201.556482
 30
0.0
 10
109.154160
 20
202.430812
 30
0.0
 10
108.088100
 20
203.780732
 30
0.0
 10
107.371930
 20
204.556312
 30
0.0
  0
SPLINE
  5
153
100
AcDbEntity
  8
Calque_1
 62
7
100
AcDbSpline
 70
8
 71
3
 72
8
 73
4
 74
0
 40
0
 40
0
 40
0
 40
0
 40
1
 40
1
 40
1
 40
1
 10
107.371930
 20
204.556312
 30
0.0
 10
106.655770
 20
205.331892
 30
0.0
 10
105.258100
 20
206.610342
 30
0.0
 10
104.266000
 20
207.397312
 30
0.0
  0
SPLINE
  5
154
100
AcDbEntity
  8
Calque_1
 62
7
100
AcDbSpline
 70
8
 71
3
 72
8
 73
4
 74
0
 40
0
 40
0
 40
0
 40
0
 40
1
 40
1
 40
1
 40
1
 10
104.266000
 20
207.397312
 30
0.0
 10
103.273910
 20
208.184292
 30
0.0
 10
102.017040
 20
209.096652
 30
0.0
 10
101.472950
 20
209.424772
 30
0.0
  0
LWPOLYLINE
  5
155
100
AcDbEntity
  8
Calque_1
 62
7
100
AcDbPolyline
 90
1
 70
1
 10
86.182761
 20
160.815260
 30
0.0
  0
SPLINE
  5
156
100
AcDbEntity
  8
Calque_1
 62
7
100
AcDbSpline
 70
8
 71
3
 72
8
 73
4
 74
0
 40
0
 40
0
 40
0
 40
0
 40
1
 40
1
 40
1
 40
1
 10
99.636711
 20
209.322112
 30
0.0
 10
99.170871
 20
208.937522
 30
0.0
 10
98.430171
 20
208.380172
 30
0.0
 10
97.990701
 20
208.083542
 30
0.0
  0
SPLINE
  5
157
100
AcDbEntity
  8
Calque_1
 62
7
100
AcDbSpline
 70
8
 71
3
 72
8
 73
4
 74
0
 40
0
 40
0
 40
0
 40
0
 40
1
 40
1
 40
1
 40
1
 10
97.990701
 20
208.083542
 30
0.0
 10
97.551231
 20
207.786922
 30
0.0
 10
96.752201
 20
207.322212
 30
0.0
 10
96.215071
 20
207.050852
 30
0.0
  0
SPLINE
  5
158
100
AcDbEntity
  8
Calque_1
 62
7
100
AcDbSpline
 70
8
 71
3
 72
8
 73
4
 74
0
 40
0
 40
0
 40
0
 40
0
 40
1
 40
1
 40
1
 40
1
 10
96.215071
 20
207.050852
 30
0.0
 10
95.677941
 20
206.779492
 30
0.0
 10
94.705951
 20
206.376302
 30
0.0
 10
94.055101
 20
206.154892
 30
0.0
  0
SPLINE
  5
159
100
AcDbEntity
  8
Calque_1
 62
7
100
AcDbSpline
 70
8
 71
3
 72
8
 73
4
 74
0
 40
0
 40
0
 40
0
 40
0
 40
1
 40
1
 40
1
 40
1
 10
94.055101
 20
206.154892
 30
0.0
 10
93.404241
 20
205.933462
 30
0.0
 10
92.405451
 20
205.650872
 30
0.0
 10
91.835561
 20
205.526892
 30
0.0
  0
LWPOLYLINE
  5
15a
100
AcDbEntity
  8
Calque_1
 62
7
100
AcDbPolyline
 90
2
 70
0
 10
101.472950
 20
209.424772
 30
0.0
 10
99.636711
 20
209.322112
 30
0.0
  0
SPLINE
  5
15b
100
AcDbEntity
  8
Calque_1
 62
7
100
AcDbSpline
 70
8
 71
3
 72
8
 73
4
 74
0
 40
0
 40
0
 40
0
 40
0
 40
1
 40
1
 40
1
 40
1
 10
91.665541
 20
205.167492
 30
0.0
 10
92.141921
 20
205.093792
 30
0.0
 10
93.180661
 20
204.818912
 30
0.0
 10
93.973861
 20
204.556622
 30
0.0
  0
SPLINE
  5
15c
100
AcDbEntity
  8
Calque_1
 62
7
100
AcDbSpline
 70
8
 71
3
 72
8
 73
4
 74
0
 40
0
 40
0
 40
0
 40
0
 40
1
 40
1
 40
1
 40
1
 10
93.973861
 20
204.556622
 30
0.0
 10
94.767061
 20
204.294342
 30
0.0
 10
95.895451
 20
203.839502
 30
0.0
 10
96.481411
 20
203.545872
 30
0.0
  0
SPLINE
  5
15d
100
AcDbEntity
  8
Calque_1
 62
7
100
AcDbSpline
 70
8
 71
3
 72
8
 73
4
 74
0
 40
0
 40
0
 40
0
 40
0
 40
1
 40
1
 40
1
 40
1
 10
96.481411
 20
203.545872
 30
0.0
 10
97.067371
 20
203.252242
 30
0.0
 10
98.106111
 20
202.651762
 30
0.0
 10
98.789731
 20
202.211472
 30
0.0
  0
SPLINE
  5
15e
100
AcDbEntity
  8
Calque_1
 62
7
100
AcDbSpline
 70
8
 71
3
 72
8
 73
4
 74
0
 40
0
 40
0
 40
0
 40
0
 40
1
 40
1
 40
1
 40
1
 10
98.789731
 20
202.211472
 30
0.0
 10
99.473351
 20
201.771172
 30
0.0
 10
100.636330
 20
200.802562
 30
0.0
 10
101.374130
 20
200.059012
 30
0.0
  0
SPLINE
  5
15f
100
AcDbEntity
  8
Calque_1
 62
7
100
AcDbSpline
 70
8
 71
3
 72
8
 73
4
 74
0
 40
0
 40
0
 40
0
 40
0
 40
1
 40
1
 40
1
 40
1
 10
101.374130
 20
200.059012
 30
0.0
 10
102.111940
 20
199.315452
 30
0.0
 10
103.099950
 20
198.123192
 30
0.0
 10
103.569720
 20
197.409532
 30
0.0
  0
SPLINE
  5
160
100
AcDbEntity
  8
Calque_1
 62
7
100
AcDbSpline
 70
8
 71
3
 72
8
 73
4
 74
0
 40
0
 40
0
 40
0
 40
0
 40
1
 40
1
 40
1
 40
1
 10
103.569720
 20
197.409532
 30
0.0
 10
104.039480
 20
196.695870
 30
0.0
 10
104.815730
 20
195.208540
 30
0.0
 10
105.294700
 20
194.104350
 30
0.0
  0
SPLINE
  5
161
100
AcDbEntity
  8
Calque_1
 62
7
100
AcDbSpline
 70
8
 71
3
 72
8
 73
4
 74
0
 40
0
 40
0
 40
0
 40
0
 40
1
 40
1
 40
1
 40
1
 10
105.294700
 20
194.104350
 30
0.0
 10
105.968430
 20
192.551180
 30
0.0
 10
106.209590
 20
191.739570
 30
0.0
 10
106.360030
 20
190.518930
 30
0.0
  0
SPLINE
  5
162
100
AcDbEntity
  8
Calque_1
 62
7
100
AcDbSpline
 70
8
 71
3
 72
8
 73
4
 74
0
 40
0
 40
0
 40
0
 40
0
 40
1
 40
1
 40
1
 40
1
 10
106.360030
 20
190.518930
 30
0.0
 10
106.468720
 20
189.637130
 30
0.0
 10
106.515590
 20
187.687900
 30
0.0
 10
106.466300
 20
186.100120
 30
0.0
  0
SPLINE
  5
163
100
AcDbEntity
  8
Calque_1
 62
7
100
AcDbSpline
 70
8
 71
3
 72
8
 73
4
 74
0
 40
0
 40
0
 40
0
 40
0
 40
1
 40
1
 40
1
 40
1
 10
106.466300
 20
186.100120
 30
0.0
 10
106.395700
 20
183.827010
 30
0.0
 10
106.299220
 20
183.012170
 30
0.0
 10
105.983480
 20
182.023690
 30
0.0
  0
SPLINE
  5
164
100
AcDbEntity
  8
Calque_1
 62
7
100
AcDbSpline
 70
8
 71
3
 72
8
 73
4
 74
0
 40
0
 40
0
 40
0
 40
0
 40
1
 40
1
 40
1
 40
1
 10
105.983480
 20
182.023690
 30
0.0
 10
105.766430
 20
181.344210
 30
0.0
 10
105.290310
 20
180.145660
 30
0.0
 10
104.925430
 20
179.360250
 30
0.0
  0
SPLINE
  5
165
100
AcDbEntity
  8
Calque_1
 62
7
100
AcDbSpline
 70
8
 71
3
 72
8
 73
4
 74
0
 40
0
 40
0
 40
0
 40
0
 40
1
 40
1
 40
1
 40
1
 10
104.925430
 20
179.360250
 30
0.0
 10
104.560540
 20
178.574840
 30
0.0
 10
103.955760
 20
177.532710
 30
0.0
 10
103.581450
 20
177.044410
 30
0.0
  0
SPLINE
  5
166
100
AcDbEntity
  8
Calque_1
 62
7
100
AcDbSpline
 70
8
 71
3
 72
8
 73
4
 74
0
 40
0
 40
0
 40
0
 40
0
 40
1
 40
1
 40
1
 40
1
 10
103.581450
 20
177.044410
 30
0.0
 10
103.207150
 20
176.556110
 30
0.0
 10
102.495260
 20
175.691200
 30
0.0
 10
101.999480
 20
175.122370
 30
0.0
  0
SPLINE
  5
167
100
AcDbEntity
  8
Calque_1
 62
7
100
AcDbSpline
 70
8
 71
3
 72
8
 73
4
 74
0
 40
0
 40
0
 40
0
 40
0
 40
1
 40
1
 40
1
 40
1
 10
101.999480
 20
175.122370
 30
0.0
 10
101.503690
 20
174.553550
 30
0.0
 10
100.542410
 20
173.614360
 30
0.0
 10
99.863301
 20
173.035290
 30
0.0
  0
SPLINE
  5
168
100
AcDbEntity
  8
Calque_1
 62
7
100
AcDbSpline
 70
8
 71
3
 72
8
 73
4
 74
0
 40
0
 40
0
 40
0
 40
0
 40
1
 40
1
 40
1
 40
1
 10
99.863301
 20
173.035290
 30
0.0
 10
99.184201
 20
172.456220
 30
0.0
 10
97.938061
 20
171.625800
 30
0.0
 10
97.094111
 20
171.189920
 30
0.0
  0
SPLINE
  5
169
100
AcDbEntity
  8
Calque_1
 62
7
100
AcDbSpline
 70
8
 71
3
 72
8
 73
4
 74
0
 40
0
 40
0
 40
0
 40
0
 40
1
 40
1
 40
1
 40
1
 10
97.094111
 20
171.189920
 30
0.0
 10
96.250151
 20
170.754040
 30
0.0
 10
94.848161
 20
170.160570
 30
0.0
 10
93.978561
 20
169.871100
 30
0.0
  0
SPLINE
  5
16a
100
AcDbEntity
  8
Calque_1
 62
7
100
AcDbSpline
 70
8
 71
3
 72
8
 73
4
 74
0
 40
0
 40
0
 40
0
 40
0
 40
1
 40
1
 40
1
 40
1
 10
93.978561
 20
169.871100
 30
0.0
 10
93.088651
 20
169.574870
 30
0.0
 10
91.583511
 20
169.251520
 30
0.0
 10
90.535531
 20
169.131430
 30
0.0
  0
SPLINE
  5
16b
100
AcDbEntity
  8
Calque_1
 62
7
100
AcDbSpline
 70
8
 71
3
 72
8
 73
4
 74
0
 40
0
 40
0
 40
0
 40
0
 40
1
 40
1
 40
1
 40
1
 10
90.535531
 20
169.131430
 30
0.0
 10
89.500451
 20
169.012820
 30
0.0
 10
88.002251
 20
168.967380
 30
0.0
 10
87.161841
 20
169.029110
 30
0.0
  0
SPLINE
  5
16c
100
AcDbEntity
  8
Calque_1
 62
7
100
AcDbSpline
 70
8
 71
3
 72
8
 73
4
 74
0
 40
0
 40
0
 40
0
 40
0
 40
1
 40
1
 40
1
 40
1
 10
87.161841
 20
169.029110
 30
0.0
 10
86.330371
 20
169.090210
 30
0.0
 10
84.970901
 20
169.304040
 30
0.0
 10
84.140791
 20
169.504360
 30
0.0
  0
SPLINE
  5
16d
100
AcDbEntity
  8
Calque_1
 62
7
100
AcDbSpline
 70
8
 71
3
 72
8
 73
4
 74
0
 40
0
 40
0
 40
0
 40
0
 40
1
 40
1
 40
1
 40
1
 10
84.140791
 20
169.504360
 30
0.0
 10
83.310681
 20
169.704670
 30
0.0
 10
81.795571
 20
170.267790
 30
0.0
 10
80.773871
 20
170.755720
 30
0.0
  0
SPLINE
  5
16e
100
AcDbEntity
  8
Calque_1
 62
7
100
AcDbSpline
 70
8
 71
3
 72
8
 73
4
 74
0
 40
0
 40
0
 40
0
 40
0
 40
1
 40
1
 40
1
 40
1
 10
80.773871
 20
170.755720
 30
0.0
 10
79.752171
 20
171.243660
 30
0.0
 10
78.497021
 20
171.959390
 30
0.0
 10
77.984641
 20
172.346240
 30
0.0
  0
SPLINE
  5
16f
100
AcDbEntity
  8
Calque_1
 62
7
100
AcDbSpline
 70
8
 71
3
 72
8
 73
4
 74
0
 40
0
 40
0
 40
0
 40
0
 40
1
 40
1
 40
1
 40
1
 10
77.984641
 20
172.346240
 30
0.0
 10
77.472271
 20
172.733080
 30
0.0
 10
76.362721
 20
173.744600
 30
0.0
 10
75.518991
 20
174.594050
 30
0.0
  0
SPLINE
  5
170
100
AcDbEntity
  8
Calque_1
 62
7
100
AcDbSpline
 70
8
 71
3
 72
8
 73
4
 74
0
 40
0
 40
0
 40
0
 40
0
 40
1
 40
1
 40
1
 40
1
 10
75.518991
 20
174.594050
 30
0.0
 10
74.675261
 20
175.443490
 30
0.0
 10
73.684211
 20
176.582040
 30
0.0
 10
73.316651
 20
177.124140
 30
0.0
  0
SPLINE
  5
171
100
AcDbEntity
  8
Calque_1
 62
7
100
AcDbSpline
 70
8
 71
3
 72
8
 73
4
 74
0
 40
0
 40
0
 40
0
 40
0
 40
1
 40
1
 40
1
 40
1
 10
73.316651
 20
177.124140
 30
0.0
 10
72.949091
 20
177.666250
 30
0.0
 10
72.435671
 20
178.530310
 30
0.0
 10
72.175721
 20
179.044290
 30
0.0
  0
SPLINE
  5
172
100
AcDbEntity
  8
Calque_1
 62
7
100
AcDbSpline
 70
8
 71
3
 72
8
 73
4
 74
0
 40
0
 40
0
 40
0
 40
0
 40
1
 40
1
 40
1
 40
1
 10
72.175721
 20
179.044290
 30
0.0
 10
71.915771
 20
179.558260
 30
0.0
 10
71.469331
 20
180.676910
 30
0.0
 10
71.183641
 20
181.530170
 30
0.0
  0
SPLINE
  5
173
100
AcDbEntity
  8
Calque_1
 62
7
100
AcDbSpline
 70
8
 71
3
 72
8
 73
4
 74
0
 40
0
 40
0
 40
0
 40
0
 40
1
 40
1
 40
1
 40
1
 10
71.183641
 20
181.530170
 30
0.0
 10
70.852661
 20
182.518660
 30
0.0
 10
70.592371
 20
183.801090
 30
0.0
 10
70.466231
 20
185.064660
 30
0.0
  0
SPLINE
  5
174
100
AcDbEntity
  8
Calque_1
 62
7
100
AcDbSpline
 70
8
 71
3
 72
8
 73
4
 74
0
 40
0
 40
0
 40
0
 40
0
 40
1
 40
1
 40
1
 40
1
 10
70.466231
 20
185.064660
 30
0.0
 10
70.322871
 20
186.500750
 30
0.0
 10
70.321001
 20
187.614540
 30
0.0
 10
70.459231
 20
189.102440
 30
0.0
  0
SPLINE
  5
175
100
AcDbEntity
  8
Calque_1
 62
7
100
AcDbSpline
 70
8
 71
3
 72
8
 73
4
 74
0
 40
0
 40
0
 40
0
 40
0
 40
1
 40
1
 40
1
 40
1
 10
70.459231
 20
189.102440
 30
0.0
 10
70.573121
 20
190.326300
 30
0.0
 10
70.837471
 20
191.750150
 30
0.0
 10
71.113001
 20
192.623780
 30
0.0
  0
SPLINE
  5
176
100
AcDbEntity
  8
Calque_1
 62
7
100
AcDbSpline
 70
8
 71
3
 72
8
 73
4
 74
0
 40
0
 40
0
 40
0
 40
0
 40
1
 40
1
 40
1
 40
1
 10
71.113001
 20
192.623780
 30
0.0
 10
71.367411
 20
193.430450
 30
0.0
 10
71.856621
 20
194.649780
 30
0.0
 10
72.200141
 20
195.333390
 30
0.0
  0
SPLINE
  5
177
100
AcDbEntity
  8
Calque_1
 62
7
100
AcDbSpline
 70
8
 71
3
 72
8
 73
4
 74
0
 40
0
 40
0
 40
0
 40
0
 40
1
 40
1
 40
1
 40
1
 10
72.200141
 20
195.333390
 30
0.0
 10
72.543661
 20
196.017010
 30
0.0
 10
73.147391
 20
197.055762
 30
0.0
 10
73.541771
 20
197.641712
 30
0.0
  0
SPLINE
  5
178
100
AcDbEntity
  8
Calque_1
 62
7
100
AcDbSpline
 70
8
 71
3
 72
8
 73
4
 74
0
 40
0
 40
0
 40
0
 40
0
 40
1
 40
1
 40
1
 40
1
 10
73.541771
 20
197.641712
 30
0.0
 10
73.936151
 20
198.227672
 30
0.0
 10
74.864171
 20
199.312442
 30
0.0
 10
75.604031
 20
200.052312
 30
0.0
  0
SPLINE
  5
179
100
AcDbEntity
  8
Calque_1
 62
7
100
AcDbSpline
 70
8
 71
3
 72
8
 73
4
 74
0
 40
0
 40
0
 40
0
 40
0
 40
1
 40
1
 40
1
 40
1
 10
75.604031
 20
200.052312
 30
0.0
 10
76.343901
 20
200.792182
 30
0.0
 10
77.459131
 20
201.741132
 30
0.0
 10
78.082311
 20
202.161102
 30
0.0
  0
SPLINE
  5
17a
100
AcDbEntity
  8
Calque_1
 62
7
100
AcDbSpline
 70
8
 71
3
 72
8
 73
4
 74
0
 40
0
 40
0
 40
0
 40
0
 40
1
 40
1
 40
1
 40
1
 10
78.082311
 20
202.161102
 30
0.0
 10
78.705491
 20
202.581072
 30
0.0
 10
79.864091
 20
203.227642
 30
0.0
 10
80.656971
 20
203.597922
 30
0.0
  0
SPLINE
  5
17b
100
AcDbEntity
  8
Calque_1
 62
7
100
AcDbSpline
 70
8
 71
3
 72
8
 73
4
 74
0
 40
0
 40
0
 40
0
 40
0
 40
1
 40
1
 40
1
 40
1
 10
80.656971
 20
203.597922
 30
0.0
 10
81.449851
 20
203.968202
 30
0.0
 10
82.636231
 20
204.443912
 30
0.0
 10
83.293361
 20
204.655052
 30
0.0
  0
SPLINE
  5
17c
100
AcDbEntity
  8
Calque_1
 62
7
100
AcDbSpline
 70
8
 71
3
 72
8
 73
4
 74
0
 40
0
 40
0
 40
0
 40
0
 40
1
 40
1
 40
1
 40
1
 10
83.293361
 20
204.655052
 30
0.0
 10
83.950491
 20
204.866192
 30
0.0
 10
84.869381
 20
205.097752
 30
0.0
 10
85.335331
 20
205.169632
 30
0.0
  0
LWPOLYLINE
  5
17d
100
AcDbEntity
  8
Calque_1
 62
7
100
AcDbPolyline
 90
2
 70
0
 10
91.835561
 20
205.526892
 30
0.0
 10
91.665541
 20
205.167492
 30
0.0
  0
SPLINE
  5
17e
100
AcDbEntity
  8
Calque_1
 62
7
100
AcDbSpline
 70
8
 71
3
 72
8
 73
4
 74
0
 40
0
 40
0
 40
0
 40
0
 40
1
 40
1
 40
1
 40
1
 10
85.383531
 20
205.441912
 30
0.0
 10
84.944061
 20
205.519812
 30
0.0
 10
83.945271
 20
205.783592
 30
0.0
 10
83.163991
 20
206.028152
 30
0.0
  0
SPLINE
  5
17f
100
AcDbEntity
  8
Calque_1
 62
7
100
AcDbSpline
 70
8
 71
3
 72
8
 73
4
 74
0
 40
0
 40
0
 40
0
 40
0
 40
1
 40
1
 40
1
 40
1
 10
83.163991
 20
206.028152
 30
0.0
 10
82.382721
 20
206.272712
 30
0.0
 10
81.264071
 20
206.713752
 30
0.0
 10
80.678111
 20
207.008242
 30
0.0
  0
SPLINE
  5
180
100
AcDbEntity
  8
Calque_1
 62
7
100
AcDbSpline
 70
8
 71
3
 72
8
 73
4
 74
0
 40
0
 40
0
 40
0
 40
0
 40
1
 40
1
 40
1
 40
1
 10
80.678111
 20
207.008242
 30
0.0
 10
80.092161
 20
207.302722
 30
0.0
 10
79.253171
 20
207.786482
 30
0.0
 10
78.813701
 20
208.083262
 30
0.0
  0
SPLINE
  5
181
100
AcDbEntity
  8
Calque_1
 62
7
100
AcDbSpline
 70
8
 71
3
 72
8
 73
4
 74
0
 40
0
 40
0
 40
0
 40
0
 40
1
 40
1
 40
1
 40
1
 10
78.813701
 20
208.083262
 30
0.0
 10
78.374231
 20
208.380042
 30
0.0
 10
77.645541
 20
208.927462
 30
0.0
 10
77.194381
 20
209.299762
 30
0.0
  0
LWPOLYLINE
  5
182
100
AcDbEntity
  8
Calque_1
 62
7
100
AcDbPolyline
 90
2
 70
0
 10
85.335331
 20
205.169632
 30
0.0
 10
85.383531
 20
205.441912
 30
0.0
  0
SPLINE
  5
183
100
AcDbEntity
  8
Calque_1
 62
7
100
AcDbSpline
 70
8
 71
3
 72
8
 73
4
 74
0
 40
0
 40
0
 40
0
 40
0
 40
1
 40
1
 40
1
 40
1
 10
75.249841
 20
209.250062
 30
0.0
 10
74.631491
 20
208.850402
 30
0.0
 10
73.482461
 20
208.033982
 30
0.0
 10
72.696431
 20
207.435782
 30
0.0
  0
SPLINE
  5
184
100
AcDbEntity
  8
Calque_1
 62
7
100
AcDbSpline
 70
8
 71
3
 72
8
 73
4
 74
0
 40
0
 40
0
 40
0
 40
0
 40
1
 40
1
 40
1
 40
1
 10
72.696431
 20
207.435782
 30
0.0
 10
71.910391
 20
206.837592
 30
0.0
 10
70.756681
 20
205.827472
 30
0.0
 10
70.132621
 20
205.191092
 30
0.0
  0
SPLINE
  5
185
100
AcDbEntity
  8
Calque_1
 62
7
100
AcDbSpline
 70
8
 71
3
 72
8
 73
4
 74
0
 40
0
 40
0
 40
0
 40
0
 40
1
 40
1
 40
1
 40
1
 10
70.132621
 20
205.191092
 30
0.0
 10
69.508561
 20
204.554702
 30
0.0
 10
68.576421
 20
203.474692
 30
0.0
 10
68.061201
 20
202.791082
 30
0.0
  0
SPLINE
  5
186
100
AcDbEntity
  8
Calque_1
 62
7
100
AcDbSpline
 70
8
 71
3
 72
8
 73
4
 74
0
 40
0
 40
0
 40
0
 40
0
 40
1
 40
1
 40
1
 40
1
 10
68.061201
 20
202.791082
 30
0.0
 10
67.545981
 20
202.107462
 30
0.0
 10
66.755741
 20
200.922502
 30
0.0
 10
66.305101
 20
200.157842
 30
0.0
  0
SPLINE
  5
187
100
AcDbEntity
  8
Calque_1
 62
7
100
AcDbSpline
 70
8
 71
3
 72
8
 73
4
 74
0
 40
0
 40
0
 40
0
 40
0
 40
1
 40
1
 40
1
 40
1
 10
66.305101
 20
200.157842
 30
0.0
 10
65.854461
 20
199.393182
 30
0.0
 10
65.138731
 20
197.954922
 30
0.0
 10
64.714581
 20
196.961710
 30
0.0
  0
SPLINE
  5
188
100
AcDbEntity
  8
Calque_1
 62
7
100
AcDbSpline
 70
8
 71
3
 72
8
 73
4
 74
0
 40
0
 40
0
 40
0
 40
0
 40
1
 40
1
 40
1
 40
1
 10
64.714581
 20
196.961710
 30
0.0
 10
64.290431
 20
195.968500
 30
0.0
 10
63.775791
 20
194.476690
 30
0.0
 10
63.570941
 20
193.646590
 30
0.0
  0
SPLINE
  5
189
100
AcDbEntity
  8
Calque_1
 62
7
100
AcDbSpline
 70
8
 71
3
 72
8
 73
4
 74
0
 40
0
 40
0
 40
0
 40
0
 40
1
 40
1
 40
1
 40
1
 10
63.570941
 20
193.646590
 30
0.0
 10
63.366091
 20
192.816480
 30
0.0
 10
63.120731
 20
191.617930
 30
0.0
 10
63.025701
 20
190.983140
 30
0.0
  0
SPLINE
  5
18a
100
AcDbEntity
  8
Calque_1
 62
7
100
AcDbSpline
 70
8
 71
3
 72
8
 73
4
 74
0
 40
0
 40
0
 40
0
 40
0
 40
1
 40
1
 40
1
 40
1
 10
63.025701
 20
190.983140
 30
0.0
 10
62.930701
 20
190.348360
 30
0.0
 10
62.801091
 20
189.189760
 30
0.0
 10
62.737761
 20
188.408480
 30
0.0
  0
SPLINE
  5
18b
100
AcDbEntity
  8
Calque_1
 62
7
100
AcDbSpline
 70
8
 71
3
 72
8
 73
4
 74
0
 40
0
 40
0
 40
0
 40
0
 40
1
 40
1
 40
1
 40
1
 10
62.737761
 20
188.408480
 30
0.0
 10
62.674461
 20
187.627200
 30
0.0
 10
62.712261
 20
186.148990
 30
0.0
 10
62.821861
 20
185.123570
 30
0.0
  0
SPLINE
  5
18c
100
AcDbEntity
  8
Calque_1
 62
7
100
AcDbSpline
 70
8
 71
3
 72
8
 73
4
 74
0
 40
0
 40
0
 40
0
 40
0
 40
1
 40
1
 40
1
 40
1
 10
62.821861
 20
185.123570
 30
0.0
 10
62.931431
 20
184.098140
 30
0.0
 10
63.266221
 20
182.263580
 30
0.0
 10
63.565831
 20
181.046770
 30
0.0
  0
SPLINE
  5
18d
100
AcDbEntity
  8
Calque_1
 62
7
100
AcDbSpline
 70
8
 71
3
 72
8
 73
4
 74
0
 40
0
 40
0
 40
0
 40
0
 40
1
 40
1
 40
1
 40
1
 10
63.565831
 20
181.046770
 30
0.0
 10
63.865451
 20
179.829960
 30
0.0
 10
64.413371
 20
178.132080
 30
0.0
 10
64.783441
 20
177.273710
 30
0.0
  0
SPLINE
  5
18e
100
AcDbEntity
  8
Calque_1
 62
7
100
AcDbSpline
 70
8
 71
3
 72
8
 73
4
 74
0
 40
0
 40
0
 40
0
 40
0
 40
1
 40
1
 40
1
 40
1
 10
64.783441
 20
177.273710
 30
0.0
 10
65.153511
 20
176.415330
 30
0.0
 10
65.790541
 20
175.128830
 30
0.0
 10
66.199071
 20
174.414810
 30
0.0
  0
SPLINE
  5
18f
100
AcDbEntity
  8
Calque_1
 62
7
100
AcDbSpline
 70
8
 71
3
 72
8
 73
4
 74
0
 40
0
 40
0
 40
0
 40
0
 40
1
 40
1
 40
1
 40
1
 10
66.199071
 20
174.414810
 30
0.0
 10
66.607591
 20
173.700800
 30
0.0
 10
67.349231
 20
172.562110
 30
0.0
 10
67.847131
 20
171.884390
 30
0.0
  0
SPLINE
  5
190
100
AcDbEntity
  8
Calque_1
 62
7
100
AcDbSpline
 70
8
 71
3
 72
8
 73
4
 74
0
 40
0
 40
0
 40
0
 40
0
 40
1
 40
1
 40
1
 40
1
 10
67.847131
 20
171.884390
 30
0.0
 10
68.345041
 20
171.206680
 30
0.0
 10
69.562081
 20
169.853150
 30
0.0
 10
70.551671
 20
168.876560
 30
0.0
  0
SPLINE
  5
191
100
AcDbEntity
  8
Calque_1
 62
7
100
AcDbSpline
 70
8
 71
3
 72
8
 73
4
 74
0
 40
0
 40
0
 40
0
 40
0
 40
1
 40
1
 40
1
 40
1
 10
70.551671
 20
168.876560
 30
0.0
 10
71.541251
 20
167.899960
 30
0.0
 10
73.029601
 20
166.645080
 30
0.0
 10
73.859111
 20
166.087930
 30
0.0
  0
SPLINE
  5
192
100
AcDbEntity
  8
Calque_1
 62
7
100
AcDbSpline
 70
8
 71
3
 72
8
 73
4
 74
0
 40
0
 40
0
 40
0
 40
0
 40
1
 40
1
 40
1
 40
1
 10
73.859111
 20
166.087930
 30
0.0
 10
74.688621
 20
165.530780
 30
0.0
 10
76.442391
 20
164.560010
 30
0.0
 10
77.756381
 20
163.930660
 30
0.0
  0
SPLINE
  5
193
100
AcDbEntity
  8
Calque_1
 62
7
100
AcDbSpline
 70
8
 71
3
 72
8
 73
4
 74
0
 40
0
 40
0
 40
0
 40
0
 40
1
 40
1
 40
1
 40
1
 10
77.756381
 20
163.930660
 30
0.0
 10
79.070381
 20
163.301320
 30
0.0
 10
80.799581
 20
162.616000
 30
0.0
 10
81.599051
 20
162.407730
 30
0.0
  0
SPLINE
  5
194
100
AcDbEntity
  8
Calque_1
 62
7
100
AcDbSpline
 70
8
 71
3
 72
8
 73
4
 74
0
 40
0
 40
0
 40
0
 40
0
 40
1
 40
1
 40
1
 40
1
 10
81.599051
 20
162.407730
 30
0.0
 10
82.398521
 20
162.199460
 30
0.0
 10
83.756881
 20
161.914210
 30
0.0
 10
84.617621
 20
161.773830
 30
0.0
  0
SPLINE
  5
195
100
AcDbEntity
  8
Calque_1
 62
7
100
AcDbSpline
 70
8
 71
3
 72
8
 73
4
 74
0
 40
0
 40
0
 40
0
 40
0
 40
1
 40
1
 40
1
 40
1
 10
84.617621
 20
161.773830
 30
0.0
 10
85.697251
 20
161.597760
 30
0.0
 10
87.091231
 20
161.540960
 30
0.0
 10
89.112391
 20
161.590690
 30
0.0
  0
SPLINE
  5
196
100
AcDbEntity
  8
Calque_1
 62
7
100
AcDbSpline
 70
8
 71
3
 72
8
 73
4
 74
0
 40
0
 40
0
 40
0
 40
0
 40
1
 40
1
 40
1
 40
1
 10
89.112391
 20
161.590690
 30
0.0
 10
91.162951
 20
161.641090
 30
0.0
 10
92.532111
 20
161.770410
 30
0.0
 10
93.674751
 20
162.021430
 30
0.0
  0
LWPOLYLINE
  5
197
100
AcDbEntity
  8
Calque_1
 62
7
100
AcDbPolyline
 90
2
 70
0
 10
77.194381
 20
209.299762
 30
0.0
 10
75.249841
 20
209.250062
 30
0.0
  0
SPLINE
  5
198
100
AcDbEntity
  8
Calque_1
 62
7
100
AcDbSpline
 70
8
 71
3
 72
8
 73
4
 74
0
 40
0
 40
0
 40
0
 40
0
 40
1
 40
1
 40
1
 40
1
 10
90.976961
 20
169.859630
 30
0.0
 10
91.660581
 20
169.957030
 30
0.0
 10
92.859131
 20
170.246390
 30
0.0
 10
93.640411
 20
170.502700
 30
0.0
  0
SPLINE
  5
199
100
AcDbEntity
  8
Calque_1
 62
7
100
AcDbSpline
 70
8
 71
3
 72
8
 73
4
 74
0
 40
0
 40
0
 40
0
 40
0
 40
1
 40
1
 40
1
 40
1
 10
93.640411
 20
170.502700
 30
0.0
 10
94.421681
 20
170.759020
 30
0.0
 10
95.660181
 20
171.267930
 30
0.0
 10
96.392631
 20
171.633610
 30
0.0
  0
SPLINE
  5
19a
100
AcDbEntity
  8
Calque_1
 62
7
100
AcDbSpline
 70
8
 71
3
 72
8
 73
4
 74
0
 40
0
 40
0
 40
0
 40
0
 40
1
 40
1
 40
1
 40
1
 10
96.392631
 20
171.633610
 30
0.0
 10
97.125081
 20
171.999300
 30
0.0
 10
98.221661
 20
172.672370
 30
0.0
 10
98.829471
 20
173.129330
 30
0.0
  0
SPLINE
  5
19b
100
AcDbEntity
  8
Calque_1
 62
7
100
AcDbSpline
 70
8
 71
3
 72
8
 73
4
 74
0
 40
0
 40
0
 40
0
 40
0
 40
1
 40
1
 40
1
 40
1
 10
98.829471
 20
173.129330
 30
0.0
 10
99.437291
 20
173.586300
 30
0.0
 10
100.539640
 20
174.611450
 30
0.0
 10
101.279130
 20
175.407440
 30
0.0
  0
SPLINE
  5
19c
100
AcDbEntity
  8
Calque_1
 62
7
100
AcDbSpline
 70
8
 71
3
 72
8
 73
4
 74
0
 40
0
 40
0
 40
0
 40
0
 40
1
 40
1
 40
1
 40
1
 10
101.279130
 20
175.407440
 30
0.0
 10
102.018630
 20
176.203440
 30
0.0
 10
102.914270
 20
177.292520
 30
0.0
 10
103.269450
 20
177.827620
 30
0.0
  0
SPLINE
  5
19d
100
AcDbEntity
  8
Calque_1
 62
7
100
AcDbSpline
 70
8
 71
3
 72
8
 73
4
 74
0
 40
0
 40
0
 40
0
 40
0
 40
1
 40
1
 40
1
 40
1
 10
103.269450
 20
177.827620
 30
0.0
 10
103.624630
 20
178.362710
 30
0.0
 10
104.257250
 20
179.643900
 30
0.0
 10
104.675270
 20
180.674690
 30
0.0
  0
SPLINE
  5
19e
100
AcDbEntity
  8
Calque_1
 62
7
100
AcDbSpline
 70
8
 71
3
 72
8
 73
4
 74
0
 40
0
 40
0
 40
0
 40
0
 40
1
 40
1
 40
1
 40
1
 10
104.675270
 20
180.674690
 30
0.0
 10
105.121620
 20
181.775330
 30
0.0
 10
105.556420
 20
183.245080
 30
0.0
 10
105.728730
 20
184.235710
 30
0.0
  0
SPLINE
  5
19f
100
AcDbEntity
  8
Calque_1
 62
7
100
AcDbSpline
 70
8
 71
3
 72
8
 73
4
 74
0
 40
0
 40
0
 40
0
 40
0
 40
1
 40
1
 40
1
 40
1
 10
105.728730
 20
184.235710
 30
0.0
 10
105.943700
 20
185.471540
 30
0.0
 10
105.995900
 20
186.492270
 30
0.0
 10
105.924000
 20
188.053310
 30
0.0
  0
SPLINE
  5
1a0
100
AcDbEntity
  8
Calque_1
 62
7
100
AcDbSpline
 70
8
 71
3
 72
8
 73
4
 74
0
 40
0
 40
0
 40
0
 40
0
 40
1
 40
1
 40
1
 40
1
 10
105.924000
 20
188.053310
 30
0.0
 10
105.861400
 20
189.412540
 30
0.0
 10
105.690970
 20
190.657450
 30
0.0
 10
105.453360
 20
191.491400
 30
0.0
  0
SPLINE
  5
1a1
100
AcDbEntity
  8
Calque_1
 62
7
100
AcDbSpline
 70
8
 71
3
 72
8
 73
4
 74
0
 40
0
 40
0
 40
0
 40
0
 40
1
 40
1
 40
1
 40
1
 10
105.453360
 20
191.491400
 30
0.0
 10
105.248500
 20
192.210420
 30
0.0
 10
104.875080
 20
193.289120
 30
0.0
 10
104.623530
 20
193.888500
 30
0.0
  0
SPLINE
  5
1a2
100
AcDbEntity
  8
Calque_1
 62
7
100
AcDbSpline
 70
8
 71
3
 72
8
 73
4
 74
0
 40
0
 40
0
 40
0
 40
0
 40
1
 40
1
 40
1
 40
1
 10
104.623530
 20
193.888500
 30
0.0
 10
104.371990
 20
194.487870
 30
0.0
 10
103.857240
 20
195.508420
 30
0.0
 10
103.479650
 20
196.156380
 30
0.0
  0
SPLINE
  5
1a3
100
AcDbEntity
  8
Calque_1
 62
7
100
AcDbSpline
 70
8
 71
3
 72
8
 73
4
 74
0
 40
0
 40
0
 40
0
 40
0
 40
1
 40
1
 40
1
 40
1
 10
103.479650
 20
196.156380
 30
0.0
 10
103.102050
 20
196.804340
 30
0.0
 10
102.374530
 20
197.835432
 30
0.0
 10
101.862930
 20
198.447702
 30
0.0
  0
SPLINE
  5
1a4
100
AcDbEntity
  8
Calque_1
 62
7
100
AcDbSpline
 70
8
 71
3
 72
8
 73
4
 74
0
 40
0
 40
0
 40
0
 40
0
 40
1
 40
1
 40
1
 40
1
 10
101.862930
 20
198.447702
 30
0.0
 10
101.351330
 20
199.059972
 30
0.0
 10
100.330710
 20
200.075592
 30
0.0
 10
99.594891
 20
200.704632
 30
0.0
  0
SPLINE
  5
1a5
100
AcDbEntity
  8
Calque_1
 62
7
100
AcDbSpline
 70
8
 71
3
 72
8
 73
4
 74
0
 40
0
 40
0
 40
0
 40
0
 40
1
 40
1
 40
1
 40
1
 10
99.594891
 20
200.704632
 30
0.0
 10
98.736041
 20
201.438862
 30
0.0
 10
97.621301
 20
202.157242
 30
0.0
 10
96.481411
 20
202.711072
 30
0.0
  0
SPLINE
  5
1a6
100
AcDbEntity
  8
Calque_1
 62
7
100
AcDbSpline
 70
8
 71
3
 72
8
 73
4
 74
0
 40
0
 40
0
 40
0
 40
0
 40
1
 40
1
 40
1
 40
1
 10
96.481411
 20
202.711072
 30
0.0
 10
95.504821
 20
203.185572
 30
0.0
 10
94.066561
 20
203.790522
 30
0.0
 10
93.285281
 20
204.055412
 30
0.0
  0
SPLINE
  5
1a7
100
AcDbEntity
  8
Calque_1
 62
7
100
AcDbSpline
 70
8
 71
3
 72
8
 73
4
 74
0
 40
0
 40
0
 40
0
 40
0
 40
1
 40
1
 40
1
 40
1
 10
93.285281
 20
204.055412
 30
0.0
 10
92.043791
 20
204.476342
 30
0.0
 10
91.517941
 20
204.546512
 30
0.0
 10
89.112551
 20
204.612192
 30
0.0
  0
SPLINE
  5
1a8
100
AcDbEntity
  8
Calque_1
 62
7
100
AcDbSpline
 70
8
 71
3
 72
8
 73
4
 74
0
 40
0
 40
0
 40
0
 40
0
 40
1
 40
1
 40
1
 40
1
 10
89.112551
 20
204.612192
 30
0.0
 10
87.070901
 20
204.667892
 30
0.0
 10
86.027591
 20
204.617192
 30
0.0
 10
85.071581
 20
204.414302
 30
0.0
  0
SPLINE
  5
1a9
100
AcDbEntity
  8
Calque_1
 62
7
100
AcDbSpline
 70
8
 71
3
 72
8
 73
4
 74
0
 40
0
 40
0
 40
0
 40
0
 40
1
 40
1
 40
1
 40
1
 10
85.071581
 20
204.414302
 30
0.0
 10
84.362761
 20
204.264142
 30
0.0
 10
82.948791
 20
203.787782
 30
0.0
 10
81.929411
 20
203.355732
 30
0.0
  0
SPLINE
  5
1aa
100
AcDbEntity
  8
Calque_1
 62
7
100
AcDbSpline
 70
8
 71
3
 72
8
 73
4
 74
0
 40
0
 40
0
 40
0
 40
0
 40
1
 40
1
 40
1
 40
1
 10
81.929411
 20
203.355732
 30
0.0
 10
80.910031
 20
202.923682
 30
0.0
 10
79.405651
 20
202.124152
 30
0.0
 10
78.586341
 20
201.579002
 30
0.0
  0
SPLINE
  5
1ab
100
AcDbEntity
  8
Calque_1
 62
7
100
AcDbSpline
 70
8
 71
3
 72
8
 73
4
 74
0
 40
0
 40
0
 40
0
 40
0
 40
1
 40
1
 40
1
 40
1
 10
78.586341
 20
201.579002
 30
0.0
 10
77.767021
 20
201.033842
 30
0.0
 10
76.571161
 20
200.030742
 30
0.0
 10
75.928871
 20
199.349872
 30
0.0
  0
SPLINE
  5
1ac
100
AcDbEntity
  8
Calque_1
 62
7
100
AcDbSpline
 70
8
 71
3
 72
8
 73
4
 74
0
 40
0
 40
0
 40
0
 40
0
 40
1
 40
1
 40
1
 40
1
 10
75.928871
 20
199.349872
 30
0.0
 10
75.286571
 20
198.669002
 30
0.0
 10
74.445381
 20
197.646572
 30
0.0
 10
74.059551
 20
197.077792
 30
0.0
  0
SPLINE
  5
1ad
100
AcDbEntity
  8
Calque_1
 62
7
100
AcDbSpline
 70
8
 71
3
 72
8
 73
4
 74
0
 40
0
 40
0
 40
0
 40
0
 40
1
 40
1
 40
1
 40
1
 10
74.059551
 20
197.077792
 30
0.0
 10
73.673731
 20
196.509010
 30
0.0
 10
73.105151
 20
195.542050
 30
0.0
 10
72.796041
 20
194.929000
 30
0.0
  0
SPLINE
  5
1ae
100
AcDbEntity
  8
Calque_1
 62
7
100
AcDbSpline
 70
8
 71
3
 72
8
 73
4
 74
0
 40
0
 40
0
 40
0
 40
0
 40
1
 40
1
 40
1
 40
1
 10
72.796041
 20
194.929000
 30
0.0
 10
72.486941
 20
194.315940
 30
0.0
 10
71.979291
 20
193.077440
 30
0.0
 10
71.667931
 20
192.176770
 30
0.0
  0
SPLINE
  5
1af
100
AcDbEntity
  8
Calque_1
 62
7
100
AcDbSpline
 70
8
 71
3
 72
8
 73
4
 74
0
 40
0
 40
0
 40
0
 40
0
 40
1
 40
1
 40
1
 40
1
 10
71.667931
 20
192.176770
 30
0.0
 10
71.111041
 20
190.565830
 30
0.0
 10
71.101821
 20
190.485770
 30
0.0
 10
71.101261
 20
187.254280
 30
0.0
  0
LWPOLYLINE
  5
1b0
100
AcDbEntity
  8
Calque_1
 62
7
100
AcDbPolyline
 90
2
 70
0
 10
93.674751
 20
162.021430
 30
0.0
 10
93.674911
 20
162.021390
 30
0.0
  0
SPLINE
  5
1b1
100
AcDbEntity
  8
Calque_1
 62
7
100
AcDbSpline
 70
8
 71
3
 72
8
 73
4
 74
0
 40
0
 40
0
 40
0
 40
0
 40
1
 40
1
 40
1
 40
1
 10
71.764571
 20
182.035660
 30
0.0
 10
72.129701
 20
180.972120
 30
0.0
 10
72.709131
 20
179.567820
 30
0.0
 10
73.052181
 20
178.915000
 30
0.0
  0
SPLINE
  5
1b2
100
AcDbEntity
  8
Calque_1
 62
7
100
AcDbSpline
 70
8
 71
3
 72
8
 73
4
 74
0
 40
0
 40
0
 40
0
 40
0
 40
1
 40
1
 40
1
 40
1
 10
73.052181
 20
178.915000
 30
0.0
 10
73.395231
 20
178.262170
 30
0.0
 10
74.315121
 20
176.994710
 30
0.0
 10
75.096391
 20
176.098420
 30
0.0
  0
SPLINE
  5
1b3
100
AcDbEntity
  8
Calque_1
 62
7
100
AcDbSpline
 70
8
 71
3
 72
8
 73
4
 74
0
 40
0
 40
0
 40
0
 40
0
 40
1
 40
1
 40
1
 40
1
 10
75.096391
 20
176.098420
 30
0.0
 10
75.877661
 20
175.202120
 30
0.0
 10
77.093641
 20
173.992780
 30
0.0
 10
77.798561
 20
173.411000
 30
0.0
  0
SPLINE
  5
1b4
100
AcDbEntity
  8
Calque_1
 62
7
100
AcDbSpline
 70
8
 71
3
 72
8
 73
4
 74
0
 40
0
 40
0
 40
0
 40
0
 40
1
 40
1
 40
1
 40
1
 10
77.798561
 20
173.411000
 30
0.0
 10
78.503491
 20
172.829210
 30
0.0
 10
79.719471
 20
172.036480
 30
0.0
 10
80.500751
 20
171.649370
 30
0.0
  0
SPLINE
  5
1b5
100
AcDbEntity
  8
Calque_1
 62
7
100
AcDbSpline
 70
8
 71
3
 72
8
 73
4
 74
0
 40
0
 40
0
 40
0
 40
0
 40
1
 40
1
 40
1
 40
1
 10
80.500751
 20
171.649370
 30
0.0
 10
81.282031
 20
171.262270
 30
0.0
 10
82.523671
 20
170.743380
 30
0.0
 10
83.259961
 20
170.496280
 30
0.0
  0
SPLINE
  5
1b6
100
AcDbEntity
  8
Calque_1
 62
7
100
AcDbSpline
 70
8
 71
3
 72
8
 73
4
 74
0
 40
0
 40
0
 40
0
 40
0
 40
1
 40
1
 40
1
 40
1
 10
83.259961
 20
170.496280
 30
0.0
 10
83.996251
 20
170.249180
 30
0.0
 10
85.114891
 20
169.973290
 30
0.0
 10
85.745841
 20
169.883200
 30
0.0
  0
SPLINE
  5
1b7
100
AcDbEntity
  8
Calque_1
 62
7
100
AcDbSpline
 70
8
 71
3
 72
8
 73
4
 74
0
 40
0
 40
0
 40
0
 40
0
 40
1
 40
1
 40
1
 40
1
 10
85.745841
 20
169.883200
 30
0.0
 10
86.376791
 20
169.793100
 30
0.0
 10
87.532241
 20
169.711100
 30
0.0
 10
88.313521
 20
169.700990
 30
0.0
  0
SPLINE
  5
1b8
100
AcDbEntity
  8
Calque_1
 62
7
100
AcDbSpline
 70
8
 71
3
 72
8
 73
4
 74
0
 40
0
 40
0
 40
0
 40
0
 40
1
 40
1
 40
1
 40
1
 10
88.313521
 20
169.700990
 30
0.0
 10
89.094801
 20
169.690890
 30
0.0
 10
90.293341
 20
169.762290
 30
0.0
 10
90.976961
 20
169.859630
 30
0.0
  0
LWPOLYLINE
  5
1b9
100
AcDbEntity
  8
Calque_1
 62
7
100
AcDbPolyline
 90
2
 70
0
 10
71.101261
 20
187.254280
 30
0.0
 10
71.764571
 20
182.035660
 30
0.0
  0
SPLINE
  5
1ba
100
AcDbEntity
  8
Calque_1
 62
7
100
AcDbSpline
 70
8
 71
3
 72
8
 73
4
 74
0
 40
0
 40
0
 40
0
 40
0
 40
1
 40
1
 40
1
 40
1
 10
92.575031
 20
206.431312
 30
0.0
 10
93.356311
 20
206.641052
 30
0.0
 10
94.662211
 20
207.124632
 30
0.0
 10
95.477031
 20
207.505942
 30
0.0
  0
SPLINE
  5
1bb
100
AcDbEntity
  8
Calque_1
 62
7
100
AcDbSpline
 70
8
 71
3
 72
8
 73
4
 74
0
 40
0
 40
0
 40
0
 40
0
 40
1
 40
1
 40
1
 40
1
 10
95.477031
 20
207.505942
 30
0.0
 10
96.291861
 20
207.887252
 30
0.0
 10
97.450451
 20
208.551002
 30
0.0
 10
98.051691
 20
208.980942
 30
0.0
  0
SPLINE
  5
1bc
100
AcDbEntity
  8
Calque_1
 62
7
100
AcDbSpline
 70
8
 71
3
 72
8
 73
4
 74
0
 40
0
 40
0
 40
0
 40
0
 40
1
 40
1
 40
1
 40
1
 10
98.051691
 20
208.980942
 30
0.0
 10
98.652931
 20
209.410882
 30
0.0
 10
99.284071
 20
209.917572
 30
0.0
 10
99.454221
 20
210.106912
 30
0.0
  0
SPLINE
  5
1bd
100
AcDbEntity
  8
Calque_1
 62
7
100
AcDbSpline
 70
8
 71
3
 72
8
 73
4
 74
0
 40
0
 40
0
 40
0
 40
0
 40
1
 40
1
 40
1
 40
1
 10
99.454221
 20
210.106912
 30
0.0
 10
99.752591
 20
210.438952
 30
0.0
 10
99.739981
 20
210.464392
 30
0.0
 10
99.099091
 20
210.823352
 30
0.0
  0
SPLINE
  5
1be
100
AcDbEntity
  8
Calque_1
 62
7
100
AcDbSpline
 70
8
 71
3
 72
8
 73
4
 74
0
 40
0
 40
0
 40
0
 40
0
 40
1
 40
1
 40
1
 40
1
 10
99.099091
 20
210.823352
 30
0.0
 10
98.733621
 20
211.028052
 30
0.0
 10
97.475761
 20
211.529462
 30
0.0
 10
96.303851
 20
211.937602
 30
0.0
  0
SPLINE
  5
1bf
100
AcDbEntity
  8
Calque_1
 62
7
100
AcDbSpline
 70
8
 71
3
 72
8
 73
4
 74
0
 40
0
 40
0
 40
0
 40
0
 40
1
 40
1
 40
1
 40
1
 10
96.303851
 20
211.937602
 30
0.0
 10
95.131931
 20
212.345732
 30
0.0
 10
93.693671
 20
212.760402
 30
0.0
 10
93.107721
 20
212.859092
 30
0.0
  0
SPLINE
  5
1c0
100
AcDbEntity
  8
Calque_1
 62
7
100
AcDbSpline
 70
8
 71
3
 72
8
 73
4
 74
0
 40
0
 40
0
 40
0
 40
0
 40
1
 40
1
 40
1
 40
1
 10
93.107721
 20
212.859092
 30
0.0
 10
92.521761
 20
212.957792
 30
0.0
 10
90.654271
 20
213.075262
 30
0.0
 10
88.957751
 20
213.120192
 30
0.0
  0
SPLINE
  5
1c1
100
AcDbEntity
  8
Calque_1
 62
7
100
AcDbSpline
 70
8
 71
3
 72
8
 73
4
 74
0
 40
0
 40
0
 40
0
 40
0
 40
1
 40
1
 40
1
 40
1
 10
88.957751
 20
213.120192
 30
0.0
 10
86.578691
 20
213.183192
 30
0.0
 10
85.554121
 20
213.137192
 30
0.0
 10
84.478321
 20
212.919242
 30
0.0
  0
SPLINE
  5
1c2
100
AcDbEntity
  8
Calque_1
 62
7
100
AcDbSpline
 70
8
 71
3
 72
8
 73
4
 74
0
 40
0
 40
0
 40
0
 40
0
 40
1
 40
1
 40
1
 40
1
 10
84.478321
 20
212.919242
 30
0.0
 10
83.711161
 20
212.763792
 30
0.0
 10
82.382511
 20
212.435252
 30
0.0
 10
81.525771
 20
212.189142
 30
0.0
  0
SPLINE
  5
1c3
100
AcDbEntity
  8
Calque_1
 62
7
100
AcDbSpline
 70
8
 71
3
 72
8
 73
4
 74
0
 40
0
 40
0
 40
0
 40
0
 40
1
 40
1
 40
1
 40
1
 10
81.525771
 20
212.189142
 30
0.0
 10
80.669031
 20
211.943042
 30
0.0
 10
79.348811
 20
211.453082
 30
0.0
 10
78.591951
 20
211.100352
 30
0.0
  0
SPLINE
  5
1c4
100
AcDbEntity
  8
Calque_1
 62
7
100
AcDbSpline
 70
8
 71
3
 72
8
 73
4
 74
0
 40
0
 40
0
 40
0
 40
0
 40
1
 40
1
 40
1
 40
1
 10
78.591951
 20
211.100352
 30
0.0
 10
77.835091
 20
210.747622
 30
0.0
 10
77.215841
 20
210.392892
 30
0.0
 10
77.215841
 20
210.312062
 30
0.0
  0
SPLINE
  5
1c5
100
AcDbEntity
  8
Calque_1
 62
7
100
AcDbSpline
 70
8
 71
3
 72
8
 73
4
 74
0
 40
0
 40
0
 40
0
 40
0
 40
1
 40
1
 40
1
 40
1
 10
77.215841
 20
210.312062
 30
0.0
 10
77.215841
 20
210.231262
 30
0.0
 10
77.675281
 20
209.804082
 30
0.0
 10
78.236821
 20
209.362852
 30
0.0
  0
SPLINE
  5
1c6
100
AcDbEntity
  8
Calque_1
 62
7
100
AcDbSpline
 70
8
 71
3
 72
8
 73
4
 74
0
 40
0
 40
0
 40
0
 40
0
 40
1
 40
1
 40
1
 40
1
 10
78.236821
 20
209.362852
 30
0.0
 10
78.798371
 20
208.921612
 30
0.0
 10
79.791951
 20
208.279602
 30
0.0
 10
80.444791
 20
207.936142
 30
0.0
  0
SPLINE
  5
1c7
100
AcDbEntity
  8
Calque_1
 62
7
100
AcDbSpline
 70
8
 71
3
 72
8
 73
4
 74
0
 40
0
 40
0
 40
0
 40
0
 40
1
 40
1
 40
1
 40
1
 10
80.444791
 20
207.936142
 30
0.0
 10
81.097631
 20
207.592692
 30
0.0
 10
82.163101
 20
207.111702
 30
0.0
 10
82.812501
 20
206.867262
 30
0.0
  0
SPLINE
  5
1c8
100
AcDbEntity
  8
Calque_1
 62
7
100
AcDbSpline
 70
8
 71
3
 72
8
 73
4
 74
0
 40
0
 40
0
 40
0
 40
0
 40
1
 40
1
 40
1
 40
1
 10
82.812501
 20
206.867262
 30
0.0
 10
83.461901
 20
206.622832
 30
0.0
 10
84.605731
 20
206.306612
 30
0.0
 10
85.354341
 20
206.164552
 30
0.0
  0
SPLINE
  5
1c9
100
AcDbEntity
  8
Calque_1
 62
7
100
AcDbSpline
 70
8
 71
3
 72
8
 73
4
 74
0
 40
0
 40
0
 40
0
 40
0
 40
1
 40
1
 40
1
 40
1
 10
85.354341
 20
206.164552
 30
0.0
 10
86.264731
 20
205.991792
 30
0.0
 10
87.450441
 20
205.930052
 30
0.0
 10
88.934991
 20
205.978112
 30
0.0
  0
SPLINE
  5
1ca
100
AcDbEntity
  8
Calque_1
 62
7
100
AcDbSpline
 70
8
 71
3
 72
8
 73
4
 74
0
 40
0
 40
0
 40
0
 40
0
 40
1
 40
1
 40
1
 40
1
 10
88.934991
 20
205.978112
 30
0.0
 10
90.449501
 20
206.027112
 30
0.0
 10
91.605741
 20
206.171102
 30
0.0
 10
92.575031
 20
206.431312
 30
0.0
  0
LWPOLYLINE
  5
1cb
100
AcDbEntity
  8
Calque_1
 62
7
100
AcDbPolyline
 90
1
 70
1
 10
90.976961
 20
169.859630
 30
0.0
  0
SPLINE
  5
1cc
100
AcDbEntity
  8
Calque_1
 62
7
100
AcDbSpline
 70
8
 71
3
 72
8
 73
4
 74
0
 40
0
 40
0
 40
0
 40
0
 40
1
 40
1
 40
1
 40
1
 10
81.180831
 20
212.718052
 30
0.0
 10
81.978701
 20
212.947732
 30
0.0
 10
83.212811
 20
213.238352
 30
0.0
 10
83.923291
 20
213.363862
 30
0.0
  0
LWPOLYLINE
  5
1cd
100
AcDbEntity
  8
Calque_1
 62
7
100
AcDbPolyline
 90
1
 70
1
 10
92.575031
 20
206.431312
 30
0.0
  0
SPLINE
  5
1ce
100
AcDbEntity
  8
Calque_1
 62
7
100
AcDbSpline
 70
8
 71
3
 72
8
 73
4
 74
0
 40
0
 40
0
 40
0
 40
0
 40
1
 40
1
 40
1
 40
1
 10
84.324901
 20
214.078862
 30
0.0
 10
83.835301
 20
214.346602
 30
0.0
 10
83.037411
 20
214.857312
 30
0.0
 10
82.551811
 20
215.213772
 30
0.0
  0
SPLINE
  5
1cf
100
AcDbEntity
  8
Calque_1
 62
7
100
AcDbSpline
 70
8
 71
3
 72
8
 73
4
 74
0
 40
0
 40
0
 40
0
 40
0
 40
1
 40
1
 40
1
 40
1
 10
82.551811
 20
215.213772
 30
0.0
 10
82.043541
 20
215.586882
 30
0.0
 10
81.339461
 20
216.366222
 30
0.0
 10
80.892521
 20
217.050452
 30
0.0
  0
SPLINE
  5
1d0
100
AcDbEntity
  8
Calque_1
 62
7
100
AcDbSpline
 70
8
 71
3
 72
8
 73
4
 74
0
 40
0
 40
0
 40
0
 40
0
 40
1
 40
1
 40
1
 40
1
 10
80.892521
 20
217.050452
 30
0.0
 10
80.465511
 20
217.704161
 30
0.0
 10
79.926481
 20
218.678483
 30
0.0
 10
79.694681
 20
219.215611
 30
0.0
  0
SPLINE
  5
1d1
100
AcDbEntity
  8
Calque_1
 62
7
100
AcDbSpline
 70
8
 71
3
 72
8
 73
4
 74
0
 40
0
 40
0
 40
0
 40
0
 40
1
 40
1
 40
1
 40
1
 10
79.694681
 20
219.215611
 30
0.0
 10
79.324281
 20
220.073934
 30
0.0
 10
79.272301
 20
220.473383
 30
0.0
 10
79.265521
 20
222.513911
 30
0.0
  0
LWPOLYLINE
  5
1d2
100
AcDbEntity
  8
Calque_1
 62
7
100
AcDbPolyline
 90
2
 70
0
 10
83.923291
 20
213.363862
 30
0.0
 10
84.324901
 20
214.078862
 30
0.0
  0
SPLINE
  5
1d3
100
AcDbEntity
  8
Calque_1
 62
7
100
AcDbSpline
 70
8
 71
3
 72
8
 73
4
 74
0
 40
0
 40
0
 40
0
 40
0
 40
1
 40
1
 40
1
 40
1
 10
80.039651
 20
226.420296
 30
0.0
 10
80.630411
 20
227.617685
 30
0.0
 10
81.109101
 20
228.287048
 30
0.0
 10
81.998301
 20
229.159135
 30
0.0
  0
SPLINE
  5
1d4
100
AcDbEntity
  8
Calque_1
 62
7
100
AcDbSpline
 70
8
 71
3
 72
8
 73
4
 74
0
 40
0
 40
0
 40
0
 40
0
 40
1
 40
1
 40
1
 40
1
 10
81.998301
 20
229.159135
 30
0.0
 10
82.750261
 20
229.896620
 30
0.0
 10
83.619061
 20
230.530938
 30
0.0
 10
84.404811
 20
230.916153
 30
0.0
  0
SPLINE
  5
1d5
100
AcDbEntity
  8
Calque_1
 62
7
100
AcDbSpline
 70
8
 71
3
 72
8
 73
4
 74
0
 40
0
 40
0
 40
0
 40
0
 40
1
 40
1
 40
1
 40
1
 10
84.404811
 20
230.916153
 30
0.0
 10
85.319031
 20
231.364349
 30
0.0
 10
86.000931
 20
231.556082
 30
0.0
 10
87.062791
 20
231.663508
 30
0.0
  0
SPLINE
  5
1d6
100
AcDbEntity
  8
Calque_1
 62
7
100
AcDbSpline
 70
8
 71
3
 72
8
 73
4
 74
0
 40
0
 40
0
 40
0
 40
0
 40
1
 40
1
 40
1
 40
1
 10
87.062791
 20
231.663508
 30
0.0
 10
87.848351
 20
231.742978
 30
0.0
 10
89.135731
 20
231.742898
 30
0.0
 10
89.923641
 20
231.663313
 30
0.0
  0
SPLINE
  5
1d7
100
AcDbEntity
  8
Calque_1
 62
7
100
AcDbSpline
 70
8
 71
3
 72
8
 73
4
 74
0
 40
0
 40
0
 40
0
 40
0
 40
1
 40
1
 40
1
 40
1
 10
89.923641
 20
231.663313
 30
0.0
 10
90.905561
 20
231.564133
 30
0.0
 10
91.659621
 20
231.366614
 30
0.0
 10
92.320741
 20
231.035397
 30
0.0
  0
SPLINE
  5
1d8
100
AcDbEntity
  8
Calque_1
 62
7
100
AcDbSpline
 70
8
 71
3
 72
8
 73
4
 74
0
 40
0
 40
0
 40
0
 40
0
 40
1
 40
1
 40
1
 40
1
 10
92.320741
 20
231.035397
 30
0.0
 10
92.851241
 20
230.769625
 30
0.0
 10
93.703301
 20
230.237265
 30
0.0
 10
94.214211
 20
229.852377
 30
0.0
  0
SPLINE
  5
1d9
100
AcDbEntity
  8
Calque_1
 62
7
100
AcDbSpline
 70
8
 71
3
 72
8
 73
4
 74
0
 40
0
 40
0
 40
0
 40
0
 40
1
 40
1
 40
1
 40
1
 10
94.214211
 20
229.852377
 30
0.0
 10
94.725121
 20
229.467489
 30
0.0
 10
95.458041
 20
228.734562
 30
0.0
 10
95.842931
 20
228.223652
 30
0.0
  0
SPLINE
  5
1da
100
AcDbEntity
  8
Calque_1
 62
7
100
AcDbSpline
 70
8
 71
3
 72
8
 73
4
 74
0
 40
0
 40
0
 40
0
 40
0
 40
1
 40
1
 40
1
 40
1
 10
95.842931
 20
228.223652
 30
0.0
 10
96.227821
 20
227.712742
 30
0.0
 10
96.758811
 20
226.863409
 30
0.0
 10
97.022911
 20
226.336245
 30
0.0
  0
SPLINE
  5
1db
100
AcDbEntity
  8
Calque_1
 62
7
100
AcDbSpline
 70
8
 71
3
 72
8
 73
4
 74
0
 40
0
 40
0
 40
0
 40
0
 40
1
 40
1
 40
1
 40
1
 10
97.022911
 20
226.336245
 30
0.0
 10
97.322261
 20
225.738711
 30
0.0
 10
97.571011
 20
224.845696
 30
0.0
 10
97.683461
 20
223.964872
 30
0.0
  0
SPLINE
  5
1dc
100
AcDbEntity
  8
Calque_1
 62
7
100
AcDbSpline
 70
8
 71
3
 72
8
 73
4
 74
0
 40
0
 40
0
 40
0
 40
0
 40
1
 40
1
 40
1
 40
1
 10
97.683461
 20
223.964872
 30
0.0
 10
97.805891
 20
223.005875
 30
0.0
 10
97.805531
 20
222.071194
 30
0.0
 10
97.682461
 20
221.055388
 30
0.0
  0
SPLINE
  5
1dd
100
AcDbEntity
  8
Calque_1
 62
7
100
AcDbSpline
 70
8
 71
3
 72
8
 73
4
 74
0
 40
0
 40
0
 40
0
 40
0
 40
1
 40
1
 40
1
 40
1
 10
97.682461
 20
221.055388
 30
0.0
 10
97.553551
 20
219.992353
 30
0.0
 10
97.333661
 20
219.218919
 30
0.0
 10
96.923401
 20
218.385572
 30
0.0
  0
SPLINE
  5
1de
100
AcDbEntity
  8
Calque_1
 62
7
100
AcDbSpline
 70
8
 71
3
 72
8
 73
4
 74
0
 40
0
 40
0
 40
0
 40
0
 40
1
 40
1
 40
1
 40
1
 10
96.923401
 20
218.385572
 30
0.0
 10
96.561791
 20
217.651026
 30
0.0
 10
95.906451
 20
216.766172
 30
0.0
 10
95.170731
 20
216.019072
 30
0.0
  0
SPLINE
  5
1df
100
AcDbEntity
  8
Calque_1
 62
7
100
AcDbSpline
 70
8
 71
3
 72
8
 73
4
 74
0
 40
0
 40
0
 40
0
 40
0
 40
1
 40
1
 40
1
 40
1
 10
95.170731
 20
216.019072
 30
0.0
 10
94.524431
 20
215.362772
 30
0.0
 10
93.522511
 20
214.559662
 30
0.0
 10
92.944241
 20
214.234372
 30
0.0
  0
LWPOLYLINE
  5
1e0
100
AcDbEntity
  8
Calque_1
 62
7
100
AcDbPolyline
 90
2
 70
0
 10
79.265521
 20
222.513911
 30
0.0
 10
80.039651
 20
226.420296
 30
0.0
  0
SPLINE
  5
1e1
100
AcDbEntity
  8
Calque_1
 62
7
100
AcDbSpline
 70
8
 71
3
 72
8
 73
4
 74
0
 40
0
 40
0
 40
0
 40
0
 40
1
 40
1
 40
1
 40
1
 10
93.802581
 20
213.242662
 30
0.0
 10
94.852921
 20
213.022502
 30
0.0
 10
96.244941
 20
212.665532
 30
0.0
 10
96.895941
 20
212.449402
 30
0.0
  0
SPLINE
  5
1e2
100
AcDbEntity
  8
Calque_1
 62
7
100
AcDbSpline
 70
8
 71
3
 72
8
 73
4
 74
0
 40
0
 40
0
 40
0
 40
0
 40
1
 40
1
 40
1
 40
1
 10
96.895941
 20
212.449402
 30
0.0
 10
97.546941
 20
212.233262
 30
0.0
 10
98.591421
 20
211.827222
 30
0.0
 10
99.216991
 20
211.547092
 30
0.0
  0
LWPOLYLINE
  5
1e3
100
AcDbEntity
  8
Calque_1
 62
7
100
AcDbPolyline
 90
2
 70
0
 10
92.944241
 20
214.234372
 30
0.0
 10
93.802581
 20
213.242662
 30
0.0
  0
SPLINE
  5
1e4
100
AcDbEntity
  8
Calque_1
 62
7
100
AcDbSpline
 70
8
 71
3
 72
8
 73
4
 74
0
 40
0
 40
0
 40
0
 40
0
 40
1
 40
1
 40
1
 40
1
 10
100.789890
 20
211.442252
 30
0.0
 10
101.029410
 20
211.664722
 30
0.0
 10
101.577970
 20
212.338672
 30
0.0
 10
102.008920
 20
212.939912
 30
0.0
  0
SPLINE
  5
1e5
100
AcDbEntity
  8
Calque_1
 62
7
100
AcDbSpline
 70
8
 71
3
 72
8
 73
4
 74
0
 40
0
 40
0
 40
0
 40
0
 40
1
 40
1
 40
1
 40
1
 10
102.008920
 20
212.939912
 30
0.0
 10
102.439870
 20
213.541152
 30
0.0
 10
103.104770
 20
214.699752
 30
0.0
 10
103.486470
 20
215.514572
 30
0.0
  0
SPLINE
  5
1e6
100
AcDbEntity
  8
Calque_1
 62
7
100
AcDbSpline
 70
8
 71
3
 72
8
 73
4
 74
0
 40
0
 40
0
 40
0
 40
0
 40
1
 40
1
 40
1
 40
1
 10
103.486470
 20
215.514572
 30
0.0
 10
103.868180
 20
216.329402
 30
0.0
 10
104.364130
 20
217.675253
 30
0.0
 10
104.588590
 20
218.505359
 30
0.0
  0
SPLINE
  5
1e7
100
AcDbEntity
  8
Calque_1
 62
7
100
AcDbSpline
 70
8
 71
3
 72
8
 73
4
 74
0
 40
0
 40
0
 40
0
 40
0
 40
1
 40
1
 40
1
 40
1
 10
104.588590
 20
218.505359
 30
0.0
 10
104.926200
 20
219.753936
 30
0.0
 10
104.996700
 20
220.459382
 30
0.0
 10
104.996700
 20
222.589307
 30
0.0
  0
SPLINE
  5
1e8
100
AcDbEntity
  8
Calque_1
 62
7
100
AcDbSpline
 70
8
 71
3
 72
8
 73
4
 74
0
 40
0
 40
0
 40
0
 40
0
 40
1
 40
1
 40
1
 40
1
 10
104.996700
 20
222.589307
 30
0.0
 10
104.996700
 20
224.714341
 30
0.0
 10
104.925900
 20
225.425471
 30
0.0
 10
104.591450
 20
226.661387
 30
0.0
  0
SPLINE
  5
1e9
100
AcDbEntity
  8
Calque_1
 62
7
100
AcDbSpline
 70
8
 71
3
 72
8
 73
4
 74
0
 40
0
 40
0
 40
0
 40
0
 40
1
 40
1
 40
1
 40
1
 10
104.591450
 20
226.661387
 30
0.0
 10
104.368560
 20
227.484967
 30
0.0
 10
103.918220
 20
228.738812
 30
0.0
 10
103.590690
 20
229.447710
 30
0.0
  0
LWPOLYLINE
  5
1ea
100
AcDbEntity
  8
Calque_1
 62
7
100
AcDbPolyline
 90
2
 70
0
 10
99.216991
 20
211.547092
 30
0.0
 10
100.789890
 20
211.442252
 30
0.0
  0
SPLINE
  5
1eb
100
AcDbEntity
  8
Calque_1
 62
7
100
AcDbSpline
 70
8
 71
3
 72
8
 73
4
 74
0
 40
0
 40
0
 40
0
 40
0
 40
1
 40
1
 40
1
 40
1
 10
103.900800
 20
230.729599
 30
0.0
 10
104.571460
 20
230.724399
 30
0.0
 10
104.866670
 20
230.804979
 30
0.0
 10
105.038650
 20
231.040175
 30
0.0
  0
SPLINE
  5
1ec
100
AcDbEntity
  8
Calque_1
 62
7
100
AcDbSpline
 70
8
 71
3
 72
8
 73
4
 74
0
 40
0
 40
0
 40
0
 40
0
 40
1
 40
1
 40
1
 40
1
 10
105.038650
 20
231.040175
 30
0.0
 10
105.206000
 20
231.269102
 30
0.0
 10
105.270840
 20
232.119101
 30
0.0
 10
105.270840
 20
234.084871
 30
0.0
  0
SPLINE
  5
1ed
100
AcDbEntity
  8
Calque_1
 62
7
100
AcDbSpline
 70
8
 71
3
 72
8
 73
4
 74
0
 40
0
 40
0
 40
0
 40
0
 40
1
 40
1
 40
1
 40
1
 10
105.270840
 20
234.084871
 30
0.0
 10
105.270840
 20
236.167049
 30
0.0
 10
105.207540
 20
236.934322
 30
0.0
 10
105.003310
 20
237.329322
 30
0.0
  0
SPLINE
  5
1ee
100
AcDbEntity
  8
Calque_1
 62
7
100
AcDbSpline
 70
8
 71
3
 72
8
 73
4
 74
0
 40
0
 40
0
 40
0
 40
0
 40
1
 40
1
 40
1
 40
1
 10
105.003310
 20
237.329322
 30
0.0
 10
104.820190
 20
237.683422
 30
0.0
 10
104.526040
 20
237.902368
 30
0.0
 10
104.071100
 20
238.023185
 30
0.0
  0
SPLINE
  5
1ef
100
AcDbEntity
  8
Calque_1
 62
7
100
AcDbSpline
 70
8
 71
3
 72
8
 73
4
 74
0
 40
0
 40
0
 40
0
 40
0
 40
1
 40
1
 40
1
 40
1
 10
104.071100
 20
238.023185
 30
0.0
 10
103.705530
 20
238.120265
 30
0.0
 10
101.249040
 20
238.230434
 30
0.0
 10
98.612231
 20
238.267996
 30
0.0
  0
SPLINE
  5
1f0
100
AcDbEntity
  8
Calque_1
 62
7
100
AcDbSpline
 70
8
 71
3
 72
8
 73
4
 74
0
 40
0
 40
0
 40
0
 40
0
 40
1
 40
1
 40
1
 40
1
 10
98.612231
 20
238.267996
 30
0.0
 10
94.314541
 20
238.329216
 30
0.0
 10
93.680111
 20
238.376800
 30
0.0
 10
92.486311
 20
238.727433
 30
0.0
  0
SPLINE
  5
1f1
100
AcDbEntity
  8
Calque_1
 62
7
100
AcDbSpline
 70
8
 71
3
 72
8
 73
4
 74
0
 40
0
 40
0
 40
0
 40
0
 40
1
 40
1
 40
1
 40
1
 10
92.486311
 20
238.727433
 30
0.0
 10
91.731251
 20
238.949201
 30
0.0
 10
90.379981
 20
239.164394
 30
0.0
 10
89.365751
 20
239.224386
 30
0.0
  0
SPLINE
  5
1f2
100
AcDbEntity
  8
Calque_1
 62
7
100
AcDbSpline
 70
8
 71
3
 72
8
 73
4
 74
0
 40
0
 40
0
 40
0
 40
0
 40
1
 40
1
 40
1
 40
1
 10
89.365751
 20
239.224386
 30
0.0
 10
88.297911
 20
239.287546
 30
0.0
 10
86.981421
 20
239.243126
 30
0.0
 10
86.099441
 20
239.114159
 30
0.0
  0
SPLINE
  5
1f3
100
AcDbEntity
  8
Calque_1
 62
7
100
AcDbSpline
 70
8
 71
3
 72
8
 73
4
 74
0
 40
0
 40
0
 40
0
 40
0
 40
1
 40
1
 40
1
 40
1
 10
86.099441
 20
239.114159
 30
0.0
 10
85.286821
 20
238.995339
 30
0.0
 10
83.950801
 20
238.669847
 30
0.0
 10
83.130511
 20
238.390844
 30
0.0
  0
SPLINE
  5
1f4
100
AcDbEntity
  8
Calque_1
 62
7
100
AcDbSpline
 70
8
 71
3
 72
8
 73
4
 74
0
 40
0
 40
0
 40
0
 40
0
 40
1
 40
1
 40
1
 40
1
 10
83.130511
 20
238.390844
 30
0.0
 10
82.310211
 20
238.111840
 30
0.0
 10
81.108901
 20
237.592152
 30
0.0
 10
80.460931
 20
237.235981
 30
0.0
  0
SPLINE
  5
1f5
100
AcDbEntity
  8
Calque_1
 62
7
100
AcDbSpline
 70
8
 71
3
 72
8
 73
4
 74
0
 40
0
 40
0
 40
0
 40
0
 40
1
 40
1
 40
1
 40
1
 10
80.460931
 20
237.235981
 30
0.0
 10
79.812951
 20
236.879810
 30
0.0
 10
78.834851
 20
236.243710
 30
0.0
 10
78.287361
 20
235.822426
 30
0.0
  0
SPLINE
  5
1f6
100
AcDbEntity
  8
Calque_1
 62
7
100
AcDbSpline
 70
8
 71
3
 72
8
 73
4
 74
0
 40
0
 40
0
 40
0
 40
0
 40
1
 40
1
 40
1
 40
1
 10
78.287361
 20
235.822426
 30
0.0
 10
77.739871
 20
235.401142
 30
0.0
 10
76.786341
 20
234.515989
 30
0.0
 10
76.168411
 20
233.855419
 30
0.0
  0
SPLINE
  5
1f7
100
AcDbEntity
  8
Calque_1
 62
7
100
AcDbSpline
 70
8
 71
3
 72
8
 73
4
 74
0
 40
0
 40
0
 40
0
 40
0
 40
1
 40
1
 40
1
 40
1
 10
76.168411
 20
233.855419
 30
0.0
 10
75.550481
 20
233.194850
 30
0.0
 10
74.761961
 20
232.212074
 30
0.0
 10
74.416141
 20
231.671473
 30
0.0
  0
SPLINE
  5
1f8
100
AcDbEntity
  8
Calque_1
 62
7
100
AcDbSpline
 70
8
 71
3
 72
8
 73
4
 74
0
 40
0
 40
0
 40
0
 40
0
 40
1
 40
1
 40
1
 40
1
 10
74.416141
 20
231.671473
 30
0.0
 10
74.070321
 20
231.130871
 30
0.0
 10
73.524401
 20
230.119366
 30
0.0
 10
73.202971
 20
229.423683
 30
0.0
  0
SPLINE
  5
1f9
100
AcDbEntity
  8
Calque_1
 62
7
100
AcDbSpline
 70
8
 71
3
 72
8
 73
4
 74
0
 40
0
 40
0
 40
0
 40
0
 40
1
 40
1
 40
1
 40
1
 10
73.202971
 20
229.423683
 30
0.0
 10
72.881551
 20
228.728000
 30
0.0
 10
72.435541
 20
227.484967
 30
0.0
 10
72.211851
 20
226.661387
 30
0.0
  0
SPLINE
  5
1fa
100
AcDbEntity
  8
Calque_1
 62
7
100
AcDbSpline
 70
8
 71
3
 72
8
 73
4
 74
0
 40
0
 40
0
 40
0
 40
0
 40
1
 40
1
 40
1
 40
1
 10
72.211851
 20
226.661387
 30
0.0
 10
71.868101
 20
225.395800
 30
0.0
 10
71.807301
 20
224.751614
 30
0.0
 10
71.819131
 20
222.500525
 30
0.0
  0
SPLINE
  5
1fb
100
AcDbEntity
  8
Calque_1
 62
7
100
AcDbSpline
 70
8
 71
3
 72
8
 73
4
 74
0
 40
0
 40
0
 40
0
 40
0
 40
1
 40
1
 40
1
 40
1
 10
71.819131
 20
222.500525
 30
0.0
 10
71.830331
 20
220.368518
 30
0.0
 10
71.908431
 20
219.561308
 30
0.0
 10
72.210471
 20
218.454970
 30
0.0
  0
SPLINE
  5
1fc
100
AcDbEntity
  8
Calque_1
 62
7
100
AcDbSpline
 70
8
 71
3
 72
8
 73
4
 74
0
 40
0
 40
0
 40
0
 40
0
 40
1
 40
1
 40
1
 40
1
 10
72.210471
 20
218.454970
 30
0.0
 10
72.418001
 20
217.694809
 30
0.0
 10
72.901941
 20
216.402512
 30
0.0
 10
73.285881
 20
215.583192
 30
0.0
  0
SPLINE
  5
1fd
100
AcDbEntity
  8
Calque_1
 62
7
100
AcDbSpline
 70
8
 71
3
 72
8
 73
4
 74
0
 40
0
 40
0
 40
0
 40
0
 40
1
 40
1
 40
1
 40
1
 10
73.285881
 20
215.583192
 30
0.0
 10
73.669831
 20
214.763872
 30
0.0
 10
74.248951
 20
213.707852
 30
0.0
 10
74.572821
 20
213.236482
 30
0.0
  0
SPLINE
  5
1fe
100
AcDbEntity
  8
Calque_1
 62
7
100
AcDbSpline
 70
8
 71
3
 72
8
 73
4
 74
0
 40
0
 40
0
 40
0
 40
0
 40
1
 40
1
 40
1
 40
1
 10
74.572821
 20
213.236482
 30
0.0
 10
74.896691
 20
212.765102
 30
0.0
 10
75.465401
 20
212.049442
 30
0.0
 10
75.836621
 20
211.646122
 30
0.0
  0
LWPOLYLINE
  5
1ff
100
AcDbEntity
  8
Calque_1
 62
7
100
AcDbPolyline
 90
2
 70
0
 10
103.590690
 20
229.447710
 30
0.0
 10
103.900800
 20
230.729599
 30
0.0
  0
SPLINE
  5
200
100
AcDbEntity
  8
Calque_1
 62
7
100
AcDbSpline
 70
8
 71
3
 72
8
 73
4
 74
0
 40
0
 40
0
 40
0
 40
0
 40
1
 40
1
 40
1
 40
1
 10
78.120881
 20
211.606622
 30
0.0
 10
79.006021
 20
211.988222
 30
0.0
 10
80.383021
 20
212.488362
 30
0.0
 10
81.180891
 20
212.718042
 30
0.0
  0
LWPOLYLINE
  5
201
100
AcDbEntity
  8
Calque_1
 62
7
100
AcDbPolyline
 90
2
 70
0
 10
75.836621
 20
211.646122
 30
0.0
 10
78.120881
 20
211.606622
 30
0.0
  0
SPLINE
  5
202
100
AcDbEntity
  8
Calque_1
 62
7
100
AcDbSpline
 70
8
 71
3
 72
8
 73
4
 74
0
 40
0
 40
0
 40
0
 40
0
 40
1
 40
1
 40
1
 40
1
 10
90.671821
 20
214.156932
 30
0.0
 10
91.285261
 20
214.301562
 30
0.0
 10
92.124251
 20
214.591532
 30
0.0
 10
92.536231
 20
214.801292
 30
0.0
  0
SPLINE
  5
203
100
AcDbEntity
  8
Calque_1
 62
7
100
AcDbSpline
 70
8
 71
3
 72
8
 73
4
 74
0
 40
0
 40
0
 40
0
 40
0
 40
1
 40
1
 40
1
 40
1
 10
92.536231
 20
214.801292
 30
0.0
 10
92.948211
 20
215.011062
 30
0.0
 10
93.850961
 20
215.750512
 30
0.0
 10
94.542341
 20
216.444512
 30
0.0
  0
SPLINE
  5
204
100
AcDbEntity
  8
Calque_1
 62
7
100
AcDbSpline
 70
8
 71
3
 72
8
 73
4
 74
0
 40
0
 40
0
 40
0
 40
0
 40
1
 40
1
 40
1
 40
1
 10
94.542341
 20
216.444512
 30
0.0
 10
95.339421
 20
217.244600
 30
0.0
 10
95.975601
 20
218.081577
 30
0.0
 10
96.280911
 20
218.731817
 30
0.0
  0
SPLINE
  5
205
100
AcDbEntity
  8
Calque_1
 62
7
100
AcDbSpline
 70
8
 71
3
 72
8
 73
4
 74
0
 40
0
 40
0
 40
0
 40
0
 40
1
 40
1
 40
1
 40
1
 10
96.280911
 20
218.731817
 30
0.0
 10
96.545741
 20
219.295837
 30
0.0
 10
96.854291
 20
220.387595
 30
0.0
 10
96.966571
 20
221.157943
 30
0.0
  0
SPLINE
  5
206
100
AcDbEntity
  8
Calque_1
 62
7
100
AcDbSpline
 70
8
 71
3
 72
8
 73
4
 74
0
 40
0
 40
0
 40
0
 40
0
 40
1
 40
1
 40
1
 40
1
 10
96.966571
 20
221.157943
 30
0.0
 10
97.118741
 20
222.202031
 30
0.0
 10
97.119941
 20
222.886612
 30
0.0
 10
96.971571
 20
223.847206
 30
0.0
  0
SPLINE
  5
207
100
AcDbEntity
  8
Calque_1
 62
7
100
AcDbSpline
 70
8
 71
3
 72
8
 73
4
 74
0
 40
0
 40
0
 40
0
 40
0
 40
1
 40
1
 40
1
 40
1
 10
96.971571
 20
223.847206
 30
0.0
 10
96.849011
 20
224.638986
 30
0.0
 10
96.528121
 20
225.629512
 30
0.0
 10
96.139291
 20
226.416243
 30
0.0
  0
SPLINE
  5
208
100
AcDbEntity
  8
Calque_1
 62
7
100
AcDbSpline
 70
8
 71
3
 72
8
 73
4
 74
0
 40
0
 40
0
 40
0
 40
0
 40
1
 40
1
 40
1
 40
1
 10
96.139291
 20
226.416243
 30
0.0
 10
95.688741
 20
227.327884
 30
0.0
 10
95.178121
 20
228.003813
 30
0.0
 10
94.366391
 20
228.763149
 30
0.0
  0
SPLINE
  5
209
100
AcDbEntity
  8
Calque_1
 62
7
100
AcDbSpline
 70
8
 71
3
 72
8
 73
4
 74
0
 40
0
 40
0
 40
0
 40
0
 40
1
 40
1
 40
1
 40
1
 10
94.366391
 20
228.763149
 30
0.0
 10
93.739341
 20
229.349722
 30
0.0
 10
92.778911
 20
230.041297
 30
0.0
 10
92.232091
 20
230.299982
 30
0.0
  0
SPLINE
  5
20a
100
AcDbEntity
  8
Calque_1
 62
7
100
AcDbSpline
 70
8
 71
3
 72
8
 73
4
 74
0
 40
0
 40
0
 40
0
 40
0
 40
1
 40
1
 40
1
 40
1
 10
92.232091
 20
230.299982
 30
0.0
 10
91.685281
 20
230.558667
 30
0.0
 10
90.779731
 20
230.856167
 30
0.0
 10
90.219771
 20
230.961092
 30
0.0
  0
SPLINE
  5
20b
100
AcDbEntity
  8
Calque_1
 62
7
100
AcDbSpline
 70
8
 71
3
 72
8
 73
4
 74
0
 40
0
 40
0
 40
0
 40
0
 40
1
 40
1
 40
1
 40
1
 10
90.219771
 20
230.961092
 30
0.0
 10
89.659801
 20
231.066018
 30
0.0
 10
88.532701
 20
231.111253
 30
0.0
 10
87.715101
 20
231.061614
 30
0.0
  0
SPLINE
  5
20c
100
AcDbEntity
  8
Calque_1
 62
7
100
AcDbSpline
 70
8
 71
3
 72
8
 73
4
 74
0
 40
0
 40
0
 40
0
 40
0
 40
1
 40
1
 40
1
 40
1
 10
87.715101
 20
231.061614
 30
0.0
 10
86.437511
 20
230.984044
 30
0.0
 10
86.025691
 20
230.870817
 30
0.0
 10
84.785311
 20
230.256073
 30
0.0
  0
SPLINE
  5
20d
100
AcDbEntity
  8
Calque_1
 62
7
100
AcDbSpline
 70
8
 71
3
 72
8
 73
4
 74
0
 40
0
 40
0
 40
0
 40
0
 40
1
 40
1
 40
1
 40
1
 10
84.785311
 20
230.256073
 30
0.0
 10
83.865301
 20
229.800105
 30
0.0
 10
83.004821
 20
229.201681
 30
0.0
 10
82.411821
 20
228.605426
 30
0.0
  0
SPLINE
  5
20e
100
AcDbEntity
  8
Calque_1
 62
7
100
AcDbSpline
 70
8
 71
3
 72
8
 73
4
 74
0
 40
0
 40
0
 40
0
 40
0
 40
1
 40
1
 40
1
 40
1
 10
82.411821
 20
228.605426
 30
0.0
 10
81.887671
 20
228.078403
 30
0.0
 10
81.151271
 20
227.045525
 30
0.0
 10
80.724971
 20
226.239455
 30
0.0
  0
LWPOLYLINE
  5
20f
100
AcDbEntity
  8
Calque_1
 62
7
100
AcDbPolyline
 90
1
 70
1
 10
81.180891
 20
212.718042
 30
0.0
  0
SPLINE
  5
210
100
AcDbEntity
  8
Calque_1
 62
7
100
AcDbSpline
 70
8
 71
3
 72
8
 73
4
 74
0
 40
0
 40
0
 40
0
 40
0
 40
1
 40
1
 40
1
 40
1
 10
80.676051
 20
218.774273
 30
0.0
 10
81.137551
 20
217.849596
 30
0.0
 10
81.738001
 20
217.002072
 30
0.0
 10
82.402131
 20
216.337942
 30
0.0
  0
SPLINE
  5
211
100
AcDbEntity
  8
Calque_1
 62
7
100
AcDbSpline
 70
8
 71
3
 72
8
 73
4
 74
0
 40
0
 40
0
 40
0
 40
0
 40
1
 40
1
 40
1
 40
1
 10
82.402131
 20
216.337942
 30
0.0
 10
82.962251
 20
215.777832
 30
0.0
 10
83.911301
 20
215.071812
 30
0.0
 10
84.511131
 20
214.769012
 30
0.0
  0
SPLINE
  5
212
100
AcDbEntity
  8
Calque_1
 62
7
100
AcDbSpline
 70
8
 71
3
 72
8
 73
4
 74
0
 40
0
 40
0
 40
0
 40
0
 40
1
 40
1
 40
1
 40
1
 10
84.511131
 20
214.769012
 30
0.0
 10
85.110961
 20
214.466222
 30
0.0
 10
85.932291
 20
214.153042
 30
0.0
 10
86.336311
 20
214.073052
 30
0.0
  0
SPLINE
  5
213
100
AcDbEntity
  8
Calque_1
 62
7
100
AcDbSpline
 70
8
 71
3
 72
8
 73
4
 74
0
 40
0
 40
0
 40
0
 40
0
 40
1
 40
1
 40
1
 40
1
 10
86.336311
 20
214.073052
 30
0.0
 10
86.740331
 20
213.993052
 30
0.0
 10
87.630211
 20
213.920062
 30
0.0
 10
88.313831
 20
213.910802
 30
0.0
  0
SPLINE
  5
214
100
AcDbEntity
  8
Calque_1
 62
7
100
AcDbSpline
 70
8
 71
3
 72
8
 73
4
 74
0
 40
0
 40
0
 40
0
 40
0
 40
1
 40
1
 40
1
 40
1
 10
88.313831
 20
213.910802
 30
0.0
 10
88.997451
 20
213.901802
 30
0.0
 10
90.058681
 20
214.012302
 30
0.0
 10
90.672131
 20
214.156932
 30
0.0
  0
LWPOLYLINE
  5
215
100
AcDbEntity
  8
Calque_1
 62
7
100
AcDbPolyline
 90
3
 70
0
 10
80.724971
 20
226.239455
 30
0.0
 10
79.968371
 20
222.500525
 30
0.0
 10
80.676051
 20
218.774273
 30
0.0
  0
SPLINE
  5
216
100
AcDbEntity
  8
Calque_1
 62
7
100
AcDbSpline
 70
8
 71
3
 72
8
 73
4
 74
0
 40
0
 40
0
 40
0
 40
0
 40
1
 40
1
 40
1
 40
1
 10
117.003950
 20
237.075482
 30
0.0
 10
117.012950
 20
237.282333
 30
0.0
 10
117.054550
 20
237.324407
 30
0.0
 10
117.111220
 20
237.182760
 30
0.0
  0
SPLINE
  5
217
100
AcDbEntity
  8
Calque_1
 62
7
100
AcDbSpline
 70
8
 71
3
 72
8
 73
4
 74
0
 40
0
 40
0
 40
0
 40
0
 40
1
 40
1
 40
1
 40
1
 10
117.111220
 20
237.182760
 30
0.0
 10
117.162520
 20
237.054581
 30
0.0
 10
117.156220
 20
236.901433
 30
0.0
 10
117.097220
 20
236.842431
 30
0.0
  0
SPLINE
  5
218
100
AcDbEntity
  8
Calque_1
 62
7
100
AcDbSpline
 70
8
 71
3
 72
8
 73
4
 74
0
 40
0
 40
0
 40
0
 40
0
 40
1
 40
1
 40
1
 40
1
 10
117.097220
 20
236.842431
 30
0.0
 10
117.038220
 20
236.783431
 30
0.0
 10
116.996250
 20
236.888301
 30
0.0
 10
117.003920
 20
237.075482
 30
0.0
  0
LWPOLYLINE
  5
219
100
AcDbEntity
  8
Calque_1
 62
7
100
AcDbPolyline
 90
2
 70
0
 10
90.672131
 20
214.156932
 30
0.0
 10
90.671821
 20
214.156932
 30
0.0
  0
LWPOLYLINE
  5
21a
100
AcDbEntity
  8
Calque_1
 62
7
100
AcDbPolyline
 90
1
 70
1
 10
117.003920
 20
237.075482
 30
0.0
  0
ENDSEC
  0
SECTION
  2
OBJECTS
  0
DICTIONARY
  5
C
330
0
100
AcDbDictionary
  3
ACAD_GROUP
350
D
  3
ACAD_MLINESTYLE
350
17
  0
DICTIONARY
  5
D
330
C
100
AcDbDictionary
  0
DICTIONARY
  5
1A
330
C
100
AcDbDictionary
  0
DICTIONARY
  5
17
330
C
100
AcDbDictionary
  3
STANDARD
350
18
  0
DICTIONARY
  5
19
330
C
100
AcDbDictionary
  0
ENDSEC
  0
EOF
