<?xml version="1.0" encoding="UTF-8" standalone="no"?>
<!-- Created with Inkscape (http://www.inkscape.org/) -->

<svg
   width="210mm"
   height="297mm"
   viewBox="0 0 210 297"
   version="1.1"
   id="svg5"
   xml:space="preserve"
   inkscape:version="1.2.2 (732a01da63, 2022-12-09)"
   sodipodi:docname="LogoC.svg"
   xmlns:inkscape="http://www.inkscape.org/namespaces/inkscape"
   xmlns:sodipodi="http://sodipodi.sourceforge.net/DTD/sodipodi-0.dtd"
   xmlns="http://www.w3.org/2000/svg"
   xmlns:svg="http://www.w3.org/2000/svg"><sodipodi:namedview
     id="namedview7"
     pagecolor="#ffffff"
     bordercolor="#000000"
     borderopacity="0.25"
     inkscape:showpageshadow="2"
     inkscape:pageopacity="0.0"
     inkscape:pagecheckerboard="0"
     inkscape:deskcolor="#d1d1d1"
     inkscape:document-units="mm"
     showgrid="false"
     inkscape:zoom="1.4912879"
     inkscape:cx="249.11353"
     inkscape:cy="435.86487"
     inkscape:window-width="1920"
     inkscape:window-height="1017"
     inkscape:window-x="1672"
     inkscape:window-y="-8"
     inkscape:window-maximized="1"
     inkscape:current-layer="layer1" /><defs
     id="defs2"><rect
       x="329.91618"
       y="453.97003"
       width="69.067818"
       height="65.715011"
       id="rect2633" /></defs><g
     inkscape:label="Calque 1"
     inkscape:groupmode="layer"
     id="layer1"><text
       xml:space="preserve"
       transform="matrix(2.0876667,0,0,1.8807495,-595.80208,-738.65204)"
       id="text2631"
       style="white-space:pre;shape-inside:url(#rect2633);display:inline;opacity:1;fill:#000000;fill-opacity:0;stroke:#000000;stroke-width:0.358313;stroke-dasharray:none;stroke-opacity:1"><tspan
         x="329.91602"
         y="464.91867"
         id="tspan7084">C</tspan></text><path
       style="fill:#000000;stroke-width:0.177563"
       d="m 100.14969,153.75075 c -0.781269,-0.0815 -2.059729,-0.27562 -2.840999,-0.43137 -0.78128,-0.15575 -2.24672,-0.55805 -3.25655,-0.894 -1.00982,-0.33596 -2.6323,-1.01984 -3.6055,-1.51974 -0.9732,-0.4999 -2.41625,-1.37125 -3.20677,-1.93634 -0.79053,-0.56508 -2.02098,-1.55604 -2.73434,-2.20213 -0.71337,-0.64609 -1.76881,-1.75216 -2.34543,-2.45792 -0.57662,-0.70576 -1.4091,-1.84253 -1.84995,-2.52614 -0.44086,-0.68362 -1.0915,-1.82057 -1.44587,-2.52655 -0.35438,-0.70598 -0.88059,-1.87839 -1.16937,-2.60535 -0.28878,-0.72696 -0.68224,-1.94717 -0.87434,-2.71156 -0.19211,-0.7644 -0.44592,-2.17652 -0.56403,-3.13805 -0.13466,-1.0962 -0.17784,-2.85116 -0.1158,-4.70542 0.0777,-2.32268 0.19442,-3.33816 0.54389,-4.73281 0.24472,-0.9766 0.65944,-2.3749 0.92161,-3.10735 0.26217,-0.73245 0.87813,-2.11758 1.36881,-3.07807 0.49068,-0.96049 1.33093,-2.35879 1.86723,-3.10735 0.53629,-0.74854 1.45674,-1.90511 2.04543,-2.57015 0.58869,-0.66503 1.66626,-1.70207 2.3946,-2.30453 0.72833,-0.60246 1.84629,-1.45665 2.48435,-1.8982 0.63806,-0.44155 1.23967,-0.92976 1.33692,-1.0849 0.13685,-0.21832 -0.10672,-0.7114 -1.07755,-2.18134 -0.68989,-1.0446 -1.50096,-2.491626 -1.80237,-3.215636 -0.3014,-0.72401 -0.68537,-1.8199 -0.85327,-2.4353 -0.23589,-0.864647 -0.30526,-1.845222 -0.30526,-4.315048 0,-2.483249 0.0688,-3.44868 0.30869,-4.328402 0.16977,-0.622749 0.57919,-1.756509 0.90983,-2.519468 0.33063,-0.762959 1.03863,-2.051262 1.57333,-2.862896 0.5347,-0.811634 1.52172,-2.022169 2.19338,-2.690077 0.67165,-0.667909 1.93292,-1.68572 2.80283,-2.261804 0.8699,-0.576084 2.21168,-1.290398 2.98174,-1.587364 0.77006,-0.296966 2.09586,-0.70599 2.94622,-0.908942 1.321359,-0.315364 1.920369,-0.356019 4.120769,-0.279675 2.0208,0.07011 2.97573,0.193654 4.43907,0.574288 1.72463,0.448597 2.21782,0.493249 6.57793,0.595536 4.06873,0.09545 4.77836,0.153085 5.18747,0.421313 0.26067,0.170904 0.57664,0.490517 0.70215,0.710251 0.16306,0.285479 0.2282,1.328579 0.2282,3.654354 0,3.017 -0.0252,3.273254 -0.34467,3.506868 -0.18957,0.138617 -0.57766,0.252031 -0.86242,0.252031 -0.42175,0 -0.49486,0.05762 -0.3943,0.310735 0.0679,0.170904 0.34634,0.989913 0.61876,1.82002 0.27242,0.830107 0.59897,2.10856 0.72566,2.841007 0.1267,0.732447 0.22654,2.0109 0.22189,2.841007 -0.005,0.830106 -0.10228,2.028656 -0.21696,2.663444 -0.11468,0.634787 -0.41582,1.793382 -0.66922,2.574662 -0.25339,0.78128 -0.76083,2.01978 -1.12765,2.752226 -0.36681,0.73245 -1.07464,1.88933 -1.57294,2.57086 -0.4983,0.68153 -0.90321,1.2808 -0.8998,1.33172 0.003,0.0509 0.67828,0.52306 1.49971,1.0492 0.82142,0.52613 2.19696,1.57142 3.05675,2.32286 0.85979,0.75143 2.05105,1.95898 2.64724,2.68343 0.59619,0.72445 1.46123,1.87649 1.9223,2.56011 0.46107,0.68361 1.22913,2.04197 1.70678,3.01857 0.47766,0.97659 1.1017,2.49476 1.38675,3.37369 0.28506,0.87894 0.66677,2.27725 0.84826,3.10735 0.26178,1.19737 0.32998,2.26156 0.32998,5.14933 0,2.88777 -0.0682,3.95196 -0.32998,5.14932 -0.18149,0.83011 -0.5632,2.22842 -0.84826,3.10735 -0.28505,0.87894 -0.90909,2.3971 -1.38675,3.3737 -0.47765,0.9766 -1.24514,2.33495 -1.70553,3.01857 -0.46039,0.68362 -1.35761,1.86857 -1.99383,2.63322 -0.63622,0.76465 -1.78172,1.93121 -2.54555,2.59235 -0.76383,0.66115 -1.96977,1.59364 -2.67986,2.0722 -0.71009,0.47857 -2.1269,1.29113 -3.14845,1.80569 -1.02156,0.51456 -2.58005,1.16571 -3.46331,1.44699 -0.88327,0.28128 -2.24516,0.63885 -3.02644,0.79459 -0.78128,0.15575 -2.33939,0.36288 -3.46248,0.4603 -1.12308,0.0974 -2.20178,0.16718 -2.3971,0.15502 -0.19532,-0.0121 -0.99435,-0.0888 -1.77563,-0.17028 z m 7.49215,-1.20613 c 0.89791,-0.19726 2.24835,-0.56537 3.00098,-0.81802 0.75263,-0.25265 2.01619,-0.76853 2.80791,-1.1464 0.79172,-0.37788 2.16942,-1.16634 3.06156,-1.75215 0.89213,-0.58581 2.26555,-1.63214 3.05204,-2.32518 0.78649,-0.69305 2.09919,-2.09541 2.91712,-3.11636 0.81792,-1.02096 1.9046,-2.60986 2.41484,-3.53091 0.51025,-0.92105 1.16987,-2.30241 1.46584,-3.0697 0.29597,-0.76728 0.7867,-2.31395 1.09051,-3.43703 0.53542,-1.9793 0.55268,-2.15916 0.5624,-5.85958 0.007,-2.58369 -0.0671,-4.16195 -0.2286,-4.88298 -0.13124,-0.58596 -0.52021,-1.94431 -0.86438,-3.01857 -0.34417,-1.07425 -0.96811,-2.63614 -1.38653,-3.47086 -0.41842,-0.83471 -1.24087,-2.23302 -1.82766,-3.10735 -0.58678,-0.87433 -1.65284,-2.22424 -2.36901,-2.99982 -0.71616,-0.77558 -2.11383,-2.05403 -3.10593,-2.841 -0.99209,-0.78698 -2.24896,-1.69934 -2.79305,-2.02746 -0.98925,-0.5966 -0.98925,-0.5966 -1.83624,0.10266 -0.46584,0.38459 -1.20654,0.94194 -1.64601,1.23857 -0.43947,0.29662 -1.2385,0.76133 -1.77563,1.03269 -0.53713,0.27136 -1.50912,0.67455 -2.15997,0.89596 -0.65086,0.22143 -1.64965,0.50402 -2.21954,0.628 -1.03616,0.22541 -1.03616,0.22541 -0.17002,0.3594 0.47638,0.0737 1.51512,0.34858 2.30832,0.61087 0.7932,0.26228 1.92159,0.71712 2.50755,1.01075 0.58596,0.29363 1.6247,0.8941 2.30832,1.33439 0.68362,0.4403 1.8466,1.40891 2.5844,2.15246 0.73781,0.74356 1.72582,1.93582 2.19559,2.64948 0.46976,0.71366 1.24601,2.20099 1.72498,3.30518 0.67373,1.55317 0.91489,2.36478 1.06533,3.58542 0.10869,0.8818 0.15556,2.83103 0.10627,4.41881 -0.0706,2.27311 -0.16708,3.08795 -0.48282,4.07643 -0.21705,0.67948 -0.69317,1.87803 -1.05805,2.66344 -0.36489,0.78541 -0.96967,1.82754 -1.34398,2.31584 -0.3743,0.4883 -1.08619,1.35321 -1.58197,1.92204 -0.49579,0.56882 -1.45707,1.50801 -2.13618,2.08708 -0.6791,0.57907 -1.92524,1.40949 -2.76919,1.84537 -0.84396,0.43588 -2.24595,1.02935 -3.11555,1.31882 -0.88991,0.29623 -2.39505,0.61958 -3.44303,0.73967 -1.03508,0.11861 -2.53328,0.16405 -3.37369,0.10232 -0.83147,-0.0611 -2.190939,-0.27493 -3.021049,-0.47525 -0.83011,-0.20031 -2.34522,-0.76343 -3.36692,-1.25136 -1.0217,-0.48794 -2.27685,-1.20367 -2.78923,-1.59052 -0.51237,-0.38684 -1.62192,-1.39836 -2.46565,-2.24781 -0.84373,-0.84944 -1.83478,-1.98799 -2.20234,-2.53009 -0.36756,-0.54211 -0.88098,-1.40617 -1.14093,-1.92015 -0.25995,-0.51397 -0.70639,-1.63262 -0.99208,-2.48588 -0.33098,-0.98849 -0.59127,-2.27092 -0.71741,-3.53449 -0.14336,-1.43609 -0.14523,-2.54988 -0.007,-4.03778 0.11389,-1.22386 0.37824,-2.64771 0.65377,-3.52134 0.25441,-0.80667 0.74362,-2.026 1.08714,-2.70961 0.34352,-0.68362 0.94725,-1.72237 1.34163,-2.30832 0.39438,-0.58596 1.3224,-1.67073 2.06226,-2.4106 0.73987,-0.73987 1.8551,-1.68882 2.47828,-2.10879 0.62318,-0.41997 1.78178,-1.06653 2.57466,-1.43681 0.79288,-0.37028 1.97926,-0.84599 2.63639,-1.05713 0.65713,-0.21114 1.57602,-0.4427 2.04197,-0.51458 0.847189,-0.13069 0.847189,-0.13069 0.0482,-0.27228 -0.43947,-0.0779 -1.43826,-0.34168 -2.21954,-0.58624 -0.78127,-0.24456 -1.89992,-0.6856 -2.48588,-0.98009 -0.58595,-0.29448 -1.42494,-0.77824 -1.86441,-1.07502 -0.43947,-0.29678 -1.16816,-0.8442 -1.61932,-1.2165 -0.82028,-0.6769 -0.82028,-0.6769 -1.94454,0.0497 -0.61835,0.39966 -1.76738,1.21608 -2.55341,1.81428 -0.78604,0.59819 -1.93975,1.60831 -2.56381,2.24469 -0.62406,0.63639 -1.5562,1.7164 -2.07142,2.4 -0.51522,0.68362 -1.30546,1.86858 -1.7561,2.63324 -0.45064,0.76466 -1.16637,2.20292 -1.59052,3.19613 -0.42415,0.99321 -0.93879,2.48502 -1.14364,3.31512 -0.20485,0.83011 -0.45021,2.02866 -0.54524,2.66345 -0.095,0.63478 -0.22461,1.79338 -0.28794,2.57466 -0.0633,0.78128 -0.0255,2.25949 0.0841,3.28491 0.10957,1.02543 0.44436,2.85999 0.74397,4.0768 0.29962,1.21681 0.84754,2.91469 1.21761,3.77306 0.37007,0.85838 1.0071,2.14488 1.41563,2.8589 0.40852,0.71401 1.15016,1.8527 1.64806,2.53042 0.49791,0.67771 1.71495,2.03124 2.70454,3.00783 0.98958,0.9766 2.47793,2.23148 3.30744,2.78863 0.82951,0.55715 2.58328,1.52792 3.89727,2.15727 1.314,0.62934 3.0432,1.31466 3.84267,1.52293 0.79947,0.20827 2.15783,0.49352 3.01857,0.6339 1.07963,0.17607 2.473609,0.23287 4.494769,0.18314 2.05056,-0.0504 3.41972,-0.17972 4.56236,-0.43074 z m -2.69795,-7.83824 c 0.68362,-0.0974 1.88217,-0.38676 2.66345,-0.64307 0.78127,-0.25632 2.01977,-0.76523 2.75222,-1.13091 0.73245,-0.36569 1.82903,-1.03876 2.43684,-1.49572 0.60782,-0.45697 1.71017,-1.48212 2.44966,-2.27811 0.7395,-0.796 1.63514,-1.88508 1.99032,-2.42018 0.35518,-0.53509 0.9878,-1.81628 1.40582,-2.84707 0.44635,-1.10064 0.88115,-2.57039 1.05346,-3.56102 0.21497,-1.23583 0.26717,-2.25656 0.19527,-3.8176 -0.0626,-1.35923 -0.23303,-2.60414 -0.47064,-3.43809 -0.20486,-0.71902 -0.57828,-1.79772 -0.82983,-2.3971 -0.25154,-0.59937 -0.76629,-1.61992 -1.14388,-2.26788 -0.3776,-0.64796 -1.10512,-1.67905 -1.61672,-2.29132 -0.5116,-0.61227 -1.53222,-1.62789 -2.26804,-2.25693 -0.85885,-0.73423 -1.97359,-1.45261 -3.11348,-2.00644 -0.97659,-0.47449 -2.41485,-1.07944 -3.19613,-1.34433 -1.24149,-0.42093 -1.76734,-0.4911 -4.17273,-0.55678 -2.04165,-0.0557 -3.084959,-0.005 -4.040969,0.19789 -0.70882,0.15016 -2.12279,0.62652 -3.14217,1.05857 -1.01938,0.43204 -2.52376,1.23157 -3.34307,1.77672 -0.81932,0.54516 -2.01518,1.54826 -2.65747,2.22913 -0.6423,0.68087 -1.48349,1.7033 -1.86932,2.27208 -0.38582,0.56878 -0.9544,1.53574 -1.26351,2.14879 -0.3091,0.61306 -0.81675,1.85156 -1.12811,2.75223 -0.55689,1.61094 -0.56611,1.691 -0.56667,4.92249 -5.7e-4,3.28491 -5.7e-4,3.28491 0.66331,5.21862 0.36513,1.06354 0.94456,2.46784 1.28761,3.12066 0.34305,0.65283 1.26294,1.92029 2.04421,2.81658 0.78127,0.8963 1.99725,2.10564 2.70217,2.68742 0.70493,0.58179 1.92091,1.37452 2.70219,1.76163 0.78128,0.3871 2.02292,0.90599 2.75921,1.15309 0.73629,0.2471 1.85493,0.52299 2.48588,0.61308 0.630949,0.0901 1.786399,0.1721 2.567679,0.18221 0.78128,0.0101 1.97982,-0.0613 2.66344,-0.15864 z m 1.59807,-36.57167 c 0.78128,-0.20974 2.08718,-0.69332 2.902,-1.07463 0.81483,-0.38131 1.97342,-1.04506 2.57466,-1.475 0.60124,-0.42994 1.23238,-0.93663 1.40253,-1.12597 0.29837,-0.33204 0.28576,-0.35748 -0.35513,-0.71644 -0.36547,-0.2047 -1.62333,-0.70611 -2.79524,-1.11425 -1.17192,-0.40813 -2.61018,-0.8228 -3.19613,-0.92149 -0.58596,-0.0987 -2.45345,-0.21617 -4.14997,-0.2611 -2.37906,-0.063 -3.403629,-0.017 -4.479429,0.20095 -0.76716,0.15545 -2.09581,0.48399 -2.95255,0.7301 -0.85674,0.2461 -2.17696,0.73606 -2.93382,1.08879 -0.75686,0.35273 -1.37611,0.70746 -1.37611,0.78829 0,0.0808 0.45944,0.50798 1.02098,0.94921 0.56155,0.44124 1.55513,1.08325 2.20797,1.42671 0.65284,0.34345 1.71831,0.82444 2.36771,1.06888 0.6494,0.24443 1.79323,0.56065 2.54184,0.70271 0.910389,0.17276 2.096099,0.2345 3.580649,0.18644 1.51451,-0.049 2.67075,-0.19299 3.64004,-0.4532 z m -11.394199,-6.28674 c 0.79787,-0.22968 2.03198,-0.5203 2.74246,-0.64581 1.29179,-0.2282 1.29179,-0.2282 0.40161,-0.715 -0.4896,-0.26774 -1.28749,-0.778446 -1.77309,-1.134906 -0.50827,-0.37311 -1.21235,-1.15245 -1.65929,-1.83668 -0.42701,-0.65371 -0.96604,-1.628036 -1.19784,-2.165164 -0.3704,-0.858323 -0.42238,-1.257772 -0.42916,-3.2983 -0.008,-2.321705 -0.008,-2.321705 0.77413,-3.906385 0.59076,-1.197389 1.06945,-1.866752 1.95865,-2.738839 0.75196,-0.737485 1.62076,-1.371803 2.40651,-1.757018 0.91422,-0.448196 1.59612,-0.639929 2.657979,-0.747355 0.78556,-0.07947 2.07294,-0.07939 2.86085,1.95e-4 0.98192,0.09918 1.73598,0.296699 2.3971,0.627916 0.5305,0.265772 1.38256,0.798132 1.89347,1.18302 0.51091,0.384888 1.24383,1.117815 1.62872,1.628725 0.38489,0.51091 0.91588,1.360243 1.17998,1.887407 0.29935,0.597534 0.5481,1.490549 0.66055,2.371373 0.12243,0.958997 0.12207,1.893678 -0.001,2.909484 -0.12891,1.063035 -0.3488,1.836469 -0.75906,2.669816 -0.36161,0.734545 -1.01695,1.619405 -1.75267,2.366505 -0.6463,0.6563 -1.64822,1.459406 -2.22649,1.784696 -1.05139,0.59143 -1.05139,0.59143 0.85834,0.99171 1.05034,0.22016 2.44236,0.57713 3.09336,0.79326 0.651,0.21614 1.69548,0.62218 2.32105,0.90231 1.13742,0.50933 1.13742,0.50933 1.5729,0.10484 0.23952,-0.22247 0.78808,-0.89642 1.21903,-1.49766 0.43095,-0.60124 1.09585,-1.759836 1.47755,-2.574656 0.38171,-0.81483 0.87766,-2.16069 1.10212,-2.990792 0.33761,-1.248577 0.40811,-1.954023 0.40811,-4.083948 0,-2.125034 -0.0708,-2.836164 -0.40525,-4.07208 -0.22289,-0.82358 -0.67323,-2.077425 -1.00076,-2.786323 -0.59551,-1.288904 -0.59551,-1.288904 0.31011,-1.281889 0.67066,0.0052 0.96587,-0.07538 1.13785,-0.310576 0.16735,-0.228927 0.23219,-1.078926 0.23219,-3.044696 0,-2.082178 -0.0633,-2.849451 -0.26753,-3.244451 -0.18312,-0.3541 -0.47727,-0.573046 -0.93221,-0.693863 -0.36557,-0.09708 -2.82206,-0.207249 -5.45887,-0.244811 -4.29769,-0.06122 -4.93212,-0.108804 -6.12592,-0.459437 -0.75506,-0.221768 -2.10633,-0.436961 -3.12056,-0.496953 -1.06784,-0.06316 -2.38433,-0.01874 -3.26631,0.110227 -0.812619,0.11882 -2.148639,0.444312 -2.968929,0.723315 -0.8203,0.279004 -2.02161,0.798692 -2.66958,1.154863 -0.64798,0.356171 -1.62608,0.992271 -2.17357,1.413555 -0.54749,0.421284 -1.50102,1.306437 -2.11895,1.967007 -0.61793,0.660569 -1.40645,1.643345 -1.75227,2.183946 -0.34582,0.540602 -0.89174,1.552107 -1.21317,2.24779 -0.32142,0.695683 -0.76743,1.938716 -0.99112,2.762296 -0.34375,1.265587 -0.40455,1.909773 -0.39272,4.160862 0.0112,2.132007 0.0893,2.939217 0.39134,4.045555 0.20753,0.760163 0.69147,2.052463 1.07541,2.871783 0.38395,0.81932 0.96307,1.875336 1.28694,2.346706 0.32387,0.47138 0.89258,1.18704 1.2638,1.59036 0.67493,0.73331 0.67493,0.73331 2.28426,0.0395 0.88514,-0.3816 2.26214,-0.88174 3.06001,-1.11142 z m 9.490989,-1.43888 c 0.61344,-0.14463 1.45243,-0.434596 1.86441,-0.644356 0.41198,-0.20977 1.31473,-0.94922 2.00611,-1.64322 0.79708,-0.80009 1.43326,-1.63707 1.73857,-2.28731 0.26483,-0.56402 0.57338,-1.655778 0.68566,-2.426126 0.15217,-1.044088 0.15337,-1.728669 0.005,-2.689263 -0.12256,-0.79178 -0.44345,-1.782306 -0.83228,-2.569037 -0.45055,-0.911641 -0.96117,-1.58757 -1.7729,-2.346906 -0.62705,-0.586573 -1.58748,-1.278148 -2.1343,-1.536833 -0.54681,-0.258685 -1.45236,-0.556185 -2.01232,-0.66111 -0.55997,-0.104926 -1.68707,-0.150161 -2.50467,-0.100522 -1.27759,0.07757 -1.689409,0.190797 -2.929789,0.805541 -0.92001,0.455968 -1.78049,1.054392 -2.37349,1.650647 -0.52415,0.527023 -1.26055,1.559901 -1.68685,2.365971 -0.7566,1.430612 -0.7566,1.430612 -0.7566,3.73893 0,2.308318 0,2.308318 0.70768,3.726252 0.4615,0.924676 1.06195,1.772206 1.72608,2.436336 0.56012,0.56011 1.50917,1.26613 2.109,1.56893 0.59983,0.302786 1.42116,0.615966 1.825179,0.695956 0.40402,0.08 1.2939,0.15299 1.97752,0.16225 0.68362,0.009 1.74485,-0.1015 2.3583,-0.24613 z m 26.33213,-22.918551 c 0.009,-0.206851 0.0506,-0.248925 0.10727,-0.107278 0.0513,0.128179 0.045,0.281327 -0.014,0.340329 -0.059,0.059 -0.10097,-0.04587 -0.0933,-0.233051 z"
       id="path3244" /></g></svg>
