solid CATIA STL
  facet normal  0.000000e+000  0.000000e+000  1.000000e+000
    outer loop
      vertex -8.715574e-001  9.961947e+000  1.100000e+001
      vertex  8.715574e-001  9.961947e+000  1.100000e+001
      vertex  6.123234e-016  1.000000e+001  1.100000e+001
    endloop
  endfacet
  facet normal  -0.000000e+000  0.000000e+000  1.000000e+000
    outer loop
      vertex  8.715574e-001  9.961947e+000  1.100000e+001
      vertex -8.715574e-001  9.961947e+000  1.100000e+001
      vertex  1.736482e+000  9.848078e+000  1.100000e+001
    endloop
  endfacet
  facet normal  0.000000e+000  0.000000e+000  9.999999e-001
    outer loop
      vertex  1.736482e+000  9.848078e+000  1.100000e+001
      vertex -8.715574e-001  9.961947e+000  1.100000e+001
      vertex -1.736482e+000  9.848078e+000  1.100000e+001
    endloop
  endfacet
  facet normal  -0.000000e+000  0.000000e+000  1.000000e+000
    outer loop
      vertex  1.736482e+000  9.848078e+000  1.100000e+001
      vertex -1.736482e+000  9.848078e+000  1.100000e+001
      vertex  2.588191e+000  9.659258e+000  1.100000e+001
    endloop
  endfacet
  facet normal  0.000000e+000  0.000000e+000  1.000000e+000
    outer loop
      vertex  2.588191e+000  9.659258e+000  1.100000e+001
      vertex -1.736482e+000  9.848078e+000  1.100000e+001
      vertex -2.588191e+000  9.659258e+000  1.100000e+001
    endloop
  endfacet
  facet normal  -0.000000e+000  0.000000e+000  1.000000e+000
    outer loop
      vertex  2.588191e+000  9.659258e+000  1.100000e+001
      vertex -2.588191e+000  9.659258e+000  1.100000e+001
      vertex  3.420202e+000  9.396926e+000  1.100000e+001
    endloop
  endfacet
  facet normal  0.000000e+000  0.000000e+000  1.000000e+000
    outer loop
      vertex  3.420202e+000  9.396926e+000  1.100000e+001
      vertex -2.588191e+000  9.659258e+000  1.100000e+001
      vertex -3.420202e+000  9.396926e+000  1.100000e+001
    endloop
  endfacet
  facet normal  -0.000000e+000  0.000000e+000  1.000000e+000
    outer loop
      vertex  3.420202e+000  9.396926e+000  1.100000e+001
      vertex -3.420202e+000  9.396926e+000  1.100000e+001
      vertex  4.226182e+000  9.063078e+000  1.100000e+001
    endloop
  endfacet
  facet normal  0.000000e+000  0.000000e+000  1.000000e+000
    outer loop
      vertex  4.226182e+000  9.063078e+000  1.100000e+001
      vertex -3.420202e+000  9.396926e+000  1.100000e+001
      vertex -4.226182e+000  9.063078e+000  1.100000e+001
    endloop
  endfacet
  facet normal  -0.000000e+000  0.000000e+000  1.000000e+000
    outer loop
      vertex  4.226182e+000  9.063078e+000  1.100000e+001
      vertex -4.226182e+000  9.063078e+000  1.100000e+001
      vertex  5.000000e+000  8.660254e+000  1.100000e+001
    endloop
  endfacet
  facet normal  0.000000e+000  0.000000e+000  1.000000e+000
    outer loop
      vertex  5.000000e+000  8.660254e+000  1.100000e+001
      vertex -4.226182e+000  9.063078e+000  1.100000e+001
      vertex -5.000000e+000  8.660254e+000  1.100000e+001
    endloop
  endfacet
  facet normal  -0.000000e+000  0.000000e+000  1.000000e+000
    outer loop
      vertex  5.000000e+000  8.660254e+000  1.100000e+001
      vertex -5.000000e+000  8.660254e+000  1.100000e+001
      vertex  5.735765e+000  8.191521e+000  1.100000e+001
    endloop
  endfacet
  facet normal  0.000000e+000  0.000000e+000  9.999999e-001
    outer loop
      vertex  5.735765e+000  8.191521e+000  1.100000e+001
      vertex -5.000000e+000  8.660254e+000  1.100000e+001
      vertex -5.735765e+000  8.191521e+000  1.100000e+001
    endloop
  endfacet
  facet normal  -0.000000e+000  0.000000e+000  1.000000e+000
    outer loop
      vertex  5.735765e+000  8.191521e+000  1.100000e+001
      vertex -5.735765e+000  8.191521e+000  1.100000e+001
      vertex  6.427876e+000  7.660444e+000  1.100000e+001
    endloop
  endfacet
  facet normal  0.000000e+000  0.000000e+000  1.000000e+000
    outer loop
      vertex  6.427876e+000  7.660444e+000  1.100000e+001
      vertex -5.735765e+000  8.191521e+000  1.100000e+001
      vertex -6.427876e+000  7.660444e+000  1.100000e+001
    endloop
  endfacet
  facet normal  -0.000000e+000  0.000000e+000  1.000000e+000
    outer loop
      vertex  6.427876e+000  7.660444e+000  1.100000e+001
      vertex -6.427876e+000  7.660444e+000  1.100000e+001
      vertex  7.071068e+000  7.071068e+000  1.100000e+001
    endloop
  endfacet
  facet normal  0.000000e+000  0.000000e+000  1.000000e+000
    outer loop
      vertex  7.071068e+000  7.071068e+000  1.100000e+001
      vertex -6.427876e+000  7.660444e+000  1.100000e+001
      vertex -7.071068e+000  7.071068e+000  1.100000e+001
    endloop
  endfacet
  facet normal  -0.000000e+000  0.000000e+000  1.000000e+000
    outer loop
      vertex  7.071068e+000  7.071068e+000  1.100000e+001
      vertex -7.071068e+000  7.071068e+000  1.100000e+001
      vertex  7.660444e+000  6.427876e+000  1.100000e+001
    endloop
  endfacet
  facet normal  0.000000e+000  0.000000e+000  1.000000e+000
    outer loop
      vertex  7.660444e+000  6.427876e+000  1.100000e+001
      vertex -7.071068e+000  7.071068e+000  1.100000e+001
      vertex -7.660444e+000  6.427876e+000  1.100000e+001
    endloop
  endfacet
  facet normal  -0.000000e+000  0.000000e+000  1.000000e+000
    outer loop
      vertex  7.660444e+000  6.427876e+000  1.100000e+001
      vertex -7.660444e+000  6.427876e+000  1.100000e+001
      vertex  8.191521e+000  5.735765e+000  1.100000e+001
    endloop
  endfacet
  facet normal  0.000000e+000  0.000000e+000  1.000000e+000
    outer loop
      vertex  8.191521e+000  5.735765e+000  1.100000e+001
      vertex -7.660444e+000  6.427876e+000  1.100000e+001
      vertex -8.191521e+000  5.735765e+000  1.100000e+001
    endloop
  endfacet
  facet normal  -0.000000e+000  0.000000e+000  1.000000e+000
    outer loop
      vertex  8.191521e+000  5.735765e+000  1.100000e+001
      vertex -8.191521e+000  5.735765e+000  1.100000e+001
      vertex  8.660254e+000  5.000000e+000  1.100000e+001
    endloop
  endfacet
  facet normal  0.000000e+000  0.000000e+000  9.999999e-001
    outer loop
      vertex  8.660254e+000  5.000000e+000  1.100000e+001
      vertex -8.191521e+000  5.735765e+000  1.100000e+001
      vertex -8.660254e+000  5.000000e+000  1.100000e+001
    endloop
  endfacet
  facet normal  -0.000000e+000  0.000000e+000  1.000000e+000
    outer loop
      vertex  8.660254e+000  5.000000e+000  1.100000e+001
      vertex -8.660254e+000  5.000000e+000  1.100000e+001
      vertex  9.063078e+000  4.226182e+000  1.100000e+001
    endloop
  endfacet
  facet normal  0.000000e+000  0.000000e+000  1.000000e+000
    outer loop
      vertex  9.063078e+000  4.226182e+000  1.100000e+001
      vertex -8.660254e+000  5.000000e+000  1.100000e+001
      vertex -9.063078e+000  4.226182e+000  1.100000e+001
    endloop
  endfacet
  facet normal  -0.000000e+000  0.000000e+000  9.999999e-001
    outer loop
      vertex  9.063078e+000  4.226182e+000  1.100000e+001
      vertex -9.063078e+000  4.226182e+000  1.100000e+001
      vertex  9.396926e+000  3.420202e+000  1.100000e+001
    endloop
  endfacet
  facet normal  0.000000e+000  0.000000e+000  9.999999e-001
    outer loop
      vertex  9.396926e+000  3.420202e+000  1.100000e+001
      vertex -9.063078e+000  4.226182e+000  1.100000e+001
      vertex -9.396926e+000  3.420202e+000  1.100000e+001
    endloop
  endfacet
  facet normal  -0.000000e+000  0.000000e+000  1.000000e+000
    outer loop
      vertex  9.396926e+000  3.420202e+000  1.100000e+001
      vertex -9.396926e+000  3.420202e+000  1.100000e+001
      vertex  9.659258e+000  2.588191e+000  1.100000e+001
    endloop
  endfacet
  facet normal  0.000000e+000  0.000000e+000  1.000000e+000
    outer loop
      vertex  9.659258e+000  2.588191e+000  1.100000e+001
      vertex -9.396926e+000  3.420202e+000  1.100000e+001
      vertex -9.659258e+000  2.588191e+000  1.100000e+001
    endloop
  endfacet
  facet normal  -0.000000e+000  0.000000e+000  1.000000e+000
    outer loop
      vertex  9.659258e+000  2.588191e+000  1.100000e+001
      vertex -9.659258e+000  2.588191e+000  1.100000e+001
      vertex  9.848078e+000  1.736482e+000  1.100000e+001
    endloop
  endfacet
  facet normal  0.000000e+000  0.000000e+000  1.000000e+000
    outer loop
      vertex  9.848078e+000  1.736482e+000  1.100000e+001
      vertex -9.659258e+000  2.588191e+000  1.100000e+001
      vertex -9.848078e+000  1.736482e+000  1.100000e+001
    endloop
  endfacet
  facet normal  -0.000000e+000  0.000000e+000  1.000000e+000
    outer loop
      vertex  9.848078e+000  1.736482e+000  1.100000e+001
      vertex -9.848078e+000  1.736482e+000  1.100000e+001
      vertex  9.961947e+000  8.715574e-001  1.100000e+001
    endloop
  endfacet
  facet normal  0.000000e+000  0.000000e+000  1.000000e+000
    outer loop
      vertex  9.961947e+000  8.715574e-001  1.100000e+001
      vertex -9.848078e+000  1.736482e+000  1.100000e+001
      vertex -9.961947e+000  8.715574e-001  1.100000e+001
    endloop
  endfacet
  facet normal  -0.000000e+000  0.000000e+000  1.000000e+000
    outer loop
      vertex  9.961947e+000  8.715574e-001  1.100000e+001
      vertex -9.961947e+000  8.715574e-001  1.100000e+001
      vertex  1.000000e+001  0.000000e+000  1.100000e+001
    endloop
  endfacet
  facet normal  0.000000e+000  0.000000e+000  1.000000e+000
    outer loop
      vertex  1.000000e+001  0.000000e+000  1.100000e+001
      vertex -9.961947e+000  8.715574e-001  1.100000e+001
      vertex -1.000000e+001  1.224647e-015  1.100000e+001
    endloop
  endfacet
  facet normal  0.000000e+000  0.000000e+000  1.000000e+000
    outer loop
      vertex  1.000000e+001  0.000000e+000  1.100000e+001
      vertex -1.000000e+001  1.224647e-015  1.100000e+001
      vertex  9.961947e+000 -8.715574e-001  1.100000e+001
    endloop
  endfacet
  facet normal  0.000000e+000  0.000000e+000  1.000000e+000
    outer loop
      vertex  9.961947e+000 -8.715574e-001  1.100000e+001
      vertex -1.000000e+001  1.224647e-015  1.100000e+001
      vertex -9.961947e+000 -8.715574e-001  1.100000e+001
    endloop
  endfacet
  facet normal  -0.000000e+000  0.000000e+000  1.000000e+000
    outer loop
      vertex  9.961947e+000 -8.715574e-001  1.100000e+001
      vertex -9.961947e+000 -8.715574e-001  1.100000e+001
      vertex  9.848078e+000 -1.736482e+000  1.100000e+001
    endloop
  endfacet
  facet normal  0.000000e+000  0.000000e+000  1.000000e+000
    outer loop
      vertex  9.848078e+000 -1.736482e+000  1.100000e+001
      vertex -9.961947e+000 -8.715574e-001  1.100000e+001
      vertex -9.848078e+000 -1.736482e+000  1.100000e+001
    endloop
  endfacet
  facet normal  -0.000000e+000  0.000000e+000  1.000000e+000
    outer loop
      vertex  9.848078e+000 -1.736482e+000  1.100000e+001
      vertex -9.848078e+000 -1.736482e+000  1.100000e+001
      vertex  9.659258e+000 -2.588191e+000  1.100000e+001
    endloop
  endfacet
  facet normal  0.000000e+000  0.000000e+000  1.000000e+000
    outer loop
      vertex  9.659258e+000 -2.588191e+000  1.100000e+001
      vertex -9.848078e+000 -1.736482e+000  1.100000e+001
      vertex -9.659258e+000 -2.588191e+000  1.100000e+001
    endloop
  endfacet
  facet normal  -0.000000e+000  0.000000e+000  1.000000e+000
    outer loop
      vertex  9.659258e+000 -2.588191e+000  1.100000e+001
      vertex -9.659258e+000 -2.588191e+000  1.100000e+001
      vertex  9.396926e+000 -3.420202e+000  1.100000e+001
    endloop
  endfacet
  facet normal  0.000000e+000  0.000000e+000  1.000000e+000
    outer loop
      vertex  9.396926e+000 -3.420202e+000  1.100000e+001
      vertex -9.659258e+000 -2.588191e+000  1.100000e+001
      vertex -9.396926e+000 -3.420202e+000  1.100000e+001
    endloop
  endfacet
  facet normal  -0.000000e+000  0.000000e+000  9.999999e-001
    outer loop
      vertex  9.396926e+000 -3.420202e+000  1.100000e+001
      vertex -9.396926e+000 -3.420202e+000  1.100000e+001
      vertex  9.063078e+000 -4.226182e+000  1.100000e+001
    endloop
  endfacet
  facet normal  0.000000e+000  0.000000e+000  9.999999e-001
    outer loop
      vertex  9.063078e+000 -4.226182e+000  1.100000e+001
      vertex -9.396926e+000 -3.420202e+000  1.100000e+001
      vertex -9.063078e+000 -4.226182e+000  1.100000e+001
    endloop
  endfacet
  facet normal  -0.000000e+000  0.000000e+000  1.000000e+000
    outer loop
      vertex  9.063078e+000 -4.226182e+000  1.100000e+001
      vertex -9.063078e+000 -4.226182e+000  1.100000e+001
      vertex  8.660254e+000 -5.000000e+000  1.100000e+001
    endloop
  endfacet
  facet normal  0.000000e+000  0.000000e+000  1.000000e+000
    outer loop
      vertex  8.660254e+000 -5.000000e+000  1.100000e+001
      vertex -9.063078e+000 -4.226182e+000  1.100000e+001
      vertex -8.660254e+000 -5.000000e+000  1.100000e+001
    endloop
  endfacet
  facet normal  -0.000000e+000  0.000000e+000  9.999999e-001
    outer loop
      vertex  8.660254e+000 -5.000000e+000  1.100000e+001
      vertex -8.660254e+000 -5.000000e+000  1.100000e+001
      vertex  8.191521e+000 -5.735765e+000  1.100000e+001
    endloop
  endfacet
  facet normal  0.000000e+000  0.000000e+000  1.000000e+000
    outer loop
      vertex  8.191521e+000 -5.735765e+000  1.100000e+001
      vertex -8.660254e+000 -5.000000e+000  1.100000e+001
      vertex -8.191521e+000 -5.735765e+000  1.100000e+001
    endloop
  endfacet
  facet normal  -0.000000e+000  0.000000e+000  1.000000e+000
    outer loop
      vertex  8.191521e+000 -5.735765e+000  1.100000e+001
      vertex -8.191521e+000 -5.735765e+000  1.100000e+001
      vertex  7.660444e+000 -6.427876e+000  1.100000e+001
    endloop
  endfacet
  facet normal  0.000000e+000  0.000000e+000  1.000000e+000
    outer loop
      vertex  7.660444e+000 -6.427876e+000  1.100000e+001
      vertex -8.191521e+000 -5.735765e+000  1.100000e+001
      vertex -7.660444e+000 -6.427876e+000  1.100000e+001
    endloop
  endfacet
  facet normal  -0.000000e+000  0.000000e+000  1.000000e+000
    outer loop
      vertex  7.660444e+000 -6.427876e+000  1.100000e+001
      vertex -7.660444e+000 -6.427876e+000  1.100000e+001
      vertex  7.071068e+000 -7.071068e+000  1.100000e+001
    endloop
  endfacet
  facet normal  0.000000e+000  0.000000e+000  1.000000e+000
    outer loop
      vertex  7.071068e+000 -7.071068e+000  1.100000e+001
      vertex -7.660444e+000 -6.427876e+000  1.100000e+001
      vertex -7.071068e+000 -7.071068e+000  1.100000e+001
    endloop
  endfacet
  facet normal  -0.000000e+000  0.000000e+000  1.000000e+000
    outer loop
      vertex  7.071068e+000 -7.071068e+000  1.100000e+001
      vertex -7.071068e+000 -7.071068e+000  1.100000e+001
      vertex  6.427876e+000 -7.660444e+000  1.100000e+001
    endloop
  endfacet
  facet normal  0.000000e+000  0.000000e+000  1.000000e+000
    outer loop
      vertex  6.427876e+000 -7.660444e+000  1.100000e+001
      vertex -7.071068e+000 -7.071068e+000  1.100000e+001
      vertex -6.427876e+000 -7.660444e+000  1.100000e+001
    endloop
  endfacet
  facet normal  -0.000000e+000  0.000000e+000  1.000000e+000
    outer loop
      vertex  6.427876e+000 -7.660444e+000  1.100000e+001
      vertex -6.427876e+000 -7.660444e+000  1.100000e+001
      vertex  5.735765e+000 -8.191521e+000  1.100000e+001
    endloop
  endfacet
  facet normal  0.000000e+000  0.000000e+000  1.000000e+000
    outer loop
      vertex  5.735765e+000 -8.191521e+000  1.100000e+001
      vertex -6.427876e+000 -7.660444e+000  1.100000e+001
      vertex -5.735765e+000 -8.191521e+000  1.100000e+001
    endloop
  endfacet
  facet normal  -0.000000e+000  0.000000e+000  9.999999e-001
    outer loop
      vertex  5.735765e+000 -8.191521e+000  1.100000e+001
      vertex -5.735765e+000 -8.191521e+000  1.100000e+001
      vertex  5.000000e+000 -8.660254e+000  1.100000e+001
    endloop
  endfacet
  facet normal  0.000000e+000  0.000000e+000  1.000000e+000
    outer loop
      vertex  5.000000e+000 -8.660254e+000  1.100000e+001
      vertex -5.735765e+000 -8.191521e+000  1.100000e+001
      vertex -5.000000e+000 -8.660254e+000  1.100000e+001
    endloop
  endfacet
  facet normal  -0.000000e+000  0.000000e+000  1.000000e+000
    outer loop
      vertex  5.000000e+000 -8.660254e+000  1.100000e+001
      vertex -5.000000e+000 -8.660254e+000  1.100000e+001
      vertex  4.226182e+000 -9.063078e+000  1.100000e+001
    endloop
  endfacet
  facet normal  0.000000e+000  0.000000e+000  1.000000e+000
    outer loop
      vertex  4.226182e+000 -9.063078e+000  1.100000e+001
      vertex -5.000000e+000 -8.660254e+000  1.100000e+001
      vertex -4.226182e+000 -9.063078e+000  1.100000e+001
    endloop
  endfacet
  facet normal  -0.000000e+000  0.000000e+000  1.000000e+000
    outer loop
      vertex  4.226182e+000 -9.063078e+000  1.100000e+001
      vertex -4.226182e+000 -9.063078e+000  1.100000e+001
      vertex  3.420202e+000 -9.396926e+000  1.100000e+001
    endloop
  endfacet
  facet normal  0.000000e+000  0.000000e+000  1.000000e+000
    outer loop
      vertex  3.420202e+000 -9.396926e+000  1.100000e+001
      vertex -4.226182e+000 -9.063078e+000  1.100000e+001
      vertex -3.420202e+000 -9.396926e+000  1.100000e+001
    endloop
  endfacet
  facet normal  -0.000000e+000  0.000000e+000  1.000000e+000
    outer loop
      vertex  3.420202e+000 -9.396926e+000  1.100000e+001
      vertex -3.420202e+000 -9.396926e+000  1.100000e+001
      vertex  2.588191e+000 -9.659258e+000  1.100000e+001
    endloop
  endfacet
  facet normal  0.000000e+000  0.000000e+000  1.000000e+000
    outer loop
      vertex  2.588191e+000 -9.659258e+000  1.100000e+001
      vertex -3.420202e+000 -9.396926e+000  1.100000e+001
      vertex -2.588191e+000 -9.659258e+000  1.100000e+001
    endloop
  endfacet
  facet normal  -0.000000e+000  0.000000e+000  1.000000e+000
    outer loop
      vertex  2.588191e+000 -9.659258e+000  1.100000e+001
      vertex -2.588191e+000 -9.659258e+000  1.100000e+001
      vertex  1.736482e+000 -9.848078e+000  1.100000e+001
    endloop
  endfacet
  facet normal  0.000000e+000  0.000000e+000  1.000000e+000
    outer loop
      vertex  1.736482e+000 -9.848078e+000  1.100000e+001
      vertex -2.588191e+000 -9.659258e+000  1.100000e+001
      vertex -1.736482e+000 -9.848078e+000  1.100000e+001
    endloop
  endfacet
  facet normal  -0.000000e+000  0.000000e+000  9.999999e-001
    outer loop
      vertex  1.736482e+000 -9.848078e+000  1.100000e+001
      vertex -1.736482e+000 -9.848078e+000  1.100000e+001
      vertex  8.715574e-001 -9.961947e+000  1.100000e+001
    endloop
  endfacet
  facet normal  0.000000e+000  0.000000e+000  1.000000e+000
    outer loop
      vertex  8.715574e-001 -9.961947e+000  1.100000e+001
      vertex -1.736482e+000 -9.848078e+000  1.100000e+001
      vertex -8.715574e-001 -9.961947e+000  1.100000e+001
    endloop
  endfacet
  facet normal  -0.000000e+000  0.000000e+000  1.000000e+000
    outer loop
      vertex  8.715574e-001 -9.961947e+000  1.100000e+001
      vertex -8.715574e-001 -9.961947e+000  1.100000e+001
      vertex -1.836970e-015 -1.000000e+001  1.100000e+001
    endloop
  endfacet
  facet normal  0.000000e+000  0.000000e+000 -1.000000e+000
    outer loop
      vertex  6.123234e-016  1.000000e+001  0.000000e+000
      vertex  8.715574e-001  9.961947e+000  0.000000e+000
      vertex -8.715574e-001  9.961947e+000  0.000000e+000
    endloop
  endfacet
  facet normal  0.000000e+000  0.000000e+000 -1.000000e+000
    outer loop
      vertex -1.836970e-015 -1.000000e+001  0.000000e+000
      vertex -8.715574e-001 -9.961947e+000  0.000000e+000
      vertex  8.715574e-001 -9.961947e+000  0.000000e+000
    endloop
  endfacet
  facet normal  0.000000e+000  0.000000e+000 -1.000000e+000
    outer loop
      vertex  8.715574e-001 -9.961947e+000  0.000000e+000
      vertex -8.715574e-001 -9.961947e+000  0.000000e+000
      vertex -1.736482e+000 -9.848078e+000  0.000000e+000
    endloop
  endfacet
  facet normal  0.000000e+000  0.000000e+000 -9.999999e-001
    outer loop
      vertex  8.715574e-001 -9.961947e+000  0.000000e+000
      vertex -1.736482e+000 -9.848078e+000  0.000000e+000
      vertex  1.736482e+000 -9.848078e+000  0.000000e+000
    endloop
  endfacet
  facet normal  0.000000e+000  0.000000e+000 -1.000000e+000
    outer loop
      vertex  1.736482e+000 -9.848078e+000  0.000000e+000
      vertex -1.736482e+000 -9.848078e+000  0.000000e+000
      vertex -2.588191e+000 -9.659258e+000  0.000000e+000
    endloop
  endfacet
  facet normal  0.000000e+000  0.000000e+000 -1.000000e+000
    outer loop
      vertex  1.736482e+000 -9.848078e+000  0.000000e+000
      vertex -2.588191e+000 -9.659258e+000  0.000000e+000
      vertex  2.588191e+000 -9.659258e+000  0.000000e+000
    endloop
  endfacet
  facet normal  0.000000e+000  0.000000e+000 -1.000000e+000
    outer loop
      vertex  2.588191e+000 -9.659258e+000  0.000000e+000
      vertex -2.588191e+000 -9.659258e+000  0.000000e+000
      vertex -3.420202e+000 -9.396926e+000  0.000000e+000
    endloop
  endfacet
  facet normal  0.000000e+000  0.000000e+000 -1.000000e+000
    outer loop
      vertex  2.588191e+000 -9.659258e+000  0.000000e+000
      vertex -3.420202e+000 -9.396926e+000  0.000000e+000
      vertex  3.420202e+000 -9.396926e+000  0.000000e+000
    endloop
  endfacet
  facet normal  0.000000e+000  0.000000e+000 -1.000000e+000
    outer loop
      vertex  3.420202e+000 -9.396926e+000  0.000000e+000
      vertex -3.420202e+000 -9.396926e+000  0.000000e+000
      vertex -4.226182e+000 -9.063078e+000  0.000000e+000
    endloop
  endfacet
  facet normal  0.000000e+000  0.000000e+000 -1.000000e+000
    outer loop
      vertex  3.420202e+000 -9.396926e+000  0.000000e+000
      vertex -4.226182e+000 -9.063078e+000  0.000000e+000
      vertex  4.226182e+000 -9.063078e+000  0.000000e+000
    endloop
  endfacet
  facet normal  0.000000e+000  0.000000e+000 -1.000000e+000
    outer loop
      vertex  4.226182e+000 -9.063078e+000  0.000000e+000
      vertex -4.226182e+000 -9.063078e+000  0.000000e+000
      vertex -5.000000e+000 -8.660254e+000  0.000000e+000
    endloop
  endfacet
  facet normal  0.000000e+000  0.000000e+000 -1.000000e+000
    outer loop
      vertex  4.226182e+000 -9.063078e+000  0.000000e+000
      vertex -5.000000e+000 -8.660254e+000  0.000000e+000
      vertex  5.000000e+000 -8.660254e+000  0.000000e+000
    endloop
  endfacet
  facet normal  0.000000e+000  0.000000e+000 -1.000000e+000
    outer loop
      vertex  5.000000e+000 -8.660254e+000  0.000000e+000
      vertex -5.000000e+000 -8.660254e+000  0.000000e+000
      vertex -5.735765e+000 -8.191521e+000  0.000000e+000
    endloop
  endfacet
  facet normal  0.000000e+000  0.000000e+000 -9.999999e-001
    outer loop
      vertex  5.000000e+000 -8.660254e+000  0.000000e+000
      vertex -5.735765e+000 -8.191521e+000  0.000000e+000
      vertex  5.735765e+000 -8.191521e+000  0.000000e+000
    endloop
  endfacet
  facet normal  0.000000e+000  0.000000e+000 -1.000000e+000
    outer loop
      vertex  5.735765e+000 -8.191521e+000  0.000000e+000
      vertex -5.735765e+000 -8.191521e+000  0.000000e+000
      vertex -6.427876e+000 -7.660444e+000  0.000000e+000
    endloop
  endfacet
  facet normal  0.000000e+000  0.000000e+000 -1.000000e+000
    outer loop
      vertex  5.735765e+000 -8.191521e+000  0.000000e+000
      vertex -6.427876e+000 -7.660444e+000  0.000000e+000
      vertex  6.427876e+000 -7.660444e+000  0.000000e+000
    endloop
  endfacet
  facet normal  0.000000e+000  0.000000e+000 -1.000000e+000
    outer loop
      vertex  6.427876e+000 -7.660444e+000  0.000000e+000
      vertex -6.427876e+000 -7.660444e+000  0.000000e+000
      vertex -7.071068e+000 -7.071068e+000  0.000000e+000
    endloop
  endfacet
  facet normal  0.000000e+000  0.000000e+000 -1.000000e+000
    outer loop
      vertex  6.427876e+000 -7.660444e+000  0.000000e+000
      vertex -7.071068e+000 -7.071068e+000  0.000000e+000
      vertex  7.071068e+000 -7.071068e+000  0.000000e+000
    endloop
  endfacet
  facet normal  0.000000e+000  0.000000e+000 -1.000000e+000
    outer loop
      vertex  7.071068e+000 -7.071068e+000  0.000000e+000
      vertex -7.071068e+000 -7.071068e+000  0.000000e+000
      vertex -7.660444e+000 -6.427876e+000  0.000000e+000
    endloop
  endfacet
  facet normal  0.000000e+000  0.000000e+000 -1.000000e+000
    outer loop
      vertex  7.071068e+000 -7.071068e+000  0.000000e+000
      vertex -7.660444e+000 -6.427876e+000  0.000000e+000
      vertex  7.660444e+000 -6.427876e+000  0.000000e+000
    endloop
  endfacet
  facet normal  0.000000e+000  0.000000e+000 -1.000000e+000
    outer loop
      vertex  7.660444e+000 -6.427876e+000  0.000000e+000
      vertex -7.660444e+000 -6.427876e+000  0.000000e+000
      vertex -8.191521e+000 -5.735765e+000  0.000000e+000
    endloop
  endfacet
  facet normal  0.000000e+000  0.000000e+000 -1.000000e+000
    outer loop
      vertex  7.660444e+000 -6.427876e+000  0.000000e+000
      vertex -8.191521e+000 -5.735765e+000  0.000000e+000
      vertex  8.191521e+000 -5.735765e+000  0.000000e+000
    endloop
  endfacet
  facet normal  0.000000e+000  0.000000e+000 -1.000000e+000
    outer loop
      vertex  8.191521e+000 -5.735765e+000  0.000000e+000
      vertex -8.191521e+000 -5.735765e+000  0.000000e+000
      vertex -8.660254e+000 -5.000000e+000  0.000000e+000
    endloop
  endfacet
  facet normal  0.000000e+000  0.000000e+000 -9.999999e-001
    outer loop
      vertex  8.191521e+000 -5.735765e+000  0.000000e+000
      vertex -8.660254e+000 -5.000000e+000  0.000000e+000
      vertex  8.660254e+000 -5.000000e+000  0.000000e+000
    endloop
  endfacet
  facet normal  0.000000e+000  0.000000e+000 -1.000000e+000
    outer loop
      vertex  8.660254e+000 -5.000000e+000  0.000000e+000
      vertex -8.660254e+000 -5.000000e+000  0.000000e+000
      vertex -9.063078e+000 -4.226182e+000  0.000000e+000
    endloop
  endfacet
  facet normal  0.000000e+000  0.000000e+000 -1.000000e+000
    outer loop
      vertex  8.660254e+000 -5.000000e+000  0.000000e+000
      vertex -9.063078e+000 -4.226182e+000  0.000000e+000
      vertex  9.063078e+000 -4.226182e+000  0.000000e+000
    endloop
  endfacet
  facet normal  0.000000e+000  0.000000e+000 -9.999999e-001
    outer loop
      vertex  9.063078e+000 -4.226182e+000  0.000000e+000
      vertex -9.063078e+000 -4.226182e+000  0.000000e+000
      vertex -9.396926e+000 -3.420202e+000  0.000000e+000
    endloop
  endfacet
  facet normal  0.000000e+000  0.000000e+000 -9.999999e-001
    outer loop
      vertex  9.063078e+000 -4.226182e+000  0.000000e+000
      vertex -9.396926e+000 -3.420202e+000  0.000000e+000
      vertex  9.396926e+000 -3.420202e+000  0.000000e+000
    endloop
  endfacet
  facet normal  0.000000e+000  0.000000e+000 -1.000000e+000
    outer loop
      vertex  9.396926e+000 -3.420202e+000  0.000000e+000
      vertex -9.396926e+000 -3.420202e+000  0.000000e+000
      vertex -9.659258e+000 -2.588191e+000  0.000000e+000
    endloop
  endfacet
  facet normal  0.000000e+000  0.000000e+000 -1.000000e+000
    outer loop
      vertex  9.396926e+000 -3.420202e+000  0.000000e+000
      vertex -9.659258e+000 -2.588191e+000  0.000000e+000
      vertex  9.659258e+000 -2.588191e+000  0.000000e+000
    endloop
  endfacet
  facet normal  0.000000e+000  0.000000e+000 -1.000000e+000
    outer loop
      vertex  9.659258e+000 -2.588191e+000  0.000000e+000
      vertex -9.659258e+000 -2.588191e+000  0.000000e+000
      vertex -9.848078e+000 -1.736482e+000  0.000000e+000
    endloop
  endfacet
  facet normal  0.000000e+000  0.000000e+000 -1.000000e+000
    outer loop
      vertex  9.659258e+000 -2.588191e+000  0.000000e+000
      vertex -9.848078e+000 -1.736482e+000  0.000000e+000
      vertex  9.848078e+000 -1.736482e+000  0.000000e+000
    endloop
  endfacet
  facet normal  0.000000e+000  0.000000e+000 -1.000000e+000
    outer loop
      vertex  9.848078e+000 -1.736482e+000  0.000000e+000
      vertex -9.848078e+000 -1.736482e+000  0.000000e+000
      vertex -9.961947e+000 -8.715574e-001  0.000000e+000
    endloop
  endfacet
  facet normal  0.000000e+000  0.000000e+000 -1.000000e+000
    outer loop
      vertex  9.848078e+000 -1.736482e+000  0.000000e+000
      vertex -9.961947e+000 -8.715574e-001  0.000000e+000
      vertex  9.961947e+000 -8.715574e-001  0.000000e+000
    endloop
  endfacet
  facet normal  0.000000e+000  0.000000e+000 -1.000000e+000
    outer loop
      vertex  9.961947e+000 -8.715574e-001  0.000000e+000
      vertex -9.961947e+000 -8.715574e-001  0.000000e+000
      vertex -1.000000e+001  1.224647e-015  0.000000e+000
    endloop
  endfacet
  facet normal  0.000000e+000  0.000000e+000 -1.000000e+000
    outer loop
      vertex  9.961947e+000 -8.715574e-001  0.000000e+000
      vertex -1.000000e+001  1.224647e-015  0.000000e+000
      vertex  1.000000e+001  0.000000e+000  0.000000e+000
    endloop
  endfacet
  facet normal  0.000000e+000  0.000000e+000 -1.000000e+000
    outer loop
      vertex  1.000000e+001  0.000000e+000  0.000000e+000
      vertex -1.000000e+001  1.224647e-015  0.000000e+000
      vertex -9.961947e+000  8.715574e-001  0.000000e+000
    endloop
  endfacet
  facet normal  0.000000e+000  0.000000e+000 -1.000000e+000
    outer loop
      vertex  1.000000e+001  0.000000e+000  0.000000e+000
      vertex -9.961947e+000  8.715574e-001  0.000000e+000
      vertex  9.961947e+000  8.715574e-001  0.000000e+000
    endloop
  endfacet
  facet normal  0.000000e+000  0.000000e+000 -1.000000e+000
    outer loop
      vertex  9.961947e+000  8.715574e-001  0.000000e+000
      vertex -9.961947e+000  8.715574e-001  0.000000e+000
      vertex -9.848078e+000  1.736482e+000  0.000000e+000
    endloop
  endfacet
  facet normal  0.000000e+000  0.000000e+000 -1.000000e+000
    outer loop
      vertex  9.961947e+000  8.715574e-001  0.000000e+000
      vertex -9.848078e+000  1.736482e+000  0.000000e+000
      vertex  9.848078e+000  1.736482e+000  0.000000e+000
    endloop
  endfacet
  facet normal  0.000000e+000  0.000000e+000 -1.000000e+000
    outer loop
      vertex  9.848078e+000  1.736482e+000  0.000000e+000
      vertex -9.848078e+000  1.736482e+000  0.000000e+000
      vertex -9.659258e+000  2.588191e+000  0.000000e+000
    endloop
  endfacet
  facet normal  0.000000e+000  0.000000e+000 -1.000000e+000
    outer loop
      vertex  9.848078e+000  1.736482e+000  0.000000e+000
      vertex -9.659258e+000  2.588191e+000  0.000000e+000
      vertex  9.659258e+000  2.588191e+000  0.000000e+000
    endloop
  endfacet
  facet normal  0.000000e+000  0.000000e+000 -1.000000e+000
    outer loop
      vertex  9.659258e+000  2.588191e+000  0.000000e+000
      vertex -9.659258e+000  2.588191e+000  0.000000e+000
      vertex -9.396926e+000  3.420202e+000  0.000000e+000
    endloop
  endfacet
  facet normal  0.000000e+000  0.000000e+000 -1.000000e+000
    outer loop
      vertex  9.659258e+000  2.588191e+000  0.000000e+000
      vertex -9.396926e+000  3.420202e+000  0.000000e+000
      vertex  9.396926e+000  3.420202e+000  0.000000e+000
    endloop
  endfacet
  facet normal  0.000000e+000  0.000000e+000 -9.999999e-001
    outer loop
      vertex  9.396926e+000  3.420202e+000  0.000000e+000
      vertex -9.396926e+000  3.420202e+000  0.000000e+000
      vertex -9.063078e+000  4.226182e+000  0.000000e+000
    endloop
  endfacet
  facet normal  0.000000e+000  0.000000e+000 -9.999999e-001
    outer loop
      vertex  9.396926e+000  3.420202e+000  0.000000e+000
      vertex -9.063078e+000  4.226182e+000  0.000000e+000
      vertex  9.063078e+000  4.226182e+000  0.000000e+000
    endloop
  endfacet
  facet normal  0.000000e+000  0.000000e+000 -1.000000e+000
    outer loop
      vertex  9.063078e+000  4.226182e+000  0.000000e+000
      vertex -9.063078e+000  4.226182e+000  0.000000e+000
      vertex -8.660254e+000  5.000000e+000  0.000000e+000
    endloop
  endfacet
  facet normal  0.000000e+000  0.000000e+000 -1.000000e+000
    outer loop
      vertex  9.063078e+000  4.226182e+000  0.000000e+000
      vertex -8.660254e+000  5.000000e+000  0.000000e+000
      vertex  8.660254e+000  5.000000e+000  0.000000e+000
    endloop
  endfacet
  facet normal  0.000000e+000  0.000000e+000 -9.999999e-001
    outer loop
      vertex  8.660254e+000  5.000000e+000  0.000000e+000
      vertex -8.660254e+000  5.000000e+000  0.000000e+000
      vertex -8.191521e+000  5.735765e+000  0.000000e+000
    endloop
  endfacet
  facet normal  0.000000e+000  0.000000e+000 -1.000000e+000
    outer loop
      vertex  8.660254e+000  5.000000e+000  0.000000e+000
      vertex -8.191521e+000  5.735765e+000  0.000000e+000
      vertex  8.191521e+000  5.735765e+000  0.000000e+000
    endloop
  endfacet
  facet normal  0.000000e+000  0.000000e+000 -1.000000e+000
    outer loop
      vertex  8.191521e+000  5.735765e+000  0.000000e+000
      vertex -8.191521e+000  5.735765e+000  0.000000e+000
      vertex -7.660444e+000  6.427876e+000  0.000000e+000
    endloop
  endfacet
  facet normal  0.000000e+000  0.000000e+000 -1.000000e+000
    outer loop
      vertex  8.191521e+000  5.735765e+000  0.000000e+000
      vertex -7.660444e+000  6.427876e+000  0.000000e+000
      vertex  7.660444e+000  6.427876e+000  0.000000e+000
    endloop
  endfacet
  facet normal  0.000000e+000  0.000000e+000 -1.000000e+000
    outer loop
      vertex  7.660444e+000  6.427876e+000  0.000000e+000
      vertex -7.660444e+000  6.427876e+000  0.000000e+000
      vertex -7.071068e+000  7.071068e+000  0.000000e+000
    endloop
  endfacet
  facet normal  0.000000e+000  0.000000e+000 -1.000000e+000
    outer loop
      vertex  7.660444e+000  6.427876e+000  0.000000e+000
      vertex -7.071068e+000  7.071068e+000  0.000000e+000
      vertex  7.071068e+000  7.071068e+000  0.000000e+000
    endloop
  endfacet
  facet normal  0.000000e+000  0.000000e+000 -1.000000e+000
    outer loop
      vertex  7.071068e+000  7.071068e+000  0.000000e+000
      vertex -7.071068e+000  7.071068e+000  0.000000e+000
      vertex -6.427876e+000  7.660444e+000  0.000000e+000
    endloop
  endfacet
  facet normal  0.000000e+000  0.000000e+000 -1.000000e+000
    outer loop
      vertex  7.071068e+000  7.071068e+000  0.000000e+000
      vertex -6.427876e+000  7.660444e+000  0.000000e+000
      vertex  6.427876e+000  7.660444e+000  0.000000e+000
    endloop
  endfacet
  facet normal  0.000000e+000  0.000000e+000 -1.000000e+000
    outer loop
      vertex  6.427876e+000  7.660444e+000  0.000000e+000
      vertex -6.427876e+000  7.660444e+000  0.000000e+000
      vertex -5.735765e+000  8.191521e+000  0.000000e+000
    endloop
  endfacet
  facet normal  0.000000e+000  0.000000e+000 -1.000000e+000
    outer loop
      vertex  6.427876e+000  7.660444e+000  0.000000e+000
      vertex -5.735765e+000  8.191521e+000  0.000000e+000
      vertex  5.735765e+000  8.191521e+000  0.000000e+000
    endloop
  endfacet
  facet normal  0.000000e+000  0.000000e+000 -9.999999e-001
    outer loop
      vertex  5.735765e+000  8.191521e+000  0.000000e+000
      vertex -5.735765e+000  8.191521e+000  0.000000e+000
      vertex -5.000000e+000  8.660254e+000  0.000000e+000
    endloop
  endfacet
  facet normal  0.000000e+000  0.000000e+000 -1.000000e+000
    outer loop
      vertex  5.735765e+000  8.191521e+000  0.000000e+000
      vertex -5.000000e+000  8.660254e+000  0.000000e+000
      vertex  5.000000e+000  8.660254e+000  0.000000e+000
    endloop
  endfacet
  facet normal  0.000000e+000  0.000000e+000 -1.000000e+000
    outer loop
      vertex  5.000000e+000  8.660254e+000  0.000000e+000
      vertex -5.000000e+000  8.660254e+000  0.000000e+000
      vertex -4.226182e+000  9.063078e+000  0.000000e+000
    endloop
  endfacet
  facet normal  0.000000e+000  0.000000e+000 -1.000000e+000
    outer loop
      vertex  5.000000e+000  8.660254e+000  0.000000e+000
      vertex -4.226182e+000  9.063078e+000  0.000000e+000
      vertex  4.226182e+000  9.063078e+000  0.000000e+000
    endloop
  endfacet
  facet normal  0.000000e+000  0.000000e+000 -1.000000e+000
    outer loop
      vertex  4.226182e+000  9.063078e+000  0.000000e+000
      vertex -4.226182e+000  9.063078e+000  0.000000e+000
      vertex -3.420202e+000  9.396926e+000  0.000000e+000
    endloop
  endfacet
  facet normal  0.000000e+000  0.000000e+000 -1.000000e+000
    outer loop
      vertex  4.226182e+000  9.063078e+000  0.000000e+000
      vertex -3.420202e+000  9.396926e+000  0.000000e+000
      vertex  3.420202e+000  9.396926e+000  0.000000e+000
    endloop
  endfacet
  facet normal  0.000000e+000  0.000000e+000 -1.000000e+000
    outer loop
      vertex  3.420202e+000  9.396926e+000  0.000000e+000
      vertex -3.420202e+000  9.396926e+000  0.000000e+000
      vertex -2.588191e+000  9.659258e+000  0.000000e+000
    endloop
  endfacet
  facet normal  0.000000e+000  0.000000e+000 -1.000000e+000
    outer loop
      vertex  3.420202e+000  9.396926e+000  0.000000e+000
      vertex -2.588191e+000  9.659258e+000  0.000000e+000
      vertex  2.588191e+000  9.659258e+000  0.000000e+000
    endloop
  endfacet
  facet normal  0.000000e+000  0.000000e+000 -1.000000e+000
    outer loop
      vertex  2.588191e+000  9.659258e+000  0.000000e+000
      vertex -2.588191e+000  9.659258e+000  0.000000e+000
      vertex -1.736482e+000  9.848078e+000  0.000000e+000
    endloop
  endfacet
  facet normal  0.000000e+000  0.000000e+000 -1.000000e+000
    outer loop
      vertex  2.588191e+000  9.659258e+000  0.000000e+000
      vertex -1.736482e+000  9.848078e+000  0.000000e+000
      vertex  1.736482e+000  9.848078e+000  0.000000e+000
    endloop
  endfacet
  facet normal  0.000000e+000  0.000000e+000 -9.999999e-001
    outer loop
      vertex  1.736482e+000  9.848078e+000  0.000000e+000
      vertex -1.736482e+000  9.848078e+000  0.000000e+000
      vertex -8.715574e-001  9.961947e+000  0.000000e+000
    endloop
  endfacet
  facet normal  0.000000e+000  0.000000e+000 -1.000000e+000
    outer loop
      vertex  1.736482e+000  9.848078e+000  0.000000e+000
      vertex -8.715574e-001  9.961947e+000  0.000000e+000
      vertex  8.715574e-001  9.961947e+000  0.000000e+000
    endloop
  endfacet
  facet normal  9.990482e-001 -4.361886e-002  0.000000e+000
    outer loop
      vertex  1.000000e+001  0.000000e+000  0.000000e+000
      vertex  1.000000e+001  0.000000e+000  1.100000e+001
      vertex  9.961947e+000 -8.715574e-001  0.000000e+000
    endloop
  endfacet
  facet normal  9.990482e-001 -4.361886e-002  0.000000e+000
    outer loop
      vertex  9.961947e+000 -8.715574e-001  0.000000e+000
      vertex  1.000000e+001  0.000000e+000  1.100000e+001
      vertex  9.961947e+000 -8.715574e-001  1.100000e+001
    endloop
  endfacet
  facet normal  9.914448e-001 -1.305264e-001  0.000000e+000
    outer loop
      vertex  9.961947e+000 -8.715574e-001  0.000000e+000
      vertex  9.961947e+000 -8.715574e-001  1.100000e+001
      vertex  9.848078e+000 -1.736482e+000  0.000000e+000
    endloop
  endfacet
  facet normal  9.914448e-001 -1.305264e-001  0.000000e+000
    outer loop
      vertex  9.848078e+000 -1.736482e+000  0.000000e+000
      vertex  9.961947e+000 -8.715574e-001  1.100000e+001
      vertex  9.848078e+000 -1.736482e+000  1.100000e+001
    endloop
  endfacet
  facet normal  9.762958e-001 -2.164403e-001  0.000000e+000
    outer loop
      vertex  9.848078e+000 -1.736482e+000  0.000000e+000
      vertex  9.848078e+000 -1.736482e+000  1.100000e+001
      vertex  9.659258e+000 -2.588191e+000  0.000000e+000
    endloop
  endfacet
  facet normal  9.762958e-001 -2.164403e-001  0.000000e+000
    outer loop
      vertex  9.659258e+000 -2.588191e+000  0.000000e+000
      vertex  9.848078e+000 -1.736482e+000  1.100000e+001
      vertex  9.659258e+000 -2.588191e+000  1.100000e+001
    endloop
  endfacet
  facet normal  9.537169e-001 -3.007057e-001  0.000000e+000
    outer loop
      vertex  9.659258e+000 -2.588191e+000  0.000000e+000
      vertex  9.659258e+000 -2.588191e+000  1.100000e+001
      vertex  9.396926e+000 -3.420202e+000  0.000000e+000
    endloop
  endfacet
  facet normal  9.537169e-001 -3.007057e-001  0.000000e+000
    outer loop
      vertex  9.396926e+000 -3.420202e+000  0.000000e+000
      vertex  9.659258e+000 -2.588191e+000  1.100000e+001
      vertex  9.396926e+000 -3.420202e+000  1.100000e+001
    endloop
  endfacet
  facet normal  9.238797e-001 -3.826832e-001  0.000000e+000
    outer loop
      vertex  9.396926e+000 -3.420202e+000  0.000000e+000
      vertex  9.396926e+000 -3.420202e+000  1.100000e+001
      vertex  9.063078e+000 -4.226182e+000  0.000000e+000
    endloop
  endfacet
  facet normal  9.238797e-001 -3.826832e-001  0.000000e+000
    outer loop
      vertex  9.063078e+000 -4.226182e+000  0.000000e+000
      vertex  9.396926e+000 -3.420202e+000  1.100000e+001
      vertex  9.063078e+000 -4.226182e+000  1.100000e+001
    endloop
  endfacet
  facet normal  8.870111e-001 -4.617482e-001  0.000000e+000
    outer loop
      vertex  9.063078e+000 -4.226182e+000  0.000000e+000
      vertex  9.063078e+000 -4.226182e+000  1.100000e+001
      vertex  8.660254e+000 -5.000000e+000  0.000000e+000
    endloop
  endfacet
  facet normal  8.870111e-001 -4.617482e-001  0.000000e+000
    outer loop
      vertex  8.660254e+000 -5.000000e+000  0.000000e+000
      vertex  9.063078e+000 -4.226182e+000  1.100000e+001
      vertex  8.660254e+000 -5.000000e+000  1.100000e+001
    endloop
  endfacet
  facet normal  8.433914e-001 -5.372997e-001  0.000000e+000
    outer loop
      vertex  8.660254e+000 -5.000000e+000  0.000000e+000
      vertex  8.660254e+000 -5.000000e+000  1.100000e+001
      vertex  8.191521e+000 -5.735765e+000  0.000000e+000
    endloop
  endfacet
  facet normal  8.433914e-001 -5.372997e-001  0.000000e+000
    outer loop
      vertex  8.191521e+000 -5.735765e+000  0.000000e+000
      vertex  8.660254e+000 -5.000000e+000  1.100000e+001
      vertex  8.191521e+000 -5.735765e+000  1.100000e+001
    endloop
  endfacet
  facet normal  7.933530e-001 -6.087619e-001  0.000000e+000
    outer loop
      vertex  8.191521e+000 -5.735765e+000  0.000000e+000
      vertex  8.191521e+000 -5.735765e+000  1.100000e+001
      vertex  7.660444e+000 -6.427876e+000  0.000000e+000
    endloop
  endfacet
  facet normal  7.933530e-001 -6.087619e-001  0.000000e+000
    outer loop
      vertex  7.660444e+000 -6.427876e+000  0.000000e+000
      vertex  8.191521e+000 -5.735765e+000  1.100000e+001
      vertex  7.660444e+000 -6.427876e+000  1.100000e+001
    endloop
  endfacet
  facet normal  7.372774e-001 -6.755900e-001  0.000000e+000
    outer loop
      vertex  7.660444e+000 -6.427876e+000  0.000000e+000
      vertex  7.660444e+000 -6.427876e+000  1.100000e+001
      vertex  7.071068e+000 -7.071068e+000  0.000000e+000
    endloop
  endfacet
  facet normal  7.372774e-001 -6.755900e-001  0.000000e+000
    outer loop
      vertex  7.071068e+000 -7.071068e+000  0.000000e+000
      vertex  7.660444e+000 -6.427876e+000  1.100000e+001
      vertex  7.071068e+000 -7.071068e+000  1.100000e+001
    endloop
  endfacet
  facet normal  6.755900e-001 -7.372774e-001  0.000000e+000
    outer loop
      vertex  7.071068e+000 -7.071068e+000  0.000000e+000
      vertex  7.071068e+000 -7.071068e+000  1.100000e+001
      vertex  6.427876e+000 -7.660444e+000  0.000000e+000
    endloop
  endfacet
  facet normal  6.755900e-001 -7.372774e-001  0.000000e+000
    outer loop
      vertex  6.427876e+000 -7.660444e+000  0.000000e+000
      vertex  7.071068e+000 -7.071068e+000  1.100000e+001
      vertex  6.427876e+000 -7.660444e+000  1.100000e+001
    endloop
  endfacet
  facet normal  6.087619e-001 -7.933530e-001  0.000000e+000
    outer loop
      vertex  6.427876e+000 -7.660444e+000  0.000000e+000
      vertex  6.427876e+000 -7.660444e+000  1.100000e+001
      vertex  5.735765e+000 -8.191521e+000  0.000000e+000
    endloop
  endfacet
  facet normal  6.087619e-001 -7.933530e-001  0.000000e+000
    outer loop
      vertex  5.735765e+000 -8.191521e+000  0.000000e+000
      vertex  6.427876e+000 -7.660444e+000  1.100000e+001
      vertex  5.735765e+000 -8.191521e+000  1.100000e+001
    endloop
  endfacet
  facet normal  5.372997e-001 -8.433914e-001  0.000000e+000
    outer loop
      vertex  5.735765e+000 -8.191521e+000  0.000000e+000
      vertex  5.735765e+000 -8.191521e+000  1.100000e+001
      vertex  5.000000e+000 -8.660254e+000  0.000000e+000
    endloop
  endfacet
  facet normal  5.372997e-001 -8.433914e-001  0.000000e+000
    outer loop
      vertex  5.000000e+000 -8.660254e+000  0.000000e+000
      vertex  5.735765e+000 -8.191521e+000  1.100000e+001
      vertex  5.000000e+000 -8.660254e+000  1.100000e+001
    endloop
  endfacet
  facet normal  4.617482e-001 -8.870111e-001  0.000000e+000
    outer loop
      vertex  5.000000e+000 -8.660254e+000  0.000000e+000
      vertex  5.000000e+000 -8.660254e+000  1.100000e+001
      vertex  4.226182e+000 -9.063078e+000  0.000000e+000
    endloop
  endfacet
  facet normal  4.617482e-001 -8.870111e-001  0.000000e+000
    outer loop
      vertex  4.226182e+000 -9.063078e+000  0.000000e+000
      vertex  5.000000e+000 -8.660254e+000  1.100000e+001
      vertex  4.226182e+000 -9.063078e+000  1.100000e+001
    endloop
  endfacet
  facet normal  3.826832e-001 -9.238797e-001  0.000000e+000
    outer loop
      vertex  4.226182e+000 -9.063078e+000  0.000000e+000
      vertex  4.226182e+000 -9.063078e+000  1.100000e+001
      vertex  3.420202e+000 -9.396926e+000  0.000000e+000
    endloop
  endfacet
  facet normal  3.826832e-001 -9.238797e-001  0.000000e+000
    outer loop
      vertex  3.420202e+000 -9.396926e+000  0.000000e+000
      vertex  4.226182e+000 -9.063078e+000  1.100000e+001
      vertex  3.420202e+000 -9.396926e+000  1.100000e+001
    endloop
  endfacet
  facet normal  3.007057e-001 -9.537169e-001  0.000000e+000
    outer loop
      vertex  3.420202e+000 -9.396926e+000  0.000000e+000
      vertex  3.420202e+000 -9.396926e+000  1.100000e+001
      vertex  2.588191e+000 -9.659258e+000  0.000000e+000
    endloop
  endfacet
  facet normal  3.007057e-001 -9.537169e-001  0.000000e+000
    outer loop
      vertex  2.588191e+000 -9.659258e+000  0.000000e+000
      vertex  3.420202e+000 -9.396926e+000  1.100000e+001
      vertex  2.588191e+000 -9.659258e+000  1.100000e+001
    endloop
  endfacet
  facet normal  2.164403e-001 -9.762958e-001  0.000000e+000
    outer loop
      vertex  2.588191e+000 -9.659258e+000  0.000000e+000
      vertex  2.588191e+000 -9.659258e+000  1.100000e+001
      vertex  1.736482e+000 -9.848078e+000  0.000000e+000
    endloop
  endfacet
  facet normal  2.164403e-001 -9.762958e-001  0.000000e+000
    outer loop
      vertex  1.736482e+000 -9.848078e+000  0.000000e+000
      vertex  2.588191e+000 -9.659258e+000  1.100000e+001
      vertex  1.736482e+000 -9.848078e+000  1.100000e+001
    endloop
  endfacet
  facet normal  1.305264e-001 -9.914448e-001  0.000000e+000
    outer loop
      vertex  1.736482e+000 -9.848078e+000  0.000000e+000
      vertex  1.736482e+000 -9.848078e+000  1.100000e+001
      vertex  8.715574e-001 -9.961947e+000  0.000000e+000
    endloop
  endfacet
  facet normal  1.305264e-001 -9.914448e-001  0.000000e+000
    outer loop
      vertex  8.715574e-001 -9.961947e+000  0.000000e+000
      vertex  1.736482e+000 -9.848078e+000  1.100000e+001
      vertex  8.715574e-001 -9.961947e+000  1.100000e+001
    endloop
  endfacet
  facet normal  4.361886e-002 -9.990482e-001  0.000000e+000
    outer loop
      vertex  8.715574e-001 -9.961947e+000  0.000000e+000
      vertex  8.715574e-001 -9.961947e+000  1.100000e+001
      vertex -1.836970e-015 -1.000000e+001  0.000000e+000
    endloop
  endfacet
  facet normal  4.361886e-002 -9.990482e-001  0.000000e+000
    outer loop
      vertex -1.836970e-015 -1.000000e+001  0.000000e+000
      vertex  8.715574e-001 -9.961947e+000  1.100000e+001
      vertex -1.836970e-015 -1.000000e+001  1.100000e+001
    endloop
  endfacet
  facet normal -4.361886e-002 -9.990482e-001  -0.000000e+000
    outer loop
      vertex -1.836970e-015 -1.000000e+001  0.000000e+000
      vertex -1.836970e-015 -1.000000e+001  1.100000e+001
      vertex -8.715574e-001 -9.961947e+000  0.000000e+000
    endloop
  endfacet
  facet normal -4.361886e-002 -9.990482e-001  0.000000e+000
    outer loop
      vertex -8.715574e-001 -9.961947e+000  0.000000e+000
      vertex -1.836970e-015 -1.000000e+001  1.100000e+001
      vertex -8.715574e-001 -9.961947e+000  1.100000e+001
    endloop
  endfacet
  facet normal -1.305264e-001 -9.914448e-001  -0.000000e+000
    outer loop
      vertex -8.715574e-001 -9.961947e+000  0.000000e+000
      vertex -8.715574e-001 -9.961947e+000  1.100000e+001
      vertex -1.736482e+000 -9.848078e+000  0.000000e+000
    endloop
  endfacet
  facet normal -1.305264e-001 -9.914448e-001  0.000000e+000
    outer loop
      vertex -1.736482e+000 -9.848078e+000  0.000000e+000
      vertex -8.715574e-001 -9.961947e+000  1.100000e+001
      vertex -1.736482e+000 -9.848078e+000  1.100000e+001
    endloop
  endfacet
  facet normal -2.164403e-001 -9.762958e-001  -0.000000e+000
    outer loop
      vertex -1.736482e+000 -9.848078e+000  0.000000e+000
      vertex -1.736482e+000 -9.848078e+000  1.100000e+001
      vertex -2.588191e+000 -9.659258e+000  0.000000e+000
    endloop
  endfacet
  facet normal -2.164403e-001 -9.762958e-001  0.000000e+000
    outer loop
      vertex -2.588191e+000 -9.659258e+000  0.000000e+000
      vertex -1.736482e+000 -9.848078e+000  1.100000e+001
      vertex -2.588191e+000 -9.659258e+000  1.100000e+001
    endloop
  endfacet
  facet normal -3.007057e-001 -9.537169e-001  -0.000000e+000
    outer loop
      vertex -2.588191e+000 -9.659258e+000  0.000000e+000
      vertex -2.588191e+000 -9.659258e+000  1.100000e+001
      vertex -3.420202e+000 -9.396926e+000  0.000000e+000
    endloop
  endfacet
  facet normal -3.007057e-001 -9.537169e-001  0.000000e+000
    outer loop
      vertex -3.420202e+000 -9.396926e+000  0.000000e+000
      vertex -2.588191e+000 -9.659258e+000  1.100000e+001
      vertex -3.420202e+000 -9.396926e+000  1.100000e+001
    endloop
  endfacet
  facet normal -3.826832e-001 -9.238797e-001  -0.000000e+000
    outer loop
      vertex -3.420202e+000 -9.396926e+000  0.000000e+000
      vertex -3.420202e+000 -9.396926e+000  1.100000e+001
      vertex -4.226182e+000 -9.063078e+000  0.000000e+000
    endloop
  endfacet
  facet normal -3.826832e-001 -9.238797e-001  0.000000e+000
    outer loop
      vertex -4.226182e+000 -9.063078e+000  0.000000e+000
      vertex -3.420202e+000 -9.396926e+000  1.100000e+001
      vertex -4.226182e+000 -9.063078e+000  1.100000e+001
    endloop
  endfacet
  facet normal -4.617482e-001 -8.870111e-001  -0.000000e+000
    outer loop
      vertex -4.226182e+000 -9.063078e+000  0.000000e+000
      vertex -4.226182e+000 -9.063078e+000  1.100000e+001
      vertex -5.000000e+000 -8.660254e+000  0.000000e+000
    endloop
  endfacet
  facet normal -4.617482e-001 -8.870111e-001  0.000000e+000
    outer loop
      vertex -5.000000e+000 -8.660254e+000  0.000000e+000
      vertex -4.226182e+000 -9.063078e+000  1.100000e+001
      vertex -5.000000e+000 -8.660254e+000  1.100000e+001
    endloop
  endfacet
  facet normal -5.372997e-001 -8.433914e-001  -0.000000e+000
    outer loop
      vertex -5.000000e+000 -8.660254e+000  0.000000e+000
      vertex -5.000000e+000 -8.660254e+000  1.100000e+001
      vertex -5.735765e+000 -8.191521e+000  0.000000e+000
    endloop
  endfacet
  facet normal -5.372997e-001 -8.433914e-001  0.000000e+000
    outer loop
      vertex -5.735765e+000 -8.191521e+000  0.000000e+000
      vertex -5.000000e+000 -8.660254e+000  1.100000e+001
      vertex -5.735765e+000 -8.191521e+000  1.100000e+001
    endloop
  endfacet
  facet normal -6.087619e-001 -7.933530e-001  -0.000000e+000
    outer loop
      vertex -5.735765e+000 -8.191521e+000  0.000000e+000
      vertex -5.735765e+000 -8.191521e+000  1.100000e+001
      vertex -6.427876e+000 -7.660444e+000  0.000000e+000
    endloop
  endfacet
  facet normal -6.087619e-001 -7.933530e-001  0.000000e+000
    outer loop
      vertex -6.427876e+000 -7.660444e+000  0.000000e+000
      vertex -5.735765e+000 -8.191521e+000  1.100000e+001
      vertex -6.427876e+000 -7.660444e+000  1.100000e+001
    endloop
  endfacet
  facet normal -6.755900e-001 -7.372774e-001  -0.000000e+000
    outer loop
      vertex -6.427876e+000 -7.660444e+000  0.000000e+000
      vertex -6.427876e+000 -7.660444e+000  1.100000e+001
      vertex -7.071068e+000 -7.071068e+000  0.000000e+000
    endloop
  endfacet
  facet normal -6.755900e-001 -7.372774e-001  0.000000e+000
    outer loop
      vertex -7.071068e+000 -7.071068e+000  0.000000e+000
      vertex -6.427876e+000 -7.660444e+000  1.100000e+001
      vertex -7.071068e+000 -7.071068e+000  1.100000e+001
    endloop
  endfacet
  facet normal -7.372774e-001 -6.755900e-001  -0.000000e+000
    outer loop
      vertex -7.071068e+000 -7.071068e+000  0.000000e+000
      vertex -7.071068e+000 -7.071068e+000  1.100000e+001
      vertex -7.660444e+000 -6.427876e+000  0.000000e+000
    endloop
  endfacet
  facet normal -7.372774e-001 -6.755900e-001  0.000000e+000
    outer loop
      vertex -7.660444e+000 -6.427876e+000  0.000000e+000
      vertex -7.071068e+000 -7.071068e+000  1.100000e+001
      vertex -7.660444e+000 -6.427876e+000  1.100000e+001
    endloop
  endfacet
  facet normal -7.933530e-001 -6.087619e-001  -0.000000e+000
    outer loop
      vertex -7.660444e+000 -6.427876e+000  0.000000e+000
      vertex -7.660444e+000 -6.427876e+000  1.100000e+001
      vertex -8.191521e+000 -5.735765e+000  0.000000e+000
    endloop
  endfacet
  facet normal -7.933530e-001 -6.087619e-001  0.000000e+000
    outer loop
      vertex -8.191521e+000 -5.735765e+000  0.000000e+000
      vertex -7.660444e+000 -6.427876e+000  1.100000e+001
      vertex -8.191521e+000 -5.735765e+000  1.100000e+001
    endloop
  endfacet
  facet normal -8.433914e-001 -5.372997e-001  -0.000000e+000
    outer loop
      vertex -8.191521e+000 -5.735765e+000  0.000000e+000
      vertex -8.191521e+000 -5.735765e+000  1.100000e+001
      vertex -8.660254e+000 -5.000000e+000  0.000000e+000
    endloop
  endfacet
  facet normal -8.433914e-001 -5.372997e-001  0.000000e+000
    outer loop
      vertex -8.660254e+000 -5.000000e+000  0.000000e+000
      vertex -8.191521e+000 -5.735765e+000  1.100000e+001
      vertex -8.660254e+000 -5.000000e+000  1.100000e+001
    endloop
  endfacet
  facet normal -8.870111e-001 -4.617482e-001  -0.000000e+000
    outer loop
      vertex -8.660254e+000 -5.000000e+000  0.000000e+000
      vertex -8.660254e+000 -5.000000e+000  1.100000e+001
      vertex -9.063078e+000 -4.226182e+000  0.000000e+000
    endloop
  endfacet
  facet normal -8.870111e-001 -4.617482e-001  0.000000e+000
    outer loop
      vertex -9.063078e+000 -4.226182e+000  0.000000e+000
      vertex -8.660254e+000 -5.000000e+000  1.100000e+001
      vertex -9.063078e+000 -4.226182e+000  1.100000e+001
    endloop
  endfacet
  facet normal -9.238797e-001 -3.826832e-001  -0.000000e+000
    outer loop
      vertex -9.063078e+000 -4.226182e+000  0.000000e+000
      vertex -9.063078e+000 -4.226182e+000  1.100000e+001
      vertex -9.396926e+000 -3.420202e+000  0.000000e+000
    endloop
  endfacet
  facet normal -9.238797e-001 -3.826832e-001  0.000000e+000
    outer loop
      vertex -9.396926e+000 -3.420202e+000  0.000000e+000
      vertex -9.063078e+000 -4.226182e+000  1.100000e+001
      vertex -9.396926e+000 -3.420202e+000  1.100000e+001
    endloop
  endfacet
  facet normal -9.537169e-001 -3.007057e-001  -0.000000e+000
    outer loop
      vertex -9.396926e+000 -3.420202e+000  0.000000e+000
      vertex -9.396926e+000 -3.420202e+000  1.100000e+001
      vertex -9.659258e+000 -2.588191e+000  0.000000e+000
    endloop
  endfacet
  facet normal -9.537169e-001 -3.007057e-001  0.000000e+000
    outer loop
      vertex -9.659258e+000 -2.588191e+000  0.000000e+000
      vertex -9.396926e+000 -3.420202e+000  1.100000e+001
      vertex -9.659258e+000 -2.588191e+000  1.100000e+001
    endloop
  endfacet
  facet normal -9.762958e-001 -2.164403e-001  -0.000000e+000
    outer loop
      vertex -9.659258e+000 -2.588191e+000  0.000000e+000
      vertex -9.659258e+000 -2.588191e+000  1.100000e+001
      vertex -9.848078e+000 -1.736482e+000  0.000000e+000
    endloop
  endfacet
  facet normal -9.762958e-001 -2.164403e-001  0.000000e+000
    outer loop
      vertex -9.848078e+000 -1.736482e+000  0.000000e+000
      vertex -9.659258e+000 -2.588191e+000  1.100000e+001
      vertex -9.848078e+000 -1.736482e+000  1.100000e+001
    endloop
  endfacet
  facet normal -9.914448e-001 -1.305264e-001  -0.000000e+000
    outer loop
      vertex -9.848078e+000 -1.736482e+000  0.000000e+000
      vertex -9.848078e+000 -1.736482e+000  1.100000e+001
      vertex -9.961947e+000 -8.715574e-001  0.000000e+000
    endloop
  endfacet
  facet normal -9.914448e-001 -1.305264e-001  0.000000e+000
    outer loop
      vertex -9.961947e+000 -8.715574e-001  0.000000e+000
      vertex -9.848078e+000 -1.736482e+000  1.100000e+001
      vertex -9.961947e+000 -8.715574e-001  1.100000e+001
    endloop
  endfacet
  facet normal -9.990482e-001 -4.361886e-002  -0.000000e+000
    outer loop
      vertex -9.961947e+000 -8.715574e-001  0.000000e+000
      vertex -9.961947e+000 -8.715574e-001  1.100000e+001
      vertex -1.000000e+001  1.224647e-015  0.000000e+000
    endloop
  endfacet
  facet normal -9.990482e-001 -4.361886e-002  0.000000e+000
    outer loop
      vertex -1.000000e+001  1.224647e-015  0.000000e+000
      vertex -9.961947e+000 -8.715574e-001  1.100000e+001
      vertex -1.000000e+001  1.224647e-015  1.100000e+001
    endloop
  endfacet
  facet normal -9.990482e-001  4.361886e-002  0.000000e+000
    outer loop
      vertex -1.000000e+001  1.224647e-015  0.000000e+000
      vertex -1.000000e+001  1.224647e-015  1.100000e+001
      vertex -9.961947e+000  8.715574e-001  0.000000e+000
    endloop
  endfacet
  facet normal -9.990482e-001  4.361886e-002  0.000000e+000
    outer loop
      vertex -9.961947e+000  8.715574e-001  0.000000e+000
      vertex -1.000000e+001  1.224647e-015  1.100000e+001
      vertex -9.961947e+000  8.715574e-001  1.100000e+001
    endloop
  endfacet
  facet normal -9.914448e-001  1.305264e-001  0.000000e+000
    outer loop
      vertex -9.961947e+000  8.715574e-001  0.000000e+000
      vertex -9.961947e+000  8.715574e-001  1.100000e+001
      vertex -9.848078e+000  1.736482e+000  0.000000e+000
    endloop
  endfacet
  facet normal -9.914448e-001  1.305264e-001  0.000000e+000
    outer loop
      vertex -9.848078e+000  1.736482e+000  0.000000e+000
      vertex -9.961947e+000  8.715574e-001  1.100000e+001
      vertex -9.848078e+000  1.736482e+000  1.100000e+001
    endloop
  endfacet
  facet normal -9.762958e-001  2.164403e-001  0.000000e+000
    outer loop
      vertex -9.848078e+000  1.736482e+000  0.000000e+000
      vertex -9.848078e+000  1.736482e+000  1.100000e+001
      vertex -9.659258e+000  2.588191e+000  0.000000e+000
    endloop
  endfacet
  facet normal -9.762958e-001  2.164403e-001  0.000000e+000
    outer loop
      vertex -9.659258e+000  2.588191e+000  0.000000e+000
      vertex -9.848078e+000  1.736482e+000  1.100000e+001
      vertex -9.659258e+000  2.588191e+000  1.100000e+001
    endloop
  endfacet
  facet normal -9.537169e-001  3.007057e-001  0.000000e+000
    outer loop
      vertex -9.659258e+000  2.588191e+000  0.000000e+000
      vertex -9.659258e+000  2.588191e+000  1.100000e+001
      vertex -9.396926e+000  3.420202e+000  0.000000e+000
    endloop
  endfacet
  facet normal -9.537169e-001  3.007057e-001  0.000000e+000
    outer loop
      vertex -9.396926e+000  3.420202e+000  0.000000e+000
      vertex -9.659258e+000  2.588191e+000  1.100000e+001
      vertex -9.396926e+000  3.420202e+000  1.100000e+001
    endloop
  endfacet
  facet normal -9.238797e-001  3.826832e-001  0.000000e+000
    outer loop
      vertex -9.396926e+000  3.420202e+000  0.000000e+000
      vertex -9.396926e+000  3.420202e+000  1.100000e+001
      vertex -9.063078e+000  4.226182e+000  0.000000e+000
    endloop
  endfacet
  facet normal -9.238797e-001  3.826832e-001  0.000000e+000
    outer loop
      vertex -9.063078e+000  4.226182e+000  0.000000e+000
      vertex -9.396926e+000  3.420202e+000  1.100000e+001
      vertex -9.063078e+000  4.226182e+000  1.100000e+001
    endloop
  endfacet
  facet normal -8.870111e-001  4.617482e-001  0.000000e+000
    outer loop
      vertex -9.063078e+000  4.226182e+000  0.000000e+000
      vertex -9.063078e+000  4.226182e+000  1.100000e+001
      vertex -8.660254e+000  5.000000e+000  0.000000e+000
    endloop
  endfacet
  facet normal -8.870111e-001  4.617482e-001  0.000000e+000
    outer loop
      vertex -8.660254e+000  5.000000e+000  0.000000e+000
      vertex -9.063078e+000  4.226182e+000  1.100000e+001
      vertex -8.660254e+000  5.000000e+000  1.100000e+001
    endloop
  endfacet
  facet normal -8.433914e-001  5.372997e-001  0.000000e+000
    outer loop
      vertex -8.660254e+000  5.000000e+000  0.000000e+000
      vertex -8.660254e+000  5.000000e+000  1.100000e+001
      vertex -8.191521e+000  5.735765e+000  0.000000e+000
    endloop
  endfacet
  facet normal -8.433914e-001  5.372997e-001  0.000000e+000
    outer loop
      vertex -8.191521e+000  5.735765e+000  0.000000e+000
      vertex -8.660254e+000  5.000000e+000  1.100000e+001
      vertex -8.191521e+000  5.735765e+000  1.100000e+001
    endloop
  endfacet
  facet normal -7.933530e-001  6.087619e-001  0.000000e+000
    outer loop
      vertex -8.191521e+000  5.735765e+000  0.000000e+000
      vertex -8.191521e+000  5.735765e+000  1.100000e+001
      vertex -7.660444e+000  6.427876e+000  0.000000e+000
    endloop
  endfacet
  facet normal -7.933530e-001  6.087619e-001  0.000000e+000
    outer loop
      vertex -7.660444e+000  6.427876e+000  0.000000e+000
      vertex -8.191521e+000  5.735765e+000  1.100000e+001
      vertex -7.660444e+000  6.427876e+000  1.100000e+001
    endloop
  endfacet
  facet normal -7.372774e-001  6.755900e-001  0.000000e+000
    outer loop
      vertex -7.660444e+000  6.427876e+000  0.000000e+000
      vertex -7.660444e+000  6.427876e+000  1.100000e+001
      vertex -7.071068e+000  7.071068e+000  0.000000e+000
    endloop
  endfacet
  facet normal -7.372774e-001  6.755900e-001  0.000000e+000
    outer loop
      vertex -7.071068e+000  7.071068e+000  0.000000e+000
      vertex -7.660444e+000  6.427876e+000  1.100000e+001
      vertex -7.071068e+000  7.071068e+000  1.100000e+001
    endloop
  endfacet
  facet normal -6.755900e-001  7.372774e-001  0.000000e+000
    outer loop
      vertex -7.071068e+000  7.071068e+000  0.000000e+000
      vertex -7.071068e+000  7.071068e+000  1.100000e+001
      vertex -6.427876e+000  7.660444e+000  0.000000e+000
    endloop
  endfacet
  facet normal -6.755900e-001  7.372774e-001  0.000000e+000
    outer loop
      vertex -6.427876e+000  7.660444e+000  0.000000e+000
      vertex -7.071068e+000  7.071068e+000  1.100000e+001
      vertex -6.427876e+000  7.660444e+000  1.100000e+001
    endloop
  endfacet
  facet normal -6.087619e-001  7.933530e-001  0.000000e+000
    outer loop
      vertex -6.427876e+000  7.660444e+000  0.000000e+000
      vertex -6.427876e+000  7.660444e+000  1.100000e+001
      vertex -5.735765e+000  8.191521e+000  0.000000e+000
    endloop
  endfacet
  facet normal -6.087619e-001  7.933530e-001  0.000000e+000
    outer loop
      vertex -5.735765e+000  8.191521e+000  0.000000e+000
      vertex -6.427876e+000  7.660444e+000  1.100000e+001
      vertex -5.735765e+000  8.191521e+000  1.100000e+001
    endloop
  endfacet
  facet normal -5.372997e-001  8.433914e-001  0.000000e+000
    outer loop
      vertex -5.735765e+000  8.191521e+000  0.000000e+000
      vertex -5.735765e+000  8.191521e+000  1.100000e+001
      vertex -5.000000e+000  8.660254e+000  0.000000e+000
    endloop
  endfacet
  facet normal -5.372997e-001  8.433914e-001  0.000000e+000
    outer loop
      vertex -5.000000e+000  8.660254e+000  0.000000e+000
      vertex -5.735765e+000  8.191521e+000  1.100000e+001
      vertex -5.000000e+000  8.660254e+000  1.100000e+001
    endloop
  endfacet
  facet normal -4.617482e-001  8.870111e-001  0.000000e+000
    outer loop
      vertex -5.000000e+000  8.660254e+000  0.000000e+000
      vertex -5.000000e+000  8.660254e+000  1.100000e+001
      vertex -4.226182e+000  9.063078e+000  0.000000e+000
    endloop
  endfacet
  facet normal -4.617482e-001  8.870111e-001  0.000000e+000
    outer loop
      vertex -4.226182e+000  9.063078e+000  0.000000e+000
      vertex -5.000000e+000  8.660254e+000  1.100000e+001
      vertex -4.226182e+000  9.063078e+000  1.100000e+001
    endloop
  endfacet
  facet normal -3.826832e-001  9.238797e-001  0.000000e+000
    outer loop
      vertex -4.226182e+000  9.063078e+000  0.000000e+000
      vertex -4.226182e+000  9.063078e+000  1.100000e+001
      vertex -3.420202e+000  9.396926e+000  0.000000e+000
    endloop
  endfacet
  facet normal -3.826832e-001  9.238797e-001  0.000000e+000
    outer loop
      vertex -3.420202e+000  9.396926e+000  0.000000e+000
      vertex -4.226182e+000  9.063078e+000  1.100000e+001
      vertex -3.420202e+000  9.396926e+000  1.100000e+001
    endloop
  endfacet
  facet normal -3.007057e-001  9.537169e-001  0.000000e+000
    outer loop
      vertex -3.420202e+000  9.396926e+000  0.000000e+000
      vertex -3.420202e+000  9.396926e+000  1.100000e+001
      vertex -2.588191e+000  9.659258e+000  0.000000e+000
    endloop
  endfacet
  facet normal -3.007057e-001  9.537169e-001  0.000000e+000
    outer loop
      vertex -2.588191e+000  9.659258e+000  0.000000e+000
      vertex -3.420202e+000  9.396926e+000  1.100000e+001
      vertex -2.588191e+000  9.659258e+000  1.100000e+001
    endloop
  endfacet
  facet normal -2.164403e-001  9.762958e-001  0.000000e+000
    outer loop
      vertex -2.588191e+000  9.659258e+000  0.000000e+000
      vertex -2.588191e+000  9.659258e+000  1.100000e+001
      vertex -1.736482e+000  9.848078e+000  0.000000e+000
    endloop
  endfacet
  facet normal -2.164403e-001  9.762958e-001  0.000000e+000
    outer loop
      vertex -1.736482e+000  9.848078e+000  0.000000e+000
      vertex -2.588191e+000  9.659258e+000  1.100000e+001
      vertex -1.736482e+000  9.848078e+000  1.100000e+001
    endloop
  endfacet
  facet normal -1.305264e-001  9.914448e-001  0.000000e+000
    outer loop
      vertex -1.736482e+000  9.848078e+000  0.000000e+000
      vertex -1.736482e+000  9.848078e+000  1.100000e+001
      vertex -8.715574e-001  9.961947e+000  0.000000e+000
    endloop
  endfacet
  facet normal -1.305264e-001  9.914448e-001  0.000000e+000
    outer loop
      vertex -8.715574e-001  9.961947e+000  0.000000e+000
      vertex -1.736482e+000  9.848078e+000  1.100000e+001
      vertex -8.715574e-001  9.961947e+000  1.100000e+001
    endloop
  endfacet
  facet normal -4.361886e-002  9.990482e-001  0.000000e+000
    outer loop
      vertex -8.715574e-001  9.961947e+000  0.000000e+000
      vertex -8.715574e-001  9.961947e+000  1.100000e+001
      vertex  6.123234e-016  1.000000e+001  0.000000e+000
    endloop
  endfacet
  facet normal -4.361886e-002  9.990482e-001  0.000000e+000
    outer loop
      vertex  6.123234e-016  1.000000e+001  0.000000e+000
      vertex -8.715574e-001  9.961947e+000  1.100000e+001
      vertex  6.123234e-016  1.000000e+001  1.100000e+001
    endloop
  endfacet
  facet normal  4.361886e-002  9.990482e-001  0.000000e+000
    outer loop
      vertex  6.123234e-016  1.000000e+001  0.000000e+000
      vertex  6.123234e-016  1.000000e+001  1.100000e+001
      vertex  8.715574e-001  9.961947e+000  0.000000e+000
    endloop
  endfacet
  facet normal  4.361886e-002  9.990482e-001  -0.000000e+000
    outer loop
      vertex  8.715574e-001  9.961947e+000  0.000000e+000
      vertex  6.123234e-016  1.000000e+001  1.100000e+001
      vertex  8.715574e-001  9.961947e+000  1.100000e+001
    endloop
  endfacet
  facet normal  1.305264e-001  9.914448e-001  0.000000e+000
    outer loop
      vertex  8.715574e-001  9.961947e+000  0.000000e+000
      vertex  8.715574e-001  9.961947e+000  1.100000e+001
      vertex  1.736482e+000  9.848078e+000  0.000000e+000
    endloop
  endfacet
  facet normal  1.305264e-001  9.914448e-001  -0.000000e+000
    outer loop
      vertex  1.736482e+000  9.848078e+000  0.000000e+000
      vertex  8.715574e-001  9.961947e+000  1.100000e+001
      vertex  1.736482e+000  9.848078e+000  1.100000e+001
    endloop
  endfacet
  facet normal  2.164403e-001  9.762958e-001  0.000000e+000
    outer loop
      vertex  1.736482e+000  9.848078e+000  0.000000e+000
      vertex  1.736482e+000  9.848078e+000  1.100000e+001
      vertex  2.588191e+000  9.659258e+000  0.000000e+000
    endloop
  endfacet
  facet normal  2.164403e-001  9.762958e-001  -0.000000e+000
    outer loop
      vertex  2.588191e+000  9.659258e+000  0.000000e+000
      vertex  1.736482e+000  9.848078e+000  1.100000e+001
      vertex  2.588191e+000  9.659258e+000  1.100000e+001
    endloop
  endfacet
  facet normal  3.007057e-001  9.537169e-001  0.000000e+000
    outer loop
      vertex  2.588191e+000  9.659258e+000  0.000000e+000
      vertex  2.588191e+000  9.659258e+000  1.100000e+001
      vertex  3.420202e+000  9.396926e+000  0.000000e+000
    endloop
  endfacet
  facet normal  3.007057e-001  9.537169e-001  -0.000000e+000
    outer loop
      vertex  3.420202e+000  9.396926e+000  0.000000e+000
      vertex  2.588191e+000  9.659258e+000  1.100000e+001
      vertex  3.420202e+000  9.396926e+000  1.100000e+001
    endloop
  endfacet
  facet normal  3.826832e-001  9.238797e-001  0.000000e+000
    outer loop
      vertex  3.420202e+000  9.396926e+000  0.000000e+000
      vertex  3.420202e+000  9.396926e+000  1.100000e+001
      vertex  4.226182e+000  9.063078e+000  0.000000e+000
    endloop
  endfacet
  facet normal  3.826832e-001  9.238797e-001  -0.000000e+000
    outer loop
      vertex  4.226182e+000  9.063078e+000  0.000000e+000
      vertex  3.420202e+000  9.396926e+000  1.100000e+001
      vertex  4.226182e+000  9.063078e+000  1.100000e+001
    endloop
  endfacet
  facet normal  4.617482e-001  8.870111e-001  0.000000e+000
    outer loop
      vertex  4.226182e+000  9.063078e+000  0.000000e+000
      vertex  4.226182e+000  9.063078e+000  1.100000e+001
      vertex  5.000000e+000  8.660254e+000  0.000000e+000
    endloop
  endfacet
  facet normal  4.617482e-001  8.870111e-001  -0.000000e+000
    outer loop
      vertex  5.000000e+000  8.660254e+000  0.000000e+000
      vertex  4.226182e+000  9.063078e+000  1.100000e+001
      vertex  5.000000e+000  8.660254e+000  1.100000e+001
    endloop
  endfacet
  facet normal  5.372997e-001  8.433914e-001  0.000000e+000
    outer loop
      vertex  5.000000e+000  8.660254e+000  0.000000e+000
      vertex  5.000000e+000  8.660254e+000  1.100000e+001
      vertex  5.735765e+000  8.191521e+000  0.000000e+000
    endloop
  endfacet
  facet normal  5.372997e-001  8.433914e-001  -0.000000e+000
    outer loop
      vertex  5.735765e+000  8.191521e+000  0.000000e+000
      vertex  5.000000e+000  8.660254e+000  1.100000e+001
      vertex  5.735765e+000  8.191521e+000  1.100000e+001
    endloop
  endfacet
  facet normal  6.087619e-001  7.933530e-001  0.000000e+000
    outer loop
      vertex  5.735765e+000  8.191521e+000  0.000000e+000
      vertex  5.735765e+000  8.191521e+000  1.100000e+001
      vertex  6.427876e+000  7.660444e+000  0.000000e+000
    endloop
  endfacet
  facet normal  6.087619e-001  7.933530e-001  -0.000000e+000
    outer loop
      vertex  6.427876e+000  7.660444e+000  0.000000e+000
      vertex  5.735765e+000  8.191521e+000  1.100000e+001
      vertex  6.427876e+000  7.660444e+000  1.100000e+001
    endloop
  endfacet
  facet normal  6.755900e-001  7.372774e-001  0.000000e+000
    outer loop
      vertex  6.427876e+000  7.660444e+000  0.000000e+000
      vertex  6.427876e+000  7.660444e+000  1.100000e+001
      vertex  7.071068e+000  7.071068e+000  0.000000e+000
    endloop
  endfacet
  facet normal  6.755900e-001  7.372774e-001  -0.000000e+000
    outer loop
      vertex  7.071068e+000  7.071068e+000  0.000000e+000
      vertex  6.427876e+000  7.660444e+000  1.100000e+001
      vertex  7.071068e+000  7.071068e+000  1.100000e+001
    endloop
  endfacet
  facet normal  7.372774e-001  6.755900e-001  0.000000e+000
    outer loop
      vertex  7.071068e+000  7.071068e+000  0.000000e+000
      vertex  7.071068e+000  7.071068e+000  1.100000e+001
      vertex  7.660444e+000  6.427876e+000  0.000000e+000
    endloop
  endfacet
  facet normal  7.372774e-001  6.755900e-001  -0.000000e+000
    outer loop
      vertex  7.660444e+000  6.427876e+000  0.000000e+000
      vertex  7.071068e+000  7.071068e+000  1.100000e+001
      vertex  7.660444e+000  6.427876e+000  1.100000e+001
    endloop
  endfacet
  facet normal  7.933530e-001  6.087619e-001  0.000000e+000
    outer loop
      vertex  7.660444e+000  6.427876e+000  0.000000e+000
      vertex  7.660444e+000  6.427876e+000  1.100000e+001
      vertex  8.191521e+000  5.735765e+000  0.000000e+000
    endloop
  endfacet
  facet normal  7.933530e-001  6.087619e-001  -0.000000e+000
    outer loop
      vertex  8.191521e+000  5.735765e+000  0.000000e+000
      vertex  7.660444e+000  6.427876e+000  1.100000e+001
      vertex  8.191521e+000  5.735765e+000  1.100000e+001
    endloop
  endfacet
  facet normal  8.433914e-001  5.372997e-001  0.000000e+000
    outer loop
      vertex  8.191521e+000  5.735765e+000  0.000000e+000
      vertex  8.191521e+000  5.735765e+000  1.100000e+001
      vertex  8.660254e+000  5.000000e+000  0.000000e+000
    endloop
  endfacet
  facet normal  8.433914e-001  5.372997e-001  -0.000000e+000
    outer loop
      vertex  8.660254e+000  5.000000e+000  0.000000e+000
      vertex  8.191521e+000  5.735765e+000  1.100000e+001
      vertex  8.660254e+000  5.000000e+000  1.100000e+001
    endloop
  endfacet
  facet normal  8.870111e-001  4.617482e-001  0.000000e+000
    outer loop
      vertex  8.660254e+000  5.000000e+000  0.000000e+000
      vertex  8.660254e+000  5.000000e+000  1.100000e+001
      vertex  9.063078e+000  4.226182e+000  0.000000e+000
    endloop
  endfacet
  facet normal  8.870111e-001  4.617482e-001  -0.000000e+000
    outer loop
      vertex  9.063078e+000  4.226182e+000  0.000000e+000
      vertex  8.660254e+000  5.000000e+000  1.100000e+001
      vertex  9.063078e+000  4.226182e+000  1.100000e+001
    endloop
  endfacet
  facet normal  9.238797e-001  3.826832e-001  0.000000e+000
    outer loop
      vertex  9.063078e+000  4.226182e+000  0.000000e+000
      vertex  9.063078e+000  4.226182e+000  1.100000e+001
      vertex  9.396926e+000  3.420202e+000  0.000000e+000
    endloop
  endfacet
  facet normal  9.238797e-001  3.826832e-001  -0.000000e+000
    outer loop
      vertex  9.396926e+000  3.420202e+000  0.000000e+000
      vertex  9.063078e+000  4.226182e+000  1.100000e+001
      vertex  9.396926e+000  3.420202e+000  1.100000e+001
    endloop
  endfacet
  facet normal  9.537169e-001  3.007057e-001  0.000000e+000
    outer loop
      vertex  9.396926e+000  3.420202e+000  0.000000e+000
      vertex  9.396926e+000  3.420202e+000  1.100000e+001
      vertex  9.659258e+000  2.588191e+000  0.000000e+000
    endloop
  endfacet
  facet normal  9.537169e-001  3.007057e-001  -0.000000e+000
    outer loop
      vertex  9.659258e+000  2.588191e+000  0.000000e+000
      vertex  9.396926e+000  3.420202e+000  1.100000e+001
      vertex  9.659258e+000  2.588191e+000  1.100000e+001
    endloop
  endfacet
  facet normal  9.762958e-001  2.164403e-001  0.000000e+000
    outer loop
      vertex  9.659258e+000  2.588191e+000  0.000000e+000
      vertex  9.659258e+000  2.588191e+000  1.100000e+001
      vertex  9.848078e+000  1.736482e+000  0.000000e+000
    endloop
  endfacet
  facet normal  9.762958e-001  2.164403e-001  -0.000000e+000
    outer loop
      vertex  9.848078e+000  1.736482e+000  0.000000e+000
      vertex  9.659258e+000  2.588191e+000  1.100000e+001
      vertex  9.848078e+000  1.736482e+000  1.100000e+001
    endloop
  endfacet
  facet normal  9.914448e-001  1.305264e-001  0.000000e+000
    outer loop
      vertex  9.848078e+000  1.736482e+000  0.000000e+000
      vertex  9.848078e+000  1.736482e+000  1.100000e+001
      vertex  9.961947e+000  8.715574e-001  0.000000e+000
    endloop
  endfacet
  facet normal  9.914448e-001  1.305264e-001  -0.000000e+000
    outer loop
      vertex  9.961947e+000  8.715574e-001  0.000000e+000
      vertex  9.848078e+000  1.736482e+000  1.100000e+001
      vertex  9.961947e+000  8.715574e-001  1.100000e+001
    endloop
  endfacet
  facet normal  9.990482e-001  4.361886e-002  0.000000e+000
    outer loop
      vertex  9.961947e+000  8.715574e-001  0.000000e+000
      vertex  9.961947e+000  8.715574e-001  1.100000e+001
      vertex  1.000000e+001  0.000000e+000  0.000000e+000
    endloop
  endfacet
  facet normal  9.990482e-001  4.361886e-002  -0.000000e+000
    outer loop
      vertex  1.000000e+001  0.000000e+000  0.000000e+000
      vertex  9.961947e+000  8.715574e-001  1.100000e+001
      vertex  1.000000e+001  0.000000e+000  1.100000e+001
    endloop
  endfacet
endsolid CATIA STL
