solid CATIA STL
  facet normal  0.000000e+000  0.000000e+000 -1.000000e+000
    outer loop
      vertex -3.000000e+001 -8.000000e+001  0.000000e+000
      vertex -3.000000e+001  8.000000e+001  0.000000e+000
      vertex  3.000000e+001 -8.000000e+001  0.000000e+000
    endloop
  endfacet
  facet normal  0.000000e+000  0.000000e+000 -1.000000e+000
    outer loop
      vertex  3.000000e+001 -8.000000e+001  0.000000e+000
      vertex -3.000000e+001  8.000000e+001  0.000000e+000
      vertex  3.000000e+001  8.000000e+001  0.000000e+000
    endloop
  endfacet
  facet normal  -0.000000e+000  0.000000e+000 -1.000000e+000
    outer loop
      vertex -5.750000e+001  1.125000e+002  0.000000e+000
      vertex -3.400000e+001 -8.400000e+001  0.000000e+000
      vertex -5.750000e+001 -1.125000e+002  0.000000e+000
    endloop
  endfacet
  facet normal  0.000000e+000  0.000000e+000 -1.000000e+000
    outer loop
      vertex -5.750000e+001 -1.125000e+002  0.000000e+000
      vertex -3.400000e+001 -8.400000e+001  0.000000e+000
      vertex  3.400000e+001 -8.400000e+001  0.000000e+000
    endloop
  endfacet
  facet normal  0.000000e+000  -0.000000e+000 -9.999999e-001
    outer loop
      vertex -5.750000e+001 -1.125000e+002  0.000000e+000
      vertex  3.400000e+001 -8.400000e+001  0.000000e+000
      vertex  5.750000e+001 -1.125000e+002  0.000000e+000
    endloop
  endfacet
  facet normal  0.000000e+000  0.000000e+000 -1.000000e+000
    outer loop
      vertex -3.400000e+001 -8.400000e+001  0.000000e+000
      vertex -5.750000e+001  1.125000e+002  0.000000e+000
      vertex -3.400000e+001  8.400000e+001  0.000000e+000
    endloop
  endfacet
  facet normal  0.000000e+000  0.000000e+000 -9.999999e-001
    outer loop
      vertex -3.400000e+001  8.400000e+001  0.000000e+000
      vertex -5.750000e+001  1.125000e+002  0.000000e+000
      vertex  5.750000e+001  1.125000e+002  0.000000e+000
    endloop
  endfacet
  facet normal  0.000000e+000  0.000000e+000 -1.000000e+000
    outer loop
      vertex -3.400000e+001  8.400000e+001  0.000000e+000
      vertex  5.750000e+001  1.125000e+002  0.000000e+000
      vertex  3.400000e+001  8.400000e+001  0.000000e+000
    endloop
  endfacet
  facet normal  0.000000e+000  0.000000e+000 -1.000000e+000
    outer loop
      vertex  3.400000e+001  8.400000e+001  0.000000e+000
      vertex  5.750000e+001  1.125000e+002  0.000000e+000
      vertex  5.750000e+001 -1.125000e+002  0.000000e+000
    endloop
  endfacet
  facet normal  0.000000e+000  0.000000e+000 -1.000000e+000
    outer loop
      vertex  3.400000e+001  8.400000e+001  0.000000e+000
      vertex  5.750000e+001 -1.125000e+002  0.000000e+000
      vertex  3.400000e+001 -8.400000e+001  0.000000e+000
    endloop
  endfacet
  facet normal  0.000000e+000 -1.000000e+000  -0.000000e+000
    outer loop
      vertex  3.000000e+001  8.000000e+001 -4.000000e+000
      vertex  3.000000e+001  8.000000e+001  0.000000e+000
      vertex -3.000000e+001  8.000000e+001 -4.000000e+000
    endloop
  endfacet
  facet normal  0.000000e+000 -1.000000e+000  0.000000e+000
    outer loop
      vertex -3.000000e+001  8.000000e+001 -4.000000e+000
      vertex  3.000000e+001  8.000000e+001  0.000000e+000
      vertex -3.000000e+001  8.000000e+001  0.000000e+000
    endloop
  endfacet
  facet normal -1.000000e+000  0.000000e+000  0.000000e+000
    outer loop
      vertex  3.000000e+001 -8.000000e+001 -4.000000e+000
      vertex  3.000000e+001 -8.000000e+001  0.000000e+000
      vertex  3.000000e+001  8.000000e+001 -4.000000e+000
    endloop
  endfacet
  facet normal -1.000000e+000  0.000000e+000  0.000000e+000
    outer loop
      vertex  3.000000e+001  8.000000e+001 -4.000000e+000
      vertex  3.000000e+001 -8.000000e+001  0.000000e+000
      vertex  3.000000e+001  8.000000e+001  0.000000e+000
    endloop
  endfacet
  facet normal  0.000000e+000  1.000000e+000  0.000000e+000
    outer loop
      vertex -3.000000e+001 -8.000000e+001 -4.000000e+000
      vertex -3.000000e+001 -8.000000e+001  0.000000e+000
      vertex  3.000000e+001 -8.000000e+001 -4.000000e+000
    endloop
  endfacet
  facet normal  0.000000e+000  1.000000e+000  -0.000000e+000
    outer loop
      vertex  3.000000e+001 -8.000000e+001 -4.000000e+000
      vertex -3.000000e+001 -8.000000e+001  0.000000e+000
      vertex  3.000000e+001 -8.000000e+001  0.000000e+000
    endloop
  endfacet
  facet normal  1.000000e+000  0.000000e+000  0.000000e+000
    outer loop
      vertex -3.000000e+001  8.000000e+001 -4.000000e+000
      vertex -3.000000e+001  8.000000e+001  0.000000e+000
      vertex -3.000000e+001 -8.000000e+001 -4.000000e+000
    endloop
  endfacet
  facet normal  1.000000e+000  0.000000e+000  0.000000e+000
    outer loop
      vertex -3.000000e+001 -8.000000e+001 -4.000000e+000
      vertex -3.000000e+001  8.000000e+001  0.000000e+000
      vertex -3.000000e+001 -8.000000e+001  0.000000e+000
    endloop
  endfacet
  facet normal -1.000000e+000  0.000000e+000  0.000000e+000
    outer loop
      vertex -3.400000e+001  8.400000e+001 -4.000000e+000
      vertex -3.400000e+001 -8.400000e+001 -4.000000e+000
      vertex -3.400000e+001  8.400000e+001  0.000000e+000
    endloop
  endfacet
  facet normal -1.000000e+000  -0.000000e+000  0.000000e+000
    outer loop
      vertex -3.400000e+001  8.400000e+001  0.000000e+000
      vertex -3.400000e+001 -8.400000e+001 -4.000000e+000
      vertex -3.400000e+001 -8.400000e+001  0.000000e+000
    endloop
  endfacet
  facet normal  0.000000e+000 -1.000000e+000  0.000000e+000
    outer loop
      vertex -3.400000e+001 -8.400000e+001 -4.000000e+000
      vertex  3.400000e+001 -8.400000e+001 -4.000000e+000
      vertex -3.400000e+001 -8.400000e+001  0.000000e+000
    endloop
  endfacet
  facet normal  0.000000e+000 -1.000000e+000  0.000000e+000
    outer loop
      vertex -3.400000e+001 -8.400000e+001  0.000000e+000
      vertex  3.400000e+001 -8.400000e+001 -4.000000e+000
      vertex  3.400000e+001 -8.400000e+001  0.000000e+000
    endloop
  endfacet
  facet normal  1.000000e+000  0.000000e+000  0.000000e+000
    outer loop
      vertex  3.400000e+001 -8.400000e+001 -4.000000e+000
      vertex  3.400000e+001  8.400000e+001 -4.000000e+000
      vertex  3.400000e+001 -8.400000e+001  0.000000e+000
    endloop
  endfacet
  facet normal  1.000000e+000  -0.000000e+000  0.000000e+000
    outer loop
      vertex  3.400000e+001 -8.400000e+001  0.000000e+000
      vertex  3.400000e+001  8.400000e+001 -4.000000e+000
      vertex  3.400000e+001  8.400000e+001  0.000000e+000
    endloop
  endfacet
  facet normal  0.000000e+000  1.000000e+000  0.000000e+000
    outer loop
      vertex  3.400000e+001  8.400000e+001 -4.000000e+000
      vertex -3.400000e+001  8.400000e+001 -4.000000e+000
      vertex  3.400000e+001  8.400000e+001  0.000000e+000
    endloop
  endfacet
  facet normal  0.000000e+000  1.000000e+000  0.000000e+000
    outer loop
      vertex  3.400000e+001  8.400000e+001  0.000000e+000
      vertex -3.400000e+001  8.400000e+001 -4.000000e+000
      vertex -3.400000e+001  8.400000e+001  0.000000e+000
    endloop
  endfacet
  facet normal  0.000000e+000  0.000000e+000 -1.000000e+000
    outer loop
      vertex  3.400000e+001  8.400000e+001 -4.000000e+000
      vertex  3.000000e+001  8.000000e+001 -4.000000e+000
      vertex -3.400000e+001  8.400000e+001 -4.000000e+000
    endloop
  endfacet
  facet normal  0.000000e+000  0.000000e+000 -1.000000e+000
    outer loop
      vertex -3.400000e+001  8.400000e+001 -4.000000e+000
      vertex  3.000000e+001  8.000000e+001 -4.000000e+000
      vertex -3.000000e+001  8.000000e+001 -4.000000e+000
    endloop
  endfacet
  facet normal  -0.000000e+000  0.000000e+000 -1.000000e+000
    outer loop
      vertex -3.400000e+001  8.400000e+001 -4.000000e+000
      vertex -3.000000e+001  8.000000e+001 -4.000000e+000
      vertex -3.400000e+001 -8.400000e+001 -4.000000e+000
    endloop
  endfacet
  facet normal  0.000000e+000  0.000000e+000 -1.000000e+000
    outer loop
      vertex -3.400000e+001 -8.400000e+001 -4.000000e+000
      vertex -3.000000e+001  8.000000e+001 -4.000000e+000
      vertex -3.000000e+001 -8.000000e+001 -4.000000e+000
    endloop
  endfacet
  facet normal  0.000000e+000  -0.000000e+000 -1.000000e+000
    outer loop
      vertex -3.400000e+001 -8.400000e+001 -4.000000e+000
      vertex -3.000000e+001 -8.000000e+001 -4.000000e+000
      vertex  3.400000e+001 -8.400000e+001 -4.000000e+000
    endloop
  endfacet
  facet normal  0.000000e+000  0.000000e+000 -1.000000e+000
    outer loop
      vertex  3.400000e+001 -8.400000e+001 -4.000000e+000
      vertex -3.000000e+001 -8.000000e+001 -4.000000e+000
      vertex  3.000000e+001 -8.000000e+001 -4.000000e+000
    endloop
  endfacet
  facet normal  0.000000e+000  0.000000e+000 -1.000000e+000
    outer loop
      vertex  3.400000e+001 -8.400000e+001 -4.000000e+000
      vertex  3.000000e+001 -8.000000e+001 -4.000000e+000
      vertex  3.400000e+001  8.400000e+001 -4.000000e+000
    endloop
  endfacet
  facet normal  0.000000e+000  0.000000e+000 -1.000000e+000
    outer loop
      vertex  3.400000e+001  8.400000e+001 -4.000000e+000
      vertex  3.000000e+001 -8.000000e+001 -4.000000e+000
      vertex  3.000000e+001  8.000000e+001 -4.000000e+000
    endloop
  endfacet
  facet normal  1.000000e+000  0.000000e+000  0.000000e+000
    outer loop
      vertex -5.550000e+001 -1.105000e+002  1.800000e+001
      vertex -5.550000e+001 -1.105000e+002  4.000000e+000
      vertex -5.550000e+001  1.105000e+002  1.800000e+001
    endloop
  endfacet
  facet normal  1.000000e+000  0.000000e+000  0.000000e+000
    outer loop
      vertex -5.550000e+001  1.105000e+002  1.800000e+001
      vertex -5.550000e+001 -1.105000e+002  4.000000e+000
      vertex -5.550000e+001  1.105000e+002  4.000000e+000
    endloop
  endfacet
  facet normal  0.000000e+000 -1.000000e+000  0.000000e+000
    outer loop
      vertex -5.550000e+001  1.105000e+002  1.800000e+001
      vertex -5.550000e+001  1.105000e+002  4.000000e+000
      vertex  5.550000e+001  1.105000e+002  1.800000e+001
    endloop
  endfacet
  facet normal  0.000000e+000 -1.000000e+000  -0.000000e+000
    outer loop
      vertex  5.550000e+001  1.105000e+002  1.800000e+001
      vertex -5.550000e+001  1.105000e+002  4.000000e+000
      vertex  5.550000e+001  1.105000e+002  4.000000e+000
    endloop
  endfacet
  facet normal -1.000000e+000  0.000000e+000  0.000000e+000
    outer loop
      vertex  5.550000e+001  1.105000e+002  1.800000e+001
      vertex  5.550000e+001  1.105000e+002  4.000000e+000
      vertex  5.550000e+001 -1.105000e+002  1.800000e+001
    endloop
  endfacet
  facet normal -1.000000e+000  0.000000e+000  0.000000e+000
    outer loop
      vertex  5.550000e+001 -1.105000e+002  1.800000e+001
      vertex  5.550000e+001  1.105000e+002  4.000000e+000
      vertex  5.550000e+001 -1.105000e+002  4.000000e+000
    endloop
  endfacet
  facet normal  0.000000e+000  1.000000e+000  -0.000000e+000
    outer loop
      vertex  5.550000e+001 -1.105000e+002  1.800000e+001
      vertex  5.550000e+001 -1.105000e+002  4.000000e+000
      vertex -5.550000e+001 -1.105000e+002  1.800000e+001
    endloop
  endfacet
  facet normal  0.000000e+000  1.000000e+000  0.000000e+000
    outer loop
      vertex -5.550000e+001 -1.105000e+002  1.800000e+001
      vertex  5.550000e+001 -1.105000e+002  4.000000e+000
      vertex -5.550000e+001 -1.105000e+002  4.000000e+000
    endloop
  endfacet
  facet normal  0.000000e+000  0.000000e+000  1.000000e+000
    outer loop
      vertex -5.550000e+001 -1.105000e+002  4.000000e+000
      vertex  5.550000e+001 -1.105000e+002  4.000000e+000
      vertex -5.550000e+001  1.105000e+002  4.000000e+000
    endloop
  endfacet
  facet normal  -0.000000e+000  0.000000e+000  1.000000e+000
    outer loop
      vertex -5.550000e+001  1.105000e+002  4.000000e+000
      vertex  5.550000e+001 -1.105000e+002  4.000000e+000
      vertex  5.550000e+001  1.105000e+002  4.000000e+000
    endloop
  endfacet
  facet normal  0.000000e+000  0.000000e+000  9.999999e-001
    outer loop
      vertex  5.750000e+001 -1.125000e+002  1.800000e+001
      vertex  5.550000e+001 -1.105000e+002  1.800000e+001
      vertex -5.750000e+001 -1.125000e+002  1.800000e+001
    endloop
  endfacet
  facet normal  0.000000e+000  0.000000e+000  1.000000e+000
    outer loop
      vertex -5.750000e+001 -1.125000e+002  1.800000e+001
      vertex  5.550000e+001 -1.105000e+002  1.800000e+001
      vertex -5.550000e+001 -1.105000e+002  1.800000e+001
    endloop
  endfacet
  facet normal  0.000000e+000  0.000000e+000  1.000000e+000
    outer loop
      vertex -5.750000e+001 -1.125000e+002  1.800000e+001
      vertex -5.550000e+001 -1.105000e+002  1.800000e+001
      vertex -5.750000e+001  1.125000e+002  1.800000e+001
    endloop
  endfacet
  facet normal  0.000000e+000  0.000000e+000  1.000000e+000
    outer loop
      vertex -5.750000e+001  1.125000e+002  1.800000e+001
      vertex -5.550000e+001 -1.105000e+002  1.800000e+001
      vertex -5.550000e+001  1.105000e+002  1.800000e+001
    endloop
  endfacet
  facet normal  0.000000e+000  -0.000000e+000  9.999999e-001
    outer loop
      vertex -5.750000e+001  1.125000e+002  1.800000e+001
      vertex -5.550000e+001  1.105000e+002  1.800000e+001
      vertex  5.750000e+001  1.125000e+002  1.800000e+001
    endloop
  endfacet
  facet normal  0.000000e+000  0.000000e+000  1.000000e+000
    outer loop
      vertex  5.750000e+001  1.125000e+002  1.800000e+001
      vertex -5.550000e+001  1.105000e+002  1.800000e+001
      vertex  5.550000e+001  1.105000e+002  1.800000e+001
    endloop
  endfacet
  facet normal  -0.000000e+000  0.000000e+000  1.000000e+000
    outer loop
      vertex  5.750000e+001  1.125000e+002  1.800000e+001
      vertex  5.550000e+001  1.105000e+002  1.800000e+001
      vertex  5.750000e+001 -1.125000e+002  1.800000e+001
    endloop
  endfacet
  facet normal  0.000000e+000  0.000000e+000  1.000000e+000
    outer loop
      vertex  5.750000e+001 -1.125000e+002  1.800000e+001
      vertex  5.550000e+001  1.105000e+002  1.800000e+001
      vertex  5.550000e+001 -1.105000e+002  1.800000e+001
    endloop
  endfacet
  facet normal -1.000000e+000  -0.000000e+000  0.000000e+000
    outer loop
      vertex -5.750000e+001 -1.125000e+002  1.800000e+001
      vertex -5.750000e+001  1.125000e+002  1.800000e+001
      vertex -5.750000e+001 -1.125000e+002  0.000000e+000
    endloop
  endfacet
  facet normal -1.000000e+000  0.000000e+000  0.000000e+000
    outer loop
      vertex -5.750000e+001 -1.125000e+002  0.000000e+000
      vertex -5.750000e+001  1.125000e+002  1.800000e+001
      vertex -5.750000e+001  1.125000e+002  0.000000e+000
    endloop
  endfacet
  facet normal  0.000000e+000  1.000000e+000  0.000000e+000
    outer loop
      vertex -5.750000e+001  1.125000e+002  1.800000e+001
      vertex  5.750000e+001  1.125000e+002  1.800000e+001
      vertex -5.750000e+001  1.125000e+002  0.000000e+000
    endloop
  endfacet
  facet normal  0.000000e+000  1.000000e+000  0.000000e+000
    outer loop
      vertex -5.750000e+001  1.125000e+002  0.000000e+000
      vertex  5.750000e+001  1.125000e+002  1.800000e+001
      vertex  5.750000e+001  1.125000e+002  0.000000e+000
    endloop
  endfacet
  facet normal  1.000000e+000  -0.000000e+000  0.000000e+000
    outer loop
      vertex  5.750000e+001  1.125000e+002  1.800000e+001
      vertex  5.750000e+001 -1.125000e+002  1.800000e+001
      vertex  5.750000e+001  1.125000e+002  0.000000e+000
    endloop
  endfacet
  facet normal  1.000000e+000  0.000000e+000  0.000000e+000
    outer loop
      vertex  5.750000e+001  1.125000e+002  0.000000e+000
      vertex  5.750000e+001 -1.125000e+002  1.800000e+001
      vertex  5.750000e+001 -1.125000e+002  0.000000e+000
    endloop
  endfacet
  facet normal  0.000000e+000 -1.000000e+000  0.000000e+000
    outer loop
      vertex  5.750000e+001 -1.125000e+002  1.800000e+001
      vertex -5.750000e+001 -1.125000e+002  1.800000e+001
      vertex  5.750000e+001 -1.125000e+002  0.000000e+000
    endloop
  endfacet
  facet normal  0.000000e+000 -1.000000e+000  0.000000e+000
    outer loop
      vertex  5.750000e+001 -1.125000e+002  0.000000e+000
      vertex -5.750000e+001 -1.125000e+002  1.800000e+001
      vertex -5.750000e+001 -1.125000e+002  0.000000e+000
    endloop
  endfacet
endsolid CATIA STL
