solid CATIA STL
  facet normal  0.000000e+000  0.000000e+000  1.000000e+000
    outer loop
      vertex  0.000000e+000  0.000000e+000  1.100000e+001
      vertex  3.000000e+001  0.000000e+000  1.100000e+001
      vertex  1.500000e+001  5.200000e+001  1.100000e+001
    endloop
  endfacet
  facet normal  0.000000e+000  0.000000e+000 -1.000000e+000
    outer loop
      vertex  1.500000e+001  5.200000e+001  0.000000e+000
      vertex  3.000000e+001  0.000000e+000  0.000000e+000
      vertex  0.000000e+000  0.000000e+000  0.000000e+000
    endloop
  endfacet
  facet normal -9.608235e-001  2.771606e-001  0.000000e+000
    outer loop
      vertex  0.000000e+000  0.000000e+000  1.100000e+001
      vertex  1.500000e+001  5.200000e+001  1.100000e+001
      vertex  0.000000e+000  0.000000e+000  0.000000e+000
    endloop
  endfacet
  facet normal -9.608235e-001  2.771606e-001  0.000000e+000
    outer loop
      vertex  0.000000e+000  0.000000e+000  0.000000e+000
      vertex  1.500000e+001  5.200000e+001  1.100000e+001
      vertex  1.500000e+001  5.200000e+001  0.000000e+000
    endloop
  endfacet
  facet normal  9.608235e-001  2.771606e-001  0.000000e+000
    outer loop
      vertex  1.500000e+001  5.200000e+001  1.100000e+001
      vertex  3.000000e+001  0.000000e+000  1.100000e+001
      vertex  1.500000e+001  5.200000e+001  0.000000e+000
    endloop
  endfacet
  facet normal  9.608235e-001  2.771606e-001  0.000000e+000
    outer loop
      vertex  1.500000e+001  5.200000e+001  0.000000e+000
      vertex  3.000000e+001  0.000000e+000  1.100000e+001
      vertex  3.000000e+001  0.000000e+000  0.000000e+000
    endloop
  endfacet
  facet normal  0.000000e+000 -9.999999e-001  0.000000e+000
    outer loop
      vertex  0.000000e+000  0.000000e+000  1.100000e+001
      vertex  0.000000e+000  0.000000e+000  0.000000e+000
      vertex  3.000000e+001  0.000000e+000  1.100000e+001
    endloop
  endfacet
  facet normal  0.000000e+000 -9.999999e-001  -0.000000e+000
    outer loop
      vertex  3.000000e+001  0.000000e+000  1.100000e+001
      vertex  0.000000e+000  0.000000e+000  0.000000e+000
      vertex  3.000000e+001  0.000000e+000  0.000000e+000
    endloop
  endfacet
endsolid CATIA STL
