999
DXF file: C:\Users\sesa63760\Dev\_Creo\CAD\MCADDE0000013_3D-CAD\drw0001_2.dxf
999
Pro/ENGINEER 2019471 by Parametric Technology Corporation
  0
SECTION
  2
HEADER
  9
$ACADVER
  1
AC1024
  9
$DWGCODEPAGE
  3
ANSI_1252
  9
$EXTMAX
 10
67.2068396382
 20
95.0496732026
 30
0.0
  9
$EXTMIN
 10
0.0
 20
0.0
 30
0.0
  9
$LIMMIN
 10
0.0
 20
0.0
  9
$LIMMAX
 10
67.2068396382
 20
95.0496732026
  9
$VIEWCTR
 10
33.6034198191
 20
47.5248366013
  9
$VIEWSIZE
 40
95.0496732026
  9
$CLAYER
  8
0
  9
$LTSCALE
 40
6.1958305495
  9
$CELTYPE
  6
BYLAYER
  9
$DIMSCALE
 40
1.0
  9
$DIMASZ
 40
0.8000814243
  9
$DIMEXO
 40
1.0
  9
$DIMDLI
 40
4.2807556524
  9
$DIMEXE
 40
1.0
  9
$DIMCEN
 40
1.0138631808
  9
$DIMLFAC
 40
1.0
  9
$DIMBLK
  1
_FILLED
  9
$DIMALT
 70
0
  9
$DIMALTF
 40
0.0393700787
  9
$DIMTXT
 40
1.120113994
  9
$DIMTOL
 70
1
  9
$DIMLIM
 70
0
  9
$DIMTFAC
 40
1.0
  9
$DIMTP
 40
0.01
  9
$DIMTM
 40
0.01
  9
$DIMGAP
 40
0.625
  9
$DIMDSEP
 70
46
  9
$AUNITS
 70
0
  9
$PDMODE
 70
3
  9
$PDSIZE
 40
0.3125
  9
$HANDSEED
  5
2A5
  9
$TILEMODE
 70
1
  9
$MEASUREMENT
 70
1
  9
$INSUNITS
 70
4
  0
ENDSEC
  0
SECTION
  2
CLASSES
  0
CLASS
  1
ACDBDICTIONARYWDFLT
  2
AcDbDictionaryWithDefault
  3
AutoCAD 2000
 90
0
 91
1
280
0
281
0
  0
CLASS
  1
ACDBPLACEHOLDER
  2
AcDbPlaceHolder
  3
AutoCAD 2000
 90
0
 91
1
280
0
281
0
  0
CLASS
  1
LAYOUT
  2
AcDbLayout
  3
AutoCAD 2000
 90
0
 91
0
280
0
281
0
  0
ENDSEC
  0
SECTION
  2
TABLES
  0
TABLE
  2
VPORT
  5
8
100
AcDbSymbolTable
 70
2
  0
VPORT
  5
1F4
100
AcDbSymbolTableRecord
100
AcDbViewportTableRecord
  2
*ACTIVE
 70
0
 10
0.0
 20
0.0
 11
1.0
 21
1.0
 12
33.6034198191
 22
47.5248366013
 13
0.0
 23
0.0
 14
1.0
 24
1.0
 15
0.0
 25
0.0
 16
0.0
 26
0.0
 36
1.0
 17
0.0
 27
0.0
 37
0.0
 40
95.0496732026
 41
0.7070707071
 42
50.0
 43
0.0
 44
0.0
 50
0.0
 51
0.0
 71
0
 72
100
 73
1
 74
1
 75
0
 76
0
 77
0
 78
0
  0
ENDTAB
  0
TABLE
  2
LTYPE
  5
5
100
AcDbSymbolTable
 70
6
  0
LTYPE
  5
14
100
AcDbSymbolTableRecord
100
AcDbLinetypeTableRecord
  2
BYBLOCK
 70
0
  3

 72
65
 73
0
 40
0.0
  0
LTYPE
  5
15
100
AcDbSymbolTableRecord
100
AcDbLinetypeTableRecord
  2
BYLAYER
 70
0
  3

 72
65
 73
0
 40
0.0
  0
LTYPE
  5
16
100
AcDbSymbolTableRecord
100
AcDbLinetypeTableRecord
  2
CONTINUOUS
 70
64
  3
Solid line
 72
65
 73
0
 40
0.0
  0
LTYPE
  5
1F5
100
AcDbSymbolTableRecord
100
AcDbLinetypeTableRecord
  2
CENTER
 70
64
  3
____ _ ____ _ ____ _ ____ _ ____ _ ____ _ ____
 72
65
 73
4
 40
0.6
 49
0.375
 74
0
 49
-0.075
 74
0
 49
0.075
 74
0
 49
-0.075
 74
0
  0
LTYPE
  5
1F6
100
AcDbSymbolTableRecord
100
AcDbLinetypeTableRecord
  2
HIDDEN
 70
64
  3
- - - - - - - - - - - - - - - - - - - -
 72
65
 73
2
 40
0.2
 49
0.1
 74
0
 49
-0.1
 74
0
  0
LTYPE
  5
1F7
100
AcDbSymbolTableRecord
100
AcDbLinetypeTableRecord
  2
PHANTOM
 70
64
  3
_____ _ _ _____ _ _ _____ _ _ _____
 72
65
 73
6
 40
0.8
 49
0.45
 74
0
 49
-0.05
 74
0
 49
0.1
 74
0
 49
-0.05
 74
0
 49
0.1
 74
0
 49
-0.05
 74
0
  0
LTYPE
  5
1F8
100
AcDbSymbolTableRecord
100
AcDbLinetypeTableRecord
  2
DOT
 70
64
  3
. . . . . . . . . . . . . . . . . . . .
 72
65
 73
2
 40
0.2
 49
0.1
 74
0
 49
-0.1
 74
0
  0
LTYPE
  5
1F9
100
AcDbSymbolTableRecord
100
AcDbLinetypeTableRecord
  2
DASHED
 70
64
  3
- - - - - - - - - - - - - - - - - - - -
 72
65
 73
2
 40
0.2
 49
0.1
 74
0
 49
-0.1
 74
0
  0
ENDTAB
  0
TABLE
  2
LAYER
  5
2
100
AcDbSymbolTable
 70
36
  0
LAYER
  5
10
100
AcDbSymbolTableRecord
100
AcDbLayerTableRecord
  2
0
 70
0
 62
7
  6
CONTINUOUS
370
-3
390
F
  0
LAYER
  5
1FA
100
AcDbSymbolTableRecord
100
AcDbLayerTableRecord
  2
DEFAULT_1
 70
0
 62
7
  6
CENTER
370
-3
390
F
  0
LAYER
  5
1FB
100
AcDbSymbolTableRecord
100
AcDbLayerTableRecord
  2
DEFAULT_2
 70
0
 62
7
  6
HIDDEN
370
-3
390
F
  0
LAYER
  5
1FC
100
AcDbSymbolTableRecord
100
AcDbLayerTableRecord
  2
DEFAULT_3
 70
0
 62
7
  6
PHANTOM
370
-3
390
F
  0
LAYER
  5
1FD
100
AcDbSymbolTableRecord
100
AcDbLayerTableRecord
  2
00_COMPONENTS
 70
0
 62
7
  6
CONTINUOUS
370
-3
390
F
  0
LAYER
  5
1FE
100
AcDbSymbolTableRecord
100
AcDbLayerTableRecord
  2
01_1_DEFAULT_DATUMS
 70
0
 62
7
  6
CONTINUOUS
370
-3
390
F
  0
LAYER
  5
1FF
100
AcDbSymbolTableRecord
100
AcDbLayerTableRecord
  2
01_PLANES
 70
0
 62
7
  6
CONTINUOUS
370
-3
390
F
  0
LAYER
  5
200
100
AcDbSymbolTableRecord
100
AcDbLayerTableRecord
  2
02_COORD_SYS
 70
0
 62
7
  6
CONTINUOUS
370
-3
390
F
  0
LAYER
  5
201
100
AcDbSymbolTableRecord
100
AcDbLayerTableRecord
  2
03_AXES
 70
0
 62
7
  6
CONTINUOUS
370
-3
390
F
  0
LAYER
  5
202
100
AcDbSymbolTableRecord
100
AcDbLayerTableRecord
  2
04_POINTS
 70
0
 62
7
  6
CONTINUOUS
370
-3
390
F
  0
LAYER
  5
203
100
AcDbSymbolTableRecord
100
AcDbLayerTableRecord
  2
05_CURVES
 70
0
 62
7
  6
CONTINUOUS
370
-3
390
F
  0
LAYER
  5
204
100
AcDbSymbolTableRecord
100
AcDbLayerTableRecord
  2
06_SURFS
 70
0
 62
7
  6
CONTINUOUS
370
-3
390
F
  0
LAYER
  5
205
100
AcDbSymbolTableRecord
100
AcDbLayerTableRecord
  2
07_COSMETICS
 70
0
 62
7
  6
CONTINUOUS
370
-3
390
F
  0
LAYER
  5
206
100
AcDbSymbolTableRecord
100
AcDbLayerTableRecord
  2
10_NOTES
 70
0
 62
7
  6
CONTINUOUS
370
-3
390
F
  0
LAYER
  5
207
100
AcDbSymbolTableRecord
100
AcDbLayerTableRecord
  2
11_NOTES_PUB
 70
0
 62
7
  6
CONTINUOUS
370
-3
390
F
  0
LAYER
  5
208
100
AcDbSymbolTableRecord
100
AcDbLayerTableRecord
  2
13_REF_GTOL
 70
0
 62
7
  6
CONTINUOUS
370
-3
390
F
  0
LAYER
  5
209
100
AcDbSymbolTableRecord
100
AcDbLayerTableRecord
  2
16_MISC
 70
0
 62
7
  6
CONTINUOUS
370
-3
390
F
  0
LAYER
  5
20A
100
AcDbSymbolTableRecord
100
AcDbLayerTableRecord
  2
17_NO_PRINT
 70
0
 62
7
  6
CONTINUOUS
370
-3
390
F
  0
LAYER
  5
20B
100
AcDbSymbolTableRecord
100
AcDbLayerTableRecord
  2
18_DATUM_CAMS_JOINTS
 70
0
 62
7
  6
CONTINUOUS
370
-3
390
F
  0
LAYER
  5
20C
100
AcDbSymbolTableRecord
100
AcDbLayerTableRecord
  2
19_DATUM_FUNCTIONAL
 70
0
 62
7
  6
CONTINUOUS
370
-3
390
F
  0
LAYER
  5
20D
100
AcDbSymbolTableRecord
100
AcDbLayerTableRecord
  2
20_DATUM_KINEMATIC_SCHEME
 70
0
 62
7
  6
CONTINUOUS
370
-3
390
F
  0
ENDTAB
  0
TABLE
  2
STYLE
  5
3
100
AcDbSymbolTable
 70
1
  0
STYLE
  5
11
100
AcDbSymbolTableRecord
100
AcDbTextStyleTableRecord
  2
STANDARD
 70
0
 40
0.0
 41
1.0
 50
0.0
 71
0
 42
0.2
  3
ARIAL.TTF
  4

  0
STYLE
  5
20E
100
AcDbSymbolTableRecord
100
AcDbTextStyleTableRecord
  2
TEXTSTYLE_1
 70
0
 40
0.0
 41
0.8
 50
0.0
 71
0
 42
0.2
  3
gdt
  4

  0
ENDTAB
  0
TABLE
  2
VIEW
  5
6
100
AcDbSymbolTable
 70
0
  0
ENDTAB
  0
TABLE
  2
UCS
  5
7
100
AcDbSymbolTable
 70
0
  0
ENDTAB
  0
TABLE
  2
APPID
  5
9
100
AcDbSymbolTable
 70
1
  0
APPID
  5
20F
100
AcDbSymbolTableRecord
100
AcDbRegAppTableRecord
  2
ACAD
 70
0
  0
ENDTAB
  0
TABLE
  2
BLOCK_RECORD
  5
1
100
AcDbSymbolTable
 70
0
  0
BLOCK_RECORD
  5
210
100
AcDbSymbolTableRecord
100
AcDbBlockTableRecord
  2
*Model_Space
  0
BLOCK_RECORD
  5
211
100
AcDbSymbolTableRecord
100
AcDbBlockTableRecord
  2
*Paper_Space
  0
BLOCK_RECORD
  5
212
100
AcDbSymbolTableRecord
100
AcDbBlockTableRecord
  2
_FILLED
  0
ENDTAB
  0
TABLE
  2
DIMSTYLE
  5
A
100
AcDbSymbolTable
 70
1
100
AcDbDimStyleTable
 71
0
  0
DIMSTYLE
105
213
100
AcDbSymbolTableRecord
100
AcDbDimStyleTableRecord
  2
STANDARD
 70
0
  3

  4

 40
1.0
 41
0.8000814243
 42
1.0
 43
0.38
 44
1.0
 45
0.0
 46
0.0
 47
0.01
 48
0.01
140
1.120113994
141
0.09
142
0.0
143
25.4
144
1.0
145
0.0
146
1.0
147
0.625
 71
1
 72
0
 73
0
 74
0
 75
0
 76
0
 77
1
 78
8
 79
2
170
0
171
1
172
0
173
0
174
0
175
0
176
0
177
0
178
0
270
2
179
2
271
2
272
2
273
2
274
2
275
0
280
0
281
0
282
0
283
1
284
8
285
0
286
0
287
3
288
0
340
11
278
46
341
212
342
212
343
212
344
212
  0
ENDTAB
  0
ENDSEC
  0
SECTION
  2
BLOCKS
  0
BLOCK
  5
20
100
AcDbEntity
  8
0
100
AcDbBlockBegin
  2
*Model_Space
 70
0
 10
0.0
 20
0.0
 30
0.0
  3
*Model_Space
  1

  0
ENDBLK
  5
21
100
AcDbEntity
  8
0
100
AcDbBlockEnd
  0
BLOCK
  5
1C
100
AcDbEntity
  8
0
100
AcDbBlockBegin
  2
*Paper_Space
 70
0
 10
0.0
 20
0.0
 30
0.0
  3
*Paper_Space
  1

  0
ENDBLK
  5
1D
100
AcDbEntity
  8
0
100
AcDbBlockEnd
  0
BLOCK
  5
214
100
AcDbEntity
  8
0
100
AcDbBlockBegin
  2
_FILLED
 70
64
 10
0.0
 20
0.0
  3
_FILLED
  1

  0
SOLID
  5
215
100
AcDbEntity
  8
0
  6
BYBLOCK
 62
0
100
AcDbTrace
 10
0.0
 20
0.0
 11
-1.0
 21
0.25
 12
-1.0
 22
-0.25
 13
-1.0
 23
-0.25
  0
ENDBLK
  5
216
100
AcDbEntity
  8
0
  6
BYBLOCK
 62
0
100
AcDbBlockEnd
  0
ENDSEC
  0
SECTION
  2
ENTITIES
  0
LWPOLYLINE
  5
217
100
AcDbEntity
  8
0
100
AcDbPolyline
 62
7
  6
BYLAYER
 90
4
 70
0
 10
30.6858311937
 20
15.7819202881
 10
31.073659042
 20
15.8508531606
 10
31.5931585553
 20
16.242052928
 10
31.8108312411
 20
16.9069307848
  0
LWPOLYLINE
  5
218
100
AcDbEntity
  8
0
100
AcDbPolyline
 62
7
  6
BYLAYER
 90
4
 70
0
 10
37.4858311937
 20
16.3624849868
 10
37.8687437557
 20
16.4296239866
 10
38.4008891752
 20
16.8333202207
 10
38.6108312657
 20
17.4876099403
  0
LWPOLYLINE
  5
219
100
AcDbEntity
  8
0
100
AcDbPolyline
 62
7
  6
BYLAYER
 90
4
 70
0
 10
32.9858311938
 20
16.0746555642
 10
33.3677976201
 20
16.1414528247
 10
33.9002253161
 20
16.5445625154
 10
34.110831534
 20
17.1996919226
  0
LWPOLYLINE
  5
21A
100
AcDbEntity
  8
0
100
AcDbPolyline
 62
7
  6
BYLAYER
 90
4
 70
0
 10
35.2858311937
 20
16.0899808589
 10
35.6672933388
 20
16.1566294882
 10
36.1896966554
 20
16.5460826644
 10
36.4108312093
 20
17.2149698638
  0
LINE
  5
21B
100
AcDbEntity
  8
0
100
AcDbLine
 62
7
  6
BYLAYER
 10
7.3687792962
 20
59.3095018731
 11
7.3687792962
 21
78.4095018731
  0
LINE
  5
21C
100
AcDbEntity
  8
0
100
AcDbLine
 62
7
  6
BYLAYER
 10
29.4792893831
 20
28.0017123277
 11
29.5608243216
 21
28.0025418499
  0
LINE
  5
21D
100
AcDbEntity
  8
0
100
AcDbLine
 62
7
  6
BYLAYER
 10
23.2687792962
 20
26.6768721809
 11
25.0884869638
 21
26.6768721809
  0
LINE
  5
21E
100
AcDbEntity
  8
0
100
AcDbLine
 62
7
  6
BYLAYER
 10
25.1199284541
 20
26.6768721809
 11
26.468803055
 21
26.6768721809
  0
LINE
  5
21F
100
AcDbEntity
  8
0
100
AcDbLine
 62
7
  6
BYLAYER
 10
34.110831421
 20
26.6768721809
 11
34.1608316946
 21
26.6768721809
  0
LINE
  5
220
100
AcDbEntity
  8
0
100
AcDbLine
 62
7
  6
BYLAYER
 10
45.2690701418
 20
26.6768721809
 11
47.0887778094
 21
26.6768721809
  0
LINE
  5
221
100
AcDbEntity
  8
0
100
AcDbLine
 62
7
  6
BYLAYER
 10
47.1202192997
 20
26.6768721809
 11
48.4690939007
 21
26.6768721809
  0
LINE
  5
222
100
AcDbEntity
  8
0
100
AcDbLine
 62
7
  6
BYLAYER
 10
53.8190701418
 20
26.6768721809
 11
55.6387778094
 21
26.6768721809
  0
LINE
  5
223
100
AcDbEntity
  8
0
100
AcDbLine
 62
7
  6
BYLAYER
 10
55.6702192997
 20
26.6768721809
 11
57.0190939007
 21
26.6768721809
  0
LINE
  5
224
100
AcDbEntity
  8
0
100
AcDbLine
 62
7
  6
BYLAYER
 10
24.8580016021
 20
26.8768693763
 11
29.5608292034
 21
26.8768687622
  0
LINE
  5
225
100
AcDbEntity
  8
0
100
AcDbLine
 62
7
  6
BYLAYER
 10
34.1108314415
 20
26.8768690062
 11
34.1608316893
 21
26.876868983
  0
LINE
  5
226
100
AcDbEntity
  8
0
100
AcDbLine
 62
7
  6
BYLAYER
 10
38.6108317521
 20
26.8768615025
 11
55.4219520567
 21
26.8768691332
  0
LINE
  5
227
100
AcDbEntity
  8
0
100
AcDbLine
 62
7
  6
BYLAYER
 10
22.2687792962
 20
27.6768721809
 11
23.5885154826
 21
27.6768721809
  0
LINE
  5
228
100
AcDbEntity
  8
0
100
AcDbLine
 62
7
  6
BYLAYER
 10
56.6387587968
 20
27.6768721809
 11
58.0190958654
 21
27.6768721809
  0
LINE
  5
229
100
AcDbEntity
  8
0
100
AcDbLine
 62
7
  6
BYLAYER
 10
23.7326766321
 20
28.0016118224
 11
29.4792893831
 21
28.0017123277
  0
LINE
  5
22A
100
AcDbEntity
  8
0
100
AcDbLine
 62
7
  6
BYLAYER
 10
38.6001621452
 20
28.0018594871
 11
56.5471576798
 21
28.0018594872
  0
LINE
  5
22B
100
AcDbEntity
  8
0
100
AcDbLine
 62
7
  6
BYLAYER
 10
34.1608315795
 20
28.0018769043
 11
34.1093074839
 21
28.0018769043
  0
LINE
  5
22C
100
AcDbEntity
  8
0
100
AcDbLine
 62
7
  6
BYLAYER
 10
58.0190958654
 20
28.3768721809
 11
56.6387587968
 21
28.376872181
  0
LINE
  5
22D
100
AcDbEntity
  8
0
100
AcDbLine
 62
7
  6
BYLAYER
 10
23.5885154826
 20
28.3768721809
 11
22.2687792962
 21
28.3768721809
  0
LINE
  5
22E
100
AcDbEntity
  8
0
100
AcDbLine
 62
7
  6
BYLAYER
 10
31.8243087736
 20
28.0035976873
 11
31.810904031
 21
28.005923451
  0
LINE
  5
22F
100
AcDbEntity
  8
0
100
AcDbLine
 62
7
  6
BYLAYER
 10
34.1608311931
 20
29.1268689397
 11
34.1108234866
 21
29.1268689207
  0
LINE
  5
230
100
AcDbEntity
  8
0
100
AcDbLine
 62
7
  6
BYLAYER
 10
29.5608223863
 20
29.1268690698
 11
24.8580010684
 21
29.1268684577
  0
LINE
  5
231
100
AcDbEntity
  8
0
100
AcDbLine
 62
7
  6
BYLAYER
 10
55.4219516498
 20
29.1268687005
 11
38.6108318371
 21
29.1268740841
  0
LINE
  5
232
100
AcDbEntity
  8
0
100
AcDbLine
 62
7
  6
BYLAYER
 10
57.0190939007
 20
29.376872181
 11
55.6702192997
 21
29.376872181
  0
LINE
  5
233
100
AcDbEntity
  8
0
100
AcDbLine
 62
7
  6
BYLAYER
 10
48.4690939007
 20
29.376872181
 11
47.1202192997
 21
29.376872181
  0
LINE
  5
234
100
AcDbEntity
  8
0
100
AcDbLine
 62
7
  6
BYLAYER
 10
34.1608309415
 20
29.376872181
 11
34.1108239684
 21
29.376872181
  0
LINE
  5
235
100
AcDbEntity
  8
0
100
AcDbLine
 62
7
  6
BYLAYER
 10
26.468803055
 20
29.376872181
 11
25.1199284541
 21
29.376872181
  0
LINE
  5
236
100
AcDbEntity
  8
0
100
AcDbLine
 62
7
  6
BYLAYER
 10
23.2687792962
 20
29.376872181
 11
25.0884869637
 21
29.376872181
  0
LINE
  5
237
100
AcDbEntity
  8
0
100
AcDbLine
 62
7
  6
BYLAYER
 10
45.2690701418
 20
29.376872181
 11
47.0887778093
 21
29.376872181
  0
LINE
  5
238
100
AcDbEntity
  8
0
100
AcDbLine
 62
7
  6
BYLAYER
 10
53.8190701418
 20
29.376872181
 11
55.6387778093
 21
29.376872181
  0
LINE
  5
239
100
AcDbEntity
  8
0
100
AcDbLine
 62
7
  6
BYLAYER
 10
18.0687792962
 20
68.7627203961
 11
18.0687792962
 21
59.3095018731
  0
LWPOLYLINE
  5
23A
100
AcDbEntity
  8
0
100
AcDbPolyline
 62
7
  6
BYLAYER
 90
4
 70
0
 10
29.5608311465
 20
16.9069307861
 10
29.7719491558
 20
16.2511160451
 10
30.2824592807
 20
15.8566999696
 10
30.6858311938
 20
15.7819202881
  0
LWPOLYLINE
  5
23B
100
AcDbEntity
  8
0
100
AcDbPolyline
 62
7
  6
BYLAYER
 90
4
 70
0
 10
23.7326766321
 20
28.0016118224
 10
23.8176739499
 20
27.5739110775
 10
24.2268740269
 20
27.0707792724
 10
24.8580016021
 20
26.8768693763
  0
LINE
  5
23C
100
AcDbEntity
  8
0
100
AcDbLine
 62
7
  6
BYLAYER
 10
22.2687792962
 20
28.3768721809
 11
22.2687792962
 21
27.6768721809
  0
LWPOLYLINE
  5
23D
100
AcDbEntity
  8
0
100
AcDbPolyline
 62
7
  6
BYLAYER
 90
4
 70
0
 10
31.860830856
 20
17.1996919556
 10
32.072438786
 20
16.5431629604
 10
32.5837437908
 20
16.1489412161
 10
32.9858311938
 20
16.0746555642
  0
LINE
  5
23E
100
AcDbEntity
  8
0
100
AcDbLine
 62
7
  6
BYLAYER
 10
23.5885154826
 20
28.376872181
 11
23.5885154826
 21
27.6768721809
  0
LINE
  5
23F
100
AcDbEntity
  8
0
100
AcDbLine
 62
7
  6
BYLAYER
 10
24.0687792962
 20
68.7627203961
 11
24.0687792962
 21
59.3095018731
  0
LINE
  5
240
100
AcDbEntity
  8
0
100
AcDbLine
 62
7
  6
BYLAYER
 10
26.0687792962
 20
69.0016398151
 11
26.0687792962
 21
59.3095018731
  0
LWPOLYLINE
  5
241
100
AcDbEntity
  8
0
100
AcDbPolyline
 62
7
  6
BYLAYER
 90
4
 70
0
 10
34.1608311782
 20
17.2149698632
 10
34.375404798
 20
16.5551046294
 10
34.8887529582
 20
16.1623824417
 10
35.2858311937
 20
16.0899808589
  0
LWPOLYLINE
  5
242
100
AcDbEntity
  8
0
100
AcDbPolyline
 62
7
  6
BYLAYER
 90
4
 70
0
 10
36.4450585594
 20
17.2259891715
 10
36.5720526329
 20
16.8315296727
 10
37.0829321475
 20
16.4370818496
 10
37.4858311937
 20
16.3624849868
  0
LINE
  5
243
100
AcDbEntity
  8
0
100
AcDbLine
 62
7
  6
BYLAYER
 10
31.8243087736
 20
28.0035976872
 11
31.795893358
 21
28.1451966391
  0
LINE
  5
244
100
AcDbEntity
  8
0
100
AcDbLine
 62
7
  6
BYLAYER
 10
31.8608281993
 20
27.9684965913
 11
31.860839156
 21
27.9673117886
  0
LINE
  5
245
100
AcDbEntity
  8
0
100
AcDbLine
 62
7
  6
BYLAYER
 10
29.5187792962
 20
64.0095018731
 11
29.5187792962
 21
64.1095049665
  0
LINE
  5
246
100
AcDbEntity
  8
0
100
AcDbLine
 62
7
  6
BYLAYER
 10
29.5608323616
 20
64.750074938
 11
29.5608311465
 21
16.9069307861
  0
LINE
  5
247
100
AcDbEntity
  8
0
100
AcDbLine
 62
7
  6
BYLAYER
 10
30.6858311938
 20
65.8750717893
 11
30.6858311938
 21
15.7819202881
  0
LINE
  5
248
100
AcDbEntity
  8
0
100
AcDbLine
 62
7
  6
BYLAYER
 10
29.5608242846
 20
28.0181114094
 11
29.560802601
 21
28.0161848066
  0
LWPOLYLINE
  5
249
100
AcDbEntity
  8
0
100
AcDbPolyline
 62
7
  6
BYLAYER
 90
3
 70
0
 10
34.1291541402
 20
27.7908286236
 10
34.1598289756
 20
27.6681422036
 10
34.1608313388
 20
27.6654331237
  0
LINE
  5
24A
100
AcDbEntity
  8
0
100
AcDbLine
 62
7
  6
BYLAYER
 10
34.1118203596
 20
27.924797698
 11
34.1291541402
 21
27.7908286236
  0
LINE
  5
24B
100
AcDbEntity
  8
0
100
AcDbLine
 62
7
  6
BYLAYER
 10
31.8109024333
 20
28.0078044082
 11
31.8108381028
 21
28.0177592908
  0
LINE
  5
24C
100
AcDbEntity
  8
0
100
AcDbLine
 62
7
  6
BYLAYER
 10
31.8607805572
 20
27.9798624936
 11
31.8608281993
 21
27.9684965913
  0
LINE
  5
24D
100
AcDbEntity
  8
0
100
AcDbLine
 62
7
  6
BYLAYER
 10
31.8108312411
 20
16.9069307848
 11
31.8108300286
 21
64.7500749469
  0
LINE
  5
24E
100
AcDbEntity
  8
0
100
AcDbLine
 62
7
  6
BYLAYER
 10
31.8608315621
 20
65.0387331261
 11
31.860830856
 21
17.1996919556
  0
LINE
  5
24F
100
AcDbEntity
  8
0
100
AcDbLine
 62
7
  6
BYLAYER
 10
32.9858311937
 20
66.1637032212
 11
32.9858311938
 21
16.0746555642
  0
LINE
  5
250
100
AcDbEntity
  8
0
100
AcDbLine
 62
7
  6
BYLAYER
 10
34.110831534
 20
17.1996919226
 11
34.110830828
 21
65.038733184
  0
LINE
  5
251
100
AcDbEntity
  8
0
100
AcDbLine
 62
7
  6
BYLAYER
 10
34.1608311971
 20
65.1364498447
 11
34.1608311782
 21
17.2149698632
  0
LINE
  5
252
100
AcDbEntity
  8
0
100
AcDbLine
 62
7
  6
BYLAYER
 10
34.1108239712
 20
27.9672336684
 11
34.1108639073
 21
27.9737100066
  0
LINE
  5
253
100
AcDbEntity
  8
0
100
AcDbLine
 62
7
  6
BYLAYER
 10
35.2858311937
 20
66.2614493212
 11
35.2858311937
 21
16.0899808589
  0
LINE
  5
254
100
AcDbEntity
  8
0
100
AcDbLine
 62
7
  6
BYLAYER
 10
31.7927937479
 20
27.8419593036
 11
31.8243088033
 21
28.0033533389
  0
LINE
  5
255
100
AcDbEntity
  8
0
100
AcDbLine
 62
7
  6
BYLAYER
 10
31.8108300286
 20
64.7500749469
 11
31.7475262352
 21
65.1221488579
  0
LINE
  5
256
100
AcDbEntity
  8
0
100
AcDbLine
 62
7
  6
BYLAYER
 10
37.4858311937
 20
66.2838253403
 11
37.4858311937
 21
16.3624849868
  0
LINE
  5
257
100
AcDbEntity
  8
0
100
AcDbLine
 62
7
  6
BYLAYER
 10
38.6108312657
 20
17.4876099403
 11
38.6108311996
 21
65.1588212198
  0
LINE
  5
258
100
AcDbEntity
  8
0
100
AcDbLine
 62
7
  6
BYLAYER
 10
38.6187792962
 20
64.1095018731
 11
38.6187792962
 21
64.0095018731
  0
LINE
  5
259
100
AcDbEntity
  8
0
100
AcDbLine
 62
7
  6
BYLAYER
 10
38.6108276905
 20
27.9837710121
 11
38.6108392918
 21
27.9846429171
  0
LINE
  5
25A
100
AcDbEntity
  8
0
100
AcDbLine
 62
7
  6
BYLAYER
 10
34.160831693
 20
28.198539318
 11
34.1155405521
 21
28.0261125487
  0
LWPOLYLINE
  5
25B
100
AcDbEntity
  8
0
100
AcDbPolyline
 62
7
  6
BYLAYER
 90
4
 70
0
 10
34.110830828
 20
65.038733184
 10
33.9128906904
 20
65.6757064849
 10
33.3610251883
 20
66.099326437
 10
32.9858311937
 20
66.1637032212
  0
LINE
  5
25C
100
AcDbEntity
  8
0
100
AcDbLine
 62
7
  6
BYLAYER
 10
42.0687792962
 20
69.0016398151
 11
42.0687792962
 21
59.3095018731
  0
LWPOLYLINE
  5
25D
100
AcDbEntity
  8
0
100
AcDbPolyline
 62
7
  6
BYLAYER
 90
5
 70
0
 10
31.7475262352
 20
65.1221488579
 10
31.5372052077
 20
65.4854204653
 10
31.3748340149
 20
65.6389914508
 10
30.9585816082
 20
65.8414624272
 10
30.6858311937
 20
65.8750717893
  0
LWPOLYLINE
  5
25E
100
AcDbEntity
  8
0
100
AcDbPolyline
 62
7
  6
BYLAYER
 90
4
 70
0
 10
36.399237603
 20
65.1715183238
 10
36.1896953237
 20
65.8053453478
 10
35.6672908472
 20
66.1948010077
 10
35.2858311937
 20
66.2614493212
  0
LINE
  5
25F
100
AcDbEntity
  8
0
100
AcDbLine
 62
7
  6
BYLAYER
 10
44.0687792962
 20
68.7627203961
 11
44.0687792962
 21
59.3095018731
  0
LWPOLYLINE
  5
260
100
AcDbEntity
  8
0
100
AcDbPolyline
 62
7
  6
BYLAYER
 90
4
 70
0
 10
38.6108311996
 20
65.1588212198
 10
38.392775843
 20
65.8242212462
 10
37.8727718046
 20
66.2152187453
 10
37.4858311938
 20
66.2838253403
  0
LINE
  5
261
100
AcDbEntity
  8
0
100
AcDbLine
 62
7
  6
BYLAYER
 10
34.160831119
 20
59.3095018731
 11
34.1108312488
 21
59.3095018731
  0
LINE
  5
262
100
AcDbEntity
  8
0
100
AcDbLine
 62
7
  6
BYLAYER
 10
31.8608311386
 20
59.3095018731
 11
31.8108310501
 21
59.3095018731
  0
LINE
  5
263
100
AcDbEntity
  8
0
100
AcDbLine
 62
7
  6
BYLAYER
 10
29.5608313378
 20
59.3095018731
 11
7.3687792962
 21
59.3095018731
  0
LINE
  5
264
100
AcDbEntity
  8
0
100
AcDbLine
 62
7
  6
BYLAYER
 10
38.6108311412
 20
59.3095018731
 11
60.7687792962
 21
59.3095018731
  0
LINE
  5
265
100
AcDbEntity
  8
0
100
AcDbLine
 62
7
  6
BYLAYER
 10
50.0687792962
 20
68.7627203961
 11
50.0687792962
 21
59.3095018731
  0
LWPOLYLINE
  5
266
100
AcDbEntity
  8
0
100
AcDbPolyline
 62
7
  6
BYLAYER
 90
4
 70
0
 10
24.8580010684
 20
29.1268684577
 10
24.2214403504
 20
28.9292512954
 10
23.8134225236
 20
28.4194287202
 10
23.7326766283
 20
28.0018685339
  0
LINE
  5
267
100
AcDbEntity
  8
0
100
AcDbLine
 62
7
  6
BYLAYER
 10
34.1608312809
 20
62.8095018731
 11
34.1108320823
 21
62.8095018731
  0
LINE
  5
268
100
AcDbEntity
  8
0
100
AcDbLine
 62
7
  6
BYLAYER
 10
31.8608303037
 20
62.8095018731
 11
31.8108312588
 21
62.8095018731
  0
LINE
  5
269
100
AcDbEntity
  8
0
100
AcDbLine
 62
7
  6
BYLAYER
 10
53.5187792962
 20
78.9095018731
 11
53.5187792962
 21
78.4095018731
  0
LWPOLYLINE
  5
26A
100
AcDbEntity
  8
0
100
AcDbPolyline
 62
7
  6
BYLAYER
 90
4
 70
0
 10
30.6858311938
 20
65.8750717893
 10
30.2823064336
 20
65.8002339812
 10
29.7718516896
 20
65.4057439658
 10
29.5608323616
 20
64.750074938
  0
LWPOLYLINE
  5
26B
100
AcDbEntity
  8
0
100
AcDbPolyline
 62
7
  6
BYLAYER
 90
4
 70
0
 10
37.4858311937
 20
66.2838253403
 10
37.0832546387
 20
66.2093521537
 10
36.5722847755
 20
65.8151034654
 10
36.3818591301
 20
65.2240850219
  0
LWPOLYLINE
  5
26C
100
AcDbEntity
  8
0
100
AcDbPolyline
 62
7
  6
BYLAYER
 90
4
 70
0
 10
32.9858311937
 20
66.1637032212
 10
32.5838250646
 20
66.0894491142
 10
32.0725025099
 20
65.6952869686
 10
31.8608315621
 20
65.0387331261
  0
LWPOLYLINE
  5
26D
100
AcDbEntity
  8
0
100
AcDbPolyline
 62
7
  6
BYLAYER
 90
4
 70
0
 10
35.2858311937
 20
66.2614493212
 10
34.8887535239
 20
66.1890473206
 10
34.3754046234
 20
65.7963212487
 10
34.1608311971
 20
65.1364498447
  0
LINE
  5
26E
100
AcDbEntity
  8
0
100
AcDbLine
 62
7
  6
BYLAYER
 10
31.6390556643
 20
65.3095018731
 11
31.9481265768
 21
65.3095018731
  0
LINE
  5
26F
100
AcDbEntity
  8
0
100
AcDbLine
 62
7
  6
BYLAYER
 10
34.026689167
 20
65.3095018731
 11
34.2171033229
 21
65.3095018731
  0
LWPOLYLINE
  5
270
100
AcDbEntity
  8
0
100
AcDbPolyline
 62
7
  6
BYLAYER
 90
4
 70
0
 10
56.5471576798
 20
28.0018783455
 10
56.4634380627
 20
28.4276812118
 10
56.0492450698
 20
28.9358761953
 10
55.4219516498
 20
29.1268687005
  0
LINE
  5
271
100
AcDbEntity
  8
0
100
AcDbLine
 62
7
  6
BYLAYER
 10
60.7687792962
 20
68.6502877283
 11
50.0687792962
 21
68.6502877283
  0
LINE
  5
272
100
AcDbEntity
  8
0
100
AcDbLine
 62
7
  6
BYLAYER
 10
44.0687792962
 20
68.6502877283
 11
42.0687792962
 21
68.6502877283
  0
LINE
  5
273
100
AcDbEntity
  8
0
100
AcDbLine
 62
7
  6
BYLAYER
 10
26.0687792962
 20
68.6502877283
 11
24.0687792962
 21
68.6502877283
  0
LINE
  5
274
100
AcDbEntity
  8
0
100
AcDbLine
 62
7
  6
BYLAYER
 10
18.0687792962
 20
68.6502877283
 11
7.3687792962
 21
68.6502877283
  0
LINE
  5
275
100
AcDbEntity
  8
0
100
AcDbLine
 62
7
  6
BYLAYER
 10
50.0687792962
 20
68.7627203961
 11
44.0687792962
 21
68.7627203961
  0
LINE
  5
276
100
AcDbEntity
  8
0
100
AcDbLine
 62
7
  6
BYLAYER
 10
24.0687792962
 20
68.7627203961
 11
18.0687792962
 21
68.7627203961
  0
LINE
  5
277
100
AcDbEntity
  8
0
100
AcDbLine
 62
7
  6
BYLAYER
 10
60.7687792962
 20
69.0016398151
 11
42.0687792962
 21
69.0016398151
  0
LINE
  5
278
100
AcDbEntity
  8
0
100
AcDbLine
 62
7
  6
BYLAYER
 10
26.0687792962
 20
69.0016398151
 11
7.3687792962
 21
69.0016398151
  0
LINE
  5
279
100
AcDbEntity
  8
0
100
AcDbLine
 62
7
  6
BYLAYER
 10
56.6387587968
 20
28.376872181
 11
56.6387587968
 21
27.6768721808
  0
LINE
  5
27A
100
AcDbEntity
  8
0
100
AcDbLine
 62
7
  6
BYLAYER
 10
56.6690624544
 20
28.3768721809
 11
56.6690624544
 21
27.6768721809
  0
LINE
  5
27B
100
AcDbEntity
  8
0
100
AcDbLine
 62
7
  6
BYLAYER
 10
57.0187792962
 20
78.4095018731
 11
57.0187792962
 21
78.9095018731
  0
LINE
  5
27C
100
AcDbEntity
  8
0
100
AcDbLine
 62
7
  6
BYLAYER
 10
58.0190958654
 20
28.3768721809
 11
58.0190958654
 21
27.6768721809
  0
LINE
  5
27D
100
AcDbEntity
  8
0
100
AcDbLine
 62
7
  6
BYLAYER
 10
60.7687792962
 20
59.3095018731
 11
60.7687792962
 21
78.4095018731
  0
LWPOLYLINE
  5
27E
100
AcDbEntity
  8
0
100
AcDbPolyline
 62
7
  6
BYLAYER
 90
4
 70
0
 10
55.4219520567
 20
26.8768691332
 10
56.1490138228
 20
27.1432310264
 10
56.4005285682
 20
27.4465320373
 10
56.5471576798
 20
28.0018594872
  0
LINE
  5
27F
100
AcDbEntity
  8
0
100
AcDbLine
 62
7
  6
BYLAYER
 10
60.7687792962
 20
78.4095018731
 11
7.3687792962
 21
78.4095018731
  0
LINE
  5
280
100
AcDbEntity
  8
0
100
AcDbLine
 62
7
  6
BYLAYER
 10
53.5187792962
 20
78.9095018731
 11
57.0187792962
 21
78.9095018731
  0
ARC
  5
281
100
AcDbEntity
  8
0
100
AcDbCircle
 62
7
  6
BYLAYER
 10
30.7187792962
 20
64.1095018731
 40
1.2
100
AcDbArc
 50
172.0800033633
 51
179.9998523044
  0
ARC
  5
282
100
AcDbEntity
  8
0
100
AcDbCircle
 62
7
  6
BYLAYER
 10
30.7187792962
 20
64.0095018731
 40
1.2
100
AcDbArc
 50
179.9999999986
 51
187.9200749597
  0
ARC
  5
283
100
AcDbEntity
  8
0
100
AcDbCircle
 62
7
  6
BYLAYER
 10
37.4187792962
 20
64.0095018731
 40
1.2
100
AcDbArc
 50
358.5304546062
 51
360.0
  0
ARC
  5
284
100
AcDbEntity
  8
0
100
AcDbCircle
 62
7
  6
BYLAYER
 10
37.4187792962
 20
64.1095018731
 40
1.2
100
AcDbArc
 50
0.0
 51
1.514474158
  0
ARC
  5
285
100
AcDbEntity
  8
0
100
AcDbCircle
 62
7
  6
BYLAYER
 10
24.5885237232
 20
28.3768639407
 40
1.0000082406
100
AcDbArc
 50
90.0015614737
 51
179.9995278705
  0
ARC
  5
286
100
AcDbEntity
  8
0
100
AcDbCircle
 62
7
  6
BYLAYER
 10
24.5885237231
 20
27.6768804212
 40
1.0000082406
100
AcDbArc
 50
180.0004721291
 51
269.9984385245
  0
ARC
  5
287
100
AcDbEntity
  8
0
100
AcDbCircle
 62
7
  6
BYLAYER
 10
55.6387505563
 20
28.3768639407
 40
1.0000082406
100
AcDbArc
 50
0.0004721297
 51
89.9984385273
  0
ARC
  5
288
100
AcDbEntity
  8
0
100
AcDbCircle
 62
7
  6
BYLAYER
 10
55.6387505563
 20
27.6768804211
 40
1.0000082406
100
AcDbArc
 50
270.0015614746
 51
359.9995278669
  0
ARC
  5
289
100
AcDbEntity
  8
0
100
AcDbCircle
 62
7
  6
BYLAYER
 10
23.2687792962
 20
27.6768721809
 40
1.0
100
AcDbArc
 50
180.0
 51
270.0
  0
ARC
  5
28A
100
AcDbEntity
  8
0
100
AcDbCircle
 62
7
  6
BYLAYER
 10
26.4688048645
 20
28.3768721809
 40
1.0
100
AcDbArc
 50
50.4171501145
 51
90.0000144156
  0
ARC
  5
28B
100
AcDbEntity
  8
0
100
AcDbCircle
 62
7
  6
BYLAYER
 10
26.4688048644
 20
27.6768721809
 40
1.0
100
AcDbArc
 50
269.9999855918
 51
304.2808254375
  0
ARC
  5
28C
100
AcDbEntity
  8
0
100
AcDbCircle
 62
7
  6
BYLAYER
 10
23.2687792962
 20
28.3768721809
 40
1.0
100
AcDbArc
 50
90.0
 51
180.0
  0
ARC
  5
28D
100
AcDbEntity
  8
0
100
AcDbCircle
 62
7
  6
BYLAYER
 10
45.2690701418
 20
27.6768721809
 40
1.0
100
AcDbArc
 50
235.7206109493
 51
269.9999999997
  0
ARC
  5
28E
100
AcDbEntity
  8
0
100
AcDbCircle
 62
7
  6
BYLAYER
 10
48.4690957101
 20
28.3768721809
 40
1.0
100
AcDbArc
 50
50.4171081599
 51
90.0000144156
  0
ARC
  5
28F
100
AcDbEntity
  8
0
100
AcDbCircle
 62
7
  6
BYLAYER
 10
48.46909571
 20
27.6768721809
 40
1.0
100
AcDbArc
 50
269.9999855918
 51
304.2808186819
  0
ARC
  5
290
100
AcDbEntity
  8
0
100
AcDbCircle
 62
7
  6
BYLAYER
 10
45.2690701418
 20
28.3768721809
 40
1.0
100
AcDbArc
 50
90.0000000002
 51
129.5812032938
  0
ARC
  5
291
100
AcDbEntity
  8
0
100
AcDbCircle
 62
7
  6
BYLAYER
 10
53.8190701418
 20
27.6768721809
 40
1.0
100
AcDbArc
 50
235.7194009099
 51
269.9999999997
  0
ARC
  5
292
100
AcDbEntity
  8
0
100
AcDbCircle
 62
7
  6
BYLAYER
 10
57.0190957101
 20
28.3768721809
 40
1.0
100
AcDbArc
 50
0.0
 51
89.9999911039
  0
ARC
  5
293
100
AcDbEntity
  8
0
100
AcDbCircle
 62
7
  6
BYLAYER
 10
57.01909571
 20
27.6768721809
 40
1.0
100
AcDbArc
 50
269.9999855918
 51
360.0
  0
ARC
  5
294
100
AcDbEntity
  8
0
100
AcDbCircle
 62
7
  6
BYLAYER
 10
53.8190701418
 20
28.3768721809
 40
1.0
100
AcDbArc
 50
90.0000000002
 51
129.5821625993
  0
ARC
  5
295
100
AcDbEntity
  8
0
100
AcDbCircle
 62
7
  6
BYLAYER
 10
46.5887922725
 20
28.376909242
 40
0.9999594912
100
AcDbArc
 50
90.000284017
 51
131.1489531442
  0
ARC
  5
296
100
AcDbEntity
  8
0
100
AcDbCircle
 62
7
  6
BYLAYER
 10
47.0887728537
 20
28.3769092486
 40
0.9999594847
100
AcDbArc
 50
48.8502762913
 51
89.9997160545
  0
ARC
  5
297
100
AcDbEntity
  8
0
100
AcDbCircle
 62
7
  6
BYLAYER
 10
55.1387922712
 20
28.3769092491
 40
0.9999594841
100
AcDbArc
 50
90.0002839404
 51
131.1497923374
  0
ARC
  5
298
100
AcDbEntity
  8
0
100
AcDbCircle
 62
7
  6
BYLAYER
 10
25.0884820085
 20
28.3769092504
 40
0.9999594829
100
AcDbArc
 50
48.8500556564
 51
89.9997160746
  0
ARC
  5
299
100
AcDbEntity
  8
0
100
AcDbCircle
 62
7
  6
BYLAYER
 10
47.0887896635
 20
27.6767920025
 40
0.9999145564
100
AcDbArc
 50
269.9993207517
 51
306.2060773778
  0
ARC
  5
29A
100
AcDbEntity
  8
0
100
AcDbCircle
 62
7
  6
BYLAYER
 10
25.088498822
 20
27.6767919871
 40
0.9999145407
100
AcDbArc
 50
269.999320518
 51
306.2055696468
  0
ARC
  5
29B
100
AcDbEntity
  8
0
100
AcDbCircle
 62
7
  6
BYLAYER
 10
55.1387754593
 20
27.676791982
 40
0.9999145365
100
AcDbArc
 50
233.7945663057
 51
270.0006793734
  0
ARC
  5
29C
100
AcDbEntity
  8
0
100
AcDbCircle
 62
7
  6
BYLAYER
 10
46.5887754535
 20
27.67679196
 40
0.9999145142
100
AcDbArc
 50
233.7952902488
 51
270.0006797068
  0
ARC
  5
29D
100
AcDbEntity
  8
0
100
AcDbCircle
 62
7
  6
BYLAYER
 10
55.6695650251
 20
27.6762375635
 40
0.9994304402
100
AcDbArc
 50
270.0375109743
 51
0.0363791799
  0
ARC
  5
29E
100
AcDbEntity
  8
0
100
AcDbCircle
 62
7
  6
BYLAYER
 10
55.6695654792
 20
28.377507395
 40
0.9994298539
100
AcDbArc
 50
359.9635866056
 51
89.9625150405
  0
ARC
  5
29F
100
AcDbEntity
  8
0
100
AcDbCircle
 62
7
  6
BYLAYER
 10
25.1198515381
 20
28.3787208397
 40
0.9981498374
100
AcDbArc
 50
48.8029560145
 51
89.9955848787
  0
ARC
  5
2A0
100
AcDbEntity
  8
0
100
AcDbCircle
 62
7
  6
BYLAYER
 10
47.1201423847
 20
28.3787208425
 40
0.9981498345
100
AcDbArc
 50
48.8031623359
 51
89.9955849338
  0
ARC
  5
2A1
100
AcDbEntity
  8
0
100
AcDbCircle
 62
7
  6
BYLAYER
 10
47.1201829798
 20
27.674878655
 40
0.9980025472
100
AcDbArc
 50
270.0020851322
 51
306.1992385371
  0
ARC
  5
2A2
100
AcDbEntity
  8
0
100
AcDbCircle
 62
7
  6
BYLAYER
 10
25.11989214
 20
27.6748786314
 40
0.9980025234
100
AcDbArc
 50
270.0020847997
 51
306.1987481561
  0
ENDSEC
  0
SECTION
  2
OBJECTS
  0
DICTIONARY
  5
C
100
AcDbDictionary
280
0
281
1
  3
ACAD_GROUP
350
D
  3
ACAD_MLINESTYLE
350
17
  3
ACAD_LAYOUT
350
1A
  3
ACAD_PLOTSETTINGS
350
19
  3
ACAD_PLOTSTYLENAME
350
E
  0
DICTIONARY
  5
D
102
{ACAD_REACTORS
330
C
102
}
100
AcDbDictionary
280
0
281
1
  0
ACDBDICTIONARYWDFLT
  5
E
102
{ACAD_REACTORS
330
C
102
}
100
AcDbDictionary
281
1
  3
Normal
350
F
100
AcDbDictionaryWithDefault
340
F
  0
DICTIONARY
  5
17
102
{ACAD_REACTORS
330
C
102
}
100
AcDbDictionary
280
0
281
1
  3
Standard
350
18
  0
DICTIONARY
  5
19
102
{ACAD_REACTORS
330
C
102
}
100
AcDbDictionary
281
1
  0
DICTIONARY
  5
1A
102
{ACAD_REACTORS
330
C
102
}
100
AcDbDictionary
281
1
  3
Model
350
2A3
  3
Layout1
350
2A4
  0
ACDBPLACEHOLDER
  5
F
102
{ACAD_REACTORS
330
E
102
}
  0
MLINESTYLE
  5
18
102
{ACAD_REACTORS
330
17
102
}
100
AcDbMlineStyle
  2
STANDARD
 70
0
  3

 62
256
 51
90.0
 52
90.0
 71
2
 49
0.5
 62
256
  6
BYLAYER
 49
-0.5
 62
256
  6
BYLAYER
  0
LAYOUT
  5
2A3
102
{ACAD_REACTORS
330
1A
102
}
100
AcDbPlotSettings
  1

  2
none_device
  4

  6

 40
0.0
 41
0.0
 42
0.0
 43
0.0
 44
210.0
 45
297.0
 46
0.0
 47
0.0
 48
0.0
 49
0.0
140
0.0
141
0.0
142
1.0
143
1.0
 70
1024
 72
1
 73
0
 74
0
  7

 75
0
147
1.0
148
0.0
149
0.0
100
AcDbLayout
  1
Model
 70
0
 71
0
 10
0.0
 20
0.0
 11
210.0
 21
297.0
 12
0.0
 22
0.0
 32
0.0
 14
0.0
 24
0.0
 34
0.0
 15
0.0
 25
0.0
 35
0.0
146
0.0
 13
0.0
 23
0.0
 33
0.0
 16
1.0
 26
0.0
 36
0.0
 17
0.0
 27
1.0
 37
0.0
 76
0
330
210
345
0
346
0
  0
LAYOUT
  5
2A4
102
{ACAD_REACTORS
330
1A
102
}
100
AcDbPlotSettings
  1

  2
none_device
  4

  6

 40
0.0
 41
0.0
 42
0.0
 43
0.0
 44
210.0
 45
297.0
 46
0.0
 47
0.0
 48
0.0
 49
0.0
140
0.0
141
0.0
142
1.0
143
1.0
 70
0
 72
1
 73
0
 74
0
  7

 75
0
147
1.0
148
0.0
149
0.0
100
AcDbLayout
  1
Layout1
 70
0
 71
1
 10
0.0
 20
0.0
 11
210.0
 21
297.0
 12
0.0
 22
0.0
 32
0.0
 14
0.0
 24
0.0
 34
0.0
 15
0.0
 25
0.0
 35
0.0
146
0.0
 13
0.0
 23
0.0
 33
0.0
 16
1.0
 26
0.0
 36
0.0
 17
0.0
 27
1.0
 37
0.0
 76
0
330
211
345
0
346
0
  0
ENDSEC
  0
EOF
