999
DXF file: C:\Users\sesa63760\Dev\_Creo\CAD\MCADDE0000013_3D-CAD\drw0001_6.dxf
999
Pro/ENGINEER 2019471 by Parametric Technology Corporation
  0
SECTION
  2
HEADER
  9
$ACADVER
  1
AC1024
  9
$DWGCODEPAGE
  3
ANSI_1252
  9
$EXTMAX
 10
190.3482979085
 20
269.2068784706
 30
0.0
  9
$EXTMIN
 10
0.0
 20
0.0
 30
0.0
  9
$LIMMIN
 10
0.0
 20
0.0
  9
$LIMMAX
 10
190.3482979085
 20
269.2068784706
  9
$VIEWCTR
 10
95.1741489543
 20
134.6034392353
  9
$VIEWSIZE
 40
269.2068784706
  9
$CLAYER
  8
0
  9
$LTSCALE
 40
17.5483002262
  9
$CELTYPE
  6
BYLAYER
  9
$DIMSCALE
 40
1.0
  9
$DIMASZ
 40
2.2660511656
  9
$DIMEXO
 40
1.0
  9
$DIMDLI
 40
12.1242801563
  9
$DIMEXE
 40
1.0
  9
$DIMCEN
 40
2.871540037
  9
$DIMLFAC
 40
1.0
  9
$DIMBLK
  1
_FILLED
  9
$DIMALT
 70
0
  9
$DIMALTF
 40
0.0393700787
  9
$DIMTXT
 40
3.1724716318
  9
$DIMTOL
 70
1
  9
$DIMLIM
 70
0
  9
$DIMTFAC
 40
1.0
  9
$DIMTP
 40
0.01
  9
$DIMTM
 40
0.01
  9
$DIMGAP
 40
0.625
  9
$DIMDSEP
 70
46
  9
$AUNITS
 70
0
  9
$PDMODE
 70
3
  9
$PDSIZE
 40
0.3125
  9
$HANDSEED
  5
27E
  9
$TILEMODE
 70
1
  9
$MEASUREMENT
 70
1
  9
$INSUNITS
 70
4
  0
ENDSEC
  0
SECTION
  2
CLASSES
  0
CLASS
  1
ACDBDICTIONARYWDFLT
  2
AcDbDictionaryWithDefault
  3
AutoCAD 2000
 90
0
 91
1
280
0
281
0
  0
CLASS
  1
ACDBPLACEHOLDER
  2
AcDbPlaceHolder
  3
AutoCAD 2000
 90
0
 91
1
280
0
281
0
  0
CLASS
  1
LAYOUT
  2
AcDbLayout
  3
AutoCAD 2000
 90
0
 91
0
280
0
281
0
  0
ENDSEC
  0
SECTION
  2
TABLES
  0
TABLE
  2
VPORT
  5
8
100
AcDbSymbolTable
 70
2
  0
VPORT
  5
1F4
100
AcDbSymbolTableRecord
100
AcDbViewportTableRecord
  2
*ACTIVE
 70
0
 10
0.0
 20
0.0
 11
1.0
 21
1.0
 12
95.1741489543
 22
134.6034392353
 13
0.0
 23
0.0
 14
1.0
 24
1.0
 15
0.0
 25
0.0
 16
0.0
 26
0.0
 36
1.0
 17
0.0
 27
0.0
 37
0.0
 40
269.2068784706
 41
0.7070707071
 42
50.0
 43
0.0
 44
0.0
 50
0.0
 51
0.0
 71
0
 72
100
 73
1
 74
1
 75
0
 76
0
 77
0
 78
0
  0
ENDTAB
  0
TABLE
  2
LTYPE
  5
5
100
AcDbSymbolTable
 70
6
  0
LTYPE
  5
14
100
AcDbSymbolTableRecord
100
AcDbLinetypeTableRecord
  2
BYBLOCK
 70
0
  3

 72
65
 73
0
 40
0.0
  0
LTYPE
  5
15
100
AcDbSymbolTableRecord
100
AcDbLinetypeTableRecord
  2
BYLAYER
 70
0
  3

 72
65
 73
0
 40
0.0
  0
LTYPE
  5
16
100
AcDbSymbolTableRecord
100
AcDbLinetypeTableRecord
  2
CONTINUOUS
 70
64
  3
Solid line
 72
65
 73
0
 40
0.0
  0
LTYPE
  5
1F5
100
AcDbSymbolTableRecord
100
AcDbLinetypeTableRecord
  2
CENTER
 70
64
  3
____ _ ____ _ ____ _ ____ _ ____ _ ____ _ ____
 72
65
 73
4
 40
0.6
 49
0.375
 74
0
 49
-0.075
 74
0
 49
0.075
 74
0
 49
-0.075
 74
0
  0
LTYPE
  5
1F6
100
AcDbSymbolTableRecord
100
AcDbLinetypeTableRecord
  2
HIDDEN
 70
64
  3
- - - - - - - - - - - - - - - - - - - -
 72
65
 73
2
 40
0.2
 49
0.1
 74
0
 49
-0.1
 74
0
  0
LTYPE
  5
1F7
100
AcDbSymbolTableRecord
100
AcDbLinetypeTableRecord
  2
PHANTOM
 70
64
  3
_____ _ _ _____ _ _ _____ _ _ _____
 72
65
 73
6
 40
0.8
 49
0.45
 74
0
 49
-0.05
 74
0
 49
0.1
 74
0
 49
-0.05
 74
0
 49
0.1
 74
0
 49
-0.05
 74
0
  0
LTYPE
  5
1F8
100
AcDbSymbolTableRecord
100
AcDbLinetypeTableRecord
  2
DOT
 70
64
  3
. . . . . . . . . . . . . . . . . . . .
 72
65
 73
2
 40
0.2
 49
0.1
 74
0
 49
-0.1
 74
0
  0
LTYPE
  5
1F9
100
AcDbSymbolTableRecord
100
AcDbLinetypeTableRecord
  2
DASHED
 70
64
  3
- - - - - - - - - - - - - - - - - - - -
 72
65
 73
2
 40
0.2
 49
0.1
 74
0
 49
-0.1
 74
0
  0
ENDTAB
  0
TABLE
  2
LAYER
  5
2
100
AcDbSymbolTable
 70
36
  0
LAYER
  5
10
100
AcDbSymbolTableRecord
100
AcDbLayerTableRecord
  2
0
 70
0
 62
7
  6
CONTINUOUS
370
-3
390
F
  0
LAYER
  5
1FA
100
AcDbSymbolTableRecord
100
AcDbLayerTableRecord
  2
DEFAULT_1
 70
0
 62
7
  6
CENTER
370
-3
390
F
  0
LAYER
  5
1FB
100
AcDbSymbolTableRecord
100
AcDbLayerTableRecord
  2
DEFAULT_2
 70
0
 62
7
  6
HIDDEN
370
-3
390
F
  0
LAYER
  5
1FC
100
AcDbSymbolTableRecord
100
AcDbLayerTableRecord
  2
DEFAULT_3
 70
0
 62
7
  6
PHANTOM
370
-3
390
F
  0
LAYER
  5
1FD
100
AcDbSymbolTableRecord
100
AcDbLayerTableRecord
  2
00_COMPONENTS
 70
0
 62
7
  6
CONTINUOUS
370
-3
390
F
  0
LAYER
  5
1FE
100
AcDbSymbolTableRecord
100
AcDbLayerTableRecord
  2
01_1_DEFAULT_DATUMS
 70
0
 62
7
  6
CONTINUOUS
370
-3
390
F
  0
LAYER
  5
1FF
100
AcDbSymbolTableRecord
100
AcDbLayerTableRecord
  2
01_PLANES
 70
0
 62
7
  6
CONTINUOUS
370
-3
390
F
  0
LAYER
  5
200
100
AcDbSymbolTableRecord
100
AcDbLayerTableRecord
  2
02_COORD_SYS
 70
0
 62
7
  6
CONTINUOUS
370
-3
390
F
  0
LAYER
  5
201
100
AcDbSymbolTableRecord
100
AcDbLayerTableRecord
  2
03_AXES
 70
0
 62
7
  6
CONTINUOUS
370
-3
390
F
  0
LAYER
  5
202
100
AcDbSymbolTableRecord
100
AcDbLayerTableRecord
  2
04_POINTS
 70
0
 62
7
  6
CONTINUOUS
370
-3
390
F
  0
LAYER
  5
203
100
AcDbSymbolTableRecord
100
AcDbLayerTableRecord
  2
05_CURVES
 70
0
 62
7
  6
CONTINUOUS
370
-3
390
F
  0
LAYER
  5
204
100
AcDbSymbolTableRecord
100
AcDbLayerTableRecord
  2
06_SURFS
 70
0
 62
7
  6
CONTINUOUS
370
-3
390
F
  0
LAYER
  5
205
100
AcDbSymbolTableRecord
100
AcDbLayerTableRecord
  2
07_COSMETICS
 70
0
 62
7
  6
CONTINUOUS
370
-3
390
F
  0
LAYER
  5
206
100
AcDbSymbolTableRecord
100
AcDbLayerTableRecord
  2
10_NOTES
 70
0
 62
7
  6
CONTINUOUS
370
-3
390
F
  0
LAYER
  5
207
100
AcDbSymbolTableRecord
100
AcDbLayerTableRecord
  2
11_NOTES_PUB
 70
0
 62
7
  6
CONTINUOUS
370
-3
390
F
  0
LAYER
  5
208
100
AcDbSymbolTableRecord
100
AcDbLayerTableRecord
  2
13_REF_GTOL
 70
0
 62
7
  6
CONTINUOUS
370
-3
390
F
  0
LAYER
  5
209
100
AcDbSymbolTableRecord
100
AcDbLayerTableRecord
  2
16_MISC
 70
0
 62
7
  6
CONTINUOUS
370
-3
390
F
  0
LAYER
  5
20A
100
AcDbSymbolTableRecord
100
AcDbLayerTableRecord
  2
17_NO_PRINT
 70
0
 62
7
  6
CONTINUOUS
370
-3
390
F
  0
LAYER
  5
20B
100
AcDbSymbolTableRecord
100
AcDbLayerTableRecord
  2
18_DATUM_CAMS_JOINTS
 70
0
 62
7
  6
CONTINUOUS
370
-3
390
F
  0
LAYER
  5
20C
100
AcDbSymbolTableRecord
100
AcDbLayerTableRecord
  2
19_DATUM_FUNCTIONAL
 70
0
 62
7
  6
CONTINUOUS
370
-3
390
F
  0
LAYER
  5
20D
100
AcDbSymbolTableRecord
100
AcDbLayerTableRecord
  2
20_DATUM_KINEMATIC_SCHEME
 70
0
 62
7
  6
CONTINUOUS
370
-3
390
F
  0
ENDTAB
  0
TABLE
  2
STYLE
  5
3
100
AcDbSymbolTable
 70
1
  0
STYLE
  5
11
100
AcDbSymbolTableRecord
100
AcDbTextStyleTableRecord
  2
STANDARD
 70
0
 40
0.0
 41
1.0
 50
0.0
 71
0
 42
0.2
  3
ARIAL.TTF
  4

  0
STYLE
  5
20E
100
AcDbSymbolTableRecord
100
AcDbTextStyleTableRecord
  2
TEXTSTYLE_1
 70
0
 40
0.0
 41
0.8
 50
0.0
 71
0
 42
0.2
  3
gdt
  4

  0
ENDTAB
  0
TABLE
  2
VIEW
  5
6
100
AcDbSymbolTable
 70
0
  0
ENDTAB
  0
TABLE
  2
UCS
  5
7
100
AcDbSymbolTable
 70
0
  0
ENDTAB
  0
TABLE
  2
APPID
  5
9
100
AcDbSymbolTable
 70
1
  0
APPID
  5
20F
100
AcDbSymbolTableRecord
100
AcDbRegAppTableRecord
  2
ACAD
 70
0
  0
ENDTAB
  0
TABLE
  2
BLOCK_RECORD
  5
1
100
AcDbSymbolTable
 70
0
  0
BLOCK_RECORD
  5
210
100
AcDbSymbolTableRecord
100
AcDbBlockTableRecord
  2
*Model_Space
  0
BLOCK_RECORD
  5
211
100
AcDbSymbolTableRecord
100
AcDbBlockTableRecord
  2
*Paper_Space
  0
BLOCK_RECORD
  5
212
100
AcDbSymbolTableRecord
100
AcDbBlockTableRecord
  2
_FILLED
  0
ENDTAB
  0
TABLE
  2
DIMSTYLE
  5
A
100
AcDbSymbolTable
 70
1
100
AcDbDimStyleTable
 71
0
  0
DIMSTYLE
105
213
100
AcDbSymbolTableRecord
100
AcDbDimStyleTableRecord
  2
STANDARD
 70
0
  3

  4

 40
1.0
 41
2.2660511656
 42
1.0
 43
0.38
 44
1.0
 45
0.0
 46
0.0
 47
0.01
 48
0.01
140
3.1724716318
141
0.09
142
0.0
143
25.4
144
1.0
145
0.0
146
1.0
147
0.625
 71
1
 72
0
 73
0
 74
0
 75
0
 76
0
 77
1
 78
8
 79
2
170
0
171
1
172
0
173
0
174
0
175
0
176
0
177
0
178
0
270
2
179
2
271
2
272
2
273
2
274
2
275
0
280
0
281
0
282
0
283
1
284
8
285
0
286
0
287
3
288
0
340
11
278
46
341
212
342
212
343
212
344
212
  0
ENDTAB
  0
ENDSEC
  0
SECTION
  2
BLOCKS
  0
BLOCK
  5
20
100
AcDbEntity
  8
0
100
AcDbBlockBegin
  2
*Model_Space
 70
0
 10
0.0
 20
0.0
 30
0.0
  3
*Model_Space
  1

  0
ENDBLK
  5
21
100
AcDbEntity
  8
0
100
AcDbBlockEnd
  0
BLOCK
  5
1C
100
AcDbEntity
  8
0
100
AcDbBlockBegin
  2
*Paper_Space
 70
0
 10
0.0
 20
0.0
 30
0.0
  3
*Paper_Space
  1

  0
ENDBLK
  5
1D
100
AcDbEntity
  8
0
100
AcDbBlockEnd
  0
BLOCK
  5
214
100
AcDbEntity
  8
0
100
AcDbBlockBegin
  2
_FILLED
 70
64
 10
0.0
 20
0.0
  3
_FILLED
  1

  0
SOLID
  5
215
100
AcDbEntity
  8
0
  6
BYBLOCK
 62
0
100
AcDbTrace
 10
0.0
 20
0.0
 11
-1.0
 21
0.25
 12
-1.0
 22
-0.25
 13
-1.0
 23
-0.25
  0
ENDBLK
  5
216
100
AcDbEntity
  8
0
  6
BYBLOCK
 62
0
100
AcDbBlockEnd
  0
ENDSEC
  0
SECTION
  2
ENTITIES
  0
LINE
  5
217
100
AcDbEntity
  8
0
100
AcDbLine
 62
7
  6
BYLAYER
 10
21.5294276101
 20
114.4199846189
 11
21.5294276101
 21
115.0699846189
  0
LINE
  5
218
100
AcDbEntity
  8
0
100
AcDbLine
 62
7
  6
BYLAYER
 10
31.2794276101
 20
146.562614311
 11
31.2794276101
 21
165.662614311
  0
LINE
  5
219
100
AcDbEntity
  8
0
100
AcDbLine
 62
7
  6
BYLAYER
 10
30.7762904909
 20
160.5228625652
 11
30.8255078588
 21
166.162614311
  0
LINE
  5
21A
100
AcDbEntity
  8
0
100
AcDbLine
 62
7
  6
BYLAYER
 10
34.5294276101
 20
114.4199846189
 11
34.5294276101
 21
116.1382280191
  0
LINE
  5
21B
100
AcDbEntity
  8
0
100
AcDbLine
 62
7
  6
BYLAYER
 10
34.8294276101
 20
116.6299846189
 11
34.8294276101
 21
113.9299846189
  0
LINE
  5
21C
100
AcDbEntity
  8
0
100
AcDbLine
 62
7
  6
BYLAYER
 10
39.3293911803
 20
115.6299846189
 11
39.3293911803
 21
114.9299846189
  0
LINE
  5
21D
100
AcDbEntity
  8
0
100
AcDbLine
 62
7
  6
BYLAYER
 10
42.7833285568
 20
115.6299846189
 11
42.7833285568
 21
114.9299846189
  0
LINE
  5
21E
100
AcDbEntity
  8
0
100
AcDbLine
 62
7
  6
BYLAYER
 10
47.6975365911
 20
115.6299846189
 11
47.6975365911
 21
114.9299846189
  0
LINE
  5
21F
100
AcDbEntity
  8
0
100
AcDbLine
 62
7
  6
BYLAYER
 10
31.2794276101
 20
159.9125084332
 11
30.7762904909
 21
160.5228625652
  0
LINE
  5
220
100
AcDbEntity
  8
0
100
AcDbLine
 62
7
  6
BYLAYER
 10
137.7415774249
 20
105.6373859618
 11
137.5834348048
 21
105.6257786017
  0
LINE
  5
221
100
AcDbEntity
  8
0
100
AcDbLine
 62
7
  6
BYLAYER
 10
137.7417825707
 20
105.6301115577
 11
137.5834348048
 21
105.6257786017
  0
LINE
  5
222
100
AcDbEntity
  8
0
100
AcDbLine
 62
7
  6
BYLAYER
 10
70.9794276101
 20
155.9034001663
 11
70.9794276101
 21
146.562614311
  0
LINE
  5
223
100
AcDbEntity
  8
0
100
AcDbLine
 62
7
  6
BYLAYER
 10
71.7794276101
 20
156.015832834
 11
71.7794276101
 21
146.562614311
  0
LINE
  5
224
100
AcDbEntity
  8
0
100
AcDbLine
 62
7
  6
BYLAYER
 10
72.2991838148
 20
116.387614311
 11
72.2991838148
 21
114.137614311
  0
LINE
  5
225
100
AcDbEntity
  8
0
100
AcDbLine
 62
7
  6
BYLAYER
 10
73.4794276101
 20
146.562614311
 11
73.4794276101
 21
165.662614311
  0
LINE
  5
226
100
AcDbEntity
  8
0
100
AcDbLine
 62
7
  6
BYLAYER
 10
79.8299419346
 20
114.137614311
 11
79.8299419346
 21
116.387614311
  0
LINE
  5
227
100
AcDbEntity
  8
0
100
AcDbLine
 62
7
  6
BYLAYER
 10
46.1327278648
 20
115.2547242603
 11
72.2991831158
 21
115.2585462928
  0
LINE
  5
228
100
AcDbEntity
  8
0
100
AcDbLine
 62
7
  6
BYLAYER
 10
34.8294276101
 20
113.9299846189
 11
47.7037030124
 21
113.9299846189
  0
LINE
  5
229
100
AcDbEntity
  8
0
100
AcDbLine
 62
7
  6
BYLAYER
 10
47.7067862231
 20
113.9299846189
 11
47.764132872
 21
113.9299846189
  0
LINE
  5
22A
100
AcDbEntity
  8
0
100
AcDbLine
 62
7
  6
BYLAYER
 10
81.1921242213
 20
114.1299813543
 11
79.8299419346
 21
114.1299813543
  0
LINE
  5
22B
100
AcDbEntity
  8
0
100
AcDbLine
 62
7
  6
BYLAYER
 10
46.1177814129
 20
114.1299813543
 11
72.2991837677
 21
114.1299813543
  0
LINE
  5
22C
100
AcDbEntity
  8
0
100
AcDbLine
 62
7
  6
BYLAYER
 10
72.2991838148
 20
114.137614311
 11
79.8299419346
 21
114.137614311
  0
LINE
  5
22D
100
AcDbEntity
  8
0
100
AcDbLine
 62
7
  6
BYLAYER
 10
34.8294276101
 20
114.4183483391
 11
34.5294276101
 21
114.4183483391
  0
LINE
  5
22E
100
AcDbEntity
  8
0
100
AcDbLine
 62
7
  6
BYLAYER
 10
34.5294276101
 20
114.4199846189
 11
21.5294276101
 21
114.4199846189
  0
LINE
  5
22F
100
AcDbEntity
  8
0
100
AcDbLine
 62
7
  6
BYLAYER
 10
34.8294276101
 20
114.9299846189
 11
47.6975365911
 21
114.9299846189
  0
LINE
  5
230
100
AcDbEntity
  8
0
100
AcDbLine
 62
7
  6
BYLAYER
 10
34.5294276101
 20
115.0699846189
 11
21.5294276101
 21
115.0699846189
  0
LINE
  5
231
100
AcDbEntity
  8
0
100
AcDbLine
 62
7
  6
BYLAYER
 10
47.6975365911
 20
115.6299846189
 11
34.8294276101
 21
115.6299846189
  0
LINE
  5
232
100
AcDbEntity
  8
0
100
AcDbLine
 62
7
  6
BYLAYER
 10
34.8294276101
 20
116.1383483391
 11
34.5294276101
 21
116.1383483391
  0
LINE
  5
233
100
AcDbEntity
  8
0
100
AcDbLine
 62
7
  6
BYLAYER
 10
72.2991838618
 20
116.3799813543
 11
46.1177814129
 21
116.3799813543
  0
LINE
  5
234
100
AcDbEntity
  8
0
100
AcDbLine
 62
7
  6
BYLAYER
 10
66.7739899934
 20
116.3826818157
 11
72.2991838618
 21
116.3826818157
  0
LINE
  5
235
100
AcDbEntity
  8
0
100
AcDbLine
 62
7
  6
BYLAYER
 10
72.2991838148
 20
116.387614311
 11
79.8299419346
 21
116.387614311
  0
LINE
  5
236
100
AcDbEntity
  8
0
100
AcDbLine
 62
7
  6
BYLAYER
 10
34.8294276101
 20
116.6299846189
 11
47.764132872
 21
116.6299846189
  0
LINE
  5
237
100
AcDbEntity
  8
0
100
AcDbLine
 62
7
  6
BYLAYER
 10
33.5735508138
 20
166.162614311
 11
34.1694276101
 21
165.662614311
  0
LINE
  5
238
100
AcDbEntity
  8
0
100
AcDbLine
 62
7
  6
BYLAYER
 10
81.2414473733
 20
116.2696774709
 11
81.2440078157
 21
116.3799813543
  0
LINE
  5
239
100
AcDbEntity
  8
0
100
AcDbLine
 62
7
  6
BYLAYER
 10
31.2794276101
 20
146.562614311
 11
73.4794276101
 21
146.562614311
  0
LINE
  5
23A
100
AcDbEntity
  8
0
100
AcDbLine
 62
7
  6
BYLAYER
 10
73.4801266364
 20
152.5439352418
 11
75.9616783718
 21
152.6389594385
  0
LINE
  5
23B
100
AcDbEntity
  8
0
100
AcDbLine
 62
7
  6
BYLAYER
 10
73.4795490681
 20
152.5593796208
 11
75.9611469982
 21
152.6525601037
  0
LINE
  5
23C
100
AcDbEntity
  8
0
100
AcDbLine
 62
7
  6
BYLAYER
 10
109.6521645443
 20
153.3931355797
 11
109.9730388283
 21
153.393183265
  0
LINE
  5
23D
100
AcDbEntity
  8
0
100
AcDbLine
 62
7
  6
BYLAYER
 10
109.6536070604
 20
153.4974219511
 11
109.9746022368
 21
153.4926807736
  0
LINE
  5
23E
100
AcDbEntity
  8
0
100
AcDbLine
 62
7
  6
BYLAYER
 10
73.4794276101
 20
156.254752253
 11
70.9794276101
 21
155.9034001663
  0
LINE
  5
23F
100
AcDbEntity
  8
0
100
AcDbLine
 62
7
  6
BYLAYER
 10
73.4794276101
 20
165.662614311
 11
31.2794276101
 21
165.662614311
  0
LINE
  5
240
100
AcDbEntity
  8
0
100
AcDbLine
 62
7
  6
BYLAYER
 10
33.5735508138
 20
166.162614311
 11
30.8255078588
 21
166.162614311
  0
ARC
  5
241
100
AcDbEntity
  8
0
100
AcDbCircle
 62
7
  6
BYLAYER
 10
101.9896274994
 20
-6.5200796517
 40
160.535731173
100
AcDbArc
 50
78.3116851127
 51
79.4462612577
  0
ARC
  5
242
100
AcDbEntity
  8
0
100
AcDbCircle
 62
7
  6
BYLAYER
 10
151.2319003887
 20
252.2381285246
 40
148.5977838271
100
AcDbArc
 50
251.9945972971
 51
253.1283149834
  0
ARC
  5
243
100
AcDbEntity
  8
0
100
AcDbCircle
 62
7
  6
BYLAYER
 10
106.8745153117
 20
28.9160109383
 40
124.8425734043
100
AcDbArc
 50
77.9409065449
 51
78.3507296987
  0
ARC
  5
244
100
AcDbEntity
  8
0
100
AcDbCircle
 62
7
  6
BYLAYER
 10
121.028810747
 20
74.3931712494
 40
77.3888008998
100
AcDbArc
 50
73.039796656
 51
73.5960106791
  0
ARC
  5
245
100
AcDbEntity
  8
0
100
AcDbCircle
 62
7
  6
BYLAYER
 10
143.4480970503
 20
142.5575775813
 40
36.5029436105
100
AcDbArc
 50
284.8394373646
 51
287.4053651769
  0
ARC
  5
246
100
AcDbEntity
  8
0
100
AcDbCircle
 62
7
  6
BYLAYER
 10
149.3816110697
 20
132.4133887509
 40
24.3593543817
100
AcDbArc
 50
310.8757322043
 51
312.4403676
  0
ARC
  5
247
100
AcDbEntity
  8
0
100
AcDbCircle
 62
7
  6
BYLAYER
 10
156.6303528772
 20
124.0255072072
 40
13.2274611726
100
AcDbArc
 50
327.7250967344
 51
333.6911930014
  0
ARC
  5
248
100
AcDbEntity
  8
0
100
AcDbCircle
 62
7
  6
BYLAYER
 10
161.1917821639
 20
121.5660873177
 40
10.7461020876
100
AcDbArc
 50
357.1887699257
 51
358.8374992105
  0
ARC
  5
249
100
AcDbEntity
  8
0
100
AcDbCircle
 62
7
  6
BYLAYER
 10
164.2731267433
 20
122.4597280631
 40
7.8483537795
100
AcDbArc
 50
352.0576946467
 51
352.3962095111
  0
SPLINE
  5
24A
100
AcDbEntity
  8
0
100
AcDbSpline
 62
7
  6
BYLAYER
 70
0
 71
3
 72
21
 73
17
 74
0
 42
0.0000001
 43
0.0000001
 44
0.0000000001
 40
0.0
 40
0.0
 40
0.0
 40
0.0
 40
0.0011656271
 40
0.0042811871
 40
0.0094136585
 40
0.0165692087
 40
0.0369417309
 40
0.0653702268
 40
0.1018170408
 40
0.1462300069
 40
0.1985028477
 40
0.2585145848
 40
0.4012698248
 40
0.5734296361
 40
0.7735314967
 40
1.0
 40
1.0
 40
1.0
 40
1.0
 10
47.7672160826
 20
116.6299846189
 30
0.0
 10
47.7673120903
 20
116.6299846189
 30
0.0
 10
47.7673917209
 20
116.6294924323
 30
0.0
 10
47.7675303639
 20
116.6288633916
 30
0.0
 10
47.7676488849
 20
116.6275248364
 30
0.0
 10
47.7678568928
 20
116.6248881064
 30
0.0
 10
47.7680841824
 20
116.6202505118
 30
0.0
 10
47.7683512452
 20
116.6132504091
 30
0.0
 10
47.768614623
 20
116.6042462123
 30
0.0
 10
47.7688789942
 20
116.5932861148
 30
0.0
 10
47.7691405981
 20
116.5803814676
 30
0.0
 10
47.7695071145
 20
116.5593784607
 30
0.0
 10
47.7699408257
 20
116.5285001443
 30
0.0
 10
47.7704185007
 20
116.4860831903
 30
0.0
 10
47.7708731854
 20
116.4367704389
 30
0.0
 10
47.7711420741
 20
116.4016367233
 30
0.0
 10
47.7712736798
 20
116.3829839653
 30
0.0
  0
SPLINE
  5
24B
100
AcDbEntity
  8
0
100
AcDbSpline
 62
7
  6
BYLAYER
 70
0
 71
3
 72
20
 73
16
 74
0
 42
0.0000001
 43
0.0000001
 44
0.0000000001
 40
0.0
 40
0.0
 40
0.0
 40
0.0
 40
0.2282157518
 40
0.4290110108
 40
0.6010514811
 40
0.7433074632
 40
0.8030013207
 40
0.8549317917
 40
0.8989978838
 40
0.9351405504
 40
0.9633255862
 40
0.9835217603
 40
0.9957076593
 40
0.9988076751
 40
1.0
 40
1.0
 40
1.0
 40
1.0
 10
47.7708583213
 20
114.123069835
 30
0.0
 10
47.7707344955
 20
114.1083746866
 30
0.0
 10
47.770483783
 20
114.0807501633
 30
0.0
 10
47.7700660641
 20
114.0420484948
 30
0.0
 10
47.7696325566
 20
114.008882408
 30
0.0
 10
47.7692428335
 20
113.9848033343
 30
0.0
 10
47.7689159151
 20
113.968457468
 30
0.0
 10
47.7686829923
 20
113.9584365551
 30
0.0
 10
47.7684497299
 20
113.9499252133
 30
0.0
 10
47.7682135298
 20
113.9429646942
 30
0.0
 10
47.767986346
 20
113.9374868528
 30
0.0
 10
47.7677484544
 20
113.9336835978
 30
0.0
 10
47.7675672484
 20
113.9312515691
 30
0.0
 10
47.7673784901
 20
113.9303559821
 30
0.0
 10
47.7672928609
 20
113.9299846189
 30
0.0
 10
47.7672160826
 20
113.9299846189
 30
0.0
  0
SPLINE
  5
24C
100
AcDbEntity
  8
0
100
AcDbSpline
 62
7
  6
BYLAYER
 70
0
 71
3
 72
21
 73
17
 74
0
 42
0.0000001
 43
0.0000001
 44
0.0000000001
 40
0.0
 40
0.0
 40
0.0
 40
0.0
 40
0.2264685034
 40
0.4265703639
 40
0.5987301752
 40
0.7414854152
 40
0.8014971523
 40
0.8537699931
 40
0.8981829592
 40
0.9346297732
 40
0.9630582691
 40
0.9834307913
 40
0.9905863415
 40
0.9957188129
 40
0.9988343729
 40
1.0
 40
1.0
 40
1.0
 40
1.0
 10
47.7600752748
 20
116.3829839656
 30
0.0
 10
47.7602068805
 20
116.4016367236
 30
0.0
 10
47.7604757692
 20
116.4367704392
 30
0.0
 10
47.7609304539
 20
116.4860831905
 30
0.0
 10
47.7614081289
 20
116.5285001445
 30
0.0
 10
47.7618418401
 20
116.5593784608
 30
0.0
 10
47.7622083565
 20
116.5803814677
 30
0.0
 10
47.7624699605
 20
116.5932861149
 30
0.0
 10
47.7627343316
 20
116.6042462124
 30
0.0
 10
47.7629977094
 20
116.6132504091
 30
0.0
 10
47.7632647722
 20
116.6202505118
 30
0.0
 10
47.7634920618
 20
116.6248881064
 30
0.0
 10
47.7637000698
 20
116.6275248364
 30
0.0
 10
47.7638185907
 20
116.6288633916
 30
0.0
 10
47.7639572337
 20
116.6294924323
 30
0.0
 10
47.7640368644
 20
116.6299846189
 30
0.0
 10
47.764132872
 20
116.6299846189
 30
0.0
  0
SPLINE
  5
24D
100
AcDbEntity
  8
0
100
AcDbSpline
 62
7
  6
BYLAYER
 70
0
 71
3
 72
20
 73
16
 74
0
 42
0.0000001
 43
0.0000001
 44
0.0000000001
 40
0.0
 40
0.0
 40
0.0
 40
0.0
 40
0.0011923249
 40
0.0042923407
 40
0.0164782397
 40
0.0366744138
 40
0.0648594496
 40
0.1010021162
 40
0.1450682083
 40
0.1969986793
 40
0.2566925368
 40
0.3989485189
 40
0.5709889891
 40
0.7717842482
 40
1.0
 40
1.0
 40
1.0
 40
1.0
 10
47.764132872
 20
113.9299846189
 30
0.0
 10
47.7640560937
 20
113.9299846189
 30
0.0
 10
47.7639704645
 20
113.9303559821
 30
0.0
 10
47.7637817063
 20
113.9312515691
 30
0.0
 10
47.7636005003
 20
113.9336835977
 30
0.0
 10
47.7633626086
 20
113.9374868528
 30
0.0
 10
47.7631354248
 20
113.9429646942
 30
0.0
 10
47.7628992247
 20
113.9499252132
 30
0.0
 10
47.7626659623
 20
113.958436555
 30
0.0
 10
47.7624330395
 20
113.9684574679
 30
0.0
 10
47.7621061211
 20
113.9848033342
 30
0.0
 10
47.7617163981
 20
114.0088824078
 30
0.0
 10
47.7612828906
 20
114.0420484945
 30
0.0
 10
47.7608651716
 20
114.0807501629
 30
0.0
 10
47.7606144591
 20
114.1083746861
 30
0.0
 10
47.7604906334
 20
114.1230698346
 30
0.0
  0
SPLINE
  5
24E
100
AcDbEntity
  8
0
100
AcDbSpline
 62
7
  6
BYLAYER
 70
0
 71
3
 72
21
 73
17
 74
0
 42
0.0000001
 43
0.0000001
 44
0.0000000001
 40
0.0
 40
0.0
 40
0.0
 40
0.0
 40
0.0011656271
 40
0.0042811871
 40
0.0094136585
 40
0.0165692087
 40
0.0369417309
 40
0.0653702268
 40
0.1018170408
 40
0.1462300068
 40
0.1985028476
 40
0.2585145847
 40
0.4012698247
 40
0.573429636
 40
0.7735314966
 40
1.0
 40
1.0
 40
1.0
 40
1.0
 10
47.7067862231
 20
116.6299846189
 30
0.0
 10
47.7068822307
 20
116.6299846189
 30
0.0
 10
47.7069618614
 20
116.6294924323
 30
0.0
 10
47.7071005043
 20
116.6288633916
 30
0.0
 10
47.7072190253
 20
116.6275248365
 30
0.0
 10
47.7074270333
 20
116.6248881064
 30
0.0
 10
47.7076543229
 20
116.6202505119
 30
0.0
 10
47.7079213856
 20
116.6132504092
 30
0.0
 10
47.7081847634
 20
116.6042462125
 30
0.0
 10
47.7084491346
 20
116.5932861151
 30
0.0
 10
47.7087107386
 20
116.580381468
 30
0.0
 10
47.709077255
 20
116.5593784612
 30
0.0
 10
47.7095109662
 20
116.5285001451
 30
0.0
 10
47.7099886412
 20
116.4860831914
 30
0.0
 10
47.7104433258
 20
116.4367704404
 30
0.0
 10
47.7107122145
 20
116.401636725
 30
0.0
 10
47.7108438202
 20
116.3829839672
 30
0.0
  0
SPLINE
  5
24F
100
AcDbEntity
  8
0
100
AcDbSpline
 62
7
  6
BYLAYER
 70
0
 71
3
 72
20
 73
16
 74
0
 42
0.0000001
 43
0.0000001
 44
0.0000000001
 40
0.0
 40
0.0
 40
0.0
 40
0.0
 40
0.2282157519
 40
0.429011011
 40
0.6010514812
 40
0.7433074633
 40
0.8030013208
 40
0.8549317917
 40
0.8989978839
 40
0.9351405504
 40
0.9633255862
 40
0.9835217603
 40
0.9957076593
 40
0.9988076751
 40
1.0
 40
1.0
 40
1.0
 40
1.0
 10
47.7104284617
 20
114.1230698324
 30
0.0
 10
47.7103046359
 20
114.1083746841
 30
0.0
 10
47.7100539234
 20
114.0807501611
 30
0.0
 10
47.7096362045
 20
114.0420484932
 30
0.0
 10
47.709202697
 20
114.0088824069
 30
0.0
 10
47.7088129739
 20
113.9848033336
 30
0.0
 10
47.7084860555
 20
113.9684574674
 30
0.0
 10
47.7082531327
 20
113.9584365547
 30
0.0
 10
47.7080198703
 20
113.949925213
 30
0.0
 10
47.7077836703
 20
113.942964694
 30
0.0
 10
47.7075564865
 20
113.9374868527
 30
0.0
 10
47.7073185948
 20
113.9336835977
 30
0.0
 10
47.7071373888
 20
113.9312515691
 30
0.0
 10
47.7069486306
 20
113.9303559821
 30
0.0
 10
47.7068630014
 20
113.9299846189
 30
0.0
 10
47.7067862231
 20
113.9299846189
 30
0.0
  0
SPLINE
  5
250
100
AcDbEntity
  8
0
100
AcDbSpline
 62
7
  6
BYLAYER
 70
0
 71
3
 72
19
 73
15
 74
0
 42
0.0000001
 43
0.0000001
 44
0.0000000001
 40
0.0
 40
0.0
 40
0.0
 40
0.0
 40
0.0180858481
 40
0.0401125934
 40
0.0683031662
 40
0.1035976009
 40
0.1463060164
 40
0.1964065075
 40
0.2536561639
 40
0.3177049956
 40
0.4641430476
 40
0.6308349419
 40
0.8117781181
 40
1.0
 40
1.0
 40
1.0
 40
1.0
 10
39.1408998773
 20
113.9299846189
 30
0.0
 10
39.1472021832
 20
113.9299846189
 30
0.0
 10
39.1612382642
 20
113.9340881969
 30
0.0
 10
39.1796446813
 20
113.9497713224
 30
0.0
 10
39.1972186655
 20
113.9740263206
 30
0.0
 10
39.2141987171
 20
114.0070112018
 30
0.0
 10
39.2305623033
 20
114.0485965757
 30
0.0
 10
39.2461557782
 20
114.0985433102
 30
0.0
 10
39.2608337521
 20
114.1564619852
 30
0.0
 10
39.2797975707
 20
114.2478347823
 30
0.0
 10
39.2994613967
 20
114.3778833795
 30
0.0
 10
39.3164887017
 20
114.5492607649
 30
0.0
 10
39.3270259395
 20
114.7357411752
 30
0.0
 10
39.3293911803
 20
114.8643956648
 30
0.0
 10
39.3293911803
 20
114.9299846189
 30
0.0
  0
SPLINE
  5
251
100
AcDbEntity
  8
0
100
AcDbSpline
 62
7
  6
BYLAYER
 70
0
 71
3
 72
26
 73
22
 74
0
 42
0.0000001
 43
0.0000001
 44
0.0000000001
 40
0.0
 40
0.0
 40
0.0
 40
0.0
 40
0.1950555536
 40
0.3826593938
 40
0.5555101099
 40
0.6343320538
 40
0.7070346996
 40
0.7729354902
 40
0.8313848067
 40
0.8818374634
 40
0.9237939611
 40
0.9414568664
 40
0.9568565017
 40
0.9699537292
 40
0.9807104108
 40
0.9891024497
 40
0.9951170957
 40
0.9972295085
 40
0.9987441461
 40
0.9996621482
 40
1.0
 40
1.0
 40
1.0
 40
1.0
 10
47.6975365911
 20
115.6299846189
 30
0.0
 10
47.6975365911
 20
115.6950095875
 30
0.0
 10
47.6976126258
 20
115.822575389
 30
0.0
 10
47.6979520124
 20
116.0077635309
 30
0.0
 10
47.6984228324
 20
116.1542028691
 30
0.0
 10
47.6989133045
 20
116.2623375992
 30
0.0
 10
47.69931506
 20
116.3348188211
 30
0.0
 10
47.6997571844
 20
116.4005081076
 30
0.0
 10
47.7002353524
 20
116.4587795786
 30
0.0
 10
47.7007439312
 20
116.5090680811
 30
0.0
 10
47.701209429
 20
116.5457597873
 30
0.0
 10
47.7016053842
 20
116.5707650809
 30
0.0
 10
47.7018888697
 20
116.5861515975
 30
0.0
 10
47.7021763609
 20
116.5992313744
 30
0.0
 10
47.702462342
 20
116.6099854364
 30
0.0
 10
47.7027554097
 20
116.618348262
 30
0.0
 10
47.7029999829
 20
116.6238931006
 30
0.0
 10
47.7032322383
 20
116.6270415122
 30
0.0
 10
47.7033536521
 20
116.6286470418
 30
0.0
 10
47.7035195149
 20
116.629387779
 30
0.0
 10
47.703590384
 20
116.6299846189
 30
0.0
 10
47.7037030124
 20
116.6299846189
 30
0.0
  0
SPLINE
  5
252
100
AcDbEntity
  8
0
100
AcDbSpline
 62
7
  6
BYLAYER
 70
0
 71
3
 72
26
 73
22
 74
0
 42
0.0000001
 43
0.0000001
 44
0.0000000001
 40
0.0
 40
0.0
 40
0.0
 40
0.0
 40
0.0003378518
 40
0.0012558539
 40
0.0027704915
 40
0.0048829043
 40
0.0108975503
 40
0.0192895892
 40
0.0300462708
 40
0.0431434983
 40
0.0585431336
 40
0.0762060389
 40
0.1181625366
 40
0.1686151933
 40
0.2270645098
 40
0.2929653004
 40
0.3656679462
 40
0.4444898901
 40
0.6173406062
 40
0.8049444464
 40
1.0
 40
1.0
 40
1.0
 40
1.0
 10
47.7037030124
 20
113.9299846189
 30
0.0
 10
47.703590384
 20
113.9299846189
 30
0.0
 10
47.7035195149
 20
113.9305814588
 30
0.0
 10
47.7033536521
 20
113.9313221959
 30
0.0
 10
47.7032322383
 20
113.9329277256
 30
0.0
 10
47.7029999829
 20
113.9360761372
 30
0.0
 10
47.7027554097
 20
113.9416209758
 30
0.0
 10
47.702462342
 20
113.9499838014
 30
0.0
 10
47.7021763609
 20
113.9607378634
 30
0.0
 10
47.7018888697
 20
113.9738176403
 30
0.0
 10
47.7016053842
 20
113.9892041569
 30
0.0
 10
47.701209429
 20
114.0142094505
 30
0.0
 10
47.7007439312
 20
114.0509011567
 30
0.0
 10
47.7002353524
 20
114.1011896592
 30
0.0
 10
47.6997571844
 20
114.1594611302
 30
0.0
 10
47.69931506
 20
114.2251504167
 30
0.0
 10
47.6989133045
 20
114.2976316386
 30
0.0
 10
47.6984228324
 20
114.4057663686
 30
0.0
 10
47.6979520124
 20
114.5522057069
 30
0.0
 10
47.6976126258
 20
114.7373938488
 30
0.0
 10
47.6975365911
 20
114.8649596503
 30
0.0
 10
47.6975365911
 20
114.9299846188
 30
0.0
  0
SPLINE
  5
253
100
AcDbEntity
  8
0
100
AcDbSpline
 62
7
  6
BYLAYER
 70
0
 71
3
 72
19
 73
15
 74
0
 42
0.0000001
 43
0.0000001
 44
0.0000000001
 40
0.0
 40
0.0
 40
0.0
 40
0.0
 40
0.188491666
 40
0.3696729552
 40
0.5365384269
 40
0.6830730749
 40
0.7471374802
 40
0.8043798439
 40
0.8544482632
 40
0.8970960667
 40
0.9322960864
 40
0.9603450112
 40
0.9821695387
 40
1.0
 40
1.0
 40
1.0
 40
1.0
 10
42.7833285568
 20
115.6299846189
 30
0.0
 10
42.7833285568
 20
115.695593682
 30
0.0
 10
42.7809962117
 20
115.824279709
 30
0.0
 10
42.7706277671
 20
116.0107951869
 30
0.0
 10
42.7538618332
 20
116.1821799735
 30
0.0
 10
42.7345010706
 20
116.3122222383
 30
0.0
 10
42.7158332102
 20
116.4035854053
 30
0.0
 10
42.7013885865
 20
116.4614841865
 30
0.0
 10
42.6860448425
 20
116.5114094491
 30
0.0
 10
42.669942346
 20
116.552971288
 30
0.0
 10
42.6532387034
 20
116.5859329859
 30
0.0
 10
42.6359594979
 20
116.6101646931
 30
0.0
 10
42.6178742686
 20
116.6258557891
 30
0.0
 10
42.6040190001
 20
116.6299846189
 30
0.0
 10
42.5978126787
 20
116.6299846189
 30
0.0
  0
SPLINE
  5
254
100
AcDbEntity
  8
0
100
AcDbSpline
 62
7
  6
BYLAYER
 70
0
 71
3
 72
19
 73
15
 74
0
 42
0.0000001
 43
0.0000001
 44
0.0000000001
 40
0.0
 40
0.0
 40
0.0
 40
0.0
 40
0.0178301537
 40
0.0396537369
 40
0.0677014996
 40
0.1029000833
 40
0.1455477718
 40
0.1956163946
 40
0.2528600525
 40
0.3169269807
 40
0.4634670845
 40
0.6303362347
 40
0.811513243
 40
1.0
 40
1.0
 40
1.0
 40
1.0
 10
42.5978126787
 20
113.9299846189
 30
0.0
 10
42.6040188951
 20
113.9299846189
 30
0.0
 10
42.6178738451
 20
113.9341127275
 30
0.0
 10
42.6359587819
 20
113.949803056
 30
0.0
 10
42.6532371209
 20
113.9740338332
 30
0.0
 10
42.6699410039
 20
114.0069943521
 30
0.0
 10
42.6860431543
 20
114.0485558619
 30
0.0
 10
42.701387534
 20
114.0984814315
 30
0.0
 10
42.7158326484
 20
114.1563815658
 30
0.0
 10
42.7345014096
 20
114.2477478695
 30
0.0
 10
42.7538629935
 20
114.3777941736
 30
0.0
 10
42.7706287399
 20
114.5491807312
 30
0.0
 10
42.7809971315
 20
114.7356943588
 30
0.0
 10
42.7833285568
 20
114.8643772431
 30
0.0
 10
42.7833285568
 20
114.9299846189
 30
0.0
  0
SPLINE
  5
255
100
AcDbEntity
  8
0
100
AcDbSpline
 62
7
  6
BYLAYER
 70
0
 71
3
 72
19
 73
15
 74
0
 42
0.0000001
 43
0.0000001
 44
0.0000000001
 40
0.0
 40
0.0
 40
0.0
 40
0.0
 40
0.1882265717
 40
0.3691738477
 40
0.5358621748
 40
0.6822950003
 40
0.7463414464
 40
0.8035898605
 40
0.8536901024
 40
0.8963985257
 40
0.9316942637
 40
0.959885989
 40
0.981913772
 40
1.0
 40
1.0
 40
1.0
 40
1.0
 10
39.3293911803
 20
115.6299846189
 30
0.0
 10
39.3293911803
 20
115.6955752004
 30
0.0
 10
39.3270262277
 20
115.8242327454
 30
0.0
 10
39.316488684
 20
116.0107149542
 30
0.0
 10
39.2994611072
 20
116.1820906464
 30
0.0
 10
39.279797689
 20
116.312135351
 30
0.0
 10
39.2608341554
 20
116.4035050494
 30
0.0
 10
39.2461565434
 20
116.4614223979
 30
0.0
 10
39.2305638132
 20
116.5113688314
 30
0.0
 10
39.2142001675
 20
116.5529545469
 30
0.0
 10
39.1972205416
 20
116.5859406268
 30
0.0
 10
39.1796456405
 20
116.610196525
 30
0.0
 10
39.1612387741
 20
116.6258803342
 30
0.0
 10
39.1472023149
 20
116.6299846189
 30
0.0
 10
39.1408998773
 20
116.6299846189
 30
0.0
  0
SPLINE
  5
256
100
AcDbEntity
  8
0
100
AcDbSpline
 62
7
  6
BYLAYER
 70
0
 71
3
 72
10
 73
6
 74
0
 42
0.0000001
 43
0.0000001
 44
0.0000000001
 40
0.0
 40
0.0
 40
0.0
 40
0.0
 40
0.4954193008
 40
0.7462655027
 40
1.0
 40
1.0
 40
1.0
 40
1.0
 10
163.9630180468
 20
133.6136396344
 30
0.0
 10
164.7797660269
 20
132.6505350551
 30
0.0
 10
165.926582428
 20
131.1262574155
 30
0.0
 10
167.2870872923
 20
128.9698814263
 30
0.0
 10
167.9134018689
 20
127.8456630974
 30
0.0
 10
168.2144289279
 20
127.2732356785
 30
0.0
  0
SPLINE
  5
257
100
AcDbEntity
  8
0
100
AcDbSpline
 62
7
  6
BYLAYER
 70
0
 71
3
 72
26
 73
22
 74
0
 42
0.0000001
 43
0.0000001
 44
0.0000000001
 40
0.0
 40
0.0
 40
0.0
 40
0.0
 40
0.0294879993
 40
0.0595094117
 40
0.0900904115
 40
0.121037595
 40
0.1519922461
 40
0.1828928326
 40
0.2446046062
 40
0.3062914688
 40
0.3681907302
 40
0.4304446302
 40
0.4930099749
 40
0.5556844077
 40
0.6184924748
 40
0.6815970413
 40
0.7450458135
 40
0.8087922501
 40
0.8726352524
 40
0.9363635743
 40
1.0
 40
1.0
 40
1.0
 40
1.0
 10
169.0095770947
 20
119.2036310597
 30
0.0
 10
168.8389855112
 20
118.8551443048
 30
0.0
 10
168.4571166846
 20
118.1698271588
 30
0.0
 10
167.7893140632
 20
117.1890319889
 30
0.0
 10
167.0420990054
 20
116.2431809945
 30
0.0
 10
166.2363006429
 20
115.330663823
 30
0.0
 10
165.38422699
 20
114.4553077421
 30
0.0
 10
164.1941424439
 20
113.346732301
 30
0.0
 10
162.6081254605
 20
112.0735817656
 30
0.0
 10
160.5632215894
 20
110.7388183775
 30
0.0
 10
158.3933432367
 20
109.603960488
 30
0.0
 10
156.1243237131
 20
108.6549700637
 30
0.0
 10
153.7799910973
 20
107.8796510042
 30
0.0
 10
151.3811103632
 20
107.2662544655
 30
0.0
 10
148.9429405268
 20
106.7982012848
 30
0.0
 10
146.4745648808
 20
106.452529649
 30
0.0
 10
143.9821361003
 20
106.2071084821
 30
0.0
 10
141.473938089
 20
106.0375375981
 30
0.0
 10
138.9590576116
 20
105.922130404
 30
0.0
 10
136.4436568951
 20
105.8624465012
 30
0.0
 10
134.7675928655
 20
105.8631858047
 30
0.0
 10
133.9303452615
 20
105.8744086698
 30
0.0
  0
SPLINE
  5
258
100
AcDbEntity
  8
0
100
AcDbSpline
 62
7
  6
BYLAYER
 70
0
 71
3
 72
14
 73
10
 74
0
 42
0.0000001
 43
0.0000001
 44
0.0000000001
 40
0.0
 40
0.0
 40
0.0
 40
0.0
 40
0.2492173799
 40
0.3739488851
 40
0.4987748842
 40
0.6237081641
 40
0.7488309705
 40
0.8742739846
 40
1.0
 40
1.0
 40
1.0
 40
1.0
 10
75.9616783718
 20
152.6389594385
 30
0.0
 10
79.3491967399
 20
152.7713086848
 30
0.0
 10
84.4315995121
 20
152.9836247168
 30
0.0
 10
91.2118030235
 20
153.234904072
 30
0.0
 10
96.3036574165
 20
153.3908849848
 30
0.0
 10
101.4020222607
 20
153.503289519
 30
0.0
 10
106.5098505796
 20
153.5541933992
 30
0.0
 10
111.6289057222
 20
153.5015363517
 30
0.0
 10
115.0428812313
 20
153.3384590442
 30
0.0
 10
116.7489491704
 20
153.2189244077
 30
0.0
  0
SPLINE
  5
259
100
AcDbEntity
  8
0
100
AcDbSpline
 62
7
  6
BYLAYER
 70
0
 71
3
 72
9
 73
5
 74
0
 42
0.0000001
 43
0.0000001
 44
0.0000000001
 40
0.0
 40
0.0
 40
0.0
 40
0.0
 40
0.2494864697
 40
1.0
 40
1.0
 40
1.0
 40
1.0
 10
134.5121735561
 20
150.6868062701
 30
0.0
 10
135.2143073066
 20
150.5415933332
 30
0.0
 10
138.0243426523
 20
149.939874232
 30
0.0
 10
140.8149829091
 20
149.2409986964
 30
0.0
 10
142.8840465869
 20
148.6318078957
 30
0.0
  0
SPLINE
  5
25A
100
AcDbEntity
  8
0
100
AcDbSpline
 62
7
  6
BYLAYER
 70
0
 71
3
 72
9
 73
5
 74
0
 42
0.0000001
 43
0.0000001
 44
0.0000000001
 40
0.0
 40
0.0
 40
0.0
 40
0.0
 40
0.4981646344
 40
1.0
 40
1.0
 40
1.0
 40
1.0
 10
143.603696765
 20
148.4161475877
 30
0.0
 10
145.1666613985
 20
147.9394305598
 30
0.0
 10
148.274421718
 20
146.8806020363
 30
0.0
 10
151.2870483384
 20
145.5700210244
 30
0.0
 10
152.7629842456
 20
144.8411689687
 30
0.0
  0
SPLINE
  5
25B
100
AcDbEntity
  8
0
100
AcDbSpline
 62
7
  6
BYLAYER
 70
0
 71
3
 72
9
 73
5
 74
0
 42
0.0000001
 43
0.0000001
 44
0.0000000001
 40
0.0
 40
0.0
 40
0.0
 40
0.0
 40
0.2497519822
 40
1.0
 40
1.0
 40
1.0
 40
1.0
 10
152.7629842456
 20
144.8411689687
 30
0.0
 10
153.1912696093
 20
144.6296715275
 30
0.0
 10
154.8941471046
 20
143.7589768103
 30
0.0
 10
156.5468104612
 20
142.7888726891
 30
0.0
 10
157.7465835585
 20
142.0018392684
 30
0.0
  0
SPLINE
  5
25C
100
AcDbEntity
  8
0
100
AcDbSpline
 62
7
  6
BYLAYER
 70
0
 71
3
 72
10
 73
6
 74
0
 42
0.0000001
 43
0.0000001
 44
0.0000000001
 40
0.0
 40
0.0
 40
0.0
 40
0.0
 40
0.4924042676
 40
0.7456123276
 40
1.0
 40
1.0
 40
1.0
 40
1.0
 10
171.7532701148
 20
124.744820886
 30
0.0
 10
171.9082795907
 20
124.2156914588
 30
0.0
 10
172.0829774161
 20
123.3927146555
 30
0.0
 10
172.1335072924
 20
122.2719214508
 30
0.0
 10
172.0901585864
 20
121.7035632919
 30
0.0
 10
172.0524682878
 20
121.4212184664
 30
0.0
  0
SPLINE
  5
25D
100
AcDbEntity
  8
0
100
AcDbSpline
 62
7
  6
BYLAYER
 70
0
 71
3
 72
12
 73
8
 74
0
 42
0.0000001
 43
0.0000001
 44
0.0000000001
 40
0.0
 40
0.0
 40
0.0
 40
0.0
 40
0.1249365589
 40
0.2498280676
 40
0.4996895831
 40
0.7494922709
 40
1.0
 40
1.0
 40
1.0
 40
1.0
 10
133.9303452615
 20
105.8744086698
 30
0.0
 10
132.8373508829
 20
105.8890596865
 30
0.0
 10
130.6519898946
 20
105.9554049086
 30
0.0
 10
126.2892097372
 20
106.2485432819
 30
0.0
 10
120.860293562
 20
106.9195413085
 30
0.0
 10
114.4225691891
 20
108.2286888003
 30
0.0
 10
110.2019522194
 20
109.4005951327
 30
0.0
 10
108.1044680153
 20
110.036419902
 30
0.0
  0
SPLINE
  5
25E
100
AcDbEntity
  8
0
100
AcDbSpline
 62
7
  6
BYLAYER
 70
0
 71
3
 72
17
 73
13
 74
0
 42
0.0000001
 43
0.0000001
 44
0.0000000001
 40
0.0
 40
0.0
 40
0.0
 40
0.0
 40
0.0623291214
 40
0.1243732343
 40
0.2475598906
 40
0.3091068505
 40
0.370949315
 40
0.4956505234
 40
0.6211115779
 40
0.7469160976
 40
0.873309645
 40
1.0
 40
1.0
 40
1.0
 40
1.0
 10
165.3228746487
 20
113.9945326139
 30
0.0
 10
164.8607030806
 20
113.5940682952
 30
0.0
 10
163.9125926618
 20
112.8243808362
 30
0.0
 10
161.9430100796
 20
111.4016266256
 30
0.0
 10
159.8532712732
 20
110.1634929364
 30
0.0
 10
157.6598879542
 20
109.1395827955
 30
0.0
 10
155.3936299634
 20
108.2476236359
 30
0.0
 10
152.4571256054
 20
107.3636150704
 30
0.0
 10
148.8429020897
 20
106.608916267
 30
0.0
 10
145.1699421532
 20
106.1033121359
 30
0.0
 10
141.4652970872
 20
105.7829509193
 30
0.0
 10
138.9842950452
 20
105.6651517152
 30
0.0
 10
137.7417825707
 20
105.6301115577
 30
0.0
  0
SPLINE
  5
25F
100
AcDbEntity
  8
0
100
AcDbSpline
 62
7
  6
BYLAYER
 70
0
 71
3
 72
11
 73
7
 74
0
 42
0.0000001
 43
0.0000001
 44
0.0000000001
 40
0.0
 40
0.0
 40
0.0
 40
0.0
 40
0.2487250047
 40
0.4983253887
 40
0.7486885186
 40
1.0
 40
1.0
 40
1.0
 40
1.0
 10
73.478596739
 20
152.5321989198
 30
0.0
 10
76.4791383383
 20
152.5278512748
 30
0.0
 10
82.4907173245
 20
152.6732575738
 30
0.0
 10
91.5129724614
 20
153.0865977688
 30
0.0
 10
100.5684543254
 20
153.4619958305
 30
0.0
 10
106.6221498149
 20
153.5393538508
 30
0.0
 10
109.6536070604
 20
153.4974219511
 30
0.0
  0
SPLINE
  5
260
100
AcDbEntity
  8
0
100
AcDbSpline
 62
7
  6
BYLAYER
 70
0
 71
3
 72
11
 73
7
 74
0
 42
0.0000001
 43
0.0000001
 44
0.0000000001
 40
0.0
 40
0.0
 40
0.0
 40
0.0
 40
0.2497485034
 40
0.4997514771
 40
0.7499469736
 40
1.0
 40
1.0
 40
1.0
 40
1.0
 10
109.9746022368
 20
153.4926807736
 30
0.0
 10
111.8276059135
 20
153.4635644487
 30
0.0
 10
115.5350173084
 20
153.345135527
 30
0.0
 10
121.0867135937
 20
152.9323314188
 30
0.0
 10
126.6118839623
 20
152.2280542918
 30
0.0
 10
130.2654741495
 20
151.561699283
 30
0.0
 10
132.0827541805
 20
151.1870738574
 30
0.0
  0
SPLINE
  5
261
100
AcDbEntity
  8
0
100
AcDbSpline
 62
7
  6
BYLAYER
 70
0
 71
3
 72
9
 73
5
 74
0
 42
0.0000001
 43
0.0000001
 44
0.0000000001
 40
0.0
 40
0.0
 40
0.0
 40
0.0
 40
0.5000206582
 40
1.0
 40
1.0
 40
1.0
 40
1.0
 10
132.9566778553
 20
151.0036390227
 30
0.0
 10
134.2794857884
 20
150.7210685688
 30
0.0
 10
136.9158115503
 20
150.1128118117
 30
0.0
 10
139.5360201784
 20
149.4385520504
 30
0.0
 10
140.8403323152
 20
149.0805934181
 30
0.0
  0
SPLINE
  5
262
100
AcDbEntity
  8
0
100
AcDbSpline
 62
7
  6
BYLAYER
 70
0
 71
3
 72
9
 73
5
 74
0
 42
0.0000001
 43
0.0000001
 44
0.0000000001
 40
0.0
 40
0.0
 40
0.0
 40
0.0
 40
0.2496503085
 40
1.0
 40
1.0
 40
1.0
 40
1.0
 10
140.8403323152
 20
149.0805934181
 30
0.0
 10
141.0711171925
 20
149.0172562485
 30
0.0
 10
141.9947933053
 20
148.7608206486
 30
0.0
 10
142.9153898889
 20
148.4931627728
 30
0.0
 10
143.6034988165
 20
148.2836571883
 30
0.0
  0
SPLINE
  5
263
100
AcDbEntity
  8
0
100
AcDbSpline
 62
7
  6
BYLAYER
 70
0
 71
3
 72
9
 73
5
 74
0
 42
0.0000001
 43
0.0000001
 44
0.0000000001
 40
0.0
 40
0.0
 40
0.0
 40
0.0
 40
0.2495695226
 40
1.0
 40
1.0
 40
1.0
 40
1.0
 10
143.6034988165
 20
148.2836571883
 30
0.0
 10
143.9140072789
 20
148.1891180037
 30
0.0
 10
145.1560023804
 20
147.8032544104
 30
0.0
 10
146.3880483845
 20
147.3847938762
 30
0.0
 10
147.3038962491
 20
147.0474995162
 30
0.0
  0
SPLINE
  5
264
100
AcDbEntity
  8
0
100
AcDbSpline
 62
7
  6
BYLAYER
 70
0
 71
3
 72
9
 73
5
 74
0
 42
0.0000001
 43
0.0000001
 44
0.0000000001
 40
0.0
 40
0.0
 40
0.0
 40
0.0
 40
0.2488650905
 40
1.0
 40
1.0
 40
1.0
 40
1.0
 10
165.6052099212
 20
135.400720515
 30
0.0
 10
165.9265150477
 20
135.0518763843
 30
0.0
 10
167.1862441163
 20
133.6219932552
 30
0.0
 10
168.3123909485
 20
132.0711373683
 30
0.0
 10
169.0491001749
 20
130.8438169711
 30
0.0
  0
SPLINE
  5
265
100
AcDbEntity
  8
0
100
AcDbSpline
 62
7
  6
BYLAYER
 70
0
 71
3
 72
16
 73
12
 74
0
 42
0.0000001
 43
0.0000001
 44
0.0000000001
 40
0.0
 40
0.0
 40
0.0
 40
0.0
 40
0.1286743486
 40
0.1937346928
 40
0.2592100558
 40
0.3877780925
 40
0.4507029764
 40
0.5129624384
 40
0.6361631539
 40
0.7583868181
 40
1.0
 40
1.0
 40
1.0
 40
1.0
 10
171.9249517853
 20
121.0390389741
 30
0.0
 10
171.9033354368
 20
120.5997156194
 30
0.0
 10
171.8290666525
 20
119.9389463261
 30
0.0
 10
171.6339235845
 20
119.0738535829
 30
0.0
 10
171.3684828354
 20
118.2279053573
 30
0.0
 10
171.0111420372
 20
117.4219782971
 30
0.0
 10
170.590279294
 20
116.6632715784
 30
0.0
 10
170.1432260266
 20
115.9410648802
 30
0.0
 10
169.5281305663
 20
115.0860592222
 30
0.0
 10
168.4487491605
 20
113.8167779593
 30
0.0
 10
167.5486566522
 20
112.9533541671
 30
0.0
 10
166.9277634859
 20
112.4087115037
 30
0.0
  0
SPLINE
  5
266
100
AcDbEntity
  8
0
100
AcDbSpline
 62
7
  6
BYLAYER
 70
0
 71
3
 72
10
 73
6
 74
0
 42
0.0000001
 43
0.0000001
 44
0.0000000001
 40
0.0
 40
0.0
 40
0.0
 40
0.0
 40
0.4995075527
 40
0.7498048176
 40
1.0
 40
1.0
 40
1.0
 40
1.0
 10
127.7755252523
 20
105.9045764811
 30
0.0
 10
125.3385391379
 20
106.1133770151
 30
0.0
 10
121.6921464808
 20
106.5860017939
 30
0.0
 10
116.8792581058
 20
107.4905147348
 30
0.0
 10
114.4877830513
 20
108.0297494867
 30
0.0
 10
113.2983448692
 20
108.3232675582
 30
0.0
  0
SPLINE
  5
267
100
AcDbEntity
  8
0
100
AcDbSpline
 62
7
  6
BYLAYER
 70
0
 71
3
 72
12
 73
8
 74
0
 42
0.0000001
 43
0.0000001
 44
0.0000000001
 40
0.0
 40
0.0
 40
0.0
 40
0.0
 40
0.2505079437
 40
0.5003597554
 40
0.6250541228
 40
0.7496693393
 40
1.0
 40
1.0
 40
1.0
 40
1.0
 10
113.2983448692
 20
108.3232675582
 30
0.0
 10
112.5049210293
 20
108.5190610335
 30
0.0
 10
110.9254799135
 20
108.9321704725
 30
0.0
 10
108.96961862
 20
109.5103047715
 30
0.0
 10
107.4211675802
 20
110.0145833599
 30
0.0
 10
105.8817478753
 20
110.5505826808
 30
0.0
 10
104.7375949675
 20
110.9836890383
 30
0.0
 10
103.9765015013
 20
111.279743542
 30
0.0
  0
SPLINE
  5
268
100
AcDbEntity
  8
0
100
AcDbSpline
 62
7
  6
BYLAYER
 70
0
 71
3
 72
10
 73
6
 74
0
 42
0.0000001
 43
0.0000001
 44
0.0000000001
 40
0.0
 40
0.0
 40
0.0
 40
0.0
 40
0.2463004914
 40
0.4960545229
 40
1.0
 40
1.0
 40
1.0
 40
1.0
 10
103.9765015013
 20
111.279743542
 30
0.0
 10
102.9330728224
 20
111.6856224168
 30
0.0
 10
100.840837383
 20
112.5268418786
 30
0.0
 10
96.5899566014
 20
114.136957877
 30
0.0
 10
93.2757096749
 20
115.0597449273
 30
0.0
 10
91.028869076
 20
115.5060968367
 30
0.0
  0
SPLINE
  5
269
100
AcDbEntity
  8
0
100
AcDbSpline
 62
7
  6
BYLAYER
 70
0
 71
3
 72
9
 73
5
 74
0
 42
0.0000001
 43
0.0000001
 44
0.0000000001
 40
0.0
 40
0.0
 40
0.0
 40
0.0
 40
0.2499051505
 40
1.0
 40
1.0
 40
1.0
 40
1.0
 10
73.4797072702
 20
152.3923953654
 30
0.0
 10
74.5736397298
 20
152.403067911
 30
0.0
 10
78.9508594949
 20
152.462986957
 30
0.0
 10
83.3271284179
 20
152.5841380668
 30
0.0
 10
86.6086544564
 20
152.7012297351
 30
0.0
  0
SPLINE
  5
26A
100
AcDbEntity
  8
0
100
AcDbSpline
 62
7
  6
BYLAYER
 70
0
 71
3
 72
28
 73
24
 74
0
 42
0.0000001
 43
0.0000001
 44
0.0000000001
 40
0.0
 40
0.0
 40
0.0
 40
0.0
 40
0.0614394546
 40
0.0921779583
 40
0.122970615
 40
0.15384266
 40
0.184782272
 40
0.2467718095
 40
0.3088379475
 40
0.3398849653
 40
0.3709381762
 40
0.4330556119
 40
0.4951887944
 40
0.5262752406
 40
0.5573829081
 40
0.5885196954
 40
0.6197127357
 40
0.6822778823
 40
0.7449993564
 40
0.808056078
 40
0.8715349027
 40
0.9354311574
 40
1.0
 40
1.0
 40
1.0
 40
1.0
 10
86.6086544564
 20
152.7012297351
 30
0.0
 10
88.4105539487
 20
152.7655252535
 30
0.0
 10
91.1134918271
 20
152.8751080399
 30
0.0
 10
94.7185922202
 20
153.0380885345
 30
0.0
 10
97.4273954243
 20
153.1640478805
 30
0.0
 10
100.1426836745
 20
153.2775448692
 30
0.0
 10
103.7740567096
 20
153.3935103393
 30
0.0
 10
108.3230623223
 20
153.4447479366
 30
0.0
 10
112.8748743153
 20
153.3441589407
 30
0.0
 10
116.5138710257
 20
153.1502193148
 30
0.0
 10
120.1489338702
 20
152.8724358541
 30
0.0
 10
124.6803221334
 20
152.3679808899
 30
0.0
 10
129.1848325977
 20
151.6573364423
 30
0.0
 10
132.7687650041
 20
150.9722503167
 30
0.0
 10
135.4478133435
 20
150.4016195796
 30
0.0
 10
138.1181773168
 20
149.7776910504
 30
0.0
 10
141.6695053669
 20
148.8703333345
 30
0.0
 10
146.074649055
 20
147.5621881929
 30
0.0
 10
151.2448437958
 20
145.5875193091
 30
0.0
 10
156.2175034496
 20
143.0880483701
 30
0.0
 10
160.879519373
 20
139.9749245318
 30
0.0
 10
165.076065429
 20
136.1864160442
 30
0.0
 10
167.4264178715
 20
133.2047581083
 30
0.0
 10
168.4403660486
 20
131.6039793842
 30
0.0
  0
SPLINE
  5
26B
100
AcDbEntity
  8
0
100
AcDbSpline
 62
7
  6
BYLAYER
 70
0
 71
3
 72
16
 73
12
 74
0
 42
0.0000001
 43
0.0000001
 44
0.0000000001
 40
0.0
 40
0.0
 40
0.0
 40
0.0
 40
0.2598220322
 40
0.3888072174
 40
0.5175522668
 40
0.581337151
 40
0.6435631629
 40
0.703620374
 40
0.7617555807
 40
0.8786589294
 40
1.0
 40
1.0
 40
1.0
 40
1.0
 10
166.6547173763
 20
130.2165290225
 30
0.0
 10
167.1575901345
 20
129.4072330123
 30
0.0
 10
167.842013399
 20
128.1508909809
 30
0.0
 10
168.5809314183
 20
126.4015709338
 30
0.0
 10
168.9649172383
 20
125.2855893504
 30
0.0
 10
169.2189013135
 20
124.3863206537
 30
0.0
 10
169.3736006742
 20
123.7214163513
 30
0.0
 10
169.4829679445
 20
123.0682869486
 30
0.0
 10
169.553598576
 20
122.2078868193
 30
0.0
 10
169.4826255876
 20
121.1169667839
 30
0.0
 10
169.2846516469
 20
120.2623952138
 30
0.0
 10
169.1552606901
 20
119.8366467292
 30
0.0
  0
SPLINE
  5
26C
100
AcDbEntity
  8
0
100
AcDbSpline
 62
7
  6
BYLAYER
 70
0
 71
3
 72
9
 73
5
 74
0
 42
0.0000001
 43
0.0000001
 44
0.0000000001
 40
0.0
 40
0.0
 40
0.0
 40
0.0
 40
0.2470930832
 40
1.0
 40
1.0
 40
1.0
 40
1.0
 10
169.1552606901
 20
119.8366467292
 30
0.0
 10
169.1120777529
 20
119.6945574322
 30
0.0
 10
168.924296184
 20
119.1235039736
 30
0.0
 10
168.6876942545
 20
118.5688861671
 30
0.0
 10
168.487691331
 20
118.1629775598
 30
0.0
  0
SPLINE
  5
26D
100
AcDbEntity
  8
0
100
AcDbSpline
 62
7
  6
BYLAYER
 70
0
 71
3
 72
9
 73
5
 74
0
 42
0.0000001
 43
0.0000001
 44
0.0000000001
 40
0.0
 40
0.0
 40
0.0
 40
0.0
 40
0.2501245793
 40
1.0
 40
1.0
 40
1.0
 40
1.0
 10
167.8141158689
 20
116.9622802945
 30
0.0
 10
167.6814808012
 20
116.7521041611
 30
0.0
 10
167.1283745923
 20
115.9262659541
 30
0.0
 10
166.4899460436
 20
115.1590138373
 30
0.0
 10
165.9787183224
 20
114.6169780948
 30
0.0
  0
SPLINE
  5
26E
100
AcDbEntity
  8
0
100
AcDbSpline
 62
7
  6
BYLAYER
 70
0
 71
3
 72
9
 73
5
 74
0
 42
0.0000001
 43
0.0000001
 44
0.0000000001
 40
0.0
 40
0.0
 40
0.0
 40
0.0
 40
0.2489199553
 40
1.0
 40
1.0
 40
1.0
 40
1.0
 10
165.9787183224
 20
114.6169780948
 30
0.0
 10
165.8622009446
 20
114.4934390519
 30
0.0
 10
165.3871145173
 20
114.0037540803
 30
0.0
 10
164.885850402
 20
113.5396988489
 30
0.0
 10
164.4982042732
 20
113.204607881
 30
0.0
  0
SPLINE
  5
26F
100
AcDbEntity
  8
0
100
AcDbSpline
 62
7
  6
BYLAYER
 70
0
 71
3
 72
9
 73
5
 74
0
 42
0.0000001
 43
0.0000001
 44
0.0000000001
 40
0.0
 40
0.0
 40
0.0
 40
0.0
 40
0.2488128399
 40
1.0
 40
1.0
 40
1.0
 40
1.0
 10
164.4982042732
 20
113.204607881
 30
0.0
 10
164.2366087914
 20
112.9784782317
 30
0.0
 10
163.164607404
 20
112.0936804931
 30
0.0
 10
162.0183811297
 20
111.2996537002
 30
0.0
 10
161.1274475442
 20
110.7555269132
 30
0.0
  0
SPLINE
  5
270
100
AcDbEntity
  8
0
100
AcDbSpline
 62
7
  6
BYLAYER
 70
0
 71
3
 72
9
 73
5
 74
0
 42
0.0000001
 43
0.0000001
 44
0.0000000001
 40
0.0
 40
0.0
 40
0.0
 40
0.0
 40
0.2495511751
 40
1.0
 40
1.0
 40
1.0
 40
1.0
 10
161.1274475442
 20
110.7555269132
 30
0.0
 10
160.9410263509
 20
110.6416724501
 30
0.0
 10
160.1885278835
 20
110.1944404165
 30
0.0
 10
159.414840486
 20
109.7829952787
 30
0.0
 10
158.8248812781
 20
109.494115483
 30
0.0
  0
SPLINE
  5
271
100
AcDbEntity
  8
0
100
AcDbSpline
 62
7
  6
BYLAYER
 70
0
 71
3
 72
9
 73
5
 74
0
 42
0.0000001
 43
0.0000001
 44
0.0000000001
 40
0.0
 40
0.0
 40
0.0
 40
0.0
 40
0.7498456274
 40
1.0
 40
1.0
 40
1.0
 40
1.0
 10
158.8248812781
 20
109.494115483
 30
0.0
 10
157.7478159949
 20
108.966719021
 30
0.0
 10
156.266557719
 20
108.3506787711
 30
0.0
 10
154.7489525013
 20
107.8458166552
 30
0.0
 10
154.3672279024
 20
107.7260189934
 30
0.0
  0
SPLINE
  5
272
100
AcDbEntity
  8
0
100
AcDbSpline
 62
7
  6
BYLAYER
 70
0
 71
3
 72
9
 73
5
 74
0
 42
0.0000001
 43
0.0000001
 44
0.0000000001
 40
0.0
 40
0.0
 40
0.0
 40
0.0
 40
0.2490199575
 40
1.0
 40
1.0
 40
1.0
 40
1.0
 10
152.7969087701
 20
107.2721044846
 30
0.0
 10
152.2350561311
 20
107.1230551973
 30
0.0
 10
149.9650804204
 20
106.5761999647
 30
0.0
 10
147.6525916999
 20
106.2166329998
 30
0.0
 10
145.910421909
 20
106.0219783636
 30
0.0
  0
SPLINE
  5
273
100
AcDbEntity
  8
0
100
AcDbSpline
 62
7
  6
BYLAYER
 70
0
 71
3
 72
9
 73
5
 74
0
 42
0.0000001
 43
0.0000001
 44
0.0000000001
 40
0.0
 40
0.0
 40
0.0
 40
0.0
 40
0.2498839334
 40
1.0
 40
1.0
 40
1.0
 40
1.0
 10
145.910421909
 20
106.0219783636
 30
0.0
 10
145.2333790791
 20
105.9463315888
 30
0.0
 10
142.5188915142
 20
105.6890075439
 30
0.0
 10
139.790860489
 20
105.5896451195
 30
0.0
 10
137.7458545685
 20
105.5791127029
 30
0.0
  0
SPLINE
  5
274
100
AcDbEntity
  8
0
100
AcDbSpline
 62
7
  6
BYLAYER
 70
0
 71
3
 72
20
 73
16
 74
0
 42
0.0000001
 43
0.0000001
 44
0.0000000001
 40
0.0
 40
0.0
 40
0.0
 40
0.0
 40
0.1254697042
 40
0.2515396346
 40
0.3777808727
 40
0.5040947577
 40
0.5673476135
 40
0.5990477908
 40
0.6308300465
 40
0.7549653058
 40
0.7853277332
 40
0.8157916837
 40
0.8770122731
 40
0.9384666511
 40
1.0
 40
1.0
 40
1.0
 40
1.0
 10
128.2094820626
 20
103.6301678543
 30
0.0
 10
126.9845609508
 20
103.7013664388
 30
0.0
 10
124.5295763008
 20
103.8586581293
 30
0.0
 10
120.8505624254
 20
104.2050730026
 30
0.0
 10
117.1829827018
 20
104.7264866625
 30
0.0
 10
114.1575249876
 20
105.3625807168
 30
0.0
 10
112.0717991092
 20
105.9414412127
 30
0.0
 10
110.8900540669
 20
106.3151954975
 30
0.0
 10
109.1538770086
 20
106.9096089216
 30
0.0
 10
107.4767595133
 20
107.6252057125
 30
0.0
 10
105.7798525642
 20
108.2516001065
 30
0.0
 10
104.6555135182
 20
108.6520941877
 30
0.0
 10
103.2375186575
 20
109.1339483364
 30
0.0
 10
101.5272076946
 20
109.6995237973
 30
0.0
 10
100.3844514179
 20
110.0745476519
 30
0.0
 10
99.8124132072
 20
110.2612796571
 30
0.0
  0
SPLINE
  5
275
100
AcDbEntity
  8
0
100
AcDbSpline
 62
7
  6
BYLAYER
 70
0
 71
3
 72
11
 73
7
 74
0
 42
0.0000001
 43
0.0000001
 44
0.0000000001
 40
0.0
 40
0.0
 40
0.0
 40
0.0
 40
0.248137606
 40
0.49750123
 40
0.7483935581
 40
1.0
 40
1.0
 40
1.0
 40
1.0
 10
137.7458545685
 20
105.5791127029
 30
0.0
 10
136.7557400131
 20
105.5740133049
 30
0.0
 10
134.7703994772
 20
105.5935409004
 30
0.0
 10
131.7856180013
 20
105.6935077059
 30
0.0
 10
128.7892742243
 20
105.8452524366
 30
0.0
 10
126.7878861976
 20
105.9682894781
 30
0.0
 10
125.7864302715
 20
106.0392831892
 30
0.0
  0
SPLINE
  5
276
100
AcDbEntity
  8
0
100
AcDbSpline
 62
7
  6
BYLAYER
 70
0
 71
3
 72
19
 73
15
 74
0
 42
0.0000001
 43
0.0000001
 44
0.0000000001
 40
0.0
 40
0.0
 40
0.0
 40
0.0
 40
0.1235720007
 40
0.2463286484
 40
0.3074809554
 40
0.3684809631
 40
0.4294477441
 40
0.4912313954
 40
0.554717646
 40
0.6190302894
 40
0.6831217181
 40
0.7469188894
 40
0.8737659753
 40
1.0
 40
1.0
 40
1.0
 40
1.0
 10
117.8566099778
 20
106.9346837498
 30
0.0
 10
117.1145105368
 20
107.0613357102
 30
0.0
 10
115.6401325464
 20
107.3440690971
 30
0.0
 10
113.8188647713
 20
107.7862925071
 30
0.0
 10
112.3850063339
 20
108.1995864674
 30
0.0
 10
111.3225850892
 20
108.5404995122
 30
0.0
 10
110.2679726509
 20
108.9166486196
 30
0.0
 10
109.2126792779
 20
109.3336412685
 30
0.0
 10
108.1416583176
 20
109.7659308846
 30
0.0
 10
107.0499459739
 20
110.1843004117
 30
0.0
 10
105.9485904668
 20
110.5820697927
 30
0.0
 10
104.4823223845
 20
111.0905688635
 30
0.0
 10
102.6501085787
 20
111.6988298246
 30
0.0
 10
101.1853018222
 20
112.180032651
 30
0.0
 10
100.4542000194
 20
112.4186196418
 30
0.0
  0
SPLINE
  5
277
100
AcDbEntity
  8
0
100
AcDbSpline
 62
7
  6
BYLAYER
 70
0
 71
3
 72
16
 73
12
 74
0
 42
0.0000001
 43
0.0000001
 44
0.0000000001
 40
0.0
 40
0.0
 40
0.0
 40
0.0
 40
0.1229647948
 40
0.2461833042
 40
0.3699212978
 40
0.4956175902
 40
0.6232220498
 40
0.6876818811
 40
0.7527374718
 40
0.8798430252
 40
1.0
 40
1.0
 40
1.0
 40
1.0
 10
100.4542000194
 20
112.4186196418
 30
0.0
 10
99.6843194943
 20
112.66986164
 30
0.0
 10
98.1421602542
 20
113.170393918
 30
0.0
 10
95.8214125329
 20
113.9117578091
 30
0.0
 10
93.4832477355
 20
114.6576453918
 30
0.0
 10
91.1095422233
 20
115.3873146452
 30
0.0
 10
89.0752568566
 20
115.8891673928
 30
0.0
 10
87.4048961214
 20
116.1721365368
 30
0.0
 10
85.7225151235
 20
116.3497630106
 30
0.0
 10
83.6633518639
 20
116.3587840118
 30
0.0
 10
82.0345083992
 20
116.3452454538
 30
0.0
 10
81.2440478362
 20
116.3826799204
 30
0.0
  0
SPLINE
  5
278
100
AcDbEntity
  8
0
100
AcDbSpline
 62
7
  6
BYLAYER
 70
0
 71
3
 72
46
 73
42
 74
0
 42
0.0000001
 43
0.0000001
 44
0.0000000001
 40
0.0
 40
0.0
 40
0.0
 40
0.0
 40
0.0637088892
 40
0.1273633837
 40
0.1591540874
 40
0.1908654431
 40
0.2224603863
 40
0.2539488582
 40
0.3169367663
 40
0.3486018722
 40
0.3804410497
 40
0.4123047875
 40
0.4440153399
 40
0.5065024802
 40
0.5372488278
 40
0.5678622908
 40
0.598818952
 40
0.6146581918
 40
0.630872825
 40
0.6472976259
 40
0.663422242
 40
0.6788100085
 40
0.6932238484
 40
0.7067810965
 40
0.7134958114
 40
0.7204153414
 40
0.7275760269
 40
0.7349764199
 40
0.7503455524
 40
0.7661043636
 40
0.7817118057
 40
0.797094124
 40
0.812419411
 40
0.8432480547
 40
0.8588187561
 40
0.874430294
 40
0.8900360481
 40
0.9056437531
 40
0.9369356064
 40
0.9684024687
 40
1.0
 40
1.0
 40
1.0
 40
1.0
 10
73.4796220651
 20
150.1715616804
 30
0.0
 10
76.7128335948
 20
150.1794328707
 30
0.0
 10
83.1763266631
 20
150.2799952327
 30
0.0
 10
91.2495676308
 20
150.5293679405
 30
0.0
 10
97.6991757153
 20
150.7445025701
 30
0.0
 10
102.5239531017
 20
150.8642472843
 30
0.0
 10
107.3352029924
 20
150.8964684137
 30
0.0
 10
113.7324645743
 20
150.7500919669
 30
0.0
 10
120.1228737799
 20
150.283191953
 30
0.0
 10
126.4945067799
 20
149.4941978571
 30
0.0
 10
131.277293775
 20
148.7468160653
 30
0.0
 10
136.0301971023
 20
147.811025692
 30
0.0
 10
142.2412317696
 20
146.272881588
 30
0.0
 10
148.2610485558
 20
144.2010127729
 30
0.0
 10
153.9135303887
 20
141.43493722
 30
0.0
 10
157.9067009994
 20
138.9679254593
 30
0.0
 10
160.998431609
 20
136.5270854809
 30
0.0
 10
163.3117154426
 20
134.3165714308
 30
0.0
 10
164.9804263615
 20
132.5064260828
 30
0.0
 10
166.5349113582
 20
130.5778218767
 30
0.0
 10
167.8902340135
 20
128.5524527015
 30
0.0
 10
168.9507925744
 20
126.4686809929
 30
0.0
 10
169.6290961809
 20
124.3630516436
 30
0.0
 10
169.8016209209
 20
122.5917092255
 30
0.0
 10
169.6552886751
 20
121.2157370357
 30
0.0
 10
169.4131014418
 20
120.1860610565
 30
0.0
 10
169.0493182036
 20
119.156390797
 30
0.0
 10
168.406762329
 20
117.7779180956
 30
0.0
 10
167.3563832913
 20
116.1186230517
 30
0.0
 10
165.8250585477
 20
114.299866523
 30
0.0
 10
164.0901084415
 20
112.6739310049
 30
0.0
 10
162.2025188583
 20
111.2656045004
 30
0.0
 10
159.5188047431
 20
109.660053145
 30
0.0
 10
156.6250943304
 20
108.4213890103
 30
0.0
 10
153.6241166793
 20
107.4715546605
 30
0.0
 10
151.3242227356
 20
106.876443668
 30
0.0
 10
148.9981899575
 20
106.3864181575
 30
0.0
 10
145.868037472
 20
105.8668744099
 30
0.0
 10
141.9089613261
 20
105.449437414
 30
0.0
 10
137.1220109667
 20
105.2574243023
 30
0.0
 10
133.9201911181
 20
105.2863856371
 30
0.0
 10
132.3175241086
 20
105.3402590257
 30
0.0
  0
SPLINE
  5
279
100
AcDbEntity
  8
0
100
AcDbSpline
 62
7
  6
BYLAYER
 70
0
 71
3
 72
49
 73
45
 74
0
 42
0.0000001
 43
0.0000001
 44
0.0000000001
 40
0.0
 40
0.0
 40
0.0
 40
0.0
 40
0.0605445223
 40
0.1211966658
 40
0.1516060126
 40
0.1820692845
 40
0.2125707194
 40
0.2430828015
 40
0.304164627
 40
0.3348475854
 40
0.3657317018
 40
0.3967574513
 40
0.4278094796
 40
0.458774411
 40
0.4895823271
 40
0.520233279
 40
0.5509060624
 40
0.5819904615
 40
0.5978639891
 40
0.6140585255
 40
0.6306648717
 40
0.6475427264
 40
0.6643504857
 40
0.6808995485
 40
0.6890866536
 40
0.6972450594
 40
0.7054259523
 40
0.7136634388
 40
0.7219072939
 40
0.7301871353
 40
0.7469034481
 40
0.7637823844
 40
0.7805436134
 40
0.7969391122
 40
0.8130455816
 40
0.8289815691
 40
0.8448190536
 40
0.8762457276
 40
0.8918300688
 40
0.9073428652
 40
0.9382691196
 40
0.9691405659
 40
0.9845709758
 40
1.0
 40
1.0
 40
1.0
 40
1.0
 10
73.4807397173
 20
152.4215704996
 30
0.0
 10
76.6572946154
 20
152.429359665
 30
0.0
 10
83.0158816385
 20
152.5275328605
 30
0.0
 10
90.9664468784
 20
152.7709468373
 30
0.0
 10
97.3388719456
 20
152.9843409451
 30
0.0
 10
102.1314634124
 20
153.1072178623
 30
0.0
 10
106.9312441188
 20
153.1482521346
 30
0.0
 10
113.3366790294
 20
153.0212616267
 30
0.0
 10
119.7425017284
 20
152.5783179818
 30
0.0
 10
126.1328203312
 20
151.8148896392
 30
0.0
 10
130.9371416681
 20
151.0881365479
 30
0.0
 10
135.7302626645
 20
150.1778973616
 30
0.0
 10
140.4809977458
 20
149.0458629532
 30
0.0
 10
145.1501271825
 20
147.6498309126
 30
0.0
 10
149.6949848421
 20
145.9469238433
 30
0.0
 10
154.0800964505
 20
143.8990394698
 30
0.0
 10
158.2692107583
 20
141.4422413438
 30
0.0
 10
161.543766048
 20
139.0030518598
 30
0.0
 10
164.0109811606
 20
136.7885894511
 30
0.0
 10
165.8011610186
 20
134.9649232671
 30
0.0
 10
167.5092132938
 20
132.9937191506
 30
0.0
 10
169.0855484968
 20
130.8734323846
 30
0.0
 10
170.4391757683
 20
128.6056900981
 30
0.0
 10
171.2987086937
 20
126.5914559781
 30
0.0
 10
171.7541425362
 20
124.9241392117
 30
0.0
 10
171.9640131715
 20
123.6519040302
 30
0.0
 10
172.023683537
 20
122.3604816097
 30
0.0
 10
171.9157149432
 20
121.0673361478
 30
0.0
 10
171.6446660914
 20
119.7936336652
 30
0.0
 10
171.0960597814
 20
118.1351981781
 30
0.0
 10
170.1035726354
 20
116.1611906481
 30
0.0
 10
168.5671119932
 20
114.0024662019
 30
0.0
 10
166.7843767373
 20
112.0668623036
 30
0.0
 10
164.8237970012
 20
110.3745387256
 30
0.0
 10
162.7295029129
 20
108.9271145387
 30
0.0
 10
160.5319817404
 20
107.7027842804
 30
0.0
 10
157.5061864893
 20
106.3386637743
 30
0.0
 10
154.3614078547
 20
105.3145439602
 30
0.0
 10
151.1746853662
 20
104.5345000726
 30
0.0
 10
147.9815833856
 20
103.9014773204
 30
0.0
 10
143.9570565587
 20
103.3618205702
 30
0.0
 10
139.9107397637
 20
103.1040098667
 30
0.0
 10
136.6725337607
 20
103.0310326885
 30
0.0
 10
135.0532481297
 20
103.0332726248
 30
0.0
 10
134.2438145139
 20
103.0442641596
 30
0.0
  0
SPLINE
  5
27A
100
AcDbEntity
  8
0
100
AcDbSpline
 62
7
  6
BYLAYER
 70
0
 71
3
 72
25
 73
21
 74
0
 42
0.0000001
 43
0.0000001
 44
0.0000000001
 40
0.0
 40
0.0
 40
0.0
 40
0.0
 40
0.1238207884
 40
0.247236538
 40
0.3087946302
 40
0.3702200726
 40
0.4317126107
 40
0.4936283123
 40
0.5560343612
 40
0.618827988
 40
0.681911274
 40
0.7453778345
 40
0.777236481
 40
0.809115359
 40
0.8409892022
 40
0.8728372639
 40
0.9046555726
 40
0.9363909432
 40
0.9680863379
 40
1.0
 40
1.0
 40
1.0
 40
1.0
 10
132.3175241086
 20
105.3402590257
 30
0.0
 10
130.0916209092
 20
105.4150823965
 30
0.0
 10
125.6503528355
 20
105.7162757736
 30
0.0
 10
120.1482752517
 20
106.5238028637
 30
0.0
 10
115.8129330189
 20
107.4505094633
 30
0.0
 10
112.6025228633
 20
108.2944509072
 30
0.0
 10
109.4309762851
 20
109.2958046399
 30
0.0
 10
106.2888339188
 20
110.4363476796
 30
0.0
 10
103.1437241901
 20
111.6343967937
 30
0.0
 10
99.9717823991
 20
112.821394894
 30
0.0
 10
96.7496558366
 20
113.9269036199
 30
0.0
 10
94.0076612034
 20
114.7092633726
 30
0.0
 10
91.7763952708
 20
115.218023292
 30
0.0
 10
90.0857236308
 20
115.5351822935
 30
0.0
 10
88.38549776
 20
115.7942900231
 30
0.0
 10
86.6793182754
 20
116.0015284938
 30
0.0
 10
84.9705806929
 20
116.1612495825
 30
0.0
 10
83.2611254306
 20
116.2776176513
 30
0.0
 10
81.5480365038
 20
116.3584490844
 30
0.0
 10
80.4039719217
 20
116.387614311
 30
0.0
 10
79.8299419346
 20
116.387614311
 30
0.0
  0
SPLINE
  5
27B
100
AcDbEntity
  8
0
100
AcDbSpline
 62
7
  6
BYLAYER
 70
0
 71
3
 72
27
 73
23
 74
0
 42
0.0000001
 43
0.0000001
 44
0.0000000001
 40
0.0
 40
0.0
 40
0.0
 40
0.0
 40
0.063455346
 40
0.1269630837
 40
0.1904689794
 40
0.2539573453
 40
0.3174169116
 40
0.3808892911
 40
0.4443869693
 40
0.5076368296
 40
0.5704618867
 40
0.632731021
 40
0.6943599174
 40
0.7553086909
 40
0.7856421594
 40
0.816043102
 40
0.8465624606
 40
0.877200173
 40
0.9079277323
 40
0.9387439504
 40
0.9695528703
 40
1.0
 40
1.0
 40
1.0
 40
1.0
 10
134.2438145139
 20
103.0442641596
 30
0.0
 10
133.0617495501
 20
103.060315764
 30
0.0
 10
130.6969900817
 20
103.1340617613
 30
0.0
 10
127.1558248744
 20
103.3733609757
 30
0.0
 10
123.6259843535
 20
103.7515313705
 30
0.0
 10
120.1157521327
 20
104.2761734783
 30
0.0
 10
116.6322303789
 20
104.9534155664
 30
0.0
 10
113.1839489382
 20
105.7932276683
 30
0.0
 10
109.7851714618
 20
106.8022479673
 30
0.0
 10
106.4518764937
 20
107.9721286952
 30
0.0
 10
103.1706973716
 20
109.2154351344
 30
0.0
 10
99.9170341114
 20
110.4463182404
 30
0.0
 10
96.6678406797
 20
111.5891010375
 30
0.0
 10
93.9351633134
 20
112.4011910999
 30
0.0
 10
91.729663923
 20
112.9278364646
 30
0.0
 10
90.0611900401
 20
113.2563155452
 30
0.0
 10
88.3762878443
 20
113.5241460275
 30
0.0
 10
86.6777033487
 20
113.7386483907
 30
0.0
 10
84.968144986
 20
113.9042436151
 30
0.0
 10
83.2516478864
 20
114.0247786046
 30
0.0
 10
81.5382809993
 20
114.1070817313
 30
0.0
 10
80.3971723665
 20
114.137614311
 30
0.0
 10
79.8299419346
 20
114.137614311
 30
0.0
  0
ENDSEC
  0
SECTION
  2
OBJECTS
  0
DICTIONARY
  5
C
100
AcDbDictionary
280
0
281
1
  3
ACAD_GROUP
350
D
  3
ACAD_MLINESTYLE
350
17
  3
ACAD_LAYOUT
350
1A
  3
ACAD_PLOTSETTINGS
350
19
  3
ACAD_PLOTSTYLENAME
350
E
  0
DICTIONARY
  5
D
102
{ACAD_REACTORS
330
C
102
}
100
AcDbDictionary
280
0
281
1
  0
ACDBDICTIONARYWDFLT
  5
E
102
{ACAD_REACTORS
330
C
102
}
100
AcDbDictionary
281
1
  3
Normal
350
F
100
AcDbDictionaryWithDefault
340
F
  0
DICTIONARY
  5
17
102
{ACAD_REACTORS
330
C
102
}
100
AcDbDictionary
280
0
281
1
  3
Standard
350
18
  0
DICTIONARY
  5
19
102
{ACAD_REACTORS
330
C
102
}
100
AcDbDictionary
281
1
  0
DICTIONARY
  5
1A
102
{ACAD_REACTORS
330
C
102
}
100
AcDbDictionary
281
1
  3
Model
350
27C
  3
Layout1
350
27D
  0
ACDBPLACEHOLDER
  5
F
102
{ACAD_REACTORS
330
E
102
}
  0
MLINESTYLE
  5
18
102
{ACAD_REACTORS
330
17
102
}
100
AcDbMlineStyle
  2
STANDARD
 70
0
  3

 62
256
 51
90.0
 52
90.0
 71
2
 49
0.5
 62
256
  6
BYLAYER
 49
-0.5
 62
256
  6
BYLAYER
  0
LAYOUT
  5
27C
102
{ACAD_REACTORS
330
1A
102
}
100
AcDbPlotSettings
  1

  2
none_device
  4

  6

 40
0.0
 41
0.0
 42
0.0
 43
0.0
 44
210.0
 45
297.0
 46
0.0
 47
0.0
 48
0.0
 49
0.0
140
0.0
141
0.0
142
1.0
143
1.0
 70
1024
 72
1
 73
0
 74
0
  7

 75
0
147
1.0
148
0.0
149
0.0
100
AcDbLayout
  1
Model
 70
0
 71
0
 10
0.0
 20
0.0
 11
210.0
 21
297.0
 12
0.0
 22
0.0
 32
0.0
 14
0.0
 24
0.0
 34
0.0
 15
0.0
 25
0.0
 35
0.0
146
0.0
 13
0.0
 23
0.0
 33
0.0
 16
1.0
 26
0.0
 36
0.0
 17
0.0
 27
1.0
 37
0.0
 76
0
330
210
345
0
346
0
  0
LAYOUT
  5
27D
102
{ACAD_REACTORS
330
1A
102
}
100
AcDbPlotSettings
  1

  2
none_device
  4

  6

 40
0.0
 41
0.0
 42
0.0
 43
0.0
 44
210.0
 45
297.0
 46
0.0
 47
0.0
 48
0.0
 49
0.0
140
0.0
141
0.0
142
1.0
143
1.0
 70
0
 72
1
 73
0
 74
0
  7

 75
0
147
1.0
148
0.0
149
0.0
100
AcDbLayout
  1
Layout1
 70
0
 71
1
 10
0.0
 20
0.0
 11
210.0
 21
297.0
 12
0.0
 22
0.0
 32
0.0
 14
0.0
 24
0.0
 34
0.0
 15
0.0
 25
0.0
 35
0.0
146
0.0
 13
0.0
 23
0.0
 33
0.0
 16
1.0
 26
0.0
 36
0.0
 17
0.0
 27
1.0
 37
0.0
 76
0
330
211
345
0
346
0
  0
ENDSEC
  0
EOF
