solid CATIA STL
  facet normal  -0.000000e+000  0.000000e+000 -1.000000e+000
    outer loop
      vertex  8.750000e+001 -6.900000e+001  0.000000e+000
      vertex  1.000000e+002 -7.750000e+001  0.000000e+000
      vertex  9.899519e+001 -8.125000e+001  0.000000e+000
    endloop
  endfacet
  facet normal  -0.000000e+000  0.000000e+000 -1.000000e+000
    outer loop
      vertex  8.750000e+001 -6.900000e+001  0.000000e+000
      vertex  9.899519e+001 -8.125000e+001  0.000000e+000
      vertex  9.625000e+001 -8.399519e+001  0.000000e+000
    endloop
  endfacet
  facet normal  -0.000000e+000  0.000000e+000 -1.000000e+000
    outer loop
      vertex  8.750000e+001 -6.900000e+001  0.000000e+000
      vertex  9.625000e+001 -8.399519e+001  0.000000e+000
      vertex  9.250000e+001 -8.500000e+001  0.000000e+000
    endloop
  endfacet
  facet normal  0.000000e+000  -0.000000e+000 -1.000000e+000
    outer loop
      vertex -1.000000e+002 -7.750000e+001  0.000000e+000
      vertex -9.500000e+001  6.150000e+001  0.000000e+000
      vertex -9.500000e+001 -6.150000e+001  0.000000e+000
    endloop
  endfacet
  facet normal  0.000000e+000  -0.000000e+000 -1.000000e+000
    outer loop
      vertex -1.000000e+002 -7.750000e+001  0.000000e+000
      vertex -9.500000e+001 -6.150000e+001  0.000000e+000
      vertex -9.399519e+001 -6.525000e+001  0.000000e+000
    endloop
  endfacet
  facet normal  0.000000e+000  -0.000000e+000 -1.000000e+000
    outer loop
      vertex -1.000000e+002 -7.750000e+001  0.000000e+000
      vertex -9.399519e+001 -6.525000e+001  0.000000e+000
      vertex -9.125000e+001 -6.799519e+001  0.000000e+000
    endloop
  endfacet
  facet normal  0.000000e+000  -0.000000e+000 -1.000000e+000
    outer loop
      vertex -1.000000e+002 -7.750000e+001  0.000000e+000
      vertex -9.125000e+001 -6.799519e+001  0.000000e+000
      vertex -8.750000e+001 -6.900000e+001  0.000000e+000
    endloop
  endfacet
  facet normal  0.000000e+000  -0.000000e+000 -1.000000e+000
    outer loop
      vertex -1.000000e+002  7.750000e+001  0.000000e+000
      vertex -9.899519e+001  8.125000e+001  0.000000e+000
      vertex -9.625000e+001  8.399519e+001  0.000000e+000
    endloop
  endfacet
  facet normal  0.000000e+000  -0.000000e+000 -1.000000e+000
    outer loop
      vertex -1.000000e+002  7.750000e+001  0.000000e+000
      vertex -9.625000e+001  8.399519e+001  0.000000e+000
      vertex -9.250000e+001  8.500000e+001  0.000000e+000
    endloop
  endfacet
  facet normal  0.000000e+000  -0.000000e+000 -1.000000e+000
    outer loop
      vertex -1.000000e+002  7.750000e+001  0.000000e+000
      vertex -9.250000e+001  8.500000e+001  0.000000e+000
      vertex -8.750000e+001  6.900000e+001  0.000000e+000
    endloop
  endfacet
  facet normal  -0.000000e+000  0.000000e+000 -1.000000e+000
    outer loop
      vertex -1.000000e+002  7.750000e+001  0.000000e+000
      vertex -8.750000e+001  6.900000e+001  0.000000e+000
      vertex -9.125000e+001  6.799519e+001  0.000000e+000
    endloop
  endfacet
  facet normal  -0.000000e+000  0.000000e+000 -1.000000e+000
    outer loop
      vertex -1.000000e+002  7.750000e+001  0.000000e+000
      vertex -9.125000e+001  6.799519e+001  0.000000e+000
      vertex -9.399519e+001  6.525000e+001  0.000000e+000
    endloop
  endfacet
  facet normal  -0.000000e+000  0.000000e+000 -1.000000e+000
    outer loop
      vertex -1.000000e+002  7.750000e+001  0.000000e+000
      vertex -9.399519e+001  6.525000e+001  0.000000e+000
      vertex -9.500000e+001  6.150000e+001  0.000000e+000
    endloop
  endfacet
  facet normal  -0.000000e+000  0.000000e+000 -1.000000e+000
    outer loop
      vertex -1.000000e+002  7.750000e+001  0.000000e+000
      vertex -9.500000e+001  6.150000e+001  0.000000e+000
      vertex -1.000000e+002 -7.750000e+001  0.000000e+000
    endloop
  endfacet
  facet normal  0.000000e+000  0.000000e+000 -1.000000e+000
    outer loop
      vertex  1.000000e+002 -7.750000e+001  0.000000e+000
      vertex  8.750000e+001 -6.900000e+001  0.000000e+000
      vertex  9.125000e+001 -6.799519e+001  0.000000e+000
    endloop
  endfacet
  facet normal  0.000000e+000  0.000000e+000 -1.000000e+000
    outer loop
      vertex  1.000000e+002 -7.750000e+001  0.000000e+000
      vertex  9.125000e+001 -6.799519e+001  0.000000e+000
      vertex  9.399519e+001 -6.525000e+001  0.000000e+000
    endloop
  endfacet
  facet normal  0.000000e+000  0.000000e+000 -1.000000e+000
    outer loop
      vertex  1.000000e+002 -7.750000e+001  0.000000e+000
      vertex  9.399519e+001 -6.525000e+001  0.000000e+000
      vertex  9.500000e+001 -6.150000e+001  0.000000e+000
    endloop
  endfacet
  facet normal  0.000000e+000  0.000000e+000 -1.000000e+000
    outer loop
      vertex  1.000000e+002 -7.750000e+001  0.000000e+000
      vertex  9.500000e+001 -6.150000e+001  0.000000e+000
      vertex  9.500000e+001  6.150000e+001  0.000000e+000
    endloop
  endfacet
  facet normal  0.000000e+000  0.000000e+000 -1.000000e+000
    outer loop
      vertex  1.000000e+002  7.750000e+001  0.000000e+000
      vertex  1.000000e+002 -7.750000e+001  0.000000e+000
      vertex  9.500000e+001  6.150000e+001  0.000000e+000
    endloop
  endfacet
  facet normal  0.000000e+000  0.000000e+000 -1.000000e+000
    outer loop
      vertex  1.000000e+002  7.750000e+001  0.000000e+000
      vertex  9.500000e+001  6.150000e+001  0.000000e+000
      vertex  9.399519e+001  6.525000e+001  0.000000e+000
    endloop
  endfacet
  facet normal  0.000000e+000  0.000000e+000 -1.000000e+000
    outer loop
      vertex  1.000000e+002  7.750000e+001  0.000000e+000
      vertex  9.399519e+001  6.525000e+001  0.000000e+000
      vertex  9.125000e+001  6.799519e+001  0.000000e+000
    endloop
  endfacet
  facet normal  0.000000e+000  0.000000e+000 -1.000000e+000
    outer loop
      vertex  1.000000e+002  7.750000e+001  0.000000e+000
      vertex  9.125000e+001  6.799519e+001  0.000000e+000
      vertex  8.750000e+001  6.900000e+001  0.000000e+000
    endloop
  endfacet
  facet normal  0.000000e+000  0.000000e+000 -1.000000e+000
    outer loop
      vertex  1.000000e+002  7.750000e+001  0.000000e+000
      vertex  8.750000e+001  6.900000e+001  0.000000e+000
      vertex  9.625000e+001  8.399519e+001  0.000000e+000
    endloop
  endfacet
  facet normal  0.000000e+000  0.000000e+000 -1.000000e+000
    outer loop
      vertex  1.000000e+002  7.750000e+001  0.000000e+000
      vertex  9.625000e+001  8.399519e+001  0.000000e+000
      vertex  9.899519e+001  8.125000e+001  0.000000e+000
    endloop
  endfacet
  facet normal  0.000000e+000  0.000000e+000 -1.000000e+000
    outer loop
      vertex -9.899519e+001 -8.125000e+001  0.000000e+000
      vertex -1.000000e+002 -7.750000e+001  0.000000e+000
      vertex -9.625000e+001 -8.399519e+001  0.000000e+000
    endloop
  endfacet
  facet normal  0.000000e+000  0.000000e+000 -1.000000e+000
    outer loop
      vertex -9.625000e+001 -8.399519e+001  0.000000e+000
      vertex -1.000000e+002 -7.750000e+001  0.000000e+000
      vertex -8.750000e+001 -6.900000e+001  0.000000e+000
    endloop
  endfacet
  facet normal  0.000000e+000  0.000000e+000 -1.000000e+000
    outer loop
      vertex -9.625000e+001 -8.399519e+001  0.000000e+000
      vertex -8.750000e+001 -6.900000e+001  0.000000e+000
      vertex -9.250000e+001 -8.500000e+001  0.000000e+000
    endloop
  endfacet
  facet normal  0.000000e+000  0.000000e+000 -1.000000e+000
    outer loop
      vertex -9.250000e+001 -8.500000e+001  0.000000e+000
      vertex -8.750000e+001 -6.900000e+001  0.000000e+000
      vertex  8.750000e+001 -6.900000e+001  0.000000e+000
    endloop
  endfacet
  facet normal  0.000000e+000  -0.000000e+000 -1.000000e+000
    outer loop
      vertex -9.250000e+001 -8.500000e+001  0.000000e+000
      vertex  8.750000e+001 -6.900000e+001  0.000000e+000
      vertex  9.250000e+001 -8.500000e+001  0.000000e+000
    endloop
  endfacet
  facet normal  0.000000e+000  0.000000e+000 -1.000000e+000
    outer loop
      vertex  9.625000e+001  8.399519e+001  0.000000e+000
      vertex  8.750000e+001  6.900000e+001  0.000000e+000
      vertex  9.250000e+001  8.500000e+001  0.000000e+000
    endloop
  endfacet
  facet normal  0.000000e+000  0.000000e+000 -1.000000e+000
    outer loop
      vertex  9.250000e+001  8.500000e+001  0.000000e+000
      vertex  8.750000e+001  6.900000e+001  0.000000e+000
      vertex -8.750000e+001  6.900000e+001  0.000000e+000
    endloop
  endfacet
  facet normal  0.000000e+000  0.000000e+000 -1.000000e+000
    outer loop
      vertex  9.250000e+001  8.500000e+001  0.000000e+000
      vertex -8.750000e+001  6.900000e+001  0.000000e+000
      vertex -9.250000e+001  8.500000e+001  0.000000e+000
    endloop
  endfacet
  facet normal  0.000000e+000  -0.000000e+000  1.000000e+000
    outer loop
      vertex  8.750000e+001 -6.900000e+001  5.000000e+000
      vertex  9.250000e+001 -8.500000e+001  5.000000e+000
      vertex  9.625000e+001 -8.399519e+001  5.000000e+000
    endloop
  endfacet
  facet normal  0.000000e+000  -0.000000e+000  1.000000e+000
    outer loop
      vertex  8.750000e+001 -6.900000e+001  5.000000e+000
      vertex  9.625000e+001 -8.399519e+001  5.000000e+000
      vertex  9.899519e+001 -8.125000e+001  5.000000e+000
    endloop
  endfacet
  facet normal  0.000000e+000  -0.000000e+000  1.000000e+000
    outer loop
      vertex  8.750000e+001 -6.900000e+001  5.000000e+000
      vertex  9.899519e+001 -8.125000e+001  5.000000e+000
      vertex  1.000000e+002 -7.750000e+001  5.000000e+000
    endloop
  endfacet
  facet normal  0.000000e+000  0.000000e+000  1.000000e+000
    outer loop
      vertex -1.000000e+002 -7.750000e+001  5.000000e+000
      vertex -8.750000e+001 -6.900000e+001  5.000000e+000
      vertex -9.125000e+001 -6.799519e+001  5.000000e+000
    endloop
  endfacet
  facet normal  0.000000e+000  0.000000e+000  1.000000e+000
    outer loop
      vertex -1.000000e+002 -7.750000e+001  5.000000e+000
      vertex -9.125000e+001 -6.799519e+001  5.000000e+000
      vertex -9.399519e+001 -6.525000e+001  5.000000e+000
    endloop
  endfacet
  facet normal  0.000000e+000  0.000000e+000  1.000000e+000
    outer loop
      vertex -1.000000e+002 -7.750000e+001  5.000000e+000
      vertex -9.399519e+001 -6.525000e+001  5.000000e+000
      vertex -9.500000e+001 -6.150000e+001  5.000000e+000
    endloop
  endfacet
  facet normal  0.000000e+000  -0.000000e+000  1.000000e+000
    outer loop
      vertex -1.000000e+002 -7.750000e+001  5.000000e+000
      vertex -9.500000e+001 -6.150000e+001  5.000000e+000
      vertex -9.500000e+001  6.150000e+001  5.000000e+000
    endloop
  endfacet
  facet normal  0.000000e+000  0.000000e+000  1.000000e+000
    outer loop
      vertex -1.000000e+002  7.750000e+001  5.000000e+000
      vertex -1.000000e+002 -7.750000e+001  5.000000e+000
      vertex -9.500000e+001  6.150000e+001  5.000000e+000
    endloop
  endfacet
  facet normal  0.000000e+000  -0.000000e+000  1.000000e+000
    outer loop
      vertex -1.000000e+002  7.750000e+001  5.000000e+000
      vertex -9.500000e+001  6.150000e+001  5.000000e+000
      vertex -9.399519e+001  6.525000e+001  5.000000e+000
    endloop
  endfacet
  facet normal  0.000000e+000  -0.000000e+000  1.000000e+000
    outer loop
      vertex -1.000000e+002  7.750000e+001  5.000000e+000
      vertex -9.399519e+001  6.525000e+001  5.000000e+000
      vertex -9.125000e+001  6.799519e+001  5.000000e+000
    endloop
  endfacet
  facet normal  0.000000e+000  -0.000000e+000  1.000000e+000
    outer loop
      vertex -1.000000e+002  7.750000e+001  5.000000e+000
      vertex -9.125000e+001  6.799519e+001  5.000000e+000
      vertex -8.750000e+001  6.900000e+001  5.000000e+000
    endloop
  endfacet
  facet normal  0.000000e+000  0.000000e+000  1.000000e+000
    outer loop
      vertex -1.000000e+002  7.750000e+001  5.000000e+000
      vertex -8.750000e+001  6.900000e+001  5.000000e+000
      vertex -9.250000e+001  8.500000e+001  5.000000e+000
    endloop
  endfacet
  facet normal  0.000000e+000  0.000000e+000  1.000000e+000
    outer loop
      vertex -1.000000e+002  7.750000e+001  5.000000e+000
      vertex -9.250000e+001  8.500000e+001  5.000000e+000
      vertex -9.625000e+001  8.399519e+001  5.000000e+000
    endloop
  endfacet
  facet normal  0.000000e+000  0.000000e+000  1.000000e+000
    outer loop
      vertex -1.000000e+002  7.750000e+001  5.000000e+000
      vertex -9.625000e+001  8.399519e+001  5.000000e+000
      vertex -9.899519e+001  8.125000e+001  5.000000e+000
    endloop
  endfacet
  facet normal  0.000000e+000  0.000000e+000  1.000000e+000
    outer loop
      vertex  1.000000e+002 -7.750000e+001  5.000000e+000
      vertex  9.500000e+001  6.150000e+001  5.000000e+000
      vertex  9.500000e+001 -6.150000e+001  5.000000e+000
    endloop
  endfacet
  facet normal  0.000000e+000  0.000000e+000  1.000000e+000
    outer loop
      vertex  1.000000e+002 -7.750000e+001  5.000000e+000
      vertex  9.500000e+001 -6.150000e+001  5.000000e+000
      vertex  9.399519e+001 -6.525000e+001  5.000000e+000
    endloop
  endfacet
  facet normal  0.000000e+000  0.000000e+000  1.000000e+000
    outer loop
      vertex  1.000000e+002 -7.750000e+001  5.000000e+000
      vertex  9.399519e+001 -6.525000e+001  5.000000e+000
      vertex  9.125000e+001 -6.799519e+001  5.000000e+000
    endloop
  endfacet
  facet normal  0.000000e+000  0.000000e+000  1.000000e+000
    outer loop
      vertex  1.000000e+002 -7.750000e+001  5.000000e+000
      vertex  9.125000e+001 -6.799519e+001  5.000000e+000
      vertex  8.750000e+001 -6.900000e+001  5.000000e+000
    endloop
  endfacet
  facet normal  0.000000e+000  0.000000e+000  1.000000e+000
    outer loop
      vertex  1.000000e+002  7.750000e+001  5.000000e+000
      vertex  9.899519e+001  8.125000e+001  5.000000e+000
      vertex  9.625000e+001  8.399519e+001  5.000000e+000
    endloop
  endfacet
  facet normal  0.000000e+000  0.000000e+000  1.000000e+000
    outer loop
      vertex  1.000000e+002  7.750000e+001  5.000000e+000
      vertex  9.625000e+001  8.399519e+001  5.000000e+000
      vertex  8.750000e+001  6.900000e+001  5.000000e+000
    endloop
  endfacet
  facet normal  -0.000000e+000  0.000000e+000  1.000000e+000
    outer loop
      vertex  1.000000e+002  7.750000e+001  5.000000e+000
      vertex  8.750000e+001  6.900000e+001  5.000000e+000
      vertex  9.125000e+001  6.799519e+001  5.000000e+000
    endloop
  endfacet
  facet normal  -0.000000e+000  0.000000e+000  1.000000e+000
    outer loop
      vertex  1.000000e+002  7.750000e+001  5.000000e+000
      vertex  9.125000e+001  6.799519e+001  5.000000e+000
      vertex  9.399519e+001  6.525000e+001  5.000000e+000
    endloop
  endfacet
  facet normal  -0.000000e+000  0.000000e+000  1.000000e+000
    outer loop
      vertex  1.000000e+002  7.750000e+001  5.000000e+000
      vertex  9.399519e+001  6.525000e+001  5.000000e+000
      vertex  9.500000e+001  6.150000e+001  5.000000e+000
    endloop
  endfacet
  facet normal  -0.000000e+000  0.000000e+000  1.000000e+000
    outer loop
      vertex  1.000000e+002  7.750000e+001  5.000000e+000
      vertex  9.500000e+001  6.150000e+001  5.000000e+000
      vertex  1.000000e+002 -7.750000e+001  5.000000e+000
    endloop
  endfacet
  facet normal  0.000000e+000  0.000000e+000  1.000000e+000
    outer loop
      vertex  9.250000e+001 -8.500000e+001  5.000000e+000
      vertex  8.750000e+001 -6.900000e+001  5.000000e+000
      vertex -9.250000e+001 -8.500000e+001  5.000000e+000
    endloop
  endfacet
  facet normal  0.000000e+000  0.000000e+000  1.000000e+000
    outer loop
      vertex -9.250000e+001 -8.500000e+001  5.000000e+000
      vertex  8.750000e+001 -6.900000e+001  5.000000e+000
      vertex -8.750000e+001 -6.900000e+001  5.000000e+000
    endloop
  endfacet
  facet normal  0.000000e+000  0.000000e+000  1.000000e+000
    outer loop
      vertex -9.250000e+001 -8.500000e+001  5.000000e+000
      vertex -8.750000e+001 -6.900000e+001  5.000000e+000
      vertex -9.625000e+001 -8.399519e+001  5.000000e+000
    endloop
  endfacet
  facet normal  0.000000e+000  -0.000000e+000  1.000000e+000
    outer loop
      vertex -9.625000e+001 -8.399519e+001  5.000000e+000
      vertex -8.750000e+001 -6.900000e+001  5.000000e+000
      vertex -1.000000e+002 -7.750000e+001  5.000000e+000
    endloop
  endfacet
  facet normal  0.000000e+000  0.000000e+000  1.000000e+000
    outer loop
      vertex -9.625000e+001 -8.399519e+001  5.000000e+000
      vertex -1.000000e+002 -7.750000e+001  5.000000e+000
      vertex -9.899519e+001 -8.125000e+001  5.000000e+000
    endloop
  endfacet
  facet normal  0.000000e+000  -0.000000e+000  1.000000e+000
    outer loop
      vertex -9.250000e+001  8.500000e+001  5.000000e+000
      vertex -8.750000e+001  6.900000e+001  5.000000e+000
      vertex  9.250000e+001  8.500000e+001  5.000000e+000
    endloop
  endfacet
  facet normal  0.000000e+000  0.000000e+000  1.000000e+000
    outer loop
      vertex  9.250000e+001  8.500000e+001  5.000000e+000
      vertex -8.750000e+001  6.900000e+001  5.000000e+000
      vertex  8.750000e+001  6.900000e+001  5.000000e+000
    endloop
  endfacet
  facet normal  0.000000e+000  0.000000e+000  1.000000e+000
    outer loop
      vertex  9.250000e+001  8.500000e+001  5.000000e+000
      vertex  8.750000e+001  6.900000e+001  5.000000e+000
      vertex  9.625000e+001  8.399519e+001  5.000000e+000
    endloop
  endfacet
  facet normal -1.000000e+000  -0.000000e+000  0.000000e+000
    outer loop
      vertex -1.000000e+002 -7.750000e+001  5.000000e+000
      vertex -1.000000e+002  7.750000e+001  5.000000e+000
      vertex -1.000000e+002 -7.750000e+001  0.000000e+000
    endloop
  endfacet
  facet normal -1.000000e+000  0.000000e+000  0.000000e+000
    outer loop
      vertex -1.000000e+002 -7.750000e+001  0.000000e+000
      vertex -1.000000e+002  7.750000e+001  5.000000e+000
      vertex -1.000000e+002  7.750000e+001  0.000000e+000
    endloop
  endfacet
  facet normal  0.000000e+000 -1.000000e+000  0.000000e+000
    outer loop
      vertex  9.250000e+001 -8.500000e+001  5.000000e+000
      vertex -9.250000e+001 -8.500000e+001  5.000000e+000
      vertex  9.250000e+001 -8.500000e+001  0.000000e+000
    endloop
  endfacet
  facet normal  0.000000e+000 -1.000000e+000  0.000000e+000
    outer loop
      vertex  9.250000e+001 -8.500000e+001  0.000000e+000
      vertex -9.250000e+001 -8.500000e+001  5.000000e+000
      vertex -9.250000e+001 -8.500000e+001  0.000000e+000
    endloop
  endfacet
  facet normal -2.588183e-001 -9.659260e-001  -0.000000e+000
    outer loop
      vertex -9.250000e+001 -8.500000e+001  0.000000e+000
      vertex -9.250000e+001 -8.500000e+001  5.000000e+000
      vertex -9.625000e+001 -8.399519e+001  0.000000e+000
    endloop
  endfacet
  facet normal -2.588183e-001 -9.659260e-001  0.000000e+000
    outer loop
      vertex -9.625000e+001 -8.399519e+001  0.000000e+000
      vertex -9.250000e+001 -8.500000e+001  5.000000e+000
      vertex -9.625000e+001 -8.399519e+001  5.000000e+000
    endloop
  endfacet
  facet normal -7.071068e-001 -7.071068e-001  -0.000000e+000
    outer loop
      vertex -9.625000e+001 -8.399519e+001  0.000000e+000
      vertex -9.625000e+001 -8.399519e+001  5.000000e+000
      vertex -9.899519e+001 -8.125000e+001  0.000000e+000
    endloop
  endfacet
  facet normal -7.071068e-001 -7.071068e-001  0.000000e+000
    outer loop
      vertex -9.899519e+001 -8.125000e+001  0.000000e+000
      vertex -9.625000e+001 -8.399519e+001  5.000000e+000
      vertex -9.899519e+001 -8.125000e+001  5.000000e+000
    endloop
  endfacet
  facet normal -9.659260e-001 -2.588183e-001  -0.000000e+000
    outer loop
      vertex -9.899519e+001 -8.125000e+001  0.000000e+000
      vertex -9.899519e+001 -8.125000e+001  5.000000e+000
      vertex -1.000000e+002 -7.750000e+001  0.000000e+000
    endloop
  endfacet
  facet normal -9.659260e-001 -2.588183e-001  0.000000e+000
    outer loop
      vertex -1.000000e+002 -7.750000e+001  0.000000e+000
      vertex -9.899519e+001 -8.125000e+001  5.000000e+000
      vertex -1.000000e+002 -7.750000e+001  5.000000e+000
    endloop
  endfacet
  facet normal  0.000000e+000  1.000000e+000  0.000000e+000
    outer loop
      vertex -9.250000e+001  8.500000e+001  5.000000e+000
      vertex  9.250000e+001  8.500000e+001  5.000000e+000
      vertex -9.250000e+001  8.500000e+001  0.000000e+000
    endloop
  endfacet
  facet normal  0.000000e+000  1.000000e+000  0.000000e+000
    outer loop
      vertex -9.250000e+001  8.500000e+001  0.000000e+000
      vertex  9.250000e+001  8.500000e+001  5.000000e+000
      vertex  9.250000e+001  8.500000e+001  0.000000e+000
    endloop
  endfacet
  facet normal -9.659260e-001  2.588183e-001  0.000000e+000
    outer loop
      vertex -1.000000e+002  7.750000e+001  0.000000e+000
      vertex -1.000000e+002  7.750000e+001  5.000000e+000
      vertex -9.899519e+001  8.125000e+001  0.000000e+000
    endloop
  endfacet
  facet normal -9.659260e-001  2.588183e-001  0.000000e+000
    outer loop
      vertex -9.899519e+001  8.125000e+001  0.000000e+000
      vertex -1.000000e+002  7.750000e+001  5.000000e+000
      vertex -9.899519e+001  8.125000e+001  5.000000e+000
    endloop
  endfacet
  facet normal -7.071068e-001  7.071068e-001  0.000000e+000
    outer loop
      vertex -9.899519e+001  8.125000e+001  0.000000e+000
      vertex -9.899519e+001  8.125000e+001  5.000000e+000
      vertex -9.625000e+001  8.399519e+001  0.000000e+000
    endloop
  endfacet
  facet normal -7.071068e-001  7.071068e-001  0.000000e+000
    outer loop
      vertex -9.625000e+001  8.399519e+001  0.000000e+000
      vertex -9.899519e+001  8.125000e+001  5.000000e+000
      vertex -9.625000e+001  8.399519e+001  5.000000e+000
    endloop
  endfacet
  facet normal -2.588183e-001  9.659260e-001  0.000000e+000
    outer loop
      vertex -9.625000e+001  8.399519e+001  0.000000e+000
      vertex -9.625000e+001  8.399519e+001  5.000000e+000
      vertex -9.250000e+001  8.500000e+001  0.000000e+000
    endloop
  endfacet
  facet normal -2.588183e-001  9.659260e-001  0.000000e+000
    outer loop
      vertex -9.250000e+001  8.500000e+001  0.000000e+000
      vertex -9.625000e+001  8.399519e+001  5.000000e+000
      vertex -9.250000e+001  8.500000e+001  5.000000e+000
    endloop
  endfacet
  facet normal  1.000000e+000  -0.000000e+000  0.000000e+000
    outer loop
      vertex  1.000000e+002  7.750000e+001  5.000000e+000
      vertex  1.000000e+002 -7.750000e+001  5.000000e+000
      vertex  1.000000e+002  7.750000e+001  0.000000e+000
    endloop
  endfacet
  facet normal  1.000000e+000  0.000000e+000  0.000000e+000
    outer loop
      vertex  1.000000e+002  7.750000e+001  0.000000e+000
      vertex  1.000000e+002 -7.750000e+001  5.000000e+000
      vertex  1.000000e+002 -7.750000e+001  0.000000e+000
    endloop
  endfacet
  facet normal  2.588183e-001  9.659260e-001  0.000000e+000
    outer loop
      vertex  9.250000e+001  8.500000e+001  0.000000e+000
      vertex  9.250000e+001  8.500000e+001  5.000000e+000
      vertex  9.625000e+001  8.399519e+001  0.000000e+000
    endloop
  endfacet
  facet normal  2.588183e-001  9.659260e-001  -0.000000e+000
    outer loop
      vertex  9.625000e+001  8.399519e+001  0.000000e+000
      vertex  9.250000e+001  8.500000e+001  5.000000e+000
      vertex  9.625000e+001  8.399519e+001  5.000000e+000
    endloop
  endfacet
  facet normal  7.071068e-001  7.071068e-001  0.000000e+000
    outer loop
      vertex  9.625000e+001  8.399519e+001  0.000000e+000
      vertex  9.625000e+001  8.399519e+001  5.000000e+000
      vertex  9.899519e+001  8.125000e+001  0.000000e+000
    endloop
  endfacet
  facet normal  7.071068e-001  7.071068e-001  -0.000000e+000
    outer loop
      vertex  9.899519e+001  8.125000e+001  0.000000e+000
      vertex  9.625000e+001  8.399519e+001  5.000000e+000
      vertex  9.899519e+001  8.125000e+001  5.000000e+000
    endloop
  endfacet
  facet normal  9.659260e-001  2.588183e-001  0.000000e+000
    outer loop
      vertex  9.899519e+001  8.125000e+001  0.000000e+000
      vertex  9.899519e+001  8.125000e+001  5.000000e+000
      vertex  1.000000e+002  7.750000e+001  0.000000e+000
    endloop
  endfacet
  facet normal  9.659260e-001  2.588183e-001  -0.000000e+000
    outer loop
      vertex  1.000000e+002  7.750000e+001  0.000000e+000
      vertex  9.899519e+001  8.125000e+001  5.000000e+000
      vertex  1.000000e+002  7.750000e+001  5.000000e+000
    endloop
  endfacet
  facet normal  9.659260e-001 -2.588183e-001  0.000000e+000
    outer loop
      vertex  1.000000e+002 -7.750000e+001  0.000000e+000
      vertex  1.000000e+002 -7.750000e+001  5.000000e+000
      vertex  9.899519e+001 -8.125000e+001  0.000000e+000
    endloop
  endfacet
  facet normal  9.659260e-001 -2.588183e-001  0.000000e+000
    outer loop
      vertex  9.899519e+001 -8.125000e+001  0.000000e+000
      vertex  1.000000e+002 -7.750000e+001  5.000000e+000
      vertex  9.899519e+001 -8.125000e+001  5.000000e+000
    endloop
  endfacet
  facet normal  7.071068e-001 -7.071068e-001  0.000000e+000
    outer loop
      vertex  9.899519e+001 -8.125000e+001  0.000000e+000
      vertex  9.899519e+001 -8.125000e+001  5.000000e+000
      vertex  9.625000e+001 -8.399519e+001  0.000000e+000
    endloop
  endfacet
  facet normal  7.071068e-001 -7.071068e-001  0.000000e+000
    outer loop
      vertex  9.625000e+001 -8.399519e+001  0.000000e+000
      vertex  9.899519e+001 -8.125000e+001  5.000000e+000
      vertex  9.625000e+001 -8.399519e+001  5.000000e+000
    endloop
  endfacet
  facet normal  2.588183e-001 -9.659260e-001  0.000000e+000
    outer loop
      vertex  9.625000e+001 -8.399519e+001  0.000000e+000
      vertex  9.625000e+001 -8.399519e+001  5.000000e+000
      vertex  9.250000e+001 -8.500000e+001  0.000000e+000
    endloop
  endfacet
  facet normal  2.588183e-001 -9.659260e-001  0.000000e+000
    outer loop
      vertex  9.250000e+001 -8.500000e+001  0.000000e+000
      vertex  9.625000e+001 -8.399519e+001  5.000000e+000
      vertex  9.250000e+001 -8.500000e+001  5.000000e+000
    endloop
  endfacet
  facet normal  1.000000e+000  0.000000e+000  0.000000e+000
    outer loop
      vertex -9.500000e+001 -6.150000e+001  5.000000e+000
      vertex -9.500000e+001 -6.150000e+001  0.000000e+000
      vertex -9.500000e+001  6.150000e+001  5.000000e+000
    endloop
  endfacet
  facet normal  1.000000e+000  0.000000e+000  0.000000e+000
    outer loop
      vertex -9.500000e+001  6.150000e+001  5.000000e+000
      vertex -9.500000e+001 -6.150000e+001  0.000000e+000
      vertex -9.500000e+001  6.150000e+001  0.000000e+000
    endloop
  endfacet
  facet normal  0.000000e+000 -1.000000e+000  0.000000e+000
    outer loop
      vertex -8.750000e+001  6.900000e+001  5.000000e+000
      vertex -8.750000e+001  6.900000e+001  0.000000e+000
      vertex  8.750000e+001  6.900000e+001  5.000000e+000
    endloop
  endfacet
  facet normal  0.000000e+000 -1.000000e+000  -0.000000e+000
    outer loop
      vertex  8.750000e+001  6.900000e+001  5.000000e+000
      vertex -8.750000e+001  6.900000e+001  0.000000e+000
      vertex  8.750000e+001  6.900000e+001  0.000000e+000
    endloop
  endfacet
  facet normal  9.659260e-001 -2.588183e-001  0.000000e+000
    outer loop
      vertex -9.399519e+001  6.525000e+001  0.000000e+000
      vertex -9.500000e+001  6.150000e+001  5.000000e+000
      vertex -9.500000e+001  6.150000e+001  0.000000e+000
    endloop
  endfacet
  facet normal  9.659260e-001 -2.588183e-001  0.000000e+000
    outer loop
      vertex -9.500000e+001  6.150000e+001  5.000000e+000
      vertex -9.399519e+001  6.525000e+001  0.000000e+000
      vertex -9.399519e+001  6.525000e+001  5.000000e+000
    endloop
  endfacet
  facet normal  7.071068e-001 -7.071068e-001  0.000000e+000
    outer loop
      vertex -9.399519e+001  6.525000e+001  5.000000e+000
      vertex -9.399519e+001  6.525000e+001  0.000000e+000
      vertex -9.125000e+001  6.799519e+001  0.000000e+000
    endloop
  endfacet
  facet normal  7.071068e-001 -7.071068e-001  0.000000e+000
    outer loop
      vertex -9.399519e+001  6.525000e+001  5.000000e+000
      vertex -9.125000e+001  6.799519e+001  0.000000e+000
      vertex -9.125000e+001  6.799519e+001  5.000000e+000
    endloop
  endfacet
  facet normal  2.588183e-001 -9.659260e-001  0.000000e+000
    outer loop
      vertex -9.125000e+001  6.799519e+001  5.000000e+000
      vertex -9.125000e+001  6.799519e+001  0.000000e+000
      vertex -8.750000e+001  6.900000e+001  0.000000e+000
    endloop
  endfacet
  facet normal  2.588183e-001 -9.659260e-001  0.000000e+000
    outer loop
      vertex -9.125000e+001  6.799519e+001  5.000000e+000
      vertex -8.750000e+001  6.900000e+001  0.000000e+000
      vertex -8.750000e+001  6.900000e+001  5.000000e+000
    endloop
  endfacet
  facet normal  0.000000e+000  1.000000e+000  -0.000000e+000
    outer loop
      vertex  8.750000e+001 -6.900000e+001  5.000000e+000
      vertex  8.750000e+001 -6.900000e+001  0.000000e+000
      vertex -8.750000e+001 -6.900000e+001  5.000000e+000
    endloop
  endfacet
  facet normal  0.000000e+000  1.000000e+000  0.000000e+000
    outer loop
      vertex -8.750000e+001 -6.900000e+001  5.000000e+000
      vertex  8.750000e+001 -6.900000e+001  0.000000e+000
      vertex -8.750000e+001 -6.900000e+001  0.000000e+000
    endloop
  endfacet
  facet normal  2.588183e-001  9.659260e-001  0.000000e+000
    outer loop
      vertex -9.125000e+001 -6.799519e+001  0.000000e+000
      vertex -8.750000e+001 -6.900000e+001  5.000000e+000
      vertex -8.750000e+001 -6.900000e+001  0.000000e+000
    endloop
  endfacet
  facet normal  2.588183e-001  9.659260e-001  -0.000000e+000
    outer loop
      vertex -8.750000e+001 -6.900000e+001  5.000000e+000
      vertex -9.125000e+001 -6.799519e+001  0.000000e+000
      vertex -9.125000e+001 -6.799519e+001  5.000000e+000
    endloop
  endfacet
  facet normal  7.071068e-001  7.071068e-001  0.000000e+000
    outer loop
      vertex -9.125000e+001 -6.799519e+001  5.000000e+000
      vertex -9.125000e+001 -6.799519e+001  0.000000e+000
      vertex -9.399519e+001 -6.525000e+001  0.000000e+000
    endloop
  endfacet
  facet normal  7.071068e-001  7.071068e-001  -0.000000e+000
    outer loop
      vertex -9.125000e+001 -6.799519e+001  5.000000e+000
      vertex -9.399519e+001 -6.525000e+001  0.000000e+000
      vertex -9.399519e+001 -6.525000e+001  5.000000e+000
    endloop
  endfacet
  facet normal  9.659260e-001  2.588183e-001  0.000000e+000
    outer loop
      vertex -9.399519e+001 -6.525000e+001  5.000000e+000
      vertex -9.399519e+001 -6.525000e+001  0.000000e+000
      vertex -9.500000e+001 -6.150000e+001  0.000000e+000
    endloop
  endfacet
  facet normal  9.659260e-001  2.588183e-001  -0.000000e+000
    outer loop
      vertex -9.399519e+001 -6.525000e+001  5.000000e+000
      vertex -9.500000e+001 -6.150000e+001  0.000000e+000
      vertex -9.500000e+001 -6.150000e+001  5.000000e+000
    endloop
  endfacet
  facet normal -1.000000e+000  0.000000e+000  0.000000e+000
    outer loop
      vertex  9.500000e+001  6.150000e+001  5.000000e+000
      vertex  9.500000e+001  6.150000e+001  0.000000e+000
      vertex  9.500000e+001 -6.150000e+001  5.000000e+000
    endloop
  endfacet
  facet normal -1.000000e+000  0.000000e+000  0.000000e+000
    outer loop
      vertex  9.500000e+001 -6.150000e+001  5.000000e+000
      vertex  9.500000e+001  6.150000e+001  0.000000e+000
      vertex  9.500000e+001 -6.150000e+001  0.000000e+000
    endloop
  endfacet
  facet normal -2.588183e-001 -9.659260e-001  -0.000000e+000
    outer loop
      vertex  9.125000e+001  6.799519e+001  0.000000e+000
      vertex  8.750000e+001  6.900000e+001  5.000000e+000
      vertex  8.750000e+001  6.900000e+001  0.000000e+000
    endloop
  endfacet
  facet normal -2.588183e-001 -9.659260e-001  0.000000e+000
    outer loop
      vertex  8.750000e+001  6.900000e+001  5.000000e+000
      vertex  9.125000e+001  6.799519e+001  0.000000e+000
      vertex  9.125000e+001  6.799519e+001  5.000000e+000
    endloop
  endfacet
  facet normal -7.071068e-001 -7.071068e-001  -0.000000e+000
    outer loop
      vertex  9.125000e+001  6.799519e+001  5.000000e+000
      vertex  9.125000e+001  6.799519e+001  0.000000e+000
      vertex  9.399519e+001  6.525000e+001  0.000000e+000
    endloop
  endfacet
  facet normal -7.071068e-001 -7.071068e-001  0.000000e+000
    outer loop
      vertex  9.125000e+001  6.799519e+001  5.000000e+000
      vertex  9.399519e+001  6.525000e+001  0.000000e+000
      vertex  9.399519e+001  6.525000e+001  5.000000e+000
    endloop
  endfacet
  facet normal -9.659260e-001 -2.588183e-001  -0.000000e+000
    outer loop
      vertex  9.399519e+001  6.525000e+001  5.000000e+000
      vertex  9.399519e+001  6.525000e+001  0.000000e+000
      vertex  9.500000e+001  6.150000e+001  0.000000e+000
    endloop
  endfacet
  facet normal -9.659260e-001 -2.588183e-001  0.000000e+000
    outer loop
      vertex  9.399519e+001  6.525000e+001  5.000000e+000
      vertex  9.500000e+001  6.150000e+001  0.000000e+000
      vertex  9.500000e+001  6.150000e+001  5.000000e+000
    endloop
  endfacet
  facet normal -9.659260e-001  2.588183e-001  0.000000e+000
    outer loop
      vertex  9.399519e+001 -6.525000e+001  0.000000e+000
      vertex  9.500000e+001 -6.150000e+001  5.000000e+000
      vertex  9.500000e+001 -6.150000e+001  0.000000e+000
    endloop
  endfacet
  facet normal -9.659260e-001  2.588183e-001  0.000000e+000
    outer loop
      vertex  9.500000e+001 -6.150000e+001  5.000000e+000
      vertex  9.399519e+001 -6.525000e+001  0.000000e+000
      vertex  9.399519e+001 -6.525000e+001  5.000000e+000
    endloop
  endfacet
  facet normal -7.071068e-001  7.071068e-001  0.000000e+000
    outer loop
      vertex  9.399519e+001 -6.525000e+001  5.000000e+000
      vertex  9.399519e+001 -6.525000e+001  0.000000e+000
      vertex  9.125000e+001 -6.799519e+001  0.000000e+000
    endloop
  endfacet
  facet normal -7.071068e-001  7.071068e-001  0.000000e+000
    outer loop
      vertex  9.399519e+001 -6.525000e+001  5.000000e+000
      vertex  9.125000e+001 -6.799519e+001  0.000000e+000
      vertex  9.125000e+001 -6.799519e+001  5.000000e+000
    endloop
  endfacet
  facet normal -2.588183e-001  9.659260e-001  0.000000e+000
    outer loop
      vertex  9.125000e+001 -6.799519e+001  5.000000e+000
      vertex  9.125000e+001 -6.799519e+001  0.000000e+000
      vertex  8.750000e+001 -6.900000e+001  0.000000e+000
    endloop
  endfacet
  facet normal -2.588183e-001  9.659260e-001  0.000000e+000
    outer loop
      vertex  9.125000e+001 -6.799519e+001  5.000000e+000
      vertex  8.750000e+001 -6.900000e+001  0.000000e+000
      vertex  8.750000e+001 -6.900000e+001  5.000000e+000
    endloop
  endfacet
endsolid CATIA STL
