solid CATIA STL
  facet normal  -0.000000e+000  0.000000e+000 -1.000000e+000
    outer loop
      vertex -3.900000e+000  5.000000e+000  5.000000e+000
      vertex  1.110000e+001  5.000000e+000  5.000000e+000
      vertex -1.975318e-001  3.894994e+000  5.000000e+000
    endloop
  endfacet
  facet normal  -0.000000e+000  0.000000e+000 -1.000000e+000
    outer loop
      vertex -3.900000e+000  5.000000e+000  5.000000e+000
      vertex -1.975318e-001  3.894994e+000  5.000000e+000
      vertex -5.905683e-001  3.855026e+000  5.000000e+000
    endloop
  endfacet
  facet normal  -0.000000e+000  0.000000e+000 -1.000000e+000
    outer loop
      vertex -3.900000e+000  5.000000e+000  5.000000e+000
      vertex -5.905683e-001  3.855026e+000  5.000000e+000
      vertex -9.775449e-001  3.775501e+000  5.000000e+000
    endloop
  endfacet
  facet normal  -0.000000e+000  0.000000e+000 -9.999999e-001
    outer loop
      vertex -3.900000e+000  5.000000e+000  5.000000e+000
      vertex -9.775449e-001  3.775501e+000  5.000000e+000
      vertex -1.354491e+000  3.657233e+000  5.000000e+000
    endloop
  endfacet
  facet normal  -0.000000e+000  0.000000e+000 -1.000000e+000
    outer loop
      vertex -3.900000e+000  5.000000e+000  5.000000e+000
      vertex -1.354491e+000  3.657233e+000  5.000000e+000
      vertex -1.717537e+000  3.501438e+000  5.000000e+000
    endloop
  endfacet
  facet normal  -0.000000e+000  0.000000e+000 -9.999999e-001
    outer loop
      vertex -3.900000e+000  5.000000e+000  5.000000e+000
      vertex -1.717537e+000  3.501438e+000  5.000000e+000
      vertex -2.062960e+000  3.309713e+000  5.000000e+000
    endloop
  endfacet
  facet normal  -0.000000e+000  0.000000e+000 -1.000000e+000
    outer loop
      vertex -3.900000e+000  5.000000e+000  5.000000e+000
      vertex -2.062960e+000  3.309713e+000  5.000000e+000
      vertex -2.387213e+000  3.084025e+000  5.000000e+000
    endloop
  endfacet
  facet normal  -0.000000e+000  0.000000e+000 -1.000000e+000
    outer loop
      vertex -3.900000e+000  5.000000e+000  5.000000e+000
      vertex -2.387213e+000  3.084025e+000  5.000000e+000
      vertex -2.686971e+000  2.826692e+000  5.000000e+000
    endloop
  endfacet
  facet normal  -0.000000e+000  0.000000e+000 -1.000000e+000
    outer loop
      vertex -3.900000e+000  5.000000e+000  5.000000e+000
      vertex -2.686971e+000  2.826692e+000  5.000000e+000
      vertex -2.959157e+000  2.540353e+000  5.000000e+000
    endloop
  endfacet
  facet normal  -0.000000e+000  0.000000e+000 -9.999999e-001
    outer loop
      vertex -3.900000e+000  5.000000e+000  5.000000e+000
      vertex -2.959157e+000  2.540353e+000  5.000000e+000
      vertex -3.200977e+000  2.227946e+000  5.000000e+000
    endloop
  endfacet
  facet normal  -0.000000e+000  0.000000e+000 -9.999999e-001
    outer loop
      vertex -3.900000e+000  5.000000e+000  5.000000e+000
      vertex -3.200977e+000  2.227946e+000  5.000000e+000
      vertex -3.409952e+000  1.892678e+000  5.000000e+000
    endloop
  endfacet
  facet normal  -0.000000e+000  0.000000e+000 -1.000000e+000
    outer loop
      vertex -3.900000e+000  5.000000e+000  5.000000e+000
      vertex -3.409952e+000  1.892678e+000  5.000000e+000
      vertex -3.583935e+000  1.537988e+000  5.000000e+000
    endloop
  endfacet
  facet normal  -0.000000e+000  0.000000e+000 -1.000000e+000
    outer loop
      vertex -3.900000e+000  5.000000e+000  5.000000e+000
      vertex -3.583935e+000  1.537988e+000  5.000000e+000
      vertex -3.721143e+000  1.167516e+000  5.000000e+000
    endloop
  endfacet
  facet normal  -0.000000e+000  0.000000e+000 -1.000000e+000
    outer loop
      vertex -3.900000e+000  5.000000e+000  5.000000e+000
      vertex -3.721143e+000  1.167516e+000  5.000000e+000
      vertex -3.820167e+000  7.850642e-001  5.000000e+000
    endloop
  endfacet
  facet normal  -0.000000e+000  0.000000e+000 -1.000000e+000
    outer loop
      vertex -3.900000e+000  5.000000e+000  5.000000e+000
      vertex -3.820167e+000  7.850642e-001  5.000000e+000
      vertex -3.879990e+000  3.945565e-001  5.000000e+000
    endloop
  endfacet
  facet normal  -0.000000e+000  0.000000e+000 -9.999999e-001
    outer loop
      vertex -3.900000e+000  5.000000e+000  5.000000e+000
      vertex -3.879990e+000  3.945565e-001  5.000000e+000
      vertex -3.900000e+000  4.776122e-016  5.000000e+000
    endloop
  endfacet
  facet normal  0.000000e+000  0.000000e+000 -1.000000e+000
    outer loop
      vertex  1.110000e+001 -5.000000e+000  5.000000e+000
      vertex -3.900000e+000 -5.000000e+000  5.000000e+000
      vertex  1.975318e-001 -3.894994e+000  5.000000e+000
    endloop
  endfacet
  facet normal  0.000000e+000  0.000000e+000 -1.000000e+000
    outer loop
      vertex  1.110000e+001 -5.000000e+000  5.000000e+000
      vertex  1.975318e-001 -3.894994e+000  5.000000e+000
      vertex  5.905683e-001 -3.855026e+000  5.000000e+000
    endloop
  endfacet
  facet normal  0.000000e+000  0.000000e+000 -1.000000e+000
    outer loop
      vertex  1.110000e+001 -5.000000e+000  5.000000e+000
      vertex  5.905683e-001 -3.855026e+000  5.000000e+000
      vertex  9.775449e-001 -3.775501e+000  5.000000e+000
    endloop
  endfacet
  facet normal  0.000000e+000  0.000000e+000 -1.000000e+000
    outer loop
      vertex  1.110000e+001 -5.000000e+000  5.000000e+000
      vertex  9.775449e-001 -3.775501e+000  5.000000e+000
      vertex  1.354491e+000 -3.657233e+000  5.000000e+000
    endloop
  endfacet
  facet normal  0.000000e+000  0.000000e+000 -1.000000e+000
    outer loop
      vertex  1.110000e+001 -5.000000e+000  5.000000e+000
      vertex  1.354491e+000 -3.657233e+000  5.000000e+000
      vertex  1.717537e+000 -3.501438e+000  5.000000e+000
    endloop
  endfacet
  facet normal  0.000000e+000  0.000000e+000 -1.000000e+000
    outer loop
      vertex  1.110000e+001 -5.000000e+000  5.000000e+000
      vertex  1.717537e+000 -3.501438e+000  5.000000e+000
      vertex  2.062960e+000 -3.309713e+000  5.000000e+000
    endloop
  endfacet
  facet normal  0.000000e+000  0.000000e+000 -9.999999e-001
    outer loop
      vertex  1.110000e+001 -5.000000e+000  5.000000e+000
      vertex  2.062960e+000 -3.309713e+000  5.000000e+000
      vertex  2.387213e+000 -3.084025e+000  5.000000e+000
    endloop
  endfacet
  facet normal  0.000000e+000  0.000000e+000 -1.000000e+000
    outer loop
      vertex  1.110000e+001 -5.000000e+000  5.000000e+000
      vertex  2.387213e+000 -3.084025e+000  5.000000e+000
      vertex  2.686971e+000 -2.826692e+000  5.000000e+000
    endloop
  endfacet
  facet normal  0.000000e+000  0.000000e+000 -9.999999e-001
    outer loop
      vertex  1.110000e+001 -5.000000e+000  5.000000e+000
      vertex  2.686971e+000 -2.826692e+000  5.000000e+000
      vertex  2.959157e+000 -2.540353e+000  5.000000e+000
    endloop
  endfacet
  facet normal  0.000000e+000  0.000000e+000 -1.000000e+000
    outer loop
      vertex  1.110000e+001 -5.000000e+000  5.000000e+000
      vertex  2.959157e+000 -2.540353e+000  5.000000e+000
      vertex  3.200977e+000 -2.227946e+000  5.000000e+000
    endloop
  endfacet
  facet normal  0.000000e+000  0.000000e+000 -1.000000e+000
    outer loop
      vertex  1.110000e+001 -5.000000e+000  5.000000e+000
      vertex  3.200977e+000 -2.227946e+000  5.000000e+000
      vertex  3.409952e+000 -1.892678e+000  5.000000e+000
    endloop
  endfacet
  facet normal  0.000000e+000  0.000000e+000 -9.999999e-001
    outer loop
      vertex  1.110000e+001 -5.000000e+000  5.000000e+000
      vertex  3.409952e+000 -1.892678e+000  5.000000e+000
      vertex  3.583935e+000 -1.537988e+000  5.000000e+000
    endloop
  endfacet
  facet normal  0.000000e+000  0.000000e+000 -1.000000e+000
    outer loop
      vertex  1.110000e+001 -5.000000e+000  5.000000e+000
      vertex  3.583935e+000 -1.537988e+000  5.000000e+000
      vertex  3.721143e+000 -1.167516e+000  5.000000e+000
    endloop
  endfacet
  facet normal  0.000000e+000  0.000000e+000 -9.999999e-001
    outer loop
      vertex  1.110000e+001 -5.000000e+000  5.000000e+000
      vertex  3.721143e+000 -1.167516e+000  5.000000e+000
      vertex  3.820167e+000 -7.850642e-001  5.000000e+000
    endloop
  endfacet
  facet normal  0.000000e+000  0.000000e+000 -1.000000e+000
    outer loop
      vertex  1.110000e+001 -5.000000e+000  5.000000e+000
      vertex  3.820167e+000 -7.850642e-001  5.000000e+000
      vertex  3.879990e+000 -3.945565e-001  5.000000e+000
    endloop
  endfacet
  facet normal  0.000000e+000  0.000000e+000 -1.000000e+000
    outer loop
      vertex  1.110000e+001 -5.000000e+000  5.000000e+000
      vertex  3.879990e+000 -3.945565e-001  5.000000e+000
      vertex  3.900000e+000  0.000000e+000  5.000000e+000
    endloop
  endfacet
  facet normal  0.000000e+000  0.000000e+000 -9.999999e-001
    outer loop
      vertex  1.110000e+001 -5.000000e+000  5.000000e+000
      vertex  3.900000e+000  0.000000e+000  5.000000e+000
      vertex  3.879990e+000  3.945565e-001  5.000000e+000
    endloop
  endfacet
  facet normal  0.000000e+000  0.000000e+000 -1.000000e+000
    outer loop
      vertex  1.110000e+001 -5.000000e+000  5.000000e+000
      vertex  3.879990e+000  3.945565e-001  5.000000e+000
      vertex  3.820167e+000  7.850642e-001  5.000000e+000
    endloop
  endfacet
  facet normal  0.000000e+000  0.000000e+000 -1.000000e+000
    outer loop
      vertex  1.110000e+001 -5.000000e+000  5.000000e+000
      vertex  3.820167e+000  7.850642e-001  5.000000e+000
      vertex  3.721143e+000  1.167516e+000  5.000000e+000
    endloop
  endfacet
  facet normal  0.000000e+000  0.000000e+000 -9.999999e-001
    outer loop
      vertex  1.110000e+001 -5.000000e+000  5.000000e+000
      vertex  3.721143e+000  1.167516e+000  5.000000e+000
      vertex  3.583935e+000  1.537988e+000  5.000000e+000
    endloop
  endfacet
  facet normal  0.000000e+000  0.000000e+000 -1.000000e+000
    outer loop
      vertex  1.110000e+001 -5.000000e+000  5.000000e+000
      vertex  3.583935e+000  1.537988e+000  5.000000e+000
      vertex  3.409952e+000  1.892678e+000  5.000000e+000
    endloop
  endfacet
  facet normal  0.000000e+000  0.000000e+000 -1.000000e+000
    outer loop
      vertex  1.110000e+001 -5.000000e+000  5.000000e+000
      vertex  3.409952e+000  1.892678e+000  5.000000e+000
      vertex  3.200977e+000  2.227946e+000  5.000000e+000
    endloop
  endfacet
  facet normal  0.000000e+000  0.000000e+000 -9.999999e-001
    outer loop
      vertex  1.110000e+001 -5.000000e+000  5.000000e+000
      vertex  3.200977e+000  2.227946e+000  5.000000e+000
      vertex  2.959157e+000  2.540353e+000  5.000000e+000
    endloop
  endfacet
  facet normal  0.000000e+000  0.000000e+000 -1.000000e+000
    outer loop
      vertex  1.110000e+001 -5.000000e+000  5.000000e+000
      vertex  2.959157e+000  2.540353e+000  5.000000e+000
      vertex  2.686971e+000  2.826692e+000  5.000000e+000
    endloop
  endfacet
  facet normal  0.000000e+000  0.000000e+000 -1.000000e+000
    outer loop
      vertex  1.110000e+001  5.000000e+000  5.000000e+000
      vertex  1.110000e+001 -5.000000e+000  5.000000e+000
      vertex  2.686971e+000  2.826692e+000  5.000000e+000
    endloop
  endfacet
  facet normal  0.000000e+000  0.000000e+000 -1.000000e+000
    outer loop
      vertex  1.110000e+001  5.000000e+000  5.000000e+000
      vertex  2.686971e+000  2.826692e+000  5.000000e+000
      vertex  2.387213e+000  3.084025e+000  5.000000e+000
    endloop
  endfacet
  facet normal  0.000000e+000  0.000000e+000 -1.000000e+000
    outer loop
      vertex  1.110000e+001  5.000000e+000  5.000000e+000
      vertex  2.387213e+000  3.084025e+000  5.000000e+000
      vertex  2.062960e+000  3.309713e+000  5.000000e+000
    endloop
  endfacet
  facet normal  0.000000e+000  0.000000e+000 -1.000000e+000
    outer loop
      vertex  1.110000e+001  5.000000e+000  5.000000e+000
      vertex  2.062960e+000  3.309713e+000  5.000000e+000
      vertex  1.717537e+000  3.501438e+000  5.000000e+000
    endloop
  endfacet
  facet normal  0.000000e+000  0.000000e+000 -1.000000e+000
    outer loop
      vertex  1.110000e+001  5.000000e+000  5.000000e+000
      vertex  1.717537e+000  3.501438e+000  5.000000e+000
      vertex  1.354491e+000  3.657233e+000  5.000000e+000
    endloop
  endfacet
  facet normal  0.000000e+000  0.000000e+000 -1.000000e+000
    outer loop
      vertex  1.110000e+001  5.000000e+000  5.000000e+000
      vertex  1.354491e+000  3.657233e+000  5.000000e+000
      vertex  9.775449e-001  3.775501e+000  5.000000e+000
    endloop
  endfacet
  facet normal  0.000000e+000  0.000000e+000 -1.000000e+000
    outer loop
      vertex  1.110000e+001  5.000000e+000  5.000000e+000
      vertex  9.775449e-001  3.775501e+000  5.000000e+000
      vertex  5.905683e-001  3.855026e+000  5.000000e+000
    endloop
  endfacet
  facet normal  0.000000e+000  0.000000e+000 -1.000000e+000
    outer loop
      vertex  1.110000e+001  5.000000e+000  5.000000e+000
      vertex  5.905683e-001  3.855026e+000  5.000000e+000
      vertex  1.975318e-001  3.894994e+000  5.000000e+000
    endloop
  endfacet
  facet normal  0.000000e+000  0.000000e+000 -1.000000e+000
    outer loop
      vertex  1.110000e+001  5.000000e+000  5.000000e+000
      vertex  1.975318e-001  3.894994e+000  5.000000e+000
      vertex -1.975318e-001  3.894994e+000  5.000000e+000
    endloop
  endfacet
  facet normal  0.000000e+000  0.000000e+000 -9.999999e-001
    outer loop
      vertex -3.900000e+000 -5.000000e+000  5.000000e+000
      vertex -3.900000e+000  4.776122e-016  5.000000e+000
      vertex -3.879990e+000 -3.945565e-001  5.000000e+000
    endloop
  endfacet
  facet normal  0.000000e+000  -0.000000e+000 -1.000000e+000
    outer loop
      vertex -3.900000e+000 -5.000000e+000  5.000000e+000
      vertex -3.879990e+000 -3.945565e-001  5.000000e+000
      vertex -3.820167e+000 -7.850642e-001  5.000000e+000
    endloop
  endfacet
  facet normal  0.000000e+000  -0.000000e+000 -1.000000e+000
    outer loop
      vertex -3.900000e+000 -5.000000e+000  5.000000e+000
      vertex -3.820167e+000 -7.850642e-001  5.000000e+000
      vertex -3.721143e+000 -1.167516e+000  5.000000e+000
    endloop
  endfacet
  facet normal  0.000000e+000  -0.000000e+000 -1.000000e+000
    outer loop
      vertex -3.900000e+000 -5.000000e+000  5.000000e+000
      vertex -3.721143e+000 -1.167516e+000  5.000000e+000
      vertex -3.583935e+000 -1.537988e+000  5.000000e+000
    endloop
  endfacet
  facet normal  0.000000e+000  -0.000000e+000 -1.000000e+000
    outer loop
      vertex -3.900000e+000 -5.000000e+000  5.000000e+000
      vertex -3.583935e+000 -1.537988e+000  5.000000e+000
      vertex -3.409952e+000 -1.892678e+000  5.000000e+000
    endloop
  endfacet
  facet normal  0.000000e+000  -0.000000e+000 -1.000000e+000
    outer loop
      vertex -3.900000e+000 -5.000000e+000  5.000000e+000
      vertex -3.409952e+000 -1.892678e+000  5.000000e+000
      vertex -3.200977e+000 -2.227946e+000  5.000000e+000
    endloop
  endfacet
  facet normal  0.000000e+000  -0.000000e+000 -9.999999e-001
    outer loop
      vertex -3.900000e+000 -5.000000e+000  5.000000e+000
      vertex -3.200977e+000 -2.227946e+000  5.000000e+000
      vertex -2.959157e+000 -2.540353e+000  5.000000e+000
    endloop
  endfacet
  facet normal  0.000000e+000  -0.000000e+000 -1.000000e+000
    outer loop
      vertex -3.900000e+000 -5.000000e+000  5.000000e+000
      vertex -2.959157e+000 -2.540353e+000  5.000000e+000
      vertex -2.686971e+000 -2.826692e+000  5.000000e+000
    endloop
  endfacet
  facet normal  0.000000e+000  -0.000000e+000 -1.000000e+000
    outer loop
      vertex -3.900000e+000 -5.000000e+000  5.000000e+000
      vertex -2.686971e+000 -2.826692e+000  5.000000e+000
      vertex -2.387213e+000 -3.084025e+000  5.000000e+000
    endloop
  endfacet
  facet normal  0.000000e+000  -0.000000e+000 -1.000000e+000
    outer loop
      vertex -3.900000e+000 -5.000000e+000  5.000000e+000
      vertex -2.387213e+000 -3.084025e+000  5.000000e+000
      vertex -2.062960e+000 -3.309713e+000  5.000000e+000
    endloop
  endfacet
  facet normal  0.000000e+000  -0.000000e+000 -1.000000e+000
    outer loop
      vertex -3.900000e+000 -5.000000e+000  5.000000e+000
      vertex -2.062960e+000 -3.309713e+000  5.000000e+000
      vertex -1.717537e+000 -3.501438e+000  5.000000e+000
    endloop
  endfacet
  facet normal  0.000000e+000  -0.000000e+000 -1.000000e+000
    outer loop
      vertex -3.900000e+000 -5.000000e+000  5.000000e+000
      vertex -1.717537e+000 -3.501438e+000  5.000000e+000
      vertex -1.354491e+000 -3.657233e+000  5.000000e+000
    endloop
  endfacet
  facet normal  0.000000e+000  -0.000000e+000 -9.999999e-001
    outer loop
      vertex -3.900000e+000 -5.000000e+000  5.000000e+000
      vertex -1.354491e+000 -3.657233e+000  5.000000e+000
      vertex -9.775449e-001 -3.775501e+000  5.000000e+000
    endloop
  endfacet
  facet normal  0.000000e+000  -0.000000e+000 -1.000000e+000
    outer loop
      vertex -3.900000e+000 -5.000000e+000  5.000000e+000
      vertex -9.775449e-001 -3.775501e+000  5.000000e+000
      vertex -5.905683e-001 -3.855026e+000  5.000000e+000
    endloop
  endfacet
  facet normal  0.000000e+000  -0.000000e+000 -1.000000e+000
    outer loop
      vertex -3.900000e+000 -5.000000e+000  5.000000e+000
      vertex -5.905683e-001 -3.855026e+000  5.000000e+000
      vertex -1.975318e-001 -3.894994e+000  5.000000e+000
    endloop
  endfacet
  facet normal  0.000000e+000  -0.000000e+000 -1.000000e+000
    outer loop
      vertex -3.900000e+000 -5.000000e+000  5.000000e+000
      vertex -1.975318e-001 -3.894994e+000  5.000000e+000
      vertex  1.975318e-001 -3.894994e+000  5.000000e+000
    endloop
  endfacet
  facet normal -1.000000e+000  0.000000e+000  0.000000e+000
    outer loop
      vertex -3.900000e+000  0.000000e+000  8.000000e+000
      vertex -3.900000e+000  4.776122e-016  5.000000e+000
      vertex -3.900000e+000 -5.000000e+000  8.000000e+000
    endloop
  endfacet
  facet normal -1.000000e+000  0.000000e+000  0.000000e+000
    outer loop
      vertex -3.900000e+000 -5.000000e+000  8.000000e+000
      vertex -3.900000e+000  4.776122e-016  5.000000e+000
      vertex -3.900000e+000 -5.000000e+000  5.000000e+000
    endloop
  endfacet
  facet normal -1.000000e+000  0.000000e+000  0.000000e+000
    outer loop
      vertex -3.900000e+000  5.000000e+000  8.000000e+000
      vertex -3.900000e+000  5.000000e+000  5.000000e+000
      vertex -3.900000e+000  0.000000e+000  8.000000e+000
    endloop
  endfacet
  facet normal -1.000000e+000  0.000000e+000  0.000000e+000
    outer loop
      vertex -3.900000e+000  0.000000e+000  8.000000e+000
      vertex -3.900000e+000  5.000000e+000  5.000000e+000
      vertex -3.900000e+000  4.776122e-016  5.000000e+000
    endloop
  endfacet
  facet normal  9.987165e-001 -5.064946e-002  0.000000e+000
    outer loop
      vertex  3.900000e+000  0.000000e+000  0.000000e+000
      vertex  3.900000e+000  0.000000e+000  5.000000e+000
      vertex  3.879990e+000 -3.945565e-001  0.000000e+000
    endloop
  endfacet
  facet normal  9.987165e-001 -5.064946e-002  0.000000e+000
    outer loop
      vertex  3.879990e+000 -3.945565e-001  0.000000e+000
      vertex  3.900000e+000  0.000000e+000  5.000000e+000
      vertex  3.879990e+000 -3.945565e-001  5.000000e+000
    endloop
  endfacet
  facet normal  9.884683e-001 -1.514276e-001  0.000000e+000
    outer loop
      vertex  3.879990e+000 -3.945565e-001  0.000000e+000
      vertex  3.879990e+000 -3.945565e-001  5.000000e+000
      vertex  3.820167e+000 -7.850642e-001  0.000000e+000
    endloop
  endfacet
  facet normal  9.884683e-001 -1.514276e-001  0.000000e+000
    outer loop
      vertex  3.820167e+000 -7.850642e-001  0.000000e+000
      vertex  3.879990e+000 -3.945565e-001  5.000000e+000
      vertex  3.820167e+000 -7.850642e-001  5.000000e+000
    endloop
  endfacet
  facet normal  9.680770e-001 -2.506528e-001  0.000000e+000
    outer loop
      vertex  3.820167e+000 -7.850642e-001  0.000000e+000
      vertex  3.820167e+000 -7.850642e-001  5.000000e+000
      vertex  3.721143e+000 -1.167516e+000  0.000000e+000
    endloop
  endfacet
  facet normal  9.680770e-001 -2.506528e-001  0.000000e+000
    outer loop
      vertex  3.721143e+000 -1.167516e+000  0.000000e+000
      vertex  3.820167e+000 -7.850642e-001  5.000000e+000
      vertex  3.721143e+000 -1.167516e+000  5.000000e+000
    endloop
  endfacet
  facet normal  9.377522e-001 -3.473050e-001  0.000000e+000
    outer loop
      vertex  3.721143e+000 -1.167516e+000  0.000000e+000
      vertex  3.721143e+000 -1.167516e+000  5.000000e+000
      vertex  3.583935e+000 -1.537988e+000  0.000000e+000
    endloop
  endfacet
  facet normal  9.377522e-001 -3.473050e-001  0.000000e+000
    outer loop
      vertex  3.583935e+000 -1.537988e+000  0.000000e+000
      vertex  3.721143e+000 -1.167516e+000  5.000000e+000
      vertex  3.583935e+000 -1.537988e+000  5.000000e+000
    endloop
  endfacet
  facet normal  8.978044e-001 -4.403945e-001  0.000000e+000
    outer loop
      vertex  3.583935e+000 -1.537988e+000  0.000000e+000
      vertex  3.583935e+000 -1.537988e+000  5.000000e+000
      vertex  3.409952e+000 -1.892678e+000  0.000000e+000
    endloop
  endfacet
  facet normal  8.978044e-001 -4.403945e-001  0.000000e+000
    outer loop
      vertex  3.409952e+000 -1.892678e+000  0.000000e+000
      vertex  3.583935e+000 -1.537988e+000  5.000000e+000
      vertex  3.409952e+000 -1.892678e+000  5.000000e+000
    endloop
  endfacet
  facet normal  8.486443e-001 -5.289640e-001  0.000000e+000
    outer loop
      vertex  3.409952e+000 -1.892678e+000  0.000000e+000
      vertex  3.409952e+000 -1.892678e+000  5.000000e+000
      vertex  3.200977e+000 -2.227946e+000  0.000000e+000
    endloop
  endfacet
  facet normal  8.486443e-001 -5.289640e-001  0.000000e+000
    outer loop
      vertex  3.200977e+000 -2.227946e+000  0.000000e+000
      vertex  3.409952e+000 -1.892678e+000  5.000000e+000
      vertex  3.200977e+000 -2.227946e+000  5.000000e+000
    endloop
  endfacet
  facet normal  7.907758e-001 -6.121058e-001  0.000000e+000
    outer loop
      vertex  3.200977e+000 -2.227946e+000  0.000000e+000
      vertex  3.200977e+000 -2.227946e+000  5.000000e+000
      vertex  2.959157e+000 -2.540353e+000  0.000000e+000
    endloop
  endfacet
  facet normal  7.907758e-001 -6.121058e-001  0.000000e+000
    outer loop
      vertex  2.959157e+000 -2.540353e+000  0.000000e+000
      vertex  3.200977e+000 -2.227946e+000  5.000000e+000
      vertex  2.959157e+000 -2.540353e+000  5.000000e+000
    endloop
  endfacet
  facet normal  7.247928e-001 -6.889669e-001  0.000000e+000
    outer loop
      vertex  2.959157e+000 -2.540353e+000  0.000000e+000
      vertex  2.959157e+000 -2.540353e+000  5.000000e+000
      vertex  2.686971e+000 -2.826692e+000  0.000000e+000
    endloop
  endfacet
  facet normal  7.247928e-001 -6.889669e-001  0.000000e+000
    outer loop
      vertex  2.686971e+000 -2.826692e+000  0.000000e+000
      vertex  2.959157e+000 -2.540353e+000  5.000000e+000
      vertex  2.686971e+000 -2.826692e+000  5.000000e+000
    endloop
  endfacet
  facet normal  6.513724e-001 -7.587582e-001  0.000000e+000
    outer loop
      vertex  2.686971e+000 -2.826692e+000  0.000000e+000
      vertex  2.686971e+000 -2.826692e+000  5.000000e+000
      vertex  2.387213e+000 -3.084025e+000  0.000000e+000
    endloop
  endfacet
  facet normal  6.513724e-001 -7.587582e-001  0.000000e+000
    outer loop
      vertex  2.387213e+000 -3.084025e+000  0.000000e+000
      vertex  2.686971e+000 -2.826692e+000  5.000000e+000
      vertex  2.387213e+000 -3.084025e+000  5.000000e+000
    endloop
  endfacet
  facet normal  5.712684e-001 -8.207633e-001  0.000000e+000
    outer loop
      vertex  2.387213e+000 -3.084025e+000  0.000000e+000
      vertex  2.387213e+000 -3.084025e+000  5.000000e+000
      vertex  2.062960e+000 -3.309713e+000  0.000000e+000
    endloop
  endfacet
  facet normal  5.712684e-001 -8.207633e-001  0.000000e+000
    outer loop
      vertex  2.062960e+000 -3.309713e+000  0.000000e+000
      vertex  2.387213e+000 -3.084025e+000  5.000000e+000
      vertex  2.062960e+000 -3.309713e+000  5.000000e+000
    endloop
  endfacet
  facet normal  4.853017e-001 -8.743467e-001  0.000000e+000
    outer loop
      vertex  2.062960e+000 -3.309713e+000  0.000000e+000
      vertex  2.062960e+000 -3.309713e+000  5.000000e+000
      vertex  1.717537e+000 -3.501438e+000  0.000000e+000
    endloop
  endfacet
  facet normal  4.853017e-001 -8.743467e-001  0.000000e+000
    outer loop
      vertex  1.717537e+000 -3.501438e+000  0.000000e+000
      vertex  2.062960e+000 -3.309713e+000  5.000000e+000
      vertex  1.717537e+000 -3.501438e+000  5.000000e+000
    endloop
  endfacet
  facet normal  3.943558e-001 -9.189579e-001  0.000000e+000
    outer loop
      vertex  1.717537e+000 -3.501438e+000  0.000000e+000
      vertex  1.717537e+000 -3.501438e+000  5.000000e+000
      vertex  1.354491e+000 -3.657233e+000  0.000000e+000
    endloop
  endfacet
  facet normal  3.943558e-001 -9.189579e-001  0.000000e+000
    outer loop
      vertex  1.354491e+000 -3.657233e+000  0.000000e+000
      vertex  1.717537e+000 -3.501438e+000  5.000000e+000
      vertex  1.354491e+000 -3.657233e+000  5.000000e+000
    endloop
  endfacet
  facet normal  2.993633e-001 -9.541392e-001  0.000000e+000
    outer loop
      vertex  1.354491e+000 -3.657233e+000  0.000000e+000
      vertex  1.354491e+000 -3.657233e+000  5.000000e+000
      vertex  9.775449e-001 -3.775501e+000  0.000000e+000
    endloop
  endfacet
  facet normal  2.993633e-001 -9.541392e-001  0.000000e+000
    outer loop
      vertex  9.775449e-001 -3.775501e+000  0.000000e+000
      vertex  1.354491e+000 -3.657233e+000  5.000000e+000
      vertex  9.775449e-001 -3.775501e+000  5.000000e+000
    endloop
  endfacet
  facet normal  2.012985e-001 -9.795300e-001  0.000000e+000
    outer loop
      vertex  9.775449e-001 -3.775501e+000  0.000000e+000
      vertex  9.775449e-001 -3.775501e+000  5.000000e+000
      vertex  5.905683e-001 -3.855026e+000  0.000000e+000
    endloop
  endfacet
  facet normal  2.012985e-001 -9.795300e-001  0.000000e+000
    outer loop
      vertex  5.905683e-001 -3.855026e+000  0.000000e+000
      vertex  9.775449e-001 -3.775501e+000  5.000000e+000
      vertex  5.905683e-001 -3.855026e+000  5.000000e+000
    endloop
  endfacet
  facet normal  1.011680e-001 -9.948694e-001  0.000000e+000
    outer loop
      vertex  5.905683e-001 -3.855026e+000  0.000000e+000
      vertex  5.905683e-001 -3.855026e+000  5.000000e+000
      vertex  1.975318e-001 -3.894994e+000  0.000000e+000
    endloop
  endfacet
  facet normal  1.011680e-001 -9.948694e-001  0.000000e+000
    outer loop
      vertex  1.975318e-001 -3.894994e+000  0.000000e+000
      vertex  5.905683e-001 -3.855026e+000  5.000000e+000
      vertex  1.975318e-001 -3.894994e+000  5.000000e+000
    endloop
  endfacet
  facet normal  0.000000e+000 -1.000000e+000  -0.000000e+000
    outer loop
      vertex  1.975318e-001 -3.894994e+000  0.000000e+000
      vertex  1.975318e-001 -3.894994e+000  5.000000e+000
      vertex -1.975318e-001 -3.894994e+000  0.000000e+000
    endloop
  endfacet
  facet normal  0.000000e+000 -1.000000e+000  0.000000e+000
    outer loop
      vertex -1.975318e-001 -3.894994e+000  0.000000e+000
      vertex  1.975318e-001 -3.894994e+000  5.000000e+000
      vertex -1.975318e-001 -3.894994e+000  5.000000e+000
    endloop
  endfacet
  facet normal -1.011680e-001 -9.948694e-001  -0.000000e+000
    outer loop
      vertex -1.975318e-001 -3.894994e+000  0.000000e+000
      vertex -1.975318e-001 -3.894994e+000  5.000000e+000
      vertex -5.905683e-001 -3.855026e+000  0.000000e+000
    endloop
  endfacet
  facet normal -1.011680e-001 -9.948694e-001  0.000000e+000
    outer loop
      vertex -5.905683e-001 -3.855026e+000  0.000000e+000
      vertex -1.975318e-001 -3.894994e+000  5.000000e+000
      vertex -5.905683e-001 -3.855026e+000  5.000000e+000
    endloop
  endfacet
  facet normal -2.012985e-001 -9.795300e-001  -0.000000e+000
    outer loop
      vertex -5.905683e-001 -3.855026e+000  0.000000e+000
      vertex -5.905683e-001 -3.855026e+000  5.000000e+000
      vertex -9.775449e-001 -3.775501e+000  0.000000e+000
    endloop
  endfacet
  facet normal -2.012985e-001 -9.795300e-001  0.000000e+000
    outer loop
      vertex -9.775449e-001 -3.775501e+000  0.000000e+000
      vertex -5.905683e-001 -3.855026e+000  5.000000e+000
      vertex -9.775449e-001 -3.775501e+000  5.000000e+000
    endloop
  endfacet
  facet normal -2.993633e-001 -9.541392e-001  -0.000000e+000
    outer loop
      vertex -9.775449e-001 -3.775501e+000  0.000000e+000
      vertex -9.775449e-001 -3.775501e+000  5.000000e+000
      vertex -1.354491e+000 -3.657233e+000  0.000000e+000
    endloop
  endfacet
  facet normal -2.993633e-001 -9.541392e-001  0.000000e+000
    outer loop
      vertex -1.354491e+000 -3.657233e+000  0.000000e+000
      vertex -9.775449e-001 -3.775501e+000  5.000000e+000
      vertex -1.354491e+000 -3.657233e+000  5.000000e+000
    endloop
  endfacet
  facet normal -3.943558e-001 -9.189579e-001  -0.000000e+000
    outer loop
      vertex -1.354491e+000 -3.657233e+000  0.000000e+000
      vertex -1.354491e+000 -3.657233e+000  5.000000e+000
      vertex -1.717537e+000 -3.501438e+000  0.000000e+000
    endloop
  endfacet
  facet normal -3.943558e-001 -9.189579e-001  0.000000e+000
    outer loop
      vertex -1.717537e+000 -3.501438e+000  0.000000e+000
      vertex -1.354491e+000 -3.657233e+000  5.000000e+000
      vertex -1.717537e+000 -3.501438e+000  5.000000e+000
    endloop
  endfacet
  facet normal -4.853017e-001 -8.743467e-001  -0.000000e+000
    outer loop
      vertex -1.717537e+000 -3.501438e+000  0.000000e+000
      vertex -1.717537e+000 -3.501438e+000  5.000000e+000
      vertex -2.062960e+000 -3.309713e+000  0.000000e+000
    endloop
  endfacet
  facet normal -4.853017e-001 -8.743467e-001  0.000000e+000
    outer loop
      vertex -2.062960e+000 -3.309713e+000  0.000000e+000
      vertex -1.717537e+000 -3.501438e+000  5.000000e+000
      vertex -2.062960e+000 -3.309713e+000  5.000000e+000
    endloop
  endfacet
  facet normal -5.712684e-001 -8.207633e-001  -0.000000e+000
    outer loop
      vertex -2.062960e+000 -3.309713e+000  0.000000e+000
      vertex -2.062960e+000 -3.309713e+000  5.000000e+000
      vertex -2.387213e+000 -3.084025e+000  0.000000e+000
    endloop
  endfacet
  facet normal -5.712684e-001 -8.207633e-001  0.000000e+000
    outer loop
      vertex -2.387213e+000 -3.084025e+000  0.000000e+000
      vertex -2.062960e+000 -3.309713e+000  5.000000e+000
      vertex -2.387213e+000 -3.084025e+000  5.000000e+000
    endloop
  endfacet
  facet normal -6.513724e-001 -7.587582e-001  -0.000000e+000
    outer loop
      vertex -2.387213e+000 -3.084025e+000  0.000000e+000
      vertex -2.387213e+000 -3.084025e+000  5.000000e+000
      vertex -2.686971e+000 -2.826692e+000  0.000000e+000
    endloop
  endfacet
  facet normal -6.513724e-001 -7.587582e-001  0.000000e+000
    outer loop
      vertex -2.686971e+000 -2.826692e+000  0.000000e+000
      vertex -2.387213e+000 -3.084025e+000  5.000000e+000
      vertex -2.686971e+000 -2.826692e+000  5.000000e+000
    endloop
  endfacet
  facet normal -7.247928e-001 -6.889669e-001  -0.000000e+000
    outer loop
      vertex -2.686971e+000 -2.826692e+000  0.000000e+000
      vertex -2.686971e+000 -2.826692e+000  5.000000e+000
      vertex -2.959157e+000 -2.540353e+000  0.000000e+000
    endloop
  endfacet
  facet normal -7.247928e-001 -6.889669e-001  0.000000e+000
    outer loop
      vertex -2.959157e+000 -2.540353e+000  0.000000e+000
      vertex -2.686971e+000 -2.826692e+000  5.000000e+000
      vertex -2.959157e+000 -2.540353e+000  5.000000e+000
    endloop
  endfacet
  facet normal -7.907758e-001 -6.121058e-001  -0.000000e+000
    outer loop
      vertex -2.959157e+000 -2.540353e+000  0.000000e+000
      vertex -2.959157e+000 -2.540353e+000  5.000000e+000
      vertex -3.200977e+000 -2.227946e+000  0.000000e+000
    endloop
  endfacet
  facet normal -7.907758e-001 -6.121058e-001  0.000000e+000
    outer loop
      vertex -3.200977e+000 -2.227946e+000  0.000000e+000
      vertex -2.959157e+000 -2.540353e+000  5.000000e+000
      vertex -3.200977e+000 -2.227946e+000  5.000000e+000
    endloop
  endfacet
  facet normal -8.486443e-001 -5.289640e-001  -0.000000e+000
    outer loop
      vertex -3.200977e+000 -2.227946e+000  0.000000e+000
      vertex -3.200977e+000 -2.227946e+000  5.000000e+000
      vertex -3.409952e+000 -1.892678e+000  0.000000e+000
    endloop
  endfacet
  facet normal -8.486443e-001 -5.289640e-001  0.000000e+000
    outer loop
      vertex -3.409952e+000 -1.892678e+000  0.000000e+000
      vertex -3.200977e+000 -2.227946e+000  5.000000e+000
      vertex -3.409952e+000 -1.892678e+000  5.000000e+000
    endloop
  endfacet
  facet normal -8.978044e-001 -4.403945e-001  -0.000000e+000
    outer loop
      vertex -3.409952e+000 -1.892678e+000  0.000000e+000
      vertex -3.409952e+000 -1.892678e+000  5.000000e+000
      vertex -3.583935e+000 -1.537988e+000  0.000000e+000
    endloop
  endfacet
  facet normal -8.978044e-001 -4.403945e-001  0.000000e+000
    outer loop
      vertex -3.583935e+000 -1.537988e+000  0.000000e+000
      vertex -3.409952e+000 -1.892678e+000  5.000000e+000
      vertex -3.583935e+000 -1.537988e+000  5.000000e+000
    endloop
  endfacet
  facet normal -9.377522e-001 -3.473050e-001  -0.000000e+000
    outer loop
      vertex -3.583935e+000 -1.537988e+000  0.000000e+000
      vertex -3.583935e+000 -1.537988e+000  5.000000e+000
      vertex -3.721143e+000 -1.167516e+000  0.000000e+000
    endloop
  endfacet
  facet normal -9.377522e-001 -3.473050e-001  0.000000e+000
    outer loop
      vertex -3.721143e+000 -1.167516e+000  0.000000e+000
      vertex -3.583935e+000 -1.537988e+000  5.000000e+000
      vertex -3.721143e+000 -1.167516e+000  5.000000e+000
    endloop
  endfacet
  facet normal -9.680770e-001 -2.506528e-001  -0.000000e+000
    outer loop
      vertex -3.721143e+000 -1.167516e+000  0.000000e+000
      vertex -3.721143e+000 -1.167516e+000  5.000000e+000
      vertex -3.820167e+000 -7.850642e-001  0.000000e+000
    endloop
  endfacet
  facet normal -9.680770e-001 -2.506528e-001  0.000000e+000
    outer loop
      vertex -3.820167e+000 -7.850642e-001  0.000000e+000
      vertex -3.721143e+000 -1.167516e+000  5.000000e+000
      vertex -3.820167e+000 -7.850642e-001  5.000000e+000
    endloop
  endfacet
  facet normal -9.884683e-001 -1.514276e-001  -0.000000e+000
    outer loop
      vertex -3.820167e+000 -7.850642e-001  0.000000e+000
      vertex -3.820167e+000 -7.850642e-001  5.000000e+000
      vertex -3.879990e+000 -3.945565e-001  0.000000e+000
    endloop
  endfacet
  facet normal -9.884683e-001 -1.514276e-001  0.000000e+000
    outer loop
      vertex -3.879990e+000 -3.945565e-001  0.000000e+000
      vertex -3.820167e+000 -7.850642e-001  5.000000e+000
      vertex -3.879990e+000 -3.945565e-001  5.000000e+000
    endloop
  endfacet
  facet normal -9.987165e-001 -5.064946e-002  -0.000000e+000
    outer loop
      vertex -3.879990e+000 -3.945565e-001  0.000000e+000
      vertex -3.879990e+000 -3.945565e-001  5.000000e+000
      vertex -3.900000e+000  4.776122e-016  0.000000e+000
    endloop
  endfacet
  facet normal -9.987165e-001 -5.064946e-002  0.000000e+000
    outer loop
      vertex -3.900000e+000  4.776122e-016  0.000000e+000
      vertex -3.879990e+000 -3.945565e-001  5.000000e+000
      vertex -3.900000e+000  4.776122e-016  5.000000e+000
    endloop
  endfacet
  facet normal -9.987165e-001  5.064946e-002  0.000000e+000
    outer loop
      vertex -3.900000e+000  4.776122e-016  0.000000e+000
      vertex -3.900000e+000  4.776122e-016  5.000000e+000
      vertex -3.879990e+000  3.945565e-001  0.000000e+000
    endloop
  endfacet
  facet normal -9.987165e-001  5.064946e-002  0.000000e+000
    outer loop
      vertex -3.879990e+000  3.945565e-001  0.000000e+000
      vertex -3.900000e+000  4.776122e-016  5.000000e+000
      vertex -3.879990e+000  3.945565e-001  5.000000e+000
    endloop
  endfacet
  facet normal -9.884683e-001  1.514276e-001  0.000000e+000
    outer loop
      vertex -3.879990e+000  3.945565e-001  0.000000e+000
      vertex -3.879990e+000  3.945565e-001  5.000000e+000
      vertex -3.820167e+000  7.850642e-001  0.000000e+000
    endloop
  endfacet
  facet normal -9.884683e-001  1.514276e-001  0.000000e+000
    outer loop
      vertex -3.820167e+000  7.850642e-001  0.000000e+000
      vertex -3.879990e+000  3.945565e-001  5.000000e+000
      vertex -3.820167e+000  7.850642e-001  5.000000e+000
    endloop
  endfacet
  facet normal -9.680770e-001  2.506528e-001  0.000000e+000
    outer loop
      vertex -3.820167e+000  7.850642e-001  0.000000e+000
      vertex -3.820167e+000  7.850642e-001  5.000000e+000
      vertex -3.721143e+000  1.167516e+000  0.000000e+000
    endloop
  endfacet
  facet normal -9.680770e-001  2.506528e-001  0.000000e+000
    outer loop
      vertex -3.721143e+000  1.167516e+000  0.000000e+000
      vertex -3.820167e+000  7.850642e-001  5.000000e+000
      vertex -3.721143e+000  1.167516e+000  5.000000e+000
    endloop
  endfacet
  facet normal -9.377522e-001  3.473050e-001  0.000000e+000
    outer loop
      vertex -3.721143e+000  1.167516e+000  0.000000e+000
      vertex -3.721143e+000  1.167516e+000  5.000000e+000
      vertex -3.583935e+000  1.537988e+000  0.000000e+000
    endloop
  endfacet
  facet normal -9.377522e-001  3.473050e-001  0.000000e+000
    outer loop
      vertex -3.583935e+000  1.537988e+000  0.000000e+000
      vertex -3.721143e+000  1.167516e+000  5.000000e+000
      vertex -3.583935e+000  1.537988e+000  5.000000e+000
    endloop
  endfacet
  facet normal -8.978044e-001  4.403945e-001  0.000000e+000
    outer loop
      vertex -3.583935e+000  1.537988e+000  0.000000e+000
      vertex -3.583935e+000  1.537988e+000  5.000000e+000
      vertex -3.409952e+000  1.892678e+000  0.000000e+000
    endloop
  endfacet
  facet normal -8.978044e-001  4.403945e-001  0.000000e+000
    outer loop
      vertex -3.409952e+000  1.892678e+000  0.000000e+000
      vertex -3.583935e+000  1.537988e+000  5.000000e+000
      vertex -3.409952e+000  1.892678e+000  5.000000e+000
    endloop
  endfacet
  facet normal -8.486443e-001  5.289640e-001  0.000000e+000
    outer loop
      vertex -3.409952e+000  1.892678e+000  0.000000e+000
      vertex -3.409952e+000  1.892678e+000  5.000000e+000
      vertex -3.200977e+000  2.227946e+000  0.000000e+000
    endloop
  endfacet
  facet normal -8.486443e-001  5.289640e-001  0.000000e+000
    outer loop
      vertex -3.200977e+000  2.227946e+000  0.000000e+000
      vertex -3.409952e+000  1.892678e+000  5.000000e+000
      vertex -3.200977e+000  2.227946e+000  5.000000e+000
    endloop
  endfacet
  facet normal -7.907758e-001  6.121058e-001  0.000000e+000
    outer loop
      vertex -3.200977e+000  2.227946e+000  0.000000e+000
      vertex -3.200977e+000  2.227946e+000  5.000000e+000
      vertex -2.959157e+000  2.540353e+000  0.000000e+000
    endloop
  endfacet
  facet normal -7.907758e-001  6.121058e-001  0.000000e+000
    outer loop
      vertex -2.959157e+000  2.540353e+000  0.000000e+000
      vertex -3.200977e+000  2.227946e+000  5.000000e+000
      vertex -2.959157e+000  2.540353e+000  5.000000e+000
    endloop
  endfacet
  facet normal -7.247928e-001  6.889669e-001  0.000000e+000
    outer loop
      vertex -2.959157e+000  2.540353e+000  0.000000e+000
      vertex -2.959157e+000  2.540353e+000  5.000000e+000
      vertex -2.686971e+000  2.826692e+000  0.000000e+000
    endloop
  endfacet
  facet normal -7.247928e-001  6.889669e-001  0.000000e+000
    outer loop
      vertex -2.686971e+000  2.826692e+000  0.000000e+000
      vertex -2.959157e+000  2.540353e+000  5.000000e+000
      vertex -2.686971e+000  2.826692e+000  5.000000e+000
    endloop
  endfacet
  facet normal -6.513724e-001  7.587582e-001  0.000000e+000
    outer loop
      vertex -2.686971e+000  2.826692e+000  0.000000e+000
      vertex -2.686971e+000  2.826692e+000  5.000000e+000
      vertex -2.387213e+000  3.084025e+000  0.000000e+000
    endloop
  endfacet
  facet normal -6.513724e-001  7.587582e-001  0.000000e+000
    outer loop
      vertex -2.387213e+000  3.084025e+000  0.000000e+000
      vertex -2.686971e+000  2.826692e+000  5.000000e+000
      vertex -2.387213e+000  3.084025e+000  5.000000e+000
    endloop
  endfacet
  facet normal -5.712684e-001  8.207633e-001  0.000000e+000
    outer loop
      vertex -2.387213e+000  3.084025e+000  0.000000e+000
      vertex -2.387213e+000  3.084025e+000  5.000000e+000
      vertex -2.062960e+000  3.309713e+000  0.000000e+000
    endloop
  endfacet
  facet normal -5.712684e-001  8.207633e-001  0.000000e+000
    outer loop
      vertex -2.062960e+000  3.309713e+000  0.000000e+000
      vertex -2.387213e+000  3.084025e+000  5.000000e+000
      vertex -2.062960e+000  3.309713e+000  5.000000e+000
    endloop
  endfacet
  facet normal -4.853017e-001  8.743467e-001  0.000000e+000
    outer loop
      vertex -2.062960e+000  3.309713e+000  0.000000e+000
      vertex -2.062960e+000  3.309713e+000  5.000000e+000
      vertex -1.717537e+000  3.501438e+000  0.000000e+000
    endloop
  endfacet
  facet normal -4.853017e-001  8.743467e-001  0.000000e+000
    outer loop
      vertex -1.717537e+000  3.501438e+000  0.000000e+000
      vertex -2.062960e+000  3.309713e+000  5.000000e+000
      vertex -1.717537e+000  3.501438e+000  5.000000e+000
    endloop
  endfacet
  facet normal -3.943558e-001  9.189579e-001  0.000000e+000
    outer loop
      vertex -1.717537e+000  3.501438e+000  0.000000e+000
      vertex -1.717537e+000  3.501438e+000  5.000000e+000
      vertex -1.354491e+000  3.657233e+000  0.000000e+000
    endloop
  endfacet
  facet normal -3.943558e-001  9.189579e-001  0.000000e+000
    outer loop
      vertex -1.354491e+000  3.657233e+000  0.000000e+000
      vertex -1.717537e+000  3.501438e+000  5.000000e+000
      vertex -1.354491e+000  3.657233e+000  5.000000e+000
    endloop
  endfacet
  facet normal -2.993633e-001  9.541392e-001  0.000000e+000
    outer loop
      vertex -1.354491e+000  3.657233e+000  0.000000e+000
      vertex -1.354491e+000  3.657233e+000  5.000000e+000
      vertex -9.775449e-001  3.775501e+000  0.000000e+000
    endloop
  endfacet
  facet normal -2.993633e-001  9.541392e-001  0.000000e+000
    outer loop
      vertex -9.775449e-001  3.775501e+000  0.000000e+000
      vertex -1.354491e+000  3.657233e+000  5.000000e+000
      vertex -9.775449e-001  3.775501e+000  5.000000e+000
    endloop
  endfacet
  facet normal -2.012985e-001  9.795300e-001  0.000000e+000
    outer loop
      vertex -9.775449e-001  3.775501e+000  0.000000e+000
      vertex -9.775449e-001  3.775501e+000  5.000000e+000
      vertex -5.905683e-001  3.855026e+000  0.000000e+000
    endloop
  endfacet
  facet normal -2.012985e-001  9.795300e-001  0.000000e+000
    outer loop
      vertex -5.905683e-001  3.855026e+000  0.000000e+000
      vertex -9.775449e-001  3.775501e+000  5.000000e+000
      vertex -5.905683e-001  3.855026e+000  5.000000e+000
    endloop
  endfacet
  facet normal -1.011680e-001  9.948694e-001  0.000000e+000
    outer loop
      vertex -5.905683e-001  3.855026e+000  0.000000e+000
      vertex -5.905683e-001  3.855026e+000  5.000000e+000
      vertex -1.975318e-001  3.894994e+000  0.000000e+000
    endloop
  endfacet
  facet normal -1.011680e-001  9.948694e-001  0.000000e+000
    outer loop
      vertex -1.975318e-001  3.894994e+000  0.000000e+000
      vertex -5.905683e-001  3.855026e+000  5.000000e+000
      vertex -1.975318e-001  3.894994e+000  5.000000e+000
    endloop
  endfacet
  facet normal  0.000000e+000  1.000000e+000  0.000000e+000
    outer loop
      vertex -1.975318e-001  3.894994e+000  0.000000e+000
      vertex -1.975318e-001  3.894994e+000  5.000000e+000
      vertex  1.975318e-001  3.894994e+000  0.000000e+000
    endloop
  endfacet
  facet normal  0.000000e+000  1.000000e+000  -0.000000e+000
    outer loop
      vertex  1.975318e-001  3.894994e+000  0.000000e+000
      vertex -1.975318e-001  3.894994e+000  5.000000e+000
      vertex  1.975318e-001  3.894994e+000  5.000000e+000
    endloop
  endfacet
  facet normal  1.011680e-001  9.948694e-001  0.000000e+000
    outer loop
      vertex  1.975318e-001  3.894994e+000  0.000000e+000
      vertex  1.975318e-001  3.894994e+000  5.000000e+000
      vertex  5.905683e-001  3.855026e+000  0.000000e+000
    endloop
  endfacet
  facet normal  1.011680e-001  9.948694e-001  -0.000000e+000
    outer loop
      vertex  5.905683e-001  3.855026e+000  0.000000e+000
      vertex  1.975318e-001  3.894994e+000  5.000000e+000
      vertex  5.905683e-001  3.855026e+000  5.000000e+000
    endloop
  endfacet
  facet normal  2.012985e-001  9.795300e-001  0.000000e+000
    outer loop
      vertex  5.905683e-001  3.855026e+000  0.000000e+000
      vertex  5.905683e-001  3.855026e+000  5.000000e+000
      vertex  9.775449e-001  3.775501e+000  0.000000e+000
    endloop
  endfacet
  facet normal  2.012985e-001  9.795300e-001  -0.000000e+000
    outer loop
      vertex  9.775449e-001  3.775501e+000  0.000000e+000
      vertex  5.905683e-001  3.855026e+000  5.000000e+000
      vertex  9.775449e-001  3.775501e+000  5.000000e+000
    endloop
  endfacet
  facet normal  2.993633e-001  9.541392e-001  0.000000e+000
    outer loop
      vertex  9.775449e-001  3.775501e+000  0.000000e+000
      vertex  9.775449e-001  3.775501e+000  5.000000e+000
      vertex  1.354491e+000  3.657233e+000  0.000000e+000
    endloop
  endfacet
  facet normal  2.993633e-001  9.541392e-001  -0.000000e+000
    outer loop
      vertex  1.354491e+000  3.657233e+000  0.000000e+000
      vertex  9.775449e-001  3.775501e+000  5.000000e+000
      vertex  1.354491e+000  3.657233e+000  5.000000e+000
    endloop
  endfacet
  facet normal  3.943558e-001  9.189579e-001  0.000000e+000
    outer loop
      vertex  1.354491e+000  3.657233e+000  0.000000e+000
      vertex  1.354491e+000  3.657233e+000  5.000000e+000
      vertex  1.717537e+000  3.501438e+000  0.000000e+000
    endloop
  endfacet
  facet normal  3.943558e-001  9.189579e-001  -0.000000e+000
    outer loop
      vertex  1.717537e+000  3.501438e+000  0.000000e+000
      vertex  1.354491e+000  3.657233e+000  5.000000e+000
      vertex  1.717537e+000  3.501438e+000  5.000000e+000
    endloop
  endfacet
  facet normal  4.853017e-001  8.743467e-001  0.000000e+000
    outer loop
      vertex  1.717537e+000  3.501438e+000  0.000000e+000
      vertex  1.717537e+000  3.501438e+000  5.000000e+000
      vertex  2.062960e+000  3.309713e+000  0.000000e+000
    endloop
  endfacet
  facet normal  4.853017e-001  8.743467e-001  -0.000000e+000
    outer loop
      vertex  2.062960e+000  3.309713e+000  0.000000e+000
      vertex  1.717537e+000  3.501438e+000  5.000000e+000
      vertex  2.062960e+000  3.309713e+000  5.000000e+000
    endloop
  endfacet
  facet normal  5.712684e-001  8.207633e-001  0.000000e+000
    outer loop
      vertex  2.062960e+000  3.309713e+000  0.000000e+000
      vertex  2.062960e+000  3.309713e+000  5.000000e+000
      vertex  2.387213e+000  3.084025e+000  0.000000e+000
    endloop
  endfacet
  facet normal  5.712684e-001  8.207633e-001  -0.000000e+000
    outer loop
      vertex  2.387213e+000  3.084025e+000  0.000000e+000
      vertex  2.062960e+000  3.309713e+000  5.000000e+000
      vertex  2.387213e+000  3.084025e+000  5.000000e+000
    endloop
  endfacet
  facet normal  6.513724e-001  7.587582e-001  0.000000e+000
    outer loop
      vertex  2.387213e+000  3.084025e+000  0.000000e+000
      vertex  2.387213e+000  3.084025e+000  5.000000e+000
      vertex  2.686971e+000  2.826692e+000  0.000000e+000
    endloop
  endfacet
  facet normal  6.513724e-001  7.587582e-001  -0.000000e+000
    outer loop
      vertex  2.686971e+000  2.826692e+000  0.000000e+000
      vertex  2.387213e+000  3.084025e+000  5.000000e+000
      vertex  2.686971e+000  2.826692e+000  5.000000e+000
    endloop
  endfacet
  facet normal  7.247928e-001  6.889669e-001  0.000000e+000
    outer loop
      vertex  2.686971e+000  2.826692e+000  0.000000e+000
      vertex  2.686971e+000  2.826692e+000  5.000000e+000
      vertex  2.959157e+000  2.540353e+000  0.000000e+000
    endloop
  endfacet
  facet normal  7.247928e-001  6.889669e-001  -0.000000e+000
    outer loop
      vertex  2.959157e+000  2.540353e+000  0.000000e+000
      vertex  2.686971e+000  2.826692e+000  5.000000e+000
      vertex  2.959157e+000  2.540353e+000  5.000000e+000
    endloop
  endfacet
  facet normal  7.907758e-001  6.121058e-001  0.000000e+000
    outer loop
      vertex  2.959157e+000  2.540353e+000  0.000000e+000
      vertex  2.959157e+000  2.540353e+000  5.000000e+000
      vertex  3.200977e+000  2.227946e+000  0.000000e+000
    endloop
  endfacet
  facet normal  7.907758e-001  6.121058e-001  -0.000000e+000
    outer loop
      vertex  3.200977e+000  2.227946e+000  0.000000e+000
      vertex  2.959157e+000  2.540353e+000  5.000000e+000
      vertex  3.200977e+000  2.227946e+000  5.000000e+000
    endloop
  endfacet
  facet normal  8.486443e-001  5.289640e-001  0.000000e+000
    outer loop
      vertex  3.200977e+000  2.227946e+000  0.000000e+000
      vertex  3.200977e+000  2.227946e+000  5.000000e+000
      vertex  3.409952e+000  1.892678e+000  0.000000e+000
    endloop
  endfacet
  facet normal  8.486443e-001  5.289640e-001  -0.000000e+000
    outer loop
      vertex  3.409952e+000  1.892678e+000  0.000000e+000
      vertex  3.200977e+000  2.227946e+000  5.000000e+000
      vertex  3.409952e+000  1.892678e+000  5.000000e+000
    endloop
  endfacet
  facet normal  8.978044e-001  4.403945e-001  0.000000e+000
    outer loop
      vertex  3.409952e+000  1.892678e+000  0.000000e+000
      vertex  3.409952e+000  1.892678e+000  5.000000e+000
      vertex  3.583935e+000  1.537988e+000  0.000000e+000
    endloop
  endfacet
  facet normal  8.978044e-001  4.403945e-001  -0.000000e+000
    outer loop
      vertex  3.583935e+000  1.537988e+000  0.000000e+000
      vertex  3.409952e+000  1.892678e+000  5.000000e+000
      vertex  3.583935e+000  1.537988e+000  5.000000e+000
    endloop
  endfacet
  facet normal  9.377522e-001  3.473050e-001  0.000000e+000
    outer loop
      vertex  3.583935e+000  1.537988e+000  0.000000e+000
      vertex  3.583935e+000  1.537988e+000  5.000000e+000
      vertex  3.721143e+000  1.167516e+000  0.000000e+000
    endloop
  endfacet
  facet normal  9.377522e-001  3.473050e-001  -0.000000e+000
    outer loop
      vertex  3.721143e+000  1.167516e+000  0.000000e+000
      vertex  3.583935e+000  1.537988e+000  5.000000e+000
      vertex  3.721143e+000  1.167516e+000  5.000000e+000
    endloop
  endfacet
  facet normal  9.680770e-001  2.506528e-001  0.000000e+000
    outer loop
      vertex  3.721143e+000  1.167516e+000  0.000000e+000
      vertex  3.721143e+000  1.167516e+000  5.000000e+000
      vertex  3.820167e+000  7.850642e-001  0.000000e+000
    endloop
  endfacet
  facet normal  9.680770e-001  2.506528e-001  -0.000000e+000
    outer loop
      vertex  3.820167e+000  7.850642e-001  0.000000e+000
      vertex  3.721143e+000  1.167516e+000  5.000000e+000
      vertex  3.820167e+000  7.850642e-001  5.000000e+000
    endloop
  endfacet
  facet normal  9.884683e-001  1.514276e-001  0.000000e+000
    outer loop
      vertex  3.820167e+000  7.850642e-001  0.000000e+000
      vertex  3.820167e+000  7.850642e-001  5.000000e+000
      vertex  3.879990e+000  3.945565e-001  0.000000e+000
    endloop
  endfacet
  facet normal  9.884683e-001  1.514276e-001  -0.000000e+000
    outer loop
      vertex  3.879990e+000  3.945565e-001  0.000000e+000
      vertex  3.820167e+000  7.850642e-001  5.000000e+000
      vertex  3.879990e+000  3.945565e-001  5.000000e+000
    endloop
  endfacet
  facet normal  9.987165e-001  5.064946e-002  0.000000e+000
    outer loop
      vertex  3.879990e+000  3.945565e-001  0.000000e+000
      vertex  3.879990e+000  3.945565e-001  5.000000e+000
      vertex  3.900000e+000  0.000000e+000  0.000000e+000
    endloop
  endfacet
  facet normal  9.987165e-001  5.064946e-002  -0.000000e+000
    outer loop
      vertex  3.900000e+000  0.000000e+000  0.000000e+000
      vertex  3.879990e+000  3.945565e-001  5.000000e+000
      vertex  3.900000e+000  0.000000e+000  5.000000e+000
    endloop
  endfacet
  facet normal  -0.000000e+000  0.000000e+000  1.000000e+000
    outer loop
      vertex  1.110000e+001  5.000000e+000  8.000000e+000
      vertex -3.900000e+000  5.000000e+000  8.000000e+000
      vertex  1.110000e+001 -5.000000e+000  8.000000e+000
    endloop
  endfacet
  facet normal  0.000000e+000  0.000000e+000  1.000000e+000
    outer loop
      vertex  1.110000e+001 -5.000000e+000  8.000000e+000
      vertex -3.900000e+000  5.000000e+000  8.000000e+000
      vertex -3.900000e+000  0.000000e+000  8.000000e+000
    endloop
  endfacet
  facet normal  0.000000e+000  0.000000e+000  1.000000e+000
    outer loop
      vertex  1.110000e+001 -5.000000e+000  8.000000e+000
      vertex -3.900000e+000  0.000000e+000  8.000000e+000
      vertex -3.900000e+000 -5.000000e+000  8.000000e+000
    endloop
  endfacet
  facet normal  1.000000e+000  -0.000000e+000  0.000000e+000
    outer loop
      vertex  1.110000e+001  5.000000e+000  8.000000e+000
      vertex  1.110000e+001 -5.000000e+000  8.000000e+000
      vertex  1.110000e+001  5.000000e+000  5.000000e+000
    endloop
  endfacet
  facet normal  1.000000e+000  0.000000e+000  0.000000e+000
    outer loop
      vertex  1.110000e+001  5.000000e+000  5.000000e+000
      vertex  1.110000e+001 -5.000000e+000  8.000000e+000
      vertex  1.110000e+001 -5.000000e+000  5.000000e+000
    endloop
  endfacet
  facet normal  0.000000e+000 -1.000000e+000  0.000000e+000
    outer loop
      vertex  1.110000e+001 -5.000000e+000  8.000000e+000
      vertex -3.900000e+000 -5.000000e+000  8.000000e+000
      vertex  1.110000e+001 -5.000000e+000  5.000000e+000
    endloop
  endfacet
  facet normal  0.000000e+000 -1.000000e+000  0.000000e+000
    outer loop
      vertex  1.110000e+001 -5.000000e+000  5.000000e+000
      vertex -3.900000e+000 -5.000000e+000  8.000000e+000
      vertex -3.900000e+000 -5.000000e+000  5.000000e+000
    endloop
  endfacet
  facet normal  0.000000e+000  1.000000e+000  0.000000e+000
    outer loop
      vertex -3.900000e+000  5.000000e+000  8.000000e+000
      vertex  1.110000e+001  5.000000e+000  8.000000e+000
      vertex -3.900000e+000  5.000000e+000  5.000000e+000
    endloop
  endfacet
  facet normal  0.000000e+000  1.000000e+000  0.000000e+000
    outer loop
      vertex -3.900000e+000  5.000000e+000  5.000000e+000
      vertex  1.110000e+001  5.000000e+000  8.000000e+000
      vertex  1.110000e+001  5.000000e+000  5.000000e+000
    endloop
  endfacet
  facet normal  0.000000e+000  0.000000e+000 -1.000000e+000
    outer loop
      vertex  3.900000e+000  0.000000e+000  0.000000e+000
      vertex -3.879990e+000  3.945565e-001  0.000000e+000
      vertex  3.879990e+000  3.945565e-001  0.000000e+000
    endloop
  endfacet
  facet normal  0.000000e+000  0.000000e+000 -1.000000e+000
    outer loop
      vertex  3.879990e+000  3.945565e-001  0.000000e+000
      vertex -3.879990e+000  3.945565e-001  0.000000e+000
      vertex -3.820167e+000  7.850642e-001  0.000000e+000
    endloop
  endfacet
  facet normal  0.000000e+000  0.000000e+000 -1.000000e+000
    outer loop
      vertex  3.879990e+000  3.945565e-001  0.000000e+000
      vertex -3.820167e+000  7.850642e-001  0.000000e+000
      vertex  3.820167e+000  7.850642e-001  0.000000e+000
    endloop
  endfacet
  facet normal  0.000000e+000  0.000000e+000 -1.000000e+000
    outer loop
      vertex  3.820167e+000  7.850642e-001  0.000000e+000
      vertex -3.820167e+000  7.850642e-001  0.000000e+000
      vertex -3.721143e+000  1.167516e+000  0.000000e+000
    endloop
  endfacet
  facet normal  0.000000e+000  0.000000e+000 -1.000000e+000
    outer loop
      vertex  3.820167e+000  7.850642e-001  0.000000e+000
      vertex -3.721143e+000  1.167516e+000  0.000000e+000
      vertex  3.721143e+000  1.167516e+000  0.000000e+000
    endloop
  endfacet
  facet normal  0.000000e+000  0.000000e+000 -1.000000e+000
    outer loop
      vertex  3.721143e+000  1.167516e+000  0.000000e+000
      vertex -3.721143e+000  1.167516e+000  0.000000e+000
      vertex -3.583935e+000  1.537988e+000  0.000000e+000
    endloop
  endfacet
  facet normal  0.000000e+000  0.000000e+000 -1.000000e+000
    outer loop
      vertex  3.721143e+000  1.167516e+000  0.000000e+000
      vertex -3.583935e+000  1.537988e+000  0.000000e+000
      vertex  3.583935e+000  1.537988e+000  0.000000e+000
    endloop
  endfacet
  facet normal  0.000000e+000  0.000000e+000 -1.000000e+000
    outer loop
      vertex  3.583935e+000  1.537988e+000  0.000000e+000
      vertex -3.583935e+000  1.537988e+000  0.000000e+000
      vertex -3.409952e+000  1.892678e+000  0.000000e+000
    endloop
  endfacet
  facet normal  0.000000e+000  0.000000e+000 -1.000000e+000
    outer loop
      vertex  3.583935e+000  1.537988e+000  0.000000e+000
      vertex -3.409952e+000  1.892678e+000  0.000000e+000
      vertex  3.409952e+000  1.892678e+000  0.000000e+000
    endloop
  endfacet
  facet normal  0.000000e+000  0.000000e+000 -1.000000e+000
    outer loop
      vertex  3.409952e+000  1.892678e+000  0.000000e+000
      vertex -3.409952e+000  1.892678e+000  0.000000e+000
      vertex -3.200977e+000  2.227946e+000  0.000000e+000
    endloop
  endfacet
  facet normal  0.000000e+000  0.000000e+000 -1.000000e+000
    outer loop
      vertex  3.409952e+000  1.892678e+000  0.000000e+000
      vertex -3.200977e+000  2.227946e+000  0.000000e+000
      vertex  3.200977e+000  2.227946e+000  0.000000e+000
    endloop
  endfacet
  facet normal  0.000000e+000  0.000000e+000 -1.000000e+000
    outer loop
      vertex  3.200977e+000  2.227946e+000  0.000000e+000
      vertex -3.200977e+000  2.227946e+000  0.000000e+000
      vertex -2.959157e+000  2.540353e+000  0.000000e+000
    endloop
  endfacet
  facet normal  0.000000e+000  0.000000e+000 -9.999999e-001
    outer loop
      vertex  3.200977e+000  2.227946e+000  0.000000e+000
      vertex -2.959157e+000  2.540353e+000  0.000000e+000
      vertex  2.959157e+000  2.540353e+000  0.000000e+000
    endloop
  endfacet
  facet normal  0.000000e+000  0.000000e+000 -1.000000e+000
    outer loop
      vertex  2.959157e+000  2.540353e+000  0.000000e+000
      vertex -2.959157e+000  2.540353e+000  0.000000e+000
      vertex -2.686971e+000  2.826692e+000  0.000000e+000
    endloop
  endfacet
  facet normal  0.000000e+000  0.000000e+000 -1.000000e+000
    outer loop
      vertex  2.959157e+000  2.540353e+000  0.000000e+000
      vertex -2.686971e+000  2.826692e+000  0.000000e+000
      vertex  2.686971e+000  2.826692e+000  0.000000e+000
    endloop
  endfacet
  facet normal  0.000000e+000  0.000000e+000 -1.000000e+000
    outer loop
      vertex  2.686971e+000  2.826692e+000  0.000000e+000
      vertex -2.686971e+000  2.826692e+000  0.000000e+000
      vertex -2.387213e+000  3.084025e+000  0.000000e+000
    endloop
  endfacet
  facet normal  0.000000e+000  0.000000e+000 -1.000000e+000
    outer loop
      vertex  2.686971e+000  2.826692e+000  0.000000e+000
      vertex -2.387213e+000  3.084025e+000  0.000000e+000
      vertex  2.387213e+000  3.084025e+000  0.000000e+000
    endloop
  endfacet
  facet normal  0.000000e+000  0.000000e+000 -1.000000e+000
    outer loop
      vertex  2.387213e+000  3.084025e+000  0.000000e+000
      vertex -2.387213e+000  3.084025e+000  0.000000e+000
      vertex -2.062960e+000  3.309713e+000  0.000000e+000
    endloop
  endfacet
  facet normal  0.000000e+000  0.000000e+000 -9.999999e-001
    outer loop
      vertex  2.387213e+000  3.084025e+000  0.000000e+000
      vertex -2.062960e+000  3.309713e+000  0.000000e+000
      vertex  2.062960e+000  3.309713e+000  0.000000e+000
    endloop
  endfacet
  facet normal  0.000000e+000  0.000000e+000 -9.999999e-001
    outer loop
      vertex  2.062960e+000  3.309713e+000  0.000000e+000
      vertex -2.062960e+000  3.309713e+000  0.000000e+000
      vertex -1.717537e+000  3.501438e+000  0.000000e+000
    endloop
  endfacet
  facet normal  0.000000e+000  0.000000e+000 -1.000000e+000
    outer loop
      vertex  2.062960e+000  3.309713e+000  0.000000e+000
      vertex -1.717537e+000  3.501438e+000  0.000000e+000
      vertex  1.717537e+000  3.501438e+000  0.000000e+000
    endloop
  endfacet
  facet normal  0.000000e+000  0.000000e+000 -1.000000e+000
    outer loop
      vertex  1.717537e+000  3.501438e+000  0.000000e+000
      vertex -1.717537e+000  3.501438e+000  0.000000e+000
      vertex -1.354491e+000  3.657233e+000  0.000000e+000
    endloop
  endfacet
  facet normal  0.000000e+000  0.000000e+000 -1.000000e+000
    outer loop
      vertex  1.717537e+000  3.501438e+000  0.000000e+000
      vertex -1.354491e+000  3.657233e+000  0.000000e+000
      vertex  1.354491e+000  3.657233e+000  0.000000e+000
    endloop
  endfacet
  facet normal  0.000000e+000  0.000000e+000 -1.000000e+000
    outer loop
      vertex  1.354491e+000  3.657233e+000  0.000000e+000
      vertex -1.354491e+000  3.657233e+000  0.000000e+000
      vertex -9.775449e-001  3.775501e+000  0.000000e+000
    endloop
  endfacet
  facet normal  0.000000e+000  0.000000e+000 -1.000000e+000
    outer loop
      vertex  1.354491e+000  3.657233e+000  0.000000e+000
      vertex -9.775449e-001  3.775501e+000  0.000000e+000
      vertex  9.775449e-001  3.775501e+000  0.000000e+000
    endloop
  endfacet
  facet normal  0.000000e+000  0.000000e+000 -1.000000e+000
    outer loop
      vertex  9.775449e-001  3.775501e+000  0.000000e+000
      vertex -9.775449e-001  3.775501e+000  0.000000e+000
      vertex -5.905683e-001  3.855026e+000  0.000000e+000
    endloop
  endfacet
  facet normal  0.000000e+000  0.000000e+000 -9.999999e-001
    outer loop
      vertex  9.775449e-001  3.775501e+000  0.000000e+000
      vertex -5.905683e-001  3.855026e+000  0.000000e+000
      vertex  5.905683e-001  3.855026e+000  0.000000e+000
    endloop
  endfacet
  facet normal  0.000000e+000  0.000000e+000 -9.999999e-001
    outer loop
      vertex  5.905683e-001  3.855026e+000  0.000000e+000
      vertex -5.905683e-001  3.855026e+000  0.000000e+000
      vertex -1.975318e-001  3.894994e+000  0.000000e+000
    endloop
  endfacet
  facet normal  0.000000e+000  0.000000e+000 -1.000000e+000
    outer loop
      vertex  5.905683e-001  3.855026e+000  0.000000e+000
      vertex -1.975318e-001  3.894994e+000  0.000000e+000
      vertex  1.975318e-001  3.894994e+000  0.000000e+000
    endloop
  endfacet
  facet normal  0.000000e+000  0.000000e+000 -1.000000e+000
    outer loop
      vertex -3.879990e+000  3.945565e-001  0.000000e+000
      vertex  3.900000e+000  0.000000e+000  0.000000e+000
      vertex -3.900000e+000  4.776122e-016  0.000000e+000
    endloop
  endfacet
  facet normal  0.000000e+000  0.000000e+000 -1.000000e+000
    outer loop
      vertex -3.900000e+000  4.776122e-016  0.000000e+000
      vertex  3.900000e+000  0.000000e+000  0.000000e+000
      vertex  3.879990e+000 -3.945565e-001  0.000000e+000
    endloop
  endfacet
  facet normal  0.000000e+000  0.000000e+000 -1.000000e+000
    outer loop
      vertex -3.900000e+000  4.776122e-016  0.000000e+000
      vertex  3.879990e+000 -3.945565e-001  0.000000e+000
      vertex -3.879990e+000 -3.945565e-001  0.000000e+000
    endloop
  endfacet
  facet normal  0.000000e+000  0.000000e+000 -1.000000e+000
    outer loop
      vertex -3.879990e+000 -3.945565e-001  0.000000e+000
      vertex  3.879990e+000 -3.945565e-001  0.000000e+000
      vertex  3.820167e+000 -7.850642e-001  0.000000e+000
    endloop
  endfacet
  facet normal  0.000000e+000  0.000000e+000 -1.000000e+000
    outer loop
      vertex -3.879990e+000 -3.945565e-001  0.000000e+000
      vertex  3.820167e+000 -7.850642e-001  0.000000e+000
      vertex -3.820167e+000 -7.850642e-001  0.000000e+000
    endloop
  endfacet
  facet normal  0.000000e+000  0.000000e+000 -1.000000e+000
    outer loop
      vertex -3.820167e+000 -7.850642e-001  0.000000e+000
      vertex  3.820167e+000 -7.850642e-001  0.000000e+000
      vertex  3.721143e+000 -1.167516e+000  0.000000e+000
    endloop
  endfacet
  facet normal  0.000000e+000  0.000000e+000 -1.000000e+000
    outer loop
      vertex -3.820167e+000 -7.850642e-001  0.000000e+000
      vertex  3.721143e+000 -1.167516e+000  0.000000e+000
      vertex -3.721143e+000 -1.167516e+000  0.000000e+000
    endloop
  endfacet
  facet normal  0.000000e+000  0.000000e+000 -1.000000e+000
    outer loop
      vertex -3.721143e+000 -1.167516e+000  0.000000e+000
      vertex  3.721143e+000 -1.167516e+000  0.000000e+000
      vertex  3.583935e+000 -1.537988e+000  0.000000e+000
    endloop
  endfacet
  facet normal  0.000000e+000  0.000000e+000 -1.000000e+000
    outer loop
      vertex -3.721143e+000 -1.167516e+000  0.000000e+000
      vertex  3.583935e+000 -1.537988e+000  0.000000e+000
      vertex -3.583935e+000 -1.537988e+000  0.000000e+000
    endloop
  endfacet
  facet normal  0.000000e+000  0.000000e+000 -1.000000e+000
    outer loop
      vertex -3.583935e+000 -1.537988e+000  0.000000e+000
      vertex  3.583935e+000 -1.537988e+000  0.000000e+000
      vertex  3.409952e+000 -1.892678e+000  0.000000e+000
    endloop
  endfacet
  facet normal  0.000000e+000  0.000000e+000 -1.000000e+000
    outer loop
      vertex -3.583935e+000 -1.537988e+000  0.000000e+000
      vertex  3.409952e+000 -1.892678e+000  0.000000e+000
      vertex -3.409952e+000 -1.892678e+000  0.000000e+000
    endloop
  endfacet
  facet normal  0.000000e+000  0.000000e+000 -1.000000e+000
    outer loop
      vertex -3.409952e+000 -1.892678e+000  0.000000e+000
      vertex  3.409952e+000 -1.892678e+000  0.000000e+000
      vertex  3.200977e+000 -2.227946e+000  0.000000e+000
    endloop
  endfacet
  facet normal  0.000000e+000  0.000000e+000 -1.000000e+000
    outer loop
      vertex -3.409952e+000 -1.892678e+000  0.000000e+000
      vertex  3.200977e+000 -2.227946e+000  0.000000e+000
      vertex -3.200977e+000 -2.227946e+000  0.000000e+000
    endloop
  endfacet
  facet normal  0.000000e+000  0.000000e+000 -1.000000e+000
    outer loop
      vertex -3.200977e+000 -2.227946e+000  0.000000e+000
      vertex  3.200977e+000 -2.227946e+000  0.000000e+000
      vertex  2.959157e+000 -2.540353e+000  0.000000e+000
    endloop
  endfacet
  facet normal  0.000000e+000  0.000000e+000 -9.999999e-001
    outer loop
      vertex -3.200977e+000 -2.227946e+000  0.000000e+000
      vertex  2.959157e+000 -2.540353e+000  0.000000e+000
      vertex -2.959157e+000 -2.540353e+000  0.000000e+000
    endloop
  endfacet
  facet normal  0.000000e+000  0.000000e+000 -1.000000e+000
    outer loop
      vertex -2.959157e+000 -2.540353e+000  0.000000e+000
      vertex  2.959157e+000 -2.540353e+000  0.000000e+000
      vertex  2.686971e+000 -2.826692e+000  0.000000e+000
    endloop
  endfacet
  facet normal  0.000000e+000  0.000000e+000 -1.000000e+000
    outer loop
      vertex -2.959157e+000 -2.540353e+000  0.000000e+000
      vertex  2.686971e+000 -2.826692e+000  0.000000e+000
      vertex -2.686971e+000 -2.826692e+000  0.000000e+000
    endloop
  endfacet
  facet normal  0.000000e+000  0.000000e+000 -1.000000e+000
    outer loop
      vertex -2.686971e+000 -2.826692e+000  0.000000e+000
      vertex  2.686971e+000 -2.826692e+000  0.000000e+000
      vertex  2.387213e+000 -3.084025e+000  0.000000e+000
    endloop
  endfacet
  facet normal  0.000000e+000  0.000000e+000 -1.000000e+000
    outer loop
      vertex -2.686971e+000 -2.826692e+000  0.000000e+000
      vertex  2.387213e+000 -3.084025e+000  0.000000e+000
      vertex -2.387213e+000 -3.084025e+000  0.000000e+000
    endloop
  endfacet
  facet normal  0.000000e+000  0.000000e+000 -1.000000e+000
    outer loop
      vertex -2.387213e+000 -3.084025e+000  0.000000e+000
      vertex  2.387213e+000 -3.084025e+000  0.000000e+000
      vertex  2.062960e+000 -3.309713e+000  0.000000e+000
    endloop
  endfacet
  facet normal  0.000000e+000  0.000000e+000 -9.999999e-001
    outer loop
      vertex -2.387213e+000 -3.084025e+000  0.000000e+000
      vertex  2.062960e+000 -3.309713e+000  0.000000e+000
      vertex -2.062960e+000 -3.309713e+000  0.000000e+000
    endloop
  endfacet
  facet normal  0.000000e+000  0.000000e+000 -9.999999e-001
    outer loop
      vertex -2.062960e+000 -3.309713e+000  0.000000e+000
      vertex  2.062960e+000 -3.309713e+000  0.000000e+000
      vertex  1.717537e+000 -3.501438e+000  0.000000e+000
    endloop
  endfacet
  facet normal  0.000000e+000  0.000000e+000 -1.000000e+000
    outer loop
      vertex -2.062960e+000 -3.309713e+000  0.000000e+000
      vertex  1.717537e+000 -3.501438e+000  0.000000e+000
      vertex -1.717537e+000 -3.501438e+000  0.000000e+000
    endloop
  endfacet
  facet normal  0.000000e+000  0.000000e+000 -1.000000e+000
    outer loop
      vertex -1.717537e+000 -3.501438e+000  0.000000e+000
      vertex  1.717537e+000 -3.501438e+000  0.000000e+000
      vertex  1.354491e+000 -3.657233e+000  0.000000e+000
    endloop
  endfacet
  facet normal  0.000000e+000  0.000000e+000 -1.000000e+000
    outer loop
      vertex -1.717537e+000 -3.501438e+000  0.000000e+000
      vertex  1.354491e+000 -3.657233e+000  0.000000e+000
      vertex -1.354491e+000 -3.657233e+000  0.000000e+000
    endloop
  endfacet
  facet normal  0.000000e+000  0.000000e+000 -1.000000e+000
    outer loop
      vertex -1.354491e+000 -3.657233e+000  0.000000e+000
      vertex  1.354491e+000 -3.657233e+000  0.000000e+000
      vertex  9.775449e-001 -3.775501e+000  0.000000e+000
    endloop
  endfacet
  facet normal  0.000000e+000  0.000000e+000 -1.000000e+000
    outer loop
      vertex -1.354491e+000 -3.657233e+000  0.000000e+000
      vertex  9.775449e-001 -3.775501e+000  0.000000e+000
      vertex -9.775449e-001 -3.775501e+000  0.000000e+000
    endloop
  endfacet
  facet normal  0.000000e+000  0.000000e+000 -1.000000e+000
    outer loop
      vertex -9.775449e-001 -3.775501e+000  0.000000e+000
      vertex  9.775449e-001 -3.775501e+000  0.000000e+000
      vertex  5.905683e-001 -3.855026e+000  0.000000e+000
    endloop
  endfacet
  facet normal  0.000000e+000  0.000000e+000 -9.999999e-001
    outer loop
      vertex -9.775449e-001 -3.775501e+000  0.000000e+000
      vertex  5.905683e-001 -3.855026e+000  0.000000e+000
      vertex -5.905683e-001 -3.855026e+000  0.000000e+000
    endloop
  endfacet
  facet normal  0.000000e+000  0.000000e+000 -9.999999e-001
    outer loop
      vertex -5.905683e-001 -3.855026e+000  0.000000e+000
      vertex  5.905683e-001 -3.855026e+000  0.000000e+000
      vertex  1.975318e-001 -3.894994e+000  0.000000e+000
    endloop
  endfacet
  facet normal  0.000000e+000  0.000000e+000 -1.000000e+000
    outer loop
      vertex -5.905683e-001 -3.855026e+000  0.000000e+000
      vertex  1.975318e-001 -3.894994e+000  0.000000e+000
      vertex -1.975318e-001 -3.894994e+000  0.000000e+000
    endloop
  endfacet
endsolid CATIA STL
