solid CATIA STL
  facet normal  0.000000e+000  0.000000e+000  1.000000e+000
    outer loop
      vertex -3.314759e-001  2.729949e+000  6.000000e+001
      vertex  3.314759e-001  2.729949e+000  6.000000e+001
      vertex  1.683889e-016  2.750000e+000  6.000000e+001
    endloop
  endfacet
  facet normal  -0.000000e+000  0.000000e+000  1.000000e+000
    outer loop
      vertex  3.314759e-001  2.729949e+000  6.000000e+001
      vertex -3.314759e-001  2.729949e+000  6.000000e+001
      vertex  6.581181e-001  2.670090e+000  6.000000e+001
    endloop
  endfacet
  facet normal  0.000000e+000  0.000000e+000  1.000000e+000
    outer loop
      vertex  6.581181e-001  2.670090e+000  6.000000e+001
      vertex -3.314759e-001  2.729949e+000  6.000000e+001
      vertex -6.581181e-001  2.670090e+000  6.000000e+001
    endloop
  endfacet
  facet normal  -0.000000e+000  0.000000e+000  1.000000e+000
    outer loop
      vertex  6.581181e-001  2.670090e+000  6.000000e+001
      vertex -6.581181e-001  2.670090e+000  6.000000e+001
      vertex  9.751635e-001  2.571295e+000  6.000000e+001
    endloop
  endfacet
  facet normal  0.000000e+000  0.000000e+000  9.999999e-001
    outer loop
      vertex  9.751635e-001  2.571295e+000  6.000000e+001
      vertex -6.581181e-001  2.670090e+000  6.000000e+001
      vertex -9.751635e-001  2.571295e+000  6.000000e+001
    endloop
  endfacet
  facet normal  -0.000000e+000  0.000000e+000  1.000000e+000
    outer loop
      vertex  9.751635e-001  2.571295e+000  6.000000e+001
      vertex -9.751635e-001  2.571295e+000  6.000000e+001
      vertex  1.277989e+000  2.435004e+000  6.000000e+001
    endloop
  endfacet
  facet normal  0.000000e+000  0.000000e+000  1.000000e+000
    outer loop
      vertex  1.277989e+000  2.435004e+000  6.000000e+001
      vertex -9.751635e-001  2.571295e+000  6.000000e+001
      vertex -1.277989e+000  2.435004e+000  6.000000e+001
    endloop
  endfacet
  facet normal  -0.000000e+000  0.000000e+000  1.000000e+000
    outer loop
      vertex  1.277989e+000  2.435004e+000  6.000000e+001
      vertex -1.277989e+000  2.435004e+000  6.000000e+001
      vertex  1.562178e+000  2.263206e+000  6.000000e+001
    endloop
  endfacet
  facet normal  0.000000e+000  0.000000e+000  1.000000e+000
    outer loop
      vertex  1.562178e+000  2.263206e+000  6.000000e+001
      vertex -1.277989e+000  2.435004e+000  6.000000e+001
      vertex -1.562178e+000  2.263206e+000  6.000000e+001
    endloop
  endfacet
  facet normal  -0.000000e+000  0.000000e+000  1.000000e+000
    outer loop
      vertex  1.562178e+000  2.263206e+000  6.000000e+001
      vertex -1.562178e+000  2.263206e+000  6.000000e+001
      vertex  1.823587e+000  2.058404e+000  6.000000e+001
    endloop
  endfacet
  facet normal  0.000000e+000  0.000000e+000  1.000000e+000
    outer loop
      vertex  1.823587e+000  2.058404e+000  6.000000e+001
      vertex -1.562178e+000  2.263206e+000  6.000000e+001
      vertex -1.823587e+000  2.058404e+000  6.000000e+001
    endloop
  endfacet
  facet normal  -0.000000e+000  0.000000e+000  1.000000e+000
    outer loop
      vertex  1.823587e+000  2.058404e+000  6.000000e+001
      vertex -1.823587e+000  2.058404e+000  6.000000e+001
      vertex  2.058404e+000  1.823587e+000  6.000000e+001
    endloop
  endfacet
  facet normal  0.000000e+000  0.000000e+000  1.000000e+000
    outer loop
      vertex  2.058404e+000  1.823587e+000  6.000000e+001
      vertex -1.823587e+000  2.058404e+000  6.000000e+001
      vertex -2.058404e+000  1.823587e+000  6.000000e+001
    endloop
  endfacet
  facet normal  -0.000000e+000  0.000000e+000  9.999999e-001
    outer loop
      vertex  2.058404e+000  1.823587e+000  6.000000e+001
      vertex -2.058404e+000  1.823587e+000  6.000000e+001
      vertex  2.263206e+000  1.562178e+000  6.000000e+001
    endloop
  endfacet
  facet normal  0.000000e+000  0.000000e+000  1.000000e+000
    outer loop
      vertex  2.263206e+000  1.562178e+000  6.000000e+001
      vertex -2.058404e+000  1.823587e+000  6.000000e+001
      vertex -2.263206e+000  1.562178e+000  6.000000e+001
    endloop
  endfacet
  facet normal  -0.000000e+000  0.000000e+000  1.000000e+000
    outer loop
      vertex  2.263206e+000  1.562178e+000  6.000000e+001
      vertex -2.263206e+000  1.562178e+000  6.000000e+001
      vertex  2.435004e+000  1.277989e+000  6.000000e+001
    endloop
  endfacet
  facet normal  0.000000e+000  0.000000e+000  1.000000e+000
    outer loop
      vertex  2.435004e+000  1.277989e+000  6.000000e+001
      vertex -2.263206e+000  1.562178e+000  6.000000e+001
      vertex -2.435004e+000  1.277989e+000  6.000000e+001
    endloop
  endfacet
  facet normal  -0.000000e+000  0.000000e+000  1.000000e+000
    outer loop
      vertex  2.435004e+000  1.277989e+000  6.000000e+001
      vertex -2.435004e+000  1.277989e+000  6.000000e+001
      vertex  2.571295e+000  9.751635e-001  6.000000e+001
    endloop
  endfacet
  facet normal  0.000000e+000  0.000000e+000  9.999999e-001
    outer loop
      vertex  2.571295e+000  9.751635e-001  6.000000e+001
      vertex -2.435004e+000  1.277989e+000  6.000000e+001
      vertex -2.571295e+000  9.751635e-001  6.000000e+001
    endloop
  endfacet
  facet normal  -0.000000e+000  0.000000e+000  1.000000e+000
    outer loop
      vertex  2.571295e+000  9.751635e-001  6.000000e+001
      vertex -2.571295e+000  9.751635e-001  6.000000e+001
      vertex  2.670090e+000  6.581181e-001  6.000000e+001
    endloop
  endfacet
  facet normal  0.000000e+000  0.000000e+000  9.999999e-001
    outer loop
      vertex  2.670090e+000  6.581181e-001  6.000000e+001
      vertex -2.571295e+000  9.751635e-001  6.000000e+001
      vertex -2.670090e+000  6.581181e-001  6.000000e+001
    endloop
  endfacet
  facet normal  -0.000000e+000  0.000000e+000  1.000000e+000
    outer loop
      vertex  2.670090e+000  6.581181e-001  6.000000e+001
      vertex -2.670090e+000  6.581181e-001  6.000000e+001
      vertex  2.729949e+000  3.314759e-001  6.000000e+001
    endloop
  endfacet
  facet normal  0.000000e+000  0.000000e+000  1.000000e+000
    outer loop
      vertex  2.729949e+000  3.314759e-001  6.000000e+001
      vertex -2.670090e+000  6.581181e-001  6.000000e+001
      vertex -2.729949e+000  3.314759e-001  6.000000e+001
    endloop
  endfacet
  facet normal  -0.000000e+000  0.000000e+000  9.999999e-001
    outer loop
      vertex  2.729949e+000  3.314759e-001  6.000000e+001
      vertex -2.729949e+000  3.314759e-001  6.000000e+001
      vertex  2.750000e+000  0.000000e+000  6.000000e+001
    endloop
  endfacet
  facet normal  0.000000e+000  0.000000e+000  1.000000e+000
    outer loop
      vertex  2.750000e+000  0.000000e+000  6.000000e+001
      vertex -2.729949e+000  3.314759e-001  6.000000e+001
      vertex -2.750000e+000  3.367779e-016  6.000000e+001
    endloop
  endfacet
  facet normal  0.000000e+000  0.000000e+000  1.000000e+000
    outer loop
      vertex  2.750000e+000  0.000000e+000  6.000000e+001
      vertex -2.750000e+000  3.367779e-016  6.000000e+001
      vertex  2.729949e+000 -3.314759e-001  6.000000e+001
    endloop
  endfacet
  facet normal  0.000000e+000  0.000000e+000  9.999999e-001
    outer loop
      vertex  2.729949e+000 -3.314759e-001  6.000000e+001
      vertex -2.750000e+000  3.367779e-016  6.000000e+001
      vertex -2.729949e+000 -3.314759e-001  6.000000e+001
    endloop
  endfacet
  facet normal  -0.000000e+000  0.000000e+000  1.000000e+000
    outer loop
      vertex  2.729949e+000 -3.314759e-001  6.000000e+001
      vertex -2.729949e+000 -3.314759e-001  6.000000e+001
      vertex  2.670090e+000 -6.581181e-001  6.000000e+001
    endloop
  endfacet
  facet normal  0.000000e+000  0.000000e+000  1.000000e+000
    outer loop
      vertex  2.670090e+000 -6.581181e-001  6.000000e+001
      vertex -2.729949e+000 -3.314759e-001  6.000000e+001
      vertex -2.670090e+000 -6.581181e-001  6.000000e+001
    endloop
  endfacet
  facet normal  -0.000000e+000  0.000000e+000  9.999999e-001
    outer loop
      vertex  2.670090e+000 -6.581181e-001  6.000000e+001
      vertex -2.670090e+000 -6.581181e-001  6.000000e+001
      vertex  2.571295e+000 -9.751635e-001  6.000000e+001
    endloop
  endfacet
  facet normal  0.000000e+000  0.000000e+000  1.000000e+000
    outer loop
      vertex  2.571295e+000 -9.751635e-001  6.000000e+001
      vertex -2.670090e+000 -6.581181e-001  6.000000e+001
      vertex -2.571295e+000 -9.751635e-001  6.000000e+001
    endloop
  endfacet
  facet normal  -0.000000e+000  0.000000e+000  9.999999e-001
    outer loop
      vertex  2.571295e+000 -9.751635e-001  6.000000e+001
      vertex -2.571295e+000 -9.751635e-001  6.000000e+001
      vertex  2.435004e+000 -1.277989e+000  6.000000e+001
    endloop
  endfacet
  facet normal  0.000000e+000  0.000000e+000  1.000000e+000
    outer loop
      vertex  2.435004e+000 -1.277989e+000  6.000000e+001
      vertex -2.571295e+000 -9.751635e-001  6.000000e+001
      vertex -2.435004e+000 -1.277989e+000  6.000000e+001
    endloop
  endfacet
  facet normal  -0.000000e+000  0.000000e+000  1.000000e+000
    outer loop
      vertex  2.435004e+000 -1.277989e+000  6.000000e+001
      vertex -2.435004e+000 -1.277989e+000  6.000000e+001
      vertex  2.263206e+000 -1.562178e+000  6.000000e+001
    endloop
  endfacet
  facet normal  0.000000e+000  0.000000e+000  1.000000e+000
    outer loop
      vertex  2.263206e+000 -1.562178e+000  6.000000e+001
      vertex -2.435004e+000 -1.277989e+000  6.000000e+001
      vertex -2.263206e+000 -1.562178e+000  6.000000e+001
    endloop
  endfacet
  facet normal  -0.000000e+000  0.000000e+000  1.000000e+000
    outer loop
      vertex  2.263206e+000 -1.562178e+000  6.000000e+001
      vertex -2.263206e+000 -1.562178e+000  6.000000e+001
      vertex  2.058404e+000 -1.823587e+000  6.000000e+001
    endloop
  endfacet
  facet normal  0.000000e+000  0.000000e+000  9.999999e-001
    outer loop
      vertex  2.058404e+000 -1.823587e+000  6.000000e+001
      vertex -2.263206e+000 -1.562178e+000  6.000000e+001
      vertex -2.058404e+000 -1.823587e+000  6.000000e+001
    endloop
  endfacet
  facet normal  -0.000000e+000  0.000000e+000  1.000000e+000
    outer loop
      vertex  2.058404e+000 -1.823587e+000  6.000000e+001
      vertex -2.058404e+000 -1.823587e+000  6.000000e+001
      vertex  1.823587e+000 -2.058404e+000  6.000000e+001
    endloop
  endfacet
  facet normal  0.000000e+000  0.000000e+000  1.000000e+000
    outer loop
      vertex  1.823587e+000 -2.058404e+000  6.000000e+001
      vertex -2.058404e+000 -1.823587e+000  6.000000e+001
      vertex -1.823587e+000 -2.058404e+000  6.000000e+001
    endloop
  endfacet
  facet normal  -0.000000e+000  0.000000e+000  1.000000e+000
    outer loop
      vertex  1.823587e+000 -2.058404e+000  6.000000e+001
      vertex -1.823587e+000 -2.058404e+000  6.000000e+001
      vertex  1.562178e+000 -2.263206e+000  6.000000e+001
    endloop
  endfacet
  facet normal  0.000000e+000  0.000000e+000  1.000000e+000
    outer loop
      vertex  1.562178e+000 -2.263206e+000  6.000000e+001
      vertex -1.823587e+000 -2.058404e+000  6.000000e+001
      vertex -1.562178e+000 -2.263206e+000  6.000000e+001
    endloop
  endfacet
  facet normal  -0.000000e+000  0.000000e+000  1.000000e+000
    outer loop
      vertex  1.562178e+000 -2.263206e+000  6.000000e+001
      vertex -1.562178e+000 -2.263206e+000  6.000000e+001
      vertex  1.277989e+000 -2.435004e+000  6.000000e+001
    endloop
  endfacet
  facet normal  0.000000e+000  0.000000e+000  1.000000e+000
    outer loop
      vertex  1.277989e+000 -2.435004e+000  6.000000e+001
      vertex -1.562178e+000 -2.263206e+000  6.000000e+001
      vertex -1.277989e+000 -2.435004e+000  6.000000e+001
    endloop
  endfacet
  facet normal  -0.000000e+000  0.000000e+000  1.000000e+000
    outer loop
      vertex  1.277989e+000 -2.435004e+000  6.000000e+001
      vertex -1.277989e+000 -2.435004e+000  6.000000e+001
      vertex  9.751635e-001 -2.571295e+000  6.000000e+001
    endloop
  endfacet
  facet normal  0.000000e+000  0.000000e+000  1.000000e+000
    outer loop
      vertex  9.751635e-001 -2.571295e+000  6.000000e+001
      vertex -1.277989e+000 -2.435004e+000  6.000000e+001
      vertex -9.751635e-001 -2.571295e+000  6.000000e+001
    endloop
  endfacet
  facet normal  -0.000000e+000  0.000000e+000  9.999999e-001
    outer loop
      vertex  9.751635e-001 -2.571295e+000  6.000000e+001
      vertex -9.751635e-001 -2.571295e+000  6.000000e+001
      vertex  6.581181e-001 -2.670090e+000  6.000000e+001
    endloop
  endfacet
  facet normal  0.000000e+000  0.000000e+000  1.000000e+000
    outer loop
      vertex  6.581181e-001 -2.670090e+000  6.000000e+001
      vertex -9.751635e-001 -2.571295e+000  6.000000e+001
      vertex -6.581181e-001 -2.670090e+000  6.000000e+001
    endloop
  endfacet
  facet normal  -0.000000e+000  0.000000e+000  1.000000e+000
    outer loop
      vertex  6.581181e-001 -2.670090e+000  6.000000e+001
      vertex -6.581181e-001 -2.670090e+000  6.000000e+001
      vertex  3.314759e-001 -2.729949e+000  6.000000e+001
    endloop
  endfacet
  facet normal  0.000000e+000  0.000000e+000  1.000000e+000
    outer loop
      vertex  3.314759e-001 -2.729949e+000  6.000000e+001
      vertex -6.581181e-001 -2.670090e+000  6.000000e+001
      vertex -3.314759e-001 -2.729949e+000  6.000000e+001
    endloop
  endfacet
  facet normal  -0.000000e+000  0.000000e+000  1.000000e+000
    outer loop
      vertex  3.314759e-001 -2.729949e+000  6.000000e+001
      vertex -3.314759e-001 -2.729949e+000  6.000000e+001
      vertex -5.051668e-016 -2.750000e+000  6.000000e+001
    endloop
  endfacet
  facet normal  0.000000e+000  0.000000e+000 -1.000000e+000
    outer loop
      vertex  1.683889e-016  2.750000e+000  0.000000e+000
      vertex  3.314759e-001  2.729949e+000  0.000000e+000
      vertex -3.314759e-001  2.729949e+000  0.000000e+000
    endloop
  endfacet
  facet normal  0.000000e+000  0.000000e+000 -1.000000e+000
    outer loop
      vertex -5.051668e-016 -2.750000e+000  0.000000e+000
      vertex -3.314759e-001 -2.729949e+000  0.000000e+000
      vertex  3.314759e-001 -2.729949e+000  0.000000e+000
    endloop
  endfacet
  facet normal  0.000000e+000  0.000000e+000 -1.000000e+000
    outer loop
      vertex  3.314759e-001 -2.729949e+000  0.000000e+000
      vertex -3.314759e-001 -2.729949e+000  0.000000e+000
      vertex -6.581181e-001 -2.670090e+000  0.000000e+000
    endloop
  endfacet
  facet normal  0.000000e+000  0.000000e+000 -1.000000e+000
    outer loop
      vertex  3.314759e-001 -2.729949e+000  0.000000e+000
      vertex -6.581181e-001 -2.670090e+000  0.000000e+000
      vertex  6.581181e-001 -2.670090e+000  0.000000e+000
    endloop
  endfacet
  facet normal  0.000000e+000  0.000000e+000 -1.000000e+000
    outer loop
      vertex  6.581181e-001 -2.670090e+000  0.000000e+000
      vertex -6.581181e-001 -2.670090e+000  0.000000e+000
      vertex -9.751635e-001 -2.571295e+000  0.000000e+000
    endloop
  endfacet
  facet normal  0.000000e+000  0.000000e+000 -9.999999e-001
    outer loop
      vertex  6.581181e-001 -2.670090e+000  0.000000e+000
      vertex -9.751635e-001 -2.571295e+000  0.000000e+000
      vertex  9.751635e-001 -2.571295e+000  0.000000e+000
    endloop
  endfacet
  facet normal  0.000000e+000  0.000000e+000 -1.000000e+000
    outer loop
      vertex  9.751635e-001 -2.571295e+000  0.000000e+000
      vertex -9.751635e-001 -2.571295e+000  0.000000e+000
      vertex -1.277989e+000 -2.435004e+000  0.000000e+000
    endloop
  endfacet
  facet normal  0.000000e+000  0.000000e+000 -1.000000e+000
    outer loop
      vertex  9.751635e-001 -2.571295e+000  0.000000e+000
      vertex -1.277989e+000 -2.435004e+000  0.000000e+000
      vertex  1.277989e+000 -2.435004e+000  0.000000e+000
    endloop
  endfacet
  facet normal  0.000000e+000  0.000000e+000 -1.000000e+000
    outer loop
      vertex  1.277989e+000 -2.435004e+000  0.000000e+000
      vertex -1.277989e+000 -2.435004e+000  0.000000e+000
      vertex -1.562178e+000 -2.263206e+000  0.000000e+000
    endloop
  endfacet
  facet normal  0.000000e+000  0.000000e+000 -1.000000e+000
    outer loop
      vertex  1.277989e+000 -2.435004e+000  0.000000e+000
      vertex -1.562178e+000 -2.263206e+000  0.000000e+000
      vertex  1.562178e+000 -2.263206e+000  0.000000e+000
    endloop
  endfacet
  facet normal  0.000000e+000  0.000000e+000 -1.000000e+000
    outer loop
      vertex  1.562178e+000 -2.263206e+000  0.000000e+000
      vertex -1.562178e+000 -2.263206e+000  0.000000e+000
      vertex -1.823587e+000 -2.058404e+000  0.000000e+000
    endloop
  endfacet
  facet normal  0.000000e+000  0.000000e+000 -1.000000e+000
    outer loop
      vertex  1.562178e+000 -2.263206e+000  0.000000e+000
      vertex -1.823587e+000 -2.058404e+000  0.000000e+000
      vertex  1.823587e+000 -2.058404e+000  0.000000e+000
    endloop
  endfacet
  facet normal  0.000000e+000  0.000000e+000 -1.000000e+000
    outer loop
      vertex  1.823587e+000 -2.058404e+000  0.000000e+000
      vertex -1.823587e+000 -2.058404e+000  0.000000e+000
      vertex -2.058404e+000 -1.823587e+000  0.000000e+000
    endloop
  endfacet
  facet normal  0.000000e+000  0.000000e+000 -1.000000e+000
    outer loop
      vertex  1.823587e+000 -2.058404e+000  0.000000e+000
      vertex -2.058404e+000 -1.823587e+000  0.000000e+000
      vertex  2.058404e+000 -1.823587e+000  0.000000e+000
    endloop
  endfacet
  facet normal  0.000000e+000  0.000000e+000 -9.999999e-001
    outer loop
      vertex  2.058404e+000 -1.823587e+000  0.000000e+000
      vertex -2.058404e+000 -1.823587e+000  0.000000e+000
      vertex -2.263206e+000 -1.562178e+000  0.000000e+000
    endloop
  endfacet
  facet normal  0.000000e+000  0.000000e+000 -1.000000e+000
    outer loop
      vertex  2.058404e+000 -1.823587e+000  0.000000e+000
      vertex -2.263206e+000 -1.562178e+000  0.000000e+000
      vertex  2.263206e+000 -1.562178e+000  0.000000e+000
    endloop
  endfacet
  facet normal  0.000000e+000  0.000000e+000 -1.000000e+000
    outer loop
      vertex  2.263206e+000 -1.562178e+000  0.000000e+000
      vertex -2.263206e+000 -1.562178e+000  0.000000e+000
      vertex -2.435004e+000 -1.277989e+000  0.000000e+000
    endloop
  endfacet
  facet normal  0.000000e+000  0.000000e+000 -1.000000e+000
    outer loop
      vertex  2.263206e+000 -1.562178e+000  0.000000e+000
      vertex -2.435004e+000 -1.277989e+000  0.000000e+000
      vertex  2.435004e+000 -1.277989e+000  0.000000e+000
    endloop
  endfacet
  facet normal  0.000000e+000  0.000000e+000 -1.000000e+000
    outer loop
      vertex  2.435004e+000 -1.277989e+000  0.000000e+000
      vertex -2.435004e+000 -1.277989e+000  0.000000e+000
      vertex -2.571295e+000 -9.751635e-001  0.000000e+000
    endloop
  endfacet
  facet normal  0.000000e+000  0.000000e+000 -9.999999e-001
    outer loop
      vertex  2.435004e+000 -1.277989e+000  0.000000e+000
      vertex -2.571295e+000 -9.751635e-001  0.000000e+000
      vertex  2.571295e+000 -9.751635e-001  0.000000e+000
    endloop
  endfacet
  facet normal  0.000000e+000  0.000000e+000 -1.000000e+000
    outer loop
      vertex  2.571295e+000 -9.751635e-001  0.000000e+000
      vertex -2.571295e+000 -9.751635e-001  0.000000e+000
      vertex -2.670090e+000 -6.581181e-001  0.000000e+000
    endloop
  endfacet
  facet normal  0.000000e+000  0.000000e+000 -9.999999e-001
    outer loop
      vertex  2.571295e+000 -9.751635e-001  0.000000e+000
      vertex -2.670090e+000 -6.581181e-001  0.000000e+000
      vertex  2.670090e+000 -6.581181e-001  0.000000e+000
    endloop
  endfacet
  facet normal  0.000000e+000  0.000000e+000 -1.000000e+000
    outer loop
      vertex  2.670090e+000 -6.581181e-001  0.000000e+000
      vertex -2.670090e+000 -6.581181e-001  0.000000e+000
      vertex -2.729949e+000 -3.314759e-001  0.000000e+000
    endloop
  endfacet
  facet normal  0.000000e+000  0.000000e+000 -1.000000e+000
    outer loop
      vertex  2.670090e+000 -6.581181e-001  0.000000e+000
      vertex -2.729949e+000 -3.314759e-001  0.000000e+000
      vertex  2.729949e+000 -3.314759e-001  0.000000e+000
    endloop
  endfacet
  facet normal  0.000000e+000  0.000000e+000 -9.999999e-001
    outer loop
      vertex  2.729949e+000 -3.314759e-001  0.000000e+000
      vertex -2.729949e+000 -3.314759e-001  0.000000e+000
      vertex -2.750000e+000  3.367779e-016  0.000000e+000
    endloop
  endfacet
  facet normal  0.000000e+000  0.000000e+000 -1.000000e+000
    outer loop
      vertex  2.729949e+000 -3.314759e-001  0.000000e+000
      vertex -2.750000e+000  3.367779e-016  0.000000e+000
      vertex  2.750000e+000  0.000000e+000  0.000000e+000
    endloop
  endfacet
  facet normal  0.000000e+000  0.000000e+000 -1.000000e+000
    outer loop
      vertex  2.750000e+000  0.000000e+000  0.000000e+000
      vertex -2.750000e+000  3.367779e-016  0.000000e+000
      vertex -2.729949e+000  3.314759e-001  0.000000e+000
    endloop
  endfacet
  facet normal  0.000000e+000  0.000000e+000 -9.999999e-001
    outer loop
      vertex  2.750000e+000  0.000000e+000  0.000000e+000
      vertex -2.729949e+000  3.314759e-001  0.000000e+000
      vertex  2.729949e+000  3.314759e-001  0.000000e+000
    endloop
  endfacet
  facet normal  0.000000e+000  0.000000e+000 -1.000000e+000
    outer loop
      vertex  2.729949e+000  3.314759e-001  0.000000e+000
      vertex -2.729949e+000  3.314759e-001  0.000000e+000
      vertex -2.670090e+000  6.581181e-001  0.000000e+000
    endloop
  endfacet
  facet normal  0.000000e+000  0.000000e+000 -1.000000e+000
    outer loop
      vertex  2.729949e+000  3.314759e-001  0.000000e+000
      vertex -2.670090e+000  6.581181e-001  0.000000e+000
      vertex  2.670090e+000  6.581181e-001  0.000000e+000
    endloop
  endfacet
  facet normal  0.000000e+000  0.000000e+000 -9.999999e-001
    outer loop
      vertex  2.670090e+000  6.581181e-001  0.000000e+000
      vertex -2.670090e+000  6.581181e-001  0.000000e+000
      vertex -2.571295e+000  9.751635e-001  0.000000e+000
    endloop
  endfacet
  facet normal  0.000000e+000  0.000000e+000 -1.000000e+000
    outer loop
      vertex  2.670090e+000  6.581181e-001  0.000000e+000
      vertex -2.571295e+000  9.751635e-001  0.000000e+000
      vertex  2.571295e+000  9.751635e-001  0.000000e+000
    endloop
  endfacet
  facet normal  0.000000e+000  0.000000e+000 -9.999999e-001
    outer loop
      vertex  2.571295e+000  9.751635e-001  0.000000e+000
      vertex -2.571295e+000  9.751635e-001  0.000000e+000
      vertex -2.435004e+000  1.277989e+000  0.000000e+000
    endloop
  endfacet
  facet normal  0.000000e+000  0.000000e+000 -1.000000e+000
    outer loop
      vertex  2.571295e+000  9.751635e-001  0.000000e+000
      vertex -2.435004e+000  1.277989e+000  0.000000e+000
      vertex  2.435004e+000  1.277989e+000  0.000000e+000
    endloop
  endfacet
  facet normal  0.000000e+000  0.000000e+000 -1.000000e+000
    outer loop
      vertex  2.435004e+000  1.277989e+000  0.000000e+000
      vertex -2.435004e+000  1.277989e+000  0.000000e+000
      vertex -2.263206e+000  1.562178e+000  0.000000e+000
    endloop
  endfacet
  facet normal  0.000000e+000  0.000000e+000 -1.000000e+000
    outer loop
      vertex  2.435004e+000  1.277989e+000  0.000000e+000
      vertex -2.263206e+000  1.562178e+000  0.000000e+000
      vertex  2.263206e+000  1.562178e+000  0.000000e+000
    endloop
  endfacet
  facet normal  0.000000e+000  0.000000e+000 -1.000000e+000
    outer loop
      vertex  2.263206e+000  1.562178e+000  0.000000e+000
      vertex -2.263206e+000  1.562178e+000  0.000000e+000
      vertex -2.058404e+000  1.823587e+000  0.000000e+000
    endloop
  endfacet
  facet normal  0.000000e+000  0.000000e+000 -9.999999e-001
    outer loop
      vertex  2.263206e+000  1.562178e+000  0.000000e+000
      vertex -2.058404e+000  1.823587e+000  0.000000e+000
      vertex  2.058404e+000  1.823587e+000  0.000000e+000
    endloop
  endfacet
  facet normal  0.000000e+000  0.000000e+000 -1.000000e+000
    outer loop
      vertex  2.058404e+000  1.823587e+000  0.000000e+000
      vertex -2.058404e+000  1.823587e+000  0.000000e+000
      vertex -1.823587e+000  2.058404e+000  0.000000e+000
    endloop
  endfacet
  facet normal  0.000000e+000  0.000000e+000 -1.000000e+000
    outer loop
      vertex  2.058404e+000  1.823587e+000  0.000000e+000
      vertex -1.823587e+000  2.058404e+000  0.000000e+000
      vertex  1.823587e+000  2.058404e+000  0.000000e+000
    endloop
  endfacet
  facet normal  0.000000e+000  0.000000e+000 -1.000000e+000
    outer loop
      vertex  1.823587e+000  2.058404e+000  0.000000e+000
      vertex -1.823587e+000  2.058404e+000  0.000000e+000
      vertex -1.562178e+000  2.263206e+000  0.000000e+000
    endloop
  endfacet
  facet normal  0.000000e+000  0.000000e+000 -1.000000e+000
    outer loop
      vertex  1.823587e+000  2.058404e+000  0.000000e+000
      vertex -1.562178e+000  2.263206e+000  0.000000e+000
      vertex  1.562178e+000  2.263206e+000  0.000000e+000
    endloop
  endfacet
  facet normal  0.000000e+000  0.000000e+000 -1.000000e+000
    outer loop
      vertex  1.562178e+000  2.263206e+000  0.000000e+000
      vertex -1.562178e+000  2.263206e+000  0.000000e+000
      vertex -1.277989e+000  2.435004e+000  0.000000e+000
    endloop
  endfacet
  facet normal  0.000000e+000  0.000000e+000 -1.000000e+000
    outer loop
      vertex  1.562178e+000  2.263206e+000  0.000000e+000
      vertex -1.277989e+000  2.435004e+000  0.000000e+000
      vertex  1.277989e+000  2.435004e+000  0.000000e+000
    endloop
  endfacet
  facet normal  0.000000e+000  0.000000e+000 -1.000000e+000
    outer loop
      vertex  1.277989e+000  2.435004e+000  0.000000e+000
      vertex -1.277989e+000  2.435004e+000  0.000000e+000
      vertex -9.751635e-001  2.571295e+000  0.000000e+000
    endloop
  endfacet
  facet normal  0.000000e+000  0.000000e+000 -1.000000e+000
    outer loop
      vertex  1.277989e+000  2.435004e+000  0.000000e+000
      vertex -9.751635e-001  2.571295e+000  0.000000e+000
      vertex  9.751635e-001  2.571295e+000  0.000000e+000
    endloop
  endfacet
  facet normal  0.000000e+000  0.000000e+000 -9.999999e-001
    outer loop
      vertex  9.751635e-001  2.571295e+000  0.000000e+000
      vertex -9.751635e-001  2.571295e+000  0.000000e+000
      vertex -6.581181e-001  2.670090e+000  0.000000e+000
    endloop
  endfacet
  facet normal  0.000000e+000  0.000000e+000 -1.000000e+000
    outer loop
      vertex  9.751635e-001  2.571295e+000  0.000000e+000
      vertex -6.581181e-001  2.670090e+000  0.000000e+000
      vertex  6.581181e-001  2.670090e+000  0.000000e+000
    endloop
  endfacet
  facet normal  0.000000e+000  0.000000e+000 -1.000000e+000
    outer loop
      vertex  6.581181e-001  2.670090e+000  0.000000e+000
      vertex -6.581181e-001  2.670090e+000  0.000000e+000
      vertex -3.314759e-001  2.729949e+000  0.000000e+000
    endloop
  endfacet
  facet normal  0.000000e+000  0.000000e+000 -1.000000e+000
    outer loop
      vertex  6.581181e-001  2.670090e+000  0.000000e+000
      vertex -3.314759e-001  2.729949e+000  0.000000e+000
      vertex  3.314759e-001  2.729949e+000  0.000000e+000
    endloop
  endfacet
  facet normal  9.981756e-001 -6.037828e-002  0.000000e+000
    outer loop
      vertex  2.750000e+000  0.000000e+000  0.000000e+000
      vertex  2.750000e+000  0.000000e+000  6.000000e+001
      vertex  2.729949e+000 -3.314759e-001  0.000000e+000
    endloop
  endfacet
  facet normal  9.981756e-001 -6.037828e-002  0.000000e+000
    outer loop
      vertex  2.729949e+000 -3.314759e-001  0.000000e+000
      vertex  2.750000e+000  0.000000e+000  6.000000e+001
      vertex  2.729949e+000 -3.314759e-001  6.000000e+001
    endloop
  endfacet
  facet normal  9.836199e-001 -1.802554e-001  0.000000e+000
    outer loop
      vertex  2.729949e+000 -3.314759e-001  0.000000e+000
      vertex  2.729949e+000 -3.314759e-001  6.000000e+001
      vertex  2.670090e+000 -6.581181e-001  0.000000e+000
    endloop
  endfacet
  facet normal  9.836199e-001 -1.802554e-001  0.000000e+000
    outer loop
      vertex  2.670090e+000 -6.581181e-001  0.000000e+000
      vertex  2.729949e+000 -3.314759e-001  6.000000e+001
      vertex  2.670090e+000 -6.581181e-001  6.000000e+001
    endloop
  endfacet
  facet normal  9.547210e-001 -2.975026e-001  0.000000e+000
    outer loop
      vertex  2.670090e+000 -6.581181e-001  0.000000e+000
      vertex  2.670090e+000 -6.581181e-001  6.000000e+001
      vertex  2.571295e+000 -9.751635e-001  0.000000e+000
    endloop
  endfacet
  facet normal  9.547210e-001 -2.975026e-001  0.000000e+000
    outer loop
      vertex  2.571295e+000 -9.751635e-001  0.000000e+000
      vertex  2.670090e+000 -6.581181e-001  6.000000e+001
      vertex  2.571295e+000 -9.751635e-001  6.000000e+001
    endloop
  endfacet
  facet normal  9.118996e-001 -4.104134e-001  0.000000e+000
    outer loop
      vertex  2.571295e+000 -9.751635e-001  0.000000e+000
      vertex  2.571295e+000 -9.751635e-001  6.000000e+001
      vertex  2.435004e+000 -1.277989e+000  0.000000e+000
    endloop
  endfacet
  facet normal  9.118996e-001 -4.104134e-001  0.000000e+000
    outer loop
      vertex  2.435004e+000 -1.277989e+000  0.000000e+000
      vertex  2.571295e+000 -9.751635e-001  6.000000e+001
      vertex  2.435004e+000 -1.277989e+000  6.000000e+001
    endloop
  endfacet
  facet normal  8.557813e-001 -5.173379e-001  0.000000e+000
    outer loop
      vertex  2.435004e+000 -1.277989e+000  0.000000e+000
      vertex  2.435004e+000 -1.277989e+000  6.000000e+001
      vertex  2.263206e+000 -1.562178e+000  0.000000e+000
    endloop
  endfacet
  facet normal  8.557813e-001 -5.173379e-001  0.000000e+000
    outer loop
      vertex  2.263206e+000 -1.562178e+000  0.000000e+000
      vertex  2.435004e+000 -1.277989e+000  6.000000e+001
      vertex  2.263206e+000 -1.562178e+000  6.000000e+001
    endloop
  endfacet
  facet normal  7.871835e-001 -6.167189e-001  0.000000e+000
    outer loop
      vertex  2.263206e+000 -1.562178e+000  0.000000e+000
      vertex  2.263206e+000 -1.562178e+000  6.000000e+001
      vertex  2.058404e+000 -1.823587e+000  0.000000e+000
    endloop
  endfacet
  facet normal  7.871835e-001 -6.167189e-001  0.000000e+000
    outer loop
      vertex  2.058404e+000 -1.823587e+000  0.000000e+000
      vertex  2.263206e+000 -1.562178e+000  6.000000e+001
      vertex  2.058404e+000 -1.823587e+000  6.000000e+001
    endloop
  endfacet
  facet normal  7.071068e-001 -7.071068e-001  0.000000e+000
    outer loop
      vertex  2.058404e+000 -1.823587e+000  0.000000e+000
      vertex  2.058404e+000 -1.823587e+000  6.000000e+001
      vertex  1.823587e+000 -2.058404e+000  0.000000e+000
    endloop
  endfacet
  facet normal  7.071068e-001 -7.071068e-001  0.000000e+000
    outer loop
      vertex  1.823587e+000 -2.058404e+000  0.000000e+000
      vertex  2.058404e+000 -1.823587e+000  6.000000e+001
      vertex  1.823587e+000 -2.058404e+000  6.000000e+001
    endloop
  endfacet
  facet normal  6.167189e-001 -7.871835e-001  0.000000e+000
    outer loop
      vertex  1.823587e+000 -2.058404e+000  0.000000e+000
      vertex  1.823587e+000 -2.058404e+000  6.000000e+001
      vertex  1.562178e+000 -2.263206e+000  0.000000e+000
    endloop
  endfacet
  facet normal  6.167189e-001 -7.871835e-001  0.000000e+000
    outer loop
      vertex  1.562178e+000 -2.263206e+000  0.000000e+000
      vertex  1.823587e+000 -2.058404e+000  6.000000e+001
      vertex  1.562178e+000 -2.263206e+000  6.000000e+001
    endloop
  endfacet
  facet normal  5.173379e-001 -8.557813e-001  0.000000e+000
    outer loop
      vertex  1.562178e+000 -2.263206e+000  0.000000e+000
      vertex  1.562178e+000 -2.263206e+000  6.000000e+001
      vertex  1.277989e+000 -2.435004e+000  0.000000e+000
    endloop
  endfacet
  facet normal  5.173379e-001 -8.557813e-001  0.000000e+000
    outer loop
      vertex  1.277989e+000 -2.435004e+000  0.000000e+000
      vertex  1.562178e+000 -2.263206e+000  6.000000e+001
      vertex  1.277989e+000 -2.435004e+000  6.000000e+001
    endloop
  endfacet
  facet normal  4.104134e-001 -9.118996e-001  0.000000e+000
    outer loop
      vertex  1.277989e+000 -2.435004e+000  0.000000e+000
      vertex  1.277989e+000 -2.435004e+000  6.000000e+001
      vertex  9.751635e-001 -2.571295e+000  0.000000e+000
    endloop
  endfacet
  facet normal  4.104134e-001 -9.118996e-001  0.000000e+000
    outer loop
      vertex  9.751635e-001 -2.571295e+000  0.000000e+000
      vertex  1.277989e+000 -2.435004e+000  6.000000e+001
      vertex  9.751635e-001 -2.571295e+000  6.000000e+001
    endloop
  endfacet
  facet normal  2.975026e-001 -9.547210e-001  0.000000e+000
    outer loop
      vertex  9.751635e-001 -2.571295e+000  0.000000e+000
      vertex  9.751635e-001 -2.571295e+000  6.000000e+001
      vertex  6.581181e-001 -2.670090e+000  0.000000e+000
    endloop
  endfacet
  facet normal  2.975026e-001 -9.547210e-001  0.000000e+000
    outer loop
      vertex  6.581181e-001 -2.670090e+000  0.000000e+000
      vertex  9.751635e-001 -2.571295e+000  6.000000e+001
      vertex  6.581181e-001 -2.670090e+000  6.000000e+001
    endloop
  endfacet
  facet normal  1.802554e-001 -9.836199e-001  0.000000e+000
    outer loop
      vertex  6.581181e-001 -2.670090e+000  0.000000e+000
      vertex  6.581181e-001 -2.670090e+000  6.000000e+001
      vertex  3.314759e-001 -2.729949e+000  0.000000e+000
    endloop
  endfacet
  facet normal  1.802554e-001 -9.836199e-001  0.000000e+000
    outer loop
      vertex  3.314759e-001 -2.729949e+000  0.000000e+000
      vertex  6.581181e-001 -2.670090e+000  6.000000e+001
      vertex  3.314759e-001 -2.729949e+000  6.000000e+001
    endloop
  endfacet
  facet normal  6.037828e-002 -9.981756e-001  0.000000e+000
    outer loop
      vertex  3.314759e-001 -2.729949e+000  0.000000e+000
      vertex  3.314759e-001 -2.729949e+000  6.000000e+001
      vertex -5.051668e-016 -2.750000e+000  0.000000e+000
    endloop
  endfacet
  facet normal  6.037828e-002 -9.981756e-001  0.000000e+000
    outer loop
      vertex -5.051668e-016 -2.750000e+000  0.000000e+000
      vertex  3.314759e-001 -2.729949e+000  6.000000e+001
      vertex -5.051668e-016 -2.750000e+000  6.000000e+001
    endloop
  endfacet
  facet normal -6.037828e-002 -9.981756e-001  -0.000000e+000
    outer loop
      vertex -5.051668e-016 -2.750000e+000  0.000000e+000
      vertex -5.051668e-016 -2.750000e+000  6.000000e+001
      vertex -3.314759e-001 -2.729949e+000  0.000000e+000
    endloop
  endfacet
  facet normal -6.037828e-002 -9.981756e-001  0.000000e+000
    outer loop
      vertex -3.314759e-001 -2.729949e+000  0.000000e+000
      vertex -5.051668e-016 -2.750000e+000  6.000000e+001
      vertex -3.314759e-001 -2.729949e+000  6.000000e+001
    endloop
  endfacet
  facet normal -1.802554e-001 -9.836199e-001  -0.000000e+000
    outer loop
      vertex -3.314759e-001 -2.729949e+000  0.000000e+000
      vertex -3.314759e-001 -2.729949e+000  6.000000e+001
      vertex -6.581181e-001 -2.670090e+000  0.000000e+000
    endloop
  endfacet
  facet normal -1.802554e-001 -9.836199e-001  0.000000e+000
    outer loop
      vertex -6.581181e-001 -2.670090e+000  0.000000e+000
      vertex -3.314759e-001 -2.729949e+000  6.000000e+001
      vertex -6.581181e-001 -2.670090e+000  6.000000e+001
    endloop
  endfacet
  facet normal -2.975026e-001 -9.547210e-001  -0.000000e+000
    outer loop
      vertex -6.581181e-001 -2.670090e+000  0.000000e+000
      vertex -6.581181e-001 -2.670090e+000  6.000000e+001
      vertex -9.751635e-001 -2.571295e+000  0.000000e+000
    endloop
  endfacet
  facet normal -2.975026e-001 -9.547210e-001  0.000000e+000
    outer loop
      vertex -9.751635e-001 -2.571295e+000  0.000000e+000
      vertex -6.581181e-001 -2.670090e+000  6.000000e+001
      vertex -9.751635e-001 -2.571295e+000  6.000000e+001
    endloop
  endfacet
  facet normal -4.104134e-001 -9.118996e-001  -0.000000e+000
    outer loop
      vertex -9.751635e-001 -2.571295e+000  0.000000e+000
      vertex -9.751635e-001 -2.571295e+000  6.000000e+001
      vertex -1.277989e+000 -2.435004e+000  0.000000e+000
    endloop
  endfacet
  facet normal -4.104134e-001 -9.118996e-001  0.000000e+000
    outer loop
      vertex -1.277989e+000 -2.435004e+000  0.000000e+000
      vertex -9.751635e-001 -2.571295e+000  6.000000e+001
      vertex -1.277989e+000 -2.435004e+000  6.000000e+001
    endloop
  endfacet
  facet normal -5.173379e-001 -8.557813e-001  -0.000000e+000
    outer loop
      vertex -1.277989e+000 -2.435004e+000  0.000000e+000
      vertex -1.277989e+000 -2.435004e+000  6.000000e+001
      vertex -1.562178e+000 -2.263206e+000  0.000000e+000
    endloop
  endfacet
  facet normal -5.173379e-001 -8.557813e-001  0.000000e+000
    outer loop
      vertex -1.562178e+000 -2.263206e+000  0.000000e+000
      vertex -1.277989e+000 -2.435004e+000  6.000000e+001
      vertex -1.562178e+000 -2.263206e+000  6.000000e+001
    endloop
  endfacet
  facet normal -6.167189e-001 -7.871835e-001  -0.000000e+000
    outer loop
      vertex -1.562178e+000 -2.263206e+000  0.000000e+000
      vertex -1.562178e+000 -2.263206e+000  6.000000e+001
      vertex -1.823587e+000 -2.058404e+000  0.000000e+000
    endloop
  endfacet
  facet normal -6.167189e-001 -7.871835e-001  0.000000e+000
    outer loop
      vertex -1.823587e+000 -2.058404e+000  0.000000e+000
      vertex -1.562178e+000 -2.263206e+000  6.000000e+001
      vertex -1.823587e+000 -2.058404e+000  6.000000e+001
    endloop
  endfacet
  facet normal -7.071068e-001 -7.071068e-001  -0.000000e+000
    outer loop
      vertex -1.823587e+000 -2.058404e+000  0.000000e+000
      vertex -1.823587e+000 -2.058404e+000  6.000000e+001
      vertex -2.058404e+000 -1.823587e+000  0.000000e+000
    endloop
  endfacet
  facet normal -7.071068e-001 -7.071068e-001  0.000000e+000
    outer loop
      vertex -2.058404e+000 -1.823587e+000  0.000000e+000
      vertex -1.823587e+000 -2.058404e+000  6.000000e+001
      vertex -2.058404e+000 -1.823587e+000  6.000000e+001
    endloop
  endfacet
  facet normal -7.871835e-001 -6.167189e-001  -0.000000e+000
    outer loop
      vertex -2.058404e+000 -1.823587e+000  0.000000e+000
      vertex -2.058404e+000 -1.823587e+000  6.000000e+001
      vertex -2.263206e+000 -1.562178e+000  0.000000e+000
    endloop
  endfacet
  facet normal -7.871835e-001 -6.167189e-001  0.000000e+000
    outer loop
      vertex -2.263206e+000 -1.562178e+000  0.000000e+000
      vertex -2.058404e+000 -1.823587e+000  6.000000e+001
      vertex -2.263206e+000 -1.562178e+000  6.000000e+001
    endloop
  endfacet
  facet normal -8.557813e-001 -5.173379e-001  -0.000000e+000
    outer loop
      vertex -2.263206e+000 -1.562178e+000  0.000000e+000
      vertex -2.263206e+000 -1.562178e+000  6.000000e+001
      vertex -2.435004e+000 -1.277989e+000  0.000000e+000
    endloop
  endfacet
  facet normal -8.557813e-001 -5.173379e-001  0.000000e+000
    outer loop
      vertex -2.435004e+000 -1.277989e+000  0.000000e+000
      vertex -2.263206e+000 -1.562178e+000  6.000000e+001
      vertex -2.435004e+000 -1.277989e+000  6.000000e+001
    endloop
  endfacet
  facet normal -9.118996e-001 -4.104134e-001  -0.000000e+000
    outer loop
      vertex -2.435004e+000 -1.277989e+000  0.000000e+000
      vertex -2.435004e+000 -1.277989e+000  6.000000e+001
      vertex -2.571295e+000 -9.751635e-001  0.000000e+000
    endloop
  endfacet
  facet normal -9.118996e-001 -4.104134e-001  0.000000e+000
    outer loop
      vertex -2.571295e+000 -9.751635e-001  0.000000e+000
      vertex -2.435004e+000 -1.277989e+000  6.000000e+001
      vertex -2.571295e+000 -9.751635e-001  6.000000e+001
    endloop
  endfacet
  facet normal -9.547210e-001 -2.975026e-001  -0.000000e+000
    outer loop
      vertex -2.571295e+000 -9.751635e-001  0.000000e+000
      vertex -2.571295e+000 -9.751635e-001  6.000000e+001
      vertex -2.670090e+000 -6.581181e-001  0.000000e+000
    endloop
  endfacet
  facet normal -9.547210e-001 -2.975026e-001  0.000000e+000
    outer loop
      vertex -2.670090e+000 -6.581181e-001  0.000000e+000
      vertex -2.571295e+000 -9.751635e-001  6.000000e+001
      vertex -2.670090e+000 -6.581181e-001  6.000000e+001
    endloop
  endfacet
  facet normal -9.836199e-001 -1.802554e-001  -0.000000e+000
    outer loop
      vertex -2.670090e+000 -6.581181e-001  0.000000e+000
      vertex -2.670090e+000 -6.581181e-001  6.000000e+001
      vertex -2.729949e+000 -3.314759e-001  0.000000e+000
    endloop
  endfacet
  facet normal -9.836199e-001 -1.802554e-001  0.000000e+000
    outer loop
      vertex -2.729949e+000 -3.314759e-001  0.000000e+000
      vertex -2.670090e+000 -6.581181e-001  6.000000e+001
      vertex -2.729949e+000 -3.314759e-001  6.000000e+001
    endloop
  endfacet
  facet normal -9.981756e-001 -6.037828e-002  -0.000000e+000
    outer loop
      vertex -2.729949e+000 -3.314759e-001  0.000000e+000
      vertex -2.729949e+000 -3.314759e-001  6.000000e+001
      vertex -2.750000e+000  3.367779e-016  0.000000e+000
    endloop
  endfacet
  facet normal -9.981756e-001 -6.037828e-002  0.000000e+000
    outer loop
      vertex -2.750000e+000  3.367779e-016  0.000000e+000
      vertex -2.729949e+000 -3.314759e-001  6.000000e+001
      vertex -2.750000e+000  3.367779e-016  6.000000e+001
    endloop
  endfacet
  facet normal -9.981756e-001  6.037828e-002  0.000000e+000
    outer loop
      vertex -2.750000e+000  3.367779e-016  0.000000e+000
      vertex -2.750000e+000  3.367779e-016  6.000000e+001
      vertex -2.729949e+000  3.314759e-001  0.000000e+000
    endloop
  endfacet
  facet normal -9.981756e-001  6.037828e-002  0.000000e+000
    outer loop
      vertex -2.729949e+000  3.314759e-001  0.000000e+000
      vertex -2.750000e+000  3.367779e-016  6.000000e+001
      vertex -2.729949e+000  3.314759e-001  6.000000e+001
    endloop
  endfacet
  facet normal -9.836199e-001  1.802554e-001  0.000000e+000
    outer loop
      vertex -2.729949e+000  3.314759e-001  0.000000e+000
      vertex -2.729949e+000  3.314759e-001  6.000000e+001
      vertex -2.670090e+000  6.581181e-001  0.000000e+000
    endloop
  endfacet
  facet normal -9.836199e-001  1.802554e-001  0.000000e+000
    outer loop
      vertex -2.670090e+000  6.581181e-001  0.000000e+000
      vertex -2.729949e+000  3.314759e-001  6.000000e+001
      vertex -2.670090e+000  6.581181e-001  6.000000e+001
    endloop
  endfacet
  facet normal -9.547210e-001  2.975026e-001  0.000000e+000
    outer loop
      vertex -2.670090e+000  6.581181e-001  0.000000e+000
      vertex -2.670090e+000  6.581181e-001  6.000000e+001
      vertex -2.571295e+000  9.751635e-001  0.000000e+000
    endloop
  endfacet
  facet normal -9.547210e-001  2.975026e-001  0.000000e+000
    outer loop
      vertex -2.571295e+000  9.751635e-001  0.000000e+000
      vertex -2.670090e+000  6.581181e-001  6.000000e+001
      vertex -2.571295e+000  9.751635e-001  6.000000e+001
    endloop
  endfacet
  facet normal -9.118996e-001  4.104134e-001  0.000000e+000
    outer loop
      vertex -2.571295e+000  9.751635e-001  0.000000e+000
      vertex -2.571295e+000  9.751635e-001  6.000000e+001
      vertex -2.435004e+000  1.277989e+000  0.000000e+000
    endloop
  endfacet
  facet normal -9.118996e-001  4.104134e-001  0.000000e+000
    outer loop
      vertex -2.435004e+000  1.277989e+000  0.000000e+000
      vertex -2.571295e+000  9.751635e-001  6.000000e+001
      vertex -2.435004e+000  1.277989e+000  6.000000e+001
    endloop
  endfacet
  facet normal -8.557813e-001  5.173379e-001  0.000000e+000
    outer loop
      vertex -2.435004e+000  1.277989e+000  0.000000e+000
      vertex -2.435004e+000  1.277989e+000  6.000000e+001
      vertex -2.263206e+000  1.562178e+000  0.000000e+000
    endloop
  endfacet
  facet normal -8.557813e-001  5.173379e-001  0.000000e+000
    outer loop
      vertex -2.263206e+000  1.562178e+000  0.000000e+000
      vertex -2.435004e+000  1.277989e+000  6.000000e+001
      vertex -2.263206e+000  1.562178e+000  6.000000e+001
    endloop
  endfacet
  facet normal -7.871835e-001  6.167189e-001  0.000000e+000
    outer loop
      vertex -2.263206e+000  1.562178e+000  0.000000e+000
      vertex -2.263206e+000  1.562178e+000  6.000000e+001
      vertex -2.058404e+000  1.823587e+000  0.000000e+000
    endloop
  endfacet
  facet normal -7.871835e-001  6.167189e-001  0.000000e+000
    outer loop
      vertex -2.058404e+000  1.823587e+000  0.000000e+000
      vertex -2.263206e+000  1.562178e+000  6.000000e+001
      vertex -2.058404e+000  1.823587e+000  6.000000e+001
    endloop
  endfacet
  facet normal -7.071068e-001  7.071068e-001  0.000000e+000
    outer loop
      vertex -2.058404e+000  1.823587e+000  0.000000e+000
      vertex -2.058404e+000  1.823587e+000  6.000000e+001
      vertex -1.823587e+000  2.058404e+000  0.000000e+000
    endloop
  endfacet
  facet normal -7.071068e-001  7.071068e-001  0.000000e+000
    outer loop
      vertex -1.823587e+000  2.058404e+000  0.000000e+000
      vertex -2.058404e+000  1.823587e+000  6.000000e+001
      vertex -1.823587e+000  2.058404e+000  6.000000e+001
    endloop
  endfacet
  facet normal -6.167189e-001  7.871835e-001  0.000000e+000
    outer loop
      vertex -1.823587e+000  2.058404e+000  0.000000e+000
      vertex -1.823587e+000  2.058404e+000  6.000000e+001
      vertex -1.562178e+000  2.263206e+000  0.000000e+000
    endloop
  endfacet
  facet normal -6.167189e-001  7.871835e-001  0.000000e+000
    outer loop
      vertex -1.562178e+000  2.263206e+000  0.000000e+000
      vertex -1.823587e+000  2.058404e+000  6.000000e+001
      vertex -1.562178e+000  2.263206e+000  6.000000e+001
    endloop
  endfacet
  facet normal -5.173379e-001  8.557813e-001  0.000000e+000
    outer loop
      vertex -1.562178e+000  2.263206e+000  0.000000e+000
      vertex -1.562178e+000  2.263206e+000  6.000000e+001
      vertex -1.277989e+000  2.435004e+000  0.000000e+000
    endloop
  endfacet
  facet normal -5.173379e-001  8.557813e-001  0.000000e+000
    outer loop
      vertex -1.277989e+000  2.435004e+000  0.000000e+000
      vertex -1.562178e+000  2.263206e+000  6.000000e+001
      vertex -1.277989e+000  2.435004e+000  6.000000e+001
    endloop
  endfacet
  facet normal -4.104134e-001  9.118996e-001  0.000000e+000
    outer loop
      vertex -1.277989e+000  2.435004e+000  0.000000e+000
      vertex -1.277989e+000  2.435004e+000  6.000000e+001
      vertex -9.751635e-001  2.571295e+000  0.000000e+000
    endloop
  endfacet
  facet normal -4.104134e-001  9.118996e-001  0.000000e+000
    outer loop
      vertex -9.751635e-001  2.571295e+000  0.000000e+000
      vertex -1.277989e+000  2.435004e+000  6.000000e+001
      vertex -9.751635e-001  2.571295e+000  6.000000e+001
    endloop
  endfacet
  facet normal -2.975026e-001  9.547210e-001  0.000000e+000
    outer loop
      vertex -9.751635e-001  2.571295e+000  0.000000e+000
      vertex -9.751635e-001  2.571295e+000  6.000000e+001
      vertex -6.581181e-001  2.670090e+000  0.000000e+000
    endloop
  endfacet
  facet normal -2.975026e-001  9.547210e-001  0.000000e+000
    outer loop
      vertex -6.581181e-001  2.670090e+000  0.000000e+000
      vertex -9.751635e-001  2.571295e+000  6.000000e+001
      vertex -6.581181e-001  2.670090e+000  6.000000e+001
    endloop
  endfacet
  facet normal -1.802554e-001  9.836199e-001  0.000000e+000
    outer loop
      vertex -6.581181e-001  2.670090e+000  0.000000e+000
      vertex -6.581181e-001  2.670090e+000  6.000000e+001
      vertex -3.314759e-001  2.729949e+000  0.000000e+000
    endloop
  endfacet
  facet normal -1.802554e-001  9.836199e-001  0.000000e+000
    outer loop
      vertex -3.314759e-001  2.729949e+000  0.000000e+000
      vertex -6.581181e-001  2.670090e+000  6.000000e+001
      vertex -3.314759e-001  2.729949e+000  6.000000e+001
    endloop
  endfacet
  facet normal -6.037828e-002  9.981756e-001  0.000000e+000
    outer loop
      vertex -3.314759e-001  2.729949e+000  0.000000e+000
      vertex -3.314759e-001  2.729949e+000  6.000000e+001
      vertex  1.683889e-016  2.750000e+000  0.000000e+000
    endloop
  endfacet
  facet normal -6.037828e-002  9.981756e-001  0.000000e+000
    outer loop
      vertex  1.683889e-016  2.750000e+000  0.000000e+000
      vertex -3.314759e-001  2.729949e+000  6.000000e+001
      vertex  1.683889e-016  2.750000e+000  6.000000e+001
    endloop
  endfacet
  facet normal  6.037828e-002  9.981756e-001  0.000000e+000
    outer loop
      vertex  1.683889e-016  2.750000e+000  0.000000e+000
      vertex  1.683889e-016  2.750000e+000  6.000000e+001
      vertex  3.314759e-001  2.729949e+000  0.000000e+000
    endloop
  endfacet
  facet normal  6.037828e-002  9.981756e-001  -0.000000e+000
    outer loop
      vertex  3.314759e-001  2.729949e+000  0.000000e+000
      vertex  1.683889e-016  2.750000e+000  6.000000e+001
      vertex  3.314759e-001  2.729949e+000  6.000000e+001
    endloop
  endfacet
  facet normal  1.802554e-001  9.836199e-001  0.000000e+000
    outer loop
      vertex  3.314759e-001  2.729949e+000  0.000000e+000
      vertex  3.314759e-001  2.729949e+000  6.000000e+001
      vertex  6.581181e-001  2.670090e+000  0.000000e+000
    endloop
  endfacet
  facet normal  1.802554e-001  9.836199e-001  -0.000000e+000
    outer loop
      vertex  6.581181e-001  2.670090e+000  0.000000e+000
      vertex  3.314759e-001  2.729949e+000  6.000000e+001
      vertex  6.581181e-001  2.670090e+000  6.000000e+001
    endloop
  endfacet
  facet normal  2.975026e-001  9.547210e-001  0.000000e+000
    outer loop
      vertex  6.581181e-001  2.670090e+000  0.000000e+000
      vertex  6.581181e-001  2.670090e+000  6.000000e+001
      vertex  9.751635e-001  2.571295e+000  0.000000e+000
    endloop
  endfacet
  facet normal  2.975026e-001  9.547210e-001  -0.000000e+000
    outer loop
      vertex  9.751635e-001  2.571295e+000  0.000000e+000
      vertex  6.581181e-001  2.670090e+000  6.000000e+001
      vertex  9.751635e-001  2.571295e+000  6.000000e+001
    endloop
  endfacet
  facet normal  4.104134e-001  9.118996e-001  0.000000e+000
    outer loop
      vertex  9.751635e-001  2.571295e+000  0.000000e+000
      vertex  9.751635e-001  2.571295e+000  6.000000e+001
      vertex  1.277989e+000  2.435004e+000  0.000000e+000
    endloop
  endfacet
  facet normal  4.104134e-001  9.118996e-001  -0.000000e+000
    outer loop
      vertex  1.277989e+000  2.435004e+000  0.000000e+000
      vertex  9.751635e-001  2.571295e+000  6.000000e+001
      vertex  1.277989e+000  2.435004e+000  6.000000e+001
    endloop
  endfacet
  facet normal  5.173379e-001  8.557813e-001  0.000000e+000
    outer loop
      vertex  1.277989e+000  2.435004e+000  0.000000e+000
      vertex  1.277989e+000  2.435004e+000  6.000000e+001
      vertex  1.562178e+000  2.263206e+000  0.000000e+000
    endloop
  endfacet
  facet normal  5.173379e-001  8.557813e-001  -0.000000e+000
    outer loop
      vertex  1.562178e+000  2.263206e+000  0.000000e+000
      vertex  1.277989e+000  2.435004e+000  6.000000e+001
      vertex  1.562178e+000  2.263206e+000  6.000000e+001
    endloop
  endfacet
  facet normal  6.167189e-001  7.871835e-001  0.000000e+000
    outer loop
      vertex  1.562178e+000  2.263206e+000  0.000000e+000
      vertex  1.562178e+000  2.263206e+000  6.000000e+001
      vertex  1.823587e+000  2.058404e+000  0.000000e+000
    endloop
  endfacet
  facet normal  6.167189e-001  7.871835e-001  -0.000000e+000
    outer loop
      vertex  1.823587e+000  2.058404e+000  0.000000e+000
      vertex  1.562178e+000  2.263206e+000  6.000000e+001
      vertex  1.823587e+000  2.058404e+000  6.000000e+001
    endloop
  endfacet
  facet normal  7.071068e-001  7.071068e-001  0.000000e+000
    outer loop
      vertex  1.823587e+000  2.058404e+000  0.000000e+000
      vertex  1.823587e+000  2.058404e+000  6.000000e+001
      vertex  2.058404e+000  1.823587e+000  0.000000e+000
    endloop
  endfacet
  facet normal  7.071068e-001  7.071068e-001  -0.000000e+000
    outer loop
      vertex  2.058404e+000  1.823587e+000  0.000000e+000
      vertex  1.823587e+000  2.058404e+000  6.000000e+001
      vertex  2.058404e+000  1.823587e+000  6.000000e+001
    endloop
  endfacet
  facet normal  7.871835e-001  6.167189e-001  0.000000e+000
    outer loop
      vertex  2.058404e+000  1.823587e+000  0.000000e+000
      vertex  2.058404e+000  1.823587e+000  6.000000e+001
      vertex  2.263206e+000  1.562178e+000  0.000000e+000
    endloop
  endfacet
  facet normal  7.871835e-001  6.167189e-001  -0.000000e+000
    outer loop
      vertex  2.263206e+000  1.562178e+000  0.000000e+000
      vertex  2.058404e+000  1.823587e+000  6.000000e+001
      vertex  2.263206e+000  1.562178e+000  6.000000e+001
    endloop
  endfacet
  facet normal  8.557813e-001  5.173379e-001  0.000000e+000
    outer loop
      vertex  2.263206e+000  1.562178e+000  0.000000e+000
      vertex  2.263206e+000  1.562178e+000  6.000000e+001
      vertex  2.435004e+000  1.277989e+000  0.000000e+000
    endloop
  endfacet
  facet normal  8.557813e-001  5.173379e-001  -0.000000e+000
    outer loop
      vertex  2.435004e+000  1.277989e+000  0.000000e+000
      vertex  2.263206e+000  1.562178e+000  6.000000e+001
      vertex  2.435004e+000  1.277989e+000  6.000000e+001
    endloop
  endfacet
  facet normal  9.118996e-001  4.104134e-001  0.000000e+000
    outer loop
      vertex  2.435004e+000  1.277989e+000  0.000000e+000
      vertex  2.435004e+000  1.277989e+000  6.000000e+001
      vertex  2.571295e+000  9.751635e-001  0.000000e+000
    endloop
  endfacet
  facet normal  9.118996e-001  4.104134e-001  -0.000000e+000
    outer loop
      vertex  2.571295e+000  9.751635e-001  0.000000e+000
      vertex  2.435004e+000  1.277989e+000  6.000000e+001
      vertex  2.571295e+000  9.751635e-001  6.000000e+001
    endloop
  endfacet
  facet normal  9.547210e-001  2.975026e-001  0.000000e+000
    outer loop
      vertex  2.571295e+000  9.751635e-001  0.000000e+000
      vertex  2.571295e+000  9.751635e-001  6.000000e+001
      vertex  2.670090e+000  6.581181e-001  0.000000e+000
    endloop
  endfacet
  facet normal  9.547210e-001  2.975026e-001  -0.000000e+000
    outer loop
      vertex  2.670090e+000  6.581181e-001  0.000000e+000
      vertex  2.571295e+000  9.751635e-001  6.000000e+001
      vertex  2.670090e+000  6.581181e-001  6.000000e+001
    endloop
  endfacet
  facet normal  9.836199e-001  1.802554e-001  0.000000e+000
    outer loop
      vertex  2.670090e+000  6.581181e-001  0.000000e+000
      vertex  2.670090e+000  6.581181e-001  6.000000e+001
      vertex  2.729949e+000  3.314759e-001  0.000000e+000
    endloop
  endfacet
  facet normal  9.836199e-001  1.802554e-001  -0.000000e+000
    outer loop
      vertex  2.729949e+000  3.314759e-001  0.000000e+000
      vertex  2.670090e+000  6.581181e-001  6.000000e+001
      vertex  2.729949e+000  3.314759e-001  6.000000e+001
    endloop
  endfacet
  facet normal  9.981756e-001  6.037828e-002  0.000000e+000
    outer loop
      vertex  2.729949e+000  3.314759e-001  0.000000e+000
      vertex  2.729949e+000  3.314759e-001  6.000000e+001
      vertex  2.750000e+000  0.000000e+000  0.000000e+000
    endloop
  endfacet
  facet normal  9.981756e-001  6.037828e-002  -0.000000e+000
    outer loop
      vertex  2.750000e+000  0.000000e+000  0.000000e+000
      vertex  2.729949e+000  3.314759e-001  6.000000e+001
      vertex  2.750000e+000  0.000000e+000  6.000000e+001
    endloop
  endfacet
endsolid CATIA STL
