solid CATIA STL
  facet normal  0.000000e+000  0.000000e+000  1.000000e+000
    outer loop
      vertex  2.500000e+001 -6.800000e+001  2.500000e+001
      vertex  2.500000e+001  6.800000e+001  2.500000e+001
      vertex  1.525000e+001 -1.975000e+001  2.500000e+001
    endloop
  endfacet
  facet normal  0.000000e+000  0.000000e+000  1.000000e+000
    outer loop
      vertex  2.500000e+001 -6.800000e+001  2.500000e+001
      vertex  1.525000e+001 -1.975000e+001  2.500000e+001
      vertex  1.525000e+001 -5.025000e+001  2.500000e+001
    endloop
  endfacet
  facet normal  0.000000e+000  0.000000e+000  1.000000e+000
    outer loop
      vertex  2.500000e+001 -6.800000e+001  2.500000e+001
      vertex  1.525000e+001 -5.025000e+001  2.500000e+001
      vertex -3.834758e-017 -5.800000e+001  2.500000e+001
    endloop
  endfacet
  facet normal  0.000000e+000  0.000000e+000  1.000000e+000
    outer loop
      vertex  2.500000e+001 -6.800000e+001  2.500000e+001
      vertex -3.834758e-017 -5.800000e+001  2.500000e+001
      vertex  2.121320e+000 -5.887868e+001  2.500000e+001
    endloop
  endfacet
  facet normal  0.000000e+000  0.000000e+000  1.000000e+000
    outer loop
      vertex  2.500000e+001 -6.800000e+001  2.500000e+001
      vertex  2.121320e+000 -5.887868e+001  2.500000e+001
      vertex  3.000000e+000 -6.100000e+001  2.500000e+001
    endloop
  endfacet
  facet normal  0.000000e+000  0.000000e+000  1.000000e+000
    outer loop
      vertex  2.500000e+001 -6.800000e+001  2.500000e+001
      vertex  3.000000e+000 -6.100000e+001  2.500000e+001
      vertex  2.121320e+000 -6.312132e+001  2.500000e+001
    endloop
  endfacet
  facet normal  0.000000e+000  0.000000e+000  9.999999e-001
    outer loop
      vertex  2.500000e+001 -6.800000e+001  2.500000e+001
      vertex  2.121320e+000 -6.312132e+001  2.500000e+001
      vertex -1.217225e-015 -6.400000e+001  2.500000e+001
    endloop
  endfacet
  facet normal  0.000000e+000  0.000000e+000  1.000000e+000
    outer loop
      vertex  2.500000e+001 -6.800000e+001  2.500000e+001
      vertex -1.217225e-015 -6.400000e+001  2.500000e+001
      vertex -2.500000e+001 -6.800000e+001  2.500000e+001
    endloop
  endfacet
  facet normal  0.000000e+000  0.000000e+000  1.000000e+000
    outer loop
      vertex -2.500000e+001  6.800000e+001  2.500000e+001
      vertex -2.500000e+001 -6.800000e+001  2.500000e+001
      vertex -1.525000e+001 -5.025000e+001  2.500000e+001
    endloop
  endfacet
  facet normal  0.000000e+000  -0.000000e+000  1.000000e+000
    outer loop
      vertex -2.500000e+001  6.800000e+001  2.500000e+001
      vertex -1.525000e+001 -5.025000e+001  2.500000e+001
      vertex -1.525000e+001 -1.975000e+001  2.500000e+001
    endloop
  endfacet
  facet normal  0.000000e+000  -0.000000e+000  1.000000e+000
    outer loop
      vertex -2.500000e+001  6.800000e+001  2.500000e+001
      vertex -1.525000e+001 -1.975000e+001  2.500000e+001
      vertex -1.525000e+001 -1.525000e+001  2.500000e+001
    endloop
  endfacet
  facet normal  0.000000e+000  -0.000000e+000  1.000000e+000
    outer loop
      vertex -2.500000e+001  6.800000e+001  2.500000e+001
      vertex -1.525000e+001 -1.525000e+001  2.500000e+001
      vertex -1.525000e+001  1.525000e+001  2.500000e+001
    endloop
  endfacet
  facet normal  0.000000e+000  -0.000000e+000  1.000000e+000
    outer loop
      vertex -2.500000e+001  6.800000e+001  2.500000e+001
      vertex -1.525000e+001  1.525000e+001  2.500000e+001
      vertex -1.525000e+001  1.975000e+001  2.500000e+001
    endloop
  endfacet
  facet normal  0.000000e+000  -0.000000e+000  1.000000e+000
    outer loop
      vertex -2.500000e+001  6.800000e+001  2.500000e+001
      vertex -1.525000e+001  1.975000e+001  2.500000e+001
      vertex -1.525000e+001  5.025000e+001  2.500000e+001
    endloop
  endfacet
  facet normal  0.000000e+000  -0.000000e+000  1.000000e+000
    outer loop
      vertex -2.500000e+001  6.800000e+001  2.500000e+001
      vertex -1.525000e+001  5.025000e+001  2.500000e+001
      vertex -2.121320e+000  6.312132e+001  2.500000e+001
    endloop
  endfacet
  facet normal  0.000000e+000  -0.000000e+000  9.999999e-001
    outer loop
      vertex -2.500000e+001  6.800000e+001  2.500000e+001
      vertex -2.121320e+000  6.312132e+001  2.500000e+001
      vertex -3.834758e-017  6.400000e+001  2.500000e+001
    endloop
  endfacet
  facet normal  0.000000e+000  -0.000000e+000  1.000000e+000
    outer loop
      vertex -2.500000e+001  6.800000e+001  2.500000e+001
      vertex -3.834758e-017  6.400000e+001  2.500000e+001
      vertex  2.500000e+001  6.800000e+001  2.500000e+001
    endloop
  endfacet
  facet normal  0.000000e+000  0.000000e+000  1.000000e+000
    outer loop
      vertex -1.525000e+001  5.025000e+001  2.500000e+001
      vertex  1.525000e+001  5.025000e+001  2.500000e+001
      vertex -1.217225e-015  5.800000e+001  2.500000e+001
    endloop
  endfacet
  facet normal  0.000000e+000  0.000000e+000  1.000000e+000
    outer loop
      vertex -1.525000e+001  5.025000e+001  2.500000e+001
      vertex -1.217225e-015  5.800000e+001  2.500000e+001
      vertex -2.121320e+000  5.887868e+001  2.500000e+001
    endloop
  endfacet
  facet normal  0.000000e+000  0.000000e+000  1.000000e+000
    outer loop
      vertex -1.525000e+001  5.025000e+001  2.500000e+001
      vertex -2.121320e+000  5.887868e+001  2.500000e+001
      vertex -3.000000e+000  6.100000e+001  2.500000e+001
    endloop
  endfacet
  facet normal  0.000000e+000  -0.000000e+000  1.000000e+000
    outer loop
      vertex -1.525000e+001  5.025000e+001  2.500000e+001
      vertex -3.000000e+000  6.100000e+001  2.500000e+001
      vertex -2.121320e+000  6.312132e+001  2.500000e+001
    endloop
  endfacet
  facet normal  0.000000e+000  0.000000e+000  9.999999e-001
    outer loop
      vertex -2.500000e+001 -6.800000e+001  2.500000e+001
      vertex -1.217225e-015 -6.400000e+001  2.500000e+001
      vertex -2.121320e+000 -6.312132e+001  2.500000e+001
    endloop
  endfacet
  facet normal  0.000000e+000  0.000000e+000  1.000000e+000
    outer loop
      vertex -2.500000e+001 -6.800000e+001  2.500000e+001
      vertex -2.121320e+000 -6.312132e+001  2.500000e+001
      vertex -3.000000e+000 -6.100000e+001  2.500000e+001
    endloop
  endfacet
  facet normal  0.000000e+000  -0.000000e+000  1.000000e+000
    outer loop
      vertex -2.500000e+001 -6.800000e+001  2.500000e+001
      vertex -3.000000e+000 -6.100000e+001  2.500000e+001
      vertex -2.121320e+000 -5.887868e+001  2.500000e+001
    endloop
  endfacet
  facet normal  0.000000e+000  -0.000000e+000  1.000000e+000
    outer loop
      vertex -2.500000e+001 -6.800000e+001  2.500000e+001
      vertex -2.121320e+000 -5.887868e+001  2.500000e+001
      vertex -3.834758e-017 -5.800000e+001  2.500000e+001
    endloop
  endfacet
  facet normal  0.000000e+000  -0.000000e+000  9.999999e-001
    outer loop
      vertex -2.500000e+001 -6.800000e+001  2.500000e+001
      vertex -3.834758e-017 -5.800000e+001  2.500000e+001
      vertex  1.525000e+001 -5.025000e+001  2.500000e+001
    endloop
  endfacet
  facet normal  0.000000e+000  0.000000e+000  9.999999e-001
    outer loop
      vertex -2.500000e+001 -6.800000e+001  2.500000e+001
      vertex  1.525000e+001 -5.025000e+001  2.500000e+001
      vertex -1.525000e+001 -5.025000e+001  2.500000e+001
    endloop
  endfacet
  facet normal  0.000000e+000  0.000000e+000  1.000000e+000
    outer loop
      vertex  1.525000e+001  5.025000e+001  2.500000e+001
      vertex  2.121320e+000  6.312132e+001  2.500000e+001
      vertex  3.000000e+000  6.100000e+001  2.500000e+001
    endloop
  endfacet
  facet normal  0.000000e+000  0.000000e+000  1.000000e+000
    outer loop
      vertex  1.525000e+001  5.025000e+001  2.500000e+001
      vertex  3.000000e+000  6.100000e+001  2.500000e+001
      vertex  2.121320e+000  5.887868e+001  2.500000e+001
    endloop
  endfacet
  facet normal  0.000000e+000  0.000000e+000  1.000000e+000
    outer loop
      vertex  1.525000e+001  5.025000e+001  2.500000e+001
      vertex  2.121320e+000  5.887868e+001  2.500000e+001
      vertex -1.217225e-015  5.800000e+001  2.500000e+001
    endloop
  endfacet
  facet normal  -0.000000e+000  0.000000e+000  9.999999e-001
    outer loop
      vertex  2.500000e+001  6.800000e+001  2.500000e+001
      vertex -3.834758e-017  6.400000e+001  2.500000e+001
      vertex  2.121320e+000  6.312132e+001  2.500000e+001
    endloop
  endfacet
  facet normal  -0.000000e+000  0.000000e+000  1.000000e+000
    outer loop
      vertex  2.500000e+001  6.800000e+001  2.500000e+001
      vertex  2.121320e+000  6.312132e+001  2.500000e+001
      vertex  1.525000e+001  5.025000e+001  2.500000e+001
    endloop
  endfacet
  facet normal  -0.000000e+000  0.000000e+000  1.000000e+000
    outer loop
      vertex  2.500000e+001  6.800000e+001  2.500000e+001
      vertex  1.525000e+001  5.025000e+001  2.500000e+001
      vertex  1.525000e+001  1.975000e+001  2.500000e+001
    endloop
  endfacet
  facet normal  -0.000000e+000  0.000000e+000  1.000000e+000
    outer loop
      vertex  2.500000e+001  6.800000e+001  2.500000e+001
      vertex  1.525000e+001  1.975000e+001  2.500000e+001
      vertex  1.525000e+001  1.525000e+001  2.500000e+001
    endloop
  endfacet
  facet normal  -0.000000e+000  0.000000e+000  1.000000e+000
    outer loop
      vertex  2.500000e+001  6.800000e+001  2.500000e+001
      vertex  1.525000e+001  1.525000e+001  2.500000e+001
      vertex  1.525000e+001 -1.525000e+001  2.500000e+001
    endloop
  endfacet
  facet normal  -0.000000e+000  0.000000e+000  1.000000e+000
    outer loop
      vertex  2.500000e+001  6.800000e+001  2.500000e+001
      vertex  1.525000e+001 -1.525000e+001  2.500000e+001
      vertex  1.525000e+001 -1.975000e+001  2.500000e+001
    endloop
  endfacet
  facet normal  0.000000e+000  0.000000e+000  1.000000e+000
    outer loop
      vertex -1.525000e+001 -1.975000e+001  2.500000e+001
      vertex  1.525000e+001 -1.975000e+001  2.500000e+001
      vertex -1.525000e+001 -1.525000e+001  2.500000e+001
    endloop
  endfacet
  facet normal  -0.000000e+000  0.000000e+000  1.000000e+000
    outer loop
      vertex -1.525000e+001 -1.525000e+001  2.500000e+001
      vertex  1.525000e+001 -1.975000e+001  2.500000e+001
      vertex  1.525000e+001 -1.525000e+001  2.500000e+001
    endloop
  endfacet
  facet normal  0.000000e+000  0.000000e+000  1.000000e+000
    outer loop
      vertex -1.525000e+001  1.525000e+001  2.500000e+001
      vertex  1.525000e+001  1.525000e+001  2.500000e+001
      vertex -1.525000e+001  1.975000e+001  2.500000e+001
    endloop
  endfacet
  facet normal  -0.000000e+000  0.000000e+000  1.000000e+000
    outer loop
      vertex -1.525000e+001  1.975000e+001  2.500000e+001
      vertex  1.525000e+001  1.525000e+001  2.500000e+001
      vertex  1.525000e+001  1.975000e+001  2.500000e+001
    endloop
  endfacet
  facet normal  0.000000e+000  0.000000e+000 -1.000000e+000
    outer loop
      vertex  2.500000e+001 -6.800000e+001  0.000000e+000
      vertex -2.500000e+001 -6.800000e+001  0.000000e+000
      vertex -4.824368e-016 -6.400000e+001  0.000000e+000
    endloop
  endfacet
  facet normal  0.000000e+000  0.000000e+000 -9.999999e-001
    outer loop
      vertex  2.500000e+001 -6.800000e+001  0.000000e+000
      vertex -4.824368e-016 -6.400000e+001  0.000000e+000
      vertex  2.121320e+000 -6.312132e+001  0.000000e+000
    endloop
  endfacet
  facet normal  0.000000e+000  0.000000e+000 -1.000000e+000
    outer loop
      vertex  2.500000e+001 -6.800000e+001  0.000000e+000
      vertex  2.121320e+000 -6.312132e+001  0.000000e+000
      vertex  3.000000e+000 -6.100000e+001  0.000000e+000
    endloop
  endfacet
  facet normal  0.000000e+000  0.000000e+000 -1.000000e+000
    outer loop
      vertex  2.500000e+001 -6.800000e+001  0.000000e+000
      vertex  3.000000e+000 -6.100000e+001  0.000000e+000
      vertex  2.121320e+000 -5.887868e+001  0.000000e+000
    endloop
  endfacet
  facet normal  0.000000e+000  0.000000e+000 -1.000000e+000
    outer loop
      vertex  2.500000e+001 -6.800000e+001  0.000000e+000
      vertex  2.121320e+000 -5.887868e+001  0.000000e+000
      vertex -5.510911e-016 -5.800000e+001  0.000000e+000
    endloop
  endfacet
  facet normal  0.000000e+000  0.000000e+000 -1.000000e+000
    outer loop
      vertex  2.500000e+001 -6.800000e+001  0.000000e+000
      vertex -5.510911e-016 -5.800000e+001  0.000000e+000
      vertex  1.525000e+001 -5.025000e+001  0.000000e+000
    endloop
  endfacet
  facet normal  0.000000e+000  0.000000e+000 -1.000000e+000
    outer loop
      vertex  2.500000e+001 -6.800000e+001  0.000000e+000
      vertex  1.525000e+001 -5.025000e+001  0.000000e+000
      vertex  1.525000e+001 -1.975000e+001  0.000000e+000
    endloop
  endfacet
  facet normal  0.000000e+000  0.000000e+000 -1.000000e+000
    outer loop
      vertex  2.500000e+001 -6.800000e+001  0.000000e+000
      vertex  1.525000e+001 -1.975000e+001  0.000000e+000
      vertex  2.500000e+001  6.800000e+001  0.000000e+000
    endloop
  endfacet
  facet normal  -0.000000e+000  0.000000e+000 -1.000000e+000
    outer loop
      vertex -2.500000e+001  6.800000e+001  0.000000e+000
      vertex  2.500000e+001  6.800000e+001  0.000000e+000
      vertex -5.510911e-016  6.400000e+001  0.000000e+000
    endloop
  endfacet
  facet normal  -0.000000e+000  0.000000e+000 -9.999999e-001
    outer loop
      vertex -2.500000e+001  6.800000e+001  0.000000e+000
      vertex -5.510911e-016  6.400000e+001  0.000000e+000
      vertex -2.121320e+000  6.312132e+001  0.000000e+000
    endloop
  endfacet
  facet normal  -0.000000e+000  0.000000e+000 -1.000000e+000
    outer loop
      vertex -2.500000e+001  6.800000e+001  0.000000e+000
      vertex -2.121320e+000  6.312132e+001  0.000000e+000
      vertex -1.525000e+001  5.025000e+001  0.000000e+000
    endloop
  endfacet
  facet normal  -0.000000e+000  -0.000000e+000 -1.000000e+000
    outer loop
      vertex -2.500000e+001  6.800000e+001  0.000000e+000
      vertex -1.525000e+001  5.025000e+001  0.000000e+000
      vertex -1.525000e+001  1.975000e+001  0.000000e+000
    endloop
  endfacet
  facet normal  -0.000000e+000  -0.000000e+000 -1.000000e+000
    outer loop
      vertex -2.500000e+001  6.800000e+001  0.000000e+000
      vertex -1.525000e+001  1.975000e+001  0.000000e+000
      vertex -1.525000e+001  1.525000e+001  0.000000e+000
    endloop
  endfacet
  facet normal  -0.000000e+000  -0.000000e+000 -1.000000e+000
    outer loop
      vertex -2.500000e+001  6.800000e+001  0.000000e+000
      vertex -1.525000e+001  1.525000e+001  0.000000e+000
      vertex -1.525000e+001 -1.525000e+001  0.000000e+000
    endloop
  endfacet
  facet normal  -0.000000e+000  -0.000000e+000 -1.000000e+000
    outer loop
      vertex -2.500000e+001  6.800000e+001  0.000000e+000
      vertex -1.525000e+001 -1.525000e+001  0.000000e+000
      vertex -1.525000e+001 -1.975000e+001  0.000000e+000
    endloop
  endfacet
  facet normal  -0.000000e+000  -0.000000e+000 -1.000000e+000
    outer loop
      vertex -2.500000e+001  6.800000e+001  0.000000e+000
      vertex -1.525000e+001 -1.975000e+001  0.000000e+000
      vertex -1.525000e+001 -5.025000e+001  0.000000e+000
    endloop
  endfacet
  facet normal  -0.000000e+000  0.000000e+000 -1.000000e+000
    outer loop
      vertex -2.500000e+001  6.800000e+001  0.000000e+000
      vertex -1.525000e+001 -5.025000e+001  0.000000e+000
      vertex -2.500000e+001 -6.800000e+001  0.000000e+000
    endloop
  endfacet
  facet normal  0.000000e+000  0.000000e+000 -1.000000e+000
    outer loop
      vertex -1.525000e+001  5.025000e+001  0.000000e+000
      vertex -2.121320e+000  6.312132e+001  0.000000e+000
      vertex -3.000000e+000  6.100000e+001  0.000000e+000
    endloop
  endfacet
  facet normal  0.000000e+000  -0.000000e+000 -1.000000e+000
    outer loop
      vertex -1.525000e+001  5.025000e+001  0.000000e+000
      vertex -3.000000e+000  6.100000e+001  0.000000e+000
      vertex -2.121320e+000  5.887868e+001  0.000000e+000
    endloop
  endfacet
  facet normal  0.000000e+000  -0.000000e+000 -1.000000e+000
    outer loop
      vertex -1.525000e+001  5.025000e+001  0.000000e+000
      vertex -2.121320e+000  5.887868e+001  0.000000e+000
      vertex -4.824368e-016  5.800000e+001  0.000000e+000
    endloop
  endfacet
  facet normal  0.000000e+000  -0.000000e+000 -1.000000e+000
    outer loop
      vertex -1.525000e+001  5.025000e+001  0.000000e+000
      vertex -4.824368e-016  5.800000e+001  0.000000e+000
      vertex  1.525000e+001  5.025000e+001  0.000000e+000
    endloop
  endfacet
  facet normal  0.000000e+000  -0.000000e+000 -9.999999e-001
    outer loop
      vertex -2.500000e+001 -6.800000e+001  0.000000e+000
      vertex -1.525000e+001 -5.025000e+001  0.000000e+000
      vertex  1.525000e+001 -5.025000e+001  0.000000e+000
    endloop
  endfacet
  facet normal  0.000000e+000  0.000000e+000 -9.999999e-001
    outer loop
      vertex -2.500000e+001 -6.800000e+001  0.000000e+000
      vertex  1.525000e+001 -5.025000e+001  0.000000e+000
      vertex -5.510911e-016 -5.800000e+001  0.000000e+000
    endloop
  endfacet
  facet normal  0.000000e+000  0.000000e+000 -1.000000e+000
    outer loop
      vertex -2.500000e+001 -6.800000e+001  0.000000e+000
      vertex -5.510911e-016 -5.800000e+001  0.000000e+000
      vertex -2.121320e+000 -5.887868e+001  0.000000e+000
    endloop
  endfacet
  facet normal  0.000000e+000  0.000000e+000 -1.000000e+000
    outer loop
      vertex -2.500000e+001 -6.800000e+001  0.000000e+000
      vertex -2.121320e+000 -5.887868e+001  0.000000e+000
      vertex -3.000000e+000 -6.100000e+001  0.000000e+000
    endloop
  endfacet
  facet normal  0.000000e+000  -0.000000e+000 -1.000000e+000
    outer loop
      vertex -2.500000e+001 -6.800000e+001  0.000000e+000
      vertex -3.000000e+000 -6.100000e+001  0.000000e+000
      vertex -2.121320e+000 -6.312132e+001  0.000000e+000
    endloop
  endfacet
  facet normal  0.000000e+000  -0.000000e+000 -9.999999e-001
    outer loop
      vertex -2.500000e+001 -6.800000e+001  0.000000e+000
      vertex -2.121320e+000 -6.312132e+001  0.000000e+000
      vertex -4.824368e-016 -6.400000e+001  0.000000e+000
    endloop
  endfacet
  facet normal  0.000000e+000  0.000000e+000 -1.000000e+000
    outer loop
      vertex  1.525000e+001  5.025000e+001  0.000000e+000
      vertex -4.824368e-016  5.800000e+001  0.000000e+000
      vertex  2.121320e+000  5.887868e+001  0.000000e+000
    endloop
  endfacet
  facet normal  0.000000e+000  0.000000e+000 -1.000000e+000
    outer loop
      vertex  1.525000e+001  5.025000e+001  0.000000e+000
      vertex  2.121320e+000  5.887868e+001  0.000000e+000
      vertex  3.000000e+000  6.100000e+001  0.000000e+000
    endloop
  endfacet
  facet normal  0.000000e+000  0.000000e+000 -1.000000e+000
    outer loop
      vertex  1.525000e+001  5.025000e+001  0.000000e+000
      vertex  3.000000e+000  6.100000e+001  0.000000e+000
      vertex  2.121320e+000  6.312132e+001  0.000000e+000
    endloop
  endfacet
  facet normal  0.000000e+000  0.000000e+000 -1.000000e+000
    outer loop
      vertex  2.500000e+001  6.800000e+001  0.000000e+000
      vertex  1.525000e+001 -1.975000e+001  0.000000e+000
      vertex  1.525000e+001 -1.525000e+001  0.000000e+000
    endloop
  endfacet
  facet normal  0.000000e+000  0.000000e+000 -1.000000e+000
    outer loop
      vertex  2.500000e+001  6.800000e+001  0.000000e+000
      vertex  1.525000e+001 -1.525000e+001  0.000000e+000
      vertex  1.525000e+001  1.525000e+001  0.000000e+000
    endloop
  endfacet
  facet normal  0.000000e+000  0.000000e+000 -1.000000e+000
    outer loop
      vertex  2.500000e+001  6.800000e+001  0.000000e+000
      vertex  1.525000e+001  1.525000e+001  0.000000e+000
      vertex  1.525000e+001  1.975000e+001  0.000000e+000
    endloop
  endfacet
  facet normal  0.000000e+000  0.000000e+000 -1.000000e+000
    outer loop
      vertex  2.500000e+001  6.800000e+001  0.000000e+000
      vertex  1.525000e+001  1.975000e+001  0.000000e+000
      vertex  1.525000e+001  5.025000e+001  0.000000e+000
    endloop
  endfacet
  facet normal  0.000000e+000  0.000000e+000 -1.000000e+000
    outer loop
      vertex  2.500000e+001  6.800000e+001  0.000000e+000
      vertex  1.525000e+001  5.025000e+001  0.000000e+000
      vertex  2.121320e+000  6.312132e+001  0.000000e+000
    endloop
  endfacet
  facet normal  0.000000e+000  0.000000e+000 -9.999999e-001
    outer loop
      vertex  2.500000e+001  6.800000e+001  0.000000e+000
      vertex  2.121320e+000  6.312132e+001  0.000000e+000
      vertex -5.510911e-016  6.400000e+001  0.000000e+000
    endloop
  endfacet
  facet normal  0.000000e+000  0.000000e+000 -1.000000e+000
    outer loop
      vertex -1.525000e+001 -1.975000e+001  0.000000e+000
      vertex -1.525000e+001 -1.525000e+001  0.000000e+000
      vertex  1.525000e+001 -1.975000e+001  0.000000e+000
    endloop
  endfacet
  facet normal  0.000000e+000  0.000000e+000 -1.000000e+000
    outer loop
      vertex  1.525000e+001 -1.975000e+001  0.000000e+000
      vertex -1.525000e+001 -1.525000e+001  0.000000e+000
      vertex  1.525000e+001 -1.525000e+001  0.000000e+000
    endloop
  endfacet
  facet normal  0.000000e+000  0.000000e+000 -1.000000e+000
    outer loop
      vertex -1.525000e+001  1.525000e+001  0.000000e+000
      vertex -1.525000e+001  1.975000e+001  0.000000e+000
      vertex  1.525000e+001  1.525000e+001  0.000000e+000
    endloop
  endfacet
  facet normal  0.000000e+000  0.000000e+000 -1.000000e+000
    outer loop
      vertex  1.525000e+001  1.525000e+001  0.000000e+000
      vertex -1.525000e+001  1.975000e+001  0.000000e+000
      vertex  1.525000e+001  1.975000e+001  0.000000e+000
    endloop
  endfacet
  facet normal  3.826841e-001  9.238794e-001  -0.000000e+000
    outer loop
      vertex -1.217225e-015 -6.400000e+001  2.500000e+001
      vertex -2.121320e+000 -6.312132e+001  0.000000e+000
      vertex -2.121320e+000 -6.312132e+001  2.500000e+001
    endloop
  endfacet
  facet normal  9.238794e-001  3.826837e-001  0.000000e+000
    outer loop
      vertex -2.121320e+000 -6.312132e+001  2.500000e+001
      vertex -2.121320e+000 -6.312132e+001  0.000000e+000
      vertex -3.000000e+000 -6.100000e+001  0.000000e+000
    endloop
  endfacet
  facet normal  9.238794e-001  3.826837e-001  -0.000000e+000
    outer loop
      vertex -2.121320e+000 -6.312132e+001  2.500000e+001
      vertex -3.000000e+000 -6.100000e+001  0.000000e+000
      vertex -3.000000e+000 -6.100000e+001  2.500000e+001
    endloop
  endfacet
  facet normal  3.826841e-001  9.238794e-001  1.124767e-017
    outer loop
      vertex -2.121320e+000 -6.312132e+001  0.000000e+000
      vertex -1.217225e-015 -6.400000e+001  2.500000e+001
      vertex -4.824368e-016 -6.400000e+001  0.000000e+000
    endloop
  endfacet
  facet normal -3.826841e-001  9.238794e-001 -1.124767e-017
    outer loop
      vertex -4.824368e-016 -6.400000e+001  0.000000e+000
      vertex -1.217225e-015 -6.400000e+001  2.500000e+001
      vertex  2.121320e+000 -6.312132e+001  2.500000e+001
    endloop
  endfacet
  facet normal -3.826841e-001  9.238794e-001  0.000000e+000
    outer loop
      vertex -4.824368e-016 -6.400000e+001  0.000000e+000
      vertex  2.121320e+000 -6.312132e+001  2.500000e+001
      vertex  2.121320e+000 -6.312132e+001  0.000000e+000
    endloop
  endfacet
  facet normal -9.238794e-001  3.826837e-001  0.000000e+000
    outer loop
      vertex  2.121320e+000 -6.312132e+001  0.000000e+000
      vertex  2.121320e+000 -6.312132e+001  2.500000e+001
      vertex  3.000000e+000 -6.100000e+001  2.500000e+001
    endloop
  endfacet
  facet normal -9.238794e-001  3.826837e-001  0.000000e+000
    outer loop
      vertex  2.121320e+000 -6.312132e+001  0.000000e+000
      vertex  3.000000e+000 -6.100000e+001  2.500000e+001
      vertex  3.000000e+000 -6.100000e+001  0.000000e+000
    endloop
  endfacet
  facet normal -3.826841e-001 -9.238794e-001  0.000000e+000
    outer loop
      vertex -3.834758e-017 -5.800000e+001  2.500000e+001
      vertex  2.121320e+000 -5.887868e+001  0.000000e+000
      vertex  2.121320e+000 -5.887868e+001  2.500000e+001
    endloop
  endfacet
  facet normal -9.238794e-001 -3.826837e-001  -0.000000e+000
    outer loop
      vertex  2.121320e+000 -5.887868e+001  2.500000e+001
      vertex  2.121320e+000 -5.887868e+001  0.000000e+000
      vertex  3.000000e+000 -6.100000e+001  0.000000e+000
    endloop
  endfacet
  facet normal -9.238794e-001 -3.826837e-001  0.000000e+000
    outer loop
      vertex  2.121320e+000 -5.887868e+001  2.500000e+001
      vertex  3.000000e+000 -6.100000e+001  0.000000e+000
      vertex  3.000000e+000 -6.100000e+001  2.500000e+001
    endloop
  endfacet
  facet normal -3.826841e-001 -9.238794e-001  7.848751e-018
    outer loop
      vertex  2.121320e+000 -5.887868e+001  0.000000e+000
      vertex -3.834758e-017 -5.800000e+001  2.500000e+001
      vertex -5.510911e-016 -5.800000e+001  0.000000e+000
    endloop
  endfacet
  facet normal  3.826841e-001 -9.238794e-001 -7.848751e-018
    outer loop
      vertex -5.510911e-016 -5.800000e+001  0.000000e+000
      vertex -3.834758e-017 -5.800000e+001  2.500000e+001
      vertex -2.121320e+000 -5.887868e+001  2.500000e+001
    endloop
  endfacet
  facet normal  3.826841e-001 -9.238794e-001  0.000000e+000
    outer loop
      vertex -5.510911e-016 -5.800000e+001  0.000000e+000
      vertex -2.121320e+000 -5.887868e+001  2.500000e+001
      vertex -2.121320e+000 -5.887868e+001  0.000000e+000
    endloop
  endfacet
  facet normal  9.238794e-001 -3.826837e-001  0.000000e+000
    outer loop
      vertex -2.121320e+000 -5.887868e+001  0.000000e+000
      vertex -2.121320e+000 -5.887868e+001  2.500000e+001
      vertex -3.000000e+000 -6.100000e+001  2.500000e+001
    endloop
  endfacet
  facet normal  9.238794e-001 -3.826837e-001  0.000000e+000
    outer loop
      vertex -2.121320e+000 -5.887868e+001  0.000000e+000
      vertex -3.000000e+000 -6.100000e+001  2.500000e+001
      vertex -3.000000e+000 -6.100000e+001  0.000000e+000
    endloop
  endfacet
  facet normal  3.826841e-001  9.238794e-001  -0.000000e+000
    outer loop
      vertex -1.217225e-015  5.800000e+001  2.500000e+001
      vertex -2.121320e+000  5.887868e+001  0.000000e+000
      vertex -2.121320e+000  5.887868e+001  2.500000e+001
    endloop
  endfacet
  facet normal  9.238794e-001  3.826837e-001  0.000000e+000
    outer loop
      vertex -2.121320e+000  5.887868e+001  2.500000e+001
      vertex -2.121320e+000  5.887868e+001  0.000000e+000
      vertex -3.000000e+000  6.100000e+001  0.000000e+000
    endloop
  endfacet
  facet normal  9.238794e-001  3.826837e-001  -0.000000e+000
    outer loop
      vertex -2.121320e+000  5.887868e+001  2.500000e+001
      vertex -3.000000e+000  6.100000e+001  0.000000e+000
      vertex -3.000000e+000  6.100000e+001  2.500000e+001
    endloop
  endfacet
  facet normal  3.826841e-001  9.238794e-001  1.124767e-017
    outer loop
      vertex -2.121320e+000  5.887868e+001  0.000000e+000
      vertex -1.217225e-015  5.800000e+001  2.500000e+001
      vertex -4.824368e-016  5.800000e+001  0.000000e+000
    endloop
  endfacet
  facet normal -3.826841e-001  9.238794e-001 -1.124767e-017
    outer loop
      vertex -4.824368e-016  5.800000e+001  0.000000e+000
      vertex -1.217225e-015  5.800000e+001  2.500000e+001
      vertex  2.121320e+000  5.887868e+001  2.500000e+001
    endloop
  endfacet
  facet normal -3.826841e-001  9.238794e-001  0.000000e+000
    outer loop
      vertex -4.824368e-016  5.800000e+001  0.000000e+000
      vertex  2.121320e+000  5.887868e+001  2.500000e+001
      vertex  2.121320e+000  5.887868e+001  0.000000e+000
    endloop
  endfacet
  facet normal -9.238794e-001  3.826837e-001  0.000000e+000
    outer loop
      vertex  2.121320e+000  5.887868e+001  0.000000e+000
      vertex  2.121320e+000  5.887868e+001  2.500000e+001
      vertex  3.000000e+000  6.100000e+001  2.500000e+001
    endloop
  endfacet
  facet normal -9.238794e-001  3.826837e-001  0.000000e+000
    outer loop
      vertex  2.121320e+000  5.887868e+001  0.000000e+000
      vertex  3.000000e+000  6.100000e+001  2.500000e+001
      vertex  3.000000e+000  6.100000e+001  0.000000e+000
    endloop
  endfacet
  facet normal -3.826841e-001 -9.238794e-001  0.000000e+000
    outer loop
      vertex -3.834758e-017  6.400000e+001  2.500000e+001
      vertex  2.121320e+000  6.312132e+001  0.000000e+000
      vertex  2.121320e+000  6.312132e+001  2.500000e+001
    endloop
  endfacet
  facet normal -9.238794e-001 -3.826837e-001  -0.000000e+000
    outer loop
      vertex  2.121320e+000  6.312132e+001  2.500000e+001
      vertex  2.121320e+000  6.312132e+001  0.000000e+000
      vertex  3.000000e+000  6.100000e+001  0.000000e+000
    endloop
  endfacet
  facet normal -9.238794e-001 -3.826837e-001  0.000000e+000
    outer loop
      vertex  2.121320e+000  6.312132e+001  2.500000e+001
      vertex  3.000000e+000  6.100000e+001  0.000000e+000
      vertex  3.000000e+000  6.100000e+001  2.500000e+001
    endloop
  endfacet
  facet normal -3.826841e-001 -9.238794e-001  7.848751e-018
    outer loop
      vertex  2.121320e+000  6.312132e+001  0.000000e+000
      vertex -3.834758e-017  6.400000e+001  2.500000e+001
      vertex -5.510911e-016  6.400000e+001  0.000000e+000
    endloop
  endfacet
  facet normal  3.826841e-001 -9.238794e-001 -7.848751e-018
    outer loop
      vertex -5.510911e-016  6.400000e+001  0.000000e+000
      vertex -3.834758e-017  6.400000e+001  2.500000e+001
      vertex -2.121320e+000  6.312132e+001  2.500000e+001
    endloop
  endfacet
  facet normal  3.826841e-001 -9.238794e-001  0.000000e+000
    outer loop
      vertex -5.510911e-016  6.400000e+001  0.000000e+000
      vertex -2.121320e+000  6.312132e+001  2.500000e+001
      vertex -2.121320e+000  6.312132e+001  0.000000e+000
    endloop
  endfacet
  facet normal  9.238794e-001 -3.826837e-001  0.000000e+000
    outer loop
      vertex -2.121320e+000  6.312132e+001  0.000000e+000
      vertex -2.121320e+000  6.312132e+001  2.500000e+001
      vertex -3.000000e+000  6.100000e+001  2.500000e+001
    endloop
  endfacet
  facet normal  9.238794e-001 -3.826837e-001  0.000000e+000
    outer loop
      vertex -2.121320e+000  6.312132e+001  0.000000e+000
      vertex -3.000000e+000  6.100000e+001  2.500000e+001
      vertex -3.000000e+000  6.100000e+001  0.000000e+000
    endloop
  endfacet
  facet normal -1.000000e+000  0.000000e+000  0.000000e+000
    outer loop
      vertex  1.525000e+001  5.025000e+001  0.000000e+000
      vertex  1.525000e+001  1.975000e+001  0.000000e+000
      vertex  1.525000e+001  5.025000e+001  2.500000e+001
    endloop
  endfacet
  facet normal -1.000000e+000  -0.000000e+000  0.000000e+000
    outer loop
      vertex  1.525000e+001  5.025000e+001  2.500000e+001
      vertex  1.525000e+001  1.975000e+001  0.000000e+000
      vertex  1.525000e+001  1.975000e+001  2.500000e+001
    endloop
  endfacet
  facet normal  0.000000e+000  1.000000e+000  0.000000e+000
    outer loop
      vertex  1.525000e+001  1.975000e+001  0.000000e+000
      vertex -1.525000e+001  1.975000e+001  0.000000e+000
      vertex  1.525000e+001  1.975000e+001  2.500000e+001
    endloop
  endfacet
  facet normal  0.000000e+000  1.000000e+000  0.000000e+000
    outer loop
      vertex  1.525000e+001  1.975000e+001  2.500000e+001
      vertex -1.525000e+001  1.975000e+001  0.000000e+000
      vertex -1.525000e+001  1.975000e+001  2.500000e+001
    endloop
  endfacet
  facet normal  1.000000e+000  0.000000e+000  0.000000e+000
    outer loop
      vertex -1.525000e+001  1.975000e+001  0.000000e+000
      vertex -1.525000e+001  5.025000e+001  0.000000e+000
      vertex -1.525000e+001  1.975000e+001  2.500000e+001
    endloop
  endfacet
  facet normal  1.000000e+000  -0.000000e+000  0.000000e+000
    outer loop
      vertex -1.525000e+001  1.975000e+001  2.500000e+001
      vertex -1.525000e+001  5.025000e+001  0.000000e+000
      vertex -1.525000e+001  5.025000e+001  2.500000e+001
    endloop
  endfacet
  facet normal  0.000000e+000 -1.000000e+000  0.000000e+000
    outer loop
      vertex -1.525000e+001  5.025000e+001  0.000000e+000
      vertex  1.525000e+001  5.025000e+001  0.000000e+000
      vertex -1.525000e+001  5.025000e+001  2.500000e+001
    endloop
  endfacet
  facet normal  0.000000e+000 -1.000000e+000  0.000000e+000
    outer loop
      vertex -1.525000e+001  5.025000e+001  2.500000e+001
      vertex  1.525000e+001  5.025000e+001  0.000000e+000
      vertex  1.525000e+001  5.025000e+001  2.500000e+001
    endloop
  endfacet
  facet normal -1.000000e+000  0.000000e+000  0.000000e+000
    outer loop
      vertex  1.525000e+001  1.525000e+001  0.000000e+000
      vertex  1.525000e+001 -1.525000e+001  0.000000e+000
      vertex  1.525000e+001  1.525000e+001  2.500000e+001
    endloop
  endfacet
  facet normal -1.000000e+000  -0.000000e+000  0.000000e+000
    outer loop
      vertex  1.525000e+001  1.525000e+001  2.500000e+001
      vertex  1.525000e+001 -1.525000e+001  0.000000e+000
      vertex  1.525000e+001 -1.525000e+001  2.500000e+001
    endloop
  endfacet
  facet normal  0.000000e+000  1.000000e+000  0.000000e+000
    outer loop
      vertex  1.525000e+001 -1.525000e+001  0.000000e+000
      vertex -1.525000e+001 -1.525000e+001  0.000000e+000
      vertex  1.525000e+001 -1.525000e+001  2.500000e+001
    endloop
  endfacet
  facet normal  0.000000e+000  1.000000e+000  0.000000e+000
    outer loop
      vertex  1.525000e+001 -1.525000e+001  2.500000e+001
      vertex -1.525000e+001 -1.525000e+001  0.000000e+000
      vertex -1.525000e+001 -1.525000e+001  2.500000e+001
    endloop
  endfacet
  facet normal  1.000000e+000  0.000000e+000  0.000000e+000
    outer loop
      vertex -1.525000e+001 -1.525000e+001  0.000000e+000
      vertex -1.525000e+001  1.525000e+001  0.000000e+000
      vertex -1.525000e+001 -1.525000e+001  2.500000e+001
    endloop
  endfacet
  facet normal  1.000000e+000  -0.000000e+000  0.000000e+000
    outer loop
      vertex -1.525000e+001 -1.525000e+001  2.500000e+001
      vertex -1.525000e+001  1.525000e+001  0.000000e+000
      vertex -1.525000e+001  1.525000e+001  2.500000e+001
    endloop
  endfacet
  facet normal  0.000000e+000 -1.000000e+000  0.000000e+000
    outer loop
      vertex -1.525000e+001  1.525000e+001  0.000000e+000
      vertex  1.525000e+001  1.525000e+001  0.000000e+000
      vertex -1.525000e+001  1.525000e+001  2.500000e+001
    endloop
  endfacet
  facet normal  0.000000e+000 -1.000000e+000  0.000000e+000
    outer loop
      vertex -1.525000e+001  1.525000e+001  2.500000e+001
      vertex  1.525000e+001  1.525000e+001  0.000000e+000
      vertex  1.525000e+001  1.525000e+001  2.500000e+001
    endloop
  endfacet
  facet normal  0.000000e+000 -1.000000e+000  0.000000e+000
    outer loop
      vertex -1.525000e+001 -1.975000e+001  0.000000e+000
      vertex  1.525000e+001 -1.975000e+001  0.000000e+000
      vertex -1.525000e+001 -1.975000e+001  2.500000e+001
    endloop
  endfacet
  facet normal  0.000000e+000 -1.000000e+000  0.000000e+000
    outer loop
      vertex -1.525000e+001 -1.975000e+001  2.500000e+001
      vertex  1.525000e+001 -1.975000e+001  0.000000e+000
      vertex  1.525000e+001 -1.975000e+001  2.500000e+001
    endloop
  endfacet
  facet normal  1.000000e+000  0.000000e+000  0.000000e+000
    outer loop
      vertex -1.525000e+001 -5.025000e+001  0.000000e+000
      vertex -1.525000e+001 -1.975000e+001  0.000000e+000
      vertex -1.525000e+001 -5.025000e+001  2.500000e+001
    endloop
  endfacet
  facet normal  1.000000e+000  -0.000000e+000  0.000000e+000
    outer loop
      vertex -1.525000e+001 -5.025000e+001  2.500000e+001
      vertex -1.525000e+001 -1.975000e+001  0.000000e+000
      vertex -1.525000e+001 -1.975000e+001  2.500000e+001
    endloop
  endfacet
  facet normal  0.000000e+000  1.000000e+000  0.000000e+000
    outer loop
      vertex  1.525000e+001 -5.025000e+001  0.000000e+000
      vertex -1.525000e+001 -5.025000e+001  0.000000e+000
      vertex  1.525000e+001 -5.025000e+001  2.500000e+001
    endloop
  endfacet
  facet normal  0.000000e+000  1.000000e+000  0.000000e+000
    outer loop
      vertex  1.525000e+001 -5.025000e+001  2.500000e+001
      vertex -1.525000e+001 -5.025000e+001  0.000000e+000
      vertex -1.525000e+001 -5.025000e+001  2.500000e+001
    endloop
  endfacet
  facet normal -1.000000e+000  0.000000e+000  0.000000e+000
    outer loop
      vertex  1.525000e+001 -1.975000e+001  0.000000e+000
      vertex  1.525000e+001 -5.025000e+001  0.000000e+000
      vertex  1.525000e+001 -1.975000e+001  2.500000e+001
    endloop
  endfacet
  facet normal -1.000000e+000  -0.000000e+000  0.000000e+000
    outer loop
      vertex  1.525000e+001 -1.975000e+001  2.500000e+001
      vertex  1.525000e+001 -5.025000e+001  0.000000e+000
      vertex  1.525000e+001 -5.025000e+001  2.500000e+001
    endloop
  endfacet
  facet normal  9.999999e-001  -0.000000e+000  0.000000e+000
    outer loop
      vertex  2.500000e+001  6.800000e+001  2.500000e+001
      vertex  2.500000e+001 -6.800000e+001  2.500000e+001
      vertex  2.500000e+001  6.800000e+001  0.000000e+000
    endloop
  endfacet
  facet normal  9.999999e-001  0.000000e+000  0.000000e+000
    outer loop
      vertex  2.500000e+001  6.800000e+001  0.000000e+000
      vertex  2.500000e+001 -6.800000e+001  2.500000e+001
      vertex  2.500000e+001 -6.800000e+001  0.000000e+000
    endloop
  endfacet
  facet normal  0.000000e+000 -1.000000e+000  0.000000e+000
    outer loop
      vertex  2.500000e+001 -6.800000e+001  2.500000e+001
      vertex -2.500000e+001 -6.800000e+001  2.500000e+001
      vertex  2.500000e+001 -6.800000e+001  0.000000e+000
    endloop
  endfacet
  facet normal  0.000000e+000 -1.000000e+000  0.000000e+000
    outer loop
      vertex  2.500000e+001 -6.800000e+001  0.000000e+000
      vertex -2.500000e+001 -6.800000e+001  2.500000e+001
      vertex -2.500000e+001 -6.800000e+001  0.000000e+000
    endloop
  endfacet
  facet normal -9.999999e-001  -0.000000e+000  0.000000e+000
    outer loop
      vertex -2.500000e+001 -6.800000e+001  2.500000e+001
      vertex -2.500000e+001  6.800000e+001  2.500000e+001
      vertex -2.500000e+001 -6.800000e+001  0.000000e+000
    endloop
  endfacet
  facet normal -9.999999e-001  0.000000e+000  0.000000e+000
    outer loop
      vertex -2.500000e+001 -6.800000e+001  0.000000e+000
      vertex -2.500000e+001  6.800000e+001  2.500000e+001
      vertex -2.500000e+001  6.800000e+001  0.000000e+000
    endloop
  endfacet
  facet normal  0.000000e+000  1.000000e+000  0.000000e+000
    outer loop
      vertex -2.500000e+001  6.800000e+001  2.500000e+001
      vertex  2.500000e+001  6.800000e+001  2.500000e+001
      vertex -2.500000e+001  6.800000e+001  0.000000e+000
    endloop
  endfacet
  facet normal  0.000000e+000  1.000000e+000  0.000000e+000
    outer loop
      vertex -2.500000e+001  6.800000e+001  0.000000e+000
      vertex  2.500000e+001  6.800000e+001  2.500000e+001
      vertex  2.500000e+001  6.800000e+001  0.000000e+000
    endloop
  endfacet
endsolid CATIA STL
